<svg width="174" height="174" viewBox="0 0 174 174" fill="none" xmlns="http://www.w3.org/2000/svg">
<g filter="url(#filter0_d)">
<circle cx="86.8778" cy="83.8778" r="80.8778" fill="#F89838" fill-opacity="0.8"/>
</g>
<g clip-path="url(#clip0)">
<path d="M131.865 106.411C131.935 105.862 132.031 105.317 132.031 104.75C132.031 104.18 131.932 103.638 131.865 103.089L135.056 100.673C135.768 100.135 135.966 99.1505 135.52 98.3748L132.654 93.4165C132.208 92.6444 131.255 92.3221 130.434 92.6692L126.761 94.2169C125.865 93.5334 124.912 92.9313 123.86 92.4921L123.372 88.5928C123.258 87.7073 122.508 87.0415 121.615 87.0415H115.888C114.996 87.0415 114.241 87.7073 114.131 88.5928L113.643 92.4921C112.591 92.9313 111.635 93.5369 110.742 94.2169L107.069 92.6692C106.248 92.3221 105.295 92.6409 104.849 93.4165L101.984 98.3748C101.537 99.1469 101.736 100.132 102.448 100.673L105.639 103.089C105.568 103.638 105.472 104.183 105.472 104.75C105.472 105.32 105.571 105.862 105.639 106.411L102.448 108.826C101.736 109.365 101.537 110.349 101.984 111.125L104.849 116.087C105.295 116.859 106.248 117.181 107.069 116.834L110.742 115.283C111.638 115.966 112.591 116.568 113.643 117.008L114.131 120.907C114.241 121.792 114.992 122.458 115.885 122.458H121.611C122.504 122.458 123.258 121.792 123.368 120.907L123.857 117.008C124.909 116.568 125.865 115.963 126.758 115.283L130.43 116.83C131.252 117.178 132.205 116.859 132.651 116.083L135.516 111.121C135.962 110.349 135.764 109.365 135.052 108.823L131.865 106.411Z" fill="white"/>
<path d="M118.75 111.833C122.662 111.833 125.834 108.662 125.834 104.75C125.834 100.838 122.662 97.6665 118.75 97.6665C114.838 97.6665 111.667 100.838 111.667 104.75C111.667 108.662 114.838 111.833 118.75 111.833Z" fill="white"/>
<path d="M86.8753 41C77.111 41 69.167 48.944 69.167 58.7083C69.167 68.4727 77.111 76.4167 86.8753 76.4167C96.6397 76.4167 104.584 68.4727 104.584 58.7083C104.584 48.944 96.6397 41 86.8753 41Z" fill="white"/>
<path d="M95.8496 114.667C94.0044 111.472 94.3727 107.537 96.5685 104.75C94.3727 101.963 94.0044 98.0315 95.8496 94.8333L98.7148 89.875C100.291 87.1444 103.23 85.4479 106.386 85.4479C106.818 85.4479 107.243 85.4798 107.665 85.54L108.075 84.7006C106.163 83.9462 104.098 83.5 101.927 83.5H71.8229C62.5473 83.5 55 91.0473 55 100.323V112.719C55 114.185 56.19 115.375 57.6563 115.375H96.2569L95.8496 114.667Z" fill="white"/>
<path d="M86.8753 41C77.111 41 69.167 48.944 69.167 58.7083C69.167 68.4727 77.111 76.4167 86.8753 76.4167V41Z" fill="white"/>
<path d="M86.875 83.5H71.8229C62.5473 83.5 55 91.0473 55 100.323V112.719C55 114.185 56.19 115.375 57.6562 115.375H86.875V83.5Z" fill="white"/>
<path d="M118.749 87.0415H115.884C114.992 87.0415 114.237 87.7073 114.128 88.5928L113.639 92.4921C112.587 92.9313 111.634 93.5369 110.738 94.2169L107.065 92.6692C106.842 92.5736 106.609 92.5311 106.378 92.5311C105.762 92.5311 105.171 92.8534 104.845 93.4165L101.98 98.3748C101.533 99.1469 101.732 100.135 102.444 100.673L105.631 103.089C105.56 103.638 105.465 104.183 105.465 104.75C105.465 105.317 105.56 105.862 105.631 106.411L102.444 108.826C101.732 109.365 101.533 110.353 101.98 111.125L104.845 116.083C105.171 116.646 105.762 116.969 106.378 116.969C106.609 116.969 106.842 116.923 107.065 116.83L110.738 115.279C111.634 115.959 112.587 116.565 113.639 117.004L114.128 120.903C114.241 121.792 114.992 122.458 115.884 122.458H118.749V111.833C114.836 111.833 111.666 108.66 111.666 104.75C111.666 100.836 114.839 97.6665 118.749 97.6665V87.0415Z" fill="white"/>
<path d="M118.75 97.6665C114.837 97.6665 111.667 100.84 111.667 104.75C111.667 108.66 114.84 111.833 118.75 111.833V97.6665Z" fill="#F89838" fill-opacity="0.8"/>
<path d="M118.639 111.833C122.553 111.833 125.723 108.66 125.723 104.75C125.723 100.84 122.549 97.6668 118.639 97.6668L118.639 111.833Z" fill="#F89838" fill-opacity="0.8"/>
</g>
<defs>
<filter id="filter0_d" x="0" y="0" width="173.756" height="173.756" filterUnits="userSpaceOnUse" color-interpolation-filters="sRGB">
<feFlood flood-opacity="0" result="BackgroundImageFix"/>
<feColorMatrix in="SourceAlpha" type="matrix" values="0 0 0 0 0 0 0 0 0 0 0 0 0 0 0 0 0 0 127 0"/>
<feOffset dy="3"/>
<feGaussianBlur stdDeviation="3"/>
<feColorMatrix type="matrix" values="0 0 0 0 0 0 0 0 0 0 0 0 0 0 0 0 0 0 0.203922 0"/>
<feBlend mode="normal" in2="BackgroundImageFix" result="effect1_dropShadow"/>
<feBlend mode="normal" in="SourceGraphic" in2="effect1_dropShadow" result="shape"/>
</filter>
<clipPath id="clip0">
<rect width="85" height="85" fill="white" transform="translate(55 41)"/>
</clipPath>
</defs>
</svg>
