<svg width="47" height="47" viewBox="0 0 47 47" fill="none" xmlns="http://www.w3.org/2000/svg">
<path d="M23.5 0C10.5423 0 0 10.5423 0 23.5C0 36.4577 10.5423 47 23.5 47C36.4577 47 47 36.4577 47 23.5C47 10.5423 36.4577 0 23.5 0ZM23.5 6.8542C29.7087 6.8542 34.7604 11.9059 34.7604 18.1146C34.7604 24.3234 29.7087 29.375 23.5 29.375C17.2913 29.375 12.2396 24.3233 12.2396 18.1146C12.2396 11.9058 17.2913 6.8542 23.5 6.8542ZM23.5 43.0833C17.1011 43.0833 11.4269 39.9847 7.85111 35.2241C11.7686 33.3392 17.3632 31.3333 23.5 31.3333C29.6373 31.3333 35.2323 33.3394 39.149 35.2239C35.5732 39.9846 29.899 43.0833 23.5 43.0833Z" fill="#F89838"/>
</svg>
