<svg width="56" height="56" viewBox="0 0 56 56" fill="none" xmlns="http://www.w3.org/2000/svg">
<circle cx="28" cy="28" r="28" fill="white"/>
<circle cx="28" cy="28" r="26" stroke="#FEC572" stroke-opacity="0.7" stroke-width="4"/>
<g clip-path="url(#clip0_796_10472)">
<path d="M43.0339 36.9531C43.0609 36.7442 43.0972 36.5366 43.0972 36.321C43.0972 36.104 43.0595 35.8978 43.0339 35.6889L44.2483 34.7697C44.5192 34.5648 44.5946 34.1901 44.4248 33.8949L43.3345 32.008C43.1646 31.7142 42.8021 31.5916 42.4894 31.7237L41.0917 32.3126C40.7507 32.0525 40.3882 31.8234 39.9879 31.6563L39.8019 30.1724C39.7588 29.8354 39.473 29.582 39.1334 29.582H36.954C36.6144 29.582 36.3273 29.8354 36.2855 30.1724L36.0995 31.6563C35.6992 31.8234 35.3353 32.0539 34.9957 32.3126L33.598 31.7237C33.2854 31.5916 32.9228 31.7129 32.753 32.008L31.6626 33.8949C31.4928 34.1888 31.5683 34.5635 31.8392 34.7697L33.0535 35.6889C33.0266 35.8978 32.9902 36.1053 32.9902 36.321C32.9902 36.538 33.0279 36.7442 33.0535 36.9531L31.8392 37.8723C31.5683 38.0771 31.4928 38.4518 31.6626 38.747L32.753 40.6352C32.9228 40.929 33.2854 41.0517 33.598 40.9196L34.9957 40.3293C35.3367 40.5894 35.6992 40.8185 36.0995 40.9857L36.2855 42.4696C36.3273 42.8065 36.613 43.0599 36.9527 43.0599H39.1321C39.4717 43.0599 39.7588 42.8065 39.8006 42.4696L39.9866 40.9857C40.3868 40.8185 40.7507 40.5881 41.0904 40.3293L42.488 40.9183C42.8007 41.0503 43.1633 40.929 43.3331 40.6339L44.4235 38.7456C44.5933 38.4518 44.5178 38.0771 44.2469 37.8709L43.0339 36.9531Z" fill="#F89838"/>
<path d="M38.0432 39.0171C39.532 39.0171 40.7388 37.8103 40.7388 36.3215C40.7388 34.8328 39.532 33.626 38.0432 33.626C36.5545 33.626 35.3477 34.8328 35.3477 36.3215C35.3477 37.8103 36.5545 39.0171 38.0432 39.0171Z" fill="#F89838"/>
<path d="M25.9147 12.0615C22.1989 12.0615 19.1758 15.0846 19.1758 18.8005C19.1758 22.5163 22.1989 25.5394 25.9147 25.5394C29.6306 25.5394 32.6536 22.5163 32.6536 18.8005C32.6536 15.0846 29.6306 12.0615 25.9147 12.0615Z" fill="#F89838"/>
<path d="M29.3286 40.0949C28.6264 38.8792 28.7665 37.3818 29.6022 36.3211C28.7665 35.2604 28.6264 33.7643 29.3286 32.5473L30.4189 30.6604C31.0187 29.6212 32.1373 28.9757 33.3382 28.9757C33.5027 28.9757 33.6644 28.9878 33.8248 29.0107L33.9811 28.6913C33.2533 28.4042 32.4676 28.2344 31.6414 28.2344H20.1852C16.6553 28.2344 13.7832 31.1065 13.7832 34.6364V39.3536C13.7832 39.9116 14.2361 40.3644 14.794 40.3644H29.4836L29.3286 40.0949Z" fill="#F89838"/>
<path d="M25.9147 12.0615C22.1989 12.0615 19.1758 15.0846 19.1758 18.8005C19.1758 22.5163 22.1989 25.5394 25.9147 25.5394V12.0615Z" fill="#F89838"/>
<path d="M25.9133 28.2344H20.1852C16.6553 28.2344 13.7832 31.1065 13.7832 34.6364V39.3536C13.7832 39.9116 14.2361 40.3644 14.794 40.3644H25.9133V28.2344Z" fill="#F89838"/>
<path d="M38.0424 29.582H36.9521C36.6124 29.582 36.3254 29.8354 36.2836 30.1724L36.0976 31.6563C35.6973 31.8234 35.3347 32.0539 34.9937 32.3126L33.5961 31.7237C33.5112 31.6873 33.4222 31.6711 33.3346 31.6711C33.1001 31.6711 32.875 31.7937 32.751 32.008L31.6607 33.8949C31.4909 34.1888 31.5663 34.5648 31.8372 34.7697L33.0502 35.6889C33.0233 35.8978 32.9869 36.1053 32.9869 36.321C32.9869 36.5366 33.0233 36.7442 33.0502 36.9531L31.8372 37.8723C31.5663 38.0771 31.4909 38.4532 31.6607 38.747L32.751 40.6339C32.875 40.8482 33.1001 40.9708 33.3346 40.9708C33.4222 40.9708 33.5112 40.9533 33.5961 40.9183L34.9937 40.3279C35.3347 40.5867 35.6973 40.8172 36.0976 40.9843L36.2836 42.4682C36.3267 42.8065 36.6124 43.0599 36.9521 43.0599H38.0424V39.0165C36.5531 39.0165 35.3469 37.8089 35.3469 36.321C35.3469 34.8317 36.5545 33.6254 38.0424 33.6254V29.582Z" fill="#F89838"/>
<path d="M38.0432 33.626C36.5539 33.626 35.3477 34.8336 35.3477 36.3215C35.3477 37.8095 36.5553 39.0171 38.0432 39.0171V33.626Z" fill="white"/>
<path d="M38.0018 39.0176C39.4911 39.0176 40.6974 37.81 40.6974 36.322C40.6974 34.8341 39.4898 33.6264 38.0018 33.6264L38.0018 39.0176Z" fill="white"/>
</g>
<defs>
<clipPath id="clip0_796_10472">
<rect width="32.3469" height="32.3469" fill="white" transform="translate(13.7832 12.0615)"/>
</clipPath>
</defs>
</svg>
