<svg width="66" height="20" viewBox="0 0 66 20" fill="none" xmlns="http://www.w3.org/2000/svg">
<path fill-rule="evenodd" clip-rule="evenodd" d="M8.12436 11.6518C7.99109 11.7674 7.79972 11.7867 7.64614 11.7003C6.97435 11.1414 6.85253 10.8835 6.48728 10.3514C5.37486 11.4836 4.58848 11.8221 3.15021 11.8221C1.4466 11.8219 0.121094 10.7704 0.121094 8.66753C0.121094 7.02503 1.01662 5.90899 2.27056 5.36081C3.36851 4.87898 4.90187 4.79113 6.0752 4.65866V4.39714C6.0752 3.9153 6.11279 3.34562 5.82976 2.92831C5.58251 2.55563 5.11334 2.40346 4.69402 2.40346C3.92191 2.40346 3.23423 2.79926 3.06578 3.618C3.04447 3.80897 2.89753 3.96174 2.70757 3.99069L0.762336 3.77761C0.665245 3.76374 0.578205 3.71067 0.521317 3.63066C0.46443 3.55086 0.44272 3.45116 0.461414 3.35487C0.911088 0.976044 3.06056 0.257812 4.98609 0.257812C5.97127 0.257812 7.25738 0.519334 8.03129 1.2645C9.01466 2.18516 8.92682 3.41397 8.92682 4.74852V7.89925C8.92682 8.84865 9.32081 9.26415 9.69168 9.77473C9.82074 9.95384 9.84928 10.1778 9.69168 10.312C9.27799 10.6578 8.54348 11.2954 8.14044 11.6554L8.12436 11.6518ZM6.08424 6.71868C6.08424 7.50686 6.10213 8.16419 5.70633 8.86815C5.3839 9.43783 4.87332 9.7888 4.30384 9.7888C3.52832 9.7888 3.07503 9.19761 3.07503 8.31998C3.07503 6.59686 4.62085 6.28328 6.08424 6.28328V6.7221V6.71868Z" fill="#232F3E" />
<path fill-rule="evenodd" clip-rule="evenodd" d="M13.6668 11.5735H11.6443C11.4568 11.5636 11.3044 11.4183 11.2861 11.2313V0.841989C11.293 0.633736 11.4648 0.469104 11.6731 0.471114H13.5592C13.7524 0.481768 13.9068 0.636148 13.9174 0.829325V2.18538H13.955C14.4459 0.872343 15.372 0.261656 16.6187 0.261656C17.8654 0.261656 18.6769 0.872544 19.2446 2.18538C19.6237 1.17487 20.5182 0.447395 21.5846 0.282361C22.651 0.117125 23.7238 0.539862 24.3908 1.38835C25.0338 2.26257 24.9014 3.53782 24.9014 4.64482V11.199C24.8996 11.3005 24.8572 11.397 24.784 11.4673C24.7106 11.5375 24.6125 11.5757 24.511 11.5735H22.4886C22.2896 11.563 22.133 11.4 22.1304 11.2008V5.69452C22.1304 5.25751 22.168 4.16479 22.0731 3.74929C21.9227 3.05076 21.4694 2.85356 20.8837 2.85356C20.3467 2.87004 19.8713 3.20454 19.6745 3.70446C19.4667 4.23113 19.4846 5.10354 19.4846 5.69452V11.1992C19.4828 11.3003 19.4408 11.3966 19.3678 11.4669C19.2948 11.5371 19.1971 11.5755 19.0958 11.5736H17.0684C16.8698 11.5624 16.7136 11.3998 16.7102 11.201V5.69473C16.7102 4.53587 16.8893 2.82863 15.4562 2.82863C14.0232 2.82863 14.059 4.48903 14.059 5.69473V11.1994C14.0571 11.3009 14.0147 11.3974 13.9416 11.4677C13.8682 11.5379 13.7699 11.5761 13.6686 11.5739" fill="#232F3E" />
<path fill-rule="evenodd" clip-rule="evenodd" d="M36.2128 9.76692C35.8421 9.25634 35.4479 8.84084 35.4479 7.89324V4.74071C35.4479 3.40435 35.5428 2.17734 34.5524 1.25669C33.7767 0.511521 32.4905 0.25 31.5072 0.25C29.5816 0.25 27.4322 0.966422 26.9807 3.34706C26.9616 3.44395 26.9831 3.54426 27.0404 3.62466C27.0977 3.70507 27.1855 3.75814 27.2834 3.77161L29.2449 3.98287C29.4347 3.95352 29.5812 3.80096 29.6031 3.61019C29.7734 2.79165 30.4577 2.39565 31.2296 2.39565C31.6469 2.39565 32.1253 2.54963 32.3653 2.92231C32.6502 3.33781 32.6126 3.90749 32.6126 4.38933V4.64542C31.4392 4.77608 29.9043 4.86393 28.8079 5.34576C27.5397 5.89394 26.6494 7.00978 26.6494 8.65429C26.6494 10.7555 27.9749 11.8068 29.6783 11.8068C31.1114 11.8068 31.903 11.4683 33.0136 10.3362C33.3827 10.8735 33.5027 11.1262 34.1743 11.685C34.3278 11.7709 34.5184 11.7524 34.6525 11.6384C35.0555 11.2802 35.7898 10.6407 36.2037 10.295C36.3776 10.1718 36.3491 9.95326 36.2128 9.76692ZM32.2363 8.85873C31.9156 9.4266 31.4032 9.77757 30.8356 9.77757C30.0601 9.77757 29.6068 9.18638 29.6068 8.31056C29.6068 6.58563 31.1526 6.27386 32.616 6.27386V6.71087C32.616 7.50106 32.6303 8.15658 32.2363 8.85873Z" fill="#232F3E" />
<path fill-rule="evenodd" clip-rule="evenodd" d="M37.9258 2.29042V0.805511C37.9212 0.704199 37.9596 0.605701 38.0316 0.53434C38.1035 0.46298 38.2024 0.42559 38.3037 0.431219H44.9548C45.0559 0.427802 45.154 0.465794 45.2263 0.536552C45.2987 0.60731 45.3391 0.704398 45.3381 0.805711V2.07935C45.3381 2.29243 45.159 2.57204 44.8384 3.01267L41.3919 7.93134C42.671 7.90099 44.0232 8.09256 45.1857 8.74646C45.4004 8.86104 45.5371 9.08176 45.5439 9.32499V10.9156C45.5439 11.1341 45.3057 11.3866 45.0531 11.2559C42.8469 10.122 40.2281 10.1266 38.0259 11.2684C37.7948 11.392 37.5529 11.143 37.5529 10.9245V9.41082C37.5318 9.05402 37.6179 8.69902 37.8002 8.39167L41.793 2.65969H38.3108C38.2093 2.66371 38.1108 2.62571 38.038 2.55516C37.9652 2.4844 37.9246 2.38691 37.9256 2.28539" fill="#232F3E" />
<path fill-rule="evenodd" clip-rule="evenodd" d="M51.0811 2.36604C49.5889 2.36604 49.4941 4.39731 49.4941 5.66553C49.4941 6.93374 49.4762 9.64203 51.0614 9.64203C52.6466 9.64203 52.7057 7.45678 52.7057 6.12404C52.7057 5.24982 52.6681 4.20032 52.403 3.37092C52.1754 2.6545 51.7223 2.36604 51.0811 2.36604ZM51.0614 0.245117C54.0654 0.245117 55.69 2.82456 55.69 6.10253C55.69 9.27136 53.8987 11.7845 51.0614 11.7845C48.1147 11.7845 46.5098 9.20502 46.5098 5.99338C46.5098 2.78174 48.1344 0.245117 51.0614 0.245117Z" fill="#232F3E" />
<path fill-rule="evenodd" clip-rule="evenodd" d="M59.6047 11.5515H57.5877C57.3887 11.5411 57.2319 11.378 57.2295 11.1788V0.789493C57.2508 0.592296 57.4199 0.44435 57.6183 0.449174H59.4955C59.6664 0.454601 59.813 0.5732 59.8538 0.739239V2.32807H59.8932C60.4592 0.907692 61.2526 0.230469 62.6499 0.230469C63.5563 0.230469 64.4412 0.558326 65.0126 1.45385C65.5411 2.28506 65.5411 3.68393 65.5411 4.68881V11.2251C65.5116 11.4158 65.3453 11.5551 65.1524 11.5511H63.1175C62.9349 11.5433 62.7842 11.406 62.7593 11.2251V5.58434C62.7593 4.4486 62.8917 2.78639 61.4928 2.78639C60.9734 2.81031 60.5157 3.13515 60.3213 3.61759C60.0383 4.2516 60.0007 4.88581 60.0007 5.58796V11.1784C59.9929 11.3893 59.8176 11.5551 59.6067 11.5511" fill="#232F3E" />
<path fill-rule="evenodd" clip-rule="evenodd" d="M40.6695 15.6459C36.8702 18.4492 31.355 19.9448 26.6188 19.9448C20.2828 19.9772 14.163 17.6424 9.45865 13.3977C9.10043 13.0771 9.41925 12.6383 9.84741 12.8871C14.7339 15.7299 20.7741 17.4423 27.0184 17.4423C31.5192 17.4178 35.9709 16.5046 40.1179 14.7556C40.7591 14.4832 41.2982 15.1783 40.6697 15.6511M42.2492 13.8474C42.7365 14.4689 41.7119 17.0341 41.2516 18.1787C41.1119 18.5244 41.411 18.6641 41.7246 18.4026C43.7613 16.6974 44.2879 13.1255 43.8741 12.6097C43.4604 12.0939 39.8976 11.6567 37.723 13.1846C37.3881 13.4192 37.4454 13.7434 37.8178 13.6986C39.0412 13.5517 41.7676 13.224 42.2531 13.8474" fill="#FF9900" />
</svg>