<svg width="486" height="128" fill="none" xmlns="http://www.w3.org/2000/svg"><g filter="url(#a)"><rect x="24" y="16" width="438" height="80" rx="8" fill="#fff"/></g><path d="M89.395 34.156a1.567 1.567 0 0 0-1.662.188L72.446 46.573h-7.303A3.148 3.148 0 0 0 62 49.715v12.571a3.146 3.146 0 0 0 3.143 3.143h7.303L87.73 77.657c.285.227.634.343.983.343a1.568 1.568 0 0 0 1.571-1.571V35.573c0-.603-.345-1.153-.889-1.417ZM98.24 44.89c-.62-.61-1.613-.6-2.222.012-.61.62-.604 1.612.012 2.225 2.376 2.345 3.683 5.497 3.683 8.875 0 3.379-1.307 6.531-3.683 8.875a1.572 1.572 0 0 0-.013 2.222c.308.311.714.465 1.116.465.4 0 .798-.15 1.106-.455 2.98-2.932 4.617-6.88 4.617-11.107 0-4.227-1.637-8.174-4.617-11.112Z" fill="#F89838"/><path d="M102.674 40.46a1.573 1.573 0 0 0-2.216 2.231c3.574 3.542 5.541 8.269 5.541 13.31 0 5.04-1.967 9.764-5.541 13.306a1.58 1.58 0 0 0-.009 2.225 1.58 1.58 0 0 0 2.225.006c4.173-4.132 6.468-9.65 6.468-15.537 0-5.886-2.295-11.405-6.468-15.541Z" fill="#F89838"/><path stroke="#68C453" stroke-width="6" stroke-linecap="round" d="M144 35v41m22-36v31m22-36v41m22-44v48m22-40v31m22-40v50m22-42v33m22-37v41m22-37v33m22-37v41m22-37v33m22-37v41m22-41v41m22-37v33"/><defs><filter id="a" x="0" y="0" width="486" height="128" filterUnits="userSpaceOnUse" color-interpolation-filters="sRGB"><feFlood flood-opacity="0" result="BackgroundImageFix"/><feColorMatrix in="SourceAlpha" values="0 0 0 0 0 0 0 0 0 0 0 0 0 0 0 0 0 0 127 0" result="hardAlpha"/><feOffset dy="8"/><feGaussianBlur stdDeviation="12"/><feComposite in2="hardAlpha" operator="out"/><feColorMatrix values="0 0 0 0 0 0 0 0 0 0 0 0 0 0 0 0 0 0 0.15 0"/><feBlend in2="BackgroundImageFix" result="effect1_dropShadow_3_921"/><feBlend in="SourceGraphic" in2="effect1_dropShadow_3_921" result="shape"/></filter></defs></svg>