<svg width="31" height="23" viewBox="0 0 31 23" fill="none" xmlns="http://www.w3.org/2000/svg">
<path d="M1.1631 13.0132L11.9972 22.5771C12.3064 22.8502 12.7186 23 13.1581 23C13.5981 23 14.0101 22.8499 14.3193 22.5771L15.303 21.7086C15.612 21.436 15.7823 21.072 15.7823 20.6838C15.7823 20.2958 15.612 19.9195 15.303 19.6469L8.98255 14.0553L29.0629 14.0553C29.9682 14.0553 30.6836 13.4296 30.6836 12.6302L30.6836 11.4023C30.6836 10.6029 29.9682 9.91417 29.0629 9.91417L8.91085 9.91417L15.3027 4.29135C15.6118 4.01834 15.782 3.66417 15.782 3.27598C15.782 2.88822 15.6118 2.52888 15.3027 2.2561L14.3191 1.39037C14.0098 1.11737 13.5979 0.968592 13.1579 0.968592C12.7184 0.968593 12.3062 1.1193 11.9969 1.39231L1.16286 10.956C0.852862 11.2299 0.682376 11.5955 0.683596 11.9841C0.68262 12.374 0.852862 12.7398 1.1631 13.0132Z" fill="#68C453"/>
</svg>
