<svg width="30" height="25" viewBox="0 0 30 25" fill="none" xmlns="http://www.w3.org/2000/svg">
<path d="M0.47951 13.6676L11.3136 24.5202C11.6228 24.83 12.035 25 12.4745 25C12.9145 25 13.3265 24.8297 13.6357 24.5202L14.6194 23.5346C14.9284 23.2253 15.0987 22.8122 15.0987 22.3717C15.0987 21.9314 14.9284 21.5044 14.6194 21.1951L8.29896 14.85L28.3793 14.85C29.2846 14.85 30 14.1401 30 13.2329L30 11.8396C30 10.9325 29.2846 10.1509 28.3793 10.1509L8.22725 10.1509L14.6192 3.77047C14.9282 3.46069 15.0984 3.05879 15.0984 2.6183C15.0984 2.17829 14.9282 1.77053 14.6192 1.46099L13.6355 0.478609C13.3262 0.168821 12.9143 1.49368e-06 12.4743 1.53215e-06C12.0348 1.57057e-06 11.6226 0.171018 11.3133 0.480806L0.479268 11.3332C0.16927 11.6439 -0.00121611 12.0588 4.62924e-06 12.4998C-0.000971895 12.9422 0.16927 13.3573 0.47951 13.6676Z" fill="white"/>
</svg>
