<svg width="43" height="44" viewBox="0 0 43 44" fill="none" xmlns="http://www.w3.org/2000/svg">
<path d="M12.1494 7.79968L12.1494 3.76972C12.1494 2.2087 10.8841 0.943359 9.32305 0.943359L3.17637 0.943359C1.61535 0.943359 0.350006 2.2087 0.350006 3.76972L0.350006 7.79968C0.350006 9.3607 1.61535 10.626 3.17637 10.626L9.32305 10.626C10.8836 10.626 12.1494 9.3607 12.1494 7.79968Z" fill="#589CE0"/>
<path d="M0.350006 6.46346L0.350006 3.76972C0.350006 2.2087 1.61535 0.943359 3.17637 0.943359L9.32305 0.943359C10.8841 0.943359 12.1494 2.2087 12.1494 3.76972L12.1494 6.46346C12.1494 4.90244 10.8841 3.6371 9.32305 3.6371L3.17637 3.6371C1.61535 3.6371 0.350006 4.90244 0.350006 6.46346Z" fill="#357FBC"/>
<path d="M27.3872 29.9579L27.3872 25.9279C27.3872 24.3673 26.1219 23.1016 24.5608 23.1016L3.17616 23.1016C1.61514 23.1016 0.349796 24.3669 0.349796 25.9279L0.349796 29.9579C0.349796 31.5189 1.61514 32.7842 3.17616 32.7842L24.5608 32.7842C26.1219 32.7842 27.3872 31.5189 27.3872 29.9579Z" fill="#FFBF3E"/>
<path d="M0.349796 28.6217L0.349796 25.9279C0.349796 24.3669 1.61514 23.1016 3.17616 23.1016L24.5613 23.1016C26.1223 23.1016 27.3872 24.3669 27.3872 25.9279L27.3872 28.6217C27.3872 27.0606 26.1223 25.7953 24.5613 25.7953L3.17616 25.7953C1.61514 25.7953 0.349796 27.0606 0.349796 28.6217Z" fill="#E8A328"/>
<path d="M42.0391 40.6987L42.0391 36.6691C42.0391 35.1081 40.7737 33.8428 39.2127 33.8428L3.17659 33.8428C1.61557 33.8428 0.350227 35.1081 0.350227 36.6691L0.350227 40.6987C0.350227 42.2597 1.61557 43.525 3.17659 43.525L39.2127 43.525C40.7737 43.525 42.0391 42.2597 42.0391 40.6987Z" fill="#F94141"/>
<path d="M0.350227 39.3619L0.350227 36.6695C0.350227 35.1084 1.61557 33.8418 3.17659 33.8418L39.2127 33.8418C40.7737 33.8418 42.0391 35.1084 42.0391 36.6695L42.0391 39.3619C42.0391 37.8009 40.7737 36.5355 39.2127 36.5355L3.17659 36.5355C1.61557 36.5355 0.350227 37.8009 0.350227 39.3619Z" fill="#E22B2B"/>
<path d="M42.0391 19.2182L42.0391 15.1887C42.0391 13.6276 40.7737 12.3623 39.2127 12.3623L3.17659 12.3623C1.61557 12.3623 0.350227 13.6276 0.350227 15.1887L0.350227 19.2182C0.350227 20.7792 1.61557 22.0445 3.17659 22.0445L39.2127 22.0445C40.7737 22.0445 42.0391 20.7792 42.0391 19.2182Z" fill="#30CEB3"/>
<path d="M0.350227 17.2032L0.350227 14.5108C0.350227 12.9497 1.61557 11.6831 3.17659 11.6831L39.2127 11.6831C40.7737 11.6831 42.0391 12.9498 42.0391 14.5108L42.0391 17.2032C42.0391 15.6422 40.7737 14.3768 39.2127 14.3768L3.17659 14.3768C1.61557 14.3768 0.350227 15.6422 0.350227 17.2032Z" fill="#1FB598"/>
</svg>
