<svg width="58" height="38" viewBox="0 0 58 38" fill="none" xmlns="http://www.w3.org/2000/svg">
<mask id="mask0_1305_2400" style="mask-type:alpha" maskUnits="userSpaceOnUse" x="0" y="0" width="58" height="38">
<rect x="0.0332031" y="0.597656" width="57.3203" height="36.7402" fill="#D9D9D9"/>
</mask>
<g mask="url(#mask0_1305_2400)">
<path d="M-118.255 -106.996H55.9124C65.1571 -106.996 74.0231 -103.325 80.5601 -96.7905C87.0971 -90.256 90.7695 -81.3934 90.7695 -72.1523V-34.4407C90.7788 -29.8601 89.884 -25.3226 88.1361 -21.0883C86.3883 -16.854 83.8218 -13.0061 80.5838 -9.76491C77.3458 -6.52374 73.4998 -3.95305 69.2663 -2.20014C65.0327 -0.44723 60.4948 0.45346 55.9124 0.450333H45.4552C43.084 9.62344 42.4912 21.7832 51.4544 32.6155C51.4544 32.6155 15.3643 24.6749 7.23096 0.450333H-118.255C-122.847 0.469092 -127.398 -0.420087 -131.645 -2.166C-135.892 -3.91191 -139.752 -6.48011 -143.003 -9.72285C-146.254 -12.9656 -148.831 -16.8188 -150.586 -21.0609C-152.341 -25.303 -153.24 -29.8501 -153.23 -34.4407V-72.1523C-153.23 -76.738 -152.325 -81.2786 -150.566 -85.5138C-148.807 -89.7489 -146.228 -93.5954 -142.979 -96.8324C-139.73 -100.07 -135.873 -102.634 -131.63 -104.378C-127.388 -106.122 -122.842 -107.011 -118.255 -106.996Z" fill="white"/>
</g>
</svg>
