<svg width="27" height="19" viewBox="0 0 27 19" fill="none" xmlns="http://www.w3.org/2000/svg">
<path d="M20.0302 6.13889V12.73L25.3624 17.2119V1.78809L20.0302 6.13889ZM2.48695 1.78809H15.9612C17.9235 1.78809 20.0155 3.33433 20.0155 5.39084V15.9253C20.0191 16.2618 19.884 16.586 19.6398 16.8271C19.3956 17.0681 19.0621 17.2065 18.7122 17.2119H4.84628C2.61795 17.2119 1.30127 15.2839 1.30127 13.356L1.31464 3.07083C1.28949 2.90844 1.30133 2.74272 1.34933 2.58516C1.39734 2.42759 1.48037 2.28194 1.59268 2.15826C1.70362 2.03611 1.84173 1.93953 1.99676 1.87567C2.1518 1.81182 2.31979 1.78232 2.48829 1.78937L2.48695 1.78809Z" stroke="#606060" stroke-width="2" stroke-linecap="round" stroke-linejoin="round"/>
</svg>
