<svg width="64" height="64" viewBox="0 0 64 64" fill="none" xmlns="http://www.w3.org/2000/svg">
<circle cx="32" cy="32" r="30.5" fill="white" stroke="#B2E68D" stroke-width="3"/>
<g clip-path="url(#clip0_1422_10839)">
<path d="M35.9538 30.0989L31.4838 34.5689L48.2752 51.3604C49.0981 52.1833 50.4322 52.1833 51.2551 51.3604L52.7454 49.8701C53.5682 49.0472 53.5682 47.7131 52.7454 46.8902L35.9538 30.0989Z" fill="#F9F3AB"/>
<path d="M35.9538 30.0989L31.4838 34.5689L34.8285 37.9137C35.0466 37.8375 35.2632 37.7587 35.4772 37.6759C36.2958 37.3593 37.026 36.8838 37.6474 36.2624C38.2689 35.641 38.7444 34.9108 39.0608 34.0923C39.1435 33.8783 39.2224 33.6616 39.2986 33.4436L35.9538 30.0989Z" fill="#F4C073"/>
<path d="M37.7244 49.442L38.4332 50.1508C38.8309 50.5485 39.4758 50.5485 39.8735 50.1508L40.5823 49.442C40.98 49.0443 41.6248 49.0443 42.0224 49.442L42.7313 50.1508C43.129 50.5485 43.129 51.1933 42.7313 51.5911L42.0224 52.2999C41.6247 52.6976 41.6247 53.3424 42.0224 53.7401L42.7313 54.4489C43.129 54.8466 43.7738 54.8466 44.1715 54.4489L47.7677 50.8528L41.3207 44.4058L37.7245 48.0019C37.3267 48.3995 37.3267 49.0443 37.7244 49.442Z" fill="#F4C073"/>
<path d="M52.7453 46.8902L50.7545 44.8994L46.2844 49.3695L48.2752 51.3603C49.0981 52.1832 50.4322 52.1831 51.2551 51.3603L52.7454 49.87C53.5682 49.0472 53.5682 47.713 52.7453 46.8902Z" fill="#C399ED"/>
<path d="M42.7965 45.8889L47.266 41.4195L50.7461 44.8996L46.2767 49.3691L42.7965 45.8889Z" fill="#A3DEFE"/>
<path d="M39.3165 42.4082L43.786 37.9388L47.2661 41.4189L42.7967 45.8883L39.3165 42.4082Z" fill="#B2E68D"/>
<path d="M35.4123 34.0274C34.791 34.6488 34.0608 35.1243 33.2421 35.4409C30.1249 36.6463 26.5527 37.1591 23.1837 36.885C19.166 36.5581 15.802 35.1448 13.4549 32.7978C9.69919 29.0421 9.69919 22.931 13.4549 19.1753C14.7307 17.8995 16.3035 17.0277 18.0039 16.6189C18.4126 14.9186 19.2844 13.3458 20.5603 12.07C24.316 8.31424 30.427 8.31424 34.1828 12.07C36.5297 14.4169 37.943 17.7811 38.2699 21.7988C38.5441 25.1678 38.0313 28.74 36.8258 31.8573C36.5094 32.6758 36.0338 33.4059 35.4123 34.0274Z" fill="#F185B2"/>
<path d="M25.3078 9.47778C23.5669 9.85693 21.9109 10.7191 20.5603 12.0699C19.2845 13.3457 18.4126 14.9185 18.0039 16.6188C16.3035 17.0276 14.7307 17.8994 13.4549 19.1752C9.69919 22.9309 9.69919 29.042 13.4549 32.7977C15.8019 35.1446 19.166 36.558 23.1837 36.8849C25.6662 37.0869 28.2583 36.8602 30.698 36.2455C21.8072 29.6988 21.6207 15.837 25.3078 9.47778Z" fill="#FFA0C8"/>
<path d="M15.7252 30.5276C13.2173 28.0197 13.2173 23.9534 15.7252 21.4454C17.1637 20.0069 19.1149 19.3938 20.9906 19.6056C20.7789 17.7298 21.392 15.7788 22.8304 14.3402C25.3384 11.8322 29.4047 11.8322 31.9126 14.3402C35.797 18.2246 35.8085 25.5865 33.8314 30.6994C33.5215 31.5007 32.8858 32.1365 32.0844 32.4463C26.9715 34.4235 19.6096 34.4121 15.7252 30.5276Z" fill="#F9F3AB"/>
<path d="M26.7251 33.6663C22.2652 28.3153 21.3011 20.6077 22.4635 14.7432C21.2904 16.1317 20.798 17.8991 20.9906 19.6056C19.1149 19.3939 17.1638 20.007 15.7252 21.4454C13.2173 23.9534 13.2173 28.0197 15.7252 30.5276C18.378 33.1805 22.6525 34.0259 26.7251 33.6663Z" fill="#FFFDE4"/>
<path d="M23.2941 30.9812C24.218 30.0573 24.3706 28.7118 23.6348 27.976C22.899 27.2402 21.5535 27.3928 20.6296 28.3168C19.7056 29.2407 19.5531 30.5862 20.2888 31.322C21.0246 32.0578 22.3701 31.9052 23.2941 30.9812Z" fill="#EDA1AB"/>
<path d="M32.3635 21.9139C33.2875 20.9899 33.44 19.6444 32.7043 18.9086C31.9685 18.1729 30.623 18.3254 29.699 19.2494C28.7751 20.1733 28.6225 21.5188 29.3583 22.2546C30.0941 22.9904 31.4396 22.8378 32.3635 21.9139Z" fill="#EDA1AB"/>
<path d="M21.6113 28.0119C21.4407 28.0119 21.2702 27.9468 21.14 27.8167L20.5492 27.2258C20.289 26.9655 20.289 26.5435 20.5493 26.2833C20.8096 26.023 21.2316 26.0231 21.4918 26.2834L22.0826 26.8743C22.3429 27.1345 22.3429 27.5565 22.0825 27.8167C21.9525 27.9468 21.7818 28.0119 21.6113 28.0119Z" fill="#4E5660"/>
<path d="M28.7304 20.8929C28.5598 20.8929 28.3893 20.8278 28.2591 20.6977L27.6683 20.1068C27.4081 19.8465 27.4081 19.4246 27.6684 19.1644C27.9287 18.9041 28.3506 18.9042 28.6109 19.1645L29.2017 19.7554C29.462 20.0156 29.462 20.4376 29.2016 20.6978C29.0715 20.8278 28.9009 20.8929 28.7304 20.8929Z" fill="#4E5660"/>
<path d="M24.3799 25.4211C24.3244 25.4211 24.2687 25.4193 24.2129 25.4155C23.8457 25.3902 23.5685 25.0721 23.5937 24.705C23.6188 24.3376 23.9387 24.0607 24.3042 24.0857C24.621 24.1074 24.93 23.9917 25.1534 23.7684C25.3768 23.545 25.4924 23.2356 25.4707 22.9192C25.4455 22.552 25.7228 22.234 26.09 22.2088C26.4558 22.1839 26.7753 22.4609 26.8004 22.8282C26.8484 23.5288 26.5916 24.215 26.0959 24.7109C25.6395 25.1673 25.0218 25.4211 24.3799 25.4211Z" fill="#4E5660"/>
</g>
<defs>
<clipPath id="clip0_1422_10839">
<rect width="45.494" height="45.494" fill="white" transform="translate(9.2533 9.25317)"/>
</clipPath>
</defs>
</svg>
