<svg width="154" height="154" viewBox="0 0 154 154" fill="none" xmlns="http://www.w3.org/2000/svg">
<path d="M77 154C119.526 154 154 119.526 154 77C154 34.4741 119.526 0 77 0C34.4741 0 0 34.4741 0 77C0 119.526 34.4741 154 77 154Z" fill="#68C453"/>
<path d="M77 147C115.66 147 147 115.66 147 77C147 38.3401 115.66 7 77 7C38.3401 7 7 38.3401 7 77C7 115.66 38.3401 147 77 147Z" fill="#B2E68D"/>
<path d="M76.5 140C111.57 140 140 111.57 140 76.5C140 41.4299 111.57 13 76.5 13C41.4299 13 13 41.4299 13 76.5C13 111.57 41.4299 140 76.5 140Z" fill="white"/>
<path d="M86.6118 65.2432H80.5454L86.6118 74.9665C88.6336 73.9675 90.5383 72.6506 92.2512 71.016C92.5059 70.7729 92.6214 70.4167 92.5493 70.0723C91.9739 67.3239 89.5246 65.2432 86.6118 65.2432Z" fill="#A7CFFC"/>
<path d="M66.3888 65.2432C63.4761 65.2432 61.0266 67.3238 60.4513 70.0722C60.3792 70.4167 60.4947 70.7729 60.7493 71.016C62.4622 72.6506 64.3669 73.9676 66.3888 74.9665L72.4552 65.2432H66.3888Z" fill="#9CC2ED"/>
<path d="M80.5453 65.2432H72.4556C69.1052 65.2432 66.3892 67.9592 66.3892 71.3096V74.9665C72.744 78.1065 80.2568 78.1065 86.6117 74.9665V71.3096C86.6117 67.9592 83.8957 65.2432 80.5453 65.2432Z" fill="#97C2F1"/>
<path d="M51.0887 51.8984C48.8549 51.8984 47.0444 53.7089 47.0444 55.9427V83.5785H55.133V55.9427C55.133 53.7089 53.3225 51.8984 51.0887 51.8984Z" fill="#FFB739"/>
<path d="M66.7583 97.0029V107.44L74.4777 105.956V101.911L66.7583 97.0029Z" fill="#FFB739"/>
<path d="M69.4225 92.8134L51.0885 76.8475V51.9829C51.0885 49.7792 49.3608 47.9164 47.1579 47.856C44.8724 47.7935 43 49.6276 43 51.8988V81.6519C43 82.6515 43.247 83.6355 43.7189 84.5166L53.1107 100.026L51.7626 107.441H70.4336V100.827L69.4225 92.8134Z" fill="#FFD17E"/>
<path d="M70.4333 105.955L68.4111 107.977L70.4333 109.999H73.4665C74.0248 109.999 74.4775 109.547 74.4775 108.988V105.955H70.4333Z" fill="#B8D8FF"/>
<path d="M47.8373 106.785L47.4697 108.807C47.3568 109.428 47.8337 109.999 48.4644 109.999H70.4337V105.955H48.8321C48.3435 105.955 47.9248 106.304 47.8373 106.785Z" fill="#DBEBFF"/>
<path d="M101.911 51.8984C104.145 51.8984 105.955 53.7089 105.955 55.9427V83.5785H97.8667V55.9427C97.8667 53.7089 99.6772 51.8984 101.911 51.8984Z" fill="#FFB739"/>
<path d="M105.842 47.856C105.309 47.8706 104.804 47.9918 104.345 48.1967V81.3928L99.8892 100.026L109.281 84.5166C109.753 83.6355 110 82.6516 110 81.652V51.8988C110 49.6275 108.128 47.7934 105.842 47.856Z" fill="#FFB739"/>
<path d="M105.665 84.0806C105.857 83.4807 105.956 82.8543 105.956 82.2242V51.8995C105.956 50.2452 105.293 48.8239 104.345 48.1973C102.905 48.8395 101.911 50.3132 101.911 51.9838V76.8483L83.5773 92.8142L78.522 101.912V105.956L82.5662 107.44H101.237L99.8892 100.026L105.665 84.0806Z" fill="#FFD17E"/>
<path d="M100.967 105.955L99.6802 107.977L101.703 109.999H104.535C105.166 109.999 105.643 109.428 105.53 108.807L105.162 106.785C105.075 106.304 104.656 105.955 104.168 105.955H100.967Z" fill="#B8D8FF"/>
<path d="M78.522 105.955V108.988C78.522 109.547 78.9747 109.999 79.533 109.999H101.703L100.967 105.955H78.522Z" fill="#DBEBFF"/>
<path d="M100.646 73.909C99.0453 72.394 96.5064 72.4895 94.9482 74.0477L80.8915 88.1045C79.4277 89.5683 78.5225 91.5904 78.5225 93.824V101.911C82.9894 101.911 86.6106 98.2909 86.611 93.824L100.727 79.7078C102.333 78.1017 102.306 75.4807 100.646 73.909Z" fill="#FFEAC3"/>
<path d="M74.4776 93.8242C74.4776 91.5905 73.5722 89.5684 72.1086 88.1047L58.0518 74.0479L70.4333 100.827C71.6233 101.515 73.0039 101.912 74.4776 101.912V93.8242Z" fill="#FFD17E"/>
<path d="M68.648 88.1045L58.0523 74.0477C56.494 72.4895 53.9552 72.394 52.3549 73.909C50.6944 75.4807 50.6673 78.1017 52.2735 79.7077L66.3896 93.824C66.3898 96.8171 68.017 99.4284 70.4337 100.827V93.824C70.4338 91.5904 69.7513 89.5683 68.648 88.1045Z" fill="#FFEAC3"/>
<path d="M76.5 43V61.1992C81.5255 61.1992 85.5996 57.1251 85.5996 52.0996C85.5996 47.0741 81.5255 43 76.5 43Z" fill="#A7CFFC"/>
<path d="M81.5553 52.0996C81.5553 47.0741 79.292 43 76.5 43C71.4745 43 67.4004 47.0741 67.4004 52.0996C67.4004 57.1251 71.4745 61.1992 76.5 61.1992C79.292 61.1992 81.5553 57.1251 81.5553 52.0996Z" fill="#97C2F1"/>
</svg>
