<svg width="154" height="154" viewBox="0 0 154 154" fill="none" xmlns="http://www.w3.org/2000/svg">
<circle cx="77" cy="77" r="77" fill="#B8DBA7"/>
<circle cx="77" cy="77" r="70" fill="#D3E1B1"/>
<circle cx="76.5" cy="76.5" r="63.5" fill="white"/>
<g clip-path="url(#clip0)">
<path d="M86.6116 65.2432H80.5452L86.6116 74.9665C88.6334 73.9675 90.5381 72.6506 92.251 71.016C92.5057 70.7729 92.6212 70.4167 92.5491 70.0723C91.9737 67.3239 89.5244 65.2432 86.6116 65.2432Z" fill="#A7CFFC"/>
<path d="M66.3886 65.2432C63.4759 65.2432 61.0264 67.3238 60.4511 70.0722C60.379 70.4167 60.4945 70.7729 60.7491 71.016C62.462 72.6506 64.3667 73.9676 66.3886 74.9665L72.455 65.2432H66.3886Z" fill="#9CC2ED"/>
<path d="M80.5453 65.2432H72.4556C69.1052 65.2432 66.3892 67.9592 66.3892 71.3096V74.9665C72.744 78.1065 80.2568 78.1065 86.6117 74.9665V71.3096C86.6117 67.9592 83.8957 65.2432 80.5453 65.2432Z" fill="#97C2F1"/>
<path d="M51.0887 51.8989C48.8549 51.8989 47.0444 53.7094 47.0444 55.9432V83.579H55.133V55.9432C55.133 53.7094 53.3225 51.8989 51.0887 51.8989Z" fill="#FFB739"/>
<path d="M66.7583 97.0034V107.44L74.4777 105.956V101.911L66.7583 97.0034Z" fill="#FFB739"/>
<path d="M69.4225 92.8139L51.0885 76.848V51.9834C51.0885 49.7797 49.3608 47.9169 47.1579 47.8565C44.8724 47.794 43 49.6281 43 51.8993V81.6524C43 82.652 43.247 83.636 43.7189 84.5171L53.1107 100.026L51.7626 107.441H70.4336V100.827L69.4225 92.8139Z" fill="#FFD17E"/>
<path d="M70.4333 105.955L68.4111 107.977L70.4333 109.999H73.4665C74.0248 109.999 74.4775 109.547 74.4775 108.988V105.955H70.4333Z" fill="#B8D8FF"/>
<path d="M47.8371 106.785L47.4695 108.807C47.3566 109.428 47.8335 109.999 48.4642 109.999H70.4335V105.955H48.8319C48.3433 105.955 47.9246 106.304 47.8371 106.785Z" fill="#DBEBFF"/>
<path d="M101.911 51.8989C104.145 51.8989 105.955 53.7094 105.955 55.9432V83.579H97.8669V55.9432C97.8669 53.7094 99.6774 51.8989 101.911 51.8989Z" fill="#FFB739"/>
<path d="M105.842 47.8565C105.309 47.8711 104.804 47.9922 104.345 48.1971V81.3932L99.8894 100.026L109.281 84.5171C109.753 83.636 110 82.6521 110 81.6525V51.8992C110 49.6279 108.128 47.7939 105.842 47.8565Z" fill="#FFB739"/>
<path d="M105.665 84.0801C105.857 83.4802 105.956 82.8538 105.956 82.2237V51.899C105.956 50.2447 105.293 48.8234 104.345 48.1968C102.905 48.839 101.911 50.3127 101.911 51.9833V76.8478L83.5773 92.8137L78.522 101.912V105.956L82.5662 107.44H101.237L99.8892 100.026L105.665 84.0801Z" fill="#FFD17E"/>
<path d="M100.967 105.955L99.6804 107.977L101.703 109.999H104.535C105.166 109.999 105.643 109.428 105.53 108.807L105.162 106.785C105.075 106.304 104.656 105.955 104.168 105.955H100.967Z" fill="#B8D8FF"/>
<path d="M78.522 105.955V108.988C78.522 109.547 78.9747 109.999 79.533 109.999H101.703L100.967 105.955H78.522Z" fill="#DBEBFF"/>
<path d="M100.646 73.9085C99.0453 72.3935 96.5064 72.489 94.9482 74.0472L80.8915 88.104C79.4277 89.5678 78.5225 91.5899 78.5225 93.8235V101.911C82.9894 101.911 86.6106 98.2904 86.611 93.8235L100.727 79.7073C102.333 78.1012 102.306 75.4802 100.646 73.9085Z" fill="#FFEAC3"/>
<path d="M74.4778 93.8237C74.4778 91.59 73.5724 89.5679 72.1088 88.1042L58.052 74.0474L70.4335 100.827C71.6235 101.515 73.0041 101.912 74.4778 101.912V93.8237Z" fill="#FFD17E"/>
<path d="M68.648 88.104L58.0523 74.0472C56.494 72.489 53.9552 72.3935 52.3549 73.9085C50.6944 75.4802 50.6673 78.1012 52.2735 79.7072L66.3896 93.8235C66.3898 96.8166 68.017 99.4279 70.4337 100.827V93.8235C70.4338 91.5899 69.7513 89.5678 68.648 88.104Z" fill="#FFEAC3"/>
<path d="M76.5 43V61.1992C81.5255 61.1992 85.5996 57.1251 85.5996 52.0996C85.5996 47.0741 81.5255 43 76.5 43Z" fill="#A7CFFC"/>
<path d="M81.5553 52.0996C81.5553 47.0741 79.292 43 76.5 43C71.4745 43 67.4004 47.0741 67.4004 52.0996C67.4004 57.1251 71.4745 61.1992 76.5 61.1992C79.292 61.1992 81.5553 57.1251 81.5553 52.0996Z" fill="#97C2F1"/>
</g>
<defs>
<clipPath id="clip0">
<rect width="67" height="67" fill="white" transform="translate(43 43)"/>
</clipPath>
</defs>
</svg>
