<svg width="48" height="47" viewBox="0 0 48 47" fill="none" xmlns="http://www.w3.org/2000/svg">
<circle cx="23.9273" cy="23.4998" r="17.0758" fill="white"/>
<path fill-rule="evenodd" clip-rule="evenodd" d="M23.9274 2.41675C12.0305 2.41675 2.38574 11.8563 2.38574 23.5001C2.38574 35.1438 12.0305 44.5834 23.9274 44.5834C35.8243 44.5834 45.4691 35.1438 45.4691 23.5001C45.4691 11.8563 35.8243 2.41675 23.9274 2.41675ZM33.2647 19.9351C33.4367 19.7427 33.5676 19.5187 33.6497 19.2761C33.7319 19.0335 33.7636 18.7772 33.7431 18.5225C33.7226 18.2677 33.6502 18.0195 33.5302 17.7925C33.4103 17.5655 33.2451 17.3643 33.0445 17.2007C32.8439 17.037 32.6119 16.9143 32.3621 16.8398C32.1124 16.7652 31.8499 16.7403 31.5901 16.7665C31.3304 16.7927 31.0786 16.8695 30.8496 16.9923C30.6206 17.1151 30.419 17.2815 30.2567 17.4817L21.8359 27.3698L17.4786 23.1033C17.1093 22.7542 16.6146 22.561 16.1011 22.5654C15.5877 22.5697 15.0965 22.7713 14.7334 23.1267C14.3703 23.482 14.1643 23.9628 14.1599 24.4653C14.1554 24.9679 14.3528 25.452 14.7095 25.8135L20.5845 31.5635C20.777 31.7517 21.0073 31.8986 21.261 31.9949C21.5146 32.0911 21.786 32.1346 22.0577 32.1225C22.3295 32.1104 22.5957 32.043 22.8394 31.9247C23.0831 31.8063 23.2989 31.6396 23.4731 31.4351L33.2647 19.9351Z" fill="#78C383"/>
</svg>
