<svg width="132" height="132" viewBox="0 0 132 132" fill="none" xmlns="http://www.w3.org/2000/svg">
<g opacity="0.5">
<g filter="url(#filter0_d_611_6076)">
<circle cx="66.1957" cy="62.9999" r="59.4203" fill="#BDE3F7"/>
</g>
<g clip-path="url(#clip0_611_6076)">
<path d="M30.6197 30.0663C28.0171 34.1302 25.5855 39.9897 25.3062 47.8907C24.6797 65.5586 37.3384 79.5044 37.3384 79.5044L43.3199 71.0916L38.5562 63.3459C38.5562 63.3459 29.771 49.1495 38.8555 33.9774L35.254 29.425L30.6197 30.0663Z" fill="#6840A0"/>
<path d="M55.7742 32.246C55.7742 32.246 50.324 25.267 40.7434 23.244C38.48 22.7654 36.1392 23.5261 34.4763 25.2141C33.3218 26.3854 31.9495 27.992 30.6206 30.0664C30.6206 30.0664 40.0886 32.6416 45.8269 41.1514L55.7742 32.246Z" fill="#844FC1"/>
<path d="M102.084 30.0663C104.686 34.1302 107.118 39.9897 107.398 47.8907C108.024 65.5586 95.3657 79.5044 95.3657 79.5044L89.3838 71.0916L94.1489 63.3459C94.1489 63.3459 102.934 49.1495 93.8472 33.9774L97.4517 29.425L102.084 30.0663Z" fill="#6840A0"/>
<path d="M76.9307 32.246C76.9307 32.246 82.3813 25.267 91.9585 23.244C94.2246 22.7654 96.5645 23.5261 98.2275 25.2141C99.3823 26.3854 100.757 27.992 102.084 30.0664C102.084 30.0664 92.6147 32.6416 86.8774 41.1514L76.9307 32.246Z" fill="#844FC1"/>
<path d="M76.7432 21.868C76.7432 21.868 73.0894 18.9961 66.354 18.9961C59.6167 18.9961 55.9614 21.868 55.9614 21.868L50.6387 30.0759L54.082 31.9458L57.7861 28.4207L58.3579 23.7478C58.3579 23.7478 61.0786 21.868 66.354 21.868C71.627 21.868 74.3467 23.7478 74.3467 23.7478L74.9199 28.4207L78.6226 31.9458L82.0674 30.0759L76.7432 21.868Z" fill="#844FC1"/>
<g clip-path="url(#clip1_611_6076)">
<g clip-path="url(#clip2_611_6076)">
<path d="M89.2551 33.6436C81.1579 24.2441 51.5458 24.2441 43.4473 33.6436C32.3539 46.5206 31.2452 95.0421 43.4473 106.488C52.3548 114.842 80.3475 114.842 89.2551 106.488C101.459 95.0421 100.35 46.5206 89.2551 33.6436Z" fill="#C1DB53"/>
</g>
<g clip-path="url(#clip3_611_6076)">
<path fill-rule="evenodd" clip-rule="evenodd" d="M96.2285 81.5231C96.2219 81.5231 96.2175 81.5231 96.2118 81.5229C95.9778 81.5138 95.7958 81.2961 95.8029 81.0368C95.8227 80.4146 95.8394 79.7905 95.8504 79.1649C95.8553 78.9054 96.0544 78.6978 96.2827 78.7043C96.5171 78.7095 96.7035 78.9241 96.6982 79.1837C96.6863 79.8139 96.6722 80.4428 96.651 81.07C96.6436 81.3236 96.4558 81.5232 96.2285 81.5232V81.5231ZM96.2963 77.7647H96.2946C96.0589 77.7629 95.8698 77.5514 95.872 77.292C95.872 77.0552 95.8729 76.8184 95.8729 76.5814C95.8729 76.1941 95.872 75.8067 95.8694 75.4191C95.8676 75.1597 96.0545 74.9474 96.2897 74.945C96.5233 74.9522 96.7145 75.1512 96.718 75.4106C96.7202 75.8009 96.7224 76.1913 96.7224 76.5814C96.7224 76.8201 96.7215 77.0589 96.7202 77.2973C96.7189 77.5559 96.5299 77.7647 96.2963 77.7647V77.7647ZM96.2659 74.0044C96.0346 74.0044 95.8469 73.8012 95.8407 73.5455C95.828 72.9203 95.8117 72.2955 95.791 71.6713C95.7826 71.4119 95.965 71.1939 96.1981 71.184C96.429 71.1742 96.6295 71.3766 96.6383 71.6359C96.6576 72.2646 96.6757 72.8939 96.6889 73.5233C96.6951 73.783 96.51 73.9981 96.2761 74.0043C96.2725 74.0044 96.2695 74.0044 96.2659 74.0044H96.2659ZM96.1382 70.2429C95.9139 70.2429 95.7253 70.0481 95.7139 69.7973C95.6852 69.1715 95.6517 68.5468 95.6134 67.9243C95.598 67.6652 95.7747 67.4411 96.0082 67.4238C96.2404 67.4057 96.444 67.6023 96.4594 67.8613C96.4977 68.4886 96.5312 69.118 96.5616 69.7486C96.5731 70.0078 96.3933 70.2288 96.1598 70.2424C96.1532 70.2426 96.143 70.2429 96.1382 70.2429V70.2429ZM95.9112 66.4873C95.6931 66.4873 95.5072 66.3014 95.4878 66.0558C95.442 65.4309 95.3917 64.8086 95.3376 64.1898C95.3146 63.9314 95.486 63.7016 95.7187 63.6766C95.9496 63.6503 96.158 63.8404 96.1822 64.0991C96.2364 64.7226 96.2862 65.3496 96.3347 65.979C96.3523 66.2376 96.1787 66.4645 95.9456 66.4857C95.9342 66.4868 95.9227 66.4873 95.9112 66.4873ZM95.5812 62.7442C95.3697 62.7442 95.1851 62.5672 95.1604 62.3271C95.0974 61.7032 95.0291 61.0834 94.9564 60.4681C94.9265 60.2106 95.0895 59.975 95.323 59.9414C95.5543 59.9083 95.7676 60.0896 95.798 60.3469C95.8698 60.9673 95.9386 61.5923 96.0025 62.2214C96.0298 62.4792 95.8623 62.7119 95.6301 62.7412C95.6134 62.7433 95.5971 62.7443 95.5812 62.7443V62.7442ZM95.1437 59.0149C94.9361 59.0149 94.7564 58.847 94.7255 58.6134C94.6418 57.9913 94.5532 57.3747 94.4634 56.7644C94.4241 56.5081 94.5801 56.266 94.811 56.2234C95.041 56.1808 95.26 56.3537 95.2988 56.6097C95.3917 57.2259 95.4799 57.8482 95.5645 58.4763C95.598 58.733 95.4367 58.9719 95.2058 59.0098C95.1851 59.0132 95.1644 59.0149 95.1437 59.0149L95.1437 59.0149ZM94.5854 55.305C94.3862 55.305 94.2065 55.1472 94.1708 54.9211C94.065 54.3017 93.9562 53.6899 93.8434 53.086C93.794 52.8321 93.9417 52.583 94.1717 52.5301C94.4003 52.4774 94.6242 52.6402 94.6731 52.8942C94.7868 53.5044 94.8974 54.1229 95.0027 54.7489C95.045 55.0042 94.8938 55.2495 94.6634 55.297C94.6383 55.3024 94.6114 55.3051 94.5854 55.3051L94.5854 55.305ZM93.8914 51.6237C93.6989 51.6237 93.5244 51.4772 93.4794 51.2603C93.3495 50.643 93.2142 50.0328 93.0763 49.4459C93.0177 49.1948 93.1534 48.9382 93.3799 48.873C93.6063 48.8077 93.839 48.9583 93.898 49.2097C94.0368 49.8039 94.1734 50.4223 94.3052 51.0472C94.3585 51.3001 94.2157 51.5527 93.9888 51.6114C93.9562 51.6198 93.9236 51.6237 93.8914 51.6237ZM93.0375 47.9844C92.8542 47.9844 92.6841 47.8507 92.6304 47.6452C92.4717 47.0357 92.3043 46.4359 92.1364 45.8624C92.0633 45.6158 92.1853 45.3504 92.4083 45.2701C92.6282 45.1896 92.8701 45.3243 92.941 45.5714C93.1142 46.1544 93.2816 46.764 93.4451 47.3831C93.5103 47.6326 93.3799 47.8932 93.1551 47.9655C93.1168 47.9782 93.0754 47.9844 93.0375 47.9844ZM91.984 44.4101C91.8112 44.4101 91.6486 44.2922 91.5856 44.1022C91.3891 43.5064 91.1825 42.924 90.9736 42.371C90.8833 42.1316 90.9846 41.8565 91.2019 41.756C91.4178 41.6557 91.6645 41.7685 91.757 42.0081C91.9699 42.5739 92.1809 43.1694 92.3818 43.7779C92.4633 44.0214 92.3505 44.2915 92.1302 44.3811C92.0818 44.4008 92.0329 44.4101 91.984 44.4101H91.984ZM41.6718 43.1748C41.6198 43.1748 41.5678 43.1638 41.5153 43.1408C41.2972 43.0442 41.1915 42.7706 41.2796 42.5296C41.3488 42.3368 41.4197 42.1458 41.4915 41.9571C41.5823 41.7178 41.8326 41.6057 42.0476 41.7061C42.2622 41.8065 42.364 42.082 42.2745 42.3214C42.2045 42.5052 42.1357 42.6914 42.0666 42.8796C42 43.0633 41.8414 43.1748 41.6718 43.1748H41.6718ZM90.67 40.9446C90.5114 40.9446 90.3611 40.8466 90.2884 40.6789C90.0382 40.1051 89.7773 39.5539 89.516 39.0403C89.4001 38.8146 89.4729 38.5277 89.676 38.3997C89.8787 38.2719 90.1369 38.351 90.2528 38.5767C90.5259 39.1082 90.7943 39.6781 91.0516 40.2703C91.1529 40.5041 91.0653 40.7851 90.8551 40.8978C90.7943 40.9295 90.7322 40.9445 90.67 40.9445V40.9446ZM42.5803 40.896C42.5182 40.896 42.4548 40.8809 42.3957 40.8488C42.1847 40.7357 42.097 40.4545 42.1974 40.221C42.4578 39.629 42.7275 39.0597 43.0007 38.5289C43.1161 38.3036 43.3748 38.2249 43.5784 38.3535C43.7819 38.4821 43.8529 38.769 43.7383 38.9944C43.4726 39.5072 43.2135 40.0577 42.9628 40.6307C42.8888 40.7983 42.7368 40.896 42.5803 40.896L42.5803 40.896ZM88.9882 37.6828C88.8538 37.6828 88.7216 37.6116 88.6383 37.4787C88.3563 37.0226 88.0637 36.5951 87.7734 36.2084C87.7297 36.1496 87.6826 36.0908 87.6368 36.0325C87.4825 35.8371 87.5024 35.5402 87.6782 35.3694C87.8531 35.1987 88.1223 35.2184 88.2761 35.4141C88.3255 35.4771 88.3739 35.5408 88.4233 35.6048C88.7335 36.0148 89.0406 36.4664 89.3385 36.9471C89.4711 37.1614 89.4222 37.4539 89.2279 37.6006C89.1552 37.6561 89.0719 37.6829 88.9882 37.6829V37.6828ZM44.2675 37.6385C44.1838 37.6385 44.1 37.6116 44.0269 37.5554C43.8335 37.4082 43.7846 37.1153 43.9185 36.9017C44.2058 36.439 44.505 36.0028 44.805 35.6048C44.865 35.5266 44.924 35.4483 44.9866 35.3708C45.1421 35.1763 45.41 35.1583 45.5845 35.3302C45.7608 35.5023 45.7771 35.7991 45.6215 35.9937C45.5651 36.0645 45.5109 36.136 45.4554 36.2079C45.1721 36.5838 44.8897 36.9964 44.6169 37.4352C44.5345 37.5673 44.4028 37.6384 44.2675 37.6384V37.6385ZM86.7449 34.8808C86.6485 34.8808 86.5511 34.8443 86.4713 34.7696C86.0712 34.394 85.6271 34.0273 85.1525 33.6805C84.9569 33.5374 84.904 33.2459 85.0331 33.0294C85.1618 32.8129 85.4248 32.7531 85.6196 32.8962C86.1228 33.2634 86.5925 33.6523 87.019 34.0521C87.1979 34.2196 87.2213 34.5161 87.0692 34.7143C86.9846 34.8243 86.8648 34.8808 86.7449 34.8808V34.8808ZM46.5222 34.8457C46.4005 34.8457 46.2811 34.7886 46.1965 34.678C46.0458 34.4791 46.0692 34.1827 46.2485 34.0159C46.6759 33.6181 47.1483 33.2309 47.651 32.8653C47.848 32.7231 48.1102 32.7836 48.2379 33.0008C48.3666 33.2177 48.3133 33.5091 48.115 33.6515C47.6422 33.9968 47.1963 34.3616 46.7949 34.7357C46.7147 34.8096 46.6169 34.8457 46.5222 34.8457V34.8457ZM83.9258 32.8017C83.8589 32.8017 83.7914 32.784 83.7284 32.7467C83.2543 32.4687 82.752 32.2002 82.2294 31.9486C82.0149 31.8449 81.9157 31.5681 82.0091 31.3299C82.1039 31.0921 82.3524 30.9829 82.5674 31.0866C83.1102 31.3481 83.6341 31.6272 84.1268 31.9167C84.3321 32.0384 84.4118 32.3229 84.3021 32.552C84.2263 32.7112 84.0792 32.8017 83.9258 32.8017H83.9258ZM49.3474 32.7762C49.1937 32.7762 49.0461 32.6851 48.9698 32.5256C48.8619 32.2962 48.9394 32.0118 49.1465 31.8906C49.6382 31.6028 50.1643 31.3247 50.7081 31.0644C50.9213 30.9613 51.1712 31.071 51.2655 31.3091C51.3571 31.5473 51.2593 31.824 51.0438 31.9271C50.5208 32.1779 50.015 32.4453 49.544 32.7217C49.4805 32.7586 49.4131 32.7762 49.3474 32.7762ZM80.8212 31.2956C80.7727 31.2956 80.7243 31.2867 80.6771 31.2679C80.1664 31.0644 79.6328 30.8702 79.0878 30.6908C78.8635 30.6167 78.7353 30.3551 78.8027 30.1062C78.8697 29.8574 79.1063 29.716 79.331 29.7899C79.8906 29.9744 80.4396 30.1741 80.9648 30.3835C81.186 30.4713 81.2997 30.7404 81.2195 30.9846C81.1583 31.1763 80.9948 31.2956 80.8212 31.2956ZM52.453 31.2773C52.2798 31.2773 52.1154 31.1576 52.0551 30.9655C51.9758 30.7211 52.0912 30.4522 52.3106 30.3647C52.8354 30.1566 53.3866 29.9579 53.9462 29.7742C54.1709 29.6999 54.4076 29.8426 54.4728 30.0914C54.5402 30.3402 54.412 30.6016 54.1877 30.6754C53.6418 30.8541 53.1068 31.0473 52.5962 31.2498C52.5494 31.2685 52.501 31.2773 52.453 31.2773V31.2773ZM77.5712 30.2192C77.5372 30.2192 77.5055 30.2147 77.4711 30.2055C76.9389 30.061 76.3872 29.9258 75.8342 29.8035C75.6029 29.7528 75.454 29.5055 75.4985 29.2509C75.5443 28.9965 75.7672 28.8309 75.9986 28.8816C76.5665 29.0067 77.1288 29.145 77.6721 29.2928C77.8994 29.3545 78.0395 29.6088 77.984 29.8609C77.9351 30.0754 77.7628 30.2192 77.5712 30.2192ZM55.7052 30.2062C55.5131 30.2062 55.3412 30.0622 55.2928 29.8474C55.2373 29.5951 55.3769 29.3412 55.6052 29.2796C56.1502 29.1328 56.712 28.9953 57.2804 28.8708C57.5091 28.8204 57.7321 28.9862 57.7783 29.2408C57.8233 29.4953 57.6735 29.7426 57.4452 29.7928C56.8892 29.9146 56.3375 30.0492 55.8048 30.1926C55.7722 30.2019 55.7369 30.2062 55.7052 30.2062H55.7052ZM74.2449 29.4832C74.222 29.4832 74.2004 29.4813 74.1784 29.4774C73.6337 29.3822 73.0737 29.2963 72.5137 29.222C72.2819 29.1913 72.1149 28.9574 72.1436 28.6998C72.1722 28.442 72.3824 28.2586 72.6141 28.2889C73.1847 28.3645 73.7554 28.452 74.3101 28.5491C74.5405 28.5893 74.6996 28.8302 74.6652 29.0863C74.6309 29.318 74.4498 29.4832 74.2449 29.4832L74.2449 29.4832ZM59.0319 29.4747C58.827 29.4747 58.6459 29.3092 58.6138 29.0774C58.5776 28.8208 58.7358 28.5805 58.9671 28.5404C59.5228 28.444 60.0934 28.3573 60.6631 28.2825C60.8949 28.2514 61.1081 28.4359 61.135 28.6936C61.1632 28.9514 60.9949 29.1852 60.764 29.2156C60.2044 29.2893 59.6435 29.3744 59.0989 29.4691C59.076 29.4728 59.0544 29.4747 59.0319 29.4747V29.4747ZM70.8776 29.0352C70.8649 29.0352 70.8521 29.0347 70.8402 29.0336C70.2868 28.9821 69.7232 28.9403 69.1623 28.9092C68.9275 28.8961 68.7485 28.6756 68.7596 28.4164C68.7715 28.157 68.9702 27.9562 69.2046 27.9704C69.7739 28.002 70.3485 28.0446 70.9116 28.0971C71.1451 28.1188 71.3183 28.3461 71.3002 28.6045C71.2804 28.85 71.0953 29.0352 70.8776 29.0352ZM62.4009 29.0307C62.1824 29.0307 61.9969 28.845 61.9797 28.5996C61.9599 28.3408 62.1335 28.114 62.3666 28.0925C62.9292 28.0406 63.5038 27.9987 64.0744 27.9677C64.3079 27.9546 64.5067 28.1547 64.5177 28.4141C64.5296 28.6732 64.3498 28.8937 64.1149 28.9065C63.5562 28.9369 62.9905 28.9782 62.4371 29.0291C62.4243 29.0303 62.4137 29.0307 62.4009 29.0307ZM67.4875 28.847C67.4853 28.847 67.4835 28.847 67.4818 28.8469C66.9191 28.8363 66.3582 28.8362 65.7973 28.8459C65.5593 28.8496 65.3712 28.6432 65.3676 28.3836C65.3628 28.1242 65.5496 27.9105 65.7827 27.9061C66.3546 27.8962 66.9248 27.8965 67.4954 27.9072C67.7281 27.9116 67.9153 28.1255 67.9114 28.385C67.9087 28.6418 67.7188 28.847 67.4875 28.847Z" fill="#B3C646"/>
</g>
</g>
<path d="M84.2794 43.0858L83.339 41.6042L82.3991 40.1228C82.1701 39.7623 82.108 39.3432 82.1959 38.9571C82.2819 38.5712 82.5153 38.2179 82.8761 37.9889L83.0509 37.8773L83.2287 37.7652C83.589 37.5363 84.007 37.4753 84.3942 37.5615C84.7799 37.6479 85.1334 37.8814 85.3634 38.2419L86.3029 39.7235L87.2438 41.205C87.4708 41.5654 87.5329 41.9844 87.4459 42.3707C87.3615 42.7567 87.1261 43.1099 86.7653 43.3389L86.5885 43.4506L86.4137 43.5627C86.0534 43.7913 85.6325 43.8526 85.2477 43.7663C84.861 43.6799 84.5094 43.4461 84.2794 43.0858L84.2794 43.0858Z" fill="#C6C6C6"/>
<path d="M86.2472 34.204C78.3156 25.1133 49.3175 25.1133 41.3873 34.204C40.4113 35.3216 39.5187 36.7208 38.7023 38.343C32.1788 59.1078 33.3781 95.8821 44.2775 105.979C45.0529 106.697 45.9606 107.357 46.9791 107.961C58.5465 112.521 78.945 111.421 86.2472 104.657C98.1969 93.5868 97.112 46.6584 86.2472 34.204H86.2472Z" fill="#844FC1"/>
<path d="M91.7051 70.1731H78.4746V72.5228H91.7803C91.7642 71.7389 91.7378 70.9552 91.7051 70.1731H91.7051Z" fill="#6840A0"/>
<path d="M65.1089 112.73C65.1621 112.728 65.2158 112.727 65.2681 112.726C66.8135 112.682 68.3496 112.585 69.8613 112.435C70.0254 112.418 70.1924 112.401 70.355 112.382C70.4394 112.374 70.5215 112.365 70.6055 112.356C77.852 111.52 85.8223 110.311 90.0293 106.842C99.7725 98.8052 101.807 83.5707 101.652 67.1621H79.4087L50.8545 111.523C54.751 112.342 59.0513 112.753 63.3516 112.753C63.6851 112.753 64.0127 112.75 64.3413 112.746C64.5972 112.742 64.855 112.736 65.1089 112.73H65.1089Z" fill="#844FC1"/>
<path fill-rule="evenodd" clip-rule="evenodd" d="M100.634 74.1469H98.7549C98.4951 74.1469 98.2842 73.9365 98.2842 73.677C98.2842 73.4175 98.4951 73.207 98.7549 73.207H100.634C100.895 73.207 101.105 73.4175 101.105 73.677C101.105 73.9365 100.895 74.1469 100.634 74.1469ZM96.875 74.1469H94.9961C94.7363 74.1469 94.5249 73.9365 94.5249 73.677C94.5249 73.4175 94.7363 73.207 94.9961 73.207H96.875C97.1348 73.207 97.3452 73.4175 97.3452 73.677C97.3452 73.9365 97.1347 74.1469 96.875 74.1469ZM93.1147 74.1469H91.2378C90.977 74.1469 90.7656 73.9365 90.7656 73.677C90.7656 73.4175 90.977 73.207 91.2378 73.207H93.1147C93.374 73.207 93.5864 73.4175 93.5864 73.677C93.5864 73.9365 93.374 74.1469 93.1147 74.1469ZM89.3564 74.1469H87.4766C87.2153 74.1469 87.0078 73.9365 87.0078 73.677C87.0078 73.4175 87.2153 73.207 87.4766 73.207H89.3564C89.6147 73.207 89.8252 73.4175 89.8252 73.677C89.8252 73.9365 89.6147 74.1469 89.3564 74.1469ZM85.5981 74.1469H83.7173C83.4565 74.1469 83.2466 73.9365 83.2466 73.677C83.2466 73.4175 83.4565 73.207 83.7173 73.207H85.5981C85.8555 73.207 86.0669 73.4175 86.0669 73.677C86.0669 73.9365 85.8555 74.1469 85.5981 74.1469ZM81.8364 74.1469H80.3232C80.0635 74.1469 79.8525 73.9365 79.8525 73.677C79.8525 73.4175 80.0635 73.207 80.3232 73.207H81.8364C82.0972 73.207 82.3081 73.4175 82.3081 73.677C82.3081 73.9365 82.0972 74.1469 81.8364 74.1469Z" fill="#6840A0"/>
<path d="M79.8003 43.0327C72.8618 34.6626 47.4927 34.6626 40.5532 43.0327C39.7007 44.0616 38.9175 45.3501 38.2051 46.8434C36.145 53.7447 34.9653 62.567 34.7476 71.4614C35.102 86.3338 38.0073 100.331 43.8032 105.979C47.8877 109.96 55.8247 112.186 64.2197 112.658C67.6929 112.854 71.1841 112.4 74.4448 111.128C76.6167 110.281 78.4585 109.206 79.8003 107.899C90.2544 97.7073 89.3052 54.4995 79.8003 43.0327Z" fill="#C1DB53"/>
<path fill-rule="evenodd" clip-rule="evenodd" d="M65.4143 110.803H65.4138C64.9455 110.802 64.4699 110.788 63.9963 110.762C63.8269 110.752 63.6574 110.742 63.4875 110.731C63.2292 110.714 63.0334 110.49 63.049 110.231C63.0666 109.972 63.2912 109.775 63.55 109.793C63.715 109.804 63.8825 109.814 64.049 109.823C64.506 109.849 64.9645 109.862 65.4142 109.863C65.675 109.864 65.883 110.075 65.883 110.334C65.8825 110.593 65.674 110.803 65.4142 110.803L65.4143 110.803ZM67.3078 110.734C67.0656 110.734 66.8571 110.546 66.8396 110.3C66.821 110.041 67.0158 109.815 67.2727 109.796C67.8947 109.749 68.5149 109.677 69.1184 109.581C69.3752 109.54 69.6164 109.715 69.6564 109.972C69.6975 110.228 69.5212 110.469 69.2668 110.509C68.635 110.609 67.9914 110.684 67.344 110.733C67.3303 110.734 67.3195 110.734 67.3078 110.734L67.3078 110.734ZM61.6301 110.575C61.6135 110.575 61.5988 110.575 61.5822 110.573C60.9436 110.509 60.3059 110.433 59.6828 110.347C59.424 110.312 59.2473 110.075 59.2814 109.818C59.3166 109.56 59.5559 109.381 59.8098 109.416C60.423 109.501 61.051 109.575 61.676 109.638C61.9338 109.664 62.1232 109.894 62.0969 110.152C62.0725 110.395 61.8674 110.575 61.6301 110.575ZM71.0505 110.139C70.8391 110.139 70.6477 109.996 70.5939 109.782C70.5314 109.53 70.6838 109.275 70.9377 109.213C71.5383 109.064 72.1374 108.886 72.7136 108.686C72.9592 108.601 73.2268 108.732 73.3117 108.977C73.3967 109.222 73.2668 109.489 73.0217 109.574C72.4172 109.784 71.7917 109.969 71.1638 110.125C71.1262 110.134 71.0891 110.139 71.0505 110.139ZM57.8742 110.057C57.8454 110.057 57.8181 110.054 57.7912 110.049C57.1545 109.936 56.5197 109.809 55.9113 109.673C55.6579 109.617 55.4973 109.366 55.5549 109.112C55.6105 108.859 55.863 108.7 56.1144 108.756C56.7111 108.889 57.3312 109.013 57.9543 109.124C58.2116 109.17 58.382 109.414 58.3342 109.669C58.2951 109.897 58.0969 110.057 57.8742 110.057H57.8742ZM54.1701 109.229C54.1301 109.229 54.091 109.223 54.0471 109.212C53.4186 109.039 52.799 108.852 52.2087 108.653C51.9621 108.571 51.8283 108.305 51.9113 108.059C51.9943 107.813 52.259 107.68 52.5051 107.762C53.0793 107.954 53.6828 108.137 54.2961 108.305C54.5461 108.374 54.6955 108.632 54.6247 108.883C54.5676 109.091 54.3786 109.229 54.1701 109.229V109.229ZM74.6311 108.9C74.4509 108.9 74.278 108.797 74.2009 108.623C74.0939 108.386 74.1999 108.108 74.4357 108.001C75.0197 107.738 75.572 107.454 76.0778 107.158C76.301 107.026 76.5891 107.101 76.7219 107.324C76.8517 107.548 76.7775 107.836 76.5534 107.968C76.0202 108.281 75.4386 108.581 74.8234 108.858C74.759 108.886 74.6945 108.9 74.631 108.9H74.6311ZM50.5764 108.02C50.5187 108.02 50.4592 108.008 50.3996 107.985C49.7858 107.734 49.194 107.465 48.6408 107.187C48.4069 107.07 48.3166 106.787 48.4308 106.556C48.5471 106.324 48.8312 106.23 49.0617 106.347C49.5939 106.615 50.1642 106.873 50.7551 107.115C50.9963 107.213 51.1125 107.487 51.0143 107.728C50.9396 107.91 50.7629 108.02 50.5764 108.02V108.02ZM77.8791 106.963C77.7429 106.963 77.6057 106.902 77.5124 106.786C77.3498 106.584 77.384 106.288 77.5851 106.126C77.841 105.921 78.0817 105.709 78.301 105.494C78.4973 105.302 78.6955 105.093 78.8864 104.871C79.0558 104.674 79.3517 104.653 79.55 104.822C79.7453 104.991 79.7668 105.288 79.5959 105.485C79.3889 105.727 79.173 105.956 78.9567 106.167C78.716 106.403 78.4523 106.635 78.1735 106.859C78.0861 106.928 77.9846 106.963 77.8791 106.963ZM47.1984 106.306C47.1125 106.306 47.027 106.283 46.9479 106.233C46.3771 105.872 45.8439 105.488 45.362 105.093C45.1603 104.928 45.132 104.632 45.2966 104.431C45.4626 104.231 45.76 104.202 45.9582 104.367C46.4103 104.738 46.9113 105.098 47.4504 105.439C47.6701 105.578 47.7355 105.868 47.5964 106.087C47.508 106.229 47.3537 106.306 47.1984 106.306ZM80.3664 104.124C80.2795 104.124 80.1926 104.1 80.1125 104.05C79.8952 103.91 79.8312 103.619 79.9689 103.401C80.2824 102.911 80.5881 102.369 80.8781 101.792C80.9943 101.56 81.2795 101.467 81.5095 101.583C81.7404 101.7 81.8347 101.982 81.7189 102.214C81.4142 102.82 81.0939 103.39 80.7634 103.907C80.6721 104.047 80.5212 104.124 80.3664 104.124V104.124ZM44.2932 103.889C44.1657 103.889 44.0363 103.836 43.9426 103.732C43.5305 103.27 43.1237 102.752 42.7394 102.193C42.592 101.979 42.6467 101.687 42.8586 101.54C43.0744 101.392 43.3654 101.446 43.5124 101.659C43.8776 102.186 44.256 102.673 44.6423 103.106C44.8166 103.299 44.801 103.596 44.6057 103.769C44.5173 103.849 44.4045 103.889 44.2932 103.889ZM42.1301 100.784C41.9645 100.784 41.8049 100.697 41.7199 100.543C41.4182 100.004 41.1232 99.4247 40.8439 98.8213C40.7355 98.5858 40.8361 98.3064 41.0729 98.1974C41.3078 98.0881 41.5876 98.1905 41.6974 98.426C41.967 99.0085 42.2492 99.5669 42.5397 100.085C42.6652 100.312 42.5837 100.599 42.3566 100.725C42.2853 100.765 42.2062 100.784 42.1301 100.784L42.1301 100.784ZM82.0812 100.745C82.0207 100.745 81.9611 100.734 81.9025 100.71C81.6623 100.612 81.5466 100.338 81.6442 100.098C81.8693 99.5465 82.0871 98.9574 82.2951 98.3465C82.3757 98.1006 82.6437 97.9682 82.8908 98.0518C83.1374 98.135 83.2678 98.4017 83.1857 98.6478C82.9709 99.2765 82.7477 99.8839 82.5148 100.453C82.4406 100.635 82.2658 100.745 82.0812 100.745ZM40.5256 97.3492C40.3371 97.3492 40.1623 97.2362 40.0881 97.051C39.8615 96.4753 39.6418 95.8684 39.4313 95.247C39.3483 95.0012 39.4816 94.7345 39.7253 94.6516C39.9728 94.5686 40.2394 94.701 40.3234 94.9466C40.5275 95.5535 40.7424 96.1461 40.9631 96.7074C41.0588 96.9488 40.9401 97.222 40.6979 97.3165C40.6403 97.3387 40.5832 97.3492 40.5256 97.3492V97.3492ZM83.3015 97.1552C83.2585 97.1552 83.2155 97.1497 83.1721 97.1373C82.9235 97.0665 82.7775 96.8066 82.8498 96.5572C83.0148 95.9749 83.1745 95.3635 83.3234 94.7402C83.382 94.4877 83.6389 94.3322 83.8898 94.3926C84.1428 94.453 84.2971 94.7066 84.2365 94.9591C84.0861 95.5949 83.9211 96.219 83.7531 96.8136C83.694 97.0203 83.507 97.1552 83.3015 97.1552ZM39.3098 93.7572C39.1042 93.7572 38.9162 93.6238 38.8576 93.4187C38.6838 92.8226 38.5158 92.2015 38.3557 91.5719C38.2902 91.3204 38.444 91.0647 38.6955 91.0011C38.9465 90.9379 39.2023 91.0895 39.2668 91.341C39.423 91.9597 39.5895 92.5702 39.7595 93.1555C39.8322 93.4048 39.6892 93.6655 39.4416 93.7381C39.3962 93.7508 39.3518 93.7572 39.3098 93.7572V93.7572ZM84.1877 93.4669C84.1584 93.4669 84.1257 93.4638 84.0949 93.4576C83.841 93.4062 83.677 93.1582 83.7268 92.9039C83.8488 92.3052 83.9636 91.6823 84.0715 91.0529C84.1145 90.7967 84.3576 90.625 84.6145 90.6683C84.8693 90.7115 85.0412 90.9545 84.9987 91.2102C84.8879 91.8492 84.7717 92.4816 84.6496 93.09C84.6047 93.3129 84.4089 93.4669 84.1877 93.4669H84.1877ZM38.3737 90.0806C38.1574 90.0806 37.9631 89.9312 37.9162 89.7117C37.7805 89.1032 37.6506 88.4741 37.5314 87.8407C37.4807 87.5857 37.6486 87.3398 37.9025 87.2906C38.1584 87.2417 38.4045 87.4091 38.4533 87.6639C38.5729 88.2887 38.6999 88.9095 38.8312 89.5094C38.8889 89.7629 38.7292 90.0137 38.4758 90.0695C38.4396 90.0768 38.4064 90.0806 38.3737 90.0806H38.3737ZM84.8254 89.7269C84.8039 89.7269 84.7834 89.7254 84.76 89.7221C84.5017 89.6858 84.3249 89.448 84.3605 89.1908C84.447 88.5802 84.5285 87.9512 84.6008 87.321C84.6296 87.0629 84.8644 86.8779 85.1213 86.9079C85.3781 86.9379 85.5637 87.1713 85.5344 87.4289C85.4602 88.0668 85.3781 88.7038 85.2902 89.3226C85.258 89.5571 85.0559 89.7269 84.8254 89.7269L84.8254 89.7269ZM37.6584 86.3547C37.4309 86.3547 37.2326 86.1915 37.1945 85.9614C37.092 85.3454 36.9938 84.711 36.9045 84.0759C36.8664 83.819 37.0461 83.5811 37.3029 83.5443C37.5598 83.5085 37.8 83.6864 37.8342 83.9433C37.923 84.5713 38.0197 85.1986 38.1223 85.8077C38.1633 86.0636 37.9895 86.3058 37.7346 86.3483C37.7072 86.3525 37.6818 86.3547 37.6584 86.3547ZM85.2644 85.9579C85.2497 85.9579 85.2346 85.9571 85.2209 85.956C84.9601 85.932 84.7717 85.7032 84.7951 85.4446C84.8522 84.8231 84.9025 84.1957 84.9484 83.5637C84.966 83.3051 85.1945 83.1099 85.4499 83.1281C85.7082 83.1465 85.9045 83.371 85.884 83.63C85.8391 84.2686 85.7883 84.9028 85.7297 85.531C85.7082 85.775 85.5021 85.9579 85.2643 85.9579H85.2644ZM37.1213 82.5987C36.8859 82.5987 36.6838 82.4238 36.6535 82.1854C36.5783 81.5594 36.508 80.9275 36.4436 80.2903C36.4182 80.0323 36.6066 79.8016 36.8645 79.7756C37.1223 79.7502 37.3542 79.9374 37.3811 80.1956C37.4431 80.8265 37.5129 81.4523 37.5881 82.0719C37.6198 82.3299 37.4353 82.5641 37.1774 82.5953C37.1579 82.5975 37.1389 82.5987 37.1213 82.5987H37.1213ZM85.5314 82.1727C85.5217 82.1727 85.5139 82.1727 85.507 82.1723C85.2473 82.1596 85.049 81.9387 85.0607 81.6795C85.0915 81.0544 85.1164 80.4258 85.1359 79.7948C85.1447 79.5352 85.3527 79.3302 85.6198 79.3392C85.8801 79.3468 86.0842 79.5633 86.0754 79.8229C86.0549 80.4602 86.0305 81.0951 86.0002 81.7264C85.987 81.9776 85.7795 82.1726 85.5314 82.1726L85.5314 82.1727ZM36.737 78.8239C36.4958 78.8239 36.2907 78.6381 36.2697 78.3928C36.2165 77.7632 36.1721 77.1296 36.1301 76.4924C36.113 76.2334 36.3088 76.0099 36.5676 75.9929C36.8288 75.9752 37.05 76.1723 37.0676 76.4313C37.1086 77.063 37.1555 77.6912 37.2062 78.315C37.2282 78.5738 37.0353 78.8011 36.7765 78.8223C36.7648 78.8232 36.7492 78.8239 36.737 78.8239H36.737ZM85.6447 78.3829H85.6398C85.381 78.3802 85.1725 78.1673 85.176 77.9078C85.1808 77.529 85.1818 77.1499 85.1818 76.7702C85.1818 76.52 85.1808 76.2701 85.1799 76.0199C85.1769 75.7605 85.3859 75.5485 85.6447 75.5464C85.9152 75.5386 86.1164 75.7536 86.1203 76.0131C86.1203 76.2652 86.1203 76.5177 86.1203 76.7701C86.1213 77.1529 86.1203 77.5359 86.1159 77.9183C86.1125 78.1761 85.9016 78.3828 85.6447 78.3828L85.6447 78.3829ZM36.4904 75.0376C36.2399 75.0376 36.0334 74.8421 36.0227 74.5903C35.9914 73.9576 35.966 73.3221 35.9455 72.6847C35.9367 72.4252 36.1408 72.2081 36.3996 72.1996C36.6579 72.19 36.8762 72.3949 36.885 72.6542C36.9045 73.2867 36.9299 73.9172 36.9602 74.545C36.9724 74.8044 36.7736 75.0245 36.5139 75.0369C36.5061 75.0373 36.4982 75.0376 36.4904 75.0376V75.0376ZM85.6179 74.5892C85.364 74.5892 85.1535 74.3867 85.1467 74.1313C85.1291 73.5011 85.1105 72.8714 85.0822 72.243C85.0705 71.9837 85.2702 71.7641 85.5314 71.7528C85.7902 71.7427 86.009 71.9423 86.0207 72.2015C86.05 72.8356 86.0725 73.4712 86.0881 74.1073C86.093 74.3666 85.8884 74.5823 85.6301 74.5892C85.6257 74.5892 85.6208 74.5892 85.6179 74.5892ZM36.4123 71.2407C36.4084 71.2407 36.402 71.2405 36.3976 71.2403C36.1384 71.2319 35.9338 71.0148 35.9411 70.7555C35.9626 70.1202 35.9885 69.4856 36.0192 68.8526C36.0329 68.5932 36.258 68.3946 36.5114 68.4059C36.7707 68.4187 36.9714 68.6391 36.9582 68.8985C36.927 69.5262 36.9016 70.1557 36.882 70.7856C36.8742 71.0402 36.6623 71.2407 36.4123 71.2407L36.4123 71.2407ZM85.4489 70.7961C85.2043 70.7961 84.9953 70.6046 84.9816 70.3555C84.9416 69.725 84.8957 69.0971 84.8459 68.4722C84.8229 68.2135 85.0158 67.9866 85.2736 67.9655C85.5319 67.9445 85.7614 68.1367 85.7809 68.3954C85.8332 69.026 85.8791 69.6603 85.9191 70.2967C85.9347 70.556 85.7394 70.7788 85.4787 70.7952C85.4699 70.7958 85.4601 70.7961 85.4489 70.7961L85.4489 70.7961ZM36.5969 67.452C36.5866 67.452 36.5754 67.4518 36.5661 67.4512C36.3078 67.4342 36.112 67.2105 36.1291 66.9515C36.1682 66.3158 36.2165 65.6829 36.2687 65.0525C36.2897 64.7939 36.5139 64.6015 36.7766 64.6229C37.0344 64.644 37.2248 64.8711 37.2053 65.13C37.1535 65.7548 37.1061 66.3826 37.0661 67.013C37.049 67.2615 36.8425 67.452 36.5969 67.452ZM85.1379 67.0141C84.8996 67.0141 84.6975 66.834 84.6716 66.5919C84.6076 65.9618 84.5363 65.3361 84.4611 64.7161C84.4299 64.4585 84.6144 64.2241 84.8713 64.1926C85.1276 64.1607 85.364 64.3437 85.3937 64.6017C85.4719 65.2278 85.5422 65.86 85.6066 66.4966C85.634 66.7548 85.4465 66.9854 85.1872 67.0117C85.1701 67.0136 85.156 67.0141 85.1379 67.0141V67.0141ZM36.9103 63.6731C36.8928 63.6731 36.8786 63.6725 36.8625 63.6709C36.6037 63.6449 36.4162 63.4147 36.4416 63.1562C36.506 62.5209 36.5749 61.8897 36.6496 61.2632C36.6809 61.0055 36.9147 60.8212 37.1711 60.8521C37.4284 60.8829 37.613 61.1166 37.5837 61.3743C37.508 61.995 37.4401 62.6205 37.3762 63.2504C37.3508 63.4923 37.1491 63.6732 36.9103 63.6732V63.6731ZM84.675 63.2481C84.447 63.2481 84.2453 63.0798 84.2116 62.8456C84.1223 62.2193 84.0236 61.5922 83.9191 60.9823C83.8752 60.7262 84.0476 60.4837 84.3044 60.4405C84.5583 60.3968 84.8019 60.5696 84.8459 60.8252C84.9514 61.4428 85.051 62.0773 85.1418 62.7109C85.1799 62.9676 85.0002 63.206 84.7438 63.2435C84.7224 63.2466 84.6984 63.2481 84.675 63.2481H84.675ZM37.3576 59.9076C37.3361 59.9076 37.3156 59.906 37.2932 59.903C37.0353 59.8674 36.8557 59.6299 36.8923 59.3729C36.9807 58.7381 37.0734 58.1091 37.174 57.4873C37.2131 57.2311 37.4543 57.0556 37.7097 57.0973C37.966 57.138 38.1418 57.3791 38.1013 57.6355C38.0012 58.2508 37.9098 58.8735 37.8224 59.5021C37.7897 59.7372 37.5881 59.9076 37.3576 59.9076V59.9076ZM84.0422 59.5071C83.8215 59.5071 83.6252 59.3517 83.5812 59.1274C83.4602 58.5001 83.3273 57.8798 83.1945 57.2841C83.1374 57.0311 83.2941 56.7792 83.548 56.722C83.801 56.665 84.0529 56.8238 84.1096 57.077C84.2453 57.6814 84.3791 58.3105 84.5026 58.947C84.5544 59.2015 84.3874 59.4485 84.1335 59.4984C84.1018 59.5045 84.0715 59.5071 84.0422 59.5071V59.5071ZM37.9572 56.1615C37.9279 56.1615 37.8996 56.1592 37.8723 56.1542C37.6164 56.1073 37.4465 55.8627 37.4929 55.6073C37.6096 54.9718 37.7311 54.3418 37.8586 53.7344C37.9113 53.4803 38.1584 53.3164 38.4133 53.3696C38.6682 53.4222 38.8312 53.6709 38.778 53.9251C38.6525 54.5252 38.5324 55.1479 38.4182 55.7759C38.3771 56.0027 38.1794 56.1615 37.9572 56.1615L37.9572 56.1615ZM83.2053 55.8066C82.9958 55.8066 82.8054 55.6664 82.7492 55.4546C82.5896 54.8356 82.4201 54.2266 82.2453 53.6449C82.1691 53.3963 82.3098 53.1341 82.5578 53.0593C82.8068 52.9851 83.0695 53.1256 83.1437 53.374C83.3215 53.9673 83.4953 54.5878 83.6604 55.2184C83.7248 55.4695 83.5734 55.7262 83.3234 55.7914C83.2834 55.8016 83.2443 55.8066 83.2053 55.8066L83.2053 55.8066ZM38.7268 52.4476C38.6931 52.4476 38.6545 52.4436 38.6193 52.4351C38.3669 52.3757 38.2106 52.1226 38.2697 51.8699C38.4182 51.2408 38.5729 50.6173 38.7341 50.0163C38.8029 49.7657 39.0588 49.617 39.3098 49.6837C39.5617 49.7508 39.7102 50.0083 39.6428 50.2591C39.4836 50.8509 39.3317 51.465 39.1848 52.0852C39.133 52.3017 38.9396 52.4475 38.7268 52.4475V52.4476ZM82.1086 52.1751C81.9147 52.1751 81.7326 52.0539 81.6647 51.8603C81.4528 51.2535 81.2297 50.6653 81.0002 50.1113C80.9006 49.8714 81.0139 49.5969 81.2541 49.4977C81.4943 49.3988 81.7697 49.5126 81.8684 49.7525C82.1037 50.3224 82.3327 50.9268 82.5519 51.5497C82.6369 51.7946 82.508 52.0626 82.2648 52.1487C82.2121 52.1666 82.1603 52.1751 82.1086 52.1751ZM39.7502 48.8002C39.6804 48.8002 39.6115 48.7846 39.5432 48.7518C39.3098 48.6373 39.2141 48.3556 39.3273 48.1229C39.6271 47.5143 39.9406 46.9414 40.259 46.4209C40.3937 46.1993 40.6828 46.1297 40.9055 46.2651C41.1257 46.4005 41.195 46.6897 41.0612 46.9109C40.758 47.4073 40.4582 47.9543 40.1725 48.5369C40.0915 48.7033 39.9245 48.8001 39.7502 48.8001V48.8002ZM80.6506 48.675C80.4792 48.675 80.3141 48.5794 80.2302 48.4145C79.9406 47.8338 79.6379 47.2897 79.3322 46.7963C79.1936 46.5759 79.2609 46.2864 79.4807 46.149C79.7004 46.0118 79.9904 46.0788 80.1281 46.2991C80.4514 46.8175 80.7678 47.3881 81.0715 47.995C81.1857 48.2274 81.0939 48.5093 80.8615 48.6252C80.7932 48.6588 80.7219 48.675 80.6506 48.675ZM41.7453 45.5828C41.6408 45.5828 41.5373 45.5488 41.4504 45.4784C41.2473 45.3157 41.216 45.0195 41.3806 44.8176L41.4689 44.7084C41.8449 44.256 42.2819 43.8179 42.7746 43.4066C42.9733 43.2398 43.2702 43.2663 43.4357 43.4652C43.6037 43.6642 43.5768 43.9606 43.3786 44.1271C42.9299 44.5021 42.5305 44.8992 42.1921 45.3079L42.1105 45.408C42.0168 45.5229 41.8811 45.5828 41.7453 45.5828H41.7453ZM78.6286 45.4778C78.4943 45.4778 78.3601 45.4202 78.2673 45.3079C77.903 44.8688 77.4724 44.444 76.9826 44.0446C76.7805 43.8805 76.7521 43.5843 76.9147 43.3835C77.0803 43.1825 77.3762 43.1525 77.5769 43.3166C78.1125 43.7546 78.5886 44.2228 78.9894 44.7082C79.1569 44.9079 79.1286 45.2043 78.9299 45.3698C78.841 45.4426 78.7355 45.4778 78.6286 45.4778ZM44.6174 43.1367C44.4611 43.1367 44.3068 43.0567 44.2189 42.9122C44.0827 42.6907 44.1516 42.4012 44.3732 42.2659C44.9016 41.9418 45.4811 41.6326 46.09 41.3467C46.3273 41.2367 46.6061 41.3383 46.716 41.5731C46.8244 41.8085 46.7238 42.0881 46.4885 42.1981C45.9099 42.4691 45.3635 42.7613 44.8649 43.0673C44.7868 43.1144 44.7023 43.1367 44.6174 43.1367ZM75.7248 43.0665C75.6442 43.0665 75.5598 43.0447 75.4855 42.9994C74.9821 42.6978 74.4328 42.4095 73.8513 42.1424C73.6144 42.034 73.5114 41.755 73.6203 41.5193C73.7297 41.2835 74.007 41.1798 74.2424 41.2886C74.8561 41.57 75.4357 41.8741 75.9694 42.1936C76.1901 42.3271 76.2629 42.6157 76.1291 42.8382C76.0422 42.985 75.8854 43.0665 75.7248 43.0665H75.7248ZM48.0422 41.5181C47.8522 41.5181 47.6711 41.3995 47.5998 41.2089C47.5119 40.965 47.6384 40.6953 47.8811 40.6066C48.465 40.3935 49.0852 40.1939 49.7189 40.0133C49.9685 39.9426 50.2287 40.087 50.298 40.3368C50.3703 40.5864 50.2253 40.8463 49.9777 40.9174C49.3625 41.0919 48.7663 41.2843 48.2023 41.4894C48.1501 41.5088 48.0959 41.5181 48.0422 41.5181V41.5181ZM72.2893 41.472C72.2375 41.472 72.1838 41.463 72.1306 41.4444C71.5666 41.2421 70.9699 41.0527 70.3576 40.8812C70.1062 40.8114 69.9602 40.5521 70.0295 40.3021C70.0998 40.052 70.3591 39.9059 70.6081 39.9758C71.2439 40.1533 71.8625 40.3498 72.4494 40.5594C72.6931 40.6472 72.82 40.9161 72.7317 41.1603C72.6628 41.3524 72.4846 41.472 72.2893 41.472L72.2893 41.472ZM51.6857 40.4738C51.4694 40.4738 51.2761 40.3239 51.2277 40.1044C51.1711 39.8511 51.3332 39.6003 51.5861 39.5448C52.1984 39.4104 52.8356 39.2895 53.4758 39.1848C53.7316 39.1442 53.9724 39.3167 54.0134 39.573C54.0563 39.8291 53.883 40.0707 53.6262 40.1125C53.0012 40.2143 52.383 40.3324 51.7883 40.4629C51.7541 40.4704 51.7199 40.4738 51.6857 40.4738V40.4738ZM68.6413 40.4451C68.6086 40.4451 68.5759 40.4416 68.5441 40.4347C67.945 40.306 67.3264 40.1907 66.7023 40.0912C66.4465 40.0503 66.2697 39.8095 66.3127 39.553C66.3537 39.2968 66.5949 39.1215 66.8508 39.1631C67.4904 39.2651 68.1252 39.3841 68.7399 39.5155C68.9924 39.5702 69.154 39.8202 69.0998 40.074C69.0529 40.2944 68.8586 40.4451 68.6413 40.4451H68.6413ZM55.4294 39.8593C55.1935 39.8593 54.9899 39.6825 54.9621 39.4423C54.9338 39.1845 55.1179 38.9518 55.3771 38.9224C56.0021 38.8512 56.6462 38.7936 57.2873 38.7504C57.5427 38.7313 57.7702 38.9289 57.7883 39.1878C57.8044 39.4466 57.6096 39.6706 57.3498 39.6882C56.7233 39.7302 56.0949 39.7869 55.4826 39.8564C55.4636 39.8585 55.4474 39.8593 55.4294 39.8593ZM64.8967 39.8445C64.8801 39.8445 64.8615 39.8435 64.8449 39.8415C64.2307 39.7743 63.6037 39.7195 62.9777 39.6794C62.718 39.6628 62.5226 39.4393 62.5392 39.1803C62.5558 38.9217 62.7775 38.7242 63.0378 38.7417C63.6789 38.7828 64.3215 38.8384 64.9475 38.9072C65.2062 38.9355 65.3913 39.1677 65.364 39.4256C65.3381 39.6662 65.135 39.8445 64.8967 39.8445L64.8967 39.8445ZM59.215 39.604C58.9602 39.604 58.7502 39.4007 58.7453 39.1448C58.7385 38.8854 58.9435 38.6702 59.2043 38.6641C59.842 38.6493 60.4836 38.6481 61.1223 38.661C61.3825 38.6662 61.5881 38.8809 61.5822 39.1403C61.5783 39.3998 61.3674 39.6096 61.1017 39.6009C60.4787 39.5883 59.8527 39.5892 59.2263 39.6034C59.2219 39.6034 59.2189 39.604 59.215 39.604H59.215Z" fill="#B3C646"/>
<path d="M45.3599 47.9483C45.3599 47.2561 45.9209 46.6951 46.6131 46.6951C47.3052 46.6951 47.8662 47.2561 47.8662 47.9482V100.164C47.8662 100.856 47.3052 101.417 46.613 101.417C45.9209 101.417 45.3599 100.856 45.3599 100.164V47.9483Z" fill="#524A60"/>
<path d="M44.8071 53.5685V51.8138V50.0588C44.8071 49.632 44.98 49.2457 45.2607 48.9657C45.54 48.686 45.9263 48.5132 46.3525 48.5132H46.562H46.77C47.1987 48.5132 47.583 48.6861 47.8628 48.9661C48.1426 49.2457 48.3174 49.6322 48.3174 50.059V51.814V53.5686C48.3174 53.9958 48.1426 54.3819 47.8628 54.6619C47.583 54.9415 47.1987 55.1146 46.77 55.1146H46.5615H46.3525C45.9263 55.1146 45.54 54.9415 45.2607 54.6617C44.98 54.3819 44.8071 53.9954 44.8071 53.5685V53.5685Z" fill="#C6C6C6"/>
<path fill-rule="evenodd" clip-rule="evenodd" d="M48.6039 58.725C48.5199 57.9173 48.3763 57.0098 48.2054 56.1515C48.034 55.293 47.8339 54.4838 47.6356 53.873C47.5511 53.6138 47.41 53.3999 47.2386 53.2497C47.0663 53.0991 46.8607 53.0124 46.6439 53.0076C46.6273 53.0073 46.6102 53.0071 46.5941 53.0071C46.576 53.0071 46.559 53.0073 46.5419 53.0076C46.3221 53.0133 46.1146 53.1038 45.9408 53.2593C45.7675 53.4144 45.6278 53.6345 45.5428 53.8989C45.3539 54.4956 45.1654 55.2938 45.0057 56.149C44.8431 57.0043 44.7084 57.9169 44.6229 58.7426C44.556 59.3762 44.703 59.9807 44.9896 60.4382C45.2758 60.8955 45.704 61.2059 46.1928 61.2523C46.3314 61.2654 46.4725 61.2719 46.6132 61.271C46.7548 61.2704 46.8939 61.2629 47.0336 61.2487C47.5267 61.1983 47.952 60.8855 48.2377 60.4266C48.5228 59.9674 48.6698 59.3614 48.6039 58.725L48.6039 58.725ZM46.6127 60.1462C46.3446 60.1462 46.1009 60.0369 45.9232 59.8608C45.7469 59.6841 45.6385 59.4406 45.6385 59.1713C45.6385 58.9019 45.7469 58.6585 45.9232 58.4819C46.1009 58.3055 46.3446 58.1964 46.6127 58.1964C46.8807 58.1964 47.1268 58.3055 47.3021 58.4819C47.4794 58.6585 47.5882 58.9019 47.5882 59.1713C47.5882 59.4406 47.4794 59.6841 47.3021 59.8608C47.1268 60.0369 46.8807 60.1462 46.6127 60.1462Z" fill="#E2E2E2"/>
<path fill-rule="evenodd" clip-rule="evenodd" d="M88.2849 46.852C88.2009 46.0445 88.0573 45.1369 87.8854 44.2787C87.7145 43.42 87.5134 42.611 87.3161 42.0002C87.2311 41.7413 87.0915 41.527 86.9186 41.3767C86.7458 41.2264 86.5407 41.1396 86.3239 41.1348C86.3083 41.1344 86.2917 41.134 86.2731 41.134C86.2565 41.134 86.239 41.1344 86.2233 41.1348C86.0007 41.1404 85.7946 41.2308 85.6208 41.3863C85.4479 41.5414 85.3073 41.7617 85.2233 42.0261C85.0329 42.6229 84.8474 43.4208 84.6843 44.2762C84.5231 45.1315 84.3894 46.0441 84.3034 46.8697C84.237 47.5034 84.3835 48.1077 84.6706 48.5653C84.9567 49.0227 85.3825 49.3333 85.8757 49.3796C86.0124 49.3924 86.153 49.3988 86.2946 49.3981C86.4343 49.3976 86.5769 49.3901 86.7136 49.376C87.2087 49.3253 87.6325 49.0128 87.9177 48.5535C88.2038 48.0945 88.3513 47.4887 88.2849 46.8521L88.2849 46.852ZM86.2936 48.2732C86.0241 48.2732 85.78 48.1641 85.6022 47.9879C85.4284 47.8113 85.319 47.5676 85.319 47.2983C85.319 47.0291 85.4284 46.7855 85.6022 46.6089C85.78 46.4325 86.0241 46.3236 86.2936 46.3236C86.5632 46.3236 86.8073 46.4325 86.9821 46.6089C87.1569 46.7855 87.2692 47.0291 87.2692 47.2983C87.2692 47.5676 87.1569 47.8113 86.9821 47.9879C86.8073 48.1641 86.5632 48.2732 86.2936 48.2732Z" fill="#E2E2E2"/>
</g>
</g>
<g clip-path="url(#clip4_611_6076)">
<path d="M117.194 63.4677C117.194 77.4897 111.821 90.9374 102.257 100.852C92.6932 110.768 79.7215 116.338 66.1958 116.338C52.6702 116.338 39.6985 110.768 30.1344 100.852C20.5703 90.9374 15.1973 77.4897 15.1973 63.4677C15.1973 49.4457 20.5703 35.998 30.1344 26.0829C39.6985 16.1679 52.6702 10.5977 66.1958 10.5977C79.7215 10.5977 92.6932 16.1679 102.257 26.0829C111.821 35.998 117.194 49.4457 117.194 63.4677ZM50.2333 50.4683H55.4925C56.3722 50.4683 57.0734 49.7215 57.1882 48.8161C57.7619 44.4808 60.6306 41.3218 65.7432 41.3218C70.1163 41.3218 74.1197 43.5886 74.1197 49.0408C74.1197 53.2374 71.7355 55.1671 67.968 58.1014C63.6778 61.3331 60.28 65.1067 60.5222 71.233L60.5414 72.6671C60.548 73.1007 60.7189 73.5142 61.0171 73.8183C61.3152 74.1225 61.7168 74.2929 62.1351 74.2929H67.305C67.7277 74.2929 68.1331 74.1188 68.432 73.8089C68.7308 73.4991 68.8987 73.0789 68.8987 72.6407V71.9467C68.8987 67.2017 70.6391 65.8204 75.3373 62.1261C79.2196 59.0663 83.2676 55.6694 83.2676 48.5385C83.2676 38.5527 75.1333 33.7283 66.2277 33.7283C58.1508 33.7283 49.3025 37.6275 48.6969 48.8359C48.6882 49.0493 48.7217 49.2624 48.7953 49.4619C48.8689 49.6614 48.9811 49.8432 49.125 49.9961C49.2689 50.149 49.4415 50.2697 49.6321 50.3509C49.8227 50.4322 50.0272 50.4721 50.2333 50.4683ZM65.0547 93.0485C68.9434 93.0485 71.6144 90.4447 71.6144 86.9222C71.6144 83.2742 68.937 80.71 65.0547 80.71C61.3318 80.71 58.6225 83.2742 58.6225 86.9222C58.6225 90.4447 61.3318 93.0485 65.0611 93.0485H65.0547Z" fill="#78C383"/>
</g>
<defs>
<filter id="filter0_d_611_6076" x="0.775391" y="0.57959" width="130.841" height="130.841" filterUnits="userSpaceOnUse" color-interpolation-filters="sRGB">
<feFlood flood-opacity="0" result="BackgroundImageFix"/>
<feColorMatrix in="SourceAlpha" type="matrix" values="0 0 0 0 0 0 0 0 0 0 0 0 0 0 0 0 0 0 127 0" result="hardAlpha"/>
<feOffset dy="3"/>
<feGaussianBlur stdDeviation="3"/>
<feColorMatrix type="matrix" values="0 0 0 0 0 0 0 0 0 0 0 0 0 0 0 0 0 0 0.203922 0"/>
<feBlend mode="normal" in2="BackgroundImageFix" result="effect1_dropShadow_611_6076"/>
<feBlend mode="normal" in="SourceGraphic" in2="effect1_dropShadow_611_6076" result="shape"/>
</filter>
<clipPath id="clip0_611_6076">
<rect width="82.4742" height="94.2844" fill="white" transform="translate(25.2837 18.9961)"/>
</clipPath>
<clipPath id="clip1_611_6076">
<rect width="63.2904" height="86.1598" fill="white" transform="translate(34.7065 26.594)"/>
</clipPath>
<clipPath id="clip2_611_6076">
<rect width="63.2904" height="86.1598" fill="white" transform="translate(34.7065 26.594)"/>
</clipPath>
<clipPath id="clip3_611_6076">
<rect width="55.4739" height="53.6242" fill="white" transform="translate(41.2485 27.8989)"/>
</clipPath>
<clipPath id="clip4_611_6076">
<rect width="101.997" height="105.74" fill="white" transform="translate(15.1973 10.5977)"/>
</clipPath>
</defs>
</svg>
