<svg width="42" height="42" viewBox="0 0 42 42" fill="none" xmlns="http://www.w3.org/2000/svg">
<path fill-rule="evenodd" clip-rule="evenodd" d="M27.6286 21.202L40.21 8.62067C41.6001 7.23056 41.6001 4.97685 40.21 3.58891L38.5327 1.91165C37.1422 0.5211 34.8884 0.5211 33.5005 1.91165L20.9196 14.4926L8.3382 1.90904C6.94809 0.518926 4.69438 0.518926 3.30644 1.90904L1.62657 3.5863C0.236456 4.97685 0.236456 7.23056 1.62657 8.6185L14.2101 21.202L1.62918 33.783C0.238629 35.1735 0.238629 37.4272 1.62918 38.8152L3.30644 40.4924C4.69655 41.8825 6.95026 41.8825 8.3382 40.4924L20.9196 27.9111L33.5005 40.4924C34.891 41.8825 37.1448 41.8825 38.5327 40.4924L40.21 38.8152C41.6001 37.4246 41.6001 35.1709 40.21 33.783L27.6286 21.202Z" fill="#707070"/>
</svg>
