<svg width="36" height="36" viewBox="0 0 36 36" fill="none" xmlns="http://www.w3.org/2000/svg">
<path d="M18.2544 14.9553C13.525 10.3071 8.3391 7.86785 6.67089 9.50701C6.48784 9.69548 6.35314 9.92407 6.27794 10.1739L6.25109 10.1476L4.65793 16.565L3.07149 22.9633L1.19093 30.5396L0.000488281 35.3377L7.04859 32.7161L16.0132 29.382L23.1651 26.7221L23.1565 26.7137C23.3959 26.6386 23.615 26.5113 23.7972 26.3412C25.4654 24.7015 22.9838 19.6041 18.2544 14.9553Z" fill="#DD1C4B"/>
<path d="M22.5154 26.9294C21.6614 26.9441 20.8142 26.7789 20.0307 26.4448L14.1853 28.619L5.21758 31.9501L0.408815 33.7386L0 35.3861L7.0481 32.7646L16.0128 29.4305L22.5764 26.9894L22.5154 26.9294Z" fill="#B21D48"/>
<path d="M29.8988 22.1914C29.8257 22.1912 29.7533 22.1784 29.6846 22.1536C26.587 21.013 23.2386 20.6931 19.9756 21.2264L17.7961 21.5833C17.4624 21.63 17.1534 21.4021 17.1058 21.0742C17.0598 20.7574 17.275 20.4609 17.5947 20.4005L19.7748 20.0407C23.2493 19.4732 26.8145 19.8135 30.113 21.0273C30.4301 21.1393 30.5948 21.4828 30.4808 21.7945C30.3928 22.0353 30.1591 22.1947 29.8988 22.1914Z" fill="#FFBF41"/>
<path d="M18.9152 18.5928C18.5782 18.5908 18.3066 18.3207 18.3086 17.9895C18.31 17.7608 18.4435 17.5529 18.6528 17.4532L31.4664 11.4556C31.7708 11.3131 32.1349 11.4401 32.2798 11.7393C32.4247 12.0384 32.2955 12.3963 31.9912 12.5388L19.1776 18.5364C19.0955 18.5741 19.0059 18.5934 18.9152 18.5928Z" fill="#FFBF41"/>
<path d="M11.7802 17.3932C11.6997 17.3934 11.62 17.3777 11.5459 17.347C11.2348 17.2195 11.0879 16.8684 11.2176 16.5626V16.5626L12.1048 14.47C13.4698 11.2638 13.7881 7.72013 13.0158 4.32853C12.9366 4.00653 13.138 3.68251 13.4655 3.60469C13.7931 3.52687 14.1228 3.72487 14.202 4.04679C14.2037 4.05391 14.2053 4.06104 14.2068 4.06823C15.0342 7.70139 14.6931 11.4975 13.2306 14.9318L12.3428 17.0244C12.248 17.2476 12.0262 17.393 11.7802 17.3932Z" fill="#FFBF41"/>
<path d="M32.9493 24.5902C33.6233 24.5902 34.1697 24.0532 34.1697 23.3907C34.1697 22.7282 33.6233 22.1912 32.9493 22.1912C32.2754 22.1912 31.729 22.7282 31.729 23.3907C31.729 24.0532 32.2754 24.5902 32.9493 24.5902Z" fill="#D5557E"/>
<path d="M18.3058 7.79689C18.9798 7.79689 19.5261 7.25984 19.5261 6.59736C19.5261 5.93488 18.9798 5.39783 18.3058 5.39783C17.6318 5.39783 17.0854 5.93488 17.0854 6.59736C17.0854 7.25984 17.6318 7.79689 18.3058 7.79689Z" fill="#DD95C1"/>
<path d="M12.8141 2.39906C12.1401 2.39906 11.5938 1.86205 11.5938 1.19953C11.5938 0.537015 12.1401 0 12.8141 0C13.4881 0 14.0344 0.537015 14.0344 1.19953C14.0344 1.86205 13.4881 2.39906 12.8141 2.39906Z" fill="#7FCCCB"/>
<path d="M29.8987 4.79814C29.5618 4.79814 29.2886 4.52959 29.2886 4.19837V3.59861C29.2886 3.26739 29.5618 2.99884 29.8987 2.99884C30.2357 2.99884 30.5089 3.26739 30.5089 3.59861V4.19837C30.5089 4.52959 30.2358 4.79814 29.8987 4.79814Z" fill="#2276BB"/>
<path d="M29.8987 1.7993C29.5618 1.7993 29.2886 1.53075 29.2886 1.19953V0.599766C29.2886 0.268545 29.5618 0 29.8987 0C30.2357 0 30.5089 0.268545 30.5089 0.599766V1.19953C30.5089 1.53075 30.2358 1.7993 29.8987 1.7993Z" fill="#2276BB"/>
<path d="M31.7286 2.99891H31.1185C30.7815 2.99891 30.5083 2.73036 30.5083 2.39914C30.5083 2.06792 30.7815 1.79938 31.1185 1.79938H31.7286C32.0656 1.79938 32.3388 2.06792 32.3388 2.39914C32.3388 2.73036 32.0657 2.99891 31.7286 2.99891Z" fill="#2276BB"/>
<path d="M28.6779 2.99873H28.0677C27.7307 2.99873 27.4575 2.73018 27.4575 2.39896C27.4575 2.06774 27.7307 1.79919 28.0677 1.79919H28.6779C29.0148 1.79919 29.288 2.06774 29.288 2.39896C29.288 2.73018 29.0149 2.99873 28.6779 2.99873Z" fill="#2276BB"/>
<path d="M4.84335 17.3932C4.77501 17.1365 4.71399 16.8774 4.65725 16.6135L3.0708 23.0118L3.19284 24.4746C3.45879 27.5933 4.82177 30.5235 7.04729 32.7616L16.0126 29.4305C15.9637 29.4155 15.9131 29.4047 15.8643 29.3885C10.428 27.3849 6.31905 22.9126 4.84335 17.3932Z" fill="white"/>
<path d="M16.0128 29.4304C15.964 29.4154 15.9134 29.4046 15.8646 29.3885C15.2773 29.1699 14.702 28.9211 14.1414 28.6429L6.06641 31.646C6.37256 32.0363 6.7003 32.4097 7.04817 32.7645L16.0128 29.4304Z" fill="#F6F6E7"/>
<path d="M25.6276 7.18457V10.196H22.564V7.18457H25.6276Z" fill="#C9DA53"/>
<path d="M14.6442 17.9928C14.3072 17.9928 14.0341 17.7241 14.0342 17.3929C14.0343 17.223 14.1076 17.0612 14.236 16.9474L20.3377 11.5495C20.5925 11.3328 20.9779 11.3602 21.1984 11.6106C21.4128 11.8542 21.3932 12.2206 21.1541 12.4408L15.0524 17.8387C14.9404 17.9379 14.795 17.9928 14.6442 17.9928Z" fill="#FFBF41"/>
<path d="M32.3397 15.5939C32.0027 15.5939 31.7295 15.3253 31.7295 14.9941V14.3943C31.7295 14.0631 32.0027 13.7946 32.3397 13.7946C32.6766 13.7946 32.9498 14.0631 32.9498 14.3943V14.9941C32.9498 15.3253 32.6767 15.5939 32.3397 15.5939Z" fill="#FFDB43"/>
<path d="M34.497 14.7152C34.335 14.7157 34.1797 14.6524 34.0656 14.5395L33.6342 14.1155C33.4001 13.8772 33.4067 13.4975 33.6491 13.2674C33.8856 13.0429 34.2604 13.0429 34.497 13.2674L34.9284 13.6914C35.1666 13.9257 35.1666 14.3055 34.9282 14.5397C34.8139 14.652 34.6587 14.7152 34.497 14.7152Z" fill="#FFDB43"/>
<path d="M35.3898 12.5949H34.7796C34.4426 12.5949 34.1694 12.3263 34.1694 11.9951C34.1694 11.6639 34.4426 11.3953 34.7796 11.3953H35.3898C35.7267 11.3953 36 11.6639 36 11.9951C36 12.3263 35.7268 12.5949 35.3898 12.5949Z" fill="#FFDB43"/>
<path d="M34.0651 10.8988C33.7281 10.8988 33.455 10.6302 33.4551 10.2989C33.4551 10.1399 33.5194 9.98741 33.6337 9.87503L34.0651 9.45099C34.3075 9.22083 34.6937 9.22743 34.9279 9.46569C35.1562 9.6981 35.1562 10.0666 34.9279 10.2991L34.4965 10.7231C34.3821 10.8356 34.2269 10.8988 34.0651 10.8988Z" fill="#FFDB43"/>
<path d="M32.3397 10.196C32.0027 10.196 31.7295 9.92742 31.7295 9.5962V8.99643C31.7295 8.66521 32.0027 8.39667 32.3397 8.39667C32.6766 8.39667 32.9498 8.66521 32.9498 8.99643V9.5962C32.9498 9.92742 32.6767 10.196 32.3397 10.196Z" fill="#FFDB43"/>
<path d="M30.6132 10.8989C30.4513 10.8989 30.2962 10.8356 30.1818 10.7232L29.7504 10.2991C29.5163 10.0609 29.523 9.68115 29.7653 9.45106C30.0018 9.2266 30.3767 9.2266 30.6132 9.45106L31.0446 9.8751C31.2828 10.1094 31.2828 10.4891 31.0444 10.7233C30.9301 10.8357 30.775 10.8989 30.6132 10.8989Z" fill="#FFDB43"/>
<path d="M3.05135 0.599792L3.99407 2.47766L6.10221 2.77874L4.57678 4.24037L4.93678 6.30416L3.05135 5.32954L1.16592 6.30416L1.52592 4.24037L0.000488281 2.77874L2.10863 2.47766L3.05135 0.599792Z" fill="#FFDB43"/>
<path d="M35.8077 32.487C35.5175 31.476 34.8492 30.6103 33.9369 30.0633L33.6855 29.6927C32.2759 27.6207 30.0594 26.2118 27.5587 25.7984C27.2251 25.7516 26.9161 25.9795 26.8685 26.3074C26.8225 26.6243 27.0377 26.9208 27.3574 26.9811C29.1611 27.2821 30.8048 28.1828 32.0136 29.5325C30.9973 29.7122 30.1084 30.3122 29.5729 31.1801C28.9158 32.337 29.3372 33.7984 30.5141 34.4443C31.6911 35.0903 33.1778 34.676 33.835 33.5192C34.086 33.0429 34.2215 32.5159 34.231 31.9796C34.8802 32.9064 34.9321 34.1168 34.3646 35.0942C34.1927 35.379 34.2883 35.747 34.5781 35.916C34.8679 36.085 35.2423 35.991 35.4142 35.7061C35.4197 35.697 35.4249 35.6878 35.43 35.6783C35.9843 34.7068 36.1203 33.5576 35.8077 32.487ZM32.7708 32.9338C32.4452 33.5138 31.7028 33.7245 31.1128 33.4044C30.5227 33.0843 30.3083 32.3546 30.634 31.7746C30.6358 31.7714 30.6377 31.7681 30.6395 31.7649C30.9996 31.1853 31.6069 30.7968 32.2919 30.7081C32.3979 30.7052 32.503 30.7292 32.5969 30.7776C33.1119 31.0601 33.1394 32.2849 32.7708 32.9338Z" fill="#2BB3CE"/>
</svg>
