<svg width="60" height="60" viewBox="0 0 60 60" fill="none" xmlns="http://www.w3.org/2000/svg">
<path d="M48.75 60H11.25C5.03625 60 0 54.9637 0 48.75V11.25C0 5.03625 5.03625 0 11.25 0H48.75C54.9637 0 60 5.03625 60 11.25V48.75C60 54.9637 54.9637 60 48.75 60Z" fill="#FAE3E3"/>
<path d="M18.75 26.25V41.5631C18.75 43.4625 20.2875 45 22.1869 45H37.8113C39.7125 45 41.25 43.4625 41.25 41.5631V26.25H18.75ZM26.25 38.7506C26.25 39.4387 25.6875 40.0012 24.9994 40.0012C24.3113 40.0012 23.7488 39.4387 23.7488 38.7506V31.2506C23.7488 30.5625 24.3113 30 24.9994 30C25.6875 30 26.25 30.5625 26.25 31.2506V38.7506ZM31.2506 38.7506C31.2506 39.4387 30.6881 40.0012 30 40.0012C29.3119 40.0012 28.7494 39.4387 28.7494 38.7506V31.2506C28.7494 30.5625 29.3119 30 30 30C30.6881 30 31.2506 30.5625 31.2506 31.2506V38.7506ZM36.2494 38.7506C36.2494 39.4387 35.6869 40.0012 34.9988 40.0012C34.3106 40.0012 33.7481 39.4387 33.7481 38.7506V31.2506C33.75 30.5625 34.3125 30 35.0006 30C35.6887 30 36.2512 30.5625 36.2512 31.2506V38.7506H36.2494ZM26.25 17.4994H33.75V18.75H36.2494V17.4994C36.2494 16.125 35.1244 15 33.75 15H26.25C24.8756 15 23.7506 16.125 23.7506 17.4994V18.75H26.25V17.4994Z" fill="#E43232"/>
<path d="M43.7494 22.1869V25.3125C43.7494 25.8244 43.3237 26.25 42.8119 26.25H17.1881C16.6763 26.25 16.2506 25.8244 16.2506 25.3125V22.1869C16.2506 20.2875 17.7881 18.75 19.6875 18.75H40.3125C42.2119 18.75 43.7494 20.2875 43.7494 22.1869Z" fill="#EB8C8C"/>
</svg>
