<svg width="195" height="195" viewBox="0 0 195 195" fill="none" xmlns="http://www.w3.org/2000/svg">
<g filter="url(#filter0_d_1_1423)">
<circle cx="97.5" cy="93.5" r="89.5" fill="white"/>
</g>
<g clip-path="url(#clip0_1_1423)">
<path d="M149.701 61.4297H132.853C131.283 61.4297 129.924 60.336 129.59 58.8018C129.135 56.7192 130.722 54.7497 132.853 54.7497H136.341C138.139 54.7497 139.687 53.3676 139.771 51.5711C139.862 49.6531 138.333 48.0697 136.435 48.0697H126.196C126.189 48.0697 126.181 48.0708 126.174 48.0708L42.7135 48.0697H42.7119L51.6186 88.8919C52.8484 94.5285 58.4144 99.0976 64.0508 99.0976H128.176C133.812 99.0976 137.384 94.5285 136.155 88.8922L135.419 85.5219C134.965 83.4393 136.551 81.4698 138.683 81.4698H140.794C142.592 81.4698 144.14 80.0877 144.224 78.2912C144.315 76.3731 142.787 74.7898 140.888 74.7898H135.768C134.197 74.7898 132.839 73.696 132.504 72.1618C132.05 70.0792 133.636 68.1097 135.768 68.1097H149.795C151.693 68.1097 153.222 66.5261 153.131 64.6083C153.047 62.8118 151.499 61.4297 149.701 61.4297Z" fill="#55DAFE"/>
<path d="M102.882 61.5771C98.0506 57.6114 92.1857 55.3834 86.5772 55.3834C80.9687 55.3834 76.0762 57.6114 72.9756 61.5771L51.6191 88.8921C52.8489 94.5285 58.4149 99.0976 64.0513 99.0976H128.176C133.813 99.0976 137.385 94.5285 136.155 88.8921L102.882 61.5771Z" fill="#7CE3FF"/>
<path d="M65.822 88.8921L62.7233 74.6899H48.5205L51.6191 88.8921C52.8489 94.5285 58.4149 99.0976 64.0513 99.0976H78.2541C72.6178 99.0976 67.0518 94.5285 65.822 88.8921Z" fill="#55DAFE"/>
<path d="M114.815 37.8643H50.6909C45.0545 37.8643 41.4822 42.4334 42.712 48.0698L75.9874 75.3854C80.8184 79.3511 86.6832 81.5792 92.2917 81.5792C97.9003 81.5792 102.793 79.3511 105.893 75.3854L127.248 48.0698C126.018 42.4327 120.452 37.8643 114.815 37.8643Z" fill="#B9F0FF"/>
<path d="M60.0135 62.2719L56.9148 48.0698C55.6851 42.4334 59.2573 37.8643 64.8937 37.8643H50.6909C45.0545 37.8643 41.4822 42.4334 42.712 48.0698L60.0126 62.2719H60.0135Z" fill="#7CE3FF"/>
<path d="M68.3584 97.502H68.3568L67.1488 103.038C66.8142 104.573 65.4559 105.666 63.8857 105.666H59.2642C57.4657 105.666 55.9182 107.048 55.8336 108.845C55.7432 110.763 57.2715 112.346 59.1698 112.346H60.9707C63.1023 112.346 64.6884 114.316 64.2339 116.398C63.8992 117.933 62.541 119.026 60.9707 119.026H45.9042C44.1057 119.026 42.5582 120.408 42.4735 122.205C42.3831 124.123 43.9115 125.707 45.8098 125.707H58.0558C60.1874 125.707 61.7734 127.676 61.319 129.758C60.9843 131.293 59.626 132.386 58.0558 132.386H54.8109C53.0124 132.386 51.4648 133.768 51.3802 135.565C51.2898 137.483 52.8182 139.067 54.7164 139.067H59.3181C58.5445 144.356 62.0426 148.53 67.4292 148.53H131.554C137.191 148.53 142.757 143.961 143.986 138.324L152.893 97.5033L68.3584 97.502Z" fill="#FFB357"/>
<path d="M122.632 111.009C119.532 107.044 114.639 104.816 109.03 104.816C103.422 104.816 97.5571 107.044 92.7261 111.009L59.4503 138.324C58.2205 143.961 61.7928 148.53 67.4291 148.53H131.554C137.191 148.53 142.757 143.961 143.986 138.324L122.632 111.009Z" fill="#FFCE71"/>
<path d="M73.6531 138.324L76.7518 124.122H62.5489L59.4503 138.324C58.2205 143.961 61.7928 148.53 67.4291 148.53H81.632C75.9956 148.53 72.4233 143.961 73.6531 138.324Z" fill="#FFB357"/>
<path d="M144.913 87.2964H80.7886C75.1522 87.2964 69.5862 91.8655 68.3564 97.5019L89.7122 124.818C92.8126 128.783 97.7053 131.011 103.314 131.011C108.922 131.011 114.787 128.783 119.618 124.818L152.892 97.5019C154.122 91.8648 150.55 87.2964 144.913 87.2964Z" fill="#FCE3A0"/>
<path d="M79.4606 111.704L82.5593 97.5019C83.7891 91.8655 89.3551 87.2964 94.9914 87.2964H80.7886C75.1522 87.2964 69.5862 91.8655 68.3564 97.5019L79.4597 111.704H79.4606Z" fill="#FFCE71"/>
<path d="M71.2835 56.8567C71.2746 59.7175 68.355 62.0275 64.7627 62.0161C61.1704 62.0047 58.2655 59.6768 58.2744 56.8159C58.2833 53.9551 61.2027 51.6452 64.7952 51.6563C68.3875 51.6676 71.2924 53.9959 71.2835 56.8567Z" fill="#FF8E9E"/>
<path d="M93.5313 56.9264C93.5224 59.7872 96.4273 62.1154 100.02 62.1266C103.612 62.1379 106.531 59.828 106.54 56.9672C106.549 54.1063 103.644 51.7781 100.052 51.7668C96.4598 51.7556 93.5404 54.0656 93.5313 56.9264Z" fill="#FF8E9E"/>
<path d="M87.6633 52.9279C87.6736 49.687 85.3265 49.375 82.4302 49.3659C79.534 49.3568 77.1851 49.654 77.1748 52.895C77.1648 56.1359 79.5044 58.7705 82.4006 58.7796C85.2971 58.789 87.6531 56.1688 87.6633 52.9279Z" fill="#313D40"/>
<path d="M68.6022 46.4454C68.5971 46.4454 68.5922 46.4454 68.587 46.4454C65.966 46.4454 63.8295 48.5737 63.8213 51.1965C63.8184 52.1188 64.5637 52.8687 65.4862 52.8716H65.4915C66.4111 52.8716 67.1584 52.1272 67.1613 51.2067C67.1638 50.422 67.803 49.7852 68.587 49.7852H68.5917C69.3777 49.7877 70.0157 50.4296 70.0132 51.2159C70.0103 52.1381 70.7558 52.8881 71.6783 52.8908H71.6832C72.6033 52.8908 73.3503 52.1464 73.3532 51.2257C73.3612 48.5984 71.2301 46.4537 68.6022 46.4454Z" fill="#313D40"/>
<path d="M99.6436 47.9386C98.7462 47.0355 97.5507 46.536 96.2777 46.5322C96.2726 46.5322 96.2675 46.5322 96.2624 46.5322C94.9952 46.5322 93.8028 47.0239 92.9034 47.9177C92.0005 48.815 91.5011 50.0101 91.4971 51.2833C91.4942 52.2056 92.2395 52.9555 93.162 52.9584H93.1673C94.0869 52.9584 94.8342 52.214 94.8371 51.2935C94.8384 50.9128 94.9878 50.5552 95.2579 50.2866C95.5271 50.0192 95.8838 49.8722 96.263 49.8722H96.2677C96.6485 49.8733 97.0061 50.0228 97.2744 50.2931C97.5429 50.5634 97.6901 50.9219 97.689 51.3029C97.6861 52.2252 98.4316 52.9751 99.3541 52.9778H99.3592C100.279 52.9778 101.026 52.2334 101.029 51.3127C101.033 50.0399 100.541 48.8415 99.6436 47.9386Z" fill="#313D40"/>
<path d="M92.593 112.16C96.3976 112.16 99.4818 109.704 99.4818 106.674C99.4818 103.644 96.3976 101.188 92.593 101.188C88.7884 101.188 85.7041 103.644 85.7041 106.674C85.7041 109.704 88.7884 112.16 92.593 112.16Z" fill="#FF8E9E"/>
<path d="M129.933 112.16C133.737 112.16 136.822 109.704 136.822 106.674C136.822 103.644 133.737 101.188 129.933 101.188C126.128 101.188 123.044 103.644 123.044 106.674C123.044 109.704 126.128 112.16 129.933 112.16Z" fill="#FF8E9E"/>
<path d="M111.262 106.551C113.282 106.551 114.919 104.719 114.919 102.459C114.919 100.199 113.282 98.3672 111.262 98.3672C109.243 98.3672 107.605 100.199 107.605 102.459C107.605 104.719 109.243 106.551 111.262 106.551Z" fill="#313D40"/>
<path d="M97.4315 95.2759C94.8205 95.2759 92.6963 97.4001 92.6963 100.011C92.6963 100.934 93.4438 101.681 94.3663 101.681C95.2888 101.681 96.0363 100.934 96.0363 100.011C96.0363 99.2418 96.6622 98.6159 97.4315 98.6159C98.2006 98.6159 98.8265 99.2418 98.8265 100.011C98.8265 100.934 99.574 101.681 100.497 101.681C101.419 101.681 102.167 100.934 102.167 100.011C102.167 97.4001 100.043 95.2759 97.4315 95.2759Z" fill="#313D40"/>
<path d="M124.83 95.2759C122.219 95.2759 120.095 97.4001 120.095 100.011C120.095 100.934 120.842 101.681 121.765 101.681C122.687 101.681 123.435 100.934 123.435 100.011C123.435 99.2418 124.061 98.6159 124.83 98.6159C125.599 98.6159 126.225 99.2418 126.225 100.011C126.225 100.934 126.972 101.681 127.895 101.681C128.817 101.681 129.565 100.934 129.565 100.011C129.565 97.4001 127.441 95.2759 124.83 95.2759Z" fill="#313D40"/>
</g>
<defs>
<filter id="filter0_d_1_1423" x="0" y="0" width="195" height="195" filterUnits="userSpaceOnUse" color-interpolation-filters="sRGB">
<feFlood flood-opacity="0" result="BackgroundImageFix"/>
<feColorMatrix in="SourceAlpha" type="matrix" values="0 0 0 0 0 0 0 0 0 0 0 0 0 0 0 0 0 0 127 0" result="hardAlpha"/>
<feOffset dy="4"/>
<feGaussianBlur stdDeviation="4"/>
<feComposite in2="hardAlpha" operator="out"/>
<feColorMatrix type="matrix" values="0 0 0 0 0 0 0 0 0 0 0 0 0 0 0 0 0 0 0.1 0"/>
<feBlend mode="normal" in2="BackgroundImageFix" result="effect1_dropShadow_1_1423"/>
<feBlend mode="normal" in="SourceGraphic" in2="effect1_dropShadow_1_1423" result="shape"/>
</filter>
<clipPath id="clip0_1_1423">
<rect width="110.666" height="110.666" fill="white" transform="translate(42.4697 37.8643)"/>
</clipPath>
</defs>
</svg>
