<svg width="16" height="16" viewBox="0 0 16 16" fill="none" xmlns="http://www.w3.org/2000/svg">
<path d="M11.1337 1.11954H14.0876L7.33442 7.87597C7.11574 8.09466 7.11574 8.45043 7.33442 8.66911C7.44214 8.77683 7.58575 8.83231 7.72937 8.83231C7.87298 8.83231 8.0166 8.77683 8.12431 8.66911L14.8807 1.91269V4.86659C14.8807 5.17666 15.1321 5.42799 15.4389 5.42799C15.7489 5.42799 16.0003 5.17666 16.0003 4.86659V0.561404C16.0003 0.251326 15.7489 0 15.4389 0H11.1337C10.8236 0 10.5723 0.251326 10.5723 0.561404C10.5756 0.868217 10.8236 1.11954 11.1337 1.11954Z" fill="white"/>
<path d="M3.35863 16H12.6381C14.492 16 15.9967 14.492 15.9967 12.6414V8.27091C15.9967 7.96083 15.7454 7.71277 15.4353 7.71277C15.1253 7.71277 14.8772 7.9641 14.8772 8.27091V12.6381C14.8772 13.8719 13.8719 14.8772 12.6381 14.8772H3.35863C2.12485 14.8772 1.11954 13.8719 1.11954 12.6381V5.26805V3.36189C1.11954 2.12811 2.12485 1.12281 3.35863 1.12281H7.68992C8 1.12281 8.24806 0.871481 8.24806 0.561404C8.24806 0.251326 7.99674 0 7.68992 0H3.35863C1.50469 0 0 1.50796 0 3.35863V5.26479V12.6381C0 14.492 1.50796 16 3.35863 16Z" fill="white"/>
</svg>
