<svg width="19" height="12" viewBox="0 0 19 12" fill="none" xmlns="http://www.w3.org/2000/svg">
<path d="M17.9625 5.62501C17.8125 5.40001 14.6625 0 9.0375 0C3.41249 0 0.262521 5.40001 0.112509 5.62501C-0.037503 5.85001 -0.037503 6.14999 0.112509 6.37499C0.262521 6.59999 3.41252 12 9.03753 12C14.6625 12 17.8125 6.59999 17.9626 6.37499C18.0375 6.14999 18.0375 5.85001 17.9625 5.62501ZM9.03753 9.75C6.9375 9.75 5.28751 8.10001 5.28751 6.00002C5.28751 3.90003 6.9375 2.25 9.03753 2.25C11.1376 2.25 12.7875 3.89999 12.7875 6.00002C12.7875 8.10004 11.1375 9.75 9.03753 9.75Z" fill="#8AB591"/>
<path d="M9.0376 3.75C7.76259 3.75 6.7876 4.72499 6.7876 6C6.7876 7.27502 7.76259 8.25 9.0376 8.25C10.3126 8.25 11.2876 7.27502 11.2876 6C11.2876 4.72499 10.3126 3.75 9.0376 3.75ZM9.78759 6C9.33759 6 9.0376 5.70001 9.0376 5.25001C9.0376 4.80001 9.33759 4.50002 9.78759 4.50002C10.2376 4.50002 10.5376 4.80001 10.5376 5.25001C10.5376 5.69998 10.2376 6 9.78759 6Z" fill="#8AB591"/>
</svg>
