<svg id="facebook_1_" data-name="facebook (1)" xmlns="http://www.w3.org/2000/svg" width="25" height="25" viewBox="0 0 29 29">
  <path id="Trazado_4897" data-name="Trazado 4897" d="M27.4,0H1.6A1.6,1.6,0,0,0,0,1.6V27.4A1.6,1.6,0,0,0,1.6,29H27.4A1.6,1.6,0,0,0,29,27.4h0V1.6A1.6,1.6,0,0,0,27.4,0Zm0,0" fill="#4267b2"/>
  <path id="Trazado_4898" data-name="Trazado 4898" d="M215.3,101.945V90.73h3.781l.566-4.39H215.3v-2.8c0-1.268.352-2.132,2.17-2.132h2.3V77.5a30.977,30.977,0,0,0-3.377-.173c-3.342,0-5.629,2.039-5.629,5.785V86.34H207v4.39h3.767v11.215Zm0,0" transform="translate(-195.275 -72.945)" fill="#fff"/>
</svg>
