<svg width="60" height="60" viewBox="0 0 60 60" fill="none" xmlns="http://www.w3.org/2000/svg">
<path fill-rule="evenodd" clip-rule="evenodd" d="M30 0C13.4573 0 0 13.4573 0 30C0 46.5427 13.4573 60 30 60C46.5427 60 60 46.5427 60 30C60 13.4573 46.5427 0 30 0Z" fill="#F5737F"/>
<path fill-rule="evenodd" clip-rule="evenodd" d="M41.0476 37.5123C42.0249 38.49 42.0249 40.0698 41.0476 41.0476C40.5601 41.5351 39.9201 41.78 39.2797 41.78C38.6397 41.78 37.9998 41.5351 37.5123 41.0476L29.9999 33.5347L22.4876 41.0476C22 41.5351 21.3601 41.78 20.7201 41.78C20.0797 41.78 19.4398 41.5351 18.9522 41.0476C17.9749 40.0698 17.9749 38.49 18.9522 37.5123L26.4651 29.9999L18.9522 22.4876C17.9749 21.5098 17.9749 19.93 18.9522 18.9522C19.93 17.9749 21.5098 17.9749 22.4876 18.9522L29.9999 26.4651L37.5123 18.9522C38.49 17.9749 40.0698 17.9749 41.0476 18.9522C42.0249 19.93 42.0249 21.5098 41.0476 22.4876L33.5347 29.9999L41.0476 37.5123Z" fill="#FAFAFA"/>
</svg>
