<svg width="92" height="92" viewBox="0 0 92 92" fill="none" xmlns="http://www.w3.org/2000/svg">
<g filter="url(#filter0_d)">
<circle cx="46" cy="43" r="38" fill="#C2DAA5"/>
</g>
<g filter="url(#filter1_d)">
<circle cx="46" cy="43" r="34" fill="#DBE6B4"/>
</g>
<g filter="url(#filter2_d)">
<circle cx="46" cy="43" r="29" fill="white"/>
</g>
<path d="M59.2273 30.7727H55.25V37.9318H59.2273V30.7727Z" fill="#F05540"/>
<path d="M60.8173 27.9886H53.6582V31.1705H60.8173V27.9886Z" fill="#F3705A"/>
<path d="M31.7832 44.9803V61H60.8173V44.9803C55.1142 39.3988 51.9293 36.2818 46.3002 30.7727C40.6712 36.3542 37.4863 39.4712 31.7832 44.9803Z" fill="#FFD15C"/>
<path d="M60.8173 44.975C55.1287 39.3956 51.9519 36.2797 46.3372 30.7727C43.4559 33.5262 41.2396 35.7 39.0232 37.8738C36.8069 40.0476 34.5905 42.2215 31.7832 44.9749V48.2357C37.4718 42.6562 40.6486 39.5404 46.2633 34.0334C51.9519 39.6128 55.1287 42.7286 60.7435 48.2357V48.6704V44.9749H60.8173V44.975Z" fill="#F7B64C"/>
<path d="M43.7156 61H35.3633V52.3C35.3633 49.825 37.2744 47.875 39.5394 47.875C41.8752 47.875 43.7156 49.9 43.7156 52.3V61Z" fill="#415A6B"/>
<path d="M57.6364 47.875H46.5V58.2159H57.6364V47.875Z" fill="#344A5E"/>
<path d="M51.386 49.4065H47.5215V56.9169H51.386V49.4065Z" fill="#8AD7F8"/>
<path d="M56.4173 49.4059H52.5527V56.9163H56.4173V49.4059Z" fill="#8AD7F8"/>
<path d="M63.3438 41.9383L48.1042 26.658C47.2292 25.7807 45.6979 25.7807 44.8229 26.658L29.6562 41.9383C28.7813 42.8157 28.7813 44.351 29.6562 45.2284C30.5312 46.1057 32.0625 46.1057 32.9375 45.2284L46.5 31.6296L60.0625 45.2284C60.9375 46.1057 62.4688 46.1057 63.3438 45.2284C64.2188 44.278 64.2188 42.8157 63.3438 41.9383Z" fill="#F3705A"/>
<defs>
<filter id="filter0_d" x="0" y="0" width="92" height="92" filterUnits="userSpaceOnUse" color-interpolation-filters="sRGB">
<feFlood flood-opacity="0" result="BackgroundImageFix"/>
<feColorMatrix in="SourceAlpha" type="matrix" values="0 0 0 0 0 0 0 0 0 0 0 0 0 0 0 0 0 0 127 0"/>
<feOffset dy="3"/>
<feGaussianBlur stdDeviation="4"/>
<feColorMatrix type="matrix" values="0 0 0 0 0 0 0 0 0 0 0 0 0 0 0 0 0 0 0.160784 0"/>
<feBlend mode="normal" in2="BackgroundImageFix" result="effect1_dropShadow"/>
<feBlend mode="normal" in="SourceGraphic" in2="effect1_dropShadow" result="shape"/>
</filter>
<filter id="filter1_d" x="4" y="4" width="84" height="84" filterUnits="userSpaceOnUse" color-interpolation-filters="sRGB">
<feFlood flood-opacity="0" result="BackgroundImageFix"/>
<feColorMatrix in="SourceAlpha" type="matrix" values="0 0 0 0 0 0 0 0 0 0 0 0 0 0 0 0 0 0 127 0"/>
<feOffset dy="3"/>
<feGaussianBlur stdDeviation="4"/>
<feColorMatrix type="matrix" values="0 0 0 0 0 0 0 0 0 0 0 0 0 0 0 0 0 0 0.160784 0"/>
<feBlend mode="normal" in2="BackgroundImageFix" result="effect1_dropShadow"/>
<feBlend mode="normal" in="SourceGraphic" in2="effect1_dropShadow" result="shape"/>
</filter>
<filter id="filter2_d" x="9" y="9" width="74" height="74" filterUnits="userSpaceOnUse" color-interpolation-filters="sRGB">
<feFlood flood-opacity="0" result="BackgroundImageFix"/>
<feColorMatrix in="SourceAlpha" type="matrix" values="0 0 0 0 0 0 0 0 0 0 0 0 0 0 0 0 0 0 127 0"/>
<feOffset dy="3"/>
<feGaussianBlur stdDeviation="4"/>
<feColorMatrix type="matrix" values="0 0 0 0 0 0 0 0 0 0 0 0 0 0 0 0 0 0 0.160784 0"/>
<feBlend mode="normal" in2="BackgroundImageFix" result="effect1_dropShadow"/>
<feBlend mode="normal" in="SourceGraphic" in2="effect1_dropShadow" result="shape"/>
</filter>
</defs>
</svg>
