<svg width="154" height="154" viewBox="0 0 154 154" fill="none" xmlns="http://www.w3.org/2000/svg">
<path d="M77 154C119.526 154 154 119.526 154 77C154 34.4741 119.526 0 77 0C34.4741 0 0 34.4741 0 77C0 119.526 34.4741 154 77 154Z" fill="#68C453"/>
<path d="M77 147C115.66 147 147 115.66 147 77C147 38.3401 115.66 7 77 7C38.3401 7 7 38.3401 7 77C7 115.66 38.3401 147 77 147Z" fill="#B2E68D"/>
<path d="M77 139C111.242 139 139 111.242 139 77C139 42.7583 111.242 15 77 15C42.7583 15 15 42.7583 15 77C15 111.242 42.7583 139 77 139Z" fill="white"/>
<path d="M76 42C65.5458 42 57 50.5458 57 61C57 71.4542 65.5458 80 76 80C86.4542 80 95 71.4542 95 61C95 50.5458 86.4542 42 76 42Z" fill="#FFAB37" fill-opacity="0.8"/>
<path d="M108.861 92.8731C108.367 91.6826 107.708 90.5715 106.968 89.5397C103.18 84.1428 97.3349 80.5714 90.7484 79.6984C89.9252 79.6191 89.0195 79.7777 88.3608 80.2539C84.9029 82.7143 80.7864 83.9841 76.5051 83.9841C72.2238 83.9841 68.1073 82.7143 64.6494 80.2539C63.9907 79.7777 63.085 79.5397 62.2618 79.6984C55.6753 80.5714 49.7475 84.1428 46.0427 89.5397C45.3017 90.5715 44.643 91.762 44.1491 92.8731C43.9022 93.3493 43.9844 93.9049 44.2314 94.3811C44.8901 95.4922 45.7133 96.6034 46.4543 97.5557C47.6069 99.0637 48.8419 100.413 50.2416 101.683C51.3942 102.794 52.7114 103.825 54.0288 104.857C60.5329 109.54 68.3544 112 76.4228 112C84.4913 112 92.3128 109.54 98.8168 104.857C100.134 103.905 101.451 102.794 102.604 101.683C103.921 100.413 105.239 99.0636 106.391 97.5557C107.215 96.5239 107.956 95.4922 108.614 94.3811C109.026 93.9049 109.108 93.3492 108.861 92.8731Z" fill="#FFAB37" fill-opacity="0.8"/>
</svg>
