<svg xmlns="http://www.w3.org/2000/svg" xmlns:xlink="http://www.w3.org/1999/xlink" width="25" height="25" viewBox="0 0 28.5 28.5">
  <defs>
    <linearGradient id="linear-gradient" y1="0.5" x2="1" y2="0.5" gradientUnits="objectBoundingBox">
      <stop offset="0" stop-color="#ff637b"/>
      <stop offset="1" stop-color="#f90217"/>
    </linearGradient>
    <linearGradient id="linear-gradient-2" x1="0.799" y1="1.737" x2="0.065" y2="-0.534" xlink:href="#linear-gradient"/>
    <linearGradient id="linear-gradient-3" x1="0.043" y1="0.309" x2="1.019" y2="0.694" gradientUnits="objectBoundingBox">
      <stop offset="0" stop-color="#ffd833"/>
      <stop offset="1" stop-color="#f2b631"/>
    </linearGradient>
    <linearGradient id="linear-gradient-4" x1="1.345" y1="0.738" x2="-0.149" y2="0.244" xlink:href="#linear-gradient-3"/>
    <linearGradient id="linear-gradient-5" x1="0.44" y1="0.241" x2="0.655" y2="0.79" gradientUnits="objectBoundingBox">
      <stop offset="0" stop-color="#28a265"/>
      <stop offset="1" stop-color="#28895e"/>
    </linearGradient>
    <linearGradient id="linear-gradient-6" x1="0.831" y1="1.379" x2="0.082" y2="-0.9" xlink:href="#linear-gradient-5"/>
    <linearGradient id="linear-gradient-7" x1="0.427" y1="0.134" x2="0.893" y2="0.685" gradientUnits="objectBoundingBox">
      <stop offset="0" stop-color="#7faef4"/>
      <stop offset="1" stop-color="#4c8df1"/>
    </linearGradient>
    <linearGradient id="linear-gradient-8" x1="1.023" y1="1.005" x2="0.265" y2="-0.088" xlink:href="#linear-gradient-7"/>
  </defs>
  <g id="google" transform="translate(0 0)">
    <path id="Trazado_4889" data-name="Trazado 4889" d="M76.143,7.945a8.949,8.949,0,0,1,12.329-.388.6.6,0,0,0,.806-.026l2.9-2.9a.59.59,0,0,0-.016-.85,14.229,14.229,0,0,0-19.759.433c-.283.284.048,3.725.048,3.725s2.1,1.614,3.687.01Z" transform="translate(-68.254 0)" fill="url(#linear-gradient)"/>
    <path id="Trazado_4890" data-name="Trazado 4890" d="M100.941,48.389A8.949,8.949,0,0,1,113.269,48a.6.6,0,0,0,.806-.026l1.667-1.667c-.145-.112-.288-.23-.428-.354a12.055,12.055,0,0,0-8.14-3.117,11.812,11.812,0,0,0-8.294,3.491,7.455,7.455,0,0,0-.322,2.053S98.83,48.358,100.941,48.389Z" transform="translate(-93.052 -40.443)" fill="url(#linear-gradient-2)"/>
    <path id="Trazado_4891" data-name="Trazado 4891" d="M5.284,85.3a8.941,8.941,0,0,0,2.653,6.449L6.666,94.492,4.2,95.484A14.229,14.229,0,0,1,4.154,75.34l3.735,3.735A8.933,8.933,0,0,0,5.284,85.3Z" transform="translate(0 -71.13)" fill="url(#linear-gradient-3)"/>
    <path id="Trazado_4892" data-name="Trazado 4892" d="M45.732,113.613a8.941,8.941,0,0,0,2.653,6.449l-2.043,2.043a11.876,11.876,0,0,1-.065-16.775l2.059,2.059A8.933,8.933,0,0,0,45.732,113.613Z" transform="translate(-40.448 -99.444)" fill="url(#linear-gradient-4)"/>
    <path id="Trazado_4893" data-name="Trazado 4893" d="M91.564,368.957a8.984,8.984,0,0,1-12.632-.008L75.2,372.685a14.159,14.159,0,0,0,20.059-.037l-1.068-2.283Z" transform="translate(-70.994 -348.331)" fill="url(#linear-gradient-5)"/>
    <path id="Trazado_4894" data-name="Trazado 4894" d="M120.165,368.957a8.983,8.983,0,0,1-12.631-.008l-2.043,2.043a11.854,11.854,0,0,0,16.71,0Z" transform="translate(-99.595 -348.331)" fill="url(#linear-gradient-6)"/>
    <path id="Trazado_4895" data-name="Trazado 4895" d="M269.612,220.218a.509.509,0,0,0-.509-.509H255.839a.456.456,0,0,0-.456.456v4.386a.456.456,0,0,0,.456.456h6.478a.86.86,0,0,1,.738,1.3,8.933,8.933,0,0,1-1.368,1.744l-.005.006,3.692,3.692q.261-.261.529-.524a14.384,14.384,0,0,0,3.709-9.654Z" transform="translate(-241.112 -207.431)" fill="url(#linear-gradient-7)"/>
    <path id="Trazado_4896" data-name="Trazado 4896" d="M266.62,267.7a2.433,2.433,0,0,0-2.306-3.2h-8.929v2.338a.456.456,0,0,0,.456.456h6.478a.86.86,0,0,1,.738,1.3,8.933,8.933,0,0,1-1.363,1.739l-.01.011,2.035,2.035a11.863,11.863,0,0,0,2.562-3.779Q266.467,268.159,266.62,267.7Z" transform="translate(-241.113 -249.719)" fill="url(#linear-gradient-8)"/>
  </g>
</svg>
