<svg width="24" height="24" viewBox="0 0 24 24" fill="none" xmlns="http://www.w3.org/2000/svg">
<path d="M12 0C5.38293 0 0 5.38293 0 12C0 18.6171 5.38293 24 12 24C18.6171 24 24 18.6171 24 12C24 5.38293 18.6171 0 12 0Z" fill="#C2DAA5"/>
<path d="M18.0818 9.45702L11.5817 15.9569C11.3867 16.1519 11.1307 16.25 10.8748 16.25C10.6188 16.25 10.3628 16.1519 10.1678 15.9569L6.91785 12.707C6.52673 12.316 6.52673 11.6839 6.91785 11.293C7.30878 10.9019 7.94067 10.9019 8.33179 11.293L10.8748 13.836L16.6678 8.04308C17.0588 7.65197 17.6907 7.65197 18.0818 8.04308C18.4727 8.43401 18.4727 9.06591 18.0818 9.45702Z" fill="#FAFAFA"/>
</svg>
