<svg xmlns="http://www.w3.org/2000/svg" id="remove-2" width="167.695" height="167.695" viewBox="0 0 167.695 167.695">
    <path id="Trazado_3771" fill="#f5737f" d="M83.847 0a83.847 83.847 0 1 0 83.847 83.847A83.94 83.94 0 0 0 83.847 0zm0 0" data-name="Trazado 3771"/>
    <path id="Trazado_3772" fill="#fafafa" d="M219.275 209.394a6.987 6.987 0 1 1-9.881 9.881l-21-21-21 21a6.987 6.987 0 0 1-9.881-9.881l21-21-21-21a6.987 6.987 0 0 1 9.881-9.881l21 21 21-21a6.987 6.987 0 1 1 9.881 9.881l-21 21zm0 0" data-name="Trazado 3772" transform="translate(-104.55 -104.55)"/>
</svg>
