<svg width="158" height="85" viewBox="0 0 158 85" fill="none" xmlns="http://www.w3.org/2000/svg">
<g filter="url(#filter0_i_136_755)">
<path d="M84.9422 11.911C78.6343 11.468 72.7169 12.0771 71.8798 13.5723C71.0983 14.9013 72.4381 31.8462 72.8287 36.0546C73.1638 40.2634 73.387 51.8922 74.3359 52.889C75.2848 53.8857 79.8064 54.7164 86.4494 54.0519C93.0921 53.3874 102.303 47.9052 102.08 33.1199C101.745 18.3346 91.1943 12.354 84.9422 11.911ZM84.328 39.9864C83.2673 39.3771 81.9278 27.25 83.8256 26.364C85.7238 25.478 87.9007 28.0806 88.3472 33.5627C88.7382 39.0449 85.7793 40.7617 84.328 39.9864Z" fill="#F05D78"/>
<path d="M34.479 32.3444C41.5684 27.8589 42.2941 16.2854 41.8473 15.4548C41.4008 14.5688 33.1391 15.0118 31.9111 15.1779C30.683 15.344 31.6878 20.6047 30.1806 24.481C29.1199 27.1944 26.8312 28.5234 25.2124 29.2433C25.1566 27.6374 24.7658 17.3376 24.2076 16.4516C23.5935 15.5102 20.8024 15.6763 18.1788 15.5102C16.5599 15.3994 13.3781 15.3994 11.7034 16.3408C10.587 16.9499 11.0894 22.1552 11.5918 26.5299C12.0383 30.9599 13.5455 55.7682 14.1038 56.7097C14.662 57.6508 23.0353 57.817 24.0959 56.9863C24.71 56.488 24.9891 47.4619 25.1566 39.8753C27.222 40.3737 31.6319 41.9244 33.9766 46.8526C37.1024 53.4424 37.0468 57.0972 38.2749 57.0972C39.503 57.1525 46.9272 53.7747 47.039 52.7779C47.1504 51.8364 42.7406 36.4975 34.479 32.3444Z" fill="#F26623"/>
<path d="M52.2862 13.8492C51.5047 14.9567 52.9001 34.1719 53.2351 39.1557C53.5702 44.1395 54.0167 53.1659 54.575 53.941C55.0774 54.6611 63.9529 56.1006 64.4553 55.3256C64.9577 54.5502 65.1254 32.3445 64.7344 26.9178C64.3997 21.491 64.9021 12.8525 63.7855 12.0218C62.6692 11.1912 53.0678 12.6863 52.2862 13.8492Z" fill="#9E99CD"/>
<path d="M125.525 11.6893C126.027 12.2431 125.469 20.8816 125.022 21.2139C124.576 21.5461 121.226 20.2171 120.613 23.152C119.831 27.3052 126.195 28.3573 129.321 32.7319C132.949 37.8266 133.396 44.4716 128.707 49.0679C123.125 54.55 111.178 50.8953 110.174 48.8462C109.113 46.7974 108.276 37.8266 108.89 37.5496C109.448 37.2729 114.249 40.8168 115.812 37.9927C117.933 34.0609 107.773 29.8525 107.271 21.8784C106.769 13.9043 111.681 9.25278 118.659 9.58503C122.622 9.75116 125.525 11.6893 125.525 11.6893Z" fill="#24ABA0"/>
<path d="M6.6236 62.4685C6.56777 65.9019 8.46574 72.547 14.4945 73.2667C20.3001 73.9312 22.3655 72.0486 22.7562 71.3841C23.147 70.7196 22.9237 65.1821 22.4213 64.7943C21.9189 64.462 18.9603 65.2927 18.737 62.3024C18.5696 59.3121 21.584 60.475 22.0305 60.2536C22.4771 60.0875 22.1422 53.3316 21.3049 52.5565C20.4675 51.7812 6.90271 47.905 6.6236 62.4685Z" fill="#ED6CA6"/>
<path d="M16.8949 74.2081C16.1692 74.2081 15.3319 74.1528 14.4387 74.042C11.5359 73.7097 9.1356 72.0485 7.57257 69.2243C6.23282 66.8433 5.78625 64.1297 5.84208 62.4131C5.89791 58.5922 7.01434 53.5532 11.7034 51.5597C16.1134 49.6767 21.1932 51.3379 21.8631 51.9472C23.0911 53.0548 23.147 58.9798 22.9795 60.0321C22.9237 60.2535 22.8679 60.7519 22.4213 60.9733C22.1422 61.0841 21.8072 61.0841 21.4165 61.0289C20.9699 60.9733 20.1326 60.918 19.8535 61.195C19.6302 61.4164 19.6302 61.8595 19.6302 62.1917C19.7418 63.576 20.5233 63.7421 21.7514 63.7974C22.2538 63.7974 22.6446 63.853 22.9237 64.0744C23.2028 64.2405 23.5935 64.5728 23.761 67.84C23.8168 69.2796 23.8168 71.0517 23.4819 71.6609C23.3144 72.0485 21.9189 74.2081 16.8949 74.2081ZM7.40511 62.4684C7.34928 65.4587 9.02394 71.8271 14.6062 72.436C19.6302 73.0452 21.6398 71.6054 22.0305 70.9409C22.2538 70.2211 22.1422 66.511 21.8631 65.4587C21.8072 65.4587 21.6956 65.4587 21.6398 65.4587C20.5791 65.4034 18.123 65.2926 17.9555 62.3579C17.8997 61.3611 18.123 60.5857 18.6812 60.0874C19.4627 59.312 20.635 59.3676 21.4165 59.4781C21.5281 57.983 21.249 53.9407 20.7466 53.1653C20.0209 52.7778 15.4435 51.4488 11.8151 53.2762C9.02394 54.7161 7.51674 57.8169 7.40511 62.4684Z" fill="white"/>
<path d="M122.678 55.8788C121.226 46.5758 114.807 43.8622 110.23 44.9698C105.485 46.1327 102.303 52.7225 103.754 58.9797C105.206 65.1819 110.062 68.9473 114.751 67.9505C119.44 66.8985 121.673 63.0223 121.561 62.4683C121.45 61.9147 120.501 59.0353 120.11 58.9244C119.664 58.7583 119.273 60.8071 115.756 61.8038C112.239 62.8006 110.565 59.9764 110.565 59.9764C112.128 59.0905 120.166 57.097 121.171 56.82C121.897 56.5986 122.79 56.5986 122.678 55.8788ZM114.528 52.7777C114.528 53.3314 111.178 54.3837 111.011 53.7745C110.788 53.1652 110.844 51.3934 112.016 50.8395C113.244 50.2858 114.584 51.9471 114.528 52.7777Z" fill="#F05D78"/>
<path d="M113.244 68.892C108.666 68.892 104.368 64.9049 103.029 59.1458C101.521 52.6116 104.871 45.4681 110.118 44.1944C112.686 43.5855 115.477 44.0839 117.766 45.579C119.887 46.9633 122.622 49.8983 123.515 55.7127C123.738 57.0417 122.343 57.3184 121.729 57.4845C121.617 57.4845 121.506 57.5401 121.45 57.5401C119.496 58.0385 114.305 59.3675 111.96 60.1981C112.63 60.807 113.858 61.4715 115.644 60.9732C117.766 60.3642 118.547 59.3675 119.049 58.7583C119.329 58.426 119.831 57.8168 120.501 58.0938C121.506 58.4813 122.399 62.2469 122.455 62.2469C122.678 63.4098 119.943 67.563 115.03 68.6706C114.416 68.8367 113.802 68.892 113.244 68.892ZM112.295 45.579C111.681 45.579 111.067 45.6343 110.509 45.8004C106.099 46.908 103.308 53.11 104.647 58.8135C105.987 64.4618 110.341 68.1166 114.64 67.1754C118.547 66.2892 120.613 63.2437 120.836 62.5239C120.724 62.0808 120.333 60.9732 119.998 60.1981C119.385 60.9179 118.268 61.9699 116.091 62.5792C112.797 63.5207 110.676 61.5271 109.95 60.3642L109.56 59.6442L110.285 59.2566C112.016 58.2599 120.724 56.1002 121.115 56.045C121.226 55.9894 121.338 55.9894 121.506 55.9894C121.617 55.9894 121.841 55.9341 121.952 55.8788C121.115 50.7289 118.77 48.237 116.928 47.0186C115.477 46.0218 113.858 45.579 112.295 45.579ZM111.513 54.7712C110.676 54.7712 110.341 54.3837 110.23 54.0514C109.95 53.11 110.062 50.9503 111.681 50.175C112.407 49.8427 113.188 49.9536 113.914 50.4519C114.751 51.0056 115.365 52.0579 115.365 52.8886C115.309 54.2728 112.016 54.8265 111.96 54.8265C111.793 54.7712 111.625 54.7712 111.513 54.7712ZM112.574 51.5596C112.518 51.5596 112.462 51.5596 112.407 51.6148C111.904 51.8362 111.737 52.6669 111.737 53.1652C112.295 53.11 113.244 52.7777 113.69 52.5563C113.579 52.3346 113.356 52.0023 113.021 51.7257C112.853 51.6148 112.686 51.5596 112.574 51.5596Z" fill="white"/>
<path d="M77.1829 48.7355C76.792 49.4 77.7968 69.0582 78.1319 69.3352C78.4669 69.6119 85.2772 69.0582 85.5561 68.6151C85.8352 68.1723 84.6072 57.5955 85.1096 55.6573C85.612 53.7193 88.2357 53.2209 88.794 55.4359C89.352 57.5955 89.2964 67.8401 89.5753 68.1167C89.9103 68.449 96.2183 68.8368 96.5533 68.2829C96.888 67.7845 97.8372 55.602 96.5533 51.5597C95.2693 47.4618 90.971 45.6897 87.566 47.4618C84.6072 49.0122 84.4957 50.5073 84.2165 50.3968C83.9933 50.2859 84.2165 47.5726 84.0492 47.2957C84.0492 47.0743 77.6295 48.071 77.1829 48.7355Z" fill="#FCF28A"/>
<path d="M79.1366 70.2212C78.411 70.2212 77.8527 70.1659 77.6853 69.9998C77.2944 69.7228 77.0712 69.5567 76.5688 59.2568C76.0664 49.0126 76.3455 48.5695 76.5129 48.3481C77.2388 47.1852 83.3791 46.4651 83.9933 46.4651C84.1606 46.4651 84.663 46.4651 84.9422 46.9082C85.1096 47.1852 85.1095 47.4619 85.1095 48.2925C85.6119 47.7941 86.3376 47.2957 87.3424 46.7421C89.1287 45.8006 91.2501 45.7453 93.148 46.5207C95.2134 47.3513 96.7765 49.1231 97.4463 51.3384C98.6744 55.2698 98.0605 67.7293 97.3348 68.7816C97.0557 69.1692 96.6092 69.28 95.9391 69.3353C95.1575 69.3906 89.7988 69.4461 89.1287 68.7261C88.794 68.3938 88.794 68.2277 88.6263 63.6317C88.5149 60.752 88.4031 56.8205 88.124 55.6576C88.0125 55.2698 87.7892 54.827 87.2309 54.827C86.7285 54.827 86.1702 55.2145 86.0029 55.879C85.7237 56.8758 86.0585 61.1398 86.282 64.0192C86.6168 68.3938 86.6168 68.7261 86.3376 69.0583C86.1144 69.3906 85.7237 69.5567 84.8304 69.7228C84.7189 69.7228 81.258 70.2212 79.1366 70.2212ZM78.8016 68.6155C80.1414 68.6155 83.6582 68.3385 84.8304 68.0615C84.8304 67.3418 84.7189 65.6252 84.6071 64.1301C84.2724 59.8108 84.1047 56.6544 84.3839 55.4915C84.7189 54.1625 85.8911 53.221 87.175 53.221C88.3472 53.221 89.2964 53.9964 89.6311 55.2698C89.9662 56.5988 90.0777 60.3092 90.1894 63.5761C90.2453 65.0713 90.3012 66.7881 90.3568 67.5079C91.5852 67.7293 94.8784 67.8401 95.9391 67.7293C96.2741 65.7358 96.9439 55.4359 95.8276 51.8367C95.2693 50.0646 94.0413 48.6803 92.4782 48.0711C91.0269 47.4619 89.4079 47.5175 88.0125 48.2372C86.1143 49.234 85.5561 50.1755 85.2772 50.6183C84.7189 51.5045 84.2165 51.2828 84.0489 51.2275C83.3791 50.9505 83.3791 50.3416 83.435 48.7356C83.435 48.5695 83.435 48.3481 83.435 48.1264C82.0393 48.2372 78.8016 48.8465 77.9086 49.234C77.7412 51.3936 78.411 65.6805 78.8016 68.6155ZM77.1829 48.7356L77.8527 49.1787L77.1829 48.7356Z" fill="white"/>
<path d="M37.5492 49.6216C40.2845 49.6216 46.4807 52.501 46.9272 60.9734C47.3737 69.5015 39.1679 75.5373 33.3624 71.1072C28.2268 67.231 28.1709 60.3645 29.4549 56.1558C30.7389 52.1688 33.9765 49.6216 37.5492 49.6216Z" fill="#C3E5D2"/>
<path d="M37.6048 73.4885C35.9302 73.4885 34.2557 72.9345 32.8041 71.8272C30.348 69.9442 28.7292 67.231 28.1151 63.9637C27.6685 61.4165 27.836 58.4815 28.6175 55.9896C30.0129 51.6151 33.4741 48.8462 37.4933 48.8462C40.5077 48.8462 47.2063 51.892 47.6528 60.9734C47.932 65.7911 45.4758 70.3874 41.5681 72.4361C40.2845 73.1006 38.9446 73.4885 37.6048 73.4885ZM37.5492 50.4522C34.2557 50.4522 31.4086 52.8332 30.2365 56.488C27.9476 63.7423 31.4086 68.7261 33.8089 70.5535C35.8744 72.1039 38.4422 72.27 40.8425 71.0519C43.6336 69.612 46.3689 65.9572 46.09 61.0843C45.6991 53.1102 40.0612 50.4522 37.5492 50.4522Z" fill="white"/>
<path d="M128.316 45.0807C128.707 44.7485 136.354 44.084 136.578 44.2501C136.801 44.4162 136.634 46.6315 136.801 46.4653C136.969 46.2436 138.866 44.1396 141.713 43.9179C143.723 43.7517 145.956 44.3057 146.235 44.7485C146.514 45.1363 146.849 52.6673 146.514 53.0548C146.123 53.4979 142.383 51.6705 140.318 52.2798C138.252 52.8334 136.745 55.3253 136.689 59.5337C136.689 63.7978 136.857 65.1268 136.633 65.459C136.41 65.7913 130.493 66.2344 130.214 65.8465C130.046 65.3482 127.981 45.3577 128.316 45.0807Z" fill="#84D0C9"/>
<path d="M131.665 66.7327C130.437 66.7327 129.879 66.6219 129.6 66.1791C129.377 65.8468 128.93 62.2473 128.26 55.4361C127.2 44.9149 127.367 44.7488 127.814 44.4165C128.037 44.2504 128.316 44.0287 132.447 43.6411C136.634 43.2536 136.801 43.3642 137.08 43.5859C137.415 43.8073 137.471 44.1948 137.527 44.7488C138.476 44.0287 139.927 43.2536 141.658 43.0875C143.611 42.9214 146.346 43.4198 146.905 44.2504C147.017 44.4165 147.24 44.7488 147.407 48.8463C147.575 52.9995 147.351 53.2765 147.184 53.4979C146.682 54.1071 145.9 53.8857 144.505 53.4979C143.277 53.1656 141.602 52.7228 140.653 52.9995C138.81 53.4979 137.638 55.9898 137.638 59.534C137.638 61.3058 137.638 62.5243 137.694 63.4655C137.75 65.0162 137.75 65.459 137.527 65.8468C137.303 66.2343 137.024 66.4005 135.07 66.6219C133.842 66.6774 132.614 66.7327 131.665 66.7327ZM130.996 65.1267C132.056 65.2376 134.959 65.0162 136.02 64.7945C136.02 64.4622 136.02 64.0194 136.02 63.4655C136.02 62.5243 135.964 61.3058 135.964 59.4784C135.964 55.1591 137.527 52.1689 140.15 51.4491C141.546 51.0616 143.388 51.5599 144.895 51.9475C145.174 52.0027 145.565 52.1136 145.844 52.1689C145.9 50.5632 145.733 46.2439 145.509 45.1363C145.007 44.8593 143.388 44.5271 141.769 44.6379C139.481 44.8593 137.862 46.4653 137.415 46.9084C137.192 47.1851 136.801 47.2407 136.466 47.1298C135.908 46.9084 135.908 46.41 135.852 45.5238C135.852 45.3577 135.852 45.1363 135.852 44.9702C134.345 45.0254 130.437 45.3577 129.042 45.6347C129.153 48.5141 130.549 62.4687 130.996 65.1267Z" fill="white"/>
<path d="M52.5095 49.843C52.9001 49.5107 60.5479 48.8462 60.7711 49.0123C60.9944 49.1785 60.827 51.3934 60.9944 51.2272C61.162 51.0059 63.0599 48.9015 65.9069 48.6801C67.9165 48.514 70.1494 49.0676 70.4285 49.5107C70.7076 49.8982 71.0424 57.4295 70.7077 57.817C70.3167 58.2601 66.5767 56.4328 64.5112 57.0417C62.4457 57.5956 60.9385 60.0875 60.8829 64.296C60.8829 68.56 61.0503 69.889 60.827 70.2212C60.6038 70.5535 54.6864 70.9963 54.4073 70.6088C54.2399 70.1104 52.1188 50.1199 52.5095 49.843Z" fill="#B1D783"/>
<path d="M55.8589 71.4947C54.6309 71.4947 54.0726 71.3839 53.7934 70.9408C53.5702 70.6085 53.1237 67.0093 52.4536 60.1982C51.3929 49.6766 51.5606 49.5105 52.0071 49.1782C52.2303 49.0121 52.5095 48.7907 56.6405 48.4032C60.827 48.0153 60.9944 48.1262 61.2735 48.3476C61.6086 48.5693 61.6645 48.9568 61.72 49.5105C62.6693 48.7907 64.1206 48.0153 65.851 47.8492C67.8047 47.6831 70.54 48.1815 71.0983 49.0121C71.21 49.1782 71.4333 49.5105 71.6007 53.6084C71.768 57.7615 71.5448 58.0385 71.3774 58.2599C70.875 58.8691 70.0935 58.6474 68.698 58.2599C67.4697 57.9277 65.7951 57.4845 64.8462 57.7615C63.004 58.2599 61.8318 60.7518 61.8318 64.2957C61.8318 66.0679 61.8318 67.286 61.8877 68.2275C61.9433 69.7779 61.9433 70.221 61.72 70.6085C61.4968 70.9964 61.2176 71.1625 59.2639 71.3839C58.0359 71.4392 56.8078 71.4947 55.8589 71.4947ZM55.1888 69.8888C56.2495 69.9996 59.1525 69.7779 60.2128 69.5565C60.2128 69.2243 60.2128 68.7811 60.2128 68.2275C60.2128 67.286 60.1572 66.0679 60.1572 64.2405C60.1572 59.9212 61.72 56.9309 64.3438 56.2111C65.7392 55.8233 67.5815 56.3217 69.0887 56.7095C69.3678 56.7648 69.7584 56.8756 70.0376 56.9309C70.0935 55.3249 69.9261 51.0056 69.7028 49.8983C69.2004 49.6213 67.5815 49.2891 65.9625 49.3999C63.6741 49.6213 62.0551 51.2273 61.6086 51.6701C61.3853 51.9471 60.9944 52.0024 60.6597 51.8918C60.1014 51.6701 60.1014 51.1717 60.0455 50.2858C60.0455 50.1197 60.0455 49.8983 60.0455 49.7322C58.5383 49.7875 54.6309 50.1197 53.2351 50.3967C53.3469 53.2761 54.7423 67.1755 55.1888 69.8888Z" fill="white"/>
</g>
<defs>
<filter id="filter0_i_136_755" x="5.83749" y="9.56836" width="141.629" height="72.6396" filterUnits="userSpaceOnUse" color-interpolation-filters="sRGB">
<feFlood flood-opacity="0" result="BackgroundImageFix"/>
<feBlend mode="normal" in="SourceGraphic" in2="BackgroundImageFix" result="shape"/>
<feColorMatrix in="SourceAlpha" type="matrix" values="0 0 0 0 0 0 0 0 0 0 0 0 0 0 0 0 0 0 127 0" result="hardAlpha"/>
<feOffset dy="8"/>
<feGaussianBlur stdDeviation="12"/>
<feComposite in2="hardAlpha" operator="arithmetic" k2="-1" k3="1"/>
<feColorMatrix type="matrix" values="0 0 0 0 0 0 0 0 0 0 0 0 0 0 0 0 0 0 0.15 0"/>
<feBlend mode="normal" in2="shape" result="effect1_innerShadow_136_755"/>
</filter>
</defs>
</svg>
