<svg width="30" height="30" viewBox="0 0 30 30" fill="none" xmlns="http://www.w3.org/2000/svg">
<path d="M23.7043 9.6315V1.15193C23.7043 1.00009 23.6361 0.856279 23.5185 0.760236C23.4009 0.664194 23.2464 0.626092 23.0976 0.656459C16.1767 2.22173 15.2278 7.23708 15.1246 8.01365C15.1145 8.07937 15.1095 8.11476 15.1095 8.11476C15.1095 8.11476 15.1044 8.07937 15.0943 8.01365C14.9932 7.23708 14.0422 2.22173 7.12232 0.656459C6.97355 0.626092 6.81901 0.664194 6.70141 0.760236C6.58381 0.856279 6.51559 1.00009 6.51563 1.15193V9.6315H23.7043Z" fill="#B19046"/>
<path d="M1.65112 4.83862L3.10871 3.01853C3.33814 2.73034 3.70615 2.58972 4.06931 2.65148C10.3537 3.77538 15.1096 7.13394 15.1096 8.11477C15.1096 7.13394 19.8656 3.77538 26.1489 2.65148C26.5121 2.58972 26.8801 2.73034 27.1096 3.01853L28.5671 4.83862V13.6761H1.65112V4.83862Z" fill="#E4C05C"/>
<path d="M29.0635 4.61918L17.4352 9.73563C17.2512 9.81593 17.1322 9.99749 17.1319 10.1982V10.1371C17.1319 9.85784 16.9055 9.63148 16.6263 9.63148H13.5928C13.3136 9.63148 13.0872 9.85784 13.0872 10.1371V10.1982C13.0869 9.99749 12.9679 9.81593 12.7839 9.73563L1.15556 4.61918C0.999468 4.55105 0.81956 4.56609 0.676947 4.6592C0.534333 4.75231 0.448182 4.91096 0.447754 5.08127V24.2002C0.448058 24.401 0.567109 24.5826 0.751101 24.6629L12.3794 29.7793C12.5356 29.8475 12.7156 29.8324 12.8582 29.7391C13.0009 29.6459 13.087 29.4871 13.0872 29.3167V29.3491C13.0872 29.6283 13.3136 29.8546 13.5928 29.8546H16.6263C16.9055 29.8546 17.1319 29.6283 17.1319 29.3491V29.3167C17.1321 29.4871 17.2182 29.6459 17.3608 29.7391C17.5035 29.8324 17.6835 29.8475 17.8397 29.7793L29.468 24.6629C29.652 24.5826 29.771 24.401 29.7713 24.2002V5.08127C29.7709 4.91096 29.6848 4.75231 29.5421 4.6592C29.3995 4.56609 29.2196 4.55105 29.0635 4.61918Z" fill="#C03A2B"/>
<path d="M16.6262 9.63147H13.5927C13.3135 9.63147 13.0872 9.85783 13.0872 10.137V29.349C13.0872 29.6283 13.3135 29.8546 13.5927 29.8546H16.6262C16.9054 29.8546 17.1318 29.6283 17.1318 29.349V10.137C17.1318 9.85783 16.9054 9.63147 16.6262 9.63147Z" fill="#E64C3C"/>
<path d="M16.6262 12.665H13.5927C13.3135 12.665 13.0872 12.8913 13.0872 13.1706V14.1817C13.0872 14.4609 13.3135 14.6873 13.5927 14.6873H16.6262C16.9054 14.6873 17.1318 14.4609 17.1318 14.1817V13.1706C17.1318 12.8913 16.9054 12.665 16.6262 12.665Z" fill="#F0C419"/>
<path d="M16.6262 24.7989H13.5927C13.3135 24.7989 13.0872 25.0252 13.0872 25.3045V26.3156C13.0872 26.5948 13.3135 26.8212 13.5927 26.8212H16.6262C16.9054 26.8212 17.1318 26.5948 17.1318 26.3156V25.3045C17.1318 25.0252 16.9054 24.7989 16.6262 24.7989Z" fill="#F0C419"/>
<path d="M27.4589 14.3182L19.8753 17.8871C19.7186 17.9608 19.5351 17.9493 19.389 17.8566C19.2428 17.7638 19.1542 17.6027 19.1543 17.4295V13.4916C19.1542 13.2957 19.2673 13.1175 19.4445 13.034L27.0282 9.46516C27.1848 9.39141 27.3683 9.40293 27.5145 9.4957C27.6606 9.58847 27.7492 9.74958 27.7491 9.92271V13.8607C27.7492 14.0565 27.6361 14.2348 27.4589 14.3182Z" fill="#FB7B76"/>
<path d="M2.76017 14.3182L10.3439 17.8871C10.5005 17.9608 10.684 17.9493 10.8301 17.8566C10.9763 17.7638 11.0649 17.6027 11.0648 17.4295V13.4916C11.0649 13.2957 10.9518 13.1175 10.7746 13.034L3.19093 9.46516C3.03429 9.39141 2.85081 9.40293 2.70464 9.4957C2.55847 9.58847 2.46992 9.74958 2.46997 9.92271V13.8607C2.46992 14.0565 2.58298 14.2348 2.76017 14.3182Z" fill="#FB7B76"/>
<path d="M16.6262 12.665H13.5927C13.3135 12.665 13.0872 12.8913 13.0872 13.1706V14.1817C13.0872 14.4609 13.3135 14.6873 13.5927 14.6873H16.6262C16.9054 14.6873 17.1318 14.4609 17.1318 14.1817V13.1706C17.1318 12.8913 16.9054 12.665 16.6262 12.665Z" fill="#F0C419"/>
<path d="M16.6262 24.7989H13.5927C13.3135 24.7989 13.0872 25.0252 13.0872 25.3045V26.3156C13.0872 26.5948 13.3135 26.8212 13.5927 26.8212H16.6262C16.9054 26.8212 17.1318 26.5948 17.1318 26.3156V25.3045C17.1318 25.0252 16.9054 24.7989 16.6262 24.7989Z" fill="#F0C419"/>
<path d="M11.0649 21.2601C10.9904 21.2602 10.9169 21.2438 10.8495 21.212L2.25469 17.1674C2.09122 17.0905 1.98122 16.9322 1.96613 16.7521C1.95103 16.5721 2.03313 16.3977 2.18151 16.2946C2.32988 16.1915 2.52198 16.1754 2.68544 16.2523L11.2803 20.297C11.4946 20.3977 11.6103 20.6337 11.5586 20.8648C11.5069 21.0959 11.3017 21.2602 11.0649 21.2601Z" fill="#F29C1F"/>
<path d="M10.0421 23.3064C9.96764 23.3066 9.89407 23.2902 9.82673 23.2584L3.27898 20.1759C3.1102 20.1023 2.99474 19.9429 2.97756 19.7596C2.96037 19.5763 3.04418 19.3981 3.19634 19.2945C3.3485 19.1909 3.54497 19.1781 3.70923 19.2613L10.259 22.3453C10.4703 22.4476 10.5834 22.6819 10.532 22.911C10.4806 23.14 10.2784 23.3036 10.0436 23.3059L10.0421 23.3064Z" fill="#F29C1F"/>
<path d="M19.1541 21.2598C18.9173 21.26 18.7121 21.0957 18.6604 20.8646C18.6087 20.6335 18.7244 20.3975 18.9387 20.2967L27.5336 16.2521C27.7863 16.1331 28.0876 16.2415 28.2065 16.4942C28.3255 16.7469 28.217 17.0482 27.9643 17.1672L19.3695 21.2118C19.3021 21.2435 19.2286 21.2599 19.1541 21.2598Z" fill="#F29C1F"/>
<path d="M20.1769 23.3065C19.9422 23.3042 19.7399 23.1406 19.6886 22.9115C19.6372 22.6824 19.7503 22.4482 19.9616 22.3458L26.5113 19.2618C26.6756 19.1787 26.8721 19.1914 27.0242 19.295C27.1764 19.3987 27.2602 19.5768 27.243 19.7601C27.2258 19.9434 27.1104 20.1029 26.9416 20.1764L20.3923 23.2604C20.3248 23.2914 20.2512 23.3071 20.1769 23.3065Z" fill="#F29C1F"/>
</svg>
