<svg width="40" height="52" viewBox="0 0 40 52" fill="none" xmlns="http://www.w3.org/2000/svg">
<path fill-rule="evenodd" clip-rule="evenodd" d="M37.5595 18.7281H35.7774V16.8922C35.7675 7.77096 28.5923 0.379258 19.7382 0.369141C10.884 0.379252 3.70881 7.77096 3.69899 16.8922V18.7281H1.91693C0.932655 18.7281 0.134766 19.5501 0.134766 20.5641V49.9383C0.134766 50.9523 0.932655 51.7743 1.91693 51.7743H37.5595C38.5438 51.7743 39.3417 50.9523 39.3417 49.9383V20.564C39.3417 19.5501 38.5438 18.7281 37.5595 18.7281H37.5595ZM7.2627 16.8934C7.2627 9.79584 12.8479 4.04213 19.7377 4.04213C26.6274 4.04213 32.2125 9.79584 32.2125 16.8934V18.7294H7.2627L7.2627 16.8934ZM35.7786 48.1026H3.7002V22.4001H35.7786V48.1026Z" fill="white"/>
<path fill-rule="evenodd" clip-rule="evenodd" d="M24.7757 31.5766C24.0227 29.3744 22.0011 27.9028 19.7346 27.9072C16.7888 27.9015 14.3962 30.357 14.3906 33.3917C14.3863 35.7265 15.8148 37.8091 17.9526 38.5849V42.5945C17.9526 43.6085 18.7504 44.4304 19.7347 44.4304C20.719 44.4304 21.5168 43.6084 21.5168 42.5944V38.5848C24.2953 37.5767 25.7544 34.4389 24.7757 31.5766H24.7757ZM19.7353 35.2491C18.751 35.2491 17.9531 34.4271 17.9531 33.4131C17.9531 32.3992 18.751 31.5772 19.7353 31.5772C20.7196 31.5772 21.5174 32.3992 21.5174 33.4131C21.5174 34.4271 20.7196 35.2491 19.7353 35.2491Z" fill="white"/>
</svg>
