<svg xmlns="http://www.w3.org/2000/svg" width="566.76" height="99.386" viewBox="0 0 566.76 99.386">
  <g id="Grupo_889" data-name="Grupo 889" transform="translate(-717 -52.464)">
    <g id="Grupo_888" data-name="Grupo 888" transform="translate(717 52.463)">
      <path id="Trazado_876" data-name="Trazado 876" d="M200.674,73.263c-.625.886-1.215,1.8-1.882,2.654-4.677,5.983-10.6,9.607-18.406,9.432a10.547,10.547,0,0,1-9.763-6.034,11.978,11.978,0,0,1-.881-7.222A27.3,27.3,0,0,1,176.584,57.5c1.373-1.558,2.791-3.09,4.307-4.507,3.065-2.865,6.84-4.022,10.948-4.354a45.956,45.956,0,0,1,11.129.765c.572.093.694-.056.82-.587a28.942,28.942,0,0,1,1.1-3.781c.426-1.1,1.058-1.351,2.118-.826a25.613,25.613,0,0,1,2.937,1.868.581.581,0,0,1,.107.55c-1.614,3.077-2.188,6.462-2.941,9.8a18.594,18.594,0,0,0-.458,4.9C206.989,69.353,205.711,77.2,204,85a67.358,67.358,0,0,1-4.055,12.8c-.763,1.734-1.784,3.354-2.708,5.015-.813,1.461-1.613,2.933-2.49,4.356a23.536,23.536,0,0,1-13.09,10.565,12.084,12.084,0,0,1-7.84.095,7.145,7.145,0,0,1-1.179-.521c-3.277-1.852-3.1-5.042-1.432-7.33a2.409,2.409,0,0,1,3.977-.251,11.2,11.2,0,0,1,1.321,1.757c1.169,1.8,2.357,2.316,4.467,1.786a14.815,14.815,0,0,0,6.958-4.033,34.4,34.4,0,0,0,7.6-12.426,112.047,112.047,0,0,0,4.271-15.982c.345-1.584.828-3.14,1.108-4.733a16.32,16.32,0,0,0,.029-2.776Zm-18.039,7.443c.336-.03.9-.044,1.445-.138a12.063,12.063,0,0,0,6.758-3.714c2.235-2.346,4.288-4.869,6.363-7.363a6.563,6.563,0,0,0,1.318-2.284c.806-2.846,1.6-5.707,2.156-8.608.46-2.419-.641-4.017-2.947-4.936a5.988,5.988,0,0,0-.862-.292A15.728,15.728,0,0,0,181.5,57.806,21.97,21.97,0,0,0,175.2,71.267a10.876,10.876,0,0,0,1.36,6.6C177.837,80.15,180.027,80.651,182.635,80.705Z" transform="translate(-63.449 -19.054)" fill="#78c383"/>
      <path id="Trazado_877" data-name="Trazado 877" d="M281.835,41.929c.666-.569,1.318-1.091,1.93-1.655a11.458,11.458,0,0,1,5.63-2.69c2.542-.517,5.226,1.759,5.437,4.347a22.762,22.762,0,0,1-2.1,10.642c-1.2,2.9-2.618,5.709-4.01,8.525a1.5,1.5,0,0,0,.05,1.755,15.241,15.241,0,0,0,2.474,2.76c2.429,1.825,4.954,3.528,7.5,5.192a7.478,7.478,0,0,0,3.856,1.006c.833.037,1-.343,1-1.011,0-1.7.032-3.4-.013-5.1-.11-4.111-.261-8.22-.389-12.33-.116-3.73-.2-7.46-.364-11.188a2.024,2.024,0,0,0-.658-1.28,2.728,2.728,0,0,1-.822-3.233c.616-1.713,1.272-3.417,2.014-5.078a1.894,1.894,0,0,1,2.306-1.175,1.974,1.974,0,0,1,1.491,1.889c.018.126.032.252.053.377.332,2.08.926,2.49,3,2.8a42.517,42.517,0,0,1,6.284,1.4c3.211,1,5.077,3.589,6.776,6.273,2.229,3.519,2.109,7.317,1.163,11.172A27.949,27.949,0,0,1,316.97,68.21c-2.383,2.447-5.017,4.657-7.631,6.865a8.558,8.558,0,0,1-4.824,2.1A11.944,11.944,0,0,1,300,76.414a38.788,38.788,0,0,1-9.232-5.086c-1.82-1.246-3.595-2.562-5.379-3.86-1.023-.745-1.331-.659-1.469.608-.112,1.03-.045,2.078-.094,3.116-.075,1.593-.18,3.184-.279,4.776a1.769,1.769,0,0,1-.105.442c-.257.779-.5,1.6-1.445,1.791a2.423,2.423,0,0,1-2.38-1.06A6.178,6.178,0,0,1,278.37,73.3c-.091-2.026-.078-4.057-.112-6.086q-.173-10.24-.348-20.48c-.021-1.269-.068-2.538-.039-3.806.022-1.011.152-2.056,1.343-2.384C280.382,40.222,281.125,40.926,281.835,41.929Zm27,28.629.292.076c.953-.742,1.952-1.432,2.85-2.236,3.479-3.119,5.672-7.086,7.437-11.344a12.376,12.376,0,0,0,.231-9.463c-1.268-3.374-3.291-5.959-6.945-6.821-1.442-.34-2.962-.345-4.441-.545-.532-.072-.677.048-.675.6.029,8.472.013,16.945.658,25.4C308.348,67.679,308.628,69.115,308.831,70.558ZM282.664,54.636c0,.71-.048,1.425.013,2.131a14.143,14.143,0,0,0,.378,2.468c.207.771.682.934,1.322.475a7.8,7.8,0,0,0,1.546-1.446,23.422,23.422,0,0,0,4.167-9.207,9.073,9.073,0,0,0,.145-4.445,2.615,2.615,0,0,0-4.551-1.243,8.781,8.781,0,0,0-1.66,2.774A19.79,19.79,0,0,0,282.664,54.636Z" transform="translate(-102.995 -14.455)" fill="#78c383"/>
      <path id="Trazado_878" data-name="Trazado 878" d="M658.6,76V89.091c0,2.437-.02,4.875.014,7.312.008.583-.164.73-.726.709-1.166-.043-2.337-.058-3.5,0-.688.037-.831-.182-.83-.842q.033-15.8.015-31.608c0-6.753.009-13.507-.015-20.26,0-.63.156-.827.793-.8,1.191.051,2.387.041,3.58,0,.529-.016.689.133.681.673-.031,2.076-.012,4.153-.012,6.4.245-.262.4-.4.524-.563,7.224-9.665,20.95-9.368,28.584-2.242a20.14,20.14,0,0,1,6.773,15.774c-.2,9.314-6.541,17.466-15.385,19.475-7.527,1.71-14.051-.278-19.394-5.922C659.378,76.862,659.063,76.506,658.6,76Zm30.817-12.711c-.073-.782-.1-1.571-.227-2.344a15.569,15.569,0,0,0-22.342-11.787c-6.06,2.921-9.229,9.208-8.474,16.312,1.047,9.869,10.318,14.777,18,13.435A15.869,15.869,0,0,0,689.419,63.289Z" transform="translate(-240.183 -18.592)" fill="#f89838"/>
      <path id="Trazado_879" data-name="Trazado 879" d="M12.417,13.025c-1.7,1.7-3.38,3.417-5.093,5.1a13.333,13.333,0,0,1-2.169,1.886,5.542,5.542,0,0,1-2.071.6c-.565.087-.756-.328-.638-.842a3.332,3.332,0,0,1,.316-.853C6.509,12.11,11.79,7.181,19.531,5.3a25,25,0,0,1,9.158-.274,53.714,53.714,0,0,1,6,1.269,7.475,7.475,0,0,1,1.987.933,6.238,6.238,0,0,1,3.143,6.214,19.487,19.487,0,0,1-3.181,9.012A60.078,60.078,0,0,1,25.915,34.747c-1.062.982-2.138,1.953-3.261,2.863a3.366,3.366,0,0,0-1.341,3.325c.886,6.12,1.748,12.243,2.647,18.361.2,1.378.559,2.732.759,4.11a1.846,1.846,0,0,1-.3,1.268,20.923,20.923,0,0,1-2.318,2.6c-1.139,1.049-2.244.755-2.623-.74-.679-2.673-1.316-5.363-1.8-8.075-.8-4.465-1.476-8.953-2.186-13.433-.088-.554-.35-.806-.9-.8-1.065.021-2.132.063-3.2.046a9.738,9.738,0,0,1-2.032-.194A1.33,1.33,0,0,1,8.272,42.5,4.028,4.028,0,0,1,10.2,39.221a9.432,9.432,0,0,1,1.908-.917,3.416,3.416,0,0,0,2.337-3.158,63.1,63.1,0,0,0-.534-10.928c-.441-3.42-.767-6.854-1.145-10.283-.03-.27-.072-.538-.109-.807ZM26.143,8.69l-.011.08c-.381,0-.762.017-1.142,0a9.956,9.956,0,0,0-4.612.749,2.32,2.32,0,0,0-1.619,2.552c.138,3.246.186,6.5.432,9.735.225,2.953.57,5.9,1.04,8.828.326,2.035.8,2.167,2.653,1.173a14.05,14.05,0,0,0,4.031-3.554,59.547,59.547,0,0,0,6.9-10.908,1.775,1.775,0,0,0,.189-.72c.037-.888.079-1.778.05-2.664-.091-2.663-1.307-4.2-3.923-4.778C28.829,8.893,27.474,8.846,26.143,8.69Z" transform="translate(-2.412 -4.736)" fill="#78c383"/>
      <path id="Trazado_880" data-name="Trazado 880" d="M597.964,63.594c-5.611,0-11.221.009-16.832-.014-.6,0-.759.14-.743.751.187,6.988,5.091,13.311,11.55,14.441,6.794,1.189,12.481-.814,16.6-6.571.443-.618.864-1.254,1.255-1.906.206-.343.368-.458.764-.237,1.084.606,2.189,1.176,3.3,1.733.373.187.466.349.25.75-3.447,6.414-8.631,10.3-15.994,11.027a21.969,21.969,0,0,1-11.19-1.493c-5.788-2.544-9.237-7.169-10.968-13.083a21.049,21.049,0,0,1,8.068-22.967A19.737,19.737,0,0,1,597.2,42.781a18.865,18.865,0,0,1,11.132,4.39A19.819,19.819,0,0,1,615.459,60.6c.077.706.082,1.42.171,2.123.085.671-.1.894-.835.889C609.185,63.578,603.575,63.594,597.964,63.594Zm12.057-4.439c-1.673-8.8-9.232-12.221-15.713-11.833a13.909,13.909,0,0,0-9.467,4.316,17.123,17.123,0,0,0-3.943,7.517Z" transform="translate(-211.545 -18.601)" fill="#f89838"/>
      <path id="Trazado_881" data-name="Trazado 881" d="M475.925,43.83c0-9.268.013-18.536-.022-27.8,0-.8.234-.938.967-.931,4.494.041,8.99-.022,13.483.06a35.659,35.659,0,0,1,8.841.867c6.115,1.672,10.448,6.857,9.872,14.45a12.589,12.589,0,0,1-4.454,9.179,14.413,14.413,0,0,1-8.588,3.319c-4.659.264-9.329.349-13.995.469-.621.016-.8.143-.8.787.023,9.217.01,18.435.03,27.652,0,.639-.106.884-.813.846-1.291-.068-2.59-.039-3.884-.009-.479.011-.65-.1-.649-.622q.023-11.5.007-23,0-2.628,0-5.256Zm5.322-14.62q0,4.224,0,8.45c0,.345-.039.628.483.62,4.41-.068,8.829.042,13.228-.2,4.968-.276,8.011-3.272,8.611-8.037a8.419,8.419,0,0,0-6.218-9.092,29.623,29.623,0,0,0-5.577-.62c-3.27-.1-6.546-.017-9.818-.046-.559-.005-.728.123-.721.706C481.265,23.729,481.247,26.469,481.247,29.21Z" transform="translate(-175.311 -8.518)" fill="#f89838"/>
      <path id="Trazado_882" data-name="Trazado 882" d="M126.057,113.486a15.238,15.238,0,0,1,1.429-5.433c3.365-7.622,5.508-15.672,8.259-23.508a1.5,1.5,0,0,0-.193-1.032c-2.423-4.594-4.994-9.116-7.263-13.785-1.435-2.952-2.42-6.122-3.623-9.187-.258-.66-.571-1.3-.881-1.936a1.264,1.264,0,0,1,.278-1.658,13.44,13.44,0,0,1,2.089-1.5,1.968,1.968,0,0,1,2.8.665,9.474,9.474,0,0,1,1.191,2.36c.957,2.884,1.817,5.8,2.753,8.692a29.426,29.426,0,0,0,4.083,7.783c.849,1.211,1.5,1.212,2.33-.027a17.118,17.118,0,0,0,1.66-3.066q3.624-8.986,7.153-18.009a22.091,22.091,0,0,1,4.59-7.812,9.333,9.333,0,0,1,1.06-.978,1.84,1.84,0,0,1,2.318.124,1.188,1.188,0,0,1,.222,1.578c-2.1,4.833-4.262,9.643-6.274,14.514-2.651,6.415-5.2,12.874-7.76,19.325-.5,1.248-.426,1.258.64,2.122a8.531,8.531,0,0,1,1.314,1.258,1.038,1.038,0,0,1-.344,1.7c-1.3.834-2.9,1.444-3.805,2.595-.884,1.121-1.053,2.8-1.545,4.235-2.285,6.661-4.558,13.327-6.877,19.977a15.648,15.648,0,0,1-1.3,2.572,2.06,2.06,0,0,1-2.323,1.2,2.33,2.33,0,0,1-1.9-2.109C126.1,113.9,126.076,113.643,126.057,113.486Z" transform="translate(-46.664 -19.329)" fill="#78c383"/>
      <path id="Trazado_883" data-name="Trazado 883" d="M99.893,68.39c-.14.258-.284.514-.418.775a67.509,67.509,0,0,1-6.021,10.117,13.246,13.246,0,0,1-5.864,4.577A6.5,6.5,0,0,1,78.6,78.711a17.644,17.644,0,0,1,1.622-10.67A55.459,55.459,0,0,1,90.757,52.858a16.781,16.781,0,0,1,5.512-3.863,5.671,5.671,0,0,1,7.1,1.72,3.89,3.89,0,0,1,.954,2.654c-.1,4.388-.28,8.777-.235,13.164a54.434,54.434,0,0,0,2.308,15.519,3.137,3.137,0,0,1-.91,3.277,1.956,1.956,0,0,1-3.382-.66,20.434,20.434,0,0,1-1.079-4.563c-.359-3.326-.533-6.672-.791-10.009-.043-.555-.131-1.107-.2-1.66Zm-1.2-11.44c0-1.273.013-2.263,0-3.253-.009-.546-.262-.835-.822-.543a15.5,15.5,0,0,0-3.233,1.785c-5.246,4.671-9.3,10.138-11.03,17.1a15.581,15.581,0,0,0-.462,5.874,1.322,1.322,0,0,0,1.281,1.275,6.85,6.85,0,0,0,5.088-1.338,15.529,15.529,0,0,0,3.557-4.229,47.78,47.78,0,0,0,4.289-9.712C98.149,61.561,99.121,59.242,98.694,56.95Z" transform="translate(-30.148 -20.688)" fill="#78c383"/>
      <path id="Trazado_884" data-name="Trazado 884" d="M396.833,68.353c-.115-2.859-.19-6.439-.428-10.009-.153-2.3-.549-4.576-.828-6.864A8.2,8.2,0,0,1,396.053,47c.276-.611.6-1.21,1.376-1.268.8-.06,1.243.479,1.614,1.078a7.209,7.209,0,0,1,.863,3.658c.059,1.647.075,3.3.18,4.939a5.093,5.093,0,0,0,.466,1.319,5.31,5.31,0,0,0,1.028-.921c.961-1.461,1.877-2.952,2.781-4.449a13.141,13.141,0,0,1,4.83-5.06,10.972,10.972,0,0,1,2.684-1,4.176,4.176,0,0,1,4.508,1.829,18.315,18.315,0,0,1,2.874,6.739,68.981,68.981,0,0,1,1.96,12.61,91.808,91.808,0,0,1,.145,9.271,26.5,26.5,0,0,1-.9,4.765,2.686,2.686,0,0,1-1.434,1.789,1.376,1.376,0,0,1-2.18-.813,5.291,5.291,0,0,1-.3-1.861c.109-2.381.2-4.769.477-7.133a37.685,37.685,0,0,0-.058-8.656,40.54,40.54,0,0,0-1.678-8.72,16.339,16.339,0,0,0-1.386-3.03,5.661,5.661,0,0,0-1.549-1.637,2.3,2.3,0,0,0-3.193.187,12.055,12.055,0,0,0-1.956,2.216c-2.589,3.934-4.87,8.01-5.693,12.748a47.353,47.353,0,0,0-.3,9.869,10.312,10.312,0,0,1-.239,4.144,8.521,8.521,0,0,1-.33.849c-.35.693-.753,1.422-1.644,1.379a1.84,1.84,0,0,1-1.623-1.422,10.506,10.506,0,0,1-.518-2.816C396.791,74.76,396.833,71.916,396.833,68.353Z" transform="translate(-145.941 -19.499)" fill="#78c383"/>
      <path id="Trazado_885" data-name="Trazado 885" d="M252.247,65.618c-.667,1.442-1.3,2.9-2.011,4.323-.98,1.945-1.94,3.907-3.064,5.768a15.993,15.993,0,0,1-5.348,5.324,6.764,6.764,0,0,1-4.311,1.228,6.011,6.011,0,0,1-5.072-5.238,18.238,18.238,0,0,1,1.136-9.491,46.656,46.656,0,0,1,9.952-16.14,17.773,17.773,0,0,1,5.153-3.857,4.73,4.73,0,0,1,6.215,1.28,3.912,3.912,0,0,1,1.042,2.767c-.091,4.389-.2,8.78-.182,13.169a54.176,54.176,0,0,0,2.217,15.686c.352,1.151-1.291,3.323-2.32,3.417a1.33,1.33,0,0,1-1.428-1.029,16.738,16.738,0,0,1-.884-3.443c-.3-2.9-.461-5.809-.641-8.718-.1-1.666-.135-3.337-.2-5.006Zm-1.035-10.5c0-1.187.022-2.075-.006-2.963-.041-1.292-.284-1.486-1.468-.921a10.408,10.408,0,0,0-2.752,1.72,35.12,35.12,0,0,0-9.819,15.477,20.533,20.533,0,0,0-.936,7.353c.076,1.049.46,1.731,1.19,1.812,1.613.18,3.275.212,4.563-.931a19.921,19.921,0,0,0,3.117-3.391,33,33,0,0,0,4.106-8.869C250.223,61.288,251.633,58.241,251.212,55.118Z" transform="translate(-86.333 -20.131)" fill="#78c383"/>
      <path id="Trazado_886" data-name="Trazado 886" d="M355.359,65.045a29.406,29.406,0,0,1,4.032-14.6,8.576,8.576,0,0,1,7.947-4.337,8.231,8.231,0,0,1,6.439,3.553,24.231,24.231,0,0,1,1.934,3.085c.674,1.217,1.26,2.483,1.884,3.729.046.09.094.18.139.271,1.052,2.163.517,3.182-1.85,3.629a120.252,120.252,0,0,1-14.445,2.071,1.608,1.608,0,0,0-1.749,1.787,24.09,24.09,0,0,0,2.348,11.507c1.55,3.059,3.367,3.983,6.791,3.671a4.733,4.733,0,0,0,3.666-2.131c.929-1.329,1.872-2.654,2.89-3.916a6.045,6.045,0,0,1,1.713-1.454c.768-.428,1.4.02,1.3.9a5.2,5.2,0,0,1-.548,1.951,18.942,18.942,0,0,1-5.413,6.3,9.535,9.535,0,0,1-12.97-2.131,21.415,21.415,0,0,1-3.423-8.539C355.71,68.629,355.582,66.828,355.359,65.045Zm7.662-6.1c1.282-.09,2.3-.106,3.3-.246,1.4-.2,2.795-.453,4.174-.761.338-.075.85-.429.872-.689a9.086,9.086,0,0,0-1.24-5.97c-1.125-1.716-5.092-2.408-6.6-.071a23.322,23.322,0,0,0-2.809,7c-.106.412.065.534.452.559C361.879,58.815,362.581,58.9,363.021,58.944Z" transform="translate(-131.293 -19.841)" fill="#78c383"/>
      <path id="Trazado_887" data-name="Trazado 887" d="M62.4,62.92c.213-2.171.437-4.34.637-6.512.395-4.269.9-8.533,1.138-12.812.5-9,.87-18,1.24-27,.084-2.05-.069-4.109-.082-6.164a13.435,13.435,0,0,1,.138-2.272,2.211,2.211,0,0,1,1.625-1.925,2.189,2.189,0,0,1,2.307.835,6.408,6.408,0,0,1,1.64,4.685q-.368,6.118-.71,12.238c-.345,6.056-.7,12.112-1.026,18.169q-.535,10.075-1.011,20.153a31.851,31.851,0,0,1-.109,3.559c-.315,1.927-1.88,2.594-3.594,1.636-1.609-.9-1.986-2.467-2.155-4.13a4.374,4.374,0,0,1,0-.456Z" transform="translate(-24.316 -5.256)" fill="#78c383"/>
      <path id="Trazado_888" data-name="Trazado 888" d="M545.7,49.085c1.176-1.25,2.244-2.548,3.477-3.662a9.2,9.2,0,0,1,6.994-2.641,17.783,17.783,0,0,1,3.833,1.094.6.6,0,0,1,.145.55q-1.043,1.768-2.169,3.488a.677.677,0,0,1-.589.217,7.08,7.08,0,0,0-8.38,2.879,15.963,15.963,0,0,0-2.885,8.14c-.638,6.684-.367,13.388-.425,20.084-.009.939-.033,1.88.01,2.817.026.572-.106.8-.737.773-1.241-.053-2.488-.044-3.73,0-.561.02-.737-.125-.729-.71.032-2.664.014-5.329.014-7.995q0-14.81-.018-29.619c0-.71.194-.9.882-.867,1.215.056,2.437.044,3.653,0,.552-.019.674.172.664.689C545.684,45.916,545.7,47.509,545.7,49.085Z" transform="translate(-198.904 -18.618)" fill="#f89838"/>
    </g>
    <text id="Online" transform="translate(1176.76 115.349)" fill="#fec572" font-size="34" font-family="CenturyGothic, Century Gothic"><tspan x="0" y="0">Online</tspan></text>
  </g>
</svg>
