<svg xmlns="http://www.w3.org/2000/svg" width="376.219" height="65.688" viewBox="0 0 376.219 65.688">
  <g id="Group_903" data-name="Group 903" transform="translate(-1311.176 -1155.963)">
    <g id="Group_888" data-name="Group 888" transform="translate(1311.176 1155.963)">
      <path id="Path_876" data-name="Path 876" d="M1419.318,1195.891c-.413.586-.8,1.19-1.244,1.754-3.091,3.954-7,6.349-12.164,6.234a6.97,6.97,0,0,1-6.452-3.987,7.91,7.91,0,0,1-.582-4.773,18.037,18.037,0,0,1,4.521-9.643c.907-1.03,1.842-2.042,2.846-2.979a11.5,11.5,0,0,1,7.235-2.878,30.429,30.429,0,0,1,7.355.505c.378.062.459-.037.542-.388a19.1,19.1,0,0,1,.729-2.5c.282-.729.7-.893,1.4-.546a17.081,17.081,0,0,1,1.942,1.234.385.385,0,0,1,.07.364,25.745,25.745,0,0,0-1.944,6.474,12.286,12.286,0,0,0-.3,3.24,61.182,61.182,0,0,1-1.753,15.645,44.542,44.542,0,0,1-2.68,8.458c-.5,1.146-1.179,2.217-1.789,3.314-.537.966-1.066,1.938-1.645,2.882a15.555,15.555,0,0,1-8.651,6.982,7.983,7.983,0,0,1-5.181.063,4.655,4.655,0,0,1-.78-.344c-2.166-1.224-2.05-3.332-.946-4.844a1.593,1.593,0,0,1,2.181-.56,1.617,1.617,0,0,1,.447.393,7.466,7.466,0,0,1,.877,1.161,2.344,2.344,0,0,0,2.953,1.181,9.8,9.8,0,0,0,4.6-2.665,22.738,22.738,0,0,0,5.019-8.216,74.039,74.039,0,0,0,2.823-10.562c.228-1.046.548-2.075.732-3.128a10.811,10.811,0,0,0,.019-1.835Zm-11.921,4.919c.222-.02.593-.03.955-.091a7.971,7.971,0,0,0,4.466-2.455c1.477-1.551,2.834-3.218,4.2-4.866a4.344,4.344,0,0,0,.871-1.509c.532-1.881,1.06-3.771,1.425-5.689a2.7,2.7,0,0,0-1.947-3.262,3.968,3.968,0,0,0-.57-.193,10.394,10.394,0,0,0-10.153,2.932,14.518,14.518,0,0,0-4.163,8.9,7.182,7.182,0,0,0,.9,4.364C1404.225,1200.442,1405.672,1200.773,1407.4,1200.809Z" transform="translate(-1328.634 -1160.062)" fill="#78c383"/>
      <path id="Path_877" data-name="Path 877" d="M1458.138,1176.905c.44-.376.871-.721,1.275-1.094a7.568,7.568,0,0,1,3.72-1.778,3.232,3.232,0,0,1,3.588,2.831l0,.042a15.049,15.049,0,0,1-1.388,7.033c-.794,1.916-1.73,3.773-2.65,5.634a.993.993,0,0,0,.033,1.16,10.031,10.031,0,0,0,1.635,1.824c1.6,1.207,3.274,2.331,4.954,3.431a4.928,4.928,0,0,0,2.548.665c.551.025.659-.227.658-.668,0-1.121.021-2.249-.009-3.372-.073-2.717-.172-5.432-.257-8.149-.08-2.465-.135-4.93-.24-7.394a1.343,1.343,0,0,0-.435-.846,1.8,1.8,0,0,1-.544-2.137c.407-1.132.841-2.258,1.331-3.356a1.252,1.252,0,0,1,1.521-.777,1.306,1.306,0,0,1,.986,1.248c.012.08.021.166.035.249.219,1.375.612,1.646,1.982,1.851a28.152,28.152,0,0,1,4.153.926c2.123.659,3.355,2.372,4.478,4.146,1.473,2.322,1.394,4.835.769,7.383a18.477,18.477,0,0,1-4.933,8.515c-1.575,1.617-3.315,3.078-5.044,4.537a5.651,5.651,0,0,1-3.188,1.386,7.878,7.878,0,0,1-2.983-.5,25.581,25.581,0,0,1-6.1-3.363c-1.2-.824-2.375-1.692-3.555-2.552-.677-.492-.881-.436-.971.4-.075.68-.03,1.373-.062,2.059-.05,1.053-.119,2.1-.184,3.156a1.185,1.185,0,0,1-.07.292c-.17.515-.332,1.058-.955,1.183a1.6,1.6,0,0,1-1.573-.7,4.081,4.081,0,0,1-.825-2.539c-.06-1.339-.051-2.681-.074-4.022q-.115-6.766-.23-13.53c-.013-.839-.045-1.681-.025-2.515.014-.669.1-1.361.888-1.576S1457.669,1176.242,1458.138,1176.905Zm17.841,18.919.193.05c.629-.491,1.291-.946,1.883-1.478a19.952,19.952,0,0,0,4.915-7.5,8.178,8.178,0,0,0,.153-6.254c-.838-2.23-2.175-3.938-4.59-4.507-.953-.224-1.958-.228-2.934-.36-.352-.047-.448.031-.446.4.019,5.6.009,11.2.435,16.786.073.958.258,1.907.392,2.861Zm-17.293-10.522c0,.469-.031.942.008,1.408a9.336,9.336,0,0,0,.25,1.631c.137.509.451.617.874.314a5.141,5.141,0,0,0,1.021-.955,15.482,15.482,0,0,0,2.754-6.085,5.994,5.994,0,0,0,.1-2.937,1.728,1.728,0,0,0-3.008-.822,5.8,5.8,0,0,0-1.1,1.833,13.062,13.062,0,0,0-.9,5.612Z" transform="translate(-1339.953 -1158.744)" fill="#78c383"/>
      <path id="Path_878" data-name="Path 878" d="M1655.72,1197.871v8.651c0,1.611-.014,3.222.01,4.832.006.385-.108.48-.48.468-.77-.028-1.545-.038-2.314,0-.455.024-.549-.12-.548-.56q.022-10.443.01-20.888c0-4.464.006-8.926-.01-13.389,0-.416.1-.546.524-.528.787.034,1.577.027,2.366,0,.35-.011.456.088.451.444-.021,1.372-.008,2.745-.008,4.231.16-.173.265-.264.346-.372,4.774-6.387,13.845-6.191,18.89-1.481a13.637,13.637,0,0,1-5.691,23.3,12.758,12.758,0,0,1-12.816-3.913C1656.232,1198.445,1656.023,1198.2,1655.72,1197.871Zm20.366-8.4c-.048-.517-.065-1.041-.15-1.549a10.289,10.289,0,0,0-14.764-7.79c-4,1.93-6.1,6.085-5.6,10.78a10.171,10.171,0,0,0,11.9,8.879A10.489,10.489,0,0,0,1676.086,1189.471Z" transform="translate(-1379.208 -1159.927)" fill="#f89838"/>
      <path id="Path_879" data-name="Path 879" d="M1317.784,1161.447c-1.121,1.125-2.234,2.258-3.363,3.372a8.817,8.817,0,0,1-1.434,1.247,3.662,3.662,0,0,1-1.368.4c-.373.058-.5-.216-.422-.557a2.207,2.207,0,0,1,.209-.56c2.474-4.5,5.964-7.76,11.08-9a16.52,16.52,0,0,1,6.05-.18,35.674,35.674,0,0,1,3.969.839,4.964,4.964,0,0,1,1.313.617,4.122,4.122,0,0,1,2.077,4.106,12.885,12.885,0,0,1-2.1,5.955,39.707,39.707,0,0,1-7.09,8.124c-.7.649-1.413,1.291-2.155,1.892a2.223,2.223,0,0,0-.886,2.2c.586,4.045,1.155,8.091,1.749,12.134.134.91.37,1.805.5,2.717a1.225,1.225,0,0,1-.2.837,13.843,13.843,0,0,1-1.532,1.721c-.753.693-1.483.5-1.733-.488-.448-1.766-.87-3.544-1.191-5.337-.529-2.949-.974-5.917-1.446-8.874-.058-.366-.231-.533-.593-.526-.7.014-1.409.042-2.112.031a6.408,6.408,0,0,1-1.343-.128.88.88,0,0,1-.727-1.011l.006-.035a2.661,2.661,0,0,1,1.276-2.173,6.282,6.282,0,0,1,1.261-.606,2.258,2.258,0,0,0,1.545-2.087,41.728,41.728,0,0,0-.353-7.221c-.291-2.26-.507-4.53-.757-6.8-.02-.179-.048-.355-.072-.533Zm9.071-2.865-.007.053c-.251,0-.5.011-.755,0a6.58,6.58,0,0,0-3.048.495,1.533,1.533,0,0,0-1.074,1.685c.091,2.145.123,4.294.286,6.434.149,1.952.377,3.9.687,5.834.215,1.344.532,1.432,1.753.775a9.292,9.292,0,0,0,2.664-2.348,39.369,39.369,0,0,0,4.564-7.205,1.185,1.185,0,0,0,.125-.475c.024-.587.053-1.175.033-1.761a2.977,2.977,0,0,0-2.592-3.164C1328.631,1158.716,1327.736,1158.684,1326.855,1158.582Z" transform="translate(-1311.176 -1155.963)" fill="#78c383"/>
      <path id="Path_880" data-name="Path 880" d="M1626.381,1189.663c-3.708,0-7.415.006-11.124-.01-.394,0-.5.093-.491.5.123,4.618,3.363,8.8,7.633,9.543,4.49.786,8.246-.538,10.969-4.343.292-.408.571-.829.829-1.259.136-.227.24-.3.505-.16.721.4,1.447.778,2.181,1.145.247.123.308.23.165.5a12.893,12.893,0,0,1-10.568,7.286,14.513,14.513,0,0,1-7.4-.986,12.828,12.828,0,0,1-7.248-8.647,13.91,13.91,0,0,1,5.331-15.178,13.047,13.047,0,0,1,8.708-2.143,12.471,12.471,0,0,1,7.357,2.9,13.1,13.1,0,0,1,4.711,8.875c.051.467.054.938.113,1.4.056.443-.069.591-.552.588C1633.8,1189.652,1630.089,1189.663,1626.381,1189.663Zm7.968-2.934c-1.106-5.813-6.1-8.076-10.384-7.819a9.194,9.194,0,0,0-6.256,2.852,11.318,11.318,0,0,0-2.606,4.964Z" transform="translate(-1371.016 -1159.923)" fill="#f89838"/>
      <path id="Path_881" data-name="Path 881" d="M1559.307,1180.389c0-6.125.008-12.25-.015-18.375,0-.532.155-.62.641-.615,2.97.027,5.941-.015,8.91.039a23.553,23.553,0,0,1,5.844.573,8.7,8.7,0,0,1,6.524,9.549,8.323,8.323,0,0,1-2.944,6.066,9.526,9.526,0,0,1-5.676,2.194c-3.079.175-6.165.231-9.249.31-.41.01-.528.094-.528.52.015,6.091.006,12.183.02,18.274,0,.422-.07.584-.537.561-.854-.045-1.712-.026-2.567-.006-.32.007-.43-.067-.429-.411q.014-7.6,0-15.2v-3.474Zm3.517-9.662v5.584c0,.228-.026.415.32.409,2.914-.045,5.835.028,8.742-.133a5.656,5.656,0,0,0,5.691-5.311,5.564,5.564,0,0,0-4.11-6.009,19.587,19.587,0,0,0-3.683-.41c-2.162-.065-4.323-.011-6.485-.031-.369,0-.48.08-.48.467C1562.836,1167.1,1562.824,1168.916,1562.824,1170.727Z" transform="translate(-1360.646 -1157.047)" fill="#f89838"/>
      <path id="Path_882" data-name="Path 882" d="M1376.3,1222.371a10.072,10.072,0,0,1,.945-3.591c2.224-5.037,3.64-10.357,5.458-15.532a.99.99,0,0,0-.127-.681c-1.6-3.036-3.3-6.025-4.8-9.11-.948-1.951-1.6-4.046-2.395-6.072-.171-.436-.377-.858-.582-1.281a.835.835,0,0,1,.183-1.1,8.953,8.953,0,0,1,1.38-.99,1.3,1.3,0,0,1,1.8.359c.018.026.034.053.05.08a6.271,6.271,0,0,1,.789,1.558c.633,1.906,1.2,3.833,1.819,5.744a19.429,19.429,0,0,0,2.7,5.144c.561.8.992.8,1.54-.018a11.373,11.373,0,0,0,1.1-2.026q2.395-5.937,4.724-11.9a14.61,14.61,0,0,1,3.034-5.163,6.158,6.158,0,0,1,.7-.646,1.216,1.216,0,0,1,1.532.08.785.785,0,0,1,.147,1.041c-1.391,3.194-2.817,6.373-4.146,9.591-1.752,4.243-3.435,8.508-5.128,12.771-.327.825-.282.832.423,1.4a5.726,5.726,0,0,1,.869.831.687.687,0,0,1,.006.97.679.679,0,0,1-.233.155,9.7,9.7,0,0,0-2.515,1.715,9.469,9.469,0,0,0-1.021,2.8c-1.51,4.4-3.012,8.807-4.544,13.2a10.377,10.377,0,0,1-.861,1.7,1.36,1.36,0,0,1-1.535.791,1.538,1.538,0,0,1-1.253-1.394C1376.327,1222.641,1376.312,1222.474,1376.3,1222.371Z" transform="translate(-1323.835 -1160.141)" fill="#78c383"/>
      <path id="Path_883" data-name="Path 883" d="M1365.2,1192.052c-.092.171-.187.339-.276.512a44.7,44.7,0,0,1-3.979,6.686,8.754,8.754,0,0,1-3.875,3.025,4.3,4.3,0,0,1-5.939-3.4,11.663,11.663,0,0,1,1.071-7.048,36.647,36.647,0,0,1,6.96-10.033,11.087,11.087,0,0,1,3.643-2.553,3.749,3.749,0,0,1,4.689,1.137,2.574,2.574,0,0,1,.631,1.753c-.063,2.9-.185,5.8-.156,8.7a35.949,35.949,0,0,0,1.521,10.256,2.075,2.075,0,0,1-.6,2.162,1.293,1.293,0,0,1-2.235-.436,13.508,13.508,0,0,1-.713-3.016c-.24-2.2-.352-4.409-.523-6.615-.028-.367-.086-.731-.131-1.1Zm-.792-7.56c0-.841.008-1.5,0-2.15-.007-.361-.173-.553-.544-.359a10.254,10.254,0,0,0-2.14,1.182,22.214,22.214,0,0,0-7.286,11.3,10.3,10.3,0,0,0-.306,3.882.873.873,0,0,0,.846.843,4.528,4.528,0,0,0,3.363-.881,10.258,10.258,0,0,0,2.351-2.794,31.58,31.58,0,0,0,2.834-6.419c.524-1.556,1.165-3.089.882-4.6Z" transform="translate(-1319.113 -1160.526)" fill="#78c383"/>
      <path id="Path_884" data-name="Path 884" d="M1518.045,1192.482c-.076-1.89-.126-4.255-.283-6.615-.1-1.521-.363-3.024-.547-4.536a5.413,5.413,0,0,1,.315-2.962c.183-.4.4-.8.909-.838.531-.04.822.32,1.067.713a4.772,4.772,0,0,1,.571,2.417c.039,1.088.05,2.178.118,3.264a3.339,3.339,0,0,0,.308.872,3.513,3.513,0,0,0,.68-.608c.636-.966,1.24-1.951,1.841-2.94a8.682,8.682,0,0,1,3.187-3.342,7.257,7.257,0,0,1,1.774-.661,2.761,2.761,0,0,1,2.979,1.209,12.106,12.106,0,0,1,1.9,4.453,45.607,45.607,0,0,1,1.295,8.334,60.833,60.833,0,0,1,.1,6.126,17.59,17.59,0,0,1-.593,3.149,1.775,1.775,0,0,1-.947,1.183.909.909,0,0,1-1.275-.173.888.888,0,0,1-.167-.364,3.479,3.479,0,0,1-.2-1.23c.072-1.573.131-3.151.316-4.714a24.938,24.938,0,0,0-.039-5.72,26.811,26.811,0,0,0-1.109-5.765,10.823,10.823,0,0,0-.916-2,3.762,3.762,0,0,0-1.024-1.082,1.522,1.522,0,0,0-2.11.123,7.984,7.984,0,0,0-1.292,1.464,22.378,22.378,0,0,0-3.763,8.424,31.256,31.256,0,0,0-.2,6.522,6.818,6.818,0,0,1-.16,2.739,5.838,5.838,0,0,1-.219.56c-.231.458-.5.94-1.086.911a1.216,1.216,0,0,1-1.073-.94,6.937,6.937,0,0,1-.343-1.861C1518.014,1196.717,1518.045,1194.837,1518.045,1192.482Z" transform="translate(-1352.241 -1160.191)" fill="#78c383"/>
      <path id="Path_885" data-name="Path 885" d="M1444.832,1190.433c-.441.954-.857,1.922-1.329,2.857-.648,1.285-1.281,2.582-2.025,3.812a10.567,10.567,0,0,1-3.534,3.518,4.465,4.465,0,0,1-2.849.812,3.971,3.971,0,0,1-3.352-3.462,12.043,12.043,0,0,1,.751-6.272,30.824,30.824,0,0,1,6.577-10.666,11.749,11.749,0,0,1,3.405-2.549,3.122,3.122,0,0,1,4.107.846,2.589,2.589,0,0,1,.689,1.829c-.06,2.9-.134,5.8-.12,8.7a35.8,35.8,0,0,0,1.465,10.366,2.38,2.38,0,0,1-1.533,2.258.88.88,0,0,1-.944-.68,11.035,11.035,0,0,1-.584-2.275c-.2-1.915-.3-3.843-.423-5.764-.068-1.1-.09-2.206-.132-3.308Zm-.684-6.939c0-.784.014-1.371,0-1.958-.027-.854-.187-.983-.97-.609a6.878,6.878,0,0,0-1.819,1.137,23.213,23.213,0,0,0-6.485,10.228,13.563,13.563,0,0,0-.618,4.859c.051.693.3,1.144.787,1.2a3.675,3.675,0,0,0,3.015-.615,13.161,13.161,0,0,0,2.06-2.242,21.788,21.788,0,0,0,2.713-5.861c.663-2.061,1.595-4.075,1.318-6.139Z" transform="translate(-1335.189 -1160.367)" fill="#78c383"/>
      <path id="Path_886" data-name="Path 886" d="M1496.124,1190.165a19.432,19.432,0,0,1,2.664-9.649,5.668,5.668,0,0,1,5.252-2.866A5.445,5.445,0,0,1,1508.3,1180a16.17,16.17,0,0,1,1.281,2.038c.446.8.833,1.641,1.245,2.464.03.059.062.118.091.179.7,1.429.341,2.1-1.222,2.4a79.424,79.424,0,0,1-9.546,1.368,1.063,1.063,0,0,0-1.158.957,1.05,1.05,0,0,0,0,.224,15.918,15.918,0,0,0,1.552,7.606c1.025,2.022,2.225,2.633,4.488,2.426a3.127,3.127,0,0,0,2.423-1.408c.614-.881,1.237-1.754,1.909-2.588a3.992,3.992,0,0,1,1.132-.961c.508-.282.922.013.862.6a3.44,3.44,0,0,1-.362,1.289,12.52,12.52,0,0,1-3.577,4.163,6.3,6.3,0,0,1-8.572-1.414,14.142,14.142,0,0,1-2.263-5.644C1496.356,1192.536,1496.271,1191.343,1496.124,1190.165Zm5.063-4.032c.847-.059,1.521-.071,2.182-.16.925-.13,1.847-.3,2.758-.5.223-.05.56-.283.576-.456a6.007,6.007,0,0,0-.82-3.945c-.744-1.134-3.363-1.592-4.359-.047a15.4,15.4,0,0,0-1.857,4.628c-.07.272.043.353.3.37.468.031.931.085,1.222.111Z" transform="translate(-1348.052 -1160.286)" fill="#78c383"/>
      <path id="Path_887" data-name="Path 887" d="M1342.608,1194.227c.141-1.435.289-2.869.421-4.3.261-2.821.6-5.639.752-8.466.328-5.945.575-11.895.819-17.843.056-1.355-.046-2.715-.054-4.074a8.888,8.888,0,0,1,.091-1.5,1.435,1.435,0,0,1,2.595-.72,4.24,4.24,0,0,1,1.084,3.1q-.24,4.043-.469,8.086c-.228,4-.465,8.006-.678,12.009q-.354,6.658-.669,13.318a20.925,20.925,0,0,1-.072,2.352,1.468,1.468,0,0,1-2.375,1.081,3.137,3.137,0,0,1-1.424-2.729,2.707,2.707,0,0,1,0-.3Z" transform="translate(-1317.443 -1156.115)" fill="#78c383"/>
      <path id="Path_888" data-name="Path 888" d="M1596.58,1180.079c.777-.826,1.483-1.681,2.3-2.42a6.087,6.087,0,0,1,4.622-1.745,11.813,11.813,0,0,1,2.533.72.4.4,0,0,1,.1.364q-.689,1.17-1.433,2.306a.447.447,0,0,1-.39.143,4.679,4.679,0,0,0-5.538,1.9,10.548,10.548,0,0,0-1.906,5.379c-.422,4.417-.24,8.848-.281,13.273-.006.621-.022,1.243.006,1.862.018.378-.07.528-.487.511-.82-.035-1.644-.03-2.465,0-.371.013-.487-.08-.48-.469.021-1.761.009-3.523.009-5.284q0-9.786-.012-19.573c0-.469.128-.593.583-.573.8.037,1.61.03,2.414,0,.365-.013.446.114.439.456C1596.566,1177.985,1596.58,1179.038,1596.58,1180.079Z" transform="translate(-1367.398 -1159.939)" fill="#f89838"/>
    </g>
    <g id="Online" transform="translate(1615.604 1180.358)" style="isolation: isolate">
      <g id="Group_902" data-name="Group 902" style="isolation: isolate">
        <path id="Path_4785" data-name="Path 4785" d="M1699.548,1204.592a8.269,8.269,0,1,1,8.128-8.267A7.984,7.984,0,0,1,1699.548,1204.592Zm0-1.835c3.413,0,5.969-2.484,5.969-6.432,0-3.972-2.556-6.433-5.969-6.433s-5.969,2.461-5.969,6.433C1693.579,1200.273,1696.134,1202.757,1699.548,1202.757Z" transform="translate(-1691.419 -1186.757)" fill="#fec572"/>
        <path id="Path_4786" data-name="Path 4786" d="M1724.512,1198.081c0-2.6-1.416-3.924-3.553-3.924-2.16,0-3.646,1.347-3.646,4.087v7.037H1715.2v-12.726h2.114v1.812a4.7,4.7,0,0,1,4.088-2.044c2.949,0,5.2,1.811,5.2,5.457v7.5h-2.09Z" transform="translate(-1696.16 -1187.607)" fill="#fec572"/>
        <path id="Path_4787" data-name="Path 4787" d="M1733.759,1187.042h2.114v17.185h-2.114Z" transform="translate(-1699.861 -1186.554)" fill="#fec572"/>
        <path id="Path_4788" data-name="Path 4788" d="M1740.457,1187.873a1.417,1.417,0,1,1,1.439,1.439A1.418,1.418,0,0,1,1740.457,1187.873Zm.348,3.507h2.114v12.726h-2.114Z" transform="translate(-1701.196 -1186.433)" fill="#fec572"/>
        <path id="Path_4789" data-name="Path 4789" d="M1757.339,1198.081c0-2.6-1.417-3.924-3.553-3.924-2.159,0-3.647,1.347-3.647,4.087v7.037h-2.112v-12.726h2.112v1.812a4.7,4.7,0,0,1,4.088-2.044c2.949,0,5.2,1.811,5.2,5.457v7.5h-2.09Z" transform="translate(-1702.706 -1187.607)" fill="#fec572"/>
        <path id="Path_4790" data-name="Path 4790" d="M1771.894,1205.495c-3.623,0-6.294-2.554-6.294-6.595,0-4.018,2.578-6.55,6.294-6.55a5.833,5.833,0,0,1,6.107,6.085,11.445,11.445,0,0,1-.069,1.276H1767.76a4,4,0,0,0,4.134,3.995,3.5,3.5,0,0,0,3.576-2.346h2.276A5.724,5.724,0,0,1,1771.894,1205.495Zm-4.109-7.5h8.034a3.734,3.734,0,0,0-4.018-3.855A3.939,3.939,0,0,0,1767.784,1197.994Z" transform="translate(-1706.21 -1187.613)" fill="#fec572"/>
      </g>
    </g>
  </g>
</svg>
