<svg width="598" height="116" viewBox="0 0 598 116" fill="none" xmlns="http://www.w3.org/2000/svg">
<path fill-rule="evenodd" clip-rule="evenodd" d="M145.522 57.3894C144.867 58.3173 144.253 59.2733 143.551 60.1668C138.652 66.4279 132.451 70.2198 124.275 70.037C119.92 70.1321 115.916 67.659 114.052 63.7241C112.967 61.3621 112.645 58.7217 113.129 56.1672C113.925 50.474 116.422 45.1524 120.294 40.899C121.731 39.2689 123.212 37.6654 124.804 36.1821C127.979 33.3779 132.033 31.7668 136.269 31.6258C140.172 31.4194 144.086 31.6882 147.925 32.4259C148.524 32.5236 148.652 32.3677 148.784 31.8124C149.078 30.4685 149.465 29.1477 149.94 27.8558C150.386 26.7008 151.047 26.4424 152.157 26.9914C153.226 27.5731 154.253 28.2258 155.234 28.9461C155.367 29.1057 155.409 29.3239 155.346 29.5217C153.654 32.7417 153.054 36.2834 152.265 39.7723C151.878 41.4543 151.717 43.1785 151.786 44.9025C151.932 53.2453 150.998 61.5715 149.008 69.6747C148.043 74.2688 146.62 78.755 144.762 83.0665C143.964 84.8804 142.893 86.5767 141.927 88.3134C141.075 89.8423 140.238 91.3827 139.319 92.8771C136.268 98.1243 131.387 102.06 125.611 103.933C122.961 104.877 120.072 104.912 117.401 104.032C116.974 103.888 116.56 103.706 116.165 103.487C112.734 101.548 112.916 98.2103 114.666 95.817C115.375 94.619 116.923 94.2222 118.122 94.9308C118.395 95.0932 118.634 95.3036 118.83 95.5533C119.351 96.1188 119.817 96.7347 120.219 97.3915C121.053 99.1382 123.089 99.9522 124.898 99.2614C127.669 98.5528 130.191 97.0923 132.184 95.0411C135.734 91.3217 138.446 86.8863 140.138 82.032C142.04 76.5759 143.534 70.9853 144.611 65.3086C144.973 63.6517 145.479 62.0227 145.771 60.3557C145.863 59.3897 145.873 58.4188 145.801 57.4502L145.522 57.3894ZM126.631 65.178C126.983 65.1465 127.571 65.1313 128.145 65.0336C130.865 64.5467 133.351 63.1815 135.221 61.1466C137.562 58.6913 139.713 56.052 141.885 53.4416C142.501 52.747 142.971 51.9344 143.265 51.052C144.109 48.0742 144.945 45.0813 145.523 42.0438C146.005 39.5083 144.852 37.8401 142.438 36.8793C142.145 36.755 141.843 36.6524 141.535 36.574C135.725 35.0792 129.563 36.8563 125.446 41.216C121.675 45.0027 119.343 49.9835 118.849 55.3014C118.579 57.6974 119.077 60.1173 120.274 62.2116C121.604 64.5962 123.898 65.121 126.631 65.178Z" fill="#68C453"/>
<path fill-rule="evenodd" clip-rule="evenodd" d="M189.102 29.4183C189.799 28.8226 190.482 28.2775 191.122 27.6867C192.788 26.2213 194.829 25.2465 197.017 24.8711C199.827 24.5405 202.373 26.5471 202.705 29.3536L202.712 29.4209C202.887 33.2571 202.132 37.0764 200.511 40.5576C199.253 43.591 197.77 46.5322 196.312 49.4783C195.933 50.0385 195.954 50.7776 196.364 51.3152C197.108 52.38 197.977 53.3497 198.955 54.203C201.492 56.1135 204.143 57.8945 206.806 59.6363C208.032 60.3463 209.427 60.7103 210.843 60.6885C211.717 60.7277 211.888 60.3297 211.888 59.6312C211.888 57.8567 211.921 56.0703 211.873 54.2918C211.758 49.9905 211.601 45.6906 211.466 41.389C211.339 37.4858 211.252 33.5828 211.086 29.6818C211.027 29.1659 210.782 28.6893 210.397 28.3419C209.371 27.5421 209.018 26.1516 209.534 24.9585C210.181 23.1659 210.867 21.3838 211.645 19.6445C212 18.6658 213.054 18.1282 214.056 18.4148C214.964 18.6442 215.604 19.4554 215.616 20.3912C215.635 20.5177 215.651 20.6547 215.673 20.7855C216.021 22.962 216.642 23.3917 218.813 23.7163C221.039 24.0382 223.24 24.5277 225.394 25.1818C228.756 26.2251 230.71 28.9379 232.49 31.7459C234.824 35.4223 234.699 39.4012 233.707 43.4365C232.37 48.5555 229.668 53.2142 225.89 56.9198C223.394 59.4806 220.637 61.7927 217.897 64.1037C216.485 65.3473 214.718 66.1156 212.845 66.298C211.233 66.3414 209.628 66.0712 208.118 65.5044C204.666 64.1784 201.415 62.3873 198.448 60.1802C196.547 58.8756 194.685 57.5004 192.816 56.1401C191.743 55.3605 191.42 55.4504 191.278 56.774C191.159 57.8515 191.23 58.9481 191.179 60.0344C191.102 61.7015 190.991 63.3671 190.888 65.0316C190.87 65.1901 190.832 65.346 190.777 65.4944C190.507 66.3094 190.251 67.169 189.263 67.368C188.287 67.5151 187.314 67.0816 186.771 66.2589C185.896 65.1028 185.436 63.6881 185.463 62.2388C185.368 60.1181 185.383 57.9933 185.346 55.87C185.224 48.7278 185.104 41.5857 184.982 34.4459C184.961 33.1175 184.91 31.7839 184.942 30.4643C184.964 29.4057 185.101 28.309 186.348 27.9693C187.581 27.6322 188.359 28.3687 189.102 29.4185V29.4183ZM217.374 59.3753L217.678 59.4552C218.676 58.6782 219.724 57.9568 220.664 57.115C224.126 53.7999 226.79 49.7407 228.451 45.2441C229.842 42.1066 229.929 38.5444 228.693 35.3423C227.365 31.8118 225.246 29.1064 221.419 28.2053C219.909 27.8503 218.318 27.8439 216.77 27.6348C216.214 27.5599 216.062 27.6842 216.063 28.2686C216.093 37.1336 216.078 45.9999 216.753 54.847C216.868 56.3631 217.161 57.8667 217.374 59.3765V59.3753ZM189.969 42.7151C189.969 43.458 189.919 44.206 189.981 44.9449C190.037 45.8159 190.17 46.6806 190.377 47.5274C190.595 48.3333 191.092 48.5047 191.762 48.0241C192.368 47.5959 192.914 47.0875 193.382 46.5119C195.521 43.6558 197.011 40.3687 197.746 36.8776C198.184 35.3638 198.234 33.7652 197.898 32.2265C197.629 30.7394 196.204 29.7531 194.716 30.0216C194.1 30.1334 193.54 30.4529 193.132 30.9256C192.377 31.7774 191.788 32.7625 191.393 33.8286C190.273 36.6504 189.786 39.6854 189.97 42.7151H189.969Z" fill="#68C453"/>
<path fill-rule="evenodd" clip-rule="evenodd" d="M439.997 60.7405V74.4391C439.997 76.99 439.976 79.5405 440.013 82.0898C440.022 82.6996 439.841 82.8503 439.252 82.8315C438.03 82.787 436.804 82.7705 435.585 82.8315C434.864 82.8693 434.715 82.6415 434.715 81.944C434.739 70.9202 434.744 59.895 434.732 48.8699C434.732 41.8024 434.74 34.7364 434.717 27.6702C434.717 27.0109 434.881 26.8058 435.547 26.8337C436.794 26.8869 438.046 26.8766 439.296 26.8337C439.851 26.8156 440.017 26.9729 440.009 27.5372C439.978 29.7099 439.997 31.8828 439.997 34.2369C440.252 33.9631 440.417 33.8185 440.545 33.6474C448.11 23.5337 462.485 23.8444 470.479 31.302C479.327 39.3076 480.002 52.9619 471.991 61.8015C469.177 64.9074 465.518 67.1284 461.461 68.1921C454.064 70.1318 446.204 67.7333 441.152 61.9955C440.81 61.6483 440.477 61.2679 439.997 60.7405ZM472.272 47.4399C472.194 46.621 472.169 45.7917 472.034 44.9869C470.785 36.0763 462.545 29.8646 453.626 31.1108C451.891 31.353 450.207 31.874 448.638 32.6522C442.295 35.7086 438.972 42.2867 439.762 49.7205C440.859 60.0473 450.568 65.1864 458.613 63.7792C466.519 62.348 472.27 55.4693 472.272 47.4399Z" fill="#FFAB37"/>
<path fill-rule="evenodd" clip-rule="evenodd" d="M12.2907 9.34223C10.5147 11.1234 8.75108 12.9171 6.96214 14.6818C6.27851 15.4195 5.51578 16.0813 4.68979 16.6556C4.01507 17.0041 3.27787 17.217 2.52171 17.2818C1.93055 17.3732 1.72997 16.9395 1.85298 16.4006C1.92301 16.0914 2.03327 15.7935 2.18415 15.5135C6.10442 8.38508 11.6349 3.22703 19.7419 1.25666C22.892 0.572428 26.1425 0.475983 29.3294 0.971762C31.4495 1.29493 33.5492 1.73852 35.6186 2.30003C36.3557 2.52212 37.0572 2.85031 37.6993 3.27632C40.017 4.57327 41.3187 7.14399 40.99 9.77828C40.6793 13.1492 39.535 16.3892 37.6587 19.2075C34.516 23.9866 30.7366 28.3146 26.4241 32.0717C25.3115 33.1 24.185 34.1154 23.0088 35.0677C21.9089 35.861 21.3635 37.2138 21.6043 38.5474C22.5331 44.9518 23.4352 51.3588 24.3764 57.7605C24.5884 59.2017 24.9625 60.6192 25.1708 62.0618C25.2291 62.5283 25.1159 62.9998 24.8537 63.3878C24.1212 64.3627 23.3094 65.273 22.4264 66.1122C21.2338 67.2098 20.0769 66.902 19.6797 65.339C18.9692 62.5421 18.3019 59.7281 17.7919 56.8884C16.9532 52.2181 16.2477 47.5202 15.5006 42.8373C15.4093 42.2579 15.1341 41.993 14.5605 42.0044C13.4453 42.0259 12.3276 42.0703 11.2136 42.0527C10.4992 42.0601 9.78639 41.9917 9.08594 41.8497C8.32455 41.7256 7.80962 41.0091 7.934 40.2487L7.94406 40.1927C7.99745 38.7793 8.75748 37.4876 9.96649 36.7524C10.5946 36.3594 11.2645 36.0372 11.9645 35.7927C13.3958 35.3172 14.3752 33.9951 14.4121 32.4877C14.5566 28.6669 14.3702 24.8408 13.8525 21.0533C13.3908 17.4745 13.0493 13.8806 12.6536 10.293C12.6219 10.0102 12.5774 9.73015 12.5394 9.44873L12.2907 9.34223ZM26.6653 4.80638L26.6537 4.89008C26.2555 4.89008 25.8557 4.90786 25.4574 4.89008C23.8081 4.76464 22.1525 5.0333 20.6274 5.67347C19.4791 6.0208 18.756 7.15443 18.9261 8.34082C19.0708 11.7371 19.1215 15.1406 19.379 18.5279C19.6151 21.6186 19.9767 24.7065 20.4675 27.7657C20.8088 29.8942 21.31 30.0336 23.246 28.993C24.879 28.0369 26.3124 26.7741 27.4682 25.2745C30.285 21.7453 32.7093 17.9196 34.7 13.8653C34.8177 13.6309 34.8851 13.375 34.8978 13.1125C34.936 12.1832 34.9814 11.2527 34.9499 10.3234C35.1277 7.82998 33.3247 5.63038 30.8431 5.31359C29.4793 5.01941 28.0607 4.96878 26.6653 4.80641V4.80638Z" fill="#68C453"/>
<path fill-rule="evenodd" clip-rule="evenodd" d="M406.486 47.7487C400.612 47.7487 394.736 47.7576 388.86 47.7334C388.235 47.7334 388.064 47.8805 388.082 48.5195C388.276 55.8315 393.411 62.4489 400.177 63.6302C407.292 64.874 413.244 62.7784 417.558 56.7543C418.022 56.1077 418.463 55.4423 418.873 54.7602C419.089 54.4003 419.254 54.2812 419.673 54.5065C420.816 55.1404 421.966 55.7378 423.13 56.3195C423.521 56.5148 423.618 56.6845 423.391 57.1041C419.78 63.8168 414.352 67.8796 406.644 68.6401C402.667 69.1486 398.628 68.611 394.924 67.0786C388.863 64.4161 385.253 59.5763 383.438 53.3872C380.863 44.3967 384.25 34.7612 391.888 29.3543C395.942 26.6299 400.829 25.4272 405.686 25.9606C409.967 26.1875 414.059 27.8001 417.344 30.5549C421.604 34.0613 424.29 39.1182 424.809 44.6073C424.89 45.3462 424.895 46.093 424.988 46.8284C425.077 47.5307 424.879 47.7638 424.114 47.7587C418.238 47.7323 412.362 47.7487 406.486 47.7487ZM419.113 43.1037C417.361 33.8989 409.444 30.3166 402.657 30.7222C398.892 30.8896 395.339 32.5085 392.744 35.2376C390.73 37.4701 389.31 40.1729 388.614 43.0975L419.113 43.1037Z" fill="#FFAB37"/>
<path fill-rule="evenodd" clip-rule="evenodd" d="M316.63 37.6187C316.63 27.9207 316.642 18.2228 316.606 8.52367C316.606 7.6819 316.852 7.54255 317.622 7.55009C322.328 7.59319 327.036 7.52706 331.741 7.61211C334.853 7.52706 337.966 7.8315 341.002 8.51864C347.407 10.2679 351.944 15.6938 351.342 23.6382C351.212 27.354 349.516 30.8428 346.677 33.2425C344.138 35.3517 340.98 36.5714 337.682 36.7158C332.803 36.9921 327.913 37.0811 323.025 37.2065C322.376 37.223 322.189 37.3562 322.19 38.0304C322.214 47.6754 322.2 57.321 322.222 66.9655C322.222 67.6337 322.111 67.8899 321.371 67.8531C320.018 67.782 318.658 67.8128 317.303 67.8439C316.795 67.8554 316.622 67.7377 316.623 67.1927C316.638 59.1682 316.641 51.1446 316.631 43.1202V37.6197L316.63 37.6187ZM322.203 22.32V31.1621C322.203 31.5234 322.16 31.8189 322.71 31.8098C327.328 31.7389 331.957 31.8543 336.563 31.5996C341.328 31.6376 345.29 27.9433 345.582 23.1896C346.076 18.8429 343.303 14.7912 339.069 13.6755C337.148 13.2752 335.194 13.0583 333.232 13.0266C329.808 12.9236 326.382 13.0087 322.956 12.9783C322.371 12.9783 322.195 13.1051 322.195 13.7175C322.222 16.5848 322.203 19.4525 322.203 22.32Z" fill="#FFAB37"/>
<path d="M84.9562 99.1946C85.0985 97.2232 85.6061 95.2953 86.4536 93.509C89.978 85.5339 92.2222 77.11 95.1022 68.9156C95.167 68.544 95.0959 68.1599 94.9005 67.8367C92.3631 63.0296 89.6707 58.2975 87.2882 53.4117C85.7861 50.3224 84.7508 47.0061 83.4937 43.7975C83.2234 43.1079 82.896 42.4384 82.5711 41.769C82.2124 41.2012 82.3379 40.4546 82.8618 40.0336C83.5394 39.443 84.2715 38.9181 85.0491 38.4655C85.9956 37.8341 87.2743 38.0892 87.9062 39.0348C87.9341 39.0766 87.9595 39.1185 87.9848 39.1616C88.5152 39.9221 88.9363 40.7524 89.2358 41.6284C90.2382 44.6468 91.1388 47.6982 92.1183 50.7228C93.1271 53.6374 94.5693 56.3817 96.395 58.8678C97.2833 60.1357 97.9671 60.1357 98.8349 58.84C99.5213 57.8323 100.104 56.7572 100.573 55.6315C103.103 49.3641 105.598 43.0826 108.058 36.7871C109.078 33.76 110.715 30.976 112.865 28.6117C113.208 28.2429 113.58 27.9006 113.975 27.5888C114.713 27.0511 115.726 27.1045 116.404 27.7157C116.892 28.1251 116.993 28.8359 116.636 29.3635C114.432 34.4203 112.173 39.4544 110.065 44.5505C107.29 51.2694 104.623 58.0225 101.939 64.7728C101.42 66.0783 101.493 66.0899 102.609 66.9938C103.113 67.3829 103.575 67.824 103.986 68.3095C104.412 68.7316 104.416 69.4201 103.995 69.8462C103.889 69.9526 103.764 70.0362 103.625 70.0908C102.262 70.9641 100.589 71.6019 99.6405 72.806C98.7157 73.9787 98.5379 75.7383 98.023 77.2431C95.6302 84.2154 93.2499 91.1876 90.8215 98.1473C90.4499 99.0842 89.9932 99.9855 89.4565 100.839C89.0481 101.783 88.0306 102.307 87.0244 102.091C85.9384 101.89 85.124 100.985 85.0389 99.8841C85.0022 99.623 84.9781 99.3578 84.9562 99.1946Z" fill="#68C453"/>
<path fill-rule="evenodd" clip-rule="evenodd" d="M74.8545 50.5792C74.7087 50.8492 74.558 51.1168 74.4171 51.3893C72.6266 55.0948 70.517 58.6381 68.1116 61.9758C66.5639 64.1259 64.4336 65.788 61.9712 66.7653C58.5061 68.232 54.5085 66.6144 53.0416 63.1535C52.8007 62.587 52.6399 61.9897 52.5597 61.3799C51.9458 57.5744 52.5394 53.6713 54.2572 50.2193C57.0181 44.3446 60.7465 38.975 65.286 34.3326C66.9163 32.6098 68.8803 31.2343 71.0586 30.29C73.6443 29.0057 76.7794 29.7649 78.4897 32.09C79.1581 32.8583 79.5148 33.8482 79.4895 34.8662C79.389 39.4577 79.1958 44.0509 79.2431 48.641C79.257 54.1429 80.0693 59.6114 81.6538 64.8801C82.0345 66.1097 81.6613 67.4474 80.7008 68.3031C79.9842 69.1776 78.6924 69.3069 77.817 68.5895C77.5064 68.3358 77.2779 67.996 77.1586 67.6121C76.6006 66.0694 76.221 64.4671 76.0295 62.8365C75.6487 59.3568 75.4713 55.8556 75.2009 52.3629C75.1567 51.7825 75.064 51.2055 74.9928 50.6263L74.8545 50.5792ZM73.6001 38.6084C73.6001 37.2761 73.6124 36.2403 73.6001 35.2049C73.5896 34.633 73.3258 34.3299 72.7385 34.6368C71.5368 35.1235 70.3992 35.7512 69.3473 36.5079C63.8538 41.3949 59.6048 47.1173 57.8021 54.4028C57.2501 56.4032 57.0864 58.4885 57.3172 60.5498C57.3428 61.2786 57.9289 61.8629 58.6584 61.8846C60.5485 62.147 62.4672 61.6449 63.987 60.4902C65.4826 59.2504 66.7451 57.7519 67.7119 56.0659C69.5822 52.856 71.0879 49.4474 72.203 45.9027C73.034 43.4384 74.0493 41.012 73.6001 38.6135V38.6084Z" fill="#68C453"/>
<path d="M264.564 51.7892C264.444 48.7973 264.365 45.0512 264.116 41.3156C263.956 38.9068 263.541 36.5271 263.249 34.1327C262.973 32.5531 263.146 30.9291 263.748 29.4421C264.038 28.8082 264.376 28.1745 265.19 28.1146C266.032 28.0514 266.491 28.6218 266.88 29.2433C267.513 30.4169 267.826 31.7378 267.784 33.0704C267.846 34.7931 267.864 36.5184 267.971 38.2389C268.07 38.719 268.234 39.1843 268.461 39.6191C268.86 39.3465 269.222 39.022 269.537 38.6558C270.545 37.1269 271.502 35.5664 272.456 34.0008C273.629 31.8139 275.375 29.986 277.505 28.7093C278.392 28.2389 279.337 27.8879 280.316 27.6624C282.137 27.2249 284.037 27.9944 285.037 29.5764C286.506 31.701 287.529 34.0981 288.046 36.6273C289.136 40.9527 289.824 45.3707 290.098 49.8229C290.312 53.0516 290.363 56.2892 290.249 59.5233C290.089 61.2107 289.773 62.8801 289.309 64.509C289.114 65.3265 288.563 66.0126 287.808 66.3815C287.176 66.8633 286.271 66.7414 285.788 66.1076C285.658 65.9377 285.568 65.7413 285.525 65.5307C285.303 64.9058 285.197 64.2469 285.209 63.5835C285.323 61.0926 285.417 58.594 285.709 56.1195C286.037 53.1088 286.016 50.0687 285.648 47.0619C285.398 43.9648 284.808 40.9033 283.891 37.9344C283.515 36.8314 283.029 35.7691 282.439 34.7651C282.018 34.092 281.466 33.5088 280.817 33.0525C279.831 32.2082 278.353 32.2943 277.473 33.2477C276.698 33.9338 276.01 34.7133 275.426 35.5664C272.714 39.6825 270.325 43.9483 269.463 48.9049C268.997 52.3264 268.89 55.7885 269.146 59.2316C269.356 60.6794 269.269 62.1549 268.892 63.5686C268.792 63.8701 268.677 64.167 268.545 64.4558C268.179 65.181 267.756 65.944 266.824 65.8984C265.994 65.8211 265.309 65.2213 265.124 64.4102C264.808 63.4582 264.626 62.4667 264.58 61.4641C264.515 58.4936 264.564 55.5175 264.564 51.7892Z" fill="#68C453"/>
<path fill-rule="evenodd" clip-rule="evenodd" d="M175.566 48.267C174.868 49.7773 174.208 51.3096 173.46 52.7904C172.434 54.825 171.43 56.8787 170.251 58.826C168.855 61.1029 166.935 63.0133 164.651 64.3961C163.336 65.3254 161.743 65.7795 160.137 65.6815C157.331 65.2593 155.156 63.0142 154.824 60.2002C154.329 56.8434 154.74 53.4155 156.014 50.2689C158.294 43.9863 161.842 38.2386 166.437 33.3805C167.974 31.7189 169.801 30.351 171.833 29.3446C174.023 28.0525 176.839 28.6319 178.341 30.6845C179.069 31.4703 179.462 32.51 179.431 33.58C179.336 38.1725 179.219 42.7666 179.241 47.3596C179.206 52.9158 179.989 58.4455 181.563 63.7739C181.932 64.9778 180.211 67.2509 179.133 67.3499C178.435 67.4183 177.794 66.9569 177.638 66.2737C177.203 65.1087 176.891 63.9019 176.712 62.6708C176.403 59.6386 176.23 56.5859 176.042 53.5434C175.934 51.799 175.899 50.0507 175.833 48.3054L175.566 48.267ZM174.482 37.2801C174.482 36.0391 174.505 35.1085 174.482 34.1795C174.44 32.8281 174.186 32.6238 172.945 33.216C171.896 33.6622 170.922 34.2693 170.063 35.0162C165.263 39.4111 161.716 44.9992 159.786 51.2107C158.994 53.6956 158.663 56.302 158.807 58.9047C158.886 60.0024 159.289 60.7161 160.054 60.806C161.712 61.1952 163.458 60.8388 164.832 59.8314C166.054 58.7788 167.149 57.5873 168.096 56.2817C169.982 53.4193 171.432 50.2908 172.396 47.0006C173.446 43.7366 174.923 40.5484 174.484 37.2801H174.482Z" fill="#68C453"/>
<path fill-rule="evenodd" clip-rule="evenodd" d="M236.464 47.9717C236.511 42.598 237.967 37.3305 240.685 32.6933C242.37 29.7218 245.596 27.9623 249.008 28.155C251.716 28.2677 254.213 29.6434 255.752 31.8719C256.508 32.8962 257.186 33.9751 257.782 35.0995C258.489 36.3671 259.101 37.6981 259.755 39.0014C259.803 39.0952 259.852 39.1889 259.899 39.2853C261.001 41.5482 260.44 42.6141 257.963 43.0885C252.968 44.1166 247.916 44.8391 242.836 45.2549C241.909 45.1675 241.086 45.8457 240.999 46.7698C240.988 46.8877 240.989 47.0068 241.004 47.1248C240.815 51.2804 241.66 55.4178 243.462 59.1678C245.086 62.3688 246.987 63.3363 250.575 63.009C252.133 62.9126 253.557 62.086 254.413 60.7791C255.386 59.3846 256.373 58.0015 257.44 56.6819C257.936 56.067 258.546 55.551 259.234 55.1605C260.037 54.7134 260.695 55.1808 260.6 56.1065C260.544 56.8174 260.349 57.5108 260.026 58.1475C258.647 60.7371 256.711 62.9887 254.358 64.7395C249.955 67.7297 243.981 66.7449 240.774 62.5006C238.944 59.817 237.72 56.7682 237.188 53.5646C236.831 51.7252 236.697 49.8363 236.464 47.9717ZM244.487 41.5876C245.829 41.4937 246.897 41.476 247.945 41.3338C249.41 41.1286 250.871 40.8597 252.315 40.5378C252.668 40.4594 253.202 40.0891 253.228 39.8166C253.526 37.6475 253.068 35.4404 251.928 33.5693C250.749 31.7743 246.599 31.0493 245.019 33.4945C243.647 35.7612 242.653 38.2357 242.078 40.8219C241.967 41.2527 242.146 41.3808 242.55 41.4073C243.292 41.4568 244.026 41.5419 244.487 41.5835V41.5876Z" fill="#68C453"/>
<path d="M41.697 61.0069C41.9201 58.7352 42.155 56.4648 42.3645 54.1931C42.7776 49.7257 43.3097 45.2647 43.5557 40.7874C44.0759 31.3747 44.4667 21.9531 44.8535 12.5342C44.9415 10.3891 44.7811 8.23532 44.7672 6.08404C44.7483 5.28925 44.7965 4.49445 44.9118 3.7072C45.003 2.74753 45.6809 1.945 46.6134 1.69276C47.5191 1.46585 48.4734 1.81183 49.024 2.56642C50.2314 3.90357 50.8507 5.67098 50.7418 7.46856C50.488 11.7367 50.2393 16.005 49.9978 20.272C49.6365 26.6107 49.2608 32.9489 48.9234 39.2876C48.5491 46.3158 48.1965 53.3448 47.8641 60.3758C47.8959 61.618 47.858 62.8616 47.7501 64.1001C47.42 66.117 45.7809 66.8142 43.9869 65.8118C42.302 64.8696 41.9078 63.2305 41.73 61.49C41.7211 61.3315 41.7211 61.1719 41.73 61.012L41.697 61.0069Z" fill="#68C453"/>
<path d="M364.995 32.5507C366.227 31.2423 367.346 29.8885 368.637 28.7184C370.577 26.8042 373.239 25.8002 375.961 25.955C377.338 26.1845 378.684 26.5673 379.975 27.0957C380.121 27.2504 380.178 27.4661 380.127 27.6715C379.4 28.906 378.643 30.123 377.857 31.3221C377.701 31.4947 377.47 31.5798 377.239 31.5492C373.968 30.3738 370.322 31.6266 368.463 34.5613C366.693 37.0701 365.647 40.0161 365.442 43.0787C364.774 50.0728 365.062 57.0882 364.997 64.0946C364.988 65.0773 364.962 66.0623 365.008 67.0423C365.035 67.6405 364.897 67.8789 364.236 67.8508C362.935 67.795 361.63 67.8041 360.33 67.8508C359.742 67.8712 359.558 67.7241 359.568 67.1082C359.601 64.3193 359.582 61.5301 359.582 58.7415C359.582 48.4109 359.576 38.0803 359.563 27.7487C359.563 27.0056 359.766 26.8093 360.487 26.8422C361.756 26.9005 363.038 26.8891 364.312 26.8422C364.891 26.8218 365.019 27.0223 365.008 27.5635C364.973 29.2344 364.995 30.9014 364.995 32.5507Z" fill="#FFAB37"/>
<path fill-rule="evenodd" clip-rule="evenodd" d="M497.117 67.5271C489.903 67.5271 484.235 62.123 484.235 54.4371C484.235 46.7522 489.903 41.3457 497.117 41.3457C504.368 41.3457 509.997 46.7522 509.997 54.4371C509.997 62.123 504.368 67.5271 497.117 67.5271ZM497.117 64.6216C502.525 64.6216 506.575 60.6881 506.575 54.4371C506.575 48.148 502.525 44.2511 497.117 44.2511C491.707 44.2511 487.659 48.148 487.659 54.4371C487.659 60.6881 491.707 64.6216 497.117 64.6216Z" fill="#FFAB37"/>
<path d="M529.164 55.8703C529.164 51.7515 526.92 49.6564 523.533 49.6564C520.11 49.6564 517.755 51.7884 517.755 56.1276V67.2697H514.406V47.1193H517.755V49.9884C519.08 47.8901 521.51 46.752 524.234 46.752C528.907 46.752 532.477 49.6195 532.477 55.3926V67.2697H529.164V55.8703Z" fill="#FFAB37"/>
<path d="M537.953 40.0596H541.303V67.2707H537.953V40.0596Z" fill="#FFAB37"/>
<path fill-rule="evenodd" clip-rule="evenodd" d="M546.453 41.5667C546.453 40.2786 547.446 39.2861 548.733 39.2861C549.948 39.2861 550.942 40.2786 550.942 41.5667C550.942 42.8534 549.948 43.846 548.733 43.846C547.446 43.846 546.453 42.8534 546.453 41.5667ZM547.004 47.1192H550.354V67.2691H547.004V47.1192Z" fill="#FFAB37"/>
<path d="M570.81 55.8703C570.81 51.7515 568.564 49.6564 565.179 49.6564C561.758 49.6564 559.4 51.7884 559.4 56.1276V67.2697H556.053V47.1193H559.4V49.9884C560.726 47.8901 563.154 46.752 565.878 46.752C570.551 46.752 574.123 49.6195 574.123 55.3926V67.2697H570.81V55.8703Z" fill="#FFAB37"/>
<path fill-rule="evenodd" clip-rule="evenodd" d="M588.322 67.5983C582.581 67.5983 578.35 63.5542 578.35 57.1561C578.35 50.7937 582.434 46.7852 588.322 46.7852C594.175 46.7852 598 50.9039 598 56.4209C598 57.1561 597.965 57.7444 597.891 58.4417H581.773C582.03 62.5235 584.9 64.7674 588.322 64.7674C591.34 64.7674 593.254 63.2234 593.989 61.053H597.597C596.566 64.7294 593.328 67.5983 588.322 67.5983ZM581.811 55.7212H594.542C594.579 51.7863 591.636 49.6172 588.175 49.6172C584.9 49.6172 582.177 51.7863 581.811 55.7212Z" fill="#FFAB37"/>
<path d="M155.702 102.403H160.582V103.883H153.882V89.9428H155.702V102.403ZM173.475 97.9828C173.475 98.3295 173.455 98.6961 173.415 99.0828H164.655C164.722 100.163 165.088 101.009 165.755 101.623C166.435 102.223 167.255 102.523 168.215 102.523C169.002 102.523 169.655 102.343 170.175 101.983C170.708 101.609 171.082 101.116 171.295 100.503H173.255C172.962 101.556 172.375 102.416 171.495 103.083C170.615 103.736 169.522 104.063 168.215 104.063C167.175 104.063 166.242 103.829 165.415 103.363C164.602 102.896 163.962 102.236 163.495 101.383C163.028 100.516 162.795 99.5161 162.795 98.3828C162.795 97.2495 163.022 96.2561 163.475 95.4028C163.928 94.5495 164.562 93.8961 165.375 93.4428C166.202 92.9761 167.148 92.7428 168.215 92.7428C169.255 92.7428 170.175 92.9695 170.975 93.4228C171.775 93.8761 172.388 94.5028 172.815 95.3028C173.255 96.0895 173.475 96.9828 173.475 97.9828ZM171.595 97.6028C171.595 96.9095 171.442 96.3161 171.135 95.8228C170.828 95.3161 170.408 94.9361 169.875 94.6828C169.355 94.4161 168.775 94.2828 168.135 94.2828C167.215 94.2828 166.428 94.5761 165.775 95.1628C165.135 95.7495 164.768 96.5628 164.675 97.6028H171.595ZM176.157 98.3628C176.157 97.2428 176.384 96.2628 176.837 95.4228C177.291 94.5695 177.911 93.9095 178.697 93.4428C179.497 92.9761 180.384 92.7428 181.357 92.7428C182.317 92.7428 183.151 92.9495 183.857 93.3628C184.564 93.7761 185.091 94.2961 185.437 94.9228V92.9228H187.277V103.883H185.437V101.843C185.077 102.483 184.537 103.016 183.817 103.443C183.111 103.856 182.284 104.063 181.337 104.063C180.364 104.063 179.484 103.823 178.697 103.343C177.911 102.863 177.291 102.189 176.837 101.323C176.384 100.456 176.157 99.4695 176.157 98.3628ZM185.437 98.3828C185.437 97.5561 185.271 96.8361 184.937 96.2228C184.604 95.6095 184.151 95.1428 183.577 94.8228C183.017 94.4895 182.397 94.3228 181.717 94.3228C181.037 94.3228 180.417 94.4828 179.857 94.8028C179.297 95.1228 178.851 95.5895 178.517 96.2028C178.184 96.8161 178.017 97.5361 178.017 98.3628C178.017 99.2028 178.184 99.9361 178.517 100.563C178.851 101.176 179.297 101.649 179.857 101.983C180.417 102.303 181.037 102.463 181.717 102.463C182.397 102.463 183.017 102.303 183.577 101.983C184.151 101.649 184.604 101.176 184.937 100.563C185.271 99.9361 185.437 99.2095 185.437 98.3828ZM193.133 94.7028C193.453 94.0761 193.906 93.5895 194.493 93.2428C195.093 92.8961 195.819 92.7228 196.673 92.7228V94.6028H196.193C194.153 94.6028 193.133 95.7095 193.133 97.9228V103.883H191.313V92.9228H193.133V94.7028ZM205.074 92.7228C206.407 92.7228 207.487 93.1295 208.314 93.9428C209.14 94.7428 209.554 95.9028 209.554 97.4228V103.883H207.754V97.6828C207.754 96.5895 207.48 95.7561 206.934 95.1828C206.387 94.5961 205.64 94.3028 204.694 94.3028C203.734 94.3028 202.967 94.6028 202.394 95.2028C201.834 95.8028 201.554 96.6761 201.554 97.8228V103.883H199.734V92.9228H201.554V94.4828C201.914 93.9228 202.4 93.4895 203.014 93.1828C203.64 92.8761 204.327 92.7228 205.074 92.7228ZM228.019 100.783H221.939L220.819 103.883H218.899L223.939 90.0228H226.039L231.059 103.883H229.139L228.019 100.783ZM227.499 99.3028L224.979 92.2628L222.459 99.3028H227.499ZM239.555 92.7228C240.889 92.7228 241.969 93.1295 242.795 93.9428C243.622 94.7428 244.035 95.9028 244.035 97.4228V103.883H242.235V97.6828C242.235 96.5895 241.962 95.7561 241.415 95.1828C240.869 94.5961 240.122 94.3028 239.175 94.3028C238.215 94.3028 237.449 94.6028 236.875 95.2028C236.315 95.8028 236.035 96.6761 236.035 97.8228V103.883H234.215V92.9228H236.035V94.4828C236.395 93.9228 236.882 93.4895 237.495 93.1828C238.122 92.8761 238.809 92.7228 239.555 92.7228ZM257.408 92.9228L250.808 109.043H248.928L251.088 103.763L246.668 92.9228H248.688L252.128 101.803L255.528 92.9228H257.408ZM274.798 92.9228L271.378 103.883H269.498L266.858 95.1828L264.218 103.883H262.338L258.898 92.9228H260.758L263.278 102.123L265.998 92.9228H267.858L270.518 102.143L272.998 92.9228H274.798ZM283.004 92.7228C283.831 92.7228 284.577 92.9028 285.244 93.2628C285.911 93.6095 286.431 94.1361 286.804 94.8428C287.191 95.5495 287.384 96.4095 287.384 97.4228V103.883H285.584V97.6828C285.584 96.5895 285.311 95.7561 284.764 95.1828C284.217 94.5961 283.471 94.3028 282.524 94.3028C281.564 94.3028 280.797 94.6028 280.224 95.2028C279.664 95.8028 279.384 96.6761 279.384 97.8228V103.883H277.564V89.0828H279.384V94.4828C279.744 93.9228 280.237 93.4895 280.864 93.1828C281.504 92.8761 282.217 92.7228 283.004 92.7228ZM301.317 97.9828C301.317 98.3295 301.297 98.6961 301.257 99.0828H292.497C292.564 100.163 292.93 101.009 293.597 101.623C294.277 102.223 295.097 102.523 296.057 102.523C296.844 102.523 297.497 102.343 298.017 101.983C298.55 101.609 298.924 101.116 299.137 100.503H301.097C300.804 101.556 300.217 102.416 299.337 103.083C298.457 103.736 297.364 104.063 296.057 104.063C295.017 104.063 294.084 103.829 293.257 103.363C292.444 102.896 291.804 102.236 291.337 101.383C290.87 100.516 290.637 99.5161 290.637 98.3828C290.637 97.2495 290.864 96.2561 291.317 95.4028C291.77 94.5495 292.404 93.8961 293.217 93.4428C294.044 92.9761 294.99 92.7428 296.057 92.7428C297.097 92.7428 298.017 92.9695 298.817 93.4228C299.617 93.8761 300.23 94.5028 300.657 95.3028C301.097 96.0895 301.317 96.9828 301.317 97.9828ZM299.437 97.6028C299.437 96.9095 299.284 96.3161 298.977 95.8228C298.67 95.3161 298.25 94.9361 297.717 94.6828C297.197 94.4161 296.617 94.2828 295.977 94.2828C295.057 94.2828 294.27 94.5761 293.617 95.1628C292.977 95.7495 292.61 96.5628 292.517 97.6028H299.437ZM306.499 94.7028C306.819 94.0761 307.273 93.5895 307.859 93.2428C308.459 92.8961 309.186 92.7228 310.039 92.7228V94.6028H309.559C307.519 94.6028 306.499 95.7095 306.499 97.9228V103.883H304.679V92.9228H306.499V94.7028ZM323.1 97.9828C323.1 98.3295 323.08 98.6961 323.04 99.0828H314.28C314.347 100.163 314.714 101.009 315.38 101.623C316.06 102.223 316.88 102.523 317.84 102.523C318.627 102.523 319.28 102.343 319.8 101.983C320.334 101.609 320.707 101.116 320.92 100.503H322.88C322.587 101.556 322 102.416 321.12 103.083C320.24 103.736 319.147 104.063 317.84 104.063C316.8 104.063 315.867 103.829 315.04 103.363C314.227 102.896 313.587 102.236 313.12 101.383C312.654 100.516 312.42 99.5161 312.42 98.3828C312.42 97.2495 312.647 96.2561 313.1 95.4028C313.554 94.5495 314.187 93.8961 315 93.4428C315.827 92.9761 316.774 92.7428 317.84 92.7428C318.88 92.7428 319.8 92.9695 320.6 93.4228C321.4 93.8761 322.014 94.5028 322.44 95.3028C322.88 96.0895 323.1 96.9828 323.1 97.9828ZM321.22 97.6028C321.22 96.9095 321.067 96.3161 320.76 95.8228C320.454 95.3161 320.034 94.9361 319.5 94.6828C318.98 94.4161 318.4 94.2828 317.76 94.2828C316.84 94.2828 316.054 94.5761 315.4 95.1628C314.76 95.7495 314.394 96.5628 314.3 97.6028H321.22ZM328.343 101.363L326.103 106.743H324.883L326.343 101.363H328.343ZM345.92 100.783H339.84L338.72 103.883H336.8L341.84 90.0228H343.94L348.96 103.883H347.04L345.92 100.783ZM345.4 99.3028L342.88 92.2628L340.36 99.3028H345.4ZM357.456 92.7228C358.789 92.7228 359.869 93.1295 360.696 93.9428C361.523 94.7428 361.936 95.9028 361.936 97.4228V103.883H360.136V97.6828C360.136 96.5895 359.863 95.7561 359.316 95.1828C358.769 94.5961 358.023 94.3028 357.076 94.3028C356.116 94.3028 355.349 94.6028 354.776 95.2028C354.216 95.8028 353.936 96.6761 353.936 97.8228V103.883H352.116V92.9228H353.936V94.4828C354.296 93.9228 354.783 93.4895 355.396 93.1828C356.023 92.8761 356.709 92.7228 357.456 92.7228ZM375.309 92.9228L368.709 109.043H366.829L368.989 103.763L364.569 92.9228H366.589L370.029 101.803L373.429 92.9228H375.309ZM380.319 94.4228V100.883C380.319 101.416 380.432 101.796 380.659 102.023C380.885 102.236 381.279 102.343 381.839 102.343H383.179V103.883H381.539C380.525 103.883 379.765 103.649 379.259 103.183C378.752 102.716 378.499 101.949 378.499 100.883V94.4228H377.079V92.9228H378.499V90.1628H380.319V92.9228H383.179V94.4228H380.319ZM387.284 91.1428C386.937 91.1428 386.644 91.0228 386.404 90.7828C386.164 90.5428 386.044 90.2495 386.044 89.9028C386.044 89.5561 386.164 89.2628 386.404 89.0228C386.644 88.7828 386.937 88.6628 387.284 88.6628C387.617 88.6628 387.897 88.7828 388.124 89.0228C388.364 89.2628 388.484 89.5561 388.484 89.9028C388.484 90.2495 388.364 90.5428 388.124 90.7828C387.897 91.0228 387.617 91.1428 387.284 91.1428ZM388.164 92.9228V103.883H386.344V92.9228H388.164ZM405.406 92.7228C406.259 92.7228 407.019 92.9028 407.686 93.2628C408.352 93.6095 408.879 94.1361 409.266 94.8428C409.652 95.5495 409.846 96.4095 409.846 97.4228V103.883H408.046V97.6828C408.046 96.5895 407.772 95.7561 407.226 95.1828C406.692 94.5961 405.966 94.3028 405.046 94.3028C404.099 94.3028 403.346 94.6095 402.786 95.2228C402.226 95.8228 401.946 96.6961 401.946 97.8428V103.883H400.146V97.6828C400.146 96.5895 399.872 95.7561 399.326 95.1828C398.792 94.5961 398.066 94.3028 397.146 94.3028C396.199 94.3028 395.446 94.6095 394.886 95.2228C394.326 95.8228 394.046 96.6961 394.046 97.8428V103.883H392.226V92.9228H394.046V94.5028C394.406 93.9295 394.886 93.4895 395.486 93.1828C396.099 92.8761 396.772 92.7228 397.506 92.7228C398.426 92.7228 399.239 92.9295 399.946 93.3428C400.652 93.7561 401.179 94.3628 401.526 95.1628C401.832 94.3895 402.339 93.7895 403.046 93.3628C403.752 92.9361 404.539 92.7228 405.406 92.7228ZM423.791 97.9828C423.791 98.3295 423.771 98.6961 423.731 99.0828H414.971C415.038 100.163 415.404 101.009 416.071 101.623C416.751 102.223 417.571 102.523 418.531 102.523C419.318 102.523 419.971 102.343 420.491 101.983C421.024 101.609 421.398 101.116 421.611 100.503H423.571C423.278 101.556 422.691 102.416 421.811 103.083C420.931 103.736 419.838 104.063 418.531 104.063C417.491 104.063 416.558 103.829 415.731 103.363C414.918 102.896 414.278 102.236 413.811 101.383C413.344 100.516 413.111 99.5161 413.111 98.3828C413.111 97.2495 413.338 96.2561 413.791 95.4028C414.244 94.5495 414.878 93.8961 415.691 93.4428C416.518 92.9761 417.464 92.7428 418.531 92.7428C419.571 92.7428 420.491 92.9695 421.291 93.4228C422.091 93.8761 422.704 94.5028 423.131 95.3028C423.571 96.0895 423.791 96.9828 423.791 97.9828ZM421.911 97.6028C421.911 96.9095 421.758 96.3161 421.451 95.8228C421.144 95.3161 420.724 94.9361 420.191 94.6828C419.671 94.4161 419.091 94.2828 418.451 94.2828C417.531 94.2828 416.744 94.5761 416.091 95.1628C415.451 95.7495 415.084 96.5628 414.991 97.6028H421.911ZM429.513 89.9428L429.293 99.9428H427.773L427.553 89.9428H429.513ZM428.613 104.003C428.267 104.003 427.973 103.883 427.733 103.643C427.493 103.403 427.373 103.109 427.373 102.763C427.373 102.416 427.493 102.123 427.733 101.883C427.973 101.643 428.267 101.523 428.613 101.523C428.947 101.523 429.227 101.643 429.453 101.883C429.693 102.123 429.813 102.416 429.813 102.763C429.813 103.109 429.693 103.403 429.453 103.643C429.227 103.883 428.947 104.003 428.613 104.003Z" fill="#606060"/>
</svg>
