<svg width="377" height="66" viewBox="0 0 377 66" fill="none" xmlns="http://www.w3.org/2000/svg">
  <path
    d="M90.6839 35.829C90.2709 36.415 89.8839 37.019 89.4399 37.583C86.3489 41.537 82.4399 43.932 77.2759 43.817C75.9304 43.8463 74.6051 43.4854 73.4602 42.7779C72.3152 42.0704 71.3996 41.0465 70.8239 39.8299C70.1393 38.3379 69.9359 36.6698 70.2419 35.057C70.7439 31.4609 72.3196 28.0999 74.7629 25.4139C75.6699 24.3839 76.605 23.3719 77.609 22.4349C79.6126 20.6635 82.171 19.6459 84.8439 19.557C87.307 19.4266 89.7768 19.5962 92.1989 20.062C92.5769 20.124 92.6579 20.0249 92.7409 19.6739C92.9268 18.825 93.1703 17.9897 93.4699 17.1739C93.7519 16.4449 94.1699 16.2809 94.8699 16.6279C95.5443 16.9951 96.1931 17.4074 96.812 17.8619C96.8533 17.9118 96.8814 17.9714 96.8936 18.035C96.9059 18.0986 96.9018 18.1643 96.8819 18.2259C95.9522 20.2891 95.2986 22.4659 94.9379 24.6999C94.6947 25.7619 94.5938 26.8514 94.6379 27.9399C94.7297 33.2087 94.1406 38.4672 92.885 43.5849C92.2753 46.4864 91.3775 49.3198 90.2049 52.0429C89.7049 53.1889 89.026 54.2599 88.416 55.3569C87.879 56.3229 87.3499 57.295 86.7709 58.239C84.8458 61.5525 81.7652 64.0387 78.1199 65.2209C76.448 65.8174 74.6249 65.8395 72.9389 65.2839C72.6689 65.1933 72.4078 65.0782 72.1589 64.9399C69.9929 63.7159 70.109 61.6079 71.213 60.0959C71.4281 59.7326 71.7786 59.4696 72.1876 59.3646C72.5965 59.2596 73.0303 59.3212 73.3939 59.536C73.5659 59.6382 73.7175 59.7714 73.8409 59.9289C74.1703 60.2865 74.4641 60.6753 74.718 61.0899C74.9715 61.622 75.4162 62.039 75.9634 62.2579C76.5107 62.4768 77.1204 62.4814 77.671 62.271C79.4206 61.8234 81.0125 60.9011 82.2709 59.6059C84.5112 57.2569 86.2225 54.4555 87.2899 51.39C88.4899 47.9437 89.4334 44.4134 90.1129 40.828C90.3409 39.782 90.6609 38.7529 90.8449 37.6999C90.9032 37.0899 90.9096 36.4761 90.864 35.865L90.6839 35.829ZM78.7629 40.748C78.9849 40.728 79.356 40.718 79.718 40.657C81.4352 40.3494 83.004 39.487 84.1839 38.202C85.6609 36.651 87.0179 34.9839 88.3839 33.3359C88.7731 32.8969 89.0695 32.3837 89.255 31.827C89.787 29.946 90.3149 28.0559 90.6799 26.1379C90.8505 25.4474 90.7417 24.7175 90.3771 24.1067C90.0126 23.4959 89.4216 23.0536 88.7329 22.876C88.548 22.7973 88.3575 22.7328 88.1629 22.683C86.363 22.2192 84.4717 22.2466 82.686 22.7623C80.9003 23.278 79.2856 24.2631 78.01 25.615C75.6301 28.0076 74.158 31.1546 73.8469 34.515C73.6766 36.0283 73.9918 37.5565 74.7469 38.879C75.5909 40.38 77.0379 40.7109 78.7659 40.7469L78.7629 40.748Z"
    fill="#78C383" />
  <path
    d="M118.185 18.161C118.625 17.785 119.056 17.44 119.46 17.067C120.511 16.1415 121.799 15.5259 123.18 15.2889C124.031 15.1886 124.887 15.4305 125.56 15.9614C126.233 16.4923 126.667 17.2688 126.768 18.12V18.162C126.878 20.5839 126.402 22.9966 125.38 25.1949C124.586 27.1109 123.65 28.968 122.73 30.829C122.613 31.0013 122.553 31.2061 122.559 31.4143C122.565 31.6224 122.636 31.8235 122.763 31.989C123.231 32.6615 123.78 33.274 124.398 33.813C125.998 35.02 127.672 36.144 129.352 37.244C130.125 37.6927 131.006 37.9225 131.9 37.9089C132.451 37.9339 132.559 37.6819 132.558 37.2409C132.558 36.1199 132.579 34.992 132.549 33.869C132.476 31.152 132.377 28.4369 132.292 25.7199C132.212 23.2549 132.157 20.7899 132.052 18.3259C132.015 18.0003 131.86 17.6994 131.617 17.48C131.302 17.2345 131.078 16.8913 130.979 16.5045C130.881 16.1176 130.914 15.7091 131.073 15.343C131.48 14.211 131.914 13.0849 132.404 11.9869C132.512 11.6889 132.729 11.443 133.011 11.2988C133.294 11.1546 133.62 11.1228 133.925 11.2099C134.204 11.2804 134.452 11.4409 134.63 11.6666C134.808 11.8923 134.907 12.1704 134.911 12.458C134.923 12.538 134.932 12.624 134.946 12.707C135.165 14.082 135.558 14.353 136.928 14.558C138.334 14.7614 139.722 15.071 141.081 15.484C143.204 16.143 144.436 17.856 145.559 19.63C147.032 21.952 146.953 24.4649 146.328 27.0129C145.484 30.245 143.779 33.1877 141.395 35.5279C139.82 37.1449 138.08 38.6059 136.351 40.0649C135.46 40.8504 134.345 41.3353 133.163 41.4509C132.146 41.4785 131.133 41.3087 130.18 40.9509C128.003 40.1133 125.95 38.9819 124.08 37.588C122.88 36.764 121.705 35.896 120.525 35.036C119.848 34.544 119.644 34.6 119.554 35.436C119.479 36.116 119.524 36.809 119.492 37.495C119.442 38.548 119.373 39.595 119.308 40.651C119.297 40.7509 119.274 40.849 119.238 40.943C119.068 41.458 118.906 42.0009 118.283 42.1259C117.981 42.1714 117.673 42.1296 117.394 42.0056C117.116 41.8816 116.878 41.6805 116.71 41.426C116.158 40.6961 115.867 39.8018 115.885 38.8869C115.825 37.5479 115.834 36.206 115.811 34.865C115.734 30.3543 115.658 25.8443 115.581 21.3349C115.568 20.4959 115.536 19.6539 115.556 18.8199C115.57 18.1509 115.656 17.459 116.444 17.244C117.232 17.029 117.716 17.498 118.185 18.161ZM136.026 37.0799L136.219 37.13C136.848 36.639 137.51 36.1839 138.102 35.6519C140.288 33.5573 141.969 30.9925 143.017 28.1519C143.895 26.1699 143.95 23.9205 143.17 21.8979C142.332 19.6679 140.995 17.96 138.58 17.391C137.627 17.167 136.622 17.163 135.646 17.031C135.294 16.984 135.198 17.062 135.2 17.431C135.219 23.031 135.209 28.631 135.635 34.217C135.708 35.175 135.893 36.124 136.027 37.078L136.026 37.0799ZM118.733 26.558C118.733 27.027 118.702 27.4999 118.741 27.9659C118.776 28.5159 118.86 29.0617 118.991 29.5969C119.128 30.1059 119.442 30.214 119.865 29.911C120.247 29.6406 120.591 29.3192 120.886 28.9559C122.236 27.1521 123.176 25.0755 123.64 22.8709C123.916 21.9154 123.951 20.9061 123.74 19.9339C123.682 19.613 123.534 19.3151 123.314 19.0746C123.094 18.834 122.81 18.6607 122.495 18.5747C122.18 18.4887 121.848 18.4935 121.536 18.5886C121.224 18.6837 120.945 18.8651 120.732 19.1119C120.255 19.6495 119.882 20.271 119.632 20.9449C118.924 22.7268 118.616 24.6429 118.732 26.557L118.733 26.558Z"
    fill="#78C383" />
  <path
    d="M276.512 37.9439V46.5949C276.512 48.2059 276.498 49.817 276.522 51.427C276.528 51.812 276.414 51.907 276.042 51.895C275.272 51.867 274.497 51.857 273.728 51.895C273.273 51.919 273.179 51.7749 273.18 51.3349C273.195 44.3729 273.198 37.4103 273.19 30.447C273.19 25.983 273.196 21.5209 273.18 17.0579C273.18 16.6419 273.28 16.512 273.704 16.53C274.491 16.564 275.281 16.557 276.07 16.53C276.42 16.519 276.526 16.618 276.521 16.974C276.5 18.346 276.513 19.7189 276.513 21.2049C276.673 21.0319 276.778 20.941 276.859 20.833C281.633 14.446 290.704 14.642 295.749 19.352C297.571 21.0011 298.913 23.1118 299.634 25.4609C300.355 27.81 300.427 30.3102 299.844 32.6972C299.261 35.0843 298.044 37.2694 296.321 39.0217C294.599 40.774 292.435 42.0283 290.058 42.6519C287.769 43.2525 285.358 43.2045 283.095 42.5135C280.832 41.8225 278.805 40.5156 277.242 38.739C277.024 38.518 276.815 38.2729 276.512 37.9439ZM296.878 29.5439C296.83 29.0269 296.813 28.503 296.728 27.995C296.502 26.3805 295.896 24.8428 294.959 23.5086C294.022 22.1745 292.782 21.082 291.34 20.3212C289.898 19.5605 288.296 19.1532 286.666 19.133C285.036 19.1128 283.424 19.4801 281.964 20.2049C277.964 22.1349 275.864 26.2899 276.364 30.9849C276.519 32.3681 276.956 33.7046 277.649 34.9119C278.341 36.1193 279.274 37.1717 280.389 38.004C281.505 38.8363 282.779 39.4309 284.134 39.7508C285.488 40.0707 286.894 40.1092 288.264 39.864C290.681 39.4248 292.867 38.1512 294.442 36.2652C296.016 34.3792 296.878 32.0005 296.878 29.5439Z"
    fill="#F89838" />
  <path
    d="M6.60804 5.48396C5.48704 6.60896 4.37401 7.74191 3.24501 8.85591C2.81333 9.32203 2.33258 9.74019 1.81105 10.103C1.38565 10.3246 0.920801 10.4604 0.443005 10.5029C0.0700048 10.5609 -0.0569923 10.287 0.0210077 9.946C0.0649573 9.75072 0.135253 9.56226 0.229992 9.38594C2.70399 4.88594 6.19395 1.62594 11.3099 0.385938C13.2983 -0.0461402 15.3495 -0.107218 17.36 0.205885C18.6978 0.410041 20.023 0.690272 21.329 1.045C21.7945 1.18525 22.2369 1.39308 22.642 1.66194C23.3572 2.06229 23.9368 2.66677 24.3068 3.39815C24.6767 4.12952 24.8203 4.95455 24.719 5.7679C24.5238 7.89635 23.8021 9.94287 22.619 11.723C20.6361 14.7408 18.2507 17.474 15.5289 19.847C14.8289 20.496 14.116 21.138 13.374 21.739C13.0337 21.9846 12.7698 22.3216 12.613 22.7109C12.4563 23.1002 12.4129 23.526 12.4879 23.9389C13.0739 27.9839 13.643 32.0299 14.2369 36.0729C14.3709 36.9829 14.6069 37.878 14.7369 38.79C14.7737 39.084 14.7027 39.3813 14.537 39.6269C14.075 40.2421 13.5626 40.8179 13.005 41.348C12.252 42.041 11.522 41.8479 11.272 40.8599C10.824 39.0939 10.4019 37.3159 10.0809 35.5229C9.55194 32.5739 9.10702 29.606 8.63502 26.649C8.57702 26.283 8.404 26.116 8.042 26.123C7.342 26.137 6.63294 26.1649 5.92994 26.1539C5.47902 26.1586 5.02884 26.1158 4.58693 26.026C4.47278 26.0074 4.36348 25.9665 4.26515 25.9056C4.16682 25.8447 4.08145 25.765 4.01393 25.6711C3.94641 25.5772 3.89801 25.4709 3.87159 25.3584C3.84518 25.2458 3.84128 25.1291 3.86 25.015L3.86598 24.9799C3.88256 24.5405 4.00781 24.1121 4.23048 23.7329C4.45315 23.3537 4.7663 23.0355 5.14198 22.807C5.53844 22.5586 5.96138 22.3553 6.40297 22.2009C6.84395 22.0543 7.229 21.7752 7.5055 21.4017C7.78201 21.0282 7.93655 20.5785 7.94801 20.114C8.03947 17.7013 7.92133 15.2852 7.59498 12.8929C7.30398 10.6329 7.08802 8.36297 6.83802 6.09297C6.81802 5.91397 6.79 5.73789 6.766 5.55989L6.60804 5.48396ZM15.679 2.61897L15.672 2.67195C15.421 2.67195 15.172 2.68295 14.917 2.67195C13.8761 2.59284 12.8314 2.76251 11.869 3.16694C11.5181 3.273 11.2168 3.50124 11.0198 3.81038C10.8227 4.11951 10.7429 4.489 10.7949 4.85188C10.8859 6.99688 10.9179 9.14596 11.0809 11.286C11.2299 13.238 11.458 15.1859 11.768 17.1199C11.983 18.4639 12.3 18.552 13.521 17.895C14.5517 17.2908 15.4561 16.4936 16.1849 15.5469C17.9627 13.3176 19.4931 10.9019 20.749 8.34199C20.8234 8.19413 20.866 8.03222 20.874 7.8669C20.898 7.2799 20.927 6.69191 20.907 6.10591C20.9609 5.34722 20.7224 4.59675 20.2404 4.00837C19.7584 3.42 19.0694 3.03842 18.315 2.94197C17.455 2.75297 16.56 2.72097 15.679 2.61897Z"
    fill="#78C383" />
  <path
    d="M255.365 29.7399C251.657 29.7399 247.95 29.7459 244.241 29.7299C243.847 29.7299 243.741 29.8229 243.75 30.2299C243.873 34.8479 247.113 39.03 251.383 39.773C255.873 40.559 259.629 39.235 262.352 35.43C262.644 35.0219 262.923 34.6009 263.181 34.1709C263.317 33.9439 263.421 33.8709 263.686 34.0109C264.407 34.4109 265.133 34.7889 265.867 35.1559C266.114 35.2789 266.175 35.3859 266.032 35.6559C265.06 37.6876 263.573 39.4292 261.719 40.7075C259.865 41.9859 257.708 42.7562 255.464 42.9419C252.953 43.2641 250.402 42.9243 248.064 41.956C246.277 41.1624 244.694 39.9707 243.438 38.4721C242.182 36.9734 241.285 35.2074 240.816 33.309C240.023 30.5385 240.11 27.59 241.065 24.8711C242.02 22.1522 243.796 19.7969 246.147 18.1309C248.705 16.4101 251.79 15.6509 254.855 15.9879C257.557 16.1309 260.139 17.1488 262.212 18.888C263.543 19.9845 264.644 21.3329 265.452 22.8559C266.261 24.3788 266.76 26.0464 266.923 27.763C266.974 28.23 266.977 28.701 267.036 29.163C267.092 29.606 266.967 29.7539 266.484 29.7509C262.784 29.7289 259.073 29.7399 255.365 29.7399ZM263.333 26.8059C262.227 20.9929 257.233 18.73 252.949 18.987C250.573 19.0928 248.331 20.1149 246.693 21.8389C245.422 23.2488 244.526 24.9558 244.087 26.8029L263.333 26.8059Z"
    fill="#F89838" />
  <path
    d="M198.661 23.342C198.661 17.217 198.669 11.092 198.646 4.96699C198.646 4.43499 198.801 4.347 199.287 4.352C202.257 4.379 205.228 4.33694 208.197 4.39094C210.161 4.33741 212.125 4.52991 214.041 4.96394C216.11 5.47981 217.917 6.73723 219.119 8.49751C220.322 10.2578 220.836 12.3985 220.565 14.513C220.525 15.6735 220.242 16.8127 219.735 17.8574C219.228 18.9021 218.508 19.8291 217.621 20.5789C216.02 21.9112 214.026 22.6818 211.945 22.7729C208.866 22.9479 205.78 23.004 202.696 23.083C202.286 23.093 202.168 23.177 202.168 23.603C202.183 29.694 202.174 35.7859 202.188 41.8769C202.188 42.2989 202.118 42.4609 201.651 42.4379C200.797 42.3929 199.939 42.412 199.084 42.432C198.764 42.439 198.654 42.3649 198.655 42.0209C198.664 36.9543 198.664 31.8877 198.655 26.821V23.347L198.661 23.342ZM202.178 13.68V19.264C202.178 19.492 202.152 19.6789 202.498 19.6729C205.412 19.6279 208.333 19.701 211.24 19.54C212.688 19.5516 214.086 19.0073 215.145 18.0192C216.203 17.0311 216.843 15.6745 216.931 14.229C217.082 12.9007 216.75 11.5624 215.995 10.4589C215.24 9.35551 214.114 8.5607 212.821 8.21992C211.609 7.96717 210.376 7.82997 209.138 7.81001C206.976 7.74501 204.815 7.799 202.653 7.779C202.284 7.779 202.173 7.85892 202.173 8.24592C202.19 10.0529 202.178 11.869 202.178 13.68Z"
    fill="#F89838" />
  <path
    d="M52.465 62.2299C52.5547 60.9847 52.8751 59.7671 53.4099 58.639C55.6339 53.602 57.05 48.282 58.868 43.107C58.909 42.8721 58.864 42.6303 58.741 42.426C57.141 39.39 55.441 36.401 53.941 33.316C52.993 31.365 52.3409 29.27 51.5459 27.244C51.3749 26.808 51.1689 26.386 50.9639 25.963C50.8535 25.7893 50.8111 25.5809 50.8449 25.3779C50.8787 25.1749 50.9863 24.9916 51.147 24.863C51.5746 24.49 52.0367 24.1585 52.527 23.873C52.8135 23.6825 53.1637 23.6132 53.5011 23.6805C53.8385 23.7478 54.1355 23.9462 54.3269 24.232C54.3449 24.258 54.361 24.285 54.377 24.312C54.7114 24.7919 54.9769 25.3163 55.1659 25.8699C55.7989 27.7759 56.3659 29.703 56.9849 31.614C57.622 33.4543 58.5323 35.1883 59.685 36.758C60.246 37.558 60.677 37.5579 61.225 36.7399C61.6594 36.1036 62.0279 35.4248 62.325 34.7139C63.9217 30.7559 65.4963 26.7892 67.049 22.8139C67.693 20.9019 68.7259 19.144 70.0829 17.6509C70.2992 17.4179 70.5333 17.2019 70.783 17.005C71.0087 16.8403 71.2841 16.7583 71.5631 16.7729C71.8421 16.7875 72.1077 16.8976 72.315 17.0849C72.4639 17.2095 72.5613 17.385 72.5884 17.5772C72.6156 17.7695 72.5705 17.9649 72.4619 18.1259C71.0709 21.3199 69.645 24.499 68.316 27.717C66.564 31.96 64.8809 36.225 63.1879 40.488C62.8609 41.313 62.906 41.32 63.611 41.888C63.929 42.1337 64.2202 42.4122 64.4799 42.7189C64.6091 42.8469 64.6823 43.0209 64.6834 43.2027C64.6845 43.3845 64.6136 43.5593 64.486 43.6889C64.4199 43.7562 64.3405 43.809 64.253 43.8439C63.3296 44.2797 62.4808 44.8584 61.7379 45.5589C61.2519 46.4325 60.9073 47.3776 60.717 48.359C59.207 52.759 57.705 57.1659 56.173 61.5589C55.9388 62.1508 55.6505 62.7199 55.3119 63.259C55.1872 63.5482 54.966 63.7851 54.6861 63.9294C54.4061 64.0736 54.0849 64.1163 53.777 64.05C53.4437 63.9882 53.1402 63.818 52.9136 63.5659C52.687 63.3138 52.55 62.9939 52.524 62.656C52.492 62.5 52.477 62.3329 52.465 62.2299Z"
    fill="#78C383" />
  <path
    d="M46.0869 31.526C45.9949 31.697 45.8999 31.865 45.8109 32.038C44.6814 34.378 43.3501 36.6152 41.8319 38.724C40.8557 40.0818 39.511 41.1315 37.9569 41.749C37.3469 42.0072 36.6854 42.1208 36.0242 42.0812C35.3629 42.0416 34.7198 41.8497 34.1449 41.5206C33.57 41.1915 33.0791 40.7341 32.7101 40.184C32.3411 39.6338 32.1042 39.0058 32.018 38.349C31.6306 35.9455 32.0052 33.481 33.089 31.301C34.8316 27.591 37.1842 24.1995 40.049 21.2679C41.0783 20.1796 42.3177 19.3111 43.692 18.715C44.4824 18.3222 45.3859 18.221 46.2437 18.429C47.1014 18.6369 47.8583 19.1409 48.381 19.8521C48.8028 20.3371 49.0279 20.9624 49.012 21.605C48.949 24.505 48.827 27.4051 48.856 30.3051C48.8647 33.7793 49.377 37.2338 50.377 40.561C50.4947 40.941 50.5008 41.3468 50.3944 41.7301C50.288 42.1134 50.0737 42.4581 49.777 42.723C49.629 42.9037 49.4348 43.0408 49.2151 43.12C48.9954 43.1992 48.7584 43.2173 48.5292 43.1726C48.3 43.1279 48.0873 43.022 47.9135 42.8661C47.7396 42.7102 47.6113 42.51 47.542 42.287C47.1894 41.3123 46.9502 40.3004 46.829 39.271C46.589 37.071 46.4769 34.862 46.3059 32.656C46.2779 32.289 46.2199 31.925 46.1749 31.556L46.0869 31.526ZM45.2949 23.9659C45.2949 23.1249 45.3029 22.466 45.2949 21.816C45.2879 21.455 45.122 21.263 44.751 21.457C43.9931 21.7643 43.2746 22.1611 42.611 22.639C39.0733 25.5626 36.528 29.5101 35.325 33.939C34.9771 35.2017 34.8732 36.5194 35.0189 37.8211C35.0265 38.0428 35.1181 38.2532 35.2753 38.4098C35.4324 38.5664 35.6433 38.6572 35.865 38.6639C36.456 38.7459 37.0573 38.7103 37.6344 38.5591C38.2116 38.4079 38.753 38.1441 39.2279 37.783C40.1724 36.9997 40.9687 36.0535 41.579 34.989C42.7592 32.9613 43.7097 30.8082 44.413 28.57C44.937 27.014 45.5779 25.481 45.2949 23.97V23.9659Z"
    fill="#78C383" />
  <path
    d="M165.804 32.2911C165.728 30.4011 165.678 28.036 165.521 25.676C165.421 24.155 165.158 22.6521 164.974 21.1401C164.8 20.1427 164.909 19.1165 165.289 18.178C165.472 17.778 165.689 17.378 166.198 17.34C166.729 17.3 167.02 17.66 167.265 18.053C167.665 18.7942 167.862 19.6281 167.836 20.47C167.875 21.558 167.886 22.6481 167.954 23.7341C168.016 24.0376 168.119 24.331 168.262 24.606C168.514 24.4338 168.743 24.2293 168.942 23.998C169.578 23.032 170.182 22.047 170.783 21.058C171.524 19.6768 172.626 18.5219 173.97 17.716C174.53 17.4191 175.126 17.1969 175.744 17.055C176.305 16.9202 176.893 16.9644 177.428 17.1812C177.962 17.398 178.415 17.7766 178.723 18.264C179.65 19.6052 180.296 21.1198 180.623 22.717C181.311 25.449 181.745 28.2389 181.918 31.051C182.054 33.09 182.088 35.1347 182.018 37.1771C181.917 38.2426 181.718 39.2965 181.425 40.326C181.364 40.5808 181.248 40.8191 181.084 41.0236C180.92 41.2281 180.713 41.3939 180.478 41.509C180.383 41.5814 180.275 41.6344 180.159 41.665C180.043 41.6955 179.923 41.703 179.805 41.6869C179.686 41.6709 179.572 41.6316 179.469 41.5713C179.366 41.5111 179.275 41.4312 179.203 41.336C179.12 41.229 179.063 41.1044 179.036 40.972C178.896 40.5774 178.828 40.1607 178.836 39.742C178.908 38.169 178.967 36.591 179.152 35.028C179.358 33.1262 179.345 31.2069 179.113 29.308C178.955 27.3516 178.584 25.4183 178.004 23.543C177.767 22.847 177.46 22.1768 177.088 21.543C176.822 21.1177 176.474 20.7498 176.064 20.461C175.765 20.2042 175.378 20.0735 174.984 20.0965C174.591 20.1194 174.221 20.2943 173.954 20.584C173.465 21.0173 173.031 21.509 172.662 22.048C170.836 24.5642 169.555 27.4331 168.899 30.472C168.605 32.633 168.538 34.819 168.699 36.9941C168.832 37.9085 168.777 38.8402 168.539 39.733C168.476 39.9233 168.403 40.1102 168.32 40.293C168.089 40.751 167.82 41.233 167.234 41.204C166.979 41.1803 166.738 41.0767 166.545 40.9079C166.352 40.7391 166.218 40.5137 166.161 40.264C165.962 39.6622 165.847 39.0361 165.818 38.403C165.773 36.526 165.804 34.6461 165.804 32.2911Z"
    fill="#78C383" />
  <path
    d="M109.643 30.066C109.202 31.02 108.786 31.988 108.314 32.923C107.666 34.208 107.033 35.505 106.289 36.735C105.409 38.1728 104.197 39.379 102.755 40.253C101.925 40.84 100.92 41.1264 99.906 41.065C99.045 40.9353 98.2506 40.5261 97.6449 39.9006C97.0392 39.275 96.656 38.4677 96.5541 37.603C96.2419 35.4827 96.5011 33.3176 97.305 31.331C98.744 27.3628 100.983 23.7325 103.882 20.665C104.853 19.6152 106.006 18.7515 107.287 18.116C107.954 17.7221 108.745 17.5905 109.504 17.7469C110.263 17.9032 110.937 18.3363 111.394 18.962C111.854 19.4582 112.101 20.1147 112.083 20.791C112.023 23.691 111.949 26.591 111.963 29.491C111.941 32.9995 112.434 36.4921 113.428 39.857C113.435 40.3452 113.292 40.8237 113.017 41.2276C112.743 41.6315 112.351 41.9413 111.895 42.115C111.682 42.136 111.468 42.0785 111.295 41.9533C111.121 41.8281 110.999 41.6438 110.951 41.435C110.676 40.6996 110.48 39.9369 110.367 39.16C110.167 37.245 110.067 35.3169 109.944 33.3959C109.876 32.2959 109.854 31.1899 109.812 30.0879L109.643 30.066ZM108.959 23.127C108.959 22.343 108.973 21.756 108.959 21.169C108.932 20.315 108.772 20.186 107.989 20.56C107.327 20.8415 106.713 21.2252 106.17 21.697C103.141 24.4724 100.904 28.0019 99.6851 31.925C99.1859 33.4937 98.9764 35.1402 99.067 36.784C99.118 37.477 99.367 37.9279 99.854 37.9839C100.371 38.1054 100.908 38.1134 101.429 38.0073C101.949 37.9011 102.441 37.6833 102.869 37.369C103.64 36.7038 104.331 35.9515 104.929 35.127C106.12 33.319 107.034 31.3436 107.642 29.266C108.305 27.205 109.237 25.191 108.96 23.127H108.959Z"
    fill="#78C383" />
  <path
    d="M148.072 29.879C148.102 26.4852 149.021 23.1585 150.736 20.23C151.257 19.31 152.025 18.5541 152.953 18.0476C153.881 17.5411 154.932 17.3043 155.988 17.364C156.832 17.3986 157.656 17.6289 158.395 18.0367C159.134 18.4446 159.769 19.0188 160.248 19.714C160.725 20.3606 161.153 21.0417 161.529 21.752C161.975 22.552 162.362 23.3929 162.774 24.2159C162.804 24.2749 162.836 24.334 162.865 24.395C163.565 25.824 163.206 26.495 161.643 26.795C158.492 27.444 155.304 27.9007 152.097 28.163C151.817 28.1365 151.537 28.2224 151.32 28.4019C151.103 28.5813 150.966 28.8396 150.939 29.12C150.931 29.1945 150.931 29.2695 150.939 29.344C150.821 31.9686 151.354 34.5815 152.491 36.95C153.516 38.972 154.716 39.583 156.979 39.376C157.465 39.3459 157.936 39.203 158.357 38.9586C158.778 38.7142 159.135 38.375 159.402 37.968C160.016 37.087 160.639 36.214 161.311 35.38C161.625 34.9917 162.009 34.6657 162.443 34.4189C162.951 34.1369 163.365 34.432 163.305 35.019C163.27 35.4683 163.147 35.9062 162.943 36.308C162.073 37.9431 160.852 39.3649 159.366 40.4709C158.029 41.3806 156.393 41.7411 154.797 41.4779C153.202 41.2147 151.768 40.3479 150.794 39.057C149.639 37.362 148.867 35.4361 148.531 33.413C148.304 32.25 148.219 31.057 148.072 29.879ZM153.135 25.847C153.982 25.788 154.656 25.776 155.317 25.687C156.242 25.557 157.164 25.387 158.075 25.187C158.298 25.137 158.635 24.904 158.651 24.731C158.84 23.3608 158.55 21.9674 157.831 20.786C157.087 19.652 154.468 19.194 153.472 20.739C152.606 22.1706 151.978 23.7336 151.615 25.3669C151.545 25.6389 151.658 25.7199 151.915 25.7369C152.383 25.7679 152.846 25.822 153.137 25.848L153.135 25.847Z"
    fill="#78C383" />
  <path
    d="M25.165 38.1121C25.306 36.6771 25.454 35.243 25.586 33.812C25.847 30.991 26.186 28.1731 26.338 25.3461C26.666 19.4011 26.913 13.4511 27.157 7.50305C27.213 6.14805 27.111 4.78796 27.103 3.42896C27.0909 2.92728 27.1213 2.42549 27.1939 1.92896C27.2181 1.63642 27.3314 1.35835 27.5185 1.1322C27.7056 0.906055 27.9576 0.742783 28.2404 0.664307C28.5233 0.58583 28.8234 0.595957 29.1003 0.693359C29.3772 0.790762 29.6176 0.970714 29.789 1.20898C30.1668 1.62766 30.4571 2.11749 30.6433 2.64978C30.8294 3.18208 30.9076 3.74612 30.873 4.30896C30.713 7.00429 30.5567 9.69969 30.404 12.395C30.176 16.395 29.9389 20.4011 29.7259 24.4041C29.4899 28.8427 29.267 33.282 29.057 37.722C29.0771 38.5068 29.0531 39.2919 28.985 40.074C28.9718 40.3432 28.8847 40.6035 28.7334 40.8265C28.582 41.0495 28.3722 41.2266 28.1269 41.3383C27.8816 41.4499 27.6103 41.4918 27.3427 41.4595C27.0752 41.4272 26.8216 41.3219 26.61 41.155C26.1581 40.8609 25.7897 40.4552 25.5403 39.9772C25.2908 39.4992 25.1688 38.9649 25.186 38.426C25.1805 38.3261 25.1805 38.2259 25.186 38.126L25.165 38.1121Z"
    fill="#78C383" />
  <path
    d="M229.182 20.1399C229.959 19.3139 230.665 18.459 231.482 17.72C232.088 17.1222 232.812 16.658 233.608 16.3574C234.404 16.0569 235.254 15.9265 236.104 15.9749C236.972 16.1197 237.822 16.3613 238.637 16.695C238.682 16.7427 238.715 16.8009 238.733 16.8644C238.75 16.9279 238.752 16.9948 238.737 17.059C238.278 17.839 237.8 18.6075 237.304 19.3649C237.255 19.4185 237.195 19.4596 237.127 19.4845C237.059 19.5094 236.986 19.5175 236.914 19.5079C235.912 19.1475 234.818 19.1393 233.811 19.4848C232.804 19.8302 231.945 20.5086 231.376 21.408C230.259 22.9918 229.599 24.8528 229.47 26.7869C229.048 31.2039 229.23 35.6349 229.189 40.0599C229.183 40.681 229.167 41.3029 229.195 41.9219C229.213 42.2999 229.125 42.4499 228.708 42.4329C227.888 42.3979 227.064 42.4029 226.243 42.4329C225.872 42.4459 225.756 42.3529 225.763 41.9639C225.784 40.2029 225.772 38.4409 225.772 36.6799C225.772 30.1559 225.768 23.6316 225.76 17.1069C225.76 16.6379 225.888 16.5139 226.343 16.5339C227.143 16.5709 227.953 16.5639 228.757 16.5339C229.122 16.5209 229.203 16.6479 229.196 16.9899C229.168 18.0459 229.182 19.0989 229.182 20.1399Z"
    fill="#F89838" />
  <path
    d="M312.557 42.2301C310.916 42.258 309.303 41.7969 307.925 40.9053C306.547 40.0138 305.465 38.7322 304.817 37.2238C304.17 35.7154 303.986 34.0485 304.289 32.4353C304.592 30.822 305.369 29.3355 306.52 28.165C307.67 26.9945 309.144 26.1929 310.751 25.8625C312.359 25.5321 314.029 25.6877 315.548 26.3095C317.067 26.9313 318.367 27.9912 319.282 29.3542C320.197 30.7172 320.685 32.3215 320.685 33.963C320.724 35.0472 320.541 36.1281 320.148 37.1394C319.755 38.1506 319.16 39.0713 318.399 39.8449C317.639 40.6186 316.728 41.229 315.724 41.6391C314.719 42.0492 313.642 42.2503 312.557 42.2301ZM312.557 40.395C315.97 40.395 318.526 37.911 318.526 33.963C318.526 29.991 315.97 27.53 312.557 27.53C309.144 27.53 306.588 29.991 306.588 33.963C306.588 37.911 309.143 40.395 312.557 40.395Z"
    fill="#FEC572" />
  <path
    d="M332.78 34.8691C332.78 32.2691 331.364 30.9451 329.227 30.9451C327.067 30.9451 325.581 32.2921 325.581 35.0321V42.0691H323.468V29.3431H325.582V31.155C326.033 30.4946 326.645 29.9603 327.361 29.6027C328.076 29.245 328.871 29.0758 329.67 29.1111C332.619 29.1111 334.87 30.9221 334.87 34.5681V42.0681H332.78V34.8691Z"
    fill="#FEC572" />
  <path d="M338.326 24.8831H340.44V42.0681H338.326V24.8831Z" fill="#FEC572" />
  <path
    d="M343.689 25.8351C343.693 25.5568 343.78 25.2858 343.937 25.0562C344.094 24.8265 344.316 24.6483 344.574 24.5438C344.832 24.4393 345.115 24.4131 345.388 24.4685C345.661 24.5239 345.911 24.6584 346.108 24.8552C346.305 25.0521 346.439 25.3025 346.495 25.5753C346.55 25.8481 346.524 26.1312 346.419 26.3892C346.315 26.6472 346.137 26.8688 345.907 27.0261C345.677 27.1835 345.406 27.2697 345.128 27.2741C344.938 27.2769 344.75 27.2416 344.574 27.1703C344.398 27.099 344.238 26.9931 344.104 26.8589C343.97 26.7247 343.864 26.5649 343.793 26.389C343.722 26.2132 343.686 26.0248 343.689 25.8351ZM344.037 29.342H346.151V42.068H344.037V29.342Z"
    fill="#FEC572" />
  <path
    d="M359.061 34.8691C359.061 32.2691 357.644 30.9451 355.508 30.9451C353.349 30.9451 351.861 32.2921 351.861 35.0321V42.0691H349.749V29.3431H351.861V31.155C352.312 30.4946 352.925 29.9603 353.64 29.6027C354.355 29.245 355.15 29.0758 355.949 29.1111C358.898 29.1111 361.149 30.9221 361.149 34.5681V42.0681H359.059L359.061 34.8691Z"
    fill="#FEC572" />
  <path
    d="M370.112 42.277C366.489 42.277 363.818 39.7231 363.818 35.6821C363.818 31.6641 366.396 29.132 370.112 29.132C370.922 29.0931 371.732 29.2237 372.489 29.5154C373.246 29.8072 373.934 30.2537 374.509 30.8264C375.084 31.399 375.533 32.0853 375.827 32.8414C376.121 33.5974 376.255 34.4065 376.219 35.2171C376.22 35.6434 376.197 36.0694 376.15 36.4931H365.978C365.978 37.0294 366.087 37.5601 366.296 38.0538C366.506 38.5474 366.813 38.9939 367.198 39.3666C367.584 39.7393 368.041 40.0307 368.541 40.2233C369.042 40.416 369.576 40.5061 370.112 40.4881C370.884 40.5474 371.653 40.3492 372.3 39.9247C372.947 39.5003 373.435 38.8734 373.688 38.142H375.964C375.605 39.3944 374.829 40.4866 373.765 41.2385C372.701 41.9903 371.412 42.3567 370.112 42.277ZM366.003 34.777H374.037C374.056 34.2518 373.963 33.7284 373.766 33.2414C373.568 32.7543 373.27 32.3145 372.891 31.9506C372.511 31.5867 372.059 31.3071 371.565 31.1298C371.07 30.9526 370.543 30.8818 370.019 30.9221C368.975 30.9011 367.966 31.2953 367.213 32.0179C366.46 32.7405 366.024 33.7325 366.002 34.7761L366.003 34.777Z"
    fill="#FEC572" />
  <path
    d="M177.527 6.72852C177.527 5.93945 177.709 5.20703 178.072 4.53125C178.439 3.85547 178.945 3.32422 179.59 2.9375C180.238 2.54687 180.938 2.35156 181.688 2.35156C182.438 2.35156 183.135 2.54687 183.779 2.9375C184.424 3.32422 184.928 3.85547 185.291 4.53125C185.658 5.20703 185.842 5.93945 185.842 6.72852C185.842 7.49805 185.666 8.21875 185.314 8.89062C184.963 9.5625 184.463 10.1035 183.814 10.5137C183.17 10.9199 182.461 11.123 181.688 11.123C180.918 11.123 180.209 10.9219 179.561 10.5195C178.916 10.1133 178.416 9.57422 178.061 8.90234C177.705 8.23047 177.527 7.50586 177.527 6.72852ZM178.201 6.72852C178.201 7.40039 178.357 8.02344 178.67 8.59766C178.982 9.16797 179.406 9.61523 179.941 9.93945C180.48 10.2637 181.062 10.4258 181.688 10.4258C182.316 10.4258 182.9 10.2617 183.439 9.93359C183.979 9.60156 184.4 9.15234 184.705 8.58594C185.014 8.01953 185.168 7.40039 185.168 6.72852C185.168 6.06055 185.014 5.44531 184.705 4.88281C184.4 4.31641 183.979 3.87109 183.439 3.54688C182.9 3.21875 182.316 3.05469 181.688 3.05469C181.062 3.05469 180.48 3.2168 179.941 3.54102C179.402 3.86133 178.977 4.30664 178.664 4.87695C178.355 5.44727 178.201 6.06445 178.201 6.72852ZM180.826 7.16797V9.14844H180V4.17383H181.617C182.215 4.17383 182.678 4.30273 183.006 4.56055C183.338 4.81445 183.504 5.18555 183.504 5.67383C183.504 6.1543 183.254 6.52148 182.754 6.77539C183.23 6.9707 183.471 7.36914 183.475 7.9707V8.32812C183.475 8.66406 183.508 8.90625 183.574 9.05469V9.14844H182.725C182.67 9.00781 182.643 8.75781 182.643 8.39844C182.643 8.03516 182.637 7.82031 182.625 7.75391C182.562 7.37891 182.307 7.18359 181.857 7.16797H180.826ZM180.826 6.41797H181.74C182.021 6.41016 182.248 6.3418 182.42 6.21289C182.592 6.08398 182.678 5.91406 182.678 5.70312C182.678 5.41797 182.602 5.2168 182.449 5.09961C182.297 4.97852 182.025 4.91797 181.635 4.91797H180.826V6.41797Z"
    fill="#78C383" />
</svg>