<svg width="154" height="154" viewBox="0 0 154 154" fill="none" xmlns="http://www.w3.org/2000/svg">
<path d="M77 154C119.526 154 154 119.526 154 77C154 34.4741 119.526 0 77 0C34.4741 0 0 34.4741 0 77C0 119.526 34.4741 154 77 154Z" fill="#68C453"/>
<path d="M77 147C115.66 147 147 115.66 147 77C147 38.3401 115.66 7 77 7C38.3401 7 7 38.3401 7 77C7 115.66 38.3401 147 77 147Z" fill="#B2E68D"/>
<path d="M76.5 140C111.57 140 140 111.57 140 76.5C140 41.4299 111.57 13 76.5 13C41.4299 13 13 41.4299 13 76.5C13 111.57 41.4299 140 76.5 140Z" fill="white"/>
<g filter="url(#filter0_d)">
<path d="M45 59.7158H109.67V102H45V59.7158Z" fill="white"/>
<path d="M77.335 59.7158H109.67V102H77.335V59.7158Z" fill="#EBEBEB"/>
<path d="M50.0522 67.1123H72.4374V73.3309H50.0522V67.1123Z" fill="#C0DAFB"/>
<path d="M50.0522 88.3857H72.4374V94.6035H50.0522V88.3857Z" fill="#C0DAFB"/>
<path d="M50.0522 77.749H72.4374V83.9668H50.0522V77.749Z" fill="#C0DAFB"/>
<path d="M105.939 94.6034H81.0659V92.1169C81.0659 85.2482 86.6336 79.6797 93.5022 79.6797C100.371 79.6797 105.939 85.2482 105.939 92.1169V94.6034Z" fill="#39BF7C"/>
<path d="M100.964 74.5746C100.964 78.6956 97.6233 82.036 93.5023 82.036C89.3813 82.036 86.04 78.6956 86.04 74.5746C86.04 70.4527 89.3813 67.1123 93.5023 67.1123C97.6233 67.1123 100.964 70.4527 100.964 74.5746Z" fill="#FFA78F"/>
<path d="M81.0658 55.9749V54.7311C81.0658 52.6706 79.3951 51 77.3346 51C75.2741 51 73.6035 52.6706 73.6035 54.7311V55.9749H67.3857V63.4363H87.2835V55.9749H81.0658Z" fill="#FF6680"/>
<path d="M81.0661 55.9749V54.7311C81.0661 52.6706 79.3955 51 77.335 51V63.4363H87.2847V55.9749H81.0661Z" fill="#D14960"/>
</g>
<defs>
<filter id="filter0_d" x="41" y="51" width="72.67" height="58.9995" filterUnits="userSpaceOnUse" color-interpolation-filters="sRGB">
<feFlood flood-opacity="0" result="BackgroundImageFix"/>
<feColorMatrix in="SourceAlpha" type="matrix" values="0 0 0 0 0 0 0 0 0 0 0 0 0 0 0 0 0 0 127 0" result="hardAlpha"/>
<feOffset dy="4"/>
<feGaussianBlur stdDeviation="2"/>
<feColorMatrix type="matrix" values="0 0 0 0 0 0 0 0 0 0 0 0 0 0 0 0 0 0 0.25 0"/>
<feBlend mode="normal" in2="BackgroundImageFix" result="effect1_dropShadow"/>
<feBlend mode="normal" in="SourceGraphic" in2="effect1_dropShadow" result="shape"/>
</filter>
</defs>
</svg>
