<svg width="35" height="45" viewBox="0 0 35 45" fill="none" xmlns="http://www.w3.org/2000/svg">
  <path d="M34.4005 1.90566V7.30511C34.4005 8.64281 33.5162 9.82004 32.2335 10.1905L25.829 12.0384V34.5862C25.829 40.2273 20.1366 44.8 13.1146 44.8C12.5026 44.8 11.9004 44.7648 11.3118 44.6973C5.14349 43.9951 0.399414 39.7359 0.399414 34.5862C0.399414 28.9443 6.09269 24.3715 13.1146 24.3715C16.686 24.3715 19.9139 25.555 22.2234 27.4597V5.2283C22.2234 3.89961 23.0932 2.72956 24.3624 2.35008L31.9594 0.0803264C33.1764 -0.282886 34.4005 0.631139 34.4005 1.90566Z" fill="#C2ECFF"/>
  <path d="M34.4007 1.90566V7.30511C34.4007 8.64281 33.5165 9.82004 32.2337 10.1905L25.8292 12.0384V34.5862C25.8292 40.2273 20.1368 44.8 13.1149 44.8C12.5028 44.8 11.9006 44.7648 11.312 44.6973C17.4803 43.9951 22.2235 39.7359 22.2235 34.5862V5.2283C22.2235 3.89961 23.0934 2.72956 24.3626 2.35008L31.9596 0.0803264C33.1766 -0.282886 34.4007 0.631139 34.4007 1.90566Z" fill="#98DCF4"/>
  <path d="M6.14558 36.9264C7.56571 36.9264 8.71694 36.0096 8.71694 34.8786C8.71694 33.7477 7.56571 32.8309 6.14558 32.8309C4.72546 32.8309 3.57422 33.7477 3.57422 34.8786C3.57422 36.0096 4.72546 36.9264 6.14558 36.9264Z" fill="#EDA1AB"/>
  <path d="M20.0836 36.9508C21.5037 36.9508 22.6549 36.034 22.6549 34.903C22.6549 33.7721 21.5037 32.8553 20.0836 32.8553C18.6634 32.8553 17.5122 33.7721 17.5122 34.903C17.5122 36.034 18.6634 36.9508 20.0836 36.9508Z" fill="#EDA1AB"/>
  <path d="M15.3581 33.1388C15.3581 31.7521 14.3535 31.6218 13.1144 31.6218C11.8752 31.6218 10.8706 31.7521 10.8706 33.1388C10.8706 34.5255 11.8752 35.6496 13.1144 35.6496C14.3535 35.6496 15.3581 34.5254 15.3581 33.1388Z" fill="#4E5660"/>
  <path d="M6.5752 30.7276C6.21277 30.7276 5.91895 31.0215 5.91895 31.3839V32.4339C5.91895 32.7963 6.21277 33.0901 6.5752 33.0901C6.93762 33.0901 7.23145 32.7963 7.23145 32.4339V31.3839C7.23145 31.0215 6.93771 30.7276 6.5752 30.7276Z" fill="#4E5660"/>
  <path d="M19.6533 30.752C19.2908 30.752 18.9971 31.0459 18.9971 31.4083V32.4583C18.9971 32.8207 19.2908 33.1145 19.6533 33.1145C20.0158 33.1145 20.3096 32.8207 20.3096 32.4583V31.4083C20.3096 31.0459 20.0157 30.752 19.6533 30.752Z" fill="#4E5660"/>
  <path d="M19.3206 11.0681V19.1995C19.3206 20.5173 17.9871 21.5856 16.3421 21.5856C14.6962 21.5856 13.3627 20.5173 13.3627 19.1995C13.3627 17.8818 14.6962 16.8143 16.3421 16.8143C16.4191 16.8143 16.4952 16.8169 16.5713 16.8213V11.51L10.7045 13.4149V20.3913C10.7045 21.709 9.37096 22.7765 7.72508 22.7765C6.08008 22.7765 4.74658 21.709 4.74658 20.3913C4.74658 19.0735 6.08008 18.006 7.72508 18.006C7.80208 18.006 7.87908 18.0078 7.95433 18.013V13.0316C7.95433 11.9073 8.68321 10.9133 9.75508 10.5738L13.8912 9.26564L15.965 8.60939C17.6275 8.08439 19.3206 9.32514 19.3206 11.0681Z" fill="#95D6A4"/>
  <path d="M19.3202 11.0681V19.1995C19.3202 20.5173 17.9867 21.5856 16.3417 21.5856C14.6958 21.5856 13.3623 20.5173 13.3623 19.1995C13.3623 17.8818 14.6958 16.8143 16.3417 16.8143C16.4187 16.8143 16.4948 16.8169 16.5709 16.8213V11.51C16.5709 10.0041 15.3057 9.13439 13.8908 9.26564L15.9646 8.60939C17.6271 8.08439 19.3202 9.32514 19.3202 11.0681Z" fill="#68C453"/>
  <path d="M32.0969 36.3114L31.4247 36.5047V42.3218C31.4247 43.6908 30.0395 44.8 28.3305 44.8C27.8155 44.8 27.329 44.6991 26.9015 44.5201C25.9113 44.1069 25.2363 43.2777 25.2363 42.3218C25.2363 40.9537 26.6215 39.8445 28.3305 39.8445C28.4105 39.8445 28.4895 39.8474 28.5685 39.8521V36.1448C28.5685 35.0842 29.2702 34.1521 30.2888 33.8598L33.5637 32.9195C33.8455 32.8387 34.1291 33.0366 34.1541 33.3286C34.2677 34.6599 33.4297 35.9289 32.0969 36.3114Z" fill="#95D6A4"/>
  <path d="M32.0968 36.3114L31.4246 36.5047V42.3218C31.4246 43.6908 30.0394 44.8 28.3304 44.8C27.8154 44.8 27.3289 44.6991 26.9014 44.5201C27.8915 44.1069 28.5665 43.2777 28.5665 42.3218L28.5684 39.8522V36.1448C28.5684 35.0843 29.2701 34.1522 30.2888 33.8599L33.5636 32.9196C33.8454 32.8387 34.129 33.0367 34.154 33.3287C34.2676 34.6599 33.4296 35.9289 32.0968 36.3114Z" fill="#68C453"/>
</svg>
