<svg width="31" height="23" viewBox="0 0 31 23" fill="none" xmlns="http://www.w3.org/2000/svg">
<path d="M30.2041 9.98677L19.37 0.42285C19.0608 0.149847 18.6486 -2.76811e-06 18.2091 -2.70039e-06C17.7691 -2.63259e-06 17.3571 0.150063 17.0478 0.42285L16.0642 1.29138C15.7552 1.56395 15.5849 1.92803 15.5849 2.31622C15.5849 2.70419 15.7552 3.08054 16.0642 3.35311L22.3846 8.94471L2.30431 8.94472C1.39896 8.94472 0.683596 9.57038 0.683596 10.3698L0.683596 11.5977C0.683596 12.3971 1.39896 13.0858 2.30431 13.0858L22.4563 13.0858L16.0644 18.7087C15.7554 18.9817 15.5852 19.3358 15.5852 19.724C15.5852 20.1118 15.7554 20.4711 16.0644 20.7439L17.0481 21.6096C17.3574 21.8826 17.7693 22.0314 18.2093 22.0314C18.6488 22.0314 19.061 21.8807 19.3703 21.6077L30.2043 12.044C30.5143 11.7701 30.6848 11.4045 30.6836 11.0159C30.6846 10.626 30.5143 10.2602 30.2041 9.98677Z" fill="#68C453"/>
</svg>
