<svg width="30" height="25" viewBox="0 0 30 25" fill="none" xmlns="http://www.w3.org/2000/svg">
<path d="M29.5205 11.3324L18.6864 0.479826C18.3772 0.170038 17.965 -3.1411e-06 17.5255 -3.06425e-06C17.0855 -2.98732e-06 16.6735 0.170283 16.3643 0.479827L15.3806 1.46538C15.0716 1.77468 14.9013 2.18781 14.9013 2.62831C14.9013 3.06856 15.0716 3.49562 15.3806 3.80492L21.701 10.15L1.62072 10.15C0.715362 10.15 1.89881e-06 10.8599 2.05742e-06 11.7671L2.30103e-06 13.1604C2.45964e-06 14.0675 0.715363 14.8491 1.62072 14.8491L21.7727 14.8491L15.3809 21.2295C15.0718 21.5393 14.9016 21.9412 14.9016 22.3817C14.9016 22.8217 15.0718 23.2295 15.3809 23.539L16.3645 24.5214C16.6738 24.8312 17.0857 25 17.5257 25C17.9652 25 18.3774 24.829 18.6867 24.5192L29.5207 13.6668C29.8307 13.3561 30.0012 12.9412 30 12.5002C30.001 12.0578 29.8307 11.6427 29.5205 11.3324Z" fill="white"/>
</svg>
