<svg width="27" height="23" viewBox="0 0 27 23" fill="none" xmlns="http://www.w3.org/2000/svg">
<path d="M26.5684 10.182L16.8178 0.431118C16.5394 0.152779 16.1685 0 15.7729 0C15.3769 0 15.0062 0.152999 14.7278 0.431118L13.8425 1.31662C13.5644 1.59452 13.4112 1.96572 13.4112 2.36149C13.4112 2.75705 13.5644 3.14075 13.8425 3.41865L19.5309 9.11956H1.45865C0.643824 9.11956 0 9.75746 0 10.5725V11.8244C0 12.6394 0.643824 13.3416 1.45865 13.3416H19.5955L13.8428 19.0744C13.5646 19.3527 13.4114 19.7138 13.4114 20.1096C13.4114 20.5049 13.5646 20.8713 13.8428 21.1494L14.728 22.032C15.0064 22.3104 15.3771 22.4621 15.7731 22.4621C16.1687 22.4621 16.5397 22.3084 16.818 22.0301L26.5687 12.2794C26.8477 12.0002 27.0011 11.6275 27 11.2312C27.0009 10.8337 26.8477 10.4608 26.5684 10.182Z" fill="white"/>
</svg>
