<svg width="44" height="43" viewBox="0 0 44 43" fill="none" xmlns="http://www.w3.org/2000/svg">
<g clip-path="url(#clip0_869_8487)">
<path d="M34.1141 39.8916H12.374C5.71126 39.8916 0.310059 34.616 0.310059 28.1082V6.87365C0.310059 4.75339 2.06978 3.03467 4.24044 3.03467H34.1141C36.2849 3.03467 38.0445 4.75347 38.0445 6.87365V36.0526C38.0446 38.1728 36.2849 39.8916 34.1141 39.8916Z" fill="#F7EF87"/>
<path d="M38.0445 6.8735C38.0445 6.63142 38.0205 6.39484 37.9766 6.16524C37.9124 6.16302 37.8482 6.16064 37.7835 6.16064C36.3488 6.16064 35 6.70632 33.9855 7.69725L17.6955 23.6084C16.4325 24.842 15.5933 26.4009 15.2687 28.1164L14.5959 31.672C14.3546 32.947 14.7025 34.2491 15.5505 35.2446C16.4009 36.243 17.6474 36.8155 18.9702 36.8156H18.9705C19.2426 36.8156 19.5172 36.7909 19.7867 36.7422L23.427 36.085C25.1834 35.7679 26.7793 34.9482 28.0424 33.7146L38.0446 23.945V6.8735H38.0445Z" fill="#EED076"/>
<path d="M11.9475 14.3928C13.4209 14.3928 14.6153 13.4638 14.6153 12.3177C14.6153 11.1717 13.4209 10.2427 11.9475 10.2427C10.4742 10.2427 9.27979 11.1717 9.27979 12.3177C9.27979 13.4638 10.4742 14.3928 11.9475 14.3928Z" fill="#E8899E"/>
<path d="M26.4075 14.3928C27.8809 14.3928 29.0753 13.4638 29.0753 12.3177C29.0753 11.1717 27.8809 10.2427 26.4075 10.2427C24.9341 10.2427 23.7397 11.1717 23.7397 12.3177C23.7397 13.4638 24.9341 14.3928 26.4075 14.3928Z" fill="#E8899E"/>
<path d="M13.5024 10.9101C13.1546 10.9101 12.8726 10.6346 12.8726 10.2948V9.28076C12.8726 8.94099 13.1546 8.66553 13.5024 8.66553C13.8503 8.66553 14.1323 8.94099 14.1323 9.28076V10.2948C14.1323 10.6346 13.8503 10.9101 13.5024 10.9101Z" fill="#4E5660"/>
<path d="M19.1778 11.5696C18.4222 11.5696 17.7038 11.25 17.2067 10.6927C16.9782 10.4366 17.0056 10.0479 17.2679 9.82469C17.5302 9.60157 17.9281 9.62823 18.1566 9.88441C18.4143 10.1734 18.7866 10.3391 19.1779 10.3391C19.5692 10.3391 19.9415 10.1734 20.1993 9.88441C20.428 9.62815 20.8258 9.60157 21.0881 9.82478C21.3504 10.048 21.3776 10.4366 21.1491 10.6927C20.6519 11.25 19.9334 11.5696 19.1778 11.5696Z" fill="#4E5660"/>
<path d="M26.2564 10.8817C25.9086 10.8817 25.6265 10.6063 25.6265 10.2665C25.6265 9.95772 25.3694 9.70654 25.0533 9.70654C24.7371 9.70654 24.48 9.95772 24.48 10.2665C24.48 10.6063 24.198 10.8817 23.8501 10.8817C23.5022 10.8817 23.2202 10.6063 23.2202 10.2665C23.2202 9.27924 24.0425 8.47607 25.0533 8.47607C26.064 8.47607 26.8863 9.27924 26.8863 10.2665C26.8863 10.6063 26.6043 10.8817 26.2564 10.8817Z" fill="#4E5660"/>
<path d="M30.2364 19.2109H8.11865C7.77079 19.2109 7.48877 18.9355 7.48877 18.5957C7.48877 18.2559 7.77079 17.9805 8.11865 17.9805H30.2364C30.5842 17.9805 30.8662 18.2559 30.8662 18.5957C30.8662 18.9356 30.5842 19.2109 30.2364 19.2109Z" fill="#4E5660"/>
<path d="M27.1724 24.2876H11.1826C10.8348 24.2876 10.5527 24.0121 10.5527 23.6724C10.5527 23.3326 10.8348 23.0571 11.1826 23.0571H27.1723C27.5202 23.0571 27.8022 23.3326 27.8022 23.6724C27.8023 24.0121 27.5203 24.2876 27.1724 24.2876Z" fill="#4E5660"/>
<path d="M33.1772 12.0659L39.8524 18.5858L36.9403 21.4303L30.2651 14.9103L33.1772 12.0659Z" fill="#8EA3E2"/>
<path d="M42.497 12.1767L39.7462 9.48988C38.6622 8.43111 36.9048 8.43111 35.8209 9.48988L33.1787 12.0706L39.8549 18.5915L42.497 16.0108C43.581 14.9521 43.581 13.2355 42.497 12.1767Z" fill="#E8899E"/>
<path d="M22.9552 33.5922L19.3149 34.2494C18.0328 34.4809 16.9111 33.3853 17.1481 32.133L17.8209 28.5773C18.0486 27.374 18.6448 26.2665 19.5308 25.4012L30.2661 14.9155L36.9423 21.4364L26.207 31.9221C25.321 32.7873 24.1871 33.3697 22.9552 33.5922Z" fill="white"/>
<path d="M21.0836 28.0322L22.2012 28.4263C22.6242 28.5755 22.9571 28.9007 23.1098 29.3137L23.5132 30.4053C23.6659 30.8184 23.9989 31.1436 24.4218 31.2927L26.2069 31.9222L36.9422 21.4364L30.2661 14.9155L19.5308 25.4012L20.1752 27.1448C20.3278 27.5579 20.6608 27.8831 21.0836 28.0322Z" fill="#A3DEFE"/>
<path d="M24.963 20.0952L19.5308 25.4011L20.1752 27.1447C20.3279 27.5578 20.6609 27.883 21.0837 28.0321L22.2013 28.4262C22.6242 28.5754 22.9572 28.9006 23.1098 29.3136L23.5133 30.4052C23.666 30.8183 23.999 31.1435 24.4218 31.2926L26.207 31.9221L27.496 30.6631C24.9659 28.1003 24.5728 23.4573 24.963 20.0952Z" fill="#7ACEFA"/>
<path d="M17.6807 29.3184L17.1481 32.1331C16.9111 33.3854 18.0328 34.481 19.3149 34.2495L22.1966 33.7293L17.6807 29.3184Z" fill="#4E5660"/>
<path d="M26.6074 25.6251C26.4462 25.6251 26.285 25.565 26.162 25.4449C25.916 25.2046 25.916 24.815 26.162 24.5748L28.747 22.0498C28.993 21.8096 29.3918 21.8096 29.6378 22.0498C29.8838 22.2901 29.8838 22.6797 29.6378 22.9199L27.0529 25.4448C26.9298 25.565 26.7686 25.6251 26.6074 25.6251Z" fill="white"/>
<path d="M0.310059 28.1083C0.310059 34.616 5.71126 39.8916 12.374 39.8916H15.9677C13.5293 39.8916 11.5526 37.961 11.5526 35.5793V31.8886C11.5526 30.2439 10.1875 28.9105 8.50366 28.9105H4.72512C2.28671 28.9105 0.310059 26.9798 0.310059 24.5981L0.310059 28.1083Z" fill="#EED076"/>
</g>
<defs>
<clipPath id="clip0_869_8487">
<rect width="43" height="42" fill="white" transform="translate(0.310059 0.462891)"/>
</clipPath>
</defs>
</svg>
