<svg width="154" height="154" viewBox="0 0 154 154" fill="none" xmlns="http://www.w3.org/2000/svg">
<path d="M77 154C119.526 154 154 119.526 154 77C154 34.4741 119.526 0 77 0C34.4741 0 0 34.4741 0 77C0 119.526 34.4741 154 77 154Z" fill="#68C453"/>
<path d="M77 147C115.66 147 147 115.66 147 77C147 38.3401 115.66 7 77 7C38.3401 7 7 38.3401 7 77C7 115.66 38.3401 147 77 147Z" fill="#B2E68D"/>
<path d="M76.5 140C111.57 140 140 111.57 140 76.5C140 41.4299 111.57 13 76.5 13C41.4299 13 13 41.4299 13 76.5C13 111.57 41.4299 140 76.5 140Z" fill="white"/>
<path d="M43.1084 72.5725C43.1084 88.8355 56.292 102.019 72.555 102.019L75.1553 72.0806L72.555 43.126C56.292 43.126 43.1084 56.3096 43.1084 72.5725Z" fill="#FFF5F5"/>
<path d="M72.5547 43.126V102.019C75.4599 102.019 78.2668 101.598 80.9178 100.815L101.731 76.5784C101.91 75.2685 102.001 73.9313 102.001 72.5725C102.001 56.3096 88.8177 43.126 72.5547 43.126Z" fill="#EBEBF0"/>
<path d="M43.1084 70.4639H48.5V74.6806H43.1084V70.4639Z" fill="#574D8C"/>
<path d="M70.4468 61.7891V71.1794L53.8945 78.2366L55.5481 82.1155L72.5552 74.8643L73.4688 67.3015L72.5552 61.7891H70.4468Z" fill="#3E3373"/>
<path d="M74.6631 61.7891H72.5547V74.8643L74.6631 73.9655V61.7891Z" fill="#300253"/>
<path d="M70.4463 43.126V48.5176H72.5547L73.3277 45.5154L72.5547 43.126H70.4463Z" fill="#574D8C"/>
<path d="M72.5547 43.126H74.6631V48.5176H72.5547V43.126Z" fill="#3E3373"/>
<path d="M70.4463 102.019H72.5547L74.0305 99.3481L72.5547 96.627H70.4463V102.019Z" fill="#574D8C"/>
<path d="M72.5547 96.627H74.6631V102.019H72.5547V96.627Z" fill="#3E3373"/>
<path d="M50.2421 50.2607C44.2823 56.2207 41 64.1449 41 72.5735C41 81.0021 44.2823 88.9262 50.2421 94.8862C56.2022 100.846 64.1262 104.128 72.5549 104.128V99.9117C57.4805 99.9117 45.2167 87.6479 45.2167 72.5735C45.2167 57.4991 57.4805 45.2352 72.5549 45.2352V41.0186C64.1263 41.0186 56.2022 44.3008 50.2421 50.2607Z" fill="#3E3373"/>
<path d="M81.5156 102.836L80.3201 98.793C77.8107 99.5348 75.198 99.9111 72.5547 99.9111V104.127C75.603 104.127 78.6179 103.693 81.5156 102.836Z" fill="#300253"/>
<path d="M94.8675 50.2597C88.9076 44.2998 80.9835 41.0176 72.5547 41.0176V45.2343C87.6291 45.2343 99.893 57.4981 99.893 72.5725C99.893 73.818 99.8085 75.0702 99.6421 76.2943L103.821 76.8625C104.013 75.4509 104.11 74.0076 104.11 72.5726C104.11 64.1439 100.828 56.2197 94.8675 50.2597Z" fill="#300253"/>
<path d="M88.8945 103.373V105.955C88.8945 109.83 92.0472 112.982 95.9224 112.982L97.2225 107.641L95.9224 103.373H88.8945Z" fill="#FFB234"/>
<path d="M95.9224 103.373V112.982C99.7975 112.982 102.95 109.83 102.95 105.955V103.373H95.9224Z" fill="#FFB948"/>
<path d="M95.4072 73.4062C89.0647 73.4062 83.9048 78.5661 83.9048 84.9085V92.7262C80.8276 94.455 78.8447 97.7603 78.8447 101.361V103.906H95.9223L97.7847 88.9479L95.9223 73.4062H95.4072Z" fill="#FFE056"/>
<path d="M113 101.361C113 97.7603 111.017 94.455 107.94 92.7262V84.9085C107.94 78.566 102.78 73.4062 96.4375 73.4062H95.9224V103.906H113V101.361Z" fill="#FFB948"/>
<path d="M59.5536 70.4541H55.3369C55.3369 60.9656 63.0564 53.2461 72.5449 53.2461V57.4628C65.3815 57.4628 59.5536 63.2907 59.5536 70.4541Z" fill="#FF285A"/>
</svg>
