<svg width="154" height="154" viewBox="0 0 154 154" fill="none" xmlns="http://www.w3.org/2000/svg">
<circle cx="77" cy="77" r="77" fill="#B8DBA7"/>
<circle cx="77" cy="77" r="70" fill="#D3E1B1"/>
<circle cx="76.5" cy="76.5" r="63.5" fill="white"/>
<path d="M43.1084 72.5725C43.1084 88.8355 56.292 102.019 72.555 102.019L75.1553 72.0806L72.555 43.126C56.292 43.126 43.1084 56.3096 43.1084 72.5725Z" fill="#FFF5F5"/>
<path d="M72.5549 43.126V102.019C75.4601 102.019 78.267 101.598 80.918 100.815L101.731 76.5784C101.91 75.2685 102.001 73.9313 102.001 72.5725C102.001 56.3096 88.8179 43.126 72.5549 43.126Z" fill="#EBEBF0"/>
<path d="M43.1084 70.4639H48.5V74.6806H43.1084V70.4639Z" fill="#574D8C"/>
<path d="M70.4466 61.7891V71.1794L53.8943 78.2366L55.5479 82.1155L72.555 74.8643L73.4686 67.3015L72.555 61.7891H70.4466Z" fill="#3E3373"/>
<path d="M74.6633 61.7891H72.5549V74.8643L74.6633 73.9655V61.7891Z" fill="#300253"/>
<path d="M70.4465 43.126V48.5176H72.5549L73.3279 45.5154L72.5549 43.126H70.4465Z" fill="#574D8C"/>
<path d="M72.5549 43.126H74.6633V48.5176H72.5549V43.126Z" fill="#3E3373"/>
<path d="M70.4465 102.019H72.5549L74.0307 99.3485L72.5549 96.6274H70.4465V102.019Z" fill="#574D8C"/>
<path d="M72.5549 96.6274H74.6633V102.019H72.5549V96.6274Z" fill="#3E3373"/>
<path d="M50.2421 50.2607C44.2823 56.2207 41 64.1449 41 72.5735C41 81.0021 44.2823 88.9262 50.2421 94.8862C56.2022 100.846 64.1262 104.128 72.5549 104.128V99.9117C57.4805 99.9117 45.2167 87.6479 45.2167 72.5735C45.2167 57.4991 57.4805 45.2352 72.5549 45.2352V41.0186C64.1263 41.0186 56.2022 44.3008 50.2421 50.2607Z" fill="#3E3373"/>
<path d="M81.5158 102.836L80.3203 98.7925C77.8109 99.5343 75.1982 99.9106 72.5549 99.9106V104.127C75.6032 104.127 78.6181 103.693 81.5158 102.836Z" fill="#300253"/>
<path d="M94.8677 50.2597C88.9078 44.2998 80.9837 41.0176 72.5549 41.0176V45.2343C87.6293 45.2343 99.8932 57.4981 99.8932 72.5725C99.8932 73.818 99.8087 75.0702 99.6423 76.2943L103.821 76.8625C104.013 75.4509 104.11 74.0076 104.11 72.5726C104.11 64.1439 100.828 56.2197 94.8677 50.2597Z" fill="#300253"/>
<path d="M88.8945 103.373V105.955C88.8945 109.83 92.0472 112.982 95.9224 112.982L97.2225 107.641L95.9224 103.373H88.8945Z" fill="#FFB234"/>
<path d="M95.9224 103.373V112.982C99.7975 112.982 102.95 109.83 102.95 105.955V103.373H95.9224Z" fill="#FFB948"/>
<path d="M95.4072 73.4058C89.0647 73.4058 83.9048 78.5657 83.9048 84.9081V92.7258C80.8276 94.4545 78.8447 97.7598 78.8447 101.361V103.906H95.9223L97.7847 88.9474L95.9223 73.4058H95.4072Z" fill="#FFE056"/>
<path d="M113 101.361C113 97.7598 111.017 94.4545 107.94 92.7258V84.9081C107.94 78.5656 102.78 73.4058 96.4375 73.4058H95.9224V103.906H113V101.361Z" fill="#FFB948"/>
<path d="M59.5535 70.4541H55.3368C55.3368 60.9656 63.0563 53.2461 72.5448 53.2461V57.4628C65.3814 57.4628 59.5535 63.2907 59.5535 70.4541Z" fill="#FF285A"/>
</svg>
