<svg width="65" height="65" viewBox="0 0 65 65" fill="none" xmlns="http://www.w3.org/2000/svg">
<path d="M64.637 34.147C64.637 51.0607 50.3101 64.772 32.637 64.772C14.9638 64.772 0.636963 51.0607 0.636963 34.147C0.636963 17.2332 14.9638 3.52197 32.637 3.52197C50.3101 3.52197 64.637 17.2332 64.637 34.147Z" fill="#FFB509"/>
<path d="M56.6697 33.272C56.6697 47.0791 44.9743 58.272 30.5473 58.272C16.1202 58.272 4.4248 47.0791 4.4248 33.272C4.4248 19.4648 16.1202 8.27197 30.5473 8.27197C44.9743 8.27197 56.6697 19.4648 56.6697 33.272Z" fill="#FFC143"/>
<path d="M44.9236 52.486C44.8693 52.4866 39.4251 52.5515 33.9255 52.5755C32.3814 52.5822 31.0321 52.5855 29.8516 52.5855C22.0569 52.5855 21.6124 52.444 20.934 52.228C19.6181 51.8091 18.6355 50.8598 18.2385 49.6232C17.6139 47.6785 18.7374 46.1163 19.2173 45.4492C19.6503 44.8472 20.2918 44.0452 21.2627 42.8313C23.5301 39.9965 27.7506 34.7197 34.8214 25.0731C36.9518 22.1665 38.3253 19.5572 38.9062 17.314L39.0645 16.1311C38.9455 12.2948 35.6363 9.20947 31.5857 9.20947C28.0169 9.20947 24.9292 11.6277 24.2439 14.9596C23.8259 16.9916 21.7659 18.3147 19.6425 17.9147C17.5192 17.5147 16.1368 15.5431 16.5547 13.5111C17.9613 6.67272 24.2827 1.70947 31.5857 1.70947C40.0326 1.70947 46.9046 8.2751 46.9046 16.3453C46.9046 16.5046 46.894 16.6636 46.8728 16.8216L46.6526 18.4672C46.6359 18.5925 46.6125 18.7168 46.5828 18.8398C45.8003 22.062 44.0016 25.6082 41.2369 29.3802C35.6644 36.9831 31.8338 41.9135 29.3234 45.0835C33.6241 45.0902 39.409 45.0517 44.8255 44.9867C44.8421 44.9866 44.8591 44.9865 44.8757 44.9865C47.0169 44.9865 48.7657 46.6345 48.7927 48.6895C48.8196 50.7602 47.0876 52.4601 44.9236 52.486Z" fill="#2740B1"/>
<path d="M46.9044 16.3792C46.9041 16.5271 46.8923 16.675 46.8727 16.8216L46.6525 18.4672C46.6366 18.5861 46.6155 18.7037 46.5873 18.8205C45.8073 22.0478 44.0071 25.6007 41.2368 29.3802C39.9209 31.1756 38.7021 32.8218 37.5749 34.3311C36.8395 35.3158 35.6529 35.8992 34.388 35.8992C31.1998 35.8992 29.3469 32.4501 31.2008 29.9678C32.3148 28.4763 33.5197 26.8487 34.8211 25.0732C36.9515 22.1666 38.3251 19.5573 38.9059 17.3141L39.0642 16.1312C38.9455 12.2948 35.6363 9.20947 31.5857 9.20947C28.0417 9.20947 24.972 11.5942 24.2585 14.8903C23.8207 16.9123 21.8043 18.3001 19.6832 17.9222C17.5368 17.5398 16.1342 15.5561 16.5547 13.5111C17.9613 6.67272 24.2827 1.70947 31.5857 1.70947C40.0444 1.70947 46.9238 8.29347 46.9044 16.3792Z" fill="#314DCA"/>
<path d="M43.9657 16.3453C43.9657 16.3851 43.963 16.425 43.9578 16.4645L43.7376 18.1101C43.7334 18.1413 43.7275 18.1725 43.7201 18.2032C43.0232 21.0726 41.3782 24.2897 38.8309 27.7651C38.6403 28.0252 38.3366 28.1642 38.0281 28.1642C37.8339 28.1642 37.6377 28.1091 37.4665 27.9942C37.0234 27.6968 36.9163 27.1122 37.2271 26.6883C39.6157 23.4295 41.1542 20.4475 41.8006 17.8242L42.0063 16.287C41.9734 10.828 37.3114 6.39697 31.5858 6.39697C31.0448 6.39697 30.6062 5.97722 30.6062 5.45947C30.6062 4.94172 31.0448 4.52197 31.5858 4.52197C38.4121 4.52197 43.9657 9.82597 43.9657 16.3453Z" fill="#6C7FD9"/>
<path d="M49.7726 48.6775C49.7389 46.1143 47.5449 44.049 44.8684 44.049C44.8502 44.049 44.8318 44.049 44.8136 44.0492C40.1043 44.1057 35.21 44.1403 31.2895 44.1458C34.6016 39.9221 38.132 35.2493 42.0393 29.9186C44.8765 26.0478 46.7262 22.3918 47.5373 19.0521C47.5744 18.8987 47.6039 18.7421 47.6247 18.5866L47.845 16.9411C47.8713 16.7443 47.8847 16.544 47.8847 16.3453C47.8846 7.75822 40.5732 0.771973 31.5862 0.771973C23.8163 0.771973 17.0907 6.05335 15.594 13.3298C15.3413 14.5583 15.6035 15.8075 16.3325 16.8472C17.0616 17.8868 18.1699 18.5926 19.4536 18.8345C19.7718 18.8943 20.0884 18.9232 20.401 18.9232C22.6929 18.9231 24.7464 17.3721 25.2054 15.1406C25.8007 12.2471 28.4841 10.147 31.5862 10.147C35.042 10.147 37.941 12.8053 38.0832 16.0877L37.9423 17.1398C37.3827 19.2591 36.0633 21.7466 34.02 24.5346C26.9607 34.1656 22.7483 39.4321 20.4792 42.2691C19.5023 43.4905 18.8571 44.2973 18.411 44.9176C17.899 45.6295 16.5388 47.5203 17.3027 49.8986C17.7942 51.4286 19.0052 52.6017 20.6254 53.1175C21.4466 53.3788 21.8989 53.5228 29.8524 53.5228C31.0388 53.5228 32.411 53.5195 33.9306 53.5128C39.3994 53.489 44.8851 53.424 44.9367 53.4233C47.637 53.3911 49.8064 51.2621 49.7726 48.6775ZM44.9116 51.5486C44.8598 51.5492 39.3827 51.6142 33.9215 51.638C32.4048 51.6446 31.0358 51.648 29.8523 51.648C22.2162 51.648 21.787 51.5113 21.2436 51.3383C20.232 51.0163 19.4781 50.2908 19.1752 49.3477C18.6899 47.8365 19.5915 46.5831 20.0248 45.9807C20.443 45.3995 21.0763 44.6075 22.041 43.4011C24.3127 40.561 28.5412 35.2743 35.6239 25.6113C37.8232 22.6107 39.2476 19.895 39.8576 17.5392C39.8666 17.5042 39.8735 17.4687 39.8783 17.4328L40.0368 16.25C40.0433 16.2012 40.0458 16.152 40.0443 16.1028C39.9788 13.9997 39.0687 12.0306 37.4816 10.5583C35.8919 9.0841 33.7982 8.27197 31.5862 8.27197C27.5506 8.27197 24.0587 11.0083 23.2831 14.7785C22.9702 16.3 21.4216 17.2941 19.832 16.9947C19.0619 16.8496 18.3968 16.4262 17.9594 15.8023C17.522 15.1786 17.3647 14.4291 17.5163 13.692C18.8327 7.2921 24.7499 2.64697 31.5862 2.64697C39.4929 2.64697 45.9254 8.7921 45.9254 16.3453C45.9254 16.4646 45.9173 16.5847 45.9015 16.7027L45.6812 18.3487C45.6686 18.442 45.6511 18.5358 45.6288 18.6276C44.875 21.7322 43.1276 25.1687 40.4354 28.8417C36.0723 34.7942 32.1823 39.9217 28.543 44.5171C28.3185 44.8006 28.281 45.1812 28.4461 45.4998C28.6113 45.8185 28.9507 46.0203 29.3223 46.0208C33.4945 46.0262 39.2954 45.9905 44.8366 45.924C44.8476 45.9238 44.8586 45.9238 44.8695 45.9238C46.4758 45.9238 47.7934 47.1633 47.8137 48.701C47.8339 50.2517 46.5322 51.5292 44.9116 51.5486Z" fill="#1F3597"/>
</svg>
