<svg width="62" height="65" viewBox="0 0 62 65" fill="none" xmlns="http://www.w3.org/2000/svg">
<g filter="url(#filter0_i_571_1105)">
<path d="M61.6843 33.5796C61.6843 50.4933 47.9731 64.2046 31.0593 64.2046C14.1456 64.2046 0.434326 50.4933 0.434326 33.5796C0.434326 16.6658 14.1456 2.95459 31.0593 2.95459C47.9731 2.95459 61.6843 16.6658 61.6843 33.5796Z" fill="#FFB509"/>
<path d="M57.8093 32.7046C57.8093 46.5117 46.6165 57.7046 32.8093 57.7046C19.0022 57.7046 7.80933 46.5117 7.80933 32.7046C7.80933 18.8975 19.0022 7.70459 32.8093 7.70459C46.6165 7.70459 57.8093 18.8975 57.8093 32.7046Z" fill="#FFC143"/>
<path d="M47.4417 35.117C46.9986 43.6548 39.9503 50.4778 31.3958 50.6502C31.2842 50.6525 31.1717 50.6536 31.0606 50.6536C22.8966 50.6542 15.9433 44.6381 14.8122 36.5328C14.7073 35.7811 14.6541 35.0128 14.6541 34.2496C14.6541 32.1786 16.3331 30.4996 18.4041 30.4996C20.4751 30.4996 22.1541 32.1786 22.1541 34.2496C22.1541 34.6673 22.1831 35.0867 22.2402 35.4962C22.8621 39.9516 26.7351 43.2488 31.2448 43.1518C35.8869 43.0583 39.7116 39.3583 39.9519 34.7283C40.0802 32.257 39.2154 29.9106 37.5172 28.1218C35.8173 26.3315 33.5238 25.3455 31.0592 25.3455C27.6617 25.3455 26.2649 25.8597 24.5216 26.6445C24.3147 26.7376 24.1879 26.8005 24.1611 26.8138C22.9022 27.4726 21.3902 27.3571 20.2382 26.5248C19.0844 25.6913 18.5133 24.2703 18.7459 22.8661L21.8257 4.27909C22.1256 2.46934 23.6908 1.14209 25.5253 1.14209H41.0714C43.1424 1.14209 44.8214 2.82109 44.8214 4.89209C44.8214 6.96309 43.1424 8.64209 41.0714 8.64209H28.7051L27.1398 18.0892C28.2791 17.9293 29.5558 17.8455 31.0592 17.8455C35.5352 17.8455 39.8714 19.7088 42.9562 22.9578C46.0846 26.2528 47.6776 30.5711 47.4417 35.117Z" fill="#FF3980"/>
<path d="M47.4416 35.117C47.3378 37.119 45.6816 38.6726 43.6999 38.6727C43.6343 38.6727 43.5686 38.671 43.5024 38.6675C41.4341 38.5602 39.8444 36.7965 39.9518 34.7281C40.08 32.2567 39.2153 29.9103 37.517 28.1216C35.8171 26.3312 33.5236 25.3452 31.059 25.3452C27.6615 25.3452 26.2648 25.8595 24.5214 26.6442C24.315 26.7371 24.1884 26.7998 24.161 26.8135C22.9021 27.4722 21.39 27.357 20.238 26.5246C19.0843 25.6911 18.5131 24.2701 18.7458 22.8658L21.8256 4.27884C22.1255 2.46934 23.6908 1.14209 25.5253 1.14209H41.0714C43.1424 1.14209 44.8214 2.82109 44.8214 4.89209C44.8214 6.96309 43.1424 8.64209 41.0714 8.64209H28.705L27.1398 18.0892C28.279 17.9293 29.5558 17.8455 31.0591 17.8455C35.5351 17.8455 39.8714 19.7088 42.9561 22.9578C46.0845 26.2528 47.6775 30.5711 47.4416 35.117Z" fill="#FF5E95"/>
<path d="M43.6358 22.3122C40.3749 18.8777 35.7909 16.908 31.0591 16.908C30.0527 16.908 29.1294 16.9446 28.2673 17.0192L29.5001 9.57959H41.0714C43.6562 9.57959 45.7589 7.47684 45.7589 4.89209C45.7589 2.30734 43.6562 0.20459 41.0714 0.20459H25.5253C23.2223 0.20459 21.2774 1.85371 20.9008 4.12584L17.8211 22.713C17.5268 24.4883 18.2428 26.2403 19.6894 27.2851C21.1366 28.3303 23.0128 28.4692 24.5882 27.6485C24.6162 27.6346 24.7262 27.5805 24.9062 27.4993C26.5878 26.7425 27.8411 26.283 31.0591 26.283C33.2641 26.283 35.3161 27.1653 36.8371 28.7673C38.3567 30.3678 39.1303 32.4676 39.0156 34.6797C38.8006 38.8211 35.3789 42.1308 31.2247 42.2145C27.1939 42.298 23.7256 39.3572 23.1687 35.3667C23.1174 35.0003 23.0916 34.6245 23.0916 34.2495C23.0916 31.6647 20.9888 29.562 18.4041 29.562C15.8193 29.562 13.7166 31.6647 13.7166 34.2495C13.7166 35.0553 13.7728 35.8671 13.8836 36.6623C14.4616 40.8035 16.5217 44.5958 19.6846 47.3408C22.8427 50.0817 26.8819 51.5911 31.0593 51.591H31.0606C31.1778 51.591 31.2967 51.5897 31.4147 51.5875C40.4582 51.4052 47.9094 44.1918 48.3779 35.1655C48.6273 30.3602 46.9432 25.7955 43.6358 22.3122ZM46.5056 35.0685C46.0877 43.1178 39.4424 49.5505 31.3774 49.713C31.2719 49.7151 31.1656 49.7161 31.0604 49.7161H31.0594C23.3856 49.716 16.8001 43.9928 15.7408 36.4033C15.6418 35.6937 15.5917 34.969 15.5917 34.2495C15.5917 32.6986 16.8533 31.437 18.4042 31.437C19.9551 31.437 21.2167 32.6986 21.2167 34.2495C21.2167 34.7108 21.2487 35.174 21.3118 35.626C21.9902 40.4871 26.1567 44.0916 31.0498 44.0912C31.1207 44.0912 31.1926 44.0905 31.2637 44.089C36.3948 43.9856 40.6224 39.8952 40.8881 34.7767C41.0298 32.046 40.0741 29.4532 38.1969 27.4761C36.3183 25.4975 33.7834 24.4077 31.0592 24.4077C27.4831 24.4077 25.9343 24.9803 24.1367 25.7893C23.9078 25.8925 23.7668 25.9627 23.7408 25.9757C23.7361 25.9781 23.7314 25.9805 23.7268 25.983C22.7834 26.4768 21.6572 26.3933 20.7874 25.765C19.9218 25.1398 19.4939 24.0877 19.6709 23.0193L22.7507 4.43221C22.9766 3.06909 24.1434 2.07959 25.5253 2.07959H41.0714C42.6223 2.07959 43.8839 3.34121 43.8839 4.89209C43.8839 6.44296 42.6223 7.70459 41.0714 7.70459H28.7051C28.2464 7.70459 27.8552 8.03634 27.7802 8.48884L26.2149 17.936C26.1662 18.2303 26.2604 18.5303 26.4687 18.7438C26.6769 18.9573 26.9743 19.059 27.2701 19.0176C28.3951 18.8597 29.6346 18.783 31.0591 18.783C35.2791 18.783 39.3676 20.54 42.2761 23.6032C45.2259 26.71 46.7279 30.7817 46.5056 35.0685Z" fill="#FF0364"/>
<path d="M41.0715 5.82959H26.3204L25.4287 11.2115C25.3527 11.6703 24.9553 11.9958 24.5049 11.9958C24.4539 11.9958 24.4024 11.9917 24.3505 11.9831C23.8398 11.8985 23.4943 11.4157 23.5789 10.905L24.6005 4.73884C24.6755 4.28634 25.0668 3.95459 25.5254 3.95459H41.0715C41.5893 3.95459 42.009 4.37434 42.009 4.89209C42.009 5.40984 41.5893 5.82959 41.0715 5.82959ZM40.9167 24.8943C38.3229 22.1625 34.8222 20.658 31.0593 20.658C30.5415 20.658 30.1218 21.0777 30.1218 21.5955C30.1218 22.1132 30.5415 22.533 31.0593 22.533C34.3028 22.533 37.3207 23.8301 39.5568 26.1853C41.7914 28.539 42.9292 31.6247 42.7605 34.8741C42.7337 35.3911 43.131 35.8321 43.6482 35.8588C43.6647 35.8597 43.6812 35.8601 43.6975 35.8601C44.1929 35.8601 44.607 35.4717 44.6329 34.9712C44.8287 31.2032 43.5088 27.6245 40.9167 24.8943Z" fill="#FF73C6"/>
</g>
<defs>
<filter id="filter0_i_571_1105" x="0.434326" y="0.20459" width="61.25" height="72" filterUnits="userSpaceOnUse" color-interpolation-filters="sRGB">
<feFlood flood-opacity="0" result="BackgroundImageFix"/>
<feBlend mode="normal" in="SourceGraphic" in2="BackgroundImageFix" result="shape"/>
<feColorMatrix in="SourceAlpha" type="matrix" values="0 0 0 0 0 0 0 0 0 0 0 0 0 0 0 0 0 0 127 0" result="hardAlpha"/>
<feOffset dy="8"/>
<feGaussianBlur stdDeviation="12"/>
<feComposite in2="hardAlpha" operator="arithmetic" k2="-1" k3="1"/>
<feColorMatrix type="matrix" values="0 0 0 0 0 0 0 0 0 0 0 0 0 0 0 0 0 0 0.1 0"/>
<feBlend mode="normal" in2="shape" result="effect1_innerShadow_571_1105"/>
</filter>
</defs>
</svg>
