<svg width="65" height="65" viewBox="0 0 65 65" fill="none" xmlns="http://www.w3.org/2000/svg">
<path d="M64.7927 31.397C64.7927 48.3107 50.4659 62.022 32.7927 62.022C15.1196 62.022 0.792725 48.3107 0.792725 31.397C0.792725 14.4832 15.1196 0.771973 32.7927 0.771973C50.4659 0.771973 64.7927 14.4832 64.7927 31.397Z" fill="#FF3980"/>
<path d="M58.9153 33.272C58.9153 47.0791 47.2199 58.272 32.7929 58.272C18.3658 58.272 6.67041 47.0791 6.67041 33.272C6.67041 19.4648 18.3658 8.27197 32.7929 8.27197C47.2199 8.27197 58.9153 19.4648 58.9153 33.272Z" fill="#FF5E95"/>
<path d="M37.269 16.6355V60.0844C37.269 62.1554 35.5146 63.8344 33.3506 63.8344C31.1867 63.8344 29.4323 62.1554 29.4323 60.0844V20.3855H22.8827C20.7187 20.3855 18.9644 18.7065 18.9644 16.6355C18.9644 14.5645 20.7187 12.8855 22.8827 12.8855H33.3506C35.5146 12.8855 37.269 14.5644 37.269 16.6355Z" fill="#FFAA00"/>
<path d="M37.269 16.6355V47.8018C37.269 49.8728 35.5146 51.5518 33.3506 51.5518C31.1867 51.5518 29.4323 49.8728 29.4323 47.8018V20.3855H22.8827C20.7187 20.3855 18.9644 18.7065 18.9644 16.6355C18.9644 14.5645 20.7187 12.8855 22.8827 12.8855H33.3506C35.5146 12.8855 37.269 14.5644 37.269 16.6355Z" fill="#FFB509"/>
<path d="M34.3305 16.6355V40.0464C34.3305 40.5641 33.8919 40.9839 33.351 40.9839C32.81 40.9839 32.3714 40.5641 32.3714 40.0464V17.573H26.9913C26.4503 17.573 26.0117 17.1532 26.0117 16.6355C26.0117 16.1177 26.4503 15.698 26.9913 15.698H33.351C33.8919 15.698 34.3305 16.1177 34.3305 16.6355Z" fill="#FFC143"/>
<path d="M33.3507 11.948H22.8828C20.182 11.948 17.9849 14.0507 17.9849 16.6355C17.9849 19.2202 20.182 21.323 22.8828 21.323H28.4528V60.0844C28.4528 62.6691 30.6499 64.7719 33.3507 64.7719C36.0515 64.7719 38.2487 62.6691 38.2487 60.0844V16.6355C38.2487 14.0507 36.0515 11.948 33.3507 11.948ZM36.2895 60.0844C36.2895 61.6353 34.9712 62.8969 33.3507 62.8969C31.7302 62.8969 30.412 61.6353 30.412 60.0844V20.3855C30.412 19.8677 29.9734 19.448 29.4324 19.448H22.8828C21.2623 19.448 19.944 18.1864 19.944 16.6355C19.944 15.0846 21.2623 13.823 22.8828 13.823H33.3507C34.9712 13.823 36.2895 15.0846 36.2895 16.6355V60.0844Z" fill="#FFD98F"/>
</svg>
