<svg width="65" height="65" viewBox="0 0 65 65" fill="none" xmlns="http://www.w3.org/2000/svg">
<path d="M64.2148 33.5808C64.2148 50.4939 49.888 64.2045 32.2148 64.2045C14.5417 64.2045 0.214844 50.4939 0.214844 33.5808C0.214844 16.6677 14.5417 2.95703 32.2148 2.95703C49.888 2.95703 64.2148 16.6678 64.2148 33.5808Z" fill="#2740B1"/>
<path d="M54.9414 32.7059C54.9414 46.5124 43.246 57.7048 28.819 57.7048C14.3919 57.7048 2.69653 46.5124 2.69653 32.7059C2.69653 18.8994 14.3919 7.70703 28.819 7.70703C43.246 7.70703 54.9414 18.8993 54.9414 32.7059Z" fill="#314DCA"/>
<path d="M45.7898 30.3058H44.2064C44.2704 20.1503 44.3084 8.94564 44.1782 7.45026C43.9234 4.52426 42.1139 2.14614 39.5683 1.39151C38.362 1.03401 35.2443 0.569389 32.3495 3.96801C29.8794 6.86814 17.638 28.0311 15.2092 32.2441C14.5395 33.4058 14.5611 34.8196 15.2659 35.962C15.9706 37.1045 17.2538 37.8055 18.6401 37.8055H36.3164C36.2939 40.7923 36.2701 43.6664 36.247 46.2339C36.2283 48.3048 37.9676 49.998 40.1314 50.016C40.143 50.016 40.1544 50.0161 40.1659 50.0161C42.3141 50.016 44.0649 48.3584 44.0835 46.2986C44.0973 44.7571 44.1246 41.6376 44.1539 37.8055H45.7898C47.9538 37.8055 49.7082 36.1266 49.7082 34.0556C49.7082 31.9846 47.9538 30.3058 45.7898 30.3058ZM36.3678 30.3058H25.2948C29.6358 22.8573 33.9288 15.6518 36.4244 11.689C36.4415 15.8475 36.4134 22.9514 36.3678 30.3058Z" fill="#00D1FC"/>
<path d="M44.2395 24.3697C44.2296 26.4343 42.4777 28.1033 40.3204 28.1033H40.3201C38.1484 28.1033 36.3909 26.4126 36.401 24.3343C36.4255 19.2568 36.4368 14.7006 36.4244 11.689C34.3933 14.914 31.172 20.2866 27.7031 26.1902C27.0089 27.3716 25.7028 28.1035 24.2866 28.1035C21.2902 28.1035 19.4015 25.0163 20.8692 22.5165C25.298 14.9728 30.7848 5.80547 32.3498 3.96822C35.2441 0.569342 38.3619 1.03397 39.5683 1.39159C42.1138 2.14609 43.9233 4.52434 44.1782 7.45034C44.2832 8.65622 44.2787 16.1771 44.2395 24.3697Z" fill="#64DCFC"/>
<path d="M41.1443 22.387C41.1307 22.8965 40.695 23.3005 40.1656 23.3005C40.1571 23.3005 40.1485 23.3004 40.14 23.3003C39.5991 23.287 39.172 22.8566 39.1859 22.3391C39.189 22.2184 39.5065 10.2449 39.2972 7.83952C39.2119 6.85952 38.7274 6.04927 38.119 5.86902C37.5766 5.70777 36.8572 6.09477 36.1461 6.92952C35.8043 7.33065 35.1873 7.3909 34.7679 7.0639C34.3485 6.73677 34.2857 6.14627 34.6275 5.7449C36.3277 3.74877 37.9077 3.84365 38.6988 4.07802C40.0936 4.4914 41.0948 5.90677 41.2494 7.68377C41.4678 10.1899 41.1577 21.8903 41.1443 22.387ZM29.6554 33.118H20.3014C20.7159 32.4024 21.2721 31.4433 21.9262 30.3188C22.1894 29.8664 22.0196 29.2955 21.547 29.0436C21.0741 28.7918 20.4778 28.9544 20.2146 29.4066C18.7624 31.9026 17.7919 33.5859 17.7823 33.6025C17.6149 33.8929 17.6202 34.2464 17.7964 34.532C17.9726 34.8176 18.2934 34.9929 18.6399 34.9929H29.6554C30.1965 34.9929 30.635 34.5731 30.635 34.0554C30.635 33.5378 30.1965 33.118 29.6554 33.118Z" fill="#9AE7FD"/>
<path d="M36.6847 10.7849C36.2614 10.6731 35.8118 10.8447 35.5851 11.2046C33.2342 14.9375 29.0674 21.9071 24.439 29.8485C24.2697 30.1388 24.2738 30.4932 24.4499 30.7798C24.6258 31.0665 24.9472 31.2426 25.2945 31.2426H36.3676C36.9063 31.2426 37.344 30.8262 37.3472 30.3107C37.3836 24.4102 37.4232 16.3892 37.4037 11.6849C37.4019 11.2646 37.108 10.8967 36.6847 10.7849ZM35.3937 29.3677H26.9636C30.2403 23.7607 33.2359 18.7265 35.4495 15.1031C35.4474 19.4125 35.4206 24.8858 35.3937 29.3677ZM45.7897 29.3677H45.1916C45.2732 15.9946 45.2607 8.59523 45.1541 7.37198C44.866 4.06298 42.7872 1.36385 39.8581 0.495604C38.4621 0.081729 34.8621 -0.466146 31.5903 3.37523C29.1319 6.26148 17.7739 25.8545 14.3512 31.7907C13.5181 33.236 13.5452 35.0166 14.4221 36.438C15.299 37.8593 16.9151 38.7423 18.6398 38.7423H35.3293C35.3091 41.3897 35.2879 43.929 35.267 46.2253C35.2438 48.8098 37.422 50.9306 40.1265 50.953L40.1658 50.9531C42.8427 50.9528 45.0394 48.8683 45.0627 46.3062C45.0755 44.8908 45.0994 42.1478 45.1259 38.7425H45.7895C48.4903 38.7425 50.6875 36.6397 50.6875 34.0552C50.6875 31.4707 48.4903 29.3677 45.7897 29.3677ZM45.7897 36.8673H44.1536C43.6154 36.8673 43.178 37.283 43.174 37.798C43.1448 41.6307 43.1175 44.7482 43.1036 46.2898C43.0898 47.8271 41.7718 49.0778 40.1658 49.078H40.1397C38.5194 49.0646 37.2124 47.7921 37.2263 46.2415C37.2496 43.6726 37.2732 40.7998 37.2957 37.8116C37.2975 37.5618 37.1951 37.3216 37.0112 37.1443C36.8273 36.9671 36.5771 36.8673 36.3161 36.8673H18.6397C17.6049 36.8673 16.6351 36.3375 16.1091 35.4847C15.583 34.6318 15.5667 33.5635 16.0665 32.6962C22.7575 21.0912 31.2356 6.75898 33.1088 4.5596C34.8176 2.55323 36.5805 2.08448 37.8547 2.08448C38.4579 2.08448 38.9516 2.1896 39.2781 2.28635C41.44 2.92723 42.9801 4.98448 43.2016 7.52748C43.2732 8.34998 43.3356 12.9684 43.2263 30.2992C43.2247 30.5488 43.3271 30.7887 43.5111 30.9657C43.695 31.1427 43.945 31.2423 44.2059 31.2423H45.7894C47.4098 31.2423 48.7282 32.504 48.7282 34.0547C48.7285 35.6058 47.4101 36.8673 45.7897 36.8673Z" fill="#C9F0FF"/>
</svg>
