<svg width="65" height="65" viewBox="0 0 65 65" fill="none" xmlns="http://www.w3.org/2000/svg">
<path d="M64.4814 31.397C64.4814 48.3107 50.1546 62.022 32.4814 62.022C14.8083 62.022 0.481445 48.3107 0.481445 31.397C0.481445 14.4832 14.8083 0.771973 32.4814 0.771973C50.1546 0.771973 64.4814 14.4832 64.4814 31.397Z" fill="#00C1FB"/>
<path d="M61.7386 33.272C61.7386 47.0791 50.0431 58.272 35.6161 58.272C21.1891 58.272 9.49365 47.0791 9.49365 33.272C9.49365 19.4648 21.1891 8.27197 35.6161 8.27197C50.0431 8.27197 61.7386 19.4648 61.7386 33.272Z" fill="#00D1FC"/>
<path d="M50.617 49.4724C50.617 57.3881 43.8877 63.8279 35.6161 63.8279C31.9748 63.8279 28.4632 62.5637 25.7282 60.2681C23.0202 57.9952 21.2556 54.8706 20.7598 51.4699C20.664 50.8124 20.6152 50.1402 20.6152 49.4724C20.6152 47.4014 22.3696 45.7224 24.5336 45.7224C26.6976 45.7224 28.452 47.4014 28.452 49.4724C28.452 49.7944 28.4753 50.1177 28.5213 50.4331C29.0113 53.7938 32.0614 56.3279 35.6161 56.3279C39.5664 56.3279 42.7803 53.2526 42.7803 49.4724C42.7803 45.6923 39.5664 42.6169 35.6161 42.6169C33.4521 42.6169 31.6977 40.9379 31.6977 38.8669C31.6977 36.7959 33.4521 35.1169 35.6161 35.1169C43.8876 35.1169 50.617 41.5568 50.617 49.4724Z" fill="#FF3980"/>
<path d="M50.617 28.2615C50.617 36.1771 43.8878 42.617 35.6161 42.617C33.4521 42.617 31.6977 40.938 31.6977 38.867C31.6977 36.796 33.4521 35.117 35.6161 35.117C39.5665 35.117 42.7803 32.0416 42.7803 28.2615C42.7803 24.4814 39.5665 21.406 35.6161 21.406C32.1997 21.406 29.2433 23.7286 28.5865 26.9286C28.1695 28.9609 26.1097 30.2845 23.9864 29.8855C21.8629 29.4864 20.4796 27.5153 20.8967 25.483C22.2735 18.7748 28.464 13.906 35.6161 13.906C43.8876 13.906 50.617 20.3458 50.617 28.2615Z" fill="#FF5E95"/>
<path d="M51.6036 28.2615C51.6036 19.8253 44.4316 12.9619 35.6161 12.9619C27.9938 12.9619 21.3964 18.1513 19.9289 25.301C19.6763 26.5314 19.9396 27.7823 20.6701 28.823C21.4007 29.8639 22.511 30.5703 23.7966 30.8119C25.082 31.0538 26.3897 30.8018 27.4773 30.1025C28.5645 29.4035 29.3024 28.3409 29.5548 27.1105C30.1209 24.3522 32.6701 22.3502 35.6162 22.3502C39.0226 22.3502 41.7939 25.002 41.7939 28.2615C41.7939 31.521 39.0226 34.1729 35.6162 34.1729C32.9116 34.1729 30.7114 36.2787 30.7114 38.867C30.7114 41.4554 32.9116 43.5612 35.6162 43.5612C39.0226 43.5612 41.7939 46.2129 41.7939 49.4725C41.7939 52.7322 39.0226 55.3839 35.6162 55.3839C32.5509 55.3839 29.921 53.1994 29.4986 50.3023C29.4589 50.031 29.4388 49.7518 29.4388 49.4725C29.4388 46.8842 27.2384 44.7784 24.5338 44.7784C21.8292 44.7784 19.6289 46.8842 19.6289 49.4725C19.6289 50.1838 19.6806 50.8998 19.783 51.6005C20.3115 55.2254 22.1919 58.5557 25.0779 60.978C27.9932 63.4247 31.7356 64.772 35.6161 64.772C44.4316 64.772 51.6036 57.9087 51.6036 49.4724C51.6036 45.5202 49.9844 41.7085 47.1289 38.867C49.9844 36.0254 51.6036 32.2137 51.6036 28.2615ZM49.6444 49.4724C49.6444 56.8748 43.3512 62.897 35.6161 62.897C32.2112 62.897 28.9273 61.7148 26.3697 59.5683C23.837 57.4425 22.1869 54.5208 21.7233 51.3413C21.6335 50.7262 21.5881 50.0973 21.5881 49.4724C21.5881 47.9179 22.9095 46.6533 24.5338 46.6533C26.1582 46.6533 27.4796 47.9179 27.4796 49.4724C27.4796 49.8383 27.5061 50.2049 27.5584 50.5617C28.1149 54.3797 31.579 57.2588 35.6162 57.2588C40.103 57.2588 43.7531 53.7658 43.7531 49.4724C43.7531 45.179 40.103 41.686 35.6162 41.686C33.9919 41.686 32.6705 40.4214 32.6705 38.8669C32.6705 37.3124 33.9919 36.0478 35.6162 36.0478C40.103 36.0478 43.7531 32.5548 43.7531 28.2614C43.7531 23.968 40.103 20.475 35.6162 20.475C31.7361 20.475 28.3785 23.1137 27.6323 26.7492C27.4807 27.4882 27.0375 28.1264 26.3847 28.5462C25.7316 28.9659 24.947 29.1173 24.1741 28.972C23.402 28.8269 22.7351 28.4028 22.2965 27.7777C21.8578 27.1525 21.6998 26.4014 21.8514 25.6624C23.1387 19.3897 28.9278 14.8369 35.6162 14.8369C43.3515 14.8369 49.6445 20.8592 49.6445 28.2615C49.6445 32.0188 47.9757 35.632 45.0656 38.1748C44.8623 38.3524 44.7466 38.6037 44.7466 38.8672C44.7466 39.1307 44.8624 39.3819 45.0656 39.5595C47.9755 42.102 49.6444 45.7152 49.6444 49.4724Z" fill="#FF0364"/>
<path d="M34.6365 17.656C34.6365 17.1383 35.0749 16.7185 35.6161 16.7185C42.2671 16.7185 47.6782 21.8966 47.6782 28.2615C47.6782 28.7793 47.2398 29.199 46.6986 29.199C46.1575 29.199 45.7191 28.7793 45.7191 28.2615C45.7191 22.9306 41.1869 18.5935 35.6161 18.5935C35.0749 18.5935 34.6365 18.1738 34.6365 17.656ZM35.6161 37.9294C35.0749 37.9294 34.6365 38.3491 34.6365 38.8669C34.6365 39.3846 35.0749 39.8044 35.6161 39.8044C41.1868 39.8044 45.7191 44.1414 45.7191 49.4724C45.7191 49.9901 46.1575 50.4099 46.6986 50.4099C47.2398 50.4099 47.6782 49.9901 47.6782 49.4724C47.6782 43.1076 42.2671 37.9294 35.6161 37.9294Z" fill="#FF94D4"/>
</svg>
