<svg width="60" height="60" viewBox="0 0 60 60" fill="none" xmlns="http://www.w3.org/2000/svg">
<path fill-rule="evenodd" clip-rule="evenodd" d="M30 0C13.4573 0 0 13.4573 0 30C0 46.5427 13.4573 60 30 60C46.5427 60 60 46.5427 60 30C60 13.4573 46.5427 0 30 0Z" fill="#C2DAA5"/>
<path fill-rule="evenodd" clip-rule="evenodd" d="M47.4368 22.1144L27.4089 42.1418C26.808 42.7426 26.0193 43.045 25.2306 43.045C24.4418 43.045 23.6531 42.7426 23.0522 42.1418L13.0386 32.1281C11.8335 30.9236 11.8335 28.976 13.0386 27.7715C14.2431 26.5664 16.1901 26.5664 17.3952 27.7715L25.2306 35.6068L43.0801 17.7578C44.2847 16.5527 46.2317 16.5527 47.4368 17.7578C48.6413 18.9624 48.6413 20.9093 47.4368 22.1144H47.4368Z" fill="#FAFAFA"/>
</svg>
