<svg width="55" height="46" viewBox="0 0 55 46" fill="none" xmlns="http://www.w3.org/2000/svg">
<path d="M33.8305 7.01923H47.8058C48.7812 7.01913 49.7459 7.22232 50.6384 7.61583C51.5309 8.00935 52.3315 8.58456 52.9893 9.30476C53.6471 10.025 54.1476 10.8744 54.4588 11.7988C54.77 12.7232 54.8852 13.7023 54.7969 14.6737L52.5613 39.241C52.4028 40.985 51.5982 42.6067 50.3053 43.7879C49.0125 44.9691 47.3248 45.6243 45.5737 45.625H9.25265C7.50148 45.6243 5.81382 44.9691 4.52097 43.7879C3.22813 42.6067 2.42348 40.985 2.265 39.241L0.0293783 14.6737C-0.12018 13.048 0.304511 11.4212 1.22967 10.0761L1.09279 7.01923C1.09279 5.15762 1.83232 3.37225 3.14868 2.05589C4.46504 0.739524 6.25041 0 8.11202 0H20.9993C22.8608 0.000397551 24.6459 0.740182 25.9619 2.05663L28.8679 4.9626C30.1839 6.27905 31.969 7.01883 33.8305 7.01923ZM4.62347 7.44038C5.37452 7.16663 6.18173 7.01923 7.02404 7.01923H25.9619L23.4806 4.53793C22.8226 3.87971 21.9301 3.50981 20.9993 3.50962H8.11202C7.19265 3.50945 6.30993 3.87004 5.65363 4.51387C4.99733 5.1577 4.61987 6.03335 4.60241 6.95255L4.62347 7.44038Z" fill="#F89838"/>
</svg>
