<svg width="34" height="34" viewBox="0 0 34 34" fill="none" xmlns="http://www.w3.org/2000/svg">
<path d="M17.0003 0C11.376 0 6.80029 4.02163 6.80029 8.96484C6.80029 13.9081 11.376 17.9297 17.0003 17.9297C22.6246 17.9297 27.2003 13.9081 27.2003 8.96484C27.2003 4.02163 22.6246 0 17.0003 0Z" fill="#C2DAA5"/>
<path d="M29.6908 23.7864C26.8982 21.2943 23.1962 19.9219 19.2667 19.9219H14.7333C10.8038 19.9219 7.10177 21.2943 4.30924 23.7864C1.53038 26.2663 0 29.5397 0 33.0039C0 33.554 0.507431 34 1.13333 34H32.8667C33.4926 34 34 33.554 34 33.0039C34 29.5397 32.4696 26.2663 29.6908 23.7864Z" fill="#C2DAA5"/>
</svg>
