<svg width="64" height="64" viewBox="0 0 64 64" fill="none" xmlns="http://www.w3.org/2000/svg">
<circle cx="32" cy="32" r="30.5" fill="white" stroke="#C399ED" stroke-width="3"/>
<path d="M44.693 15.3707V19.307C44.693 24.2078 41.697 28.407 37.4376 30.1776C37.0684 30.3313 36.762 30.5867 36.5482 30.9042C36.3334 31.2207 36.2122 31.6002 36.2122 32C36.2122 32.8006 36.699 33.5152 37.4376 33.8224C41.697 35.593 44.693 39.7923 44.693 44.6931V48.6295L32.1573 50.4806L19.307 48.6295V44.6931C19.307 39.7923 22.303 35.5931 26.5624 33.8224C26.9317 33.6688 27.238 33.4134 27.4519 33.0959C27.6666 32.7793 27.7879 32.3998 27.7879 32C27.7879 31.1994 27.301 30.4849 26.5624 30.1776C22.303 28.4071 19.307 24.2078 19.307 19.307V15.3707L32.1573 13.5195L44.693 15.3707Z" fill="#B0F0EF"/>
<path d="M44.693 15.3706V18.1473H19.307V15.3706L32.1573 13.5195L44.693 15.3706Z" fill="#AFEBF3"/>
<path d="M44.693 45.8528V48.6295L32.1573 50.4805L19.307 48.6295V45.8528H44.693Z" fill="#AFEBF3"/>
<path d="M44.786 15.3709H19.214C17.5062 15.3709 16.1218 13.9865 16.1218 12.2788V12.0921C16.1218 10.3844 17.5062 9 19.214 9H44.786C46.4938 9 47.8782 10.3844 47.8782 12.0922V12.2788C47.8782 13.9865 46.4938 15.3709 44.786 15.3709Z" fill="#FEC572"/>
<path d="M44.786 54.9999H19.214C17.5062 54.9999 16.1218 53.6155 16.1218 51.9078V51.7211C16.1218 50.0133 17.5062 48.6289 19.214 48.6289H44.786C46.4938 48.6289 47.8782 50.0133 47.8782 51.7211V51.9078C47.8782 53.6155 46.4938 54.9999 44.786 54.9999Z" fill="#FEC572"/>
<path d="M22.651 20.7541C22.651 23.3698 24.7715 25.4903 27.3872 25.4903H27.4499C28.8425 25.4903 30.034 26.4906 30.2752 27.8623L30.5624 29.4964C30.6748 30.1355 31.1818 30.6493 31.8263 30.7249C32.6043 30.8162 33.2991 30.2848 33.4312 29.5336L33.725 27.8623C33.9661 26.4906 35.1576 25.4903 36.5503 25.4903C39.166 25.4903 41.2865 23.3698 41.2865 20.7541C41.2865 19.5702 40.3267 18.6104 39.1428 18.6104H24.7948C23.6108 18.6104 22.651 19.5702 22.651 20.7541Z" fill="#FCE3A0"/>
<path d="M32.8404 23.6934H32.7778C30.1621 23.6934 28.0416 21.5729 28.0416 18.9572C28.0416 18.8391 28.0515 18.7233 28.0699 18.6104H24.7946C23.6106 18.6104 22.6508 19.5702 22.6508 20.7541C22.6508 23.3698 24.7713 25.4903 27.3871 25.4903H27.4497C28.8423 25.4903 30.0338 26.4906 30.275 27.8623L30.5622 29.4964C30.6745 30.1355 31.1816 30.6493 31.8261 30.7249C32.6041 30.8162 33.299 30.2848 33.431 29.5336L33.7248 27.8623C33.9063 26.83 34.626 26.0083 35.5647 25.6647C35.1832 24.5034 34.0934 23.6934 32.8404 23.6934Z" fill="#FEC572"/>
<path d="M32 38.479C32.852 38.479 33.5426 37.4707 33.5426 36.2268C33.5426 34.983 32.852 33.9746 32 33.9746C31.1481 33.9746 30.4574 34.983 30.4574 36.2268C30.4574 37.4707 31.1481 38.479 32 38.479Z" fill="#FEC572"/>
<path d="M24.9583 45.6958C26.3933 45.6958 27.5565 44.7695 27.5565 43.6267C27.5565 42.484 26.3933 41.5576 24.9583 41.5576C23.5234 41.5576 22.3601 42.484 22.3601 43.6267C22.3601 44.7695 23.5234 45.6958 24.9583 45.6958Z" fill="#FFA0C8"/>
<path d="M39.0417 45.6958C40.4767 45.6958 41.64 44.7695 41.64 43.6267C41.64 42.484 40.4767 41.5576 39.0417 41.5576C37.6067 41.5576 36.4434 42.484 36.4434 43.6267C36.4434 44.7695 37.6067 45.6958 39.0417 45.6958Z" fill="#FFA0C8"/>
<path d="M27.7093 42.049C27.3372 42.049 27.0355 41.7473 27.0355 41.3751C27.0355 41.0647 26.783 40.8123 26.4726 40.8123C26.1623 40.8123 25.9098 41.0648 25.9098 41.3751C25.9098 41.7473 25.6081 42.049 25.2359 42.049C24.8638 42.049 24.5621 41.7473 24.5621 41.3751C24.5621 40.3216 25.4192 39.4646 26.4726 39.4646C27.526 39.4646 28.3832 40.3217 28.3832 41.3751C28.3832 41.7473 28.0815 42.049 27.7093 42.049Z" fill="#495560"/>
<path d="M38.7642 42.049C38.392 42.049 38.0903 41.7473 38.0903 41.3751C38.0903 41.0647 37.8378 40.8123 37.5275 40.8123C37.2172 40.8123 36.9646 41.0648 36.9646 41.3751C36.9646 41.7473 36.6629 42.049 36.2908 42.049C35.9186 42.049 35.6169 41.7473 35.6169 41.3751C35.6169 40.3216 36.4741 39.4646 37.5275 39.4646C38.5809 39.4646 39.438 40.3217 39.438 41.3751C39.438 41.7473 39.1363 42.049 38.7642 42.049Z" fill="#495560"/>
<path d="M32 44.092C31.3024 44.092 30.6392 43.7899 30.1802 43.2633C29.9357 42.9827 29.9649 42.5571 30.2455 42.3126C30.5261 42.0681 30.9517 42.0973 31.1962 42.3779C31.3992 42.6108 31.6923 42.7444 32.0001 42.7444C32.3079 42.7444 32.601 42.6108 32.8039 42.3779C33.0484 42.0973 33.474 42.0682 33.7546 42.3126C34.0352 42.5571 34.0644 42.9827 33.82 43.2633C33.3608 43.7899 32.6975 44.092 32 44.092Z" fill="#495560"/>
</svg>
