<svg width="24" height="24" viewBox="0 0 24 24" fill="none" xmlns="http://www.w3.org/2000/svg">
<path d="M12 24C18.6274 24 24 18.6274 24 12C24 5.37258 18.6274 0 12 0C5.37258 0 0 5.37258 0 12C0 18.6274 5.37258 24 12 24Z" fill="#F89838"/>
<path d="M7.58287 14.8293H11.9662C12.6261 14.8293 13.1616 14.1659 13.1616 13.3486V7.91964C13.1616 7.10233 12.6261 6.43901 11.9662 6.43901C11.3063 6.43901 10.7707 7.10233 10.7707 7.91964V11.868H7.58287C6.92299 11.868 6.38743 12.5313 6.38743 13.3486C6.38743 14.1659 6.92299 14.8293 7.58287 14.8293Z" fill="#FAFAFA"/>
</svg>
