<svg width="59" height="59" viewBox="0 0 59 59" fill="none" xmlns="http://www.w3.org/2000/svg">
<path d="M40.4854 6.14583C48.6318 9.83333 54.3096 17.7 55.2971 27.0417H59C57.5188 11.8 44.9289 0 29.3766 0C28.8828 0 28.3891 0 27.6485 0L37.0293 9.34167L40.4854 6.14583ZM24.9331 4.17917C23.4519 2.70417 21.2301 2.70417 19.749 4.17917L3.94979 19.9125C2.46862 21.3875 2.46862 23.6 3.94979 25.075L33.5732 54.575C35.0545 56.0501 37.2762 56.0501 38.7574 54.575L54.5565 38.8417C56.0378 37.3666 56.0378 35.1542 54.5565 33.6791L24.9331 4.17917ZM36.2887 52.1167L6.66527 22.6167L22.4644 6.88333L52.0879 36.3833L36.2887 52.1167ZM18.2678 52.8542C10.1213 49.1667 4.44351 41.3 3.45607 31.9583H0C1.23431 47.2 13.8243 59 29.3766 59C29.8703 59 30.364 59 31.1046 59L21.7239 49.6583L18.2678 52.8542Z" fill="#ABABAB"/>
</svg>
