<svg xmlns="http://www.w3.org/2000/svg" width="49.762" height="55.291" viewBox="0 0 49.762 55.291">
  <defs>
    <style>
      .cls-1 {
        fill: #fff;
      }
    </style>
  </defs>
  <g id="play_1_" data-name="play (1)" transform="translate(-100.4 -76.578)">
    <g id="Grupo_1006" data-name="Grupo 1006" transform="translate(100.4 76.578)">
      <g id="Grupo_1005" data-name="Grupo 1005" transform="translate(0 0)">
        <path id="Trazado_4964" data-name="Trazado 4964" class="cls-1" d="M149.191,100.677a13.944,13.944,0,0,1-.971-1.214l-.243-.243a4.359,4.359,0,0,0-1.214-.85L128.8,88.054a.119.119,0,0,1-.121-.121L110.6,77.495a6.852,6.852,0,0,0-5.1-.728,7.111,7.111,0,0,0-4.127,3.156,9.149,9.149,0,0,0-.728,1.578c-.121.364-.121.85-.243,1.335v42.358a6.631,6.631,0,0,0,6.675,6.675,5.5,5.5,0,0,0,1.942-.364,7.416,7.416,0,0,0,1.7-.85l17.842-10.317.243-.121L146.764,109.9c.121,0,.121-.121.243-.121a6.821,6.821,0,0,0,2.913-4.005A6.331,6.331,0,0,0,149.191,100.677Zm-5.219,3.763a.261.261,0,0,1-.243.243h-.121L125.767,115.12l-.121.121L107.8,125.558c-.121,0-.121.121-.243.121a.119.119,0,0,0-.121.121h-.121c-.121,0-.243-.121-.364-.121a.446.446,0,0,1-.121-.364V83.2c.121-.121.243-.243.364-.243h.364l17.963,10.317.121.121,18.084,10.438.121.121.121.121Z" transform="translate(-100.4 -76.578)"/>
      </g>
    </g>
  </g>
</svg>
