<svg width="300" height="71" viewBox="0 0 300 71" fill="none" xmlns="http://www.w3.org/2000/svg">
<g filter="url(#filter0_d)">
<rect x="6" y="3" width="288" height="59" rx="3" fill="#FEC572"/>
</g>
<path d="M130.76 43L126.672 35.58H125.524V43H120.736V23.344H128.772C130.321 23.344 131.637 23.6147 132.72 24.156C133.821 24.6973 134.643 25.444 135.184 26.396C135.725 27.3293 135.996 28.3747 135.996 29.532C135.996 30.8387 135.623 32.0053 134.876 33.032C134.148 34.0587 133.065 34.7867 131.628 35.216L136.164 43H130.76ZM125.524 32.192H128.492C129.369 32.192 130.023 31.9773 130.452 31.548C130.9 31.1187 131.124 30.512 131.124 29.728C131.124 28.9813 130.9 28.3933 130.452 27.964C130.023 27.5347 129.369 27.32 128.492 27.32H125.524V32.192ZM154.97 34.936C154.97 35.384 154.942 35.8507 154.886 36.336H144.05C144.124 37.3067 144.432 38.0533 144.974 38.576C145.534 39.08 146.215 39.332 147.018 39.332C148.212 39.332 149.043 38.828 149.51 37.82H154.606C154.344 38.8467 153.868 39.7707 153.178 40.592C152.506 41.4133 151.656 42.0573 150.63 42.524C149.603 42.9907 148.455 43.224 147.186 43.224C145.655 43.224 144.292 42.8973 143.098 42.244C141.903 41.5907 140.97 40.6573 140.298 39.444C139.626 38.2307 139.29 36.812 139.29 35.188C139.29 33.564 139.616 32.1453 140.27 30.932C140.942 29.7187 141.875 28.7853 143.07 28.132C144.264 27.4787 145.636 27.152 147.186 27.152C148.698 27.152 150.042 27.4693 151.218 28.104C152.394 28.7387 153.308 29.644 153.962 30.82C154.634 31.996 154.97 33.368 154.97 34.936ZM150.07 33.676C150.07 32.8547 149.79 32.2013 149.23 31.716C148.67 31.2307 147.97 30.988 147.13 30.988C146.327 30.988 145.646 31.2213 145.086 31.688C144.544 32.1547 144.208 32.8173 144.078 33.676H150.07ZM163.524 29.588C163.99 28.86 164.634 28.272 165.456 27.824C166.277 27.376 167.238 27.152 168.34 27.152C169.628 27.152 170.794 27.4787 171.84 28.132C172.885 28.7853 173.706 29.7187 174.304 30.932C174.92 32.1453 175.228 33.5547 175.228 35.16C175.228 36.7653 174.92 38.184 174.304 39.416C173.706 40.6293 172.885 41.572 171.84 42.244C170.794 42.8973 169.628 43.224 168.34 43.224C167.257 43.224 166.296 43 165.456 42.552C164.634 42.104 163.99 41.5253 163.524 40.816V50.448H158.736V27.376H163.524V29.588ZM170.356 35.16C170.356 33.9653 170.02 33.032 169.348 32.36C168.694 31.6693 167.882 31.324 166.912 31.324C165.96 31.324 165.148 31.6693 164.476 32.36C163.822 33.0507 163.496 33.9933 163.496 35.188C163.496 36.3827 163.822 37.3253 164.476 38.016C165.148 38.7067 165.96 39.052 166.912 39.052C167.864 39.052 168.676 38.7067 169.348 38.016C170.02 37.3067 170.356 36.3547 170.356 35.16ZM183.767 22.28V43H178.979V22.28H183.767ZM187.525 35.16C187.525 33.5547 187.824 32.1453 188.421 30.932C189.037 29.7187 189.868 28.7853 190.913 28.132C191.959 27.4787 193.125 27.152 194.413 27.152C195.515 27.152 196.476 27.376 197.297 27.824C198.137 28.272 198.781 28.86 199.229 29.588V27.376H204.017V43H199.229V40.788C198.763 41.516 198.109 42.104 197.269 42.552C196.448 43 195.487 43.224 194.385 43.224C193.116 43.224 191.959 42.8973 190.913 42.244C189.868 41.572 189.037 40.6293 188.421 39.416C187.824 38.184 187.525 36.7653 187.525 35.16ZM199.229 35.188C199.229 33.9933 198.893 33.0507 198.221 32.36C197.568 31.6693 196.765 31.324 195.813 31.324C194.861 31.324 194.049 31.6693 193.377 32.36C192.724 33.032 192.397 33.9653 192.397 35.16C192.397 36.3547 192.724 37.3067 193.377 38.016C194.049 38.7067 194.861 39.052 195.813 39.052C196.765 39.052 197.568 38.7067 198.221 38.016C198.893 37.3253 199.229 36.3827 199.229 35.188ZM224.681 27.376L214.881 50.42H209.729L213.313 42.468L206.957 27.376H212.305L215.917 37.148L219.501 27.376H224.681Z" fill="white"/>
<path d="M88.5006 47.035C96.4959 47.035 103 40.5302 103 32.535C103 28.7918 101.548 25.2118 98.9847 22.5252C98.9847 22.5252 99.3581 21.6854 99.8204 20.6493C100.282 19.6133 99.6177 18.8822 98.3367 19.0157L90.8339 19.8017C89.5527 19.9355 89.1272 20.889 89.8836 21.9315L94.3157 28.0374C95.073 29.0797 96.0068 29.2046 96.4026 28.3159L97.1194 26.7073C98.2736 28.4153 98.9188 30.4366 98.9188 32.535C98.9188 38.2806 94.2452 42.9536 88.5007 42.9536C82.7553 42.9536 78.0814 38.2801 78.0814 32.535C78.0814 30.7252 78.5517 28.9433 79.4428 27.3826C80.0014 26.4036 79.6609 25.1574 78.6818 24.5989C77.7025 24.0399 76.4569 24.3809 75.8979 25.3605C74.6565 27.5357 74 30.0165 74 32.5349C74 40.5302 80.505 47.035 88.5006 47.035Z" fill="white"/>
<defs>
<filter id="filter0_d" x="0" y="0" width="300" height="71" filterUnits="userSpaceOnUse" color-interpolation-filters="sRGB">
<feFlood flood-opacity="0" result="BackgroundImageFix"/>
<feColorMatrix in="SourceAlpha" type="matrix" values="0 0 0 0 0 0 0 0 0 0 0 0 0 0 0 0 0 0 127 0"/>
<feOffset dy="3"/>
<feGaussianBlur stdDeviation="3"/>
<feColorMatrix type="matrix" values="0 0 0 0 0 0 0 0 0 0 0 0 0 0 0 0 0 0 0.160784 0"/>
<feBlend mode="normal" in2="BackgroundImageFix" result="effect1_dropShadow"/>
<feBlend mode="normal" in="SourceGraphic" in2="effect1_dropShadow" result="shape"/>
</filter>
</defs>
</svg>
