<svg width="302" height="67" viewBox="0 0 302 67" fill="none" xmlns="http://www.w3.org/2000/svg">
<g clip-path="url(#clip0_3_554)">
<path fill-rule="evenodd" clip-rule="evenodd" d="M91.5685 36.7974C91.1554 37.3835 90.7678 37.9873 90.3245 38.5516C87.2331 42.5058 83.3197 44.9006 78.1606 44.7851C75.4121 44.8452 72.8855 43.2833 71.7091 40.7982C71.0246 39.3065 70.8214 37.6389 71.1272 36.0256C71.6291 32.4301 73.2048 29.0692 75.6482 26.383C76.5554 25.3535 77.4897 24.3408 78.4945 23.404C80.4983 21.633 83.0564 20.6154 85.7296 20.5264C88.1923 20.3961 90.6623 20.5659 93.085 21.0318C93.4628 21.0935 93.5436 20.9949 93.6269 20.6442C93.8126 19.7956 94.0569 18.9614 94.3563 18.1455C94.6381 17.4161 95.0552 17.2529 95.7556 17.5996C96.4298 17.967 97.0784 18.3792 97.6973 18.8341C97.7814 18.9349 97.8077 19.0727 97.7677 19.1976C96.7004 21.2312 96.3216 23.468 95.8237 25.6713C95.5796 26.7337 95.478 27.8226 95.5212 28.9113C95.6133 34.1802 95.0239 39.4387 93.7685 44.5562C93.1593 47.4577 92.2611 50.291 91.089 53.0139C90.5853 54.1595 89.9095 55.2308 89.2995 56.3276C88.7623 57.2932 88.2339 58.2659 87.6541 59.2098C85.7289 62.5236 82.6488 65.0096 79.0036 66.1921C77.3313 66.7885 75.5083 66.8101 73.8228 66.2546C73.5531 66.164 73.292 66.0487 73.0429 65.9102C70.8774 64.686 70.9928 62.5779 72.0966 61.0665C72.5443 60.3099 73.5211 60.0593 74.2776 60.5068C74.4498 60.6093 74.601 60.7423 74.7245 60.9C75.0534 61.257 75.3471 61.6461 75.601 62.0609C76.127 63.164 77.412 63.6781 78.5538 63.2418C80.3022 62.7943 81.8939 61.8719 83.1517 60.5765C85.3917 58.2275 87.1034 55.4262 88.1706 52.3606C89.3708 48.9148 90.3139 45.384 90.9936 41.7989C91.2218 40.7525 91.5412 39.7237 91.7254 38.6709C91.7839 38.0608 91.7901 37.4476 91.7446 36.8359L91.5685 36.7974ZM79.6473 41.7164C79.8691 41.6965 80.2405 41.6868 80.6024 41.6252C82.3191 41.3177 83.8882 40.4555 85.0682 39.1704C86.5454 37.6197 87.9025 35.9528 89.2732 34.3043C89.6622 33.8655 89.9585 33.3524 90.1442 32.7951C90.6766 30.9145 91.2042 29.0242 91.5692 27.106C91.8735 25.5047 91.1458 24.4511 89.6222 23.8443C89.4373 23.7658 89.2467 23.701 89.0522 23.6514C85.3861 22.7075 81.4976 23.8298 78.8995 26.5832C76.5201 28.9747 75.0486 32.1203 74.7363 35.4788C74.5659 36.992 74.8805 38.5203 75.6355 39.843C76.4752 41.3489 77.9228 41.6804 79.6473 41.7164V41.7164Z" fill="#48AA32"/>
<path fill-rule="evenodd" clip-rule="evenodd" d="M119.069 19.1308C119.509 18.7546 119.94 18.4103 120.344 18.0372C121.395 17.1117 122.684 16.4961 124.065 16.259C125.837 16.0502 127.444 17.3175 127.653 19.0899L127.658 19.1324C127.768 21.5552 127.292 23.9673 126.269 26.1658C125.475 28.0816 124.539 29.9391 123.62 31.7997C123.38 32.1535 123.393 32.6203 123.652 32.9598C124.121 33.6323 124.67 34.2447 125.287 34.7836C126.888 35.9902 128.561 37.115 130.241 38.215C131.015 38.6634 131.895 38.8933 132.79 38.8795C133.34 38.9043 133.449 38.6529 133.448 38.2118C133.448 37.0911 133.469 35.9629 133.439 34.8397C133.366 32.1232 133.267 29.4076 133.182 26.6909C133.102 24.2258 133.048 21.7609 132.942 19.2972C132.905 18.9714 132.75 18.6704 132.507 18.451C131.86 17.9459 131.637 17.0677 131.964 16.3142C132.371 15.1821 132.804 14.0566 133.295 12.9581C133.519 12.34 134.184 12.0005 134.816 12.1815C135.389 12.3264 135.794 12.8387 135.802 13.4297C135.814 13.5096 135.823 13.5961 135.837 13.6787C136.056 15.0533 136.448 15.3247 137.819 15.5297C139.224 15.733 140.612 16.0421 141.971 16.4552C144.094 17.1141 145.327 18.8274 146.449 20.6008C147.922 22.9226 147.843 25.4355 147.218 27.984C146.373 31.2169 144.668 34.159 142.284 36.4994C140.709 38.1167 138.969 39.5769 137.24 41.0364C136.349 41.8218 135.234 42.307 134.052 42.4222C133.035 42.4496 132.022 42.279 131.069 41.921C128.892 41.0836 126.839 39.9524 124.968 38.5585C123.767 37.7346 122.592 36.8661 121.413 36.007C120.737 35.5146 120.532 35.5714 120.442 36.4073C120.367 37.0878 120.412 37.7804 120.38 38.4664C120.331 39.5193 120.262 40.5712 120.196 41.6224C120.186 41.7225 120.162 41.821 120.126 41.9147C119.957 42.4294 119.794 42.9723 119.171 43.098C118.555 43.1909 117.942 42.9171 117.598 42.3975C117.047 41.6674 116.756 40.7739 116.773 39.8586C116.713 38.5193 116.722 37.1774 116.699 35.8364C116.622 31.3257 116.546 26.8151 116.469 22.306C116.456 21.467 116.424 20.6248 116.444 19.7914C116.458 19.1228 116.545 18.4302 117.331 18.2157C118.109 18.0028 118.601 18.4679 119.069 19.1309V19.1308ZM136.91 38.0502L137.103 38.1006C137.732 37.6098 138.393 37.1543 138.986 36.6227C141.171 34.529 142.852 31.9654 143.901 29.1256C144.778 27.1441 144.833 24.8944 144.054 22.8721C143.216 20.6424 141.878 18.9338 139.464 18.3647C138.51 18.1405 137.506 18.1365 136.529 18.0044C136.178 17.9571 136.082 18.0356 136.083 18.4047C136.103 24.0034 136.092 29.6029 136.518 35.1903C136.591 36.1478 136.776 37.0974 136.91 38.0509V38.0502ZM119.617 27.5284C119.617 27.9976 119.585 28.47 119.624 28.9366C119.66 29.4867 119.743 30.0328 119.874 30.5676C120.011 31.0766 120.325 31.1848 120.748 30.8813C121.131 30.6109 121.475 30.2898 121.77 29.9263C123.12 28.1225 124.06 26.0465 124.524 23.8417C124.8 22.8857 124.832 21.8761 124.62 20.9043C124.451 19.9651 123.551 19.3422 122.612 19.5118C122.223 19.5824 121.87 19.7842 121.612 20.0827C121.136 20.6207 120.765 21.2428 120.516 21.9161C119.808 23.6982 119.501 25.615 119.617 27.5284L119.617 27.5284Z" fill="#48AA32"/>
<path fill-rule="evenodd" clip-rule="evenodd" d="M277.397 38.9127V47.5641C277.397 49.175 277.383 50.7859 277.406 52.3959C277.412 52.781 277.298 52.8762 276.926 52.8643C276.156 52.8362 275.381 52.8258 274.612 52.8643C274.157 52.8882 274.063 52.7442 274.064 52.3038C274.078 45.3417 274.081 38.3787 274.074 31.4158C274.074 26.9523 274.08 22.4897 274.064 18.0271C274.064 17.6107 274.168 17.4812 274.588 17.4988C275.375 17.5323 276.165 17.5259 276.954 17.4988C277.304 17.4874 277.409 17.5867 277.405 17.9431C277.384 19.3153 277.397 20.6876 277.397 22.1743C277.557 22.0013 277.662 21.91 277.743 21.802C282.517 15.4147 291.588 15.6108 296.632 20.3208C302.215 25.3767 302.642 34.0001 297.587 39.5828C295.81 41.5443 293.501 42.947 290.941 43.6188C286.273 44.8438 281.313 43.329 278.125 39.7053C277.909 39.486 277.699 39.2457 277.397 38.9127L277.397 38.9127ZM297.763 30.5127C297.715 29.9955 297.698 29.4718 297.613 28.9635C296.825 23.3359 291.625 19.413 285.998 20.1999C284.902 20.353 283.839 20.682 282.849 21.1735C278.846 23.1038 276.75 27.2582 277.248 31.953C277.94 38.4748 284.067 41.7205 289.144 40.8318C294.133 39.9279 297.762 35.5837 297.763 30.5127Z" fill="#F89838"/>
<path fill-rule="evenodd" clip-rule="evenodd" d="M7.49316 6.45211C6.37243 7.57699 5.25952 8.7098 4.13061 9.8243C3.69921 10.2902 3.21789 10.7082 2.69665 11.0709C2.27087 11.291 1.80566 11.4255 1.32849 11.4664C0.955445 11.524 0.828865 11.2502 0.906495 10.9099C0.950685 10.7146 1.02026 10.5264 1.11547 10.3496C3.58935 5.84762 7.07934 2.59005 12.1952 1.34566C14.1831 0.913528 16.2344 0.852618 18.2455 1.16573C19.5834 1.36983 20.9083 1.64998 22.2142 2.0046C22.6793 2.14486 23.1221 2.35213 23.5272 2.62118C24.9899 3.44027 25.8113 5.06381 25.6039 6.7275C25.4077 8.85641 24.6857 10.9027 23.5016 12.6826C21.5184 15.7008 19.1334 18.4342 16.412 20.807C15.71 21.4564 14.999 22.0976 14.2568 22.6991C13.5627 23.2 13.2185 24.0544 13.3705 24.8967C13.9567 28.9414 14.5259 32.9878 15.1199 37.0307C15.2537 37.941 15.4897 38.8361 15.6211 39.7473C15.658 40.0418 15.5865 40.3397 15.421 40.5847C14.9589 41.2004 14.4465 41.7752 13.8893 42.3052C13.1367 42.9985 12.4066 42.804 12.156 41.817C11.7076 40.0506 11.2865 38.2734 10.9647 36.4799C10.4354 33.5305 9.99023 30.5634 9.5188 27.6059C9.46118 27.2401 9.28749 27.0727 8.92554 27.0799C8.2218 27.0936 7.51648 27.1215 6.81348 27.1104C6.36267 27.1152 5.91285 27.072 5.47083 26.9823C4.99036 26.9039 4.66541 26.4514 4.7439 25.9711L4.75025 25.9357C4.78394 25.0432 5.26356 24.2274 6.0265 23.763C6.42286 23.5148 6.84559 23.3114 7.28736 23.1569C8.19057 22.8566 8.8086 22.0217 8.83192 21.0697C8.92311 18.6567 8.80543 16.2403 8.47877 13.8482C8.18739 11.5881 7.97193 9.31831 7.72218 7.05257C7.70216 6.87398 7.67408 6.6971 7.65016 6.51937L7.49316 6.45211ZM16.5642 3.58749L16.5569 3.64035C16.3057 3.64035 16.0533 3.65158 15.802 3.64035C14.7612 3.56113 13.7164 3.7308 12.754 4.1351C12.0294 4.35446 11.5731 5.0704 11.6804 5.81967C11.7717 7.96457 11.8037 10.1141 11.9662 12.2534C12.1152 14.2053 12.3434 16.1555 12.6531 18.0875C12.8685 19.4317 13.1848 19.5197 14.4065 18.8625C15.437 18.2588 16.3416 17.4613 17.0709 16.5141C18.8484 14.2852 20.3783 11.8691 21.6345 9.30869C21.7089 9.16062 21.7514 8.999 21.7593 8.83323C21.7835 8.24632 21.8122 7.65867 21.7923 7.07176C21.9044 5.49705 20.7666 4.10789 19.2006 3.90782C18.34 3.72203 17.4448 3.69005 16.5642 3.58751L16.5642 3.58749Z" fill="#48AA32"/>
<path fill-rule="evenodd" clip-rule="evenodd" d="M256.25 30.7083C252.542 30.7083 248.834 30.714 245.126 30.6987C244.732 30.6987 244.624 30.7916 244.635 31.1952C244.758 35.8131 247.998 39.9923 252.268 40.7384C256.758 41.5239 260.514 40.2004 263.237 36.3958C263.529 35.9875 263.807 35.5672 264.066 35.1364C264.202 34.9091 264.306 34.8339 264.571 34.9763C265.292 35.3765 266.018 35.7539 266.752 36.1213C266.999 36.2446 267.06 36.3518 266.917 36.6168C264.639 40.8562 261.214 43.4221 256.349 43.9024C253.84 44.2235 251.291 43.884 248.954 42.9162C245.128 41.2347 242.85 38.178 241.706 34.2694C240.08 28.5914 242.217 22.506 247.037 19.0914C249.595 17.3708 252.68 16.6112 255.744 16.9481C258.447 17.0914 261.028 18.1098 263.101 19.8496C265.789 22.064 267.484 25.2578 267.812 28.7243C267.863 29.1911 267.867 29.6627 267.925 30.1271C267.981 30.5706 267.856 30.7178 267.373 30.7147C263.665 30.6979 259.957 30.7083 256.25 30.7083L256.25 30.7083ZM264.217 27.7747C263.112 21.9615 258.116 19.6991 253.833 19.9553C251.457 20.061 249.215 21.0833 247.577 22.807C246.306 24.2169 245.41 25.9239 244.971 27.7708L264.217 27.7747Z" fill="#F89838"/>
<path fill-rule="evenodd" clip-rule="evenodd" d="M199.545 24.311C199.545 18.1862 199.553 12.0615 199.531 5.93597C199.531 5.40435 199.685 5.31634 200.171 5.3211C203.141 5.34832 206.112 5.30657 209.081 5.36028C211.045 5.30657 213.009 5.49883 214.926 5.93279C218.967 7.03753 221.83 10.4643 221.45 15.4816C221.368 17.8283 220.299 20.0317 218.506 21.5472C216.905 22.8793 214.911 23.6496 212.831 23.7408C209.751 23.9153 206.666 23.9715 203.582 24.0507C203.172 24.0611 203.053 24.1452 203.054 24.571C203.069 30.6623 203.061 36.754 203.074 42.845C203.074 43.267 203.005 43.4288 202.537 43.4056C201.683 43.3606 200.825 43.3801 199.97 43.3998C199.65 43.407 199.54 43.3327 199.541 42.9884C199.551 37.9206 199.552 32.8533 199.546 27.7854V24.3116L199.545 24.311ZM203.062 14.6491V20.2333C203.062 20.4615 203.036 20.6481 203.382 20.6424C206.297 20.5976 209.217 20.6705 212.124 20.5096C215.131 20.5336 217.632 18.2005 217.815 15.1983C218.127 12.4531 216.377 9.89422 213.705 9.18963C212.493 8.93682 211.26 8.79986 210.023 8.77984C207.861 8.71478 205.699 8.76849 203.538 8.74932C203.169 8.74932 203.057 8.8294 203.057 9.21612C203.074 11.027 203.062 12.8381 203.062 14.6491H203.062Z" fill="#F89838"/>
<path d="M53.3485 63.1993C53.4382 61.9543 53.7585 60.7367 54.2933 59.6086C56.5175 54.5719 57.9337 49.2518 59.7511 44.0766C59.792 43.8419 59.7471 43.5994 59.6238 43.3952C58.0226 40.3594 56.3236 37.3707 54.8201 34.2851C53.8722 32.334 53.2189 30.2396 52.4255 28.2132C52.255 27.7777 52.0483 27.355 51.8434 26.9321C51.6169 26.5735 51.6962 26.102 52.0267 25.8362C52.4543 25.4631 52.9164 25.1316 53.4071 24.8458C54.0044 24.447 54.8113 24.6081 55.2101 25.2053C55.2277 25.2317 55.2437 25.2582 55.2596 25.2854C55.5944 25.7657 55.8601 26.2901 56.0491 26.8434C56.6816 28.7496 57.25 30.6767 57.868 32.5869C58.5046 34.4276 59.4148 36.1609 60.5669 37.7309C61.1274 38.5316 61.559 38.5316 62.1066 37.7133C62.5398 37.0769 62.9072 36.3979 63.2034 35.687C64.7999 31.7288 66.3746 27.7617 67.9269 23.7859C68.5707 21.874 69.6035 20.1158 70.9604 18.6226C71.1766 18.3897 71.4113 18.1735 71.661 17.9766C72.1263 17.637 72.766 17.6707 73.1933 18.0567C73.5016 18.3153 73.5651 18.7642 73.34 19.0974C71.9492 22.291 70.5233 25.4703 69.1936 28.6888C67.4419 32.9321 65.7589 37.197 64.0656 41.4602C63.7382 42.2847 63.7838 42.292 64.4884 42.8629C64.8062 43.1086 65.0977 43.3872 65.3571 43.6938C65.6261 43.9604 65.6283 44.3952 65.3627 44.6643C65.2963 44.7315 65.2169 44.7843 65.1296 44.8188C64.269 45.3703 63.2138 45.7732 62.615 46.5336C62.0314 47.2742 61.9192 48.3855 61.5942 49.3358C60.0842 53.7392 58.5822 58.1425 57.0498 62.5379C56.8153 63.1296 56.5271 63.6988 56.1884 64.2376C55.9307 64.8342 55.2886 65.1647 54.6536 65.0286C53.9683 64.9013 53.4544 64.3298 53.4006 63.6348C53.3775 63.4699 53.3623 63.3024 53.3485 63.1993L53.3485 63.1993Z" fill="#48AA32"/>
<path fill-rule="evenodd" clip-rule="evenodd" d="M46.9734 32.4949C46.8813 32.6654 46.7862 32.8343 46.6974 33.0065C45.5675 35.3467 44.2362 37.5845 42.7182 39.6924C41.7416 41.0503 40.3972 42.1 38.8434 42.7171C36.6567 43.6434 34.134 42.6218 33.2083 40.4361C33.0564 40.0784 32.9548 39.7012 32.9043 39.316C32.5168 36.9127 32.8914 34.4476 33.9754 32.2676C35.7177 28.5574 38.0705 25.1661 40.9352 22.2342C41.964 21.1462 43.2033 20.2776 44.578 19.6811C46.2097 18.8701 48.1881 19.3496 49.2673 20.818C49.6892 21.3032 49.9143 21.9283 49.8983 22.5713C49.8348 25.4711 49.713 28.3718 49.7428 31.2707C49.7516 34.7455 50.2641 38.1992 51.264 41.5266C51.5042 42.3032 51.2688 43.1479 50.6627 43.6883C50.2104 44.2407 49.3952 44.3224 48.8429 43.8692C48.6468 43.7091 48.5027 43.4945 48.4273 43.2519C48.0753 42.2777 47.8357 41.2657 47.7148 40.2359C47.4746 38.0383 47.3625 35.8271 47.192 33.6213C47.164 33.2547 47.1056 32.8904 47.0606 32.5245L46.9734 32.4949ZM46.1817 24.9347C46.1817 24.0933 46.1896 23.4391 46.1817 22.7851C46.1752 22.4239 46.0086 22.2325 45.638 22.4264C44.8797 22.7338 44.1618 23.1301 43.498 23.608C40.0314 26.6945 37.3501 30.3085 36.2124 34.9097C35.8641 36.173 35.7609 37.49 35.9065 38.7917C35.9226 39.2521 36.2925 39.6211 36.7528 39.6348C37.9455 39.8004 39.1564 39.4834 40.1155 38.7541C41.0592 37.9712 41.8559 37.0248 42.4661 35.96C43.6462 33.9327 44.5964 31.78 45.3002 29.5414C45.8246 27.9851 46.4652 26.4526 46.1818 24.9379L46.1817 24.9347Z" fill="#48AA32"/>
<path d="M166.689 33.2599C166.613 31.3703 166.564 29.0045 166.407 26.6453C166.306 25.124 166.044 23.6211 165.859 22.1089C165.685 21.1113 165.794 20.0857 166.174 19.1466C166.357 18.7462 166.571 18.3459 167.084 18.3082C167.615 18.2683 167.905 18.6285 168.15 19.021C168.551 19.7622 168.748 20.5964 168.721 21.438C168.761 22.526 168.771 23.6156 168.84 24.7021C168.902 25.0054 169.006 25.2993 169.148 25.5738C169.4 25.4017 169.628 25.1968 169.828 24.9654C170.463 23.9999 171.068 23.0144 171.669 22.0256C172.41 20.6445 173.511 19.4901 174.856 18.6838C175.415 18.3867 176.012 18.165 176.63 18.0226C177.779 17.7463 178.977 18.2323 179.609 19.2314C180.535 20.5732 181.181 22.0871 181.508 23.6844C182.196 26.4161 182.63 29.2063 182.803 32.018C182.937 34.0572 182.969 36.1019 182.898 38.1444C182.796 39.2101 182.598 40.2644 182.305 41.2931C182.181 41.8094 181.834 42.2426 181.357 42.4757C180.958 42.78 180.387 42.703 180.083 42.3027C180 42.1954 179.944 42.0714 179.916 41.9383C179.776 41.5437 179.709 41.1275 179.717 40.7086C179.789 39.1355 179.848 37.5575 180.033 35.9947C180.239 34.0932 180.226 32.1733 179.994 30.2744C179.836 28.3183 179.465 26.3849 178.885 24.5099C178.649 23.8133 178.341 23.1424 177.969 22.5083C177.703 22.0832 177.355 21.7149 176.945 21.4267C176.323 20.8935 175.39 20.9478 174.836 21.55C174.347 21.9832 173.912 22.4756 173.543 23.0144C171.832 25.6139 170.325 28.308 169.781 31.4383C169.487 33.5992 169.419 35.7857 169.581 37.9602C169.713 38.8745 169.659 39.8064 169.42 40.6992C169.357 40.8896 169.284 41.0771 169.202 41.2595C168.97 41.7175 168.704 42.1994 168.115 42.1706C167.592 42.1218 167.159 41.743 167.042 41.2307C166.844 40.6295 166.729 40.0033 166.7 39.3701C166.658 37.4941 166.689 35.6145 166.689 33.2598L166.689 33.2599Z" fill="#48AA32"/>
<path fill-rule="evenodd" clip-rule="evenodd" d="M110.527 31.0349C110.086 31.9887 109.671 32.9565 109.198 33.8916C108.551 35.1767 107.917 36.4737 107.174 37.7034C106.293 39.1414 105.081 40.3479 103.64 41.2212C102.809 41.8081 101.805 42.0949 100.79 42.033C99.0201 41.7664 97.6478 40.3485 97.4382 38.5713C97.1258 36.4513 97.3852 34.2864 98.189 32.2992C99.6278 28.3315 101.866 24.7015 104.766 21.6333C105.737 20.5839 106.89 19.72 108.171 19.0844C109.554 18.2685 111.33 18.6343 112.278 19.9306C112.738 20.4269 112.985 21.0835 112.967 21.7593C112.907 24.6597 112.833 27.5611 112.847 30.4618C112.824 33.9709 113.318 37.4632 114.312 40.8283C114.545 41.5887 113.458 43.0242 112.779 43.0867C112.337 43.1299 111.933 42.8385 111.835 42.407C111.56 41.6713 111.364 40.9091 111.251 40.1316C111.056 38.2166 110.947 36.2887 110.828 34.3672C110.759 33.2656 110.738 32.1614 110.695 31.0591L110.527 31.0349ZM109.844 24.0961C109.844 23.3123 109.858 22.7246 109.844 22.138C109.816 21.2845 109.656 21.1554 108.873 21.5295C108.211 21.8112 107.597 22.1946 107.054 22.6663C104.026 25.4419 101.788 28.9711 100.569 32.8941C100.07 34.4633 99.8608 36.1094 99.9511 37.7531C100.002 38.4464 100.255 38.8971 100.738 38.9539C101.785 39.1997 102.886 38.9746 103.753 38.3384C104.524 37.6736 105.215 36.9212 105.813 36.0966C107.004 34.2889 107.918 32.313 108.527 30.2351C109.19 28.1737 110.121 26.1602 109.844 24.0961H109.844Z" fill="#48AA32"/>
<path fill-rule="evenodd" clip-rule="evenodd" d="M148.957 30.8483C148.987 27.4545 149.905 24.1278 151.621 21.1992C152.684 19.3225 154.72 18.2113 156.873 18.333C158.582 18.4042 160.157 19.273 161.129 20.6804C161.606 21.3273 162.034 22.0087 162.409 22.7188C162.855 23.5194 163.242 24.36 163.654 25.1831C163.685 25.2423 163.716 25.3015 163.746 25.3624C164.441 26.7915 164.087 27.4647 162.523 27.7643C159.372 28.4136 156.184 28.8699 152.977 29.1325C152.393 29.0773 151.874 29.5056 151.819 30.0892C151.812 30.1637 151.812 30.2389 151.821 30.3134C151.703 32.9379 152.236 35.5509 153.373 37.9192C154.398 39.9408 155.598 40.5518 157.861 40.3451C158.845 40.2842 159.743 39.7622 160.284 38.9368C160.898 38.0561 161.521 37.1826 162.193 36.3492C162.507 35.9609 162.891 35.635 163.325 35.3884C163.833 35.106 164.248 35.4012 164.187 35.9858C164.152 36.4348 164.03 36.8727 163.826 37.2748C162.956 38.9103 161.734 40.3323 160.249 41.438C157.47 43.3265 153.7 42.7045 151.676 40.024C150.522 38.3292 149.75 36.4037 149.414 34.3805C149.189 33.2188 149.104 32.0259 148.957 30.8483L148.957 30.8483ZM154.02 26.8164C154.867 26.7571 155.541 26.7459 156.202 26.6561C157.127 26.5265 158.048 26.3567 158.96 26.1534C159.183 26.1039 159.52 25.87 159.535 25.6979C159.724 24.328 159.435 22.9341 158.715 21.7524C157.972 20.6188 155.353 20.1609 154.356 21.7052C153.49 23.1367 152.863 24.6995 152.499 26.3328C152.43 26.6049 152.543 26.6858 152.798 26.7025C153.266 26.7338 153.729 26.7875 154.02 26.8138L154.02 26.8164Z" fill="#48AA32"/>
<path d="M26.0497 39.0813C26.1904 37.6466 26.3386 36.2127 26.4708 34.778C26.7315 31.9566 27.0672 29.1393 27.2224 26.3115C27.5508 20.367 27.7973 14.4168 28.0414 8.46829C28.0969 7.11355 27.9958 5.75332 27.987 4.39468C27.9751 3.89273 28.0055 3.39077 28.0783 2.89358C28.1358 2.2875 28.5636 1.78066 29.1521 1.62136C29.7236 1.47805 30.3257 1.69656 30.6732 2.17312C31.4352 3.0176 31.826 4.13381 31.7573 5.26907C31.5971 7.96463 31.4402 10.6603 31.2878 13.3551C31.0598 17.3583 30.8227 21.3612 30.6098 25.3644C30.3736 29.8031 30.1511 34.2423 29.9413 38.6826C29.9614 39.4672 29.9375 40.2526 29.8694 41.0348C29.6611 42.3086 28.6267 42.7489 27.4946 42.1157C26.4314 41.5208 26.1826 40.4856 26.0704 39.3864C26.0648 39.2863 26.0648 39.1854 26.0704 39.0845L26.0497 39.0813Z" fill="#48AA32"/>
<path d="M230.067 21.1093C230.843 20.283 231.55 19.428 232.365 18.689C233.589 17.4802 235.269 16.846 236.987 16.9438C237.855 17.0887 238.705 17.3305 239.52 17.6642C239.611 17.7619 239.647 17.8981 239.616 18.0278C239.156 18.8076 238.678 19.5761 238.183 20.3334C238.084 20.4424 237.938 20.4961 237.793 20.4769C235.729 19.7345 233.427 20.5257 232.255 22.3791C231.137 23.9635 230.478 25.8241 230.349 27.7583C229.927 32.1755 230.109 36.606 230.068 41.0309C230.062 41.6515 230.046 42.2736 230.074 42.8925C230.092 43.2703 230.004 43.4209 229.587 43.4031C228.767 43.368 227.943 43.3736 227.122 43.4031C226.751 43.4161 226.635 43.3232 226.642 42.9341C226.663 41.1728 226.651 39.4113 226.651 37.6501C226.651 31.1258 226.647 24.6015 226.639 18.0766C226.639 17.6073 226.767 17.4833 227.221 17.5041C228.022 17.5409 228.832 17.5337 229.635 17.5041C230 17.4912 230.081 17.6178 230.074 17.9596C230.052 19.0149 230.067 20.0677 230.067 21.1093V21.1093Z" fill="#F89838"/>
</g>
<defs>
<clipPath id="clip0_3_554">
<rect width="300.231" height="65.687" fill="white" transform="translate(0.884644 0.968933)"/>
</clipPath>
</defs>
</svg>
