<svg width="300" height="71" viewBox="0 0 300 71" fill="none" xmlns="http://www.w3.org/2000/svg">
<g filter="url(#filter0_d)">
<rect x="6" y="3" width="288" height="59" rx="3" fill="#F89838"/>
</g>
<path d="M54.728 29.52C54.3987 28.9133 53.922 28.454 53.298 28.142C52.6913 27.8127 51.972 27.648 51.14 27.648C49.7013 27.648 48.5487 28.1247 47.682 29.078C46.8153 30.014 46.382 31.2707 46.382 32.848C46.382 34.5293 46.8327 35.8467 47.734 36.8C48.6527 37.736 49.9093 38.204 51.504 38.204C52.596 38.204 53.5147 37.9267 54.26 37.372C55.0227 36.8173 55.5773 36.02 55.924 34.98H50.282V31.704H59.954V35.838C59.6247 36.9473 59.0613 37.9787 58.264 38.932C57.484 39.8853 56.4873 40.6567 55.274 41.246C54.0607 41.8353 52.6913 42.13 51.166 42.13C49.3633 42.13 47.7513 41.74 46.33 40.96C44.926 40.1627 43.8253 39.062 43.028 37.658C42.248 36.254 41.858 34.6507 41.858 32.848C41.858 31.0453 42.248 29.442 43.028 28.038C43.8253 26.6167 44.926 25.516 46.33 24.736C47.734 23.9387 49.3373 23.54 51.14 23.54C53.324 23.54 55.1613 24.0687 56.652 25.126C58.16 26.1833 59.1567 27.648 59.642 29.52H54.728ZM72.2887 42.182C70.5727 42.182 68.9954 41.7833 67.5567 40.986C66.1354 40.1887 65 39.0793 64.1507 37.658C63.3187 36.2193 62.9027 34.6073 62.9027 32.822C62.9027 31.0367 63.3187 29.4333 64.1507 28.012C65 26.5907 66.1354 25.4813 67.5567 24.684C68.9954 23.8867 70.5727 23.488 72.2887 23.488C74.0047 23.488 75.5734 23.8867 76.9947 24.684C78.4334 25.4813 79.56 26.5907 80.3747 28.012C81.2067 29.4333 81.6227 31.0367 81.6227 32.822C81.6227 34.6073 81.2067 36.2193 80.3747 37.658C79.5427 39.0793 78.416 40.1887 76.9947 40.986C75.5734 41.7833 74.0047 42.182 72.2887 42.182ZM72.2887 38.126C73.7447 38.126 74.906 37.6407 75.7727 36.67C76.6567 35.6993 77.0987 34.4167 77.0987 32.822C77.0987 31.21 76.6567 29.9273 75.7727 28.974C74.906 28.0033 73.7447 27.518 72.2887 27.518C70.8154 27.518 69.6367 27.9947 68.7527 28.948C67.886 29.9013 67.4527 31.1927 67.4527 32.822C67.4527 34.434 67.886 35.7253 68.7527 36.696C69.6367 37.6493 70.8154 38.126 72.2887 38.126ZM105.216 23.748V27.31H100.38V42H95.9339V27.31H91.0979V23.748H105.216ZM117.319 42.182C115.603 42.182 114.026 41.7833 112.587 40.986C111.166 40.1887 110.031 39.0793 109.181 37.658C108.349 36.2193 107.933 34.6073 107.933 32.822C107.933 31.0367 108.349 29.4333 109.181 28.012C110.031 26.5907 111.166 25.4813 112.587 24.684C114.026 23.8867 115.603 23.488 117.319 23.488C119.035 23.488 120.604 23.8867 122.025 24.684C123.464 25.4813 124.591 26.5907 125.405 28.012C126.237 29.4333 126.653 31.0367 126.653 32.822C126.653 34.6073 126.237 36.2193 125.405 37.658C124.573 39.0793 123.447 40.1887 122.025 40.986C120.604 41.7833 119.035 42.182 117.319 42.182ZM117.319 38.126C118.775 38.126 119.937 37.6407 120.803 36.67C121.687 35.6993 122.129 34.4167 122.129 32.822C122.129 31.21 121.687 29.9273 120.803 28.974C119.937 28.0033 118.775 27.518 117.319 27.518C115.846 27.518 114.667 27.9947 113.783 28.948C112.917 29.9013 112.483 31.1927 112.483 32.822C112.483 34.434 112.917 35.7253 113.783 36.696C114.667 37.6493 115.846 38.126 117.319 38.126ZM141.562 38.568H147.386V42H137.116V23.748H141.562V38.568ZM155.193 27.31V31.002H161.147V34.434H155.193V38.438H161.927V42H150.747V23.748H161.927V27.31H155.193ZM172.657 42.182C171.323 42.182 170.127 41.9653 169.069 41.532C168.012 41.0987 167.163 40.4573 166.521 39.608C165.897 38.7587 165.568 37.736 165.533 36.54H170.265C170.335 37.216 170.569 37.736 170.967 38.1C171.366 38.4467 171.886 38.62 172.527 38.62C173.186 38.62 173.706 38.4727 174.087 38.178C174.469 37.866 174.659 37.4413 174.659 36.904C174.659 36.4533 174.503 36.0807 174.191 35.786C173.897 35.4913 173.524 35.2487 173.073 35.058C172.64 34.8673 172.016 34.6507 171.201 34.408C170.023 34.044 169.061 33.68 168.315 33.316C167.57 32.952 166.929 32.4147 166.391 31.704C165.854 30.9933 165.585 30.066 165.585 28.922C165.585 27.2233 166.201 25.8973 167.431 24.944C168.662 23.9733 170.265 23.488 172.241 23.488C174.252 23.488 175.873 23.9733 177.103 24.944C178.334 25.8973 178.993 27.232 179.079 28.948H174.269C174.235 28.3587 174.018 27.8993 173.619 27.57C173.221 27.2233 172.709 27.05 172.085 27.05C171.548 27.05 171.115 27.1973 170.785 27.492C170.456 27.7693 170.291 28.1767 170.291 28.714C170.291 29.3033 170.569 29.7627 171.123 30.092C171.678 30.4213 172.545 30.7767 173.723 31.158C174.902 31.5567 175.855 31.938 176.583 32.302C177.329 32.666 177.97 33.1947 178.507 33.888C179.045 34.5813 179.313 35.474 179.313 36.566C179.313 37.606 179.045 38.5507 178.507 39.4C177.987 40.2493 177.225 40.9253 176.219 41.428C175.214 41.9307 174.027 42.182 172.657 42.182ZM189.894 42.182C188.559 42.182 187.363 41.9653 186.306 41.532C185.248 41.0987 184.399 40.4573 183.758 39.608C183.134 38.7587 182.804 37.736 182.77 36.54H187.502C187.571 37.216 187.805 37.736 188.204 38.1C188.602 38.4467 189.122 38.62 189.764 38.62C190.422 38.62 190.942 38.4727 191.324 38.178C191.705 37.866 191.896 37.4413 191.896 36.904C191.896 36.4533 191.74 36.0807 191.428 35.786C191.133 35.4913 190.76 35.2487 190.31 35.058C189.876 34.8673 189.252 34.6507 188.438 34.408C187.259 34.044 186.297 33.68 185.552 33.316C184.806 32.952 184.165 32.4147 183.628 31.704C183.09 30.9933 182.822 30.066 182.822 28.922C182.822 27.2233 183.437 25.8973 184.668 24.944C185.898 23.9733 187.502 23.488 189.478 23.488C191.488 23.488 193.109 23.9733 194.34 24.944C195.57 25.8973 196.229 27.232 196.316 28.948H191.506C191.471 28.3587 191.254 27.8993 190.856 27.57C190.457 27.2233 189.946 27.05 189.322 27.05C188.784 27.05 188.351 27.1973 188.022 27.492C187.692 27.7693 187.528 28.1767 187.528 28.714C187.528 29.3033 187.805 29.7627 188.36 30.092C188.914 30.4213 189.781 30.7767 190.96 31.158C192.138 31.5567 193.092 31.938 193.82 32.302C194.565 32.666 195.206 33.1947 195.744 33.888C196.281 34.5813 196.55 35.474 196.55 36.566C196.55 37.606 196.281 38.5507 195.744 39.4C195.224 40.2493 194.461 40.9253 193.456 41.428C192.45 41.9307 191.263 42.182 189.894 42.182ZM209.158 42.182C207.442 42.182 205.864 41.7833 204.426 40.986C203.004 40.1887 201.869 39.0793 201.02 37.658C200.188 36.2193 199.772 34.6073 199.772 32.822C199.772 31.0367 200.188 29.4333 201.02 28.012C201.869 26.5907 203.004 25.4813 204.426 24.684C205.864 23.8867 207.442 23.488 209.158 23.488C210.874 23.488 212.442 23.8867 213.864 24.684C215.302 25.4813 216.429 26.5907 217.244 28.012C218.076 29.4333 218.492 31.0367 218.492 32.822C218.492 34.6073 218.076 36.2193 217.244 37.658C216.412 39.0793 215.285 40.1887 213.864 40.986C212.442 41.7833 210.874 42.182 209.158 42.182ZM209.158 38.126C210.614 38.126 211.775 37.6407 212.642 36.67C213.526 35.6993 213.968 34.4167 213.968 32.822C213.968 31.21 213.526 29.9273 212.642 28.974C211.775 28.0033 210.614 27.518 209.158 27.518C207.684 27.518 206.506 27.9947 205.622 28.948C204.755 29.9013 204.322 31.1927 204.322 32.822C204.322 34.434 204.755 35.7253 205.622 36.696C206.506 37.6493 207.684 38.126 209.158 38.126ZM238.533 42H234.087L226.651 30.742V42H222.205V23.748H226.651L234.087 35.058V23.748H238.533V42ZM249.6 42.182C248.265 42.182 247.069 41.9653 246.012 41.532C244.955 41.0987 244.105 40.4573 243.464 39.608C242.84 38.7587 242.511 37.736 242.476 36.54H247.208C247.277 37.216 247.511 37.736 247.91 38.1C248.309 38.4467 248.829 38.62 249.47 38.62C250.129 38.62 250.649 38.4727 251.03 38.178C251.411 37.866 251.602 37.4413 251.602 36.904C251.602 36.4533 251.446 36.0807 251.134 35.786C250.839 35.4913 250.467 35.2487 250.016 35.058C249.583 34.8673 248.959 34.6507 248.144 34.408C246.965 34.044 246.003 33.68 245.258 33.316C244.513 32.952 243.871 32.4147 243.334 31.704C242.797 30.9933 242.528 30.066 242.528 28.922C242.528 27.2233 243.143 25.8973 244.374 24.944C245.605 23.9733 247.208 23.488 249.184 23.488C251.195 23.488 252.815 23.9733 254.046 24.944C255.277 25.8973 255.935 27.232 256.022 28.948H251.212C251.177 28.3587 250.961 27.8993 250.562 27.57C250.163 27.2233 249.652 27.05 249.028 27.05C248.491 27.05 248.057 27.1973 247.728 27.492C247.399 27.7693 247.234 28.1767 247.234 28.714C247.234 29.3033 247.511 29.7627 248.066 30.092C248.621 30.4213 249.487 30.7767 250.666 31.158C251.845 31.5567 252.798 31.938 253.526 32.302C254.271 32.666 254.913 33.1947 255.45 33.888C255.987 34.5813 256.256 35.474 256.256 36.566C256.256 37.606 255.987 38.5507 255.45 39.4C254.93 40.2493 254.167 40.9253 253.162 41.428C252.157 41.9307 250.969 42.182 249.6 42.182Z" fill="white"/>
<defs>
<filter id="filter0_d" x="0" y="0" width="300" height="71" filterUnits="userSpaceOnUse" color-interpolation-filters="sRGB">
<feFlood flood-opacity="0" result="BackgroundImageFix"/>
<feColorMatrix in="SourceAlpha" type="matrix" values="0 0 0 0 0 0 0 0 0 0 0 0 0 0 0 0 0 0 127 0"/>
<feOffset dy="3"/>
<feGaussianBlur stdDeviation="3"/>
<feColorMatrix type="matrix" values="0 0 0 0 0 0 0 0 0 0 0 0 0 0 0 0 0 0 0.160784 0"/>
<feBlend mode="normal" in2="BackgroundImageFix" result="effect1_dropShadow"/>
<feBlend mode="normal" in="SourceGraphic" in2="effect1_dropShadow" result="shape"/>
</filter>
</defs>
</svg>
