<svg xmlns="http://www.w3.org/2000/svg" xmlns:xlink="http://www.w3.org/1999/xlink" width="319" height="320" viewBox="0 0 319 320"><defs><filter id="a" x="0" y="0" width="319" height="320" filterUnits="userSpaceOnUse"><feOffset dy="3" input="SourceAlpha"/><feGaussianBlur stdDeviation="3" result="b"/><feFlood flood-opacity="0.161"/><feComposite operator="in" in2="b"/><feComposite in="SourceGraphic"/></filter></defs><g transform="translate(-1066 -406)"><g transform="matrix(1, 0, 0, 1, 1066, 406)" filter="url(#a)"><ellipse cx="150.5" cy="151" rx="150.5" ry="151" transform="translate(9 6)" fill="#f89838"/></g><text transform="translate(1173 649)" fill="#fff" font-size="31" font-family="Poppins-Bold, Poppins" font-weight="700" letter-spacing="0.04em"><tspan x="0" y="0">START</tspan></text><g transform="translate(1073.338 394.265)"><g transform="translate(100.4 76.578)"><g transform="translate(0 0)"><path d="M217.066,134.2a33.337,33.337,0,0,1-2.322-2.9l-.58-.58a10.423,10.423,0,0,0-2.9-2.031L168.31,104.019a.284.284,0,0,1-.29-.29L124.778,78.771a16.384,16.384,0,0,0-12.189-1.741,17,17,0,0,0-9.867,7.546,21.876,21.876,0,0,0-1.741,3.773c-.29.871-.29,2.031-.58,3.192V192.824a15.855,15.855,0,0,0,15.962,15.962,13.145,13.145,0,0,0,4.643-.871,17.734,17.734,0,0,0,4.063-2.032l42.661-24.668.58-.29,42.952-24.668c.29,0,.29-.29.58-.29a16.309,16.309,0,0,0,6.965-9.577A15.138,15.138,0,0,0,217.066,134.2Zm-12.479,9a.624.624,0,0,1-.58.58h-.29l-42.661,24.958-.29.29L118.1,193.695c-.29,0-.29.29-.58.29a.284.284,0,0,0-.29.29h-.29c-.29,0-.58-.29-.871-.29a1.066,1.066,0,0,1-.29-.871V92.411c.29-.29.58-.58.871-.58h.871L160.474,116.5l.29.29,43.242,24.958.29.29.29.29Z" transform="translate(-100.4 -76.578)" fill="#fff"/></g></g></g></g></svg>