<svg width="261" height="71" viewBox="0 0 261 71" fill="none" xmlns="http://www.w3.org/2000/svg">
<g filter="url(#filter0_d)">
<rect x="6" y="3" width="249" height="59" rx="3" fill="#F89838"/>
</g>
<g clip-path="url(#clip0)">
<g clip-path="url(#clip1)">
<path fill-rule="evenodd" clip-rule="evenodd" d="M85.5 31.2947C85.3781 31.1709 85.1952 30.9232 85.0124 30.6755C84.9514 30.6136 84.9514 30.6136 84.8905 30.5517C84.7077 30.3659 84.5248 30.2421 84.2811 30.1182L75.2612 24.855C75.2612 24.855 75.2002 24.855 75.2002 24.793L66.1194 19.4678C65.3271 18.9725 64.4129 18.9106 63.5597 19.0963C62.7065 19.344 61.9751 19.9013 61.4876 20.7063C61.3047 20.9539 61.2438 21.2635 61.1219 21.5112C61.061 21.697 61.061 21.9447 61 22.1924C61 22.2543 61 22.3781 61 22.44V33.1523V43.8027C61 44.7315 61.3657 45.5984 61.9751 46.2176C62.5846 46.8368 63.4378 47.2084 64.352 47.2084C64.6567 47.2084 65.0224 47.1464 65.3271 47.0226C65.6318 46.8987 65.9366 46.7749 66.1803 46.5891L75.1393 41.3259L75.2612 41.264L84.2811 36.0007C84.342 36.0007 84.342 35.9388 84.403 35.9388C85.1343 35.4434 85.6828 34.7004 85.8656 33.8954C86.1094 33.0285 85.9875 32.0997 85.5 31.2947ZM82.8794 33.2143C82.8794 33.2762 82.8184 33.3381 82.7575 33.3381H82.6965L73.7376 38.6633L73.6766 38.7252L64.7177 43.9885C64.6568 43.9885 64.6568 44.0504 64.5958 44.0504C64.5958 44.0504 64.5349 44.0504 64.5349 44.1123H64.4739C64.413 44.1123 64.352 44.0504 64.2911 44.0504C64.2301 43.9885 64.2301 43.9266 64.2301 43.8646V33.1524V22.502V22.4401V22.3781C64.2911 22.3162 64.352 22.2543 64.413 22.2543C64.4739 22.2543 64.5349 22.2543 64.5958 22.2543L73.6157 27.5176L73.6766 27.5795L82.7575 32.9047L82.8184 32.9666L82.8794 33.0285C82.8794 33.0904 82.8794 33.1524 82.8794 33.2143V33.2143Z" fill="white"/>
</g>
</g>
<path d="M112.848 43.196C111.411 43.196 110.123 42.9627 108.984 42.496C107.845 42.0293 106.931 41.3387 106.24 40.424C105.568 39.5093 105.213 38.408 105.176 37.12H110.272C110.347 37.848 110.599 38.408 111.028 38.8C111.457 39.1733 112.017 39.36 112.708 39.36C113.417 39.36 113.977 39.2013 114.388 38.884C114.799 38.548 115.004 38.0907 115.004 37.512C115.004 37.0267 114.836 36.6253 114.5 36.308C114.183 35.9907 113.781 35.7293 113.296 35.524C112.829 35.3187 112.157 35.0853 111.28 34.824C110.011 34.432 108.975 34.04 108.172 33.648C107.369 33.256 106.679 32.6773 106.1 31.912C105.521 31.1467 105.232 30.148 105.232 28.916C105.232 27.0867 105.895 25.6587 107.22 24.632C108.545 23.5867 110.272 23.064 112.4 23.064C114.565 23.064 116.311 23.5867 117.636 24.632C118.961 25.6587 119.671 27.096 119.764 28.944H114.584C114.547 28.3093 114.313 27.8147 113.884 27.46C113.455 27.0867 112.904 26.9 112.232 26.9C111.653 26.9 111.187 27.0587 110.832 27.376C110.477 27.6747 110.3 28.1133 110.3 28.692C110.3 29.3267 110.599 29.8213 111.196 30.176C111.793 30.5307 112.727 30.9133 113.996 31.324C115.265 31.7533 116.292 32.164 117.076 32.556C117.879 32.948 118.569 33.5173 119.148 34.264C119.727 35.0107 120.016 35.972 120.016 37.148C120.016 38.268 119.727 39.2853 119.148 40.2C118.588 41.1147 117.767 41.8427 116.684 42.384C115.601 42.9253 114.323 43.196 112.848 43.196ZM138.343 23.344V27.18H133.135V43H128.347V27.18H123.139V23.344H138.343ZM154.222 39.528H146.886L145.71 43H140.698L147.81 23.344H153.354L160.466 43H155.398L154.222 39.528ZM152.99 35.832L150.554 28.636L148.146 35.832H152.99ZM173.894 43L169.806 35.58H168.658V43H163.87V23.344H171.906C173.455 23.344 174.771 23.6147 175.854 24.156C176.955 24.6973 177.777 25.444 178.318 26.396C178.859 27.3293 179.13 28.3747 179.13 29.532C179.13 30.8387 178.757 32.0053 178.01 33.032C177.282 34.0587 176.199 34.7867 174.762 35.216L179.298 43H173.894ZM168.658 32.192H171.626C172.503 32.192 173.157 31.9773 173.586 31.548C174.034 31.1187 174.258 30.512 174.258 29.728C174.258 28.9813 174.034 28.3933 173.586 27.964C173.157 27.5347 172.503 27.32 171.626 27.32H168.658V32.192ZM197.516 23.344V27.18H192.308V43H187.52V27.18H182.312V23.344H197.516Z" fill="white"/>
<defs>
<filter id="filter0_d" x="0" y="0" width="261" height="71" filterUnits="userSpaceOnUse" color-interpolation-filters="sRGB">
<feFlood flood-opacity="0" result="BackgroundImageFix"/>
<feColorMatrix in="SourceAlpha" type="matrix" values="0 0 0 0 0 0 0 0 0 0 0 0 0 0 0 0 0 0 127 0"/>
<feOffset dy="3"/>
<feGaussianBlur stdDeviation="3"/>
<feColorMatrix type="matrix" values="0 0 0 0 0 0 0 0 0 0 0 0 0 0 0 0 0 0 0.160784 0"/>
<feBlend mode="normal" in2="BackgroundImageFix" result="effect1_dropShadow"/>
<feBlend mode="normal" in="SourceGraphic" in2="effect1_dropShadow" result="shape"/>
</filter>
<clipPath id="clip0">
<rect width="25" height="28" fill="white" transform="translate(61 19)"/>
</clipPath>
<clipPath id="clip1">
<rect width="24.9875" height="28.2084" fill="white" transform="translate(61 19)"/>
</clipPath>
</defs>
</svg>
