<svg width="451" height="447" viewBox="0 0 451 447" fill="none" xmlns="http://www.w3.org/2000/svg">
<g filter="url(#filter0_d_618_9394)">
<g filter="url(#filter1_d_618_9394)">
<path d="M380.715 224.304C380.715 244.96 376.647 265.414 368.742 284.498C360.837 303.582 349.251 320.922 334.645 335.528L223.421 224.304L380.715 224.304Z" fill="#8FCCD5"/>
</g>
<g filter="url(#filter2_d_618_9394)">
<path d="M67.8235 223.615C68.2941 202.443 73.0654 181.589 81.8474 162.32C90.6294 143.05 103.239 125.768 118.908 111.524L223.956 227.085L67.8235 223.615Z" fill="#FCF394"/>
</g>
<g filter="url(#filter3_d_618_9394)">
<path d="M223.679 381.415C203.026 381.09 182.638 376.702 163.681 368.498C144.723 360.295 127.567 348.438 113.192 333.605L226.147 224.14L223.679 381.415Z" fill="#F6B7D2"/>
</g>
<g filter="url(#filter4_d_618_9394)">
<path d="M226.665 66.3802C247.318 66.7042 267.706 71.0932 286.663 79.2963C305.621 87.4995 322.777 99.3564 337.152 114.19L224.197 223.655L226.665 66.3802Z" fill="#B4D78B"/>
</g>
<g filter="url(#filter5_d_618_9394)">
<path d="M333.934 334.636C319.34 349.254 302.009 360.854 282.932 368.774C263.854 376.695 243.404 380.78 222.748 380.797L222.619 223.503L333.934 334.636Z" fill="#BFBFF7"/>
</g>
<g filter="url(#filter6_d_618_9394)">
<path d="M116.41 113.159C131.004 98.5406 148.335 86.9403 167.412 79.0199C186.489 71.0996 206.94 67.0144 227.596 66.9976L227.724 224.292L116.41 113.159Z" fill="#FFAB37"/>
</g>
<g filter="url(#filter7_d_618_9394)">
<path d="M116.363 337.376C100.563 322.363 88.056 304.231 79.6343 284.129C71.2126 264.028 67.0604 242.395 67.4408 220.604L224.711 223.349L116.363 337.376Z" fill="#F5D19B"/>
</g>
<g filter="url(#filter8_d_618_9394)">
<path d="M336.25 114.888C350.638 129.71 361.965 147.22 369.585 166.419C377.205 185.618 380.969 206.131 380.661 226.784L223.385 224.445L336.25 114.888Z" fill="#359846"/>
</g>
<g filter="url(#filter9_d_618_9394)">
<circle cx="223.421" cy="224.304" r="134.824" fill="white"/>
</g>
<g clip-path="url(#clip0_618_9394)">
<path d="M205.813 130.87C196.115 125.051 183.775 132.037 183.775 143.348V240.13C183.775 251.441 196.114 258.427 205.813 252.608L286.465 204.217C295.885 198.565 295.885 184.913 286.465 179.261L205.813 130.87Z" fill="#B2E68D"/>
</g>
<path d="M177.993 308.184C175.972 308.184 174.152 307.938 172.535 307.447C170.917 306.928 169.372 306.032 167.899 304.761C167.523 304.444 167.235 304.083 167.032 303.678C166.83 303.274 166.729 302.87 166.729 302.465C166.729 301.801 166.96 301.223 167.422 300.732C167.913 300.212 168.52 299.952 169.242 299.952C169.791 299.952 170.282 300.126 170.715 300.472C171.812 301.368 172.896 302.046 173.964 302.508C175.062 302.971 176.405 303.202 177.993 303.202C179.062 303.202 180.044 303.043 180.939 302.725C181.835 302.379 182.557 301.931 183.106 301.382C183.654 300.804 183.929 300.155 183.929 299.432C183.929 298.566 183.669 297.829 183.149 297.223C182.629 296.616 181.835 296.111 180.766 295.707C179.698 295.273 178.34 294.941 176.694 294.71C175.134 294.479 173.762 294.132 172.578 293.67C171.394 293.179 170.397 292.573 169.588 291.851C168.809 291.1 168.217 290.233 167.812 289.251C167.408 288.24 167.206 287.114 167.206 285.872C167.206 283.995 167.682 282.392 168.635 281.063C169.617 279.734 170.932 278.723 172.578 278.03C174.224 277.337 176.044 276.99 178.037 276.99C179.914 276.99 181.647 277.279 183.236 277.857C184.853 278.406 186.167 279.113 187.178 279.98C188.016 280.644 188.435 281.409 188.435 282.276C188.435 282.911 188.189 283.489 187.698 284.009C187.207 284.529 186.629 284.789 185.965 284.789C185.532 284.789 185.142 284.659 184.795 284.399C184.333 283.995 183.712 283.619 182.932 283.272C182.153 282.897 181.329 282.594 180.463 282.363C179.596 282.103 178.788 281.973 178.037 281.973C176.795 281.973 175.741 282.132 174.874 282.449C174.036 282.767 173.401 283.2 172.968 283.749C172.535 284.298 172.318 284.933 172.318 285.655C172.318 286.522 172.563 287.244 173.054 287.822C173.574 288.37 174.311 288.818 175.264 289.165C176.217 289.482 177.358 289.771 178.687 290.031C180.42 290.349 181.936 290.724 183.236 291.157C184.564 291.591 185.662 292.154 186.528 292.847C187.395 293.511 188.045 294.363 188.478 295.403C188.911 296.414 189.128 297.656 189.128 299.129C189.128 301.007 188.608 302.624 187.568 303.982C186.528 305.339 185.156 306.379 183.452 307.101C181.777 307.823 179.957 308.184 177.993 308.184ZM195.656 285.005H205.924C206.617 285.005 207.195 285.236 207.657 285.699C208.119 286.161 208.35 286.738 208.35 287.432C208.35 288.096 208.119 288.659 207.657 289.121C207.195 289.554 206.617 289.771 205.924 289.771H195.656C194.963 289.771 194.385 289.54 193.923 289.078C193.461 288.616 193.23 288.038 193.23 287.345C193.23 286.681 193.461 286.132 193.923 285.699C194.385 285.236 194.963 285.005 195.656 285.005ZM200.292 279.59C201.043 279.59 201.649 279.85 202.111 280.37C202.602 280.861 202.848 281.482 202.848 282.233V301.512C202.848 301.916 202.92 302.249 203.064 302.508C203.238 302.768 203.454 302.956 203.714 303.072C204.003 303.187 204.306 303.245 204.624 303.245C204.971 303.245 205.288 303.187 205.577 303.072C205.866 302.927 206.198 302.855 206.574 302.855C206.978 302.855 207.339 303.043 207.657 303.418C208.003 303.794 208.177 304.314 208.177 304.978C208.177 305.787 207.729 306.451 206.834 306.971C205.967 307.491 205.028 307.751 204.018 307.751C203.411 307.751 202.732 307.707 201.981 307.621C201.259 307.505 200.566 307.26 199.902 306.884C199.266 306.48 198.732 305.873 198.299 305.065C197.865 304.256 197.649 303.144 197.649 301.729V282.233C197.649 281.482 197.894 280.861 198.385 280.37C198.905 279.85 199.541 279.59 200.292 279.59ZM233.832 284.139C234.583 284.139 235.204 284.384 235.695 284.875C236.186 285.366 236.432 286.002 236.432 286.782V305.108C236.432 305.859 236.186 306.494 235.695 307.014C235.204 307.505 234.583 307.751 233.832 307.751C233.082 307.751 232.461 307.505 231.97 307.014C231.479 306.494 231.233 305.859 231.233 305.108V302.985L232.186 303.375C232.186 303.75 231.984 304.213 231.58 304.761C231.175 305.281 230.626 305.801 229.933 306.321C229.24 306.841 228.417 307.289 227.464 307.664C226.54 308.011 225.529 308.184 224.431 308.184C222.438 308.184 220.633 307.679 219.016 306.668C217.398 305.628 216.113 304.213 215.16 302.422C214.235 300.602 213.773 298.523 213.773 296.183C213.773 293.815 214.235 291.735 215.16 289.944C216.113 288.125 217.384 286.71 218.972 285.699C220.561 284.659 222.323 284.139 224.258 284.139C225.5 284.139 226.641 284.327 227.68 284.702C228.72 285.078 229.616 285.554 230.367 286.132C231.146 286.71 231.738 287.302 232.143 287.908C232.576 288.486 232.793 288.977 232.793 289.381L231.233 289.944V286.782C231.233 286.031 231.479 285.41 231.97 284.919C232.461 284.399 233.082 284.139 233.832 284.139ZM225.081 303.418C226.352 303.418 227.464 303.101 228.417 302.465C229.37 301.83 230.107 300.963 230.626 299.866C231.175 298.768 231.45 297.541 231.45 296.183C231.45 294.797 231.175 293.555 230.626 292.457C230.107 291.36 229.37 290.493 228.417 289.858C227.464 289.222 226.352 288.905 225.081 288.905C223.839 288.905 222.741 289.222 221.788 289.858C220.835 290.493 220.084 291.36 219.535 292.457C219.016 293.555 218.756 294.797 218.756 296.183C218.756 297.541 219.016 298.768 219.535 299.866C220.084 300.963 220.835 301.83 221.788 302.465C222.741 303.101 223.839 303.418 225.081 303.418ZM246.394 307.751C245.643 307.751 245.022 307.505 244.531 307.014C244.04 306.494 243.794 305.859 243.794 305.108V287.215C243.794 286.464 244.04 285.843 244.531 285.352C245.022 284.832 245.643 284.572 246.394 284.572C247.144 284.572 247.765 284.832 248.256 285.352C248.747 285.843 248.993 286.464 248.993 287.215V291.287L248.69 288.385C249.007 287.692 249.412 287.085 249.903 286.565C250.423 286.016 251 285.569 251.636 285.222C252.271 284.847 252.95 284.572 253.672 284.399C254.394 284.226 255.116 284.139 255.838 284.139C256.705 284.139 257.427 284.384 258.004 284.875C258.611 285.366 258.914 285.944 258.914 286.608C258.914 287.562 258.669 288.255 258.178 288.688C257.687 289.092 257.152 289.295 256.575 289.295C256.026 289.295 255.521 289.193 255.058 288.991C254.625 288.789 254.12 288.688 253.542 288.688C253.022 288.688 252.488 288.818 251.939 289.078C251.419 289.309 250.928 289.684 250.466 290.204C250.033 290.724 249.672 291.374 249.383 292.154C249.123 292.905 248.993 293.8 248.993 294.84V305.108C248.993 305.859 248.747 306.494 248.256 307.014C247.765 307.505 247.144 307.751 246.394 307.751ZM264.572 285.005H274.84C275.533 285.005 276.111 285.236 276.573 285.699C277.035 286.161 277.266 286.738 277.266 287.432C277.266 288.096 277.035 288.659 276.573 289.121C276.111 289.554 275.533 289.771 274.84 289.771H264.572C263.879 289.771 263.301 289.54 262.839 289.078C262.377 288.616 262.146 288.038 262.146 287.345C262.146 286.681 262.377 286.132 262.839 285.699C263.301 285.236 263.879 285.005 264.572 285.005ZM269.208 279.59C269.959 279.59 270.565 279.85 271.028 280.37C271.519 280.861 271.764 281.482 271.764 282.233V301.512C271.764 301.916 271.836 302.249 271.981 302.508C272.154 302.768 272.371 302.956 272.631 303.072C272.919 303.187 273.223 303.245 273.54 303.245C273.887 303.245 274.205 303.187 274.493 303.072C274.782 302.927 275.114 302.855 275.49 302.855C275.894 302.855 276.255 303.043 276.573 303.418C276.92 303.794 277.093 304.314 277.093 304.978C277.093 305.787 276.645 306.451 275.75 306.971C274.883 307.491 273.945 307.751 272.934 307.751C272.327 307.751 271.648 307.707 270.898 307.621C270.175 307.505 269.482 307.26 268.818 306.884C268.183 306.48 267.648 305.873 267.215 305.065C266.782 304.256 266.565 303.144 266.565 301.729V282.233C266.565 281.482 266.811 280.861 267.302 280.37C267.821 279.85 268.457 279.59 269.208 279.59Z" fill="#359645"/>
</g>
<defs>
<filter id="filter0_d_618_9394" x="56.5487" y="59.1353" width="335.033" height="336.769" filterUnits="userSpaceOnUse" color-interpolation-filters="sRGB">
<feFlood flood-opacity="0" result="BackgroundImageFix"/>
<feColorMatrix in="SourceAlpha" type="matrix" values="0 0 0 0 0 0 0 0 0 0 0 0 0 0 0 0 0 0 127 0" result="hardAlpha"/>
<feOffset dy="3.62243"/>
<feGaussianBlur stdDeviation="5.43364"/>
<feComposite in2="hardAlpha" operator="out"/>
<feColorMatrix type="matrix" values="0 0 0 0 0 0 0 0 0 0 0 0 0 0 0 0 0 0 0.15 0"/>
<feBlend mode="normal" in2="BackgroundImageFix" result="effect1_dropShadow_618_9394"/>
<feBlend mode="normal" in="SourceGraphic" in2="effect1_dropShadow_618_9394" result="shape"/>
</filter>
<filter id="filter1_d_618_9394" x="209.94" y="210.822" width="184.258" height="138.189" filterUnits="userSpaceOnUse" color-interpolation-filters="sRGB">
<feFlood flood-opacity="0" result="BackgroundImageFix"/>
<feColorMatrix in="SourceAlpha" type="matrix" values="0 0 0 0 0 0 0 0 0 0 0 0 0 0 0 0 0 0 127 0" result="hardAlpha"/>
<feOffset/>
<feGaussianBlur stdDeviation="6.74118"/>
<feColorMatrix type="matrix" values="0 0 0 0 0 0 0 0 0 0 0 0 0 0 0 0 0 0 0.05 0"/>
<feBlend mode="normal" in2="BackgroundImageFix" result="effect1_dropShadow_618_9394"/>
<feBlend mode="normal" in="SourceGraphic" in2="effect1_dropShadow_618_9394" result="shape"/>
</filter>
<filter id="filter2_d_618_9394" x="54.3419" y="98.0414" width="183.096" height="142.526" filterUnits="userSpaceOnUse" color-interpolation-filters="sRGB">
<feFlood flood-opacity="0" result="BackgroundImageFix"/>
<feColorMatrix in="SourceAlpha" type="matrix" values="0 0 0 0 0 0 0 0 0 0 0 0 0 0 0 0 0 0 127 0" result="hardAlpha"/>
<feOffset/>
<feGaussianBlur stdDeviation="6.74118"/>
<feColorMatrix type="matrix" values="0 0 0 0 0 0 0 0 0 0 0 0 0 0 0 0 0 0 0.05 0"/>
<feBlend mode="normal" in2="BackgroundImageFix" result="effect1_dropShadow_618_9394"/>
<feBlend mode="normal" in="SourceGraphic" in2="effect1_dropShadow_618_9394" result="shape"/>
</filter>
<filter id="filter3_d_618_9394" x="99.709" y="210.657" width="139.92" height="184.24" filterUnits="userSpaceOnUse" color-interpolation-filters="sRGB">
<feFlood flood-opacity="0" result="BackgroundImageFix"/>
<feColorMatrix in="SourceAlpha" type="matrix" values="0 0 0 0 0 0 0 0 0 0 0 0 0 0 0 0 0 0 127 0" result="hardAlpha"/>
<feOffset/>
<feGaussianBlur stdDeviation="6.74118"/>
<feColorMatrix type="matrix" values="0 0 0 0 0 0 0 0 0 0 0 0 0 0 0 0 0 0 0.05 0"/>
<feBlend mode="normal" in2="BackgroundImageFix" result="effect1_dropShadow_618_9394"/>
<feBlend mode="normal" in="SourceGraphic" in2="effect1_dropShadow_618_9394" result="shape"/>
</filter>
<filter id="filter4_d_618_9394" x="210.715" y="52.8978" width="139.92" height="184.239" filterUnits="userSpaceOnUse" color-interpolation-filters="sRGB">
<feFlood flood-opacity="0" result="BackgroundImageFix"/>
<feColorMatrix in="SourceAlpha" type="matrix" values="0 0 0 0 0 0 0 0 0 0 0 0 0 0 0 0 0 0 127 0" result="hardAlpha"/>
<feOffset/>
<feGaussianBlur stdDeviation="6.74118"/>
<feColorMatrix type="matrix" values="0 0 0 0 0 0 0 0 0 0 0 0 0 0 0 0 0 0 0.05 0"/>
<feBlend mode="normal" in2="BackgroundImageFix" result="effect1_dropShadow_618_9394"/>
<feBlend mode="normal" in="SourceGraphic" in2="effect1_dropShadow_618_9394" result="shape"/>
</filter>
<filter id="filter5_d_618_9394" x="209.137" y="210.02" width="138.279" height="184.259" filterUnits="userSpaceOnUse" color-interpolation-filters="sRGB">
<feFlood flood-opacity="0" result="BackgroundImageFix"/>
<feColorMatrix in="SourceAlpha" type="matrix" values="0 0 0 0 0 0 0 0 0 0 0 0 0 0 0 0 0 0 127 0" result="hardAlpha"/>
<feOffset/>
<feGaussianBlur stdDeviation="6.74118"/>
<feColorMatrix type="matrix" values="0 0 0 0 0 0 0 0 0 0 0 0 0 0 0 0 0 0 0.05 0"/>
<feBlend mode="normal" in2="BackgroundImageFix" result="effect1_dropShadow_618_9394"/>
<feBlend mode="normal" in="SourceGraphic" in2="effect1_dropShadow_618_9394" result="shape"/>
</filter>
<filter id="filter6_d_618_9394" x="102.928" y="53.5152" width="138.279" height="184.259" filterUnits="userSpaceOnUse" color-interpolation-filters="sRGB">
<feFlood flood-opacity="0" result="BackgroundImageFix"/>
<feColorMatrix in="SourceAlpha" type="matrix" values="0 0 0 0 0 0 0 0 0 0 0 0 0 0 0 0 0 0 127 0" result="hardAlpha"/>
<feOffset/>
<feGaussianBlur stdDeviation="6.74118"/>
<feColorMatrix type="matrix" values="0 0 0 0 0 0 0 0 0 0 0 0 0 0 0 0 0 0 0.05 0"/>
<feBlend mode="normal" in2="BackgroundImageFix" result="effect1_dropShadow_618_9394"/>
<feBlend mode="normal" in="SourceGraphic" in2="effect1_dropShadow_618_9394" result="shape"/>
</filter>
<filter id="filter7_d_618_9394" x="53.9337" y="207.121" width="184.26" height="143.737" filterUnits="userSpaceOnUse" color-interpolation-filters="sRGB">
<feFlood flood-opacity="0" result="BackgroundImageFix"/>
<feColorMatrix in="SourceAlpha" type="matrix" values="0 0 0 0 0 0 0 0 0 0 0 0 0 0 0 0 0 0 127 0" result="hardAlpha"/>
<feOffset/>
<feGaussianBlur stdDeviation="6.74118"/>
<feColorMatrix type="matrix" values="0 0 0 0 0 0 0 0 0 0 0 0 0 0 0 0 0 0 0.05 0"/>
<feBlend mode="normal" in2="BackgroundImageFix" result="effect1_dropShadow_618_9394"/>
<feBlend mode="normal" in="SourceGraphic" in2="effect1_dropShadow_618_9394" result="shape"/>
</filter>
<filter id="filter8_d_618_9394" x="209.902" y="101.405" width="184.26" height="138.861" filterUnits="userSpaceOnUse" color-interpolation-filters="sRGB">
<feFlood flood-opacity="0" result="BackgroundImageFix"/>
<feColorMatrix in="SourceAlpha" type="matrix" values="0 0 0 0 0 0 0 0 0 0 0 0 0 0 0 0 0 0 127 0" result="hardAlpha"/>
<feOffset/>
<feGaussianBlur stdDeviation="6.74118"/>
<feColorMatrix type="matrix" values="0 0 0 0 0 0 0 0 0 0 0 0 0 0 0 0 0 0 0.05 0"/>
<feBlend mode="normal" in2="BackgroundImageFix" result="effect1_dropShadow_618_9394"/>
<feBlend mode="normal" in="SourceGraphic" in2="effect1_dropShadow_618_9394" result="shape"/>
</filter>
<filter id="filter9_d_618_9394" x="75.1153" y="75.9976" width="296.611" height="296.612" filterUnits="userSpaceOnUse" color-interpolation-filters="sRGB">
<feFlood flood-opacity="0" result="BackgroundImageFix"/>
<feColorMatrix in="SourceAlpha" type="matrix" values="0 0 0 0 0 0 0 0 0 0 0 0 0 0 0 0 0 0 127 0" result="hardAlpha"/>
<feOffset/>
<feGaussianBlur stdDeviation="6.74118"/>
<feColorMatrix type="matrix" values="0 0 0 0 0 0 0 0 0 0 0 0 0 0 0 0 0 0 0.184314 0"/>
<feBlend mode="normal" in2="BackgroundImageFix" result="effect1_dropShadow_618_9394"/>
<feBlend mode="normal" in="SourceGraphic" in2="effect1_dropShadow_618_9394" result="shape"/>
</filter>
<clipPath id="clip0_618_9394">
<rect x="162.748" y="98.4685" width="139.318" height="176.043" rx="69.6589" fill="white"/>
</clipPath>
</defs>
</svg>
