<svg width="38" height="45" viewBox="0 0 38 45" fill="none" xmlns="http://www.w3.org/2000/svg">
<g clip-path="url(#clip0_4_10981)">
<path d="M24.3444 29.3943H13.6555C12.9744 29.3943 12.4221 29.9465 12.4221 30.6276C12.4221 31.3088 12.9743 31.861 13.6555 31.861H24.3444C25.0255 31.861 25.5777 31.3088 25.5777 30.6276C25.5777 29.9465 25.0255 29.3943 24.3444 29.3943Z" fill="white"/>
<path d="M24.3444 25.5044H13.6555C12.9744 25.5044 12.4221 26.0566 12.4221 26.7378C12.4221 27.4189 12.9743 27.9711 13.6555 27.9711H24.3444C25.0255 27.9711 25.5777 27.4189 25.5777 26.7378C25.5777 26.0566 25.0255 25.5044 24.3444 25.5044Z" fill="white"/>
<path d="M34.6222 10.1768H30.698V3.03878C30.698 2.35767 30.1458 1.80542 29.4646 1.80542H8.53536C7.85426 1.80542 7.302 2.3576 7.302 3.03878V10.1768H3.37776C1.79095 10.1768 0.5 11.4678 0.5 13.0546V25.4628C0.5 27.0496 1.79095 28.3406 3.37776 28.3406H7.30222V34.9611C7.30222 35.6422 7.8544 36.1945 8.53558 36.1945H29.4644C30.1455 36.1945 30.6978 35.6423 30.6978 34.9611V28.3406H34.6222C36.209 28.3406 37.5 27.0496 37.5 25.4628V13.0546C37.5 11.4679 36.209 10.1768 34.6222 10.1768ZM9.76864 4.27213H28.2313V10.1768H9.76864V4.27213ZM28.2311 33.7277H9.76893C9.76893 33.4867 9.76893 23.9355 9.76893 23.6374H28.2311C28.2311 23.9431 28.2311 33.496 28.2311 33.7277ZM29.4646 17.4189H26.3252C25.6441 17.4189 25.0918 16.8667 25.0918 16.1856C25.0918 15.5044 25.644 14.9522 26.3252 14.9522H29.4646C30.1457 14.9522 30.698 15.5044 30.698 16.1856C30.698 16.8667 30.1458 17.4189 29.4646 17.4189Z" fill="white"/>
</g>
<path d="M12.2646 41.144C12.2646 41.4427 12.1926 41.7227 12.0486 41.984C11.91 42.2453 11.6886 42.456 11.3846 42.616C11.086 42.776 10.7073 42.856 10.2486 42.856H9.31263V45H8.19263V39.416H10.2486C10.6806 39.416 11.0486 39.4907 11.3526 39.64C11.6566 39.7893 11.8833 39.9947 12.0326 40.256C12.1873 40.5173 12.2646 40.8133 12.2646 41.144ZM10.2006 41.952C10.51 41.952 10.7393 41.8827 10.8886 41.744C11.038 41.6 11.1126 41.4 11.1126 41.144C11.1126 40.6 10.8086 40.328 10.2006 40.328H9.31263V41.952H10.2006ZM15.9398 45L14.7078 42.824H14.1798V45H13.0598V39.416H15.1558C15.5878 39.416 15.9558 39.4933 16.2598 39.648C16.5638 39.7973 16.7905 40.0027 16.9398 40.264C17.0945 40.52 17.1718 40.808 17.1718 41.128C17.1718 41.496 17.0651 41.8293 16.8518 42.128C16.6385 42.4213 16.3211 42.624 15.8998 42.736L17.2358 45H15.9398ZM14.1798 41.984H15.1158C15.4198 41.984 15.6465 41.912 15.7958 41.768C15.9451 41.6187 16.0198 41.4133 16.0198 41.152C16.0198 40.896 15.9451 40.6987 15.7958 40.56C15.6465 40.416 15.4198 40.344 15.1158 40.344H14.1798V41.984ZM19.3048 39.416V45H18.1848V39.416H19.3048ZM25.1874 45H24.0674L21.5314 41.168V45H20.4114V39.408H21.5314L24.0674 43.248V39.408H25.1874V45ZM30.0942 39.416V40.32H28.6062V45H27.4862V40.32H25.9982V39.416H30.0942Z" fill="white"/>
<defs>
<clipPath id="clip0_4_10981">
<rect width="37" height="37" fill="white" transform="translate(0.5 0.5)"/>
</clipPath>
</defs>
</svg>
