<svg width="30" height="30" viewBox="0 0 30 30" fill="none" xmlns="http://www.w3.org/2000/svg">
<path d="M29.1211 12.3633H27.7441V8.84766H25.9863V12.3633H24.668C24.1826 12.3633 23.7891 12.7568 23.7891 13.2422V30H29.1211C29.6065 30 30 29.6065 30 29.1211V13.2422C30 12.7568 29.6065 12.3633 29.1211 12.3633Z" fill="#F89838"/>
<path d="M20.7129 7.08984H27.7441V0.878906C27.7441 0.393516 27.3506 0 26.8652 0H20.7129V7.08984Z" fill="#F89838"/>
<path d="M21.1523 17.6367H16.7578C16.2724 17.6367 15.8789 18.0302 15.8789 18.5156V30H22.0312V18.5156C22.0312 18.0302 21.6377 17.6367 21.1523 17.6367Z" fill="#F89838"/>
<path d="M13.2422 21.1523H8.84766C8.36227 21.1523 7.96875 21.5459 7.96875 22.0312V30H14.1211V22.0312C14.1211 21.5459 13.7276 21.1523 13.2422 21.1523Z" fill="#F89838"/>
<path d="M5.33203 24.668H0.878906C0.393516 24.668 0 25.0615 0 25.5469V29.1211C0 29.6065 0.393516 30 0.878906 30H6.21094V25.5469C6.21094 25.0615 5.81742 24.668 5.33203 24.668Z" fill="#F89838"/>
<path d="M14.6643 2.28076C14.5115 2.56658 14.5287 2.91334 14.708 3.18287L16.1406 5.33203L14.7081 7.48125C14.5287 7.75078 14.5116 8.09754 14.6643 8.38336C14.8171 8.66918 15.1149 8.84766 15.4393 8.84766H18.955V1.81641H15.4393C15.1149 1.81641 14.8171 1.99494 14.6643 2.28076V2.28076Z" fill="#F89838"/>
</svg>
