<svg width="34" height="34" viewBox="0 0 34 34" fill="none" xmlns="http://www.w3.org/2000/svg">
<path d="M17 0C7.6262 0 0 7.6263 0 17.0001C0 26.3739 7.6262 34 17 34C26.3738 34 34 26.3739 34 17.0001C34 7.6263 26.3738 0 17 0ZM17 30.9091C9.33042 30.9091 3.09091 24.6696 3.09091 17.0001C3.09091 9.33063 9.33042 3.09091 17 3.09091C24.6696 3.09091 30.9091 9.33063 30.9091 17.0001C30.9091 24.6696 24.6695 30.9091 17 30.9091Z" fill="#F89838"/>
<path d="M16.9996 7.21216C15.8636 7.21216 14.9395 8.13696 14.9395 9.27369C14.9395 10.4094 15.8636 11.3334 16.9996 11.3334C18.1357 11.3334 19.0598 10.4094 19.0598 9.27369C19.0598 8.13696 18.1357 7.21216 16.9996 7.21216Z" fill="#F89838"/>
<path d="M17 14.4243C16.1465 14.4243 15.4546 15.1162 15.4546 15.9697V25.2424C15.4546 26.0959 16.1465 26.7879 17 26.7879C17.8535 26.7879 18.5455 26.0959 18.5455 25.2424V15.9697C18.5455 15.1162 17.8535 14.4243 17 14.4243Z" fill="#F89838"/>
</svg>
