<svg width="58" height="58" viewBox="0 0 58 58" fill="none" xmlns="http://www.w3.org/2000/svg">
<g clip-path="url(#clip0)">
<path d="M28.9496 46.0575C41.6681 46.0575 51.9784 35.7472 51.9784 23.0287C51.9784 10.3103 41.6681 0 28.9496 0C16.2312 0 5.9209 10.3103 5.9209 23.0287C5.9209 35.7472 16.2312 46.0575 28.9496 46.0575Z" fill="#FFD15C"/>
<path d="M10.2928 36.5013L2.36914 50.2364L11.6172 49.7454L15.8187 58.0002L23.1487 45.2927C17.8967 43.934 13.3869 40.7714 10.2928 36.5013Z" fill="#40596B"/>
<path d="M47.6508 36.4327C44.5795 40.7142 40.0697 43.8883 34.8291 45.2697L42.1819 58.0001L46.3834 49.7453L55.6315 50.2363L47.6508 36.4327Z" fill="#40596B"/>
<path d="M28.949 39.7209C38.1678 39.7209 45.6411 32.2476 45.6411 23.0288C45.6411 13.81 38.1678 6.33667 28.949 6.33667C19.7302 6.33667 12.2568 13.81 12.2568 23.0288C12.2568 32.2476 19.7302 39.7209 28.949 39.7209Z" fill="#F8B64C"/>
<path d="M40.3893 21.2248C40.9031 20.7225 40.6176 19.8433 39.9098 19.7406L33.322 18.7815C33.0365 18.7359 32.7968 18.5646 32.6712 18.302L29.7255 12.3307C29.4058 11.68 28.481 11.68 28.1613 12.3307L25.2271 18.302C25.1015 18.5532 24.8503 18.7359 24.5763 18.7815L17.9885 19.7406C17.2806 19.8433 16.9952 20.7225 17.509 21.2248L22.27 25.8717C22.4755 26.0772 22.5669 26.3626 22.5212 26.6367L21.4023 33.1902C21.2767 33.8981 22.0302 34.4461 22.6696 34.1036L28.5609 31.0095C28.8121 30.8725 29.1204 30.8725 29.3716 31.0095L35.2629 34.1036C35.9023 34.4347 36.6444 33.8981 36.5302 33.1902L35.3999 26.6367C35.3543 26.3512 35.4456 26.0658 35.6511 25.8717L40.3893 21.2248Z" fill="white"/>
</g>
<defs>
<clipPath id="clip0">
<rect width="58" height="58" fill="white"/>
</clipPath>
</defs>
</svg>
