<?xml version="1.0" encoding="UTF-8"?>
<svg width="68px" height="68px" viewBox="0 0 68 68" version="1.1" xmlns="http://www.w3.org/2000/svg" xmlns:xlink="http://www.w3.org/1999/xlink">
    <title>Day 0</title>
    <g id="Page-1" stroke="none" stroke-width="1" fill="none" fill-rule="evenodd">
        <g id="Day-0" transform="translate(2.000000, 2.000000)" fill-rule="nonzero">
            <circle id="Oval" stroke="#E45A6E" stroke-width="4" fill="#FFFFFF" cx="32" cy="32" r="32"></circle>
            <g id="Group" transform="translate(15.000000, 15.000000)">
                <path d="M14.7287,9.2655 C14.5347,8.9415 14.174,8.7555 13.7974,8.7841 L5.7029,9.4094 C4.8834,9.4728 4.1534,9.9023 3.7,10.588 L0.303,15.7259 C-0.0408,16.2459 -0.0955,16.8967 0.1567,17.4667 C0.4088,18.0367 0.9271,18.4339 1.543,18.5293 L8.1066,19.5459 C8.1577,19.5538 8.2087,19.5577 8.2593,19.5577 C8.5955,19.5577 8.9136,19.3872 9.0984,19.0981 L14.7134,10.3137 C14.9168,9.9954 14.9227,9.5896 14.7287,9.2655 Z" id="Path" fill="#E45A6E"></path>
                <path d="M24.7336,19.2714 C24.4095,19.0774 24.0036,19.0833 23.6854,19.2867 L14.9011,24.9017 C14.5684,25.1144 14.3928,25.5034 14.4532,25.8935 L15.4697,32.457 C15.5651,33.073 15.9624,33.5913 16.5325,33.8435 C16.7695,33.9483 17.0205,34 17.2704,34 C17.621,34 17.9695,33.8979 18.2731,33.6972 L23.4112,30.3001 C24.0969,29.8468 24.5264,29.1168 24.5897,28.2972 L25.2149,20.2027 C25.2441,19.8261 25.0576,19.4655 24.7336,19.2714 Z" id="Path" fill="#D82E44"></path>
                <path d="M12.8075,27.3776 C13.2039,27.7741 13.7672,27.9596 14.3202,27.8671 C22.4291,26.5112 28.8458,19.7973 31.2887,15.0743 C34.0013,9.83 34.1018,4.288 33.96,1.6889 C33.9114,0.7983 33.2015,0.0883 32.3108,0.0397 C29.7117,-0.102 24.1698,-0.0015 18.9254,2.7111 C14.2025,5.154 7.4886,11.5707 6.1328,19.6796 C6.0403,20.2326 6.2257,20.7959 6.6222,21.1923 L12.8075,27.3776 Z" id="Path" fill="#F1F1FB"></path>
                <path d="M23.291,15.6876 C22.0155,15.6877 20.7404,15.2023 19.7693,14.2312 C18.8286,13.2906 18.3105,12.0398 18.3105,10.7095 C18.3105,9.3792 18.8286,8.1285 19.7693,7.1878 C21.7111,5.246 24.8708,5.2459 26.8127,7.1878 C27.7534,8.1285 28.2714,9.3792 28.2714,10.7095 C28.2714,12.0398 27.7534,13.2906 26.8127,14.2312 C25.8419,15.2021 24.5662,15.6875 23.291,15.6876 Z" id="Shape" fill="#466288"></path>
                <path d="M6.1328,19.6797 C6.0403,20.2327 6.2257,20.796 6.6222,21.1924 L12.8075,27.3777 C13.2039,27.7742 13.7672,27.9596 14.3202,27.8671 C16.0847,27.5721 17.7688,27.0232 19.3496,26.2965 L7.7034,14.6504 C6.9767,16.231 6.4278,17.9153 6.1328,19.6797 Z" id="Path" fill="#466288"></path>
                <path d="M1.0156,28.0192 C1.2705,28.0192 1.5255,27.922 1.7199,27.7275 L4.972,24.4753 C5.361,24.0864 5.361,23.4557 4.972,23.0667 C4.5831,22.6777 3.9524,22.6777 3.5633,23.0667 L0.3113,26.3188 C-0.0777,26.7077 -0.0777,27.3384 0.3113,27.7275 C0.5058,27.922 0.7607,28.0192 1.0156,28.0192 Z" id="Path" fill="#FDB43A"></path>
                <path d="M7.9528,26.0471 C7.5639,25.6581 6.9332,25.6581 6.5442,26.0471 L0.2918,32.2995 C-0.0973,32.6884 -0.0973,33.3192 0.2918,33.7082 C0.4863,33.9027 0.7412,33.9999 0.9961,33.9999 C1.2511,33.9999 1.506,33.9026 1.7004,33.7081 L7.9528,27.4557 C8.3419,27.0667 8.3419,26.436 7.9528,26.0471 Z" id="Path" fill="#FDB43A"></path>
                <path d="M10.9329,29.0273 C10.544,28.6384 9.9133,28.6384 9.5243,29.0273 L6.2722,32.2793 C5.8832,32.6683 5.8832,33.299 6.2722,33.688 C6.4667,33.8825 6.7217,33.9798 6.9765,33.9798 C7.2314,33.9798 7.4864,33.8825 7.6808,33.688 L10.9329,30.4359 C11.322,30.047 11.322,29.4162 10.9329,29.0273 Z" id="Path" fill="#FDB43A"></path>
                <path d="M19.7695,14.2312 C20.7406,15.2022 22.0157,15.6877 23.2913,15.6876 C24.5665,15.6875 25.8421,15.202 26.8129,14.2312 C27.7536,13.2905 28.2717,12.0398 28.2717,10.7095 C28.2717,9.3791 27.7536,8.1284 26.8129,7.1877 L19.7695,14.2312 Z" id="Path" fill="#354A67"></path>
                <path d="M23.291,7.7227 C22.5258,7.7227 21.7606,8.0139 21.178,8.5965 C20.6136,9.1609 20.3027,9.9113 20.3027,10.7095 C20.3027,11.5077 20.6136,12.2581 21.178,12.8225 C22.3431,13.9876 24.239,13.9876 25.4041,12.8225 C25.9685,12.258 26.2794,11.5076 26.2794,10.7094 C26.2794,9.9112 25.9685,9.1608 25.4041,8.5964 C24.8215,8.0139 24.0563,7.7227 23.291,7.7227 Z" id="Path" fill="#4BBEFD"></path>
                <path d="M25.4038,8.5964 L21.1777,12.8225 C22.3428,13.9876 24.2387,13.9876 25.4038,12.8225 C25.9682,12.258 26.279,11.5076 26.279,10.7094 C26.279,9.9112 25.9682,9.1608 25.4038,8.5964 Z" id="Path" fill="#0590FB"></path>
            </g>
        </g>
    </g>
</svg>