<svg width="37" height="37" fill="none" xmlns="http://www.w3.org/2000/svg"><g filter="url(#a)"><circle cx="18.055" cy="18.179" r="12" fill="#fff"/></g><circle cx="18.055" cy="18.179" r="10" fill="#68C453"/><path fill-rule="evenodd" clip-rule="evenodd" d="M11.923 14.219h7.282c.918 0 1.661.743 1.661 1.66v5.239a.51.51 0 0 1-.51.51h-7.283a1.66 1.66 0 0 1-1.66-1.66V14.73a.51.51 0 0 1 .51-.511ZM21.746 16.368l2.81-1.883a.256.256 0 0 1 .398.212v6.678a.256.256 0 0 1-.408.205l-2.81-2.092a.255.255 0 0 1-.104-.205V16.58c0-.085.043-.164.114-.212Z" fill="#fff"/><defs><filter id="a" x=".055" y=".179" width="36" height="36" filterUnits="userSpaceOnUse" color-interpolation-filters="sRGB"><feFlood flood-opacity="0" result="BackgroundImageFix"/><feColorMatrix in="SourceAlpha" values="0 0 0 0 0 0 0 0 0 0 0 0 0 0 0 0 0 0 127 0" result="hardAlpha"/><feOffset/><feGaussianBlur stdDeviation="3"/><feColorMatrix values="0 0 0 0 0 0 0 0 0 0 0 0 0 0 0 0 0 0 0.184314 0"/><feBlend in2="BackgroundImageFix" result="effect1_dropShadow_95_1275"/><feBlend in="SourceGraphic" in2="effect1_dropShadow_95_1275" result="shape"/></filter></defs></svg>