<svg width="44" height="44" viewBox="0 0 44 44" fill="none" xmlns="http://www.w3.org/2000/svg">
<g filter="url(#filter0_d)">
<circle cx="22" cy="22" r="16" fill="white"/>
</g>
<circle cx="22.0001" cy="21.9993" r="13.3333" fill="#FFAB37"/>
<path fill-rule="evenodd" clip-rule="evenodd" d="M13.8239 16.7188H23.5332C24.7562 16.7188 25.7476 17.7102 25.7476 18.9331V25.917C25.7476 26.2933 25.4425 26.5983 25.0662 26.5983H15.357C14.134 26.5983 13.1426 25.6069 13.1426 24.3839V17.4001C13.1426 17.0238 13.4476 16.7188 13.8239 16.7188L13.8239 16.7188Z" fill="white"/>
<path fill-rule="evenodd" clip-rule="evenodd" d="M26.9203 19.586L30.6678 17.0753C30.8241 16.9705 31.0357 17.0124 31.1404 17.1687C31.178 17.2248 31.1981 17.2908 31.1981 17.3583V26.2619C31.1981 26.4501 31.0455 26.6026 30.8574 26.6026C30.7841 26.6026 30.7128 26.579 30.654 26.5352L26.9066 23.7456C26.8202 23.6813 26.7693 23.5799 26.7693 23.4723V19.869C26.7693 19.7554 26.826 19.6492 26.9203 19.586L26.9203 19.586Z" fill="white"/>
<defs>
<filter id="filter0_d" x="0" y="0" width="44" height="44" filterUnits="userSpaceOnUse" color-interpolation-filters="sRGB">
<feFlood flood-opacity="0" result="BackgroundImageFix"/>
<feColorMatrix in="SourceAlpha" type="matrix" values="0 0 0 0 0 0 0 0 0 0 0 0 0 0 0 0 0 0 127 0" result="hardAlpha"/>
<feOffset/>
<feGaussianBlur stdDeviation="3"/>
<feColorMatrix type="matrix" values="0 0 0 0 0 0 0 0 0 0 0 0 0 0 0 0 0 0 0.184314 0"/>
<feBlend mode="normal" in2="BackgroundImageFix" result="effect1_dropShadow"/>
<feBlend mode="normal" in="SourceGraphic" in2="effect1_dropShadow" result="shape"/>
</filter>
</defs>
</svg>
