<svg width="44" height="44" fill="none" xmlns="http://www.w3.org/2000/svg"><g filter="url(#a)"><circle cx="22" cy="22" r="16" fill="#fff"/></g><circle cx="22" cy="21.999" r="13.333" fill="#FFAB37"/><path fill-rule="evenodd" clip-rule="evenodd" d="M13.824 16.719h9.71c1.222 0 2.214.991 2.214 2.214v6.984a.681.681 0 0 1-.682.681h-9.709a2.214 2.214 0 0 1-2.214-2.214V17.4c0-.376.305-.681.68-.681ZM26.92 19.586l3.748-2.51a.34.34 0 0 1 .53.282v8.904a.34.34 0 0 1-.544.273l-3.747-2.79a.34.34 0 0 1-.138-.273V19.87a.34.34 0 0 1 .151-.283Z" fill="#fff"/><defs><filter id="a" x="0" y="0" width="44" height="44" filterUnits="userSpaceOnUse" color-interpolation-filters="sRGB"><feFlood flood-opacity="0" result="BackgroundImageFix"/><feColorMatrix in="SourceAlpha" values="0 0 0 0 0 0 0 0 0 0 0 0 0 0 0 0 0 0 127 0" result="hardAlpha"/><feOffset/><feGaussianBlur stdDeviation="3"/><feColorMatrix values="0 0 0 0 0 0 0 0 0 0 0 0 0 0 0 0 0 0 0.184314 0"/><feBlend in2="BackgroundImageFix" result="effect1_dropShadow"/><feBlend in="SourceGraphic" in2="effect1_dropShadow" result="shape"/></filter></defs></svg>