<svg width="36" height="37" viewBox="0 0 36 37" fill="none" xmlns="http://www.w3.org/2000/svg">
<g clip-path="url(#clip0_58_1389)">
<circle cx="18" cy="18.042" r="18" fill="#8CD2FF"/>
<path fill-rule="evenodd" clip-rule="evenodd" d="M8.82745 11.792H20.3193C21.7668 11.792 22.9402 12.9654 22.9402 14.4129V22.679C22.9402 23.1244 22.5791 23.4854 22.1338 23.4854H10.6419C9.19444 23.4854 8.021 22.312 8.021 20.8645V12.5984C8.021 12.1531 8.38206 11.792 8.82745 11.792Z" fill="white"/>
<path fill-rule="evenodd" clip-rule="evenodd" d="M26.3288 15.184L30.7642 12.2123C30.9492 12.0884 31.1997 12.1379 31.3237 12.3229C31.3681 12.3893 31.3919 12.4674 31.3919 12.5473V23.0856C31.3919 23.3083 31.2113 23.4888 30.9886 23.4888C30.9019 23.4888 30.8175 23.4609 30.7479 23.409L26.3124 20.1072C26.2102 20.0312 26.15 19.9112 26.15 19.7838V15.5189C26.15 15.3844 26.2171 15.2588 26.3288 15.184L26.3288 15.184Z" fill="white"/>
</g>
<defs>
<clipPath id="clip0_58_1389">
<rect width="36" height="36" fill="white" transform="translate(0 0.0419922)"/>
</clipPath>
</defs>
</svg>
