<svg width="34" height="34" viewBox="0 0 34 34" fill="none" xmlns="http://www.w3.org/2000/svg">
  <g filter="url(#filter0_d_90_2465)">
    <circle cx="16.9594" cy="17.0893" r="13.1801" fill="white"/>
  </g>
  <circle cx="16.9595" cy="17.0889" r="10.9834" fill="#68C453"/>
  <path fill-rule="evenodd" clip-rule="evenodd" d="M10.2244 12.7402H18.2224C19.2298 12.7402 20.0465 13.5569 20.0465 14.5644V20.3174C20.0465 20.6273 19.7952 20.8786 19.4853 20.8786H11.4872C10.4798 20.8786 9.66309 20.0619 9.66309 19.0545V13.3015C9.66309 12.9915 9.91438 12.7402 10.2243 12.7402L10.2244 12.7402Z" fill="white"/>
  <path fill-rule="evenodd" clip-rule="evenodd" d="M21.0126 15.1001L24.0996 13.0319C24.2283 12.9456 24.4027 12.9801 24.4889 13.1088C24.5199 13.155 24.5364 13.2094 24.5364 13.265V20.5995C24.5364 20.7545 24.4108 20.8801 24.2558 20.8801C24.1954 20.8801 24.1367 20.8606 24.0882 20.8246L21.0013 18.5266C20.9301 18.4736 20.8882 18.3902 20.8882 18.3015V15.3332C20.8882 15.2396 20.9349 15.1522 21.0126 15.1001L21.0126 15.1001Z" fill="white"/>
  <defs>
    <filter id="filter0_d_90_2465" x="0.184727" y="0.31461" width="33.5495" height="33.5495" filterUnits="userSpaceOnUse" color-interpolation-filters="sRGB">
      <feFlood flood-opacity="0" result="BackgroundImageFix"/>
      <feColorMatrix in="SourceAlpha" type="matrix" values="0 0 0 0 0 0 0 0 0 0 0 0 0 0 0 0 0 0 127 0" result="hardAlpha"/>
      <feOffset/>
      <feGaussianBlur stdDeviation="1.79729"/>
      <feColorMatrix type="matrix" values="0 0 0 0 0 0 0 0 0 0 0 0 0 0 0 0 0 0 0.184314 0"/>
      <feBlend mode="normal" in2="BackgroundImageFix" result="effect1_dropShadow_90_2465"/>
      <feBlend mode="normal" in="SourceGraphic" in2="effect1_dropShadow_90_2465" result="shape"/>
    </filter>
  </defs>
</svg>
