<svg xmlns="http://www.w3.org/2000/svg" width="32" height="32" viewBox="0 0 32 32"><circle cx="16" cy="16" r="16" fill="#78c383"/><path d="M32.806,53H44.3a2.621,2.621,0,0,1,2.621,2.621v8.266a.806.806,0,0,1-.806.806H34.621A2.621,2.621,0,0,1,32,62.072V53.806A.806.806,0,0,1,32.806,53Z" transform="translate(-25.979 -43.25)" fill="#fff" fill-rule="evenodd"/><path d="M112.179,57.787l4.435-2.972a.4.4,0,0,1,.628.335V65.689a.4.4,0,0,1-.644.323l-4.435-3.3a.4.4,0,0,1-.162-.323V58.122A.4.4,0,0,1,112.179,57.787Z" transform="translate(-89.851 -44.645)" fill="#fff" fill-rule="evenodd"/></svg>