<svg width="56" height="56" viewBox="0 0 56 56" fill="none" xmlns="http://www.w3.org/2000/svg">
<path d="M28 56C43.464 56 56 43.464 56 28C56 12.536 43.464 0 28 0C12.536 0 0 12.536 0 28C0 43.464 12.536 56 28 56Z" fill="#68C453"/>
<path fill-rule="evenodd" clip-rule="evenodd" d="M11.9471 17.0625H32.0616C33.2781 17.0625 34.4448 17.5457 35.3049 18.4059C36.1651 19.2661 36.6484 20.4328 36.6484 21.6492V36.1148C36.6484 36.4888 36.4998 36.8476 36.2352 37.1121C35.9707 37.3766 35.612 37.5253 35.2379 37.5253H15.1234C13.9069 37.5253 12.7402 37.042 11.88 36.1818C11.0199 35.3216 10.5366 34.155 10.5366 32.9385V18.473C10.5366 18.0989 10.6852 17.7401 10.9497 17.4756C11.2143 17.2111 11.573 17.0625 11.9471 17.0625Z" fill="white"/>
<path fill-rule="evenodd" clip-rule="evenodd" d="M39.0737 22.9988L46.835 17.7978C46.9407 17.7244 47.0647 17.6815 47.1933 17.674C47.3218 17.6665 47.4499 17.6946 47.5635 17.7552C47.6771 17.8158 47.7718 17.9066 47.8372 18.0175C47.9025 18.1285 47.936 18.2553 47.934 18.384V36.8273C47.936 36.9589 47.9008 37.0884 47.8325 37.201C47.7642 37.3136 47.6656 37.4046 47.5479 37.4636C47.4302 37.5226 47.2982 37.5473 47.1672 37.5347C47.0361 37.5221 46.9113 37.4728 46.807 37.3925L39.0457 31.6175C38.9574 31.5522 38.8858 31.4669 38.8365 31.3687C38.7873 31.2705 38.7618 31.1621 38.7622 31.0523V23.585C38.7616 23.4692 38.7897 23.3549 38.844 23.2526C38.8984 23.1503 38.9773 23.0631 39.0737 22.9988Z" fill="white"/>
</svg>
