<svg width="69" height="86" viewBox="0 0 69 86" fill="none" xmlns="http://www.w3.org/2000/svg">
<path fill-rule="evenodd" clip-rule="evenodd" d="M65.0713 30.5646H62.0148V27.5081C61.9979 12.3228 49.692 0.0168429 34.5067 0C19.3213 0.0168331 7.01542 12.3228 6.99859 27.5081V30.5646H3.94225C2.25417 30.5646 0.885742 31.933 0.885742 33.6211V82.5243C0.885742 84.2124 2.25417 85.5808 3.94225 85.5808H65.0713C66.7594 85.5808 68.1278 84.2124 68.1278 82.5243V33.6209C68.1278 31.933 66.7594 30.5646 65.0713 30.5646H65.0713ZM13.1106 27.5084C13.1106 15.6921 22.6895 6.11317 34.5058 6.11317C46.3221 6.11317 55.9009 15.6921 55.9009 27.5084V30.5649H13.1106L13.1106 27.5084ZM62.0168 79.4672H7.00061V36.6769H62.0168V79.4672Z" fill="#505050"/>
<path fill-rule="evenodd" clip-rule="evenodd" d="M43.1508 51.9566C41.8594 48.2903 38.3922 45.8403 34.5051 45.8477C29.4528 45.8382 25.3493 49.9261 25.3399 54.9784C25.3325 58.8655 27.7824 62.3326 31.4487 63.6241V70.2994C31.4487 71.9875 32.8172 73.356 34.5053 73.356C36.1934 73.356 37.5616 71.9874 37.5616 70.2992V63.6241C42.327 61.9456 44.8294 56.7218 43.1508 51.9566H43.1508ZM34.5066 58.0696C32.8185 58.0696 31.4501 56.7012 31.4501 55.0131C31.4501 53.325 32.8185 51.9566 34.5066 51.9566C36.1947 51.9566 37.5631 53.325 37.5631 55.0131C37.5631 56.7012 36.1947 58.0696 34.5066 58.0696Z" fill="#505050"/>
</svg>
