<svg width="154" height="154" viewBox="0 0 154 154" fill="none" xmlns="http://www.w3.org/2000/svg">
<circle cx="77" cy="77" r="77" fill="#B8DBA7"/>
<circle cx="77" cy="77" r="70" fill="#D3E1B1"/>
<circle cx="76.5" cy="76.5" r="63.5" fill="white"/>
<g filter="url(#filter0_d)">
<g clip-path="url(#clip0)">
<path d="M101.133 103.943C101.133 106.345 98.5412 108.404 93.6385 109.896C89.1787 111.252 83.2711 112 76.9998 112C70.7285 112 64.8209 111.252 60.3611 109.896C55.4584 108.404 52.8662 106.345 52.8662 103.943C52.8662 101.541 55.4584 99.4834 60.3611 97.9918C61.7379 97.5734 63.2541 97.2125 64.8756 96.9131C68.5041 96.2445 72.6658 95.8877 76.9998 95.8877C81.3338 95.8877 85.4941 96.2445 89.1227 96.9131C90.7441 97.2111 92.2604 97.5734 93.6385 97.9918C98.5412 99.4834 101.133 101.541 101.133 103.943Z" fill="#A4CE39"/>
<path d="M89.1231 96.9131L80.1406 105.887C79.3025 106.725 78.1869 107.188 77.0002 107.188C75.8135 107.188 74.6979 106.725 73.8584 105.887L64.876 96.9131C68.5045 96.2445 72.6662 95.8877 77.0002 95.8877C81.3342 95.8877 85.4945 96.2445 89.1231 96.9131Z" fill="#68C044"/>
<path d="M104.177 69.1523C104.177 74.8057 102.454 80.2252 99.1951 84.8244C96.0533 89.2582 91.7248 92.6133 86.6662 94.5356L77.7248 103.47C77.5252 103.67 77.2627 103.77 77.0002 103.77C76.7377 103.77 76.4752 103.67 76.2756 103.47L67.3342 94.5369C62.2756 92.6133 57.9471 89.2582 54.8053 84.8244C51.5459 80.2252 49.8232 74.8057 49.8232 69.1523C49.8232 54.9076 60.8592 43.1895 74.8387 42.0861C75.5523 42.0287 76.2729 42 77.0002 42C91.9859 42 104.177 54.1803 104.177 69.1523Z" fill="#ED2061"/>
<path d="M104.177 69.1523C104.177 74.8057 102.455 80.2252 99.1953 84.8244C96.0535 89.2582 91.725 92.6133 86.6664 94.5355L77.725 103.47L82.3434 94.5355C87.4006 92.6133 91.7291 89.2582 94.8709 84.8244C98.1303 80.2252 99.8529 74.8057 99.8529 69.1523C99.8529 54.9076 88.817 43.1895 74.8389 42.0861C75.5525 42.0287 76.273 42 77.0004 42C91.9861 42 104.177 54.1803 104.177 69.1523Z" fill="#C71E54"/>
<path d="M99.8525 69.1523C99.8525 81.7414 89.6014 91.9844 77 91.9844C76.3096 91.9844 75.6246 91.9529 74.9492 91.8941C63.3049 90.8537 54.1475 81.051 54.1475 69.1523C54.1475 57.2523 63.3049 47.451 74.9492 46.4105C75.6246 46.3518 76.3096 46.3203 77 46.3203C89.6014 46.3203 99.8525 56.5619 99.8525 69.1523Z" fill="#EEF0F5"/>
<path d="M99.8525 69.1523C99.8525 81.7414 89.6014 91.9844 77 91.9844C76.3096 91.9844 75.6246 91.9529 74.9492 91.8941C86.5936 90.8537 95.751 81.051 95.751 69.1523C95.751 57.2523 86.5936 47.451 74.9492 46.4105C75.6246 46.3518 76.3096 46.3203 77 46.3203C89.6014 46.3203 99.8525 56.5619 99.8525 69.1523Z" fill="#DAE1EA"/>
<path d="M88.1178 65.2411L77.6316 57.038C77.2605 56.7477 76.7393 56.7477 76.3681 57.038L65.8819 65.2411C65.6335 65.4355 65.4883 65.7334 65.4883 66.0487V78.9547C65.4883 79.5211 65.9474 79.9801 66.5137 79.9801H87.4861C88.0524 79.9801 88.5115 79.5211 88.5115 78.9547V66.0487C88.5115 65.7334 88.3663 65.4355 88.1178 65.2411Z" fill="#F79E60"/>
<path d="M90.9198 66.2033L77.6313 55.808C77.2601 55.5178 76.7389 55.5178 76.3677 55.808L63.0792 66.2033C62.6331 66.5522 62.5545 67.1967 62.9034 67.6427C63.2521 68.0885 63.8966 68.1677 64.3427 67.8185L76.9995 57.9175L89.6562 67.8185C89.8438 67.9652 90.0664 68.0363 90.2873 68.0363C90.5919 68.0363 90.8935 67.9012 91.0957 67.6427C91.4445 67.1966 91.3659 66.5521 90.9198 66.2033Z" fill="#56788B"/>
<path d="M72.2148 68.8984C71.6486 68.8984 71.1895 69.3574 71.1895 69.9238V74.0739C71.1895 74.6404 71.6486 75.0993 72.2148 75.0993C72.7811 75.0993 73.2402 74.6404 73.2402 74.0739V69.924C73.2402 69.3575 72.7811 68.8984 72.2148 68.8984Z" fill="#FBDF63"/>
<path d="M77 68.8984C76.4337 68.8984 75.9746 69.3574 75.9746 69.9238V74.0739C75.9746 74.6404 76.4337 75.0993 77 75.0993C77.5663 75.0993 78.0254 74.6404 78.0254 74.0739V69.924C78.0254 69.3575 77.5663 68.8984 77 68.8984Z" fill="#FBDF63"/>
<path d="M81.7852 68.8984C81.2189 68.8984 80.7598 69.3574 80.7598 69.9238V74.0739C80.7598 74.6404 81.2189 75.0993 81.7852 75.0993C82.3514 75.0993 82.8105 74.6404 82.8105 74.0739V69.924C82.8105 69.3575 82.3514 68.8984 81.7852 68.8984Z" fill="#FBDF63"/>
<path d="M77 62.7148C76.4337 62.7148 75.9746 63.1738 75.9746 63.7402V65.247C75.9746 65.8134 76.4337 66.2724 77 66.2724C77.5663 66.2724 78.0254 65.8134 78.0254 65.247V63.7402C78.0254 63.1738 77.5663 62.7148 77 62.7148Z" fill="#FBDF63"/>
</g>
</g>
<defs>
<filter id="filter0_d" x="38" y="42" width="78" height="78" filterUnits="userSpaceOnUse" color-interpolation-filters="sRGB">
<feFlood flood-opacity="0" result="BackgroundImageFix"/>
<feColorMatrix in="SourceAlpha" type="matrix" values="0 0 0 0 0 0 0 0 0 0 0 0 0 0 0 0 0 0 127 0"/>
<feOffset dy="4"/>
<feGaussianBlur stdDeviation="2"/>
<feColorMatrix type="matrix" values="0 0 0 0 0 0 0 0 0 0 0 0 0 0 0 0 0 0 0.15 0"/>
<feBlend mode="normal" in2="BackgroundImageFix" result="effect1_dropShadow"/>
<feBlend mode="normal" in="SourceGraphic" in2="effect1_dropShadow" result="shape"/>
</filter>
<clipPath id="clip0">
<rect width="70" height="70" fill="white" transform="translate(42 42)"/>
</clipPath>
</defs>
</svg>
