<svg xmlns="http://www.w3.org/2000/svg" width="312" height="142" viewBox="0 0 312 142" fill="none">
<g filter="url(#filter0_d_281_1409)">
<rect x="37" y="8" width="263" height="117" rx="12" fill="white"/>
<rect width="20.895" height="4.1377" transform="matrix(1 0 0 -1 72 125.138)" fill="#FCF394"/>
<rect width="20.895" height="4.1377" transform="matrix(1 0 0 -1 101.159 125.138)" fill="#FAA938"/>
<rect width="20.895" height="4.1377" transform="matrix(1 0 0 -1 130.319 125.138)" fill="#B4D78B"/>
<rect width="20.895" height="4.1377" transform="matrix(1 0 0 -1 159.478 125.138)" fill="#359846"/>
<rect width="20.895" height="4.1377" transform="matrix(1 0 0 -1 188.637 125.138)" fill="#8FCCD5"/>
<rect width="20.895" height="4.1377" transform="matrix(1 0 0 -1 217.797 125.138)" fill="#BFBFF7"/>
<rect width="20.895" height="4.1377" transform="matrix(1 0 0 -1 246.956 125.138)" fill="#F6B7D2"/>
<path d="M12 31L37.5 16.2776L37.5 45.7224L12 31Z" fill="white"/>
</g>
<defs>
<filter id="filter0_d_281_1409" x="0" y="0" width="312" height="141.138" filterUnits="userSpaceOnUse" color-interpolation-filters="sRGB">
<feFlood flood-opacity="0" result="BackgroundImageFix"/>
<feColorMatrix in="SourceAlpha" type="matrix" values="0 0 0 0 0 0 0 0 0 0 0 0 0 0 0 0 0 0 127 0" result="hardAlpha"/>
<feOffset dy="4"/>
<feGaussianBlur stdDeviation="6"/>
<feComposite in2="hardAlpha" operator="out"/>
<feColorMatrix type="matrix" values="0 0 0 0 0 0 0 0 0 0 0 0 0 0 0 0 0 0 0.15 0"/>
<feBlend mode="normal" in2="BackgroundImageFix" result="effect1_dropShadow_281_1409"/>
<feBlend mode="normal" in="SourceGraphic" in2="effect1_dropShadow_281_1409" result="shape"/>
</filter>
</defs>
</svg>