<svg width="113" height="113" viewBox="0 0 113 113" fill="none" xmlns="http://www.w3.org/2000/svg">
<g clip-path="url(#clip0_295_4911)">
<path d="M64.4634 97.2461L50.457 97.4122C49.0878 97.4284 47.9682 96.335 47.9519 94.9659L47.7859 80.9594C47.7696 79.5903 48.863 78.4706 50.2321 78.4544C51.6013 78.4382 52.7209 79.5316 52.7372 80.9007L52.8324 88.9299L55.5762 86.1202C63.8372 77.661 70.5593 65.6775 68.2297 54.8434C62.1084 64.0355 52.9674 62.806 48.2408 58.1903C43.3566 53.4205 43.2634 45.5664 48.0332 40.6821C52.3929 36.2178 60.5165 34.6295 67.2588 42.3733C67.9964 32.8038 63.532 21.207 54.7043 12.5861C53.7263 11.6311 53.706 10.0642 54.6627 9.08449C55.6194 8.10481 57.1864 8.08798 58.1644 9.04296C69.9311 20.534 74.6925 36.3561 71.2377 48.3183C78.0474 62.33 69.8145 78.6284 59.1194 89.5803L56.3755 92.39L64.4047 92.2948C65.7739 92.2786 66.8935 93.372 66.9097 94.7411C66.926 96.1102 65.8326 97.2299 64.4634 97.2461ZM51.5763 44.1422C48.7148 47.0724 48.7707 51.7856 51.7009 54.6471C55.6214 58.4757 62.3735 57.5937 65.8428 48.771C61.0314 40.6944 55.1541 40.4786 51.5763 44.1422Z" fill="#CDEEB5"/>
</g>
<defs>
<clipPath id="clip0_295_4911">
<rect width="79.2383" height="79.2383" fill="white" transform="matrix(0.715441 0.698673 0.698673 -0.715441 0.947998 57)"/>
</clipPath>
</defs>
</svg>
