<svg width="157" height="157" viewBox="0 0 157 157" fill="none" xmlns="http://www.w3.org/2000/svg">
<circle cx="78.5" cy="78.5" r="78.5" fill="#C5DCA6"/>
<g clip-path="url(#clip0)">
<path d="M78.4999 7.4772C39.2786 7.4772 7.47607 39.2735 7.47607 78.4979C7.47607 117.722 39.2755 149.519 78.4999 149.519C117.727 149.519 149.524 117.722 149.524 78.4979C149.524 39.2735 117.727 7.4772 78.4999 7.4772ZM78.4999 28.7132C91.478 28.7132 101.995 39.2329 101.995 52.2048C101.995 65.1798 91.478 75.6964 78.4999 75.6964C65.528 75.6964 55.0114 65.1798 55.0114 52.2048C55.0114 39.2329 65.528 28.7132 78.4999 28.7132ZM78.4843 130.95C65.5405 130.95 53.6855 126.236 44.5416 118.434C42.3141 116.534 41.0288 113.748 41.0288 110.825C41.0288 97.6686 51.6764 87.1395 64.8355 87.1395H92.1706C105.333 87.1395 115.94 97.6686 115.94 110.825C115.94 113.751 114.661 116.531 112.43 118.43C103.289 126.236 91.4312 130.95 78.4843 130.95Z" fill="white"/>
</g>
<defs>
<clipPath id="clip0">
<rect width="142.048" height="142.048" fill="white" transform="translate(7.47607 7.4762)"/>
</clipPath>
</defs>
</svg>
