<svg xmlns="http://www.w3.org/2000/svg" width="35" height="39" viewBox="0 0 35 39">
  <g id="Grupo_1328" data-name="Grupo 1328" transform="translate(-875 -930)">
    <g id="repeticion" transform="translate(870.426 930)" opacity="0.75">
      <path id="Trazado_5784" data-name="Trazado 5784" d="M11.337,8.274l1.918,2.417A13.99,13.99,0,0,0,7.872,24.026,14.357,14.357,0,0,0,24.307,35.765,14.159,14.159,0,0,0,36.275,19.642a13.969,13.969,0,0,0-5.74-9.208,14.471,14.471,0,0,0-9.252-2.681l2.7,2.778-2,1.874L17.72,8.017v0L15.81,6.052l2-1.872h0L22.284,0l1.911,1.966L21.28,4.689A17.606,17.606,0,0,1,32.374,7.958,17.006,17.006,0,0,1,39.36,19.166,17.233,17.233,0,0,1,24.793,38.79a17.909,17.909,0,0,1-2.73.21A17.43,17.43,0,0,1,4.787,24.5,17.024,17.024,0,0,1,11.337,8.274Z" transform="translate(0)" fill="#d2d2d2"/>
    </g>
    <text id="_15" data-name="15" transform="translate(886 958)" fill="#d2d2d2" font-size="14" font-family="Poppins-SemiBold, Poppins" font-weight="600" opacity="0.75"><tspan x="0" y="0">15</tspan></text>
  </g>
</svg>
