<svg xmlns="http://www.w3.org/2000/svg" width="35" height="39" viewBox="0 0 35 39">
  <g id="Grupo_1327" data-name="Grupo 1327" transform="translate(-1009 -930)">
    <g id="repeticion" transform="translate(1004.426 930)" opacity="0.75">
      <path id="Trazado_5784" data-name="Trazado 5784" d="M32.811,8.274l-1.918,2.417a13.99,13.99,0,0,1,5.384,13.335A14.357,14.357,0,0,1,19.841,35.765,14.159,14.159,0,0,1,7.873,19.642a13.969,13.969,0,0,1,5.74-9.208,14.471,14.471,0,0,1,9.252-2.681l-2.7,2.778,2,1.874,4.261-4.388v0l1.909-1.966-2-1.872h0L21.864,0,19.953,1.966l2.915,2.723A17.606,17.606,0,0,0,11.774,7.958,17.006,17.006,0,0,0,4.788,19.166,17.233,17.233,0,0,0,19.355,38.79a17.909,17.909,0,0,0,2.73.21A17.43,17.43,0,0,0,39.361,24.5,17.024,17.024,0,0,0,32.811,8.274Z" transform="translate(0)" fill="#d2d2d2"/>
    </g>
    <text id="_15" data-name="15" transform="translate(1020 958)" fill="#d2d2d2" font-size="14" font-family="Poppins-SemiBold, Poppins" font-weight="600" opacity="0.75"><tspan x="0" y="0">15</tspan></text>
  </g>
</svg>
