<svg xmlns="http://www.w3.org/2000/svg" width="85.738" height="85.738" viewBox="0 0 85.738 85.738"><g transform="translate(-69.144)"><circle cx="42.869" cy="42.869" r="42.869" transform="translate(69.144 0)" fill="#ffcc5b"/><path d="M118.247,48.749H91.08A3.861,3.861,0,0,1,87.234,44.9l.029-.264V44.58a4.016,4.016,0,0,1,4.022-4.051h18.828a4.762,4.762,0,0,0,4.845-4.345,4.6,4.6,0,0,0-4.58-4.815H90.434a3.882,3.882,0,0,1-3.816-4.051V27.2a3.882,3.882,0,0,1,3.816-4.051H111.3a4.752,4.752,0,0,0,4.815-4.316,4.587,4.587,0,0,0-4.58-4.815H96.256a42.864,42.864,0,0,0,0,79.292h19.405a4.752,4.752,0,0,0,4.815-4.316,4.584,4.584,0,0,0-4.58-4.812l-22.075,0a4.567,4.567,0,0,1-4.562-4.815,4.744,4.744,0,0,1,4.819-4.323h8.558a4.574,4.574,0,0,0-.132-9.146H89.534a3.815,3.815,0,0,1-3.816-3.846v-.323a3.612,3.612,0,0,1,3.611-3.846h28.654a4.76,4.76,0,0,0,4.845-4.316A4.588,4.588,0,0,0,118.247,48.749Z" transform="translate(-0.419 -10.798)" fill="#fdbc4b"/><path d="M153.185,114.638a30.6,30.6,0,1,1,30.6-30.6A30.636,30.636,0,0,1,153.185,114.638Z" transform="translate(-41.172 -41.172)" fill="#ffdb70"/><path d="M264.453,84.337a30.615,30.615,0,0,0-28.845-30.513h-2.85a3.626,3.626,0,0,0-3.673,3.291,3.5,3.5,0,0,0,3.493,3.673l16.838,0a3.482,3.482,0,0,1,3.478,3.673,3.618,3.618,0,0,1-3.677,3.3H242.69a3.488,3.488,0,0,0,.1,6.975h9.9a2.909,2.909,0,0,1,2.909,2.931v.242a2.753,2.753,0,0,1-2.755,2.931H230.987a3.632,3.632,0,0,0-3.7,3.291,3.5,3.5,0,0,0,3.493,3.673H251.5a2.942,2.942,0,0,1,2.931,2.931l-.022.2v.044a3.063,3.063,0,0,1-3.067,3.089H236.982a3.634,3.634,0,0,0-3.7,3.313,3.513,3.513,0,0,0,3.493,3.673h15.21a2.96,2.96,0,0,1,2.909,3.089v.088a2.96,2.96,0,0,1-2.909,3.089H236.075a3.626,3.626,0,0,0-3.673,3.291,3.5,3.5,0,0,0,3.493,3.673h4.2A30.651,30.651,0,0,0,264.453,84.337Z" transform="translate(-121.839 -41.468)" fill="#fff" opacity="0.2"/><path d="M198.906,105.132H184.022l-4.6-14.156a1.976,1.976,0,0,0-3.758,0l-4.6,14.156H156.18a1.975,1.975,0,0,0-1.161,3.574l12.04,8.749-4.6,14.156a1.976,1.976,0,0,0,3.041,2.208l12.04-8.749,12.04,8.749a1.976,1.976,0,0,0,3.041-2.208l-4.6-14.156,12.04-8.749A1.976,1.976,0,0,0,198.906,105.132Z" transform="translate(-65.53 -69.04)" fill="#ec9922"/></g></svg>