<svg width="71" height="71" viewBox="0 0 71 71" fill="none" xmlns="http://www.w3.org/2000/svg">
<circle cx="35.5" cy="35.5" r="35.5" fill="#78C383"/>
<path fill-rule="evenodd" clip-rule="evenodd" d="M12 20H40.4999C44.0898 20 47 22.9094 47 26.4984V46.9934C47 48.0977 46.1045 48.9928 44.9999 48.9928H16.5C12.9102 48.9928 10 46.0834 10 42.4944V21.9995C10 20.8952 10.8954 20 12 20Z" fill="white"/>
<path fill-rule="evenodd" clip-rule="evenodd" d="M50.4434 28.4089L61.4433 21.0409C61.9022 20.7336 62.5233 20.8563 62.8308 21.3151C62.9411 21.4797 63 21.6734 63 21.8716V48.0003C63 48.5524 62.5523 49 61.9999 49C61.7849 49 61.5755 48.9307 61.4028 48.8022L50.4029 40.6157C50.1494 40.427 50 40.1296 50 39.8137V29.2394C50 28.9059 50.1663 28.5945 50.4434 28.4089Z" fill="white"/>
</svg>
