<svg width="279" height="281" viewBox="0 0 279 281" fill="none" xmlns="http://www.w3.org/2000/svg">
<g filter="url(#filter0_d_301_218)">
<path d="M142.628 271.255C214.219 271.255 272.255 213.219 272.255 141.628C272.255 70.0362 214.219 12 142.628 12C71.0362 12 13 70.0362 13 141.628C13 213.219 71.0362 271.255 142.628 271.255Z" fill="#268B35"/>
</g>
<g filter="url(#filter1_d_301_218)">
<path d="M135.628 262.255C207.219 262.255 265.255 204.219 265.255 132.628C265.255 61.0362 207.219 3 135.628 3C64.0362 3 6 61.0362 6 132.628C6 204.219 64.0362 262.255 135.628 262.255Z" fill="#78C383"/>
</g>
<g filter="url(#filter2_d_301_218)">
<path d="M197.583 78V166.542C197.583 173.117 194.971 179.423 190.322 184.072C185.673 188.721 179.367 191.333 172.792 191.333C166.217 191.333 159.911 188.721 155.261 184.072C150.612 179.423 148 173.117 148 166.542C148 159.967 150.612 153.661 155.261 149.011C159.911 144.362 166.217 141.75 172.792 141.75C176.617 141.75 180.229 142.6 183.417 144.158V102.579L112.583 117.667V180.708C112.583 187.283 109.971 193.589 105.322 198.239C100.673 202.888 94.3668 205.5 87.7917 205.5C81.2165 205.5 74.9106 202.888 70.2613 198.239C65.612 193.589 63 187.283 63 180.708C63 174.133 65.612 167.827 70.2613 163.178C74.9106 158.529 81.2165 155.917 87.7917 155.917C91.6167 155.917 95.2292 156.767 98.4167 158.325V99.25L197.583 78Z" fill="#0D95DD"/>
</g>
<defs>
<filter id="filter0_d_301_218" x="7" y="9" width="271.255" height="271.255" filterUnits="userSpaceOnUse" color-interpolation-filters="sRGB">
<feFlood flood-opacity="0" result="BackgroundImageFix"/>
<feColorMatrix in="SourceAlpha" type="matrix" values="0 0 0 0 0 0 0 0 0 0 0 0 0 0 0 0 0 0 127 0" result="hardAlpha"/>
<feOffset dy="3"/>
<feGaussianBlur stdDeviation="3"/>
<feColorMatrix type="matrix" values="0 0 0 0 0 0 0 0 0 0 0 0 0 0 0 0 0 0 0.204 0"/>
<feBlend mode="normal" in2="BackgroundImageFix" result="effect1_dropShadow_301_218"/>
<feBlend mode="normal" in="SourceGraphic" in2="effect1_dropShadow_301_218" result="shape"/>
</filter>
<filter id="filter1_d_301_218" x="0" y="0" width="271.255" height="271.255" filterUnits="userSpaceOnUse" color-interpolation-filters="sRGB">
<feFlood flood-opacity="0" result="BackgroundImageFix"/>
<feColorMatrix in="SourceAlpha" type="matrix" values="0 0 0 0 0 0 0 0 0 0 0 0 0 0 0 0 0 0 127 0" result="hardAlpha"/>
<feOffset dy="3"/>
<feGaussianBlur stdDeviation="3"/>
<feColorMatrix type="matrix" values="0 0 0 0 0 0 0 0 0 0 0 0 0 0 0 0 0 0 0.204 0"/>
<feBlend mode="normal" in2="BackgroundImageFix" result="effect1_dropShadow_301_218"/>
<feBlend mode="normal" in="SourceGraphic" in2="effect1_dropShadow_301_218" result="shape"/>
</filter>
<filter id="filter2_d_301_218" x="39" y="62" width="182.583" height="175.5" filterUnits="userSpaceOnUse" color-interpolation-filters="sRGB">
<feFlood flood-opacity="0" result="BackgroundImageFix"/>
<feColorMatrix in="SourceAlpha" type="matrix" values="0 0 0 0 0 0 0 0 0 0 0 0 0 0 0 0 0 0 127 0" result="hardAlpha"/>
<feOffset dy="8"/>
<feGaussianBlur stdDeviation="12"/>
<feComposite in2="hardAlpha" operator="out"/>
<feColorMatrix type="matrix" values="0 0 0 0 0 0 0 0 0 0 0 0 0 0 0 0 0 0 0.15 0"/>
<feBlend mode="normal" in2="BackgroundImageFix" result="effect1_dropShadow_301_218"/>
<feBlend mode="normal" in="SourceGraphic" in2="effect1_dropShadow_301_218" result="shape"/>
</filter>
</defs>
</svg>
