<svg width="512" height="512" viewBox="0 0 512 512" fill="none" xmlns="http://www.w3.org/2000/svg">
<g clip-path="url(#clip0_1115_5990)">
<path d="M0 224.96V357.465C0 395.623 30.9322 426.555 69.0899 426.555H442.91C481.068 426.555 512 395.623 512 357.465V224.96C512 218.324 506.62 212.944 499.984 212.944H12.0156C5.38 212.944 0 218.324 0 224.96ZM127.833 309.069H95.7916C84.1785 309.069 74.7643 299.655 74.7643 288.042C74.7643 276.429 84.1785 267.014 95.7916 267.014H127.833C139.446 267.014 148.861 276.429 148.861 288.042C148.861 299.655 139.446 309.069 127.833 309.069Z" fill="#7A7A7A"/>
<path d="M512 158.874V154.535C512 116.377 481.068 85.4451 442.91 85.4451H69.0899C30.9322 85.4451 0 116.377 0 154.535V158.874C0 165.509 5.38 170.889 12.0156 170.889H499.984C506.62 170.889 512 165.509 512 158.874Z" fill="#7A7A7A"/>
</g>
<defs>
<clipPath id="clip0_1115_5990">
<rect width="512" height="512" fill="white"/>
</clipPath>
</defs>
</svg>
