<svg width="14" height="18" viewBox="0 0 14 18" fill="none" xmlns="http://www.w3.org/2000/svg">
<path d="M0.440064 0.0425491C0.580064 -0.0284509 0.744064 -0.00845088 0.865064 0.0865491L11.6421 8.58855C11.7361 8.66255 11.7941 8.77955 11.7941 8.90055C11.7941 9.01855 11.7351 9.14055 11.6421 9.21455L0.864064 17.7176C0.792064 17.7736 0.702064 17.8036 0.614064 17.8036L0.439064 17.7635C0.302064 17.6985 0.216064 17.5576 0.216064 17.4016V0.402549C0.216064 0.248549 0.302064 0.105549 0.440064 0.0425491Z" fill="white"/>
<path d="M10.616 0.0332031H13.272C13.447 0.0332031 13.588 0.214203 13.588 0.432203V17.3672C13.588 17.5892 13.446 17.7702 13.272 17.7702H10.616C10.442 17.7702 10.3 17.5882 10.3 17.3672V0.433203C10.3 0.214203 10.443 0.0332031 10.616 0.0332031Z" fill="white"/>
</svg>
