<svg width="109" height="109" viewBox="0 0 109 109" fill="none" xmlns="http://www.w3.org/2000/svg">
<path d="M40.4572 58.7765C38.1145 56.8641 35.3841 53.3142 36.1232 52.2889C36.8628 51.2637 40.7923 53.1511 43.1349 55.0635C45.4775 56.976 45.154 58.4554 44.6064 59.2145C44.0592 59.9736 42.7998 60.6889 40.4572 58.7765Z" fill="#FFB7D6"/>
<path d="M44.4935 59.1057C44.841 58.682 45.1246 58.0131 44.9438 57.2331C44.763 56.4532 44.159 55.6237 42.9448 54.7515C41.7475 53.8916 40.1882 53.0607 38.7895 52.5365C38.0902 52.2745 37.4361 52.0877 36.8506 52.0243C36.2653 51.9608 35.6434 51.9936 35.2524 52.4705C34.8614 52.9473 34.9886 53.5178 35.2054 54.0304C35.4223 54.543 35.7846 55.0863 36.236 55.6501C37.1388 56.7784 38.4003 57.9728 39.5976 58.8327C40.8119 59.7046 41.8248 60.0354 42.6767 59.997C43.5293 59.959 44.1463 59.5294 44.4935 59.1057ZM43.542 58.4226C43.3545 58.6516 43.0889 58.8552 42.6195 58.8763C42.1501 58.8975 41.4031 58.7141 40.3284 57.9427C39.2367 57.1591 38.0196 56.0064 37.1967 54.9779C36.7852 54.4636 36.473 53.9762 36.3211 53.6176C36.2074 53.3486 36.2152 53.2022 36.2138 53.1608C36.2565 53.1513 36.4063 53.1066 36.7132 53.1397C37.1225 53.184 37.7067 53.34 38.3438 53.5789C39.6181 54.0565 41.123 54.8582 42.2147 55.6422C43.2895 56.4139 43.672 57.0415 43.7716 57.4711C43.8712 57.9011 43.7295 58.1936 43.542 58.4226Z" fill="#FC8ED0"/>
<g filter="url(#filter0_d_0_1)">
<circle cx="54.5" cy="50.5" r="38.5" fill="white"/>
<circle cx="54.5" cy="50.5" r="36" stroke="url(#paint0_linear_0_1)" stroke-width="5"/>
</g>
<path d="M54.0062 43.5898C47.266 43.5898 41.1629 44.5651 36.6432 46.1986C34.3833 47.0153 32.5149 47.9906 31.1399 49.1653C29.7645 50.3404 28.8333 51.8044 28.8333 53.4616C28.8333 55.1189 29.765 56.5838 31.1399 57.7585C32.5153 58.9332 34.3837 59.908 36.6432 60.7243C41.1629 62.3573 47.266 63.3334 54.0062 63.3334C60.7468 63.3334 66.8494 62.3577 71.3692 60.7243C73.629 59.9075 75.4979 58.9332 76.8733 57.7585C78.2482 56.5833 79.1795 55.1185 79.1795 53.4616C79.1795 51.8044 78.2482 50.34 76.8733 49.1653C75.4979 47.9906 73.629 47.0153 71.3692 46.1986C66.8498 44.5655 60.7468 43.5898 54.0062 43.5898ZM54.0062 45.9833C60.5251 45.9833 66.4267 46.9497 70.5961 48.4564C72.6811 49.2097 74.3283 50.1044 75.3826 51.0052C76.4368 51.9061 76.8493 52.7233 76.8493 53.4621C76.8493 54.2004 76.4373 55.0185 75.3826 55.9194C74.3283 56.8202 72.6807 57.7149 70.5961 58.4682C66.4267 59.9749 60.5251 60.9413 54.0062 60.9413C47.4872 60.9413 41.5861 59.9753 37.4162 58.4682C35.3312 57.7149 33.684 56.8202 32.6298 55.9194C31.5755 55.0185 31.1631 54.2004 31.1631 53.4621C31.1631 52.7237 31.5751 51.9061 32.6298 51.0052C33.6845 50.1044 35.3317 49.2097 37.4162 48.4564C41.5861 46.9493 47.4872 45.9833 54.0062 45.9833Z" fill="#FE378E"/>
<path d="M49.4158 64.975C49.8318 68.2395 49.3694 73.0235 48.0692 73.2005C46.769 73.3774 45.1239 68.88 44.7075 65.6155C44.2916 62.351 45.5999 61.5094 46.5622 61.3788C47.5252 61.2474 48.9998 61.7106 49.4158 64.975Z" fill="#FFB7D6"/>
<path d="M46.0156 60.3964C45.4244 60.4854 44.6866 60.8491 44.2042 61.7053C43.7219 62.5615 43.513 63.8193 43.7219 65.6307C43.9278 67.4168 44.4238 69.4823 45.0431 71.1352C45.3528 71.9614 45.6886 72.6823 46.071 73.2332C46.4533 73.7846 46.939 74.2799 47.6041 74.1796C48.2695 74.0792 48.626 73.4579 48.8707 72.8121C49.115 72.1667 49.2763 71.3713 49.3882 70.4814C49.6118 68.7021 49.6233 66.5602 49.4173 64.7741C49.2084 62.9628 48.7216 61.8098 48.0617 61.1253C47.4022 60.4411 46.6069 60.3079 46.0156 60.3964ZM46.1791 61.8162C46.4984 61.7681 46.8556 61.8086 47.2191 62.1854C47.5827 62.5623 47.9898 63.3582 48.1747 64.9613C48.3625 66.5893 48.3514 68.6565 48.1477 70.2782C48.0455 71.0892 47.8916 71.7924 47.7203 72.2438C47.5919 72.5823 47.4705 72.708 47.4391 72.7463C47.4 72.7185 47.2542 72.6329 47.0534 72.3442C46.7859 71.9589 46.4777 71.3249 46.1954 70.5716C45.6307 69.0654 45.152 67.0719 44.9641 65.444C44.7796 63.8413 44.9926 62.9518 45.2583 62.4805C45.524 62.0084 45.8599 61.8642 46.1791 61.8162Z" fill="#FC8ED0"/>
<path d="M63.3211 65.6157C62.9884 68.8801 61.672 73.3774 60.6318 73.2005C59.5917 73.0235 59.2218 68.2396 59.5545 64.9752C59.8873 61.7109 61.067 61.2477 61.8371 61.3787C62.6072 61.5097 63.6539 62.3509 63.3211 65.6157Z" fill="#FFB7D6"/>
<path d="M61.9978 60.3966C61.4065 60.3076 60.6112 60.4412 59.9513 61.1254C59.2914 61.8096 58.8046 62.9629 58.5957 64.7743C58.3898 66.5603 58.4012 68.7022 58.6249 70.4815C58.7367 71.3714 58.898 72.1668 59.1423 72.8122C59.387 73.4576 59.7435 74.0793 60.409 74.1797C61.0744 74.2796 61.5597 73.7843 61.9421 73.2333C62.3244 72.6819 62.6606 71.9615 62.9699 71.1349C63.5892 69.482 64.0856 67.4165 64.2912 65.6308C64.5001 63.8195 64.2912 62.5616 63.8088 61.7054C63.3272 60.8493 62.589 60.4855 61.9978 60.3966ZM61.8343 61.8159C62.1539 61.8639 62.4898 62.0085 62.7551 62.4802C63.0209 62.9519 63.2338 63.841 63.0493 65.4437C62.8614 67.0717 62.3827 69.0651 61.8184 70.5713C61.5361 71.3246 61.2279 71.9582 60.9603 72.3434C60.7599 72.6326 60.6138 72.7178 60.5747 72.7456C60.5433 72.7072 60.4215 72.5816 60.2934 72.2431C60.1226 71.7916 59.9683 71.0885 59.8664 70.2775C59.6623 68.6554 59.6516 66.5886 59.8395 64.9606C60.024 63.3579 60.4315 62.5616 60.795 62.1847C61.1574 61.8083 61.5147 61.7678 61.8343 61.8159Z" fill="#FC8ED0"/>
<path d="M74.6883 49.1975C76.4869 47.5456 79.5041 45.9152 80.0719 46.8008C80.6397 47.6864 78.5431 50.7528 76.7445 52.4047C74.9459 54.0566 73.979 53.4388 73.5585 52.783C73.1381 52.127 72.8897 50.8494 74.6883 49.1975Z" fill="#FFB7D6"/>
<path d="M71.7822 52.5787C72.125 52.997 72.7344 53.4211 73.5754 53.459C74.4164 53.4968 75.4164 53.1702 76.6151 52.3095C77.7971 51.4606 79.0425 50.2815 79.9337 49.1677C80.3793 48.6107 80.7371 48.0747 80.9512 47.5687C81.1652 47.0626 81.2908 46.4992 80.9048 46.0287C80.5188 45.5582 79.9048 45.5259 79.3271 45.5883C78.7493 45.6506 78.1032 45.8352 77.4132 46.094C76.0328 46.6114 74.4931 47.4316 73.3111 48.2802C72.1124 49.1409 71.5162 49.9601 71.3377 50.7301C71.1591 51.5001 71.4391 52.1608 71.7822 52.5787ZM72.7215 51.9043C72.5364 51.6786 72.3966 51.3895 72.4949 50.9654C72.5932 50.5412 72.9708 49.9213 74.0318 49.1598C75.1096 48.3859 76.5952 47.5944 77.8532 47.123C78.4822 46.8871 79.0589 46.7331 79.463 46.6894C79.766 46.6564 79.9135 46.7008 79.9561 46.7103C79.9536 46.751 79.9623 46.8956 79.8501 47.1612C79.7001 47.5152 79.3919 47.9964 78.9857 48.504C78.1733 49.519 76.9718 50.657 75.8941 51.4309C74.8331 52.1927 74.0956 52.3735 73.6322 52.3526C73.1689 52.3314 72.9067 52.1301 72.7215 51.9043Z" fill="#FC8ED0"/>
<path d="M53.1565 71.4795L54.0064 72.0639L54.8563 71.4795C64.8059 64.6377 70.6404 58.0777 73.512 52.1822C76.3989 46.2552 76.2905 40.9783 74.2986 36.9304C70.6124 29.4394 60.5365 26.615 54.0064 32.1466C47.4763 26.6149 37.4003 29.4402 33.7142 36.9314C31.7223 40.9795 31.6139 46.2565 34.5008 52.1833C37.3725 58.0787 43.207 64.6384 53.1565 71.4795Z" fill="#FE97C4" stroke="#FF59A2" stroke-width="3"/>
<path fill-rule="evenodd" clip-rule="evenodd" d="M54.0065 38.2003C62.4951 29.4935 83.7186 44.7294 54.0065 64.3206C24.2944 44.7313 45.5179 29.4935 54.0065 38.2003Z" fill="white"/>
<path fill-rule="evenodd" clip-rule="evenodd" d="M54.0869 38.2069C62.5309 29.4902 83.6428 44.7069 54.0869 64.3206C27.7674 43.9393 47.1106 31.5192 54.0869 38.2069Z" fill="#F5BCD5"/>
<path fill-rule="evenodd" clip-rule="evenodd" d="M54.4283 34.1743C59.9297 28.4361 69.4223 30.3285 73.2564 36.8327C60.5163 53.4629 43.7501 61.771 42.5729 60.1789C20.7841 36.8327 45.1617 24.5088 54.4283 34.1743Z" fill="white" fill-opacity="0.53"/>
<path d="M44.6282 45.5637C44.6282 44.5065 45.0991 43.5275 45.8623 42.999C46.6252 42.4704 47.5674 42.4704 48.3303 42.999C49.0932 43.5275 49.5641 44.5065 49.5641 45.5637H48.6469C48.6469 44.8982 48.3519 44.2854 47.8715 43.9524C47.3912 43.6195 46.8011 43.6195 46.3207 43.9524C45.8404 44.2854 45.5453 44.8982 45.5453 45.5641L44.6282 45.5637Z" fill="#FF59A2"/>
<path d="M58.4489 45.5641C58.4489 44.5068 59.0139 43.5277 59.9297 42.999C60.8451 42.4704 61.9756 42.4704 62.8911 42.999C63.8065 43.5277 64.3719 44.5068 64.3719 45.5641H63.2714C63.2714 44.8985 62.9174 44.2852 62.341 43.9526C61.7646 43.6196 61.0566 43.6196 60.4802 43.9526C59.9038 44.2856 59.5498 44.8985 59.5498 45.5641H58.4489Z" fill="#FF59A2"/>
<path d="M65.3591 49.5129C65.3591 50.6033 63.8124 51.4873 61.9042 51.4873C59.9961 51.4873 58.4489 50.6033 58.4489 49.5129C58.4489 48.9893 58.8127 48.487 59.461 48.1168C60.1089 47.7465 60.9879 47.5386 61.9042 47.5386C62.8206 47.5386 63.6995 47.7465 64.3474 48.1168C64.9953 48.487 65.3591 48.9893 65.3591 49.5129Z" fill="#FF358D"/>
<path d="M50.5513 49.5129C50.5513 50.6033 49.2255 51.4873 47.5899 51.4873C45.9544 51.4873 44.6282 50.6033 44.6282 49.5129C44.6282 48.9893 44.94 48.487 45.4954 48.1168C46.0507 47.7465 46.804 47.5386 47.5895 47.5386C48.375 47.5386 49.1283 47.7465 49.6837 48.1168C50.2394 48.487 50.5513 48.9893 50.5513 49.5129Z" fill="#FF358D"/>
<path d="M56.9615 52.4748C56.9615 53.4865 56.7042 54.3786 56.3146 55.0019C55.9206 55.6321 55.4404 55.9233 54.9935 55.9233C54.5467 55.9233 54.0664 55.6321 53.6724 55.0019C53.2829 54.3786 53.0256 53.4865 53.0256 52.4748C53.0256 51.4632 53.2829 50.5709 53.6725 49.9475C54.0665 49.3171 54.5467 49.0259 54.9935 49.0259C55.4406 49.0259 55.9208 49.3171 56.3147 49.9475C56.7043 50.5709 56.9615 51.4631 56.9615 52.4748Z" fill="#E22982" stroke="#FF4B6C"/>
<path d="M28.8333 53.4614C28.8333 55.6147 30.3596 57.4119 32.6083 58.8184C34.857 60.2249 37.9645 61.3493 41.7703 62.1427C49.3816 63.7301 58.6316 63.7301 66.2424 62.1427C70.0479 61.3493 73.1558 60.2249 75.4045 58.8184C77.6527 57.4119 79.1795 55.6147 79.1795 53.4614H76.8493C76.8493 54.4058 76.0879 55.5892 74.1916 56.7756C72.2953 57.962 69.4009 59.0433 65.7785 59.7989C58.5334 61.3097 49.4798 61.3097 42.2347 59.7989C38.6119 59.0433 35.7179 57.962 33.8216 56.7756C31.9253 55.5892 31.1639 54.4058 31.1639 53.4614H28.8333Z" fill="#FE378E"/>
<path d="M33.9819 97.576V99.22H30.5499V100.996H33.1179V102.592H30.5499V106H28.4979V97.576H33.9819ZM34.6524 102.64C34.6524 101.952 34.7804 101.348 35.0364 100.828C35.3004 100.308 35.6564 99.908 36.1044 99.628C36.5524 99.348 37.0524 99.208 37.6044 99.208C38.0764 99.208 38.4884 99.304 38.8404 99.496C39.2004 99.688 39.4764 99.94 39.6684 100.252V99.304H41.7204V106H39.6684V105.052C39.4684 105.364 39.1884 105.616 38.8284 105.808C38.4764 106 38.0644 106.096 37.5924 106.096C37.0484 106.096 36.5524 105.956 36.1044 105.676C35.6564 105.388 35.3004 104.984 35.0364 104.464C34.7804 103.936 34.6524 103.328 34.6524 102.64ZM39.6684 102.652C39.6684 102.14 39.5244 101.736 39.2364 101.44C38.9564 101.144 38.6124 100.996 38.2044 100.996C37.7964 100.996 37.4484 101.144 37.1604 101.44C36.8804 101.728 36.7404 102.128 36.7404 102.64C36.7404 103.152 36.8804 103.56 37.1604 103.864C37.4484 104.16 37.7964 104.308 38.2044 104.308C38.6124 104.308 38.9564 104.16 39.2364 103.864C39.5244 103.568 39.6684 103.164 39.6684 102.652ZM46.2169 104.08L47.6689 99.304H49.8529L47.4769 106H44.9449L42.5689 99.304H44.7649L46.2169 104.08ZM53.7647 106.096C53.1087 106.096 52.5167 105.956 51.9887 105.676C51.4687 105.396 51.0567 104.996 50.7527 104.476C50.4567 103.956 50.3087 103.348 50.3087 102.652C50.3087 101.964 50.4607 101.36 50.7647 100.84C51.0687 100.312 51.4847 99.908 52.0127 99.628C52.5407 99.348 53.1327 99.208 53.7887 99.208C54.4447 99.208 55.0367 99.348 55.5647 99.628C56.0927 99.908 56.5087 100.312 56.8127 100.84C57.1167 101.36 57.2687 101.964 57.2687 102.652C57.2687 103.34 57.1127 103.948 56.8007 104.476C56.4967 104.996 56.0767 105.396 55.5407 105.676C55.0127 105.956 54.4207 106.096 53.7647 106.096ZM53.7647 104.32C54.1567 104.32 54.4887 104.176 54.7607 103.888C55.0407 103.6 55.1807 103.188 55.1807 102.652C55.1807 102.116 55.0447 101.704 54.7727 101.416C54.5087 101.128 54.1807 100.984 53.7887 100.984C53.3887 100.984 53.0567 101.128 52.7927 101.416C52.5287 101.696 52.3967 102.108 52.3967 102.652C52.3967 103.188 52.5247 103.6 52.7807 103.888C53.0447 104.176 53.3727 104.32 53.7647 104.32ZM60.4093 100.42C60.6493 100.052 60.9493 99.764 61.3093 99.556C61.6693 99.34 62.0693 99.232 62.5093 99.232V101.404H61.9453C61.4333 101.404 61.0493 101.516 60.7933 101.74C60.5373 101.956 60.4093 102.34 60.4093 102.892V106H58.3573V99.304H60.4093V100.42ZM64.5221 98.608C64.1621 98.608 63.8661 98.504 63.6341 98.296C63.4101 98.08 63.2981 97.816 63.2981 97.504C63.2981 97.184 63.4101 96.92 63.6341 96.712C63.8661 96.496 64.1621 96.388 64.5221 96.388C64.8741 96.388 65.1621 96.496 65.3861 96.712C65.6181 96.92 65.7341 97.184 65.7341 97.504C65.7341 97.816 65.6181 98.08 65.3861 98.296C65.1621 98.504 64.8741 98.608 64.5221 98.608ZM65.5421 99.304V106H63.4901V99.304H65.5421ZM70.7612 104.26V106H69.7172C68.9732 106 68.3932 105.82 67.9772 105.46C67.5612 105.092 67.3532 104.496 67.3532 103.672V101.008H66.5372V99.304H67.3532V97.672H69.4052V99.304H70.7492V101.008H69.4052V103.696C69.4052 103.896 69.4532 104.04 69.5492 104.128C69.6452 104.216 69.8052 104.26 70.0292 104.26H70.7612ZM78.2162 102.544C78.2162 102.736 78.2042 102.936 78.1802 103.144H73.5362C73.5682 103.56 73.7002 103.88 73.9322 104.104C74.1722 104.32 74.4642 104.428 74.8082 104.428C75.3202 104.428 75.6762 104.212 75.8762 103.78H78.0602C77.9482 104.22 77.7442 104.616 77.4482 104.968C77.1602 105.32 76.7962 105.596 76.3562 105.796C75.9162 105.996 75.4242 106.096 74.8802 106.096C74.2242 106.096 73.6402 105.956 73.1282 105.676C72.6162 105.396 72.2162 104.996 71.9282 104.476C71.6402 103.956 71.4962 103.348 71.4962 102.652C71.4962 101.956 71.6362 101.348 71.9162 100.828C72.2042 100.308 72.6042 99.908 73.1162 99.628C73.6282 99.348 74.2162 99.208 74.8802 99.208C75.5282 99.208 76.1042 99.344 76.6082 99.616C77.1122 99.888 77.5042 100.276 77.7842 100.78C78.0722 101.284 78.2162 101.872 78.2162 102.544ZM76.1162 102.004C76.1162 101.652 75.9962 101.372 75.7562 101.164C75.5162 100.956 75.2162 100.852 74.8562 100.852C74.5122 100.852 74.2202 100.952 73.9802 101.152C73.7482 101.352 73.6042 101.636 73.5482 102.004H76.1162ZM82.0227 106.096C81.4387 106.096 80.9187 105.996 80.4627 105.796C80.0067 105.596 79.6467 105.324 79.3827 104.98C79.1187 104.628 78.9707 104.236 78.9387 103.804H80.9667C80.9907 104.036 81.0987 104.224 81.2907 104.368C81.4827 104.512 81.7187 104.584 81.9987 104.584C82.2547 104.584 82.4507 104.536 82.5867 104.44C82.7307 104.336 82.8027 104.204 82.8027 104.044C82.8027 103.852 82.7027 103.712 82.5027 103.624C82.3027 103.528 81.9787 103.424 81.5307 103.312C81.0507 103.2 80.6507 103.084 80.3307 102.964C80.0107 102.836 79.7347 102.64 79.5027 102.376C79.2707 102.104 79.1547 101.74 79.1547 101.284C79.1547 100.9 79.2587 100.552 79.4667 100.24C79.6827 99.92 79.9947 99.668 80.4027 99.484C80.8187 99.3 81.3107 99.208 81.8787 99.208C82.7187 99.208 83.3787 99.416 83.8587 99.832C84.3467 100.248 84.6267 100.8 84.6987 101.488H82.8027C82.7707 101.256 82.6667 101.072 82.4907 100.936C82.3227 100.8 82.0987 100.732 81.8187 100.732C81.5787 100.732 81.3947 100.78 81.2667 100.876C81.1387 100.964 81.0747 101.088 81.0747 101.248C81.0747 101.44 81.1747 101.584 81.3747 101.68C81.5827 101.776 81.9027 101.872 82.3347 101.968C82.8307 102.096 83.2347 102.224 83.5467 102.352C83.8587 102.472 84.1307 102.672 84.3627 102.952C84.6027 103.224 84.7267 103.592 84.7347 104.056C84.7347 104.448 84.6227 104.8 84.3987 105.112C84.1827 105.416 83.8667 105.656 83.4507 105.832C83.0427 106.008 82.5667 106.096 82.0227 106.096Z" fill="#FE378E"/>
<defs>
<filter id="filter0_d_0_1" x="0" y="0" width="109" height="109" filterUnits="userSpaceOnUse" color-interpolation-filters="sRGB">
<feFlood flood-opacity="0" result="BackgroundImageFix"/>
<feColorMatrix in="SourceAlpha" type="matrix" values="0 0 0 0 0 0 0 0 0 0 0 0 0 0 0 0 0 0 127 0" result="hardAlpha"/>
<feOffset dy="4"/>
<feGaussianBlur stdDeviation="8"/>
<feComposite in2="hardAlpha" operator="out"/>
<feColorMatrix type="matrix" values="0 0 0 0 0 0 0 0 0 0 0 0 0 0 0 0 0 0 0.25 0"/>
<feBlend mode="normal" in2="BackgroundImageFix" result="effect1_dropShadow_0_1"/>
<feBlend mode="normal" in="SourceGraphic" in2="effect1_dropShadow_0_1" result="shape"/>
</filter>
<linearGradient id="paint0_linear_0_1" x1="54.5" y1="12" x2="54.5" y2="89" gradientUnits="userSpaceOnUse">
<stop stop-color="#FE378E"/>
<stop offset="0.677935" stop-color="#FD9EC8"/>
<stop offset="0.994792" stop-color="#FF72B0"/>
</linearGradient>
</defs>
</svg>
