<svg width="162" height="142" viewBox="0 0 162 142" fill="none" xmlns="http://www.w3.org/2000/svg">
<path d="M133.705 70.8935C131.665 34.0485 105.42 -1.43697 68.5671 0.602422C31.7147 2.64182 -3.64187 41.3903 0.301751 78.0994C6.28517 133.027 33.7545 143.224 70.6069 141.185C107.459 139.145 135.745 107.739 133.705 70.8935Z" fill="#369846"/>
<path d="M161.038 112.633C160.63 105.02 155.191 97.6777 147.576 98.0856C139.96 98.4935 132.617 106.515 133.433 114.129C134.657 125.549 140.368 127.589 147.984 127.181C155.599 126.773 161.446 120.247 161.038 112.633Z" fill="#369846"/>
<path d="M105.148 71.0288C95.3571 65.7264 85.4301 60.4239 75.5031 55.5294C75.2311 53.2181 73.7352 51.0427 70.7435 50.227C61.2245 47.7797 43.0022 27.7937 44.3621 42.4773L44.4981 84.4888C44.906 92.1025 45.314 99.7162 45.042 107.33C44.906 112.089 49.8016 115.895 54.9691 113.856L107.324 77.147C110.452 74.5637 107.596 72.2524 105.148 71.0288Z" fill="white"/>
</svg>
