<svg width="89" height="78" viewBox="0 0 89 78" fill="none" xmlns="http://www.w3.org/2000/svg">
<path d="M73.5117 38.521C72.3987 18.4179 58.0789 -0.943425 37.9717 0.169294C17.8646 1.28201 -1.42644 22.4237 0.725247 42.4526C3.98988 72.4219 18.9775 77.9855 39.0846 76.8727C59.1918 75.76 74.6246 58.6241 73.5117 38.521Z" fill="#F58E00"/>
<path d="M88.4296 61.2944C88.207 57.1402 85.2392 53.1345 81.0842 53.357C76.9292 53.5795 72.9226 57.9562 73.3678 62.1104C74.0356 68.3416 77.1518 69.4543 81.3068 69.2318C85.4618 69.0093 88.6522 65.4486 88.4296 61.2944Z" fill="#F58E00"/>
<path d="M57.9342 38.5952C52.5921 35.7022 47.1757 32.8091 41.7594 30.1386C41.611 28.8775 40.7949 27.6906 39.1626 27.2455C33.9688 25.9102 24.0265 15.0056 24.7685 23.0172L24.8427 45.9392C25.0653 50.0933 25.2879 54.2475 25.1395 58.4016C25.0653 60.998 27.7363 63.0751 30.5558 61.9623L59.1213 41.9334C60.8278 40.524 59.2697 39.2629 57.9342 38.5952Z" fill="white"/>
</svg>
