<svg width="109" height="108" viewBox="0 0 109 108" fill="none" xmlns="http://www.w3.org/2000/svg">
<ellipse cx="54.5" cy="54" rx="54.5" ry="54" fill="url(#paint0_linear_0_1)"/>
<path d="M42.6461 27.77C42.6461 28.33 42.5111 28.855 42.2411 29.345C41.9811 29.835 41.5661 30.23 40.9961 30.53C40.4361 30.83 39.7261 30.98 38.8661 30.98H37.1111V35H35.0111V24.53H38.8661C39.6761 24.53 40.3661 24.67 40.9361 24.95C41.5061 25.23 41.9311 25.615 42.2111 26.105C42.5011 26.595 42.6461 27.15 42.6461 27.77ZM38.7761 29.285C39.3561 29.285 39.7861 29.155 40.0661 28.895C40.3461 28.625 40.4861 28.25 40.4861 27.77C40.4861 26.75 39.9161 26.24 38.7761 26.24H37.1111V29.285H38.7761ZM43.5971 30.815C43.5971 29.975 43.7621 29.23 44.0921 28.58C44.4321 27.93 44.8871 27.43 45.4571 27.08C46.0371 26.73 46.6821 26.555 47.3921 26.555C48.0121 26.555 48.5521 26.68 49.0121 26.93C49.4821 27.18 49.8571 27.495 50.1371 27.875V26.69H52.2521V35H50.1371V33.785C49.8671 34.175 49.4921 34.5 49.0121 34.76C48.5421 35.01 47.9971 35.135 47.3771 35.135C46.6771 35.135 46.0371 34.955 45.4571 34.595C44.8871 34.235 44.4321 33.73 44.0921 33.08C43.7621 32.42 43.5971 31.665 43.5971 30.815ZM50.1371 30.845C50.1371 30.335 50.0371 29.9 49.8371 29.54C49.6371 29.17 49.3671 28.89 49.0271 28.7C48.6871 28.5 48.3221 28.4 47.9321 28.4C47.5421 28.4 47.1821 28.495 46.8521 28.685C46.5221 28.875 46.2521 29.155 46.0421 29.525C45.8421 29.885 45.7421 30.315 45.7421 30.815C45.7421 31.315 45.8421 31.755 46.0421 32.135C46.2521 32.505 46.5221 32.79 46.8521 32.99C47.1921 33.19 47.5521 33.29 47.9321 33.29C48.3221 33.29 48.6871 33.195 49.0271 33.005C49.3671 32.805 49.6371 32.525 49.8371 32.165C50.0371 31.795 50.1371 31.355 50.1371 30.845ZM56.7481 28.415V32.435C56.7481 32.715 56.8131 32.92 56.9431 33.05C57.0831 33.17 57.3131 33.23 57.6331 33.23H58.6081V35H57.2881C55.5181 35 54.6331 34.14 54.6331 32.42V28.415H53.6431V26.69H54.6331V24.635H56.7481V26.69H58.6081V28.415H56.7481ZM59.5785 30.845C59.5785 29.985 59.7535 29.235 60.1035 28.595C60.4535 27.945 60.9385 27.445 61.5585 27.095C62.1785 26.735 62.8885 26.555 63.6885 26.555C64.7185 26.555 65.5685 26.815 66.2385 27.335C66.9185 27.845 67.3735 28.565 67.6035 29.495H65.3385C65.2185 29.135 65.0135 28.855 64.7235 28.655C64.4435 28.445 64.0935 28.34 63.6735 28.34C63.0735 28.34 62.5985 28.56 62.2485 29C61.8985 29.43 61.7235 30.045 61.7235 30.845C61.7235 31.635 61.8985 32.25 62.2485 32.69C62.5985 33.12 63.0735 33.335 63.6735 33.335C64.5235 33.335 65.0785 32.955 65.3385 32.195H67.6035C67.3735 33.095 66.9185 33.81 66.2385 34.34C65.5585 34.87 64.7085 35.135 63.6885 35.135C62.8885 35.135 62.1785 34.96 61.5585 34.61C60.9385 34.25 60.4535 33.75 60.1035 33.11C59.7535 32.46 59.5785 31.705 59.5785 30.845ZM73.8219 26.57C74.4519 26.57 75.0119 26.71 75.5019 26.99C75.9919 27.26 76.3719 27.665 76.6419 28.205C76.9219 28.735 77.0619 29.375 77.0619 30.125V35H74.9619V30.41C74.9619 29.75 74.7969 29.245 74.4669 28.895C74.1369 28.535 73.6869 28.355 73.1169 28.355C72.5369 28.355 72.0769 28.535 71.7369 28.895C71.4069 29.245 71.2419 29.75 71.2419 30.41V35H69.1419V23.9H71.2419V27.725C71.5119 27.365 71.8719 27.085 72.3219 26.885C72.7719 26.675 73.2719 26.57 73.8219 26.57ZM32.3064 50.335H35.7564V52H30.2064V41.53H32.3064V50.335ZM40.7812 52.135C39.9812 52.135 39.2612 51.96 38.6212 51.61C37.9812 51.25 37.4762 50.745 37.1062 50.095C36.7462 49.445 36.5662 48.695 36.5662 47.845C36.5662 46.995 36.7512 46.245 37.1212 45.595C37.5012 44.945 38.0162 44.445 38.6662 44.095C39.3162 43.735 40.0412 43.555 40.8412 43.555C41.6412 43.555 42.3662 43.735 43.0162 44.095C43.6662 44.445 44.1762 44.945 44.5462 45.595C44.9262 46.245 45.1162 46.995 45.1162 47.845C45.1162 48.695 44.9212 49.445 44.5312 50.095C44.1512 50.745 43.6312 51.25 42.9712 51.61C42.3212 51.96 41.5912 52.135 40.7812 52.135ZM40.7812 50.305C41.1612 50.305 41.5162 50.215 41.8462 50.035C42.1862 49.845 42.4562 49.565 42.6562 49.195C42.8562 48.825 42.9562 48.375 42.9562 47.845C42.9562 47.055 42.7462 46.45 42.3262 46.03C41.9162 45.6 41.4112 45.385 40.8112 45.385C40.2112 45.385 39.7062 45.6 39.2962 46.03C38.8962 46.45 38.6962 47.055 38.6962 47.845C38.6962 48.635 38.8912 49.245 39.2812 49.675C39.6812 50.095 40.1812 50.305 40.7812 50.305ZM46.1166 47.845C46.1166 46.985 46.2916 46.235 46.6416 45.595C46.9916 44.945 47.4766 44.445 48.0966 44.095C48.7166 43.735 49.4266 43.555 50.2266 43.555C51.2566 43.555 52.1066 43.815 52.7766 44.335C53.4566 44.845 53.9116 45.565 54.1416 46.495H51.8766C51.7566 46.135 51.5516 45.855 51.2616 45.655C50.9816 45.445 50.6316 45.34 50.2116 45.34C49.6116 45.34 49.1366 45.56 48.7866 46C48.4366 46.43 48.2616 47.045 48.2616 47.845C48.2616 48.635 48.4366 49.25 48.7866 49.69C49.1366 50.12 49.6116 50.335 50.2116 50.335C51.0616 50.335 51.6166 49.955 51.8766 49.195H54.1416C53.9116 50.095 53.4566 50.81 52.7766 51.34C52.0966 51.87 51.2466 52.135 50.2266 52.135C49.4266 52.135 48.7166 51.96 48.0966 51.61C47.4766 51.25 46.9916 50.75 46.6416 50.11C46.2916 49.46 46.1166 48.705 46.1166 47.845ZM60.6 52L57.78 48.46V52H55.68V40.9H57.78V47.215L60.57 43.69H63.3L59.64 47.86L63.33 52H60.6ZM72.1648 47.665C72.1648 47.965 72.1448 48.235 72.1048 48.475H66.0298C66.0798 49.075 66.2898 49.545 66.6598 49.885C67.0298 50.225 67.4848 50.395 68.0248 50.395C68.8048 50.395 69.3598 50.06 69.6898 49.39H71.9548C71.7148 50.19 71.2548 50.85 70.5748 51.37C69.8948 51.88 69.0598 52.135 68.0698 52.135C67.2698 52.135 66.5498 51.96 65.9098 51.61C65.2798 51.25 64.7848 50.745 64.4248 50.095C64.0748 49.445 63.8998 48.695 63.8998 47.845C63.8998 46.985 64.0748 46.23 64.4248 45.58C64.7748 44.93 65.2648 44.43 65.8948 44.08C66.5248 43.73 67.2498 43.555 68.0698 43.555C68.8598 43.555 69.5648 43.725 70.1848 44.065C70.8148 44.405 71.2998 44.89 71.6398 45.52C71.9898 46.14 72.1648 46.855 72.1648 47.665ZM69.9898 47.065C69.9798 46.525 69.7848 46.095 69.4048 45.775C69.0248 45.445 68.5598 45.28 68.0098 45.28C67.4898 45.28 67.0498 45.44 66.6898 45.76C66.3398 46.07 66.1248 46.505 66.0448 47.065H69.9898ZM73.1576 47.815C73.1576 46.975 73.3226 46.23 73.6526 45.58C73.9926 44.93 74.4526 44.43 75.0326 44.08C75.6126 43.73 76.2576 43.555 76.9676 43.555C77.5076 43.555 78.0226 43.675 78.5126 43.915C79.0026 44.145 79.3926 44.455 79.6826 44.845V40.9H81.8126V52H79.6826V50.77C79.4226 51.18 79.0576 51.51 78.5876 51.76C78.1176 52.01 77.5726 52.135 76.9526 52.135C76.2526 52.135 75.6126 51.955 75.0326 51.595C74.4526 51.235 73.9926 50.73 73.6526 50.08C73.3226 49.42 73.1576 48.665 73.1576 47.815ZM79.6976 47.845C79.6976 47.335 79.5976 46.9 79.3976 46.54C79.1976 46.17 78.9276 45.89 78.5876 45.7C78.2476 45.5 77.8826 45.4 77.4926 45.4C77.1026 45.4 76.7426 45.495 76.4126 45.685C76.0826 45.875 75.8126 46.155 75.6026 46.525C75.4026 46.885 75.3026 47.315 75.3026 47.815C75.3026 48.315 75.4026 48.755 75.6026 49.135C75.8126 49.505 76.0826 49.79 76.4126 49.99C76.7526 50.19 77.1126 50.29 77.4926 50.29C77.8826 50.29 78.2476 50.195 78.5876 50.005C78.9276 49.805 79.1976 49.525 79.3976 49.165C79.5976 48.795 79.6976 48.355 79.6976 47.845Z" fill="white"/>
<path d="M54.4998 60C50.4792 60 47.2082 63.3645 47.2082 67.5V72H45.7498C44.9763 72 44.2344 72.3161 43.6874 72.8787C43.1405 73.4413 42.8332 74.2044 42.8332 75V87C42.8332 87.7957 43.1405 88.5587 43.6874 89.1213C44.2344 89.6839 44.9763 90 45.7498 90H63.2498C64.0234 90 64.7652 89.6839 65.3122 89.1213C65.8592 88.5587 66.1665 87.7957 66.1665 87V75C66.1665 74.2044 65.8592 73.4413 65.3122 72.8787C64.7652 72.3161 64.0234 72 63.2498 72H61.7915V67.5C61.7915 63.3645 58.5204 60 54.4998 60ZM50.1248 67.5C50.1248 65.019 52.0877 63 54.4998 63C56.9119 63 58.8748 65.019 58.8748 67.5V72H50.1248V67.5ZM55.9582 83.5845V87H53.0415V83.5845C52.5316 83.2842 52.1222 82.832 51.8673 82.2875C51.6123 81.7431 51.5238 81.1319 51.6133 80.5347C51.7029 79.9374 51.9663 79.3821 52.3689 78.9419C52.7714 78.5017 53.2942 78.1974 53.8684 78.069C54.2948 77.972 54.737 77.9747 55.1623 78.0769C55.5876 78.1791 55.9851 78.3782 56.3256 78.6595C56.6662 78.9408 56.9409 79.2971 57.1297 79.7022C57.3185 80.1073 57.4165 80.5508 57.4165 81C57.4157 81.5246 57.2804 82.0397 57.0244 82.4935C56.7684 82.9472 56.4006 83.3235 55.9582 83.5845V83.5845Z" fill="white"/>
<defs>
<linearGradient id="paint0_linear_0_1" x1="54.5" y1="0" x2="54.5" y2="108" gradientUnits="userSpaceOnUse">
<stop stop-color="#239FFE"/>
<stop offset="1" stop-color="#8026CB"/>
</linearGradient>
</defs>
</svg>
