<svg width="111" height="110" viewBox="0 0 111 110" fill="none" xmlns="http://www.w3.org/2000/svg">
<ellipse cx="55.2478" cy="54.7402" rx="55.1173" ry="54.4028" fill="url(#paint0_linear_302_5616)"/>
<path d="M24.7354 27.3681V29.9931H28.2604V31.6581H24.7354V34.4331H28.7104V36.1431H22.6354V25.6581H28.7104V27.3681H24.7354ZM30.0788 31.9581C30.0788 31.1181 30.2438 30.3731 30.5738 29.7231C30.9138 29.0731 31.3688 28.5731 31.9388 28.2231C32.5188 27.8731 33.1638 27.6981 33.8738 27.6981C34.4938 27.6981 35.0338 27.8231 35.4938 28.0731C35.9638 28.3231 36.3388 28.6381 36.6188 29.0181V27.8331H38.7338V36.1431H36.6188V34.9281C36.3488 35.3181 35.9738 35.6431 35.4938 35.9031C35.0238 36.1531 34.4788 36.2781 33.8588 36.2781C33.1588 36.2781 32.5188 36.0981 31.9388 35.7381C31.3688 35.3781 30.9138 34.8731 30.5738 34.2231C30.2438 33.5631 30.0788 32.8081 30.0788 31.9581ZM36.6188 31.9881C36.6188 31.4781 36.5188 31.0431 36.3188 30.6831C36.1188 30.3131 35.8488 30.0331 35.5088 29.8431C35.1688 29.6431 34.8038 29.5431 34.4138 29.5431C34.0238 29.5431 33.6638 29.6381 33.3338 29.8281C33.0038 30.0181 32.7338 30.2981 32.5238 30.6681C32.3238 31.0281 32.2238 31.4581 32.2238 31.9581C32.2238 32.4581 32.3238 32.8981 32.5238 33.2781C32.7338 33.6481 33.0038 33.9331 33.3338 34.1331C33.6738 34.3331 34.0338 34.4331 34.4138 34.4331C34.8038 34.4331 35.1688 34.3381 35.5088 34.1481C35.8488 33.9481 36.1188 33.6681 36.3188 33.3081C36.5188 32.9381 36.6188 32.4981 36.6188 31.9881ZM42.8848 29.1231C43.1548 28.6831 43.5048 28.3381 43.9348 28.0881C44.3748 27.8381 44.8748 27.7131 45.4348 27.7131V29.9181H44.8798C44.2198 29.9181 43.7198 30.0731 43.3798 30.3831C43.0498 30.6931 42.8848 31.2331 42.8848 32.0031V36.1431H40.7848V27.8331H42.8848V29.1231ZM51.4542 27.7131C52.4442 27.7131 53.2442 28.0281 53.8542 28.6581C54.4642 29.2781 54.7692 30.1481 54.7692 31.2681V36.1431H52.6692V31.5531C52.6692 30.8931 52.5042 30.3881 52.1742 30.0381C51.8442 29.6781 51.3942 29.4981 50.8242 29.4981C50.2442 29.4981 49.7842 29.6781 49.4442 30.0381C49.1142 30.3881 48.9492 30.8931 48.9492 31.5531V36.1431H46.8492V27.8331H48.9492V28.8681C49.2292 28.5081 49.5842 28.2281 50.0142 28.0281C50.4542 27.8181 50.9342 27.7131 51.4542 27.7131ZM64.4912 31.8081C64.4912 32.1081 64.4712 32.3781 64.4312 32.6181H58.3562C58.4062 33.2181 58.6162 33.6881 58.9862 34.0281C59.3562 34.3681 59.8112 34.5381 60.3512 34.5381C61.1312 34.5381 61.6862 34.2031 62.0162 33.5331H64.2812C64.0412 34.3331 63.5812 34.9931 62.9012 35.5131C62.2212 36.0231 61.3862 36.2781 60.3962 36.2781C59.5962 36.2781 58.8762 36.1031 58.2362 35.7531C57.6062 35.3931 57.1112 34.8881 56.7512 34.2381C56.4012 33.5881 56.2262 32.8381 56.2262 31.9881C56.2262 31.1281 56.4012 30.3731 56.7512 29.7231C57.1012 29.0731 57.5912 28.5731 58.2212 28.2231C58.8512 27.8731 59.5762 27.6981 60.3962 27.6981C61.1862 27.6981 61.8912 27.8681 62.5112 28.2081C63.1412 28.5481 63.6262 29.0331 63.9662 29.6631C64.3162 30.2831 64.4912 30.9981 64.4912 31.8081ZM62.3162 31.2081C62.3062 30.6681 62.1112 30.2381 61.7312 29.9181C61.3512 29.5881 60.8862 29.4231 60.3362 29.4231C59.8162 29.4231 59.3762 29.5831 59.0162 29.9031C58.6662 30.2131 58.4512 30.6481 58.3712 31.2081H62.3162ZM65.484 31.9581C65.484 31.1181 65.649 30.3731 65.979 29.7231C66.319 29.0731 66.779 28.5731 67.359 28.2231C67.939 27.8731 68.584 27.6981 69.294 27.6981C69.834 27.6981 70.349 27.8181 70.839 28.0581C71.329 28.2881 71.719 28.5981 72.009 28.9881V25.0431H74.139V36.1431H72.009V34.9131C71.749 35.3231 71.384 35.6531 70.914 35.9031C70.444 36.1531 69.899 36.2781 69.279 36.2781C68.579 36.2781 67.939 36.0981 67.359 35.7381C66.779 35.3781 66.319 34.8731 65.979 34.2231C65.649 33.5631 65.484 32.8081 65.484 31.9581ZM72.024 31.9881C72.024 31.4781 71.924 31.0431 71.724 30.6831C71.524 30.3131 71.254 30.0331 70.914 29.8431C70.574 29.6431 70.209 29.5431 69.819 29.5431C69.429 29.5431 69.069 29.6381 68.739 29.8281C68.409 30.0181 68.139 30.2981 67.929 30.6681C67.729 31.0281 67.629 31.4581 67.629 31.9581C67.629 32.4581 67.729 32.8981 67.929 33.2781C68.139 33.6481 68.409 33.9331 68.739 34.1331C69.079 34.3331 69.439 34.4331 69.819 34.4331C70.209 34.4331 70.574 34.3381 70.914 34.1481C71.254 33.9481 71.524 33.6681 71.724 33.3081C71.924 32.9381 72.024 32.4981 72.024 31.9881ZM79.2243 31.9581C79.2243 31.1181 79.3893 30.3731 79.7193 29.7231C80.0593 29.0731 80.5143 28.5731 81.0843 28.2231C81.6643 27.8731 82.3093 27.6981 83.0193 27.6981C83.6393 27.6981 84.1793 27.8231 84.6393 28.0731C85.1093 28.3231 85.4843 28.6381 85.7643 29.0181V27.8331H87.8793V36.1431H85.7643V34.9281C85.4943 35.3181 85.1193 35.6431 84.6393 35.9031C84.1693 36.1531 83.6243 36.2781 83.0043 36.2781C82.3043 36.2781 81.6643 36.0981 81.0843 35.7381C80.5143 35.3781 80.0593 34.8731 79.7193 34.2231C79.3893 33.5631 79.2243 32.8081 79.2243 31.9581ZM85.7643 31.9881C85.7643 31.4781 85.6643 31.0431 85.4643 30.6831C85.2643 30.3131 84.9943 30.0331 84.6543 29.8431C84.3143 29.6431 83.9493 29.5431 83.5593 29.5431C83.1693 29.5431 82.8093 29.6381 82.4793 29.8281C82.1493 30.0181 81.8793 30.2981 81.6693 30.6681C81.4693 31.0281 81.3693 31.4581 81.3693 31.9581C81.3693 32.4581 81.4693 32.8981 81.6693 33.2781C81.8793 33.6481 82.1493 33.9331 82.4793 34.1331C82.8193 34.3331 83.1793 34.4331 83.5593 34.4331C83.9493 34.4331 84.3143 34.3381 84.6543 34.1481C84.9943 33.9481 85.2643 33.6681 85.4643 33.3081C85.6643 32.9381 85.7643 32.4981 85.7643 31.9881ZM39.2425 45.9131C39.2425 46.4731 39.1075 46.9981 38.8375 47.4881C38.5775 47.9781 38.1625 48.3731 37.5925 48.6731C37.0325 48.9731 36.3225 49.1231 35.4625 49.1231H33.7075V53.1431H31.6075V42.6731H35.4625C36.2725 42.6731 36.9625 42.8131 37.5325 43.0931C38.1025 43.3731 38.5275 43.7581 38.8075 44.2481C39.0975 44.7381 39.2425 45.2931 39.2425 45.9131ZM35.3725 47.4281C35.9525 47.4281 36.3825 47.2981 36.6625 47.0381C36.9425 46.7681 37.0825 46.3931 37.0825 45.9131C37.0825 44.8931 36.5125 44.3831 35.3725 44.3831H33.7075V47.4281H35.3725ZM40.1935 48.9581C40.1935 48.1181 40.3585 47.3731 40.6885 46.7231C41.0285 46.0731 41.4835 45.5731 42.0535 45.2231C42.6335 44.8731 43.2785 44.6981 43.9885 44.6981C44.6085 44.6981 45.1485 44.8231 45.6085 45.0731C46.0785 45.3231 46.4535 45.6381 46.7335 46.0181V44.8331H48.8485V53.1431H46.7335V51.9281C46.4635 52.3181 46.0885 52.6431 45.6085 52.9031C45.1385 53.1531 44.5935 53.2781 43.9735 53.2781C43.2735 53.2781 42.6335 53.0981 42.0535 52.7381C41.4835 52.3781 41.0285 51.8731 40.6885 51.2231C40.3585 50.5631 40.1935 49.8081 40.1935 48.9581ZM46.7335 48.9881C46.7335 48.4781 46.6335 48.0431 46.4335 47.6831C46.2335 47.3131 45.9635 47.0331 45.6235 46.8431C45.2835 46.6431 44.9185 46.5431 44.5285 46.5431C44.1385 46.5431 43.7785 46.6381 43.4485 46.8281C43.1185 47.0181 42.8485 47.2981 42.6385 47.6681C42.4385 48.0281 42.3385 48.4581 42.3385 48.9581C42.3385 49.4581 42.4385 49.8981 42.6385 50.2781C42.8485 50.6481 43.1185 50.9331 43.4485 51.1331C43.7885 51.3331 44.1485 51.4331 44.5285 51.4331C44.9185 51.4331 45.2835 51.3381 45.6235 51.1481C45.9635 50.9481 46.2335 50.6681 46.4335 50.3081C46.6335 49.9381 46.7335 49.4981 46.7335 48.9881ZM53.3445 46.5581V50.5781C53.3445 50.8581 53.4095 51.0631 53.5395 51.1931C53.6795 51.3131 53.9095 51.3731 54.2295 51.3731H55.2045V53.1431H53.8845C52.1145 53.1431 51.2295 52.2831 51.2295 50.5631V46.5581H50.2395V44.8331H51.2295V42.7781H53.3445V44.8331H55.2045V46.5581H53.3445ZM56.175 48.9881C56.175 48.1281 56.35 47.3781 56.7 46.7381C57.05 46.0881 57.535 45.5881 58.155 45.2381C58.775 44.8781 59.485 44.6981 60.285 44.6981C61.315 44.6981 62.165 44.9581 62.835 45.4781C63.515 45.9881 63.97 46.7081 64.2 47.6381H61.935C61.815 47.2781 61.61 46.9981 61.32 46.7981C61.04 46.5881 60.69 46.4831 60.27 46.4831C59.67 46.4831 59.195 46.7031 58.845 47.1431C58.495 47.5731 58.32 48.1881 58.32 48.9881C58.32 49.7781 58.495 50.3931 58.845 50.8331C59.195 51.2631 59.67 51.4781 60.27 51.4781C61.12 51.4781 61.675 51.0981 61.935 50.3381H64.2C63.97 51.2381 63.515 51.9531 62.835 52.4831C62.155 53.0131 61.305 53.2781 60.285 53.2781C59.485 53.2781 58.775 53.1031 58.155 52.7531C57.535 52.3931 57.05 51.8931 56.7 51.2531C56.35 50.6031 56.175 49.8481 56.175 48.9881ZM70.4184 44.7131C71.0484 44.7131 71.6084 44.8531 72.0984 45.1331C72.5884 45.4031 72.9684 45.8081 73.2384 46.3481C73.5184 46.8781 73.6584 47.5181 73.6584 48.2681V53.1431H71.5584V48.5531C71.5584 47.8931 71.3934 47.3881 71.0634 47.0381C70.7334 46.6781 70.2834 46.4981 69.7134 46.4981C69.1334 46.4981 68.6734 46.6781 68.3334 47.0381C68.0034 47.3881 67.8384 47.8931 67.8384 48.5531V53.1431H65.7384V42.0431H67.8384V45.8681C68.1084 45.5081 68.4684 45.2281 68.9184 45.0281C69.3684 44.8181 69.8684 44.7131 70.4184 44.7131ZM78.3704 42.4931L78.1304 49.7381H76.3604L76.1054 42.4931H78.3704ZM77.2904 53.2481C76.9104 53.2481 76.5954 53.1331 76.3454 52.9031C76.1054 52.6631 75.9854 52.3681 75.9854 52.0181C75.9854 51.6681 76.1054 51.3781 76.3454 51.1481C76.5954 50.9081 76.9104 50.7881 77.2904 50.7881C77.6604 50.7881 77.9654 50.9081 78.2054 51.1481C78.4454 51.3781 78.5654 51.6681 78.5654 52.0181C78.5654 52.3681 78.4454 52.6631 78.2054 52.9031C77.9654 53.1331 77.6604 53.2481 77.2904 53.2481Z" fill="white"/>
<path d="M63.9978 73H50.8728V68.5C50.8728 66.019 52.8357 64 55.2478 64C57.6599 64 59.6228 66.019 59.6228 68.5H62.5395C62.5395 64.3645 59.2685 61 55.2478 61C51.2272 61 47.9562 64.3645 47.9562 68.5V73H46.4978C45.7243 73 44.9824 73.3161 44.4354 73.8787C43.8885 74.4413 43.5812 75.2044 43.5812 76V88C43.5812 88.7956 43.8885 89.5587 44.4354 90.1213C44.9824 90.6839 45.7243 91 46.4978 91H63.9978C64.7714 91 65.5132 90.6839 66.0602 90.1213C66.6072 89.5587 66.9145 88.7956 66.9145 88V76C66.9145 75.2044 66.6072 74.4413 66.0602 73.8787C65.5132 73.3161 64.7714 73 63.9978 73ZM52.4201 81.2485C52.5994 80.5426 53.0223 79.9281 53.6099 79.5195C54.1976 79.111 54.9097 78.9364 55.6133 79.0285C56.3169 79.1205 56.9639 79.4729 57.4333 80.0197C57.9028 80.5665 58.1627 81.2705 58.1645 82C58.1637 82.5246 58.0284 83.0397 57.7724 83.4935C57.5164 83.9472 57.1486 84.3235 56.7062 84.5845V88H53.7895V84.5845C53.2377 84.2593 52.8049 83.7568 52.5575 83.1542C52.3102 82.5515 52.2619 81.8821 52.4201 81.2485V81.2485Z" fill="white"/>
<defs>
<linearGradient id="paint0_linear_302_5616" x1="55.2478" y1="0.337402" x2="55.2478" y2="109.143" gradientUnits="userSpaceOnUse">
<stop stop-color="#239FFE"/>
<stop offset="1" stop-color="#8026CB"/>
</linearGradient>
</defs>
</svg>
