<svg width="14" height="14" viewBox="0 0 14 14" fill="none" xmlns="http://www.w3.org/2000/svg">
<path fill-rule="evenodd" clip-rule="evenodd" d="M6.99992 0.583496C3.45617 0.583496 0.583252 3.45641 0.583252 7.00016C0.583252 10.5439 3.45617 13.4168 6.99992 13.4168C10.5437 13.4168 13.4166 10.5439 13.4166 7.00016C13.4166 3.45641 10.5437 0.583496 6.99992 0.583496ZM9.78125 5.91516C9.83247 5.85662 9.87146 5.78843 9.89593 5.71459C9.9204 5.64076 9.92986 5.56278 9.92374 5.48524C9.91763 5.40769 9.89607 5.33216 9.86034 5.26307C9.8246 5.19398 9.77541 5.13274 9.71565 5.08295C9.6559 5.03315 9.58679 4.99581 9.51239 4.97312C9.43799 4.95042 9.35981 4.94284 9.28243 4.95081C9.20506 4.95878 9.13006 4.98215 9.06185 5.01953C8.99364 5.05692 8.9336 5.10756 8.88525 5.1685L6.37692 8.17791L5.079 6.87941C4.96898 6.77315 4.82163 6.71436 4.66868 6.71569C4.51574 6.71702 4.36943 6.77836 4.26127 6.88652C4.15312 6.99467 4.09177 7.14098 4.09044 7.29393C4.08911 7.44688 4.14791 7.59423 4.25417 7.70425L6.00417 9.45425C6.06148 9.51153 6.13011 9.55624 6.20566 9.58553C6.28121 9.61482 6.36204 9.62805 6.44299 9.62437C6.52394 9.6207 6.60324 9.60019 6.67583 9.56417C6.74841 9.52815 6.8127 9.4774 6.86458 9.41516L9.78125 5.91516Z" fill="#68C453"/>
</svg>
