<svg xmlns="http://www.w3.org/2000/svg" width="59.333" height="61.916" viewBox="0 0 59.333 61.916"><g transform="translate(59.333 61.916) rotate(180)"><path d="M2.119,40.565H6.357A2.127,2.127,0,0,0,8.476,38.43V2.135A2.127,2.127,0,0,0,6.357,0H2.119A2.127,2.127,0,0,0,0,2.135v36.3A2.127,2.127,0,0,0,2.119,40.565Z" transform="translate(0)" fill="#e15050"/><path d="M2.119,38.43V2.135A2.127,2.127,0,0,1,4.238,0H2.119A2.127,2.127,0,0,0,0,2.135v36.3a2.127,2.127,0,0,0,2.119,2.135H4.238A2.127,2.127,0,0,1,2.119,38.43Z" fill="#d24146"/><g transform="translate(2.649 3.736)"><ellipse cx="1.589" cy="1.601" rx="1.589" ry="1.601" fill="#ffd796"/><ellipse cx="1.589" cy="1.601" rx="1.589" ry="1.601" transform="translate(0 29.89)" fill="#ffd796"/></g><path d="M2.119,37.363H6.357a2.127,2.127,0,0,0,2.119-2.135V2.135A2.127,2.127,0,0,0,6.357,0H2.119A2.127,2.127,0,0,0,0,2.135V35.228A2.127,2.127,0,0,0,2.119,37.363Z" transform="translate(8.476)" fill="#ffaf4b"/><path d="M2.119,35.228V2.135A2.127,2.127,0,0,1,4.238,0H2.119A2.127,2.127,0,0,0,0,2.135V35.228a2.127,2.127,0,0,0,2.119,2.135H4.238A2.127,2.127,0,0,1,2.119,35.228Z" transform="translate(8.476)" fill="#ff9b3c"/><g transform="translate(11.125 3.736)"><ellipse cx="1.589" cy="1.601" rx="1.589" ry="1.601" fill="#ffd796"/><ellipse cx="1.589" cy="1.601" rx="1.589" ry="1.601" transform="translate(0 26.688)" fill="#ffd796"/></g><path d="M2.119,34.16H6.357a2.127,2.127,0,0,0,2.119-2.135V2.135A2.127,2.127,0,0,0,6.357,0H2.119A2.127,2.127,0,0,0,0,2.135v29.89A2.127,2.127,0,0,0,2.119,34.16Z" transform="translate(16.952)" fill="#ffd558"/><path d="M2.119,32.025V2.135A2.127,2.127,0,0,1,4.238,0H2.119A2.127,2.127,0,0,0,0,2.135v29.89A2.127,2.127,0,0,0,2.119,34.16H4.238A2.127,2.127,0,0,1,2.119,32.025Z" transform="translate(16.952)" fill="#ffc34b"/><g transform="translate(19.601 3.736)"><ellipse cx="1.589" cy="1.601" rx="1.589" ry="1.601" fill="#ffd796"/><ellipse cx="1.589" cy="1.601" rx="1.589" ry="1.601" transform="translate(0 23.485)" fill="#ffd796"/></g><path d="M2.119,30.958H6.357a2.127,2.127,0,0,0,2.119-2.135V2.135A2.127,2.127,0,0,0,6.357,0H2.119A2.127,2.127,0,0,0,0,2.135V28.823A2.127,2.127,0,0,0,2.119,30.958Z" transform="translate(25.428)" fill="#a0eb64"/><path d="M2.119,28.823V2.135A2.127,2.127,0,0,1,4.238,0H2.119A2.127,2.127,0,0,0,0,2.135V28.823a2.127,2.127,0,0,0,2.119,2.135H4.238A2.127,2.127,0,0,1,2.119,28.823Z" transform="translate(25.428)" fill="#87d25a"/><g transform="translate(28.077 3.736)"><ellipse cx="1.589" cy="1.601" rx="1.589" ry="1.601" fill="#ffd796"/><ellipse cx="1.589" cy="1.601" rx="1.589" ry="1.601" transform="translate(0 20.283)" fill="#ffd796"/></g><path d="M2.119,27.755H6.357A2.127,2.127,0,0,0,8.476,25.62V2.135A2.127,2.127,0,0,0,6.357,0H2.119A2.127,2.127,0,0,0,0,2.135V25.62A2.127,2.127,0,0,0,2.119,27.755Z" transform="translate(33.904)" fill="#00d2b9"/><path d="M2.119,25.62V2.135A2.127,2.127,0,0,1,4.238,0H2.119A2.127,2.127,0,0,0,0,2.135V25.62a2.127,2.127,0,0,0,2.119,2.135H4.238A2.127,2.127,0,0,1,2.119,25.62Z" transform="translate(33.904)" fill="#00bea9"/><g transform="translate(36.553 3.736)"><ellipse cx="1.589" cy="1.601" rx="1.589" ry="1.601" fill="#ffd796"/><ellipse cx="1.589" cy="1.601" rx="1.589" ry="1.601" transform="translate(0 17.08)" fill="#ffd796"/></g><path d="M2.119,24.553H6.357a2.127,2.127,0,0,0,2.119-2.135V2.135A2.127,2.127,0,0,0,6.357,0H2.119A2.127,2.127,0,0,0,0,2.135V22.418A2.127,2.127,0,0,0,2.119,24.553Z" transform="translate(42.381)" fill="#8cd2ff"/><path d="M2.119,22.418V2.135A2.127,2.127,0,0,1,4.238,0H2.119A2.127,2.127,0,0,0,0,2.135V22.418a2.127,2.127,0,0,0,2.119,2.135H4.238A2.127,2.127,0,0,1,2.119,22.418Z" transform="translate(42.38)" fill="#69beff"/><g transform="translate(45.029 3.736)"><ellipse cx="1.589" cy="1.601" rx="1.589" ry="1.601" fill="#ffd796"/><ellipse cx="1.589" cy="1.601" rx="1.589" ry="1.601" transform="translate(0 13.878)" fill="#ffd796"/></g><path d="M2.119,21.35H6.357a2.127,2.127,0,0,0,2.119-2.135V2.135A2.127,2.127,0,0,0,6.357,0H2.119A2.127,2.127,0,0,0,0,2.135v17.08A2.127,2.127,0,0,0,2.119,21.35Z" transform="translate(50.856)" fill="#d28ce6"/><path d="M2.119,19.215V2.135A2.127,2.127,0,0,1,4.238,0H2.119A2.127,2.127,0,0,0,0,2.135v17.08A2.127,2.127,0,0,0,2.119,21.35H4.238A2.127,2.127,0,0,1,2.119,19.215Z" transform="translate(50.856)" fill="#be73d2"/><g transform="translate(53.505 3.736)"><ellipse cx="1.589" cy="1.601" rx="1.589" ry="1.601" fill="#ffd796"/><ellipse cx="1.589" cy="1.601" rx="1.589" ry="1.601" transform="translate(0 10.675)" fill="#ffd796"/></g><path d="M1.061,43.768A1.05,1.05,0,0,1,.8,43.736a1.068,1.068,0,0,1-.771-1.294L10.362.809a1.06,1.06,0,1,1,2.056.518L2.088,42.959A1.061,1.061,0,0,1,1.061,43.768Z" transform="translate(13.773 18.148)" fill="#ffc855"/><ellipse cx="3.179" cy="3.203" rx="3.179" ry="3.203" transform="translate(22.25 14.945)" fill="#734b46"/><path d="M2.119,0a3.192,3.192,0,0,0,0,6.013A3.192,3.192,0,0,0,2.119,0Z" transform="translate(24.369 15.141)" fill="#8c5f56"/><path d="M11.389,43.768a1.05,1.05,0,0,0,.258-.032,1.068,1.068,0,0,0,.771-1.294L2.088.809a1.06,1.06,0,1,0-2.056.518l10.33,41.633A1.061,1.061,0,0,0,11.389,43.768Z" transform="translate(37.347 18.148)" fill="#ffc855"/><ellipse cx="3.179" cy="3.203" rx="3.179" ry="3.203" transform="translate(34.964 14.945)" fill="#734b46"/><path d="M2.119,6.013A3.192,3.192,0,0,1,2.119,0a3.192,3.192,0,0,1,0,6.013Z" transform="translate(37.083 15.141)" fill="#8c5f56"/></g></svg>