<svg xmlns="http://www.w3.org/2000/svg" xmlns:xlink="http://www.w3.org/1999/xlink" width="62" height="62" viewBox="0 0 62 62"><defs><filter id="a" x="0" y="0" width="62" height="62" filterUnits="userSpaceOnUse"><feOffset input="SourceAlpha"/><feGaussianBlur stdDeviation="3" result="b"/><feFlood flood-opacity="0.184"/><feComposite operator="in" in2="b"/><feComposite in="SourceGraphic"/></filter></defs><g transform="translate(8.688 9)"><g transform="matrix(1, 0, 0, 1, -8.69, -9)" filter="url(#a)"><circle cx="22" cy="22" r="22" transform="translate(9 9)" fill="#fff"/></g><g transform="translate(4 4)"><circle cx="18" cy="18" r="18" transform="translate(0.313)" fill="#f89838"/><path d="M32.929,53H46.165a3.019,3.019,0,0,1,3.019,3.019v9.52a.929.929,0,0,1-.929.929H35.019A3.019,3.019,0,0,1,32,63.449v-9.52A.929.929,0,0,1,32.929,53Z" transform="translate(-26.644 -41.913)" fill="#fff" fill-rule="evenodd"/><path d="M112.206,58.248l5.109-3.423a.464.464,0,0,1,.723.386V67.349a.464.464,0,0,1-.742.373l-5.108-3.8a.464.464,0,0,1-.187-.373V58.634A.464.464,0,0,1,112.206,58.248Z" transform="translate(-88.068 -43.255)" fill="#fff" fill-rule="evenodd"/></g></g></svg>