<svg width="31" height="31" viewBox="0 0 31 31" fill="none" xmlns="http://www.w3.org/2000/svg">
<g clip-path="url(#clip0)">
<circle cx="15.4923" cy="15.6004" r="14.6153" fill="#68C453"/>
<g clip-path="url(#clip1)">
<path d="M19.3145 15.776L27.3068 20.8286V10.51L19.3145 15.776Z" fill="white"/>
<path d="M3.59961 10.51V20.8286L11.592 15.776L3.59961 10.51Z" fill="white"/>
<g clip-path="url(#clip2)">
<g clip-path="url(#clip3)">
<path d="M25.8248 7.505H5.08081C4.34144 7.505 3.75468 8.0562 3.64355 8.76593L15.4528 16.5464L27.262 8.76593C27.1509 8.0562 26.5641 7.505 25.8248 7.505Z" fill="white"/>
</g>
</g>
<g clip-path="url(#clip4)">
<g clip-path="url(#clip5)">
<path d="M17.9568 16.6705L15.8602 18.0514C15.7358 18.1329 15.595 18.1729 15.4528 18.1729C15.3105 18.1729 15.1697 18.1329 15.0453 18.0514L12.9487 16.669L3.64648 22.5529C3.76057 23.2567 4.34437 23.8034 5.08078 23.8034H25.8247C26.5611 23.8034 27.1449 23.2567 27.259 22.5529L17.9568 16.6705Z" fill="white"/>
</g>
</g>
</g>
</g>
<defs>
<clipPath id="clip0">
<rect width="29.2307" height="29.2307" fill="white" transform="translate(0.876953 0.985008)"/>
</clipPath>
<clipPath id="clip1">
<rect width="23.7074" height="16.2984" fill="white" transform="translate(3.59961 7.505)"/>
</clipPath>
<clipPath id="clip2">
<rect width="23.6185" height="9.04139" fill="white" transform="translate(3.64355 7.505)"/>
</clipPath>
<clipPath id="clip3">
<rect width="23.6185" height="9.04139" fill="white" transform="translate(3.64355 7.505)"/>
</clipPath>
<clipPath id="clip4">
<rect width="23.6126" height="7.13443" fill="white" transform="translate(3.64648 16.669)"/>
</clipPath>
<clipPath id="clip5">
<rect width="23.6126" height="7.13443" fill="white" transform="translate(3.64648 16.669)"/>
</clipPath>
</defs>
</svg>
