<svg xmlns="http://www.w3.org/2000/svg" width="32.442" height="22.304" viewBox="0 0 32.442 22.304">
    <defs>
        <style>
            .prefix__cls-1{fill:#fff}
        </style>
    </defs>
    <g id="prefix__email-2" transform="translate(0 -80)">
        <g id="prefix__Grupo_197" data-name="Grupo 197" transform="translate(21.505 84.112)">
            <g id="prefix__Grupo_196" data-name="Grupo 196">
                <path id="prefix__Trazado_868" d="M339.392 152.1l10.937 6.914V144.9z" class="prefix__cls-1" data-name="Trazado 868" transform="translate(-339.392 -144.896)"/>
            </g>
        </g>
        <g id="prefix__Grupo_199" data-name="Grupo 199" transform="translate(0 84.112)">
            <g id="prefix__Grupo_198" data-name="Grupo 198">
                <path id="prefix__Trazado_869" d="M0 144.9v14.12l10.937-6.92z" class="prefix__cls-1" data-name="Trazado 869" transform="translate(0 -144.896)"/>
            </g>
        </g>
        <g id="prefix__Grupo_201" data-name="Grupo 201" transform="translate(.061 80)">
            <g id="prefix__Grupo_200" data-name="Grupo 200">
                <path id="prefix__Trazado_870" d="M31.313 80H2.927A2 2 0 0 0 .96 81.725l16.16 10.647 16.16-10.647A2 2 0 0 0 31.313 80z" class="prefix__cls-1" data-name="Trazado 870" transform="translate(-.96 -80)"/>
            </g>
        </g>
        <g id="prefix__Grupo_203" data-name="Grupo 203" transform="translate(.065 92.541)">
            <g id="prefix__Grupo_202" data-name="Grupo 202">
                <path id="prefix__Trazado_871" d="M20.607 277.922l-2.869 1.89a1.018 1.018 0 0 1-1.115 0l-2.869-1.892-12.73 8.052a2 2 0 0 0 1.963 1.711h28.386a2 2 0 0 0 1.963-1.711z" class="prefix__cls-1" data-name="Trazado 871" transform="translate(-1.024 -277.92)"/>
            </g>
        </g>
    </g>
</svg>
