<svg xmlns="http://www.w3.org/2000/svg" width="25" height="25" viewBox="0 0 40 40">
  <g id="Grupo_212" data-name="Grupo 212" transform="translate(-68 -574)">
    <circle id="Elipse_44" data-name="Elipse 44" cx="20" cy="20" r="20" transform="translate(68 574)" fill="#78c383"/>
    <g id="email-2" transform="translate(71.726 582.922)">
      <g id="Grupo_197" data-name="Grupo 197" transform="translate(21.505 4.112)">
        <g id="Grupo_196" data-name="Grupo 196">
          <path id="Trazado_868" data-name="Trazado 868" d="M339.392,152.1l10.937,6.914V144.9Z" transform="translate(-339.392 -144.896)" fill="#fff"/>
        </g>
      </g>
      <g id="Grupo_199" data-name="Grupo 199" transform="translate(0 4.112)">
        <g id="Grupo_198" data-name="Grupo 198">
          <path id="Trazado_869" data-name="Trazado 869" d="M0,144.9v14.12L10.937,152.1Z" transform="translate(0 -144.896)" fill="#fff"/>
        </g>
      </g>
      <g id="Grupo_201" data-name="Grupo 201" transform="translate(0.061)">
        <g id="Grupo_200" data-name="Grupo 200">
          <path id="Trazado_870" data-name="Trazado 870" d="M31.313,80H2.927A2,2,0,0,0,.96,81.725L17.12,92.372,33.28,81.725A2,2,0,0,0,31.313,80Z" transform="translate(-0.96 -80)" fill="#fff"/>
        </g>
      </g>
      <g id="Grupo_203" data-name="Grupo 203" transform="translate(0.065 12.541)">
        <g id="Grupo_202" data-name="Grupo 202">
          <path id="Trazado_871" data-name="Trazado 871" d="M20.607,277.922l-2.869,1.89a1.018,1.018,0,0,1-1.115,0l-2.869-1.892L1.024,285.972a2,2,0,0,0,1.963,1.711H31.373a2,2,0,0,0,1.963-1.711Z" transform="translate(-1.024 -277.92)" fill="#fff"/>
        </g>
      </g>
    </g>
  </g>
</svg>
