<svg width="30" height="31" viewBox="0 0 30 31" fill="none" xmlns="http://www.w3.org/2000/svg">
<g clip-path="url(#clip0)">
<path fill-rule="evenodd" clip-rule="evenodd" d="M14.6153 0.945007C6.54349 0.945007 0 7.4885 0 15.5604C0 23.6322 6.54349 30.1757 14.6153 30.1757C22.6872 30.1757 29.2307 23.6322 29.2307 15.5604C29.2307 7.4885 22.6872 0.945007 14.6153 0.945007ZM20.1912 8.388L18.1697 8.3889C16.5845 8.3889 16.278 9.14217 16.278 10.2474V12.6845H20.0581L20.0563 16.5017H16.2783V26.2975H12.3355V16.5017H9.03953V12.6845H12.3355V9.86942C12.3355 6.60246 14.3316 4.8232 17.2457 4.8232L20.1915 4.82769V8.388H20.1912Z" fill="#68C453"/>
</g>
<defs>
<clipPath id="clip0">
<rect width="29.2307" height="29.2307" fill="white" transform="translate(0 0.945007)"/>
</clipPath>
</defs>
</svg>
