<svg width="30" height="30" viewBox="0 0 30 30" fill="none" xmlns="http://www.w3.org/2000/svg">
<g clip-path="url(#clip0)">
<g clip-path="url(#clip1)">
<ellipse cx="15.0952" cy="14.7438" rx="5.04047" ry="4.88436" fill="#68C453"/>
<path d="M20.9543 14.1745C20.9543 18.3494 18.3278 21.7333 15.0881 21.7333C11.8483 21.7333 9.22185 18.3494 9.22185 14.1745C9.22185 13.4263 9.30674 12.7036 9.46395 12.021H7.73047V22.6236C7.73047 23.1728 8.06794 23.6212 8.48061 23.6212H21.6229C22.0358 23.6212 22.3736 23.1728 22.3736 22.6236V12.021H20.7122C20.8691 12.7036 20.9543 13.4263 20.9543 14.1745H20.9543Z" fill="#68C453"/>
<path d="M19.6183 11.1995H22.4552C23.0768 11.1995 23.5849 10.6915 23.5849 10.0698V7.36507C23.5849 6.74307 23.0768 6.23501 22.4552 6.23501H19.6183C18.9963 6.23501 18.4883 6.74307 18.4883 7.36507V10.0698C18.4879 10.6911 18.9963 11.1995 19.6183 11.1995Z" fill="#68C453"/>
<path fill-rule="evenodd" clip-rule="evenodd" d="M15.0763 0.172005C7.00443 0.172005 0.460938 6.71549 0.460938 14.7874C0.460938 22.8592 7.00443 29.4027 15.0763 29.4027C23.1481 29.4027 29.6916 22.8592 29.6916 14.7874C29.6916 6.71549 23.1481 0.172005 15.0763 0.172005ZM23.0815 25.5574H7.07141C5.55022 25.5574 4.30653 24.4315 4.30653 22.7931V6.78218C4.30653 5.14316 5.55022 4.01759 7.07141 4.01759H23.0815C24.6023 4.01759 25.8463 5.14316 25.8463 6.78218V22.7931C25.8463 24.4315 24.602 25.5574 23.0815 25.5574Z" fill="#68C453"/>
</g>
</g>
<defs>
<clipPath id="clip0">
<rect width="29.2307" height="29.2307" fill="white" transform="translate(0.460938 0.172005)"/>
</clipPath>
<clipPath id="clip1">
<rect width="29.2307" height="29.2307" fill="white" transform="translate(0.460938 0.172005)"/>
</clipPath>
</defs>
</svg>
