<svg xmlns="http://www.w3.org/2000/svg" id="prefix__instagram-social-network-logo-of-photo-camera" width="46.611" height="46.611" viewBox="0 0 46.611 46.611">
    <defs>
        <style>
            .prefix__cls-1{fill:#c2daa5}
        </style>
    </defs>
    <g id="prefix__Grupo_55" data-name="Grupo 55">
        <ellipse id="prefix__Elipse_2" cx="6.898" cy="6.684" class="prefix__cls-1" data-name="Elipse 2" rx="6.898" ry="6.684" transform="translate(16.441 16.547)"/>
        <path id="prefix__Trazado_354" d="M44.929 46.268a10.681 10.681 0 0 1-21.352 0 10.045 10.045 0 0 1 .441-2.947h-3.155V57.83a1.369 1.369 0 0 0 1.365 1.37h23.918a1.369 1.369 0 0 0 1.366-1.365V43.321h-3.023a10.06 10.06 0 0 1 .44 2.947z" class="prefix__cls-1" data-name="Trazado 354" transform="translate(-10.915 -22.664)"/>
        <path id="prefix__Trazado_355" d="M63.635 27.657h3.882a1.55 1.55 0 0 0 1.546-1.546v-3.7a1.55 1.55 0 0 0-1.546-1.546h-3.882a1.55 1.55 0 0 0-1.546 1.546v3.7a1.55 1.55 0 0 0 1.546 1.546z" class="prefix__cls-1" data-name="Trazado 355" transform="translate(-32.482 -10.915)"/>
        <path id="prefix__Trazado_356" d="M23.306 0a23.306 23.306 0 1 0 23.305 23.306A23.306 23.306 0 0 0 23.306 0zm12.765 40.48h-25.53a4.3 4.3 0 0 1-4.409-4.408V10.541a4.3 4.3 0 0 1 4.409-4.408h25.53a4.3 4.3 0 0 1 4.409 4.408v25.531a4.3 4.3 0 0 1-4.409 4.408z" class="prefix__cls-1" data-name="Trazado 356"/>
    </g>
</svg>
