<svg id="instagram-social-network-logo-of-photo-camera" xmlns="http://www.w3.org/2000/svg" width="25" height="25" viewBox="0 0 40 40">
  <g id="Grupo_55" data-name="Grupo 55">
    <ellipse id="Elipse_2" data-name="Elipse 2" cx="6.898" cy="6.684" rx="6.898" ry="6.684" transform="translate(13.129 13.257)" fill="#78c383"/>
    <path id="Trazado_354" data-name="Trazado 354" d="M38.959,46.268c0,5.713-3.594,10.344-8.027,10.344S22.9,51.981,22.9,46.268a13.137,13.137,0,0,1,.331-2.947H20.863V57.83c0,.751.462,1.365,1.027,1.365H39.874c.565,0,1.027-.614,1.027-1.365V43.321H38.627A13.157,13.157,0,0,1,38.959,46.268Z" transform="translate(-10.915 -27.107)" fill="#78c383"/>
    <path id="Trazado_355" data-name="Trazado 355" d="M63.635,27.657h3.882a1.55,1.55,0,0,0,1.546-1.546v-3.7a1.55,1.55,0,0,0-1.546-1.546H63.635a1.55,1.55,0,0,0-1.546,1.546v3.7A1.55,1.55,0,0,0,63.635,27.657Z" transform="translate(-37.421 -12.566)" fill="#78c383"/>
    <path id="Trazado_356" data-name="Trazado 356" d="M20,0A20,20,0,1,0,40,20,20,20,0,0,0,20,0ZM30.954,34.738H9.046a3.694,3.694,0,0,1-3.784-3.783V9.046A3.693,3.693,0,0,1,9.046,5.262H30.954a3.694,3.694,0,0,1,3.784,3.783v21.91A3.694,3.694,0,0,1,30.954,34.738Z" fill="#78c383"/>
  </g>
</svg>
