<svg id="linkedin-logo" xmlns="http://www.w3.org/2000/svg" width="64.891" height="64.891" viewBox="0 0 64.891 64.891">
  <defs>
    <style>
      .cls-1 {
        fill: #68C453;
      }
    </style>
  </defs>
  <path id="Trazado_4931" data-name="Trazado 4931" class="cls-1" d="M32.446,0A32.446,32.446,0,1,0,64.891,32.446,32.446,32.446,0,0,0,32.446,0ZM20.289,54.413H11.167V25.066h9.121ZM15.73,21.054a5.288,5.288,0,1,1,5.286-5.29A5.29,5.29,0,0,1,15.73,21.054ZM54.451,54.413H45.337V40.141c0-3.4-.063-7.781-4.741-7.781-4.744,0-5.473,3.707-5.473,7.535V54.413H26.009V25.066h8.748v4.01h.123a9.583,9.583,0,0,1,8.63-4.74c9.236,0,10.941,6.078,10.941,13.98v16.1Z"/>
</svg>
