<svg width="30" height="30" viewBox="0 0 30 30" fill="none" xmlns="http://www.w3.org/2000/svg">
<g clip-path="url(#clip0)">
<path fill-rule="evenodd" clip-rule="evenodd" d="M14.9991 0.269005C6.92728 0.269005 0.383789 6.81249 0.383789 14.8844C0.383789 22.9562 6.92728 29.4997 14.9991 29.4997C23.071 29.4997 29.6145 22.9562 29.6145 14.8844C29.6145 6.81249 23.071 0.269005 14.9991 0.269005ZM23.8371 10.9867C23.844 11.1593 23.8476 11.3321 23.8476 11.5059C23.8476 17.7491 19.0968 24.2068 11.1467 24.2068C8.71641 24.2068 6.35014 23.5133 4.30385 22.2009C4.26109 22.1736 4.24344 22.1207 4.26049 22.0732C4.27754 22.0259 4.32568 21.9966 4.37502 22.0023C4.71831 22.0433 5.06938 22.0636 5.41776 22.0636C7.30856 22.0636 9.09859 21.479 10.6126 20.3699C8.79775 20.2168 7.23799 18.9886 6.677 17.2366C6.66534 17.2001 6.67371 17.1603 6.69883 17.1316C6.72425 17.1029 6.76312 17.0903 6.8002 17.0972C7.30318 17.1926 7.81453 17.1989 8.30734 17.1187C6.43568 16.5371 5.12022 14.7839 5.12022 12.7878L5.12082 12.7298C5.12172 12.6918 5.14235 12.6571 5.17524 12.6383C5.20783 12.6192 5.2485 12.6189 5.2814 12.6374C5.76943 12.9083 6.30948 13.0824 6.8636 13.1491C5.78797 12.2917 5.15641 10.9921 5.15641 9.6019C5.15641 8.79988 5.36873 8.01162 5.77063 7.32234C5.78857 7.29154 5.82027 7.2718 5.85556 7.26911C5.89115 7.26552 5.92553 7.28108 5.94796 7.30859C8.14946 10.0089 11.3877 11.6715 14.8505 11.8853C14.7928 11.5947 14.7635 11.295 14.7635 10.9927C14.7635 8.49247 16.7976 6.45872 19.2975 6.45872C20.5265 6.45872 21.7143 6.9638 22.5657 7.84655C23.5252 7.65097 24.4394 7.29811 25.2839 6.79752C25.3225 6.7745 25.3709 6.77808 25.4065 6.80589C25.4412 6.834 25.4555 6.88065 25.4418 6.92372C25.1556 7.81873 24.5976 8.5995 23.8479 9.16319C24.5539 9.04029 25.239 8.83276 25.8906 8.54358C25.9343 8.52355 25.986 8.53611 26.0174 8.5729C26.0485 8.60997 26.0512 8.6629 26.0243 8.70298C25.4307 9.59142 24.6951 10.3596 23.8372 10.9867L23.8371 10.9867Z" fill="#68C453"/>
</g>
<defs>
<clipPath id="clip0">
<rect width="29.2307" height="29.2307" fill="white" transform="translate(0.383789 0.269005)"/>
</clipPath>
</defs>
</svg>
