<svg id="twitter-social-logotype" xmlns="http://www.w3.org/2000/svg" width="25" height="25" viewBox="0 0 40 40">
  <path id="Trazado_357" data-name="Trazado 357" d="M20,0A20,20,0,1,0,40,20,20,20,0,0,0,20,0ZM32.094,14.666q.014.354.014.71a17.212,17.212,0,0,1-17.38,17.38,17.312,17.312,0,0,1-9.364-2.745.148.148,0,0,1-.059-.175.149.149,0,0,1,.157-.1,12.091,12.091,0,0,0,1.427.084A11.927,11.927,0,0,0,14,27.506a6.2,6.2,0,0,1-5.386-4.288.148.148,0,0,1,.169-.191,5.954,5.954,0,0,0,2.062.029,6.224,6.224,0,0,1-4.361-5.927v-.079a.148.148,0,0,1,.074-.125.146.146,0,0,1,.145,0,5.931,5.931,0,0,0,2.165.7,6.21,6.21,0,0,1-1.5-7.973.147.147,0,0,1,.116-.073.145.145,0,0,1,.126.054A17.109,17.109,0,0,0,19.8,15.9a6.279,6.279,0,0,1-.119-1.221,6.208,6.208,0,0,1,10.677-4.305,11.961,11.961,0,0,0,3.72-1.435.148.148,0,0,1,.216.173,6.2,6.2,0,0,1-2.181,3.065,11.928,11.928,0,0,0,2.8-.848.148.148,0,0,1,.183.218A12.366,12.366,0,0,1,32.094,14.666Z" fill="#78c383"/>
</svg>
