<svg xmlns="http://www.w3.org/2000/svg" id="prefix__twitter-social-logotype" width="46.611" height="46.611" viewBox="0 0 46.611 46.611">
    <path id="prefix__Trazado_357" fill="#c2daa5" d="M23.306 0a23.306 23.306 0 1 0 23.305 23.306A23.306 23.306 0 0 0 23.306 0zM37.4 17.09q.016.413.017.828c0 9.955-7.576 20.253-20.253 20.253a20.173 20.173 0 0 1-10.912-3.2.172.172 0 0 1-.069-.2.174.174 0 0 1 .183-.113 14.09 14.09 0 0 0 1.663.1 13.9 13.9 0 0 0 8.284-2.7 7.228 7.228 0 0 1-6.276-5 .172.172 0 0 1 .2-.222 6.938 6.938 0 0 0 2.4.034 7.253 7.253 0 0 1-5.082-6.906v-.094a.173.173 0 0 1 .087-.146.17.17 0 0 1 .169 0 6.911 6.911 0 0 0 2.523.816 7.237 7.237 0 0 1-1.744-9.293.172.172 0 0 1 .135-.085.169.169 0 0 1 .147.063 19.937 19.937 0 0 0 14.2 7.3 7.317 7.317 0 0 1-.142-1.425 7.234 7.234 0 0 1 12.441-5.017 13.938 13.938 0 0 0 4.334-1.673.172.172 0 0 1 .252.2 7.219 7.219 0 0 1-2.542 3.571 13.9 13.9 0 0 0 3.257-.988.173.173 0 0 1 .213.254A14.41 14.41 0 0 1 37.4 17.09z" data-name="Trazado 357"/>
</svg>
