<svg width="340" height="340" viewBox="0 0 340 340" fill="none" xmlns="http://www.w3.org/2000/svg">
<g filter="url(#filter0_dd_1059_41)">
<circle cx="169.635" cy="170.203" r="129.5" fill="#9ACED4"/>
</g>
<path d="M114.108 162.745C114.108 164.046 113.809 165.241 113.212 166.329C112.614 167.395 111.697 168.259 110.46 168.921C109.222 169.582 107.686 169.913 105.852 169.913H102.46V177.977H96.9877V155.513H105.852C107.644 155.513 109.158 155.822 110.396 156.441C111.633 157.059 112.561 157.913 113.18 159.001C113.798 160.089 114.108 161.337 114.108 162.745ZM105.436 165.561C106.481 165.561 107.26 165.315 107.772 164.825C108.284 164.334 108.54 163.641 108.54 162.745C108.54 161.849 108.284 161.155 107.772 160.665C107.26 160.174 106.481 159.929 105.436 159.929H102.46V165.561H105.436ZM122.428 154.297V177.977H116.956V154.297H122.428ZM125.306 169.017C125.306 167.182 125.647 165.571 126.33 164.185C127.034 162.798 127.983 161.731 129.178 160.985C130.373 160.238 131.706 159.865 133.178 159.865C134.437 159.865 135.535 160.121 136.474 160.633C137.434 161.145 138.17 161.817 138.682 162.649V160.121H144.154V177.977H138.682V175.449C138.149 176.281 137.402 176.953 136.442 177.465C135.503 177.977 134.405 178.233 133.146 178.233C131.695 178.233 130.373 177.859 129.178 177.113C127.983 176.345 127.034 175.267 126.33 173.881C125.647 172.473 125.306 170.851 125.306 169.017ZM138.682 169.049C138.682 167.683 138.298 166.606 137.53 165.817C136.783 165.027 135.866 164.633 134.778 164.633C133.69 164.633 132.762 165.027 131.994 165.817C131.247 166.585 130.874 167.651 130.874 169.017C130.874 170.382 131.247 171.47 131.994 172.281C132.762 173.07 133.69 173.465 134.778 173.465C135.866 173.465 136.783 173.07 137.53 172.281C138.298 171.491 138.682 170.414 138.682 169.049ZM166.353 160.121L155.153 186.457H149.265L153.361 177.369L146.097 160.121H152.209L156.337 171.289L160.433 160.121H166.353ZM195.209 177.977H189.737L180.585 164.121V177.977H175.113V155.513H180.585L189.737 169.433V155.513H195.209V177.977ZM207.303 178.233C205.554 178.233 203.975 177.859 202.567 177.113C201.181 176.366 200.082 175.299 199.271 173.913C198.482 172.526 198.087 170.905 198.087 169.049C198.087 167.214 198.493 165.603 199.303 164.217C200.114 162.809 201.223 161.731 202.631 160.985C204.039 160.238 205.618 159.865 207.367 159.865C209.117 159.865 210.695 160.238 212.103 160.985C213.511 161.731 214.621 162.809 215.431 164.217C216.242 165.603 216.647 167.214 216.647 169.049C216.647 170.883 216.231 172.505 215.399 173.913C214.589 175.299 213.469 176.366 212.039 177.113C210.631 177.859 209.053 178.233 207.303 178.233ZM207.303 173.497C208.349 173.497 209.234 173.113 209.959 172.345C210.706 171.577 211.079 170.478 211.079 169.049C211.079 167.619 210.717 166.521 209.991 165.753C209.287 164.985 208.413 164.601 207.367 164.601C206.301 164.601 205.415 164.985 204.711 165.753C204.007 166.499 203.655 167.598 203.655 169.049C203.655 170.478 203.997 171.577 204.679 172.345C205.383 173.113 206.258 173.497 207.303 173.497ZM245.182 160.121L240.35 177.977H234.302L231.486 166.393L228.574 177.977H222.558L217.694 160.121H223.166L225.694 172.889L228.702 160.121H234.494L237.534 172.825L240.03 160.121H245.182Z" fill="white"/>
<g filter="url(#filter1_di_1059_41)">
<path d="M208.978 74.1364C211.874 69.5586 217.933 68.1955 222.51 71.0918L249.702 88.2956C254.286 91.196 255.652 97.2634 252.751 101.848V101.848C249.798 106.516 243.577 107.831 238.986 104.758L224.726 95.2111L212.262 87.8159C207.508 84.9957 206.023 78.807 208.978 74.1364V74.1364Z" fill="white" fill-opacity="0.7"/>
</g>
<defs>
<filter id="filter0_dd_1059_41" x="0.134766" y="0.703125" width="339" height="339" filterUnits="userSpaceOnUse" color-interpolation-filters="sRGB">
<feFlood flood-opacity="0" result="BackgroundImageFix"/>
<feColorMatrix in="SourceAlpha" type="matrix" values="0 0 0 0 0 0 0 0 0 0 0 0 0 0 0 0 0 0 127 0" result="hardAlpha"/>
<feOffset dx="-10" dy="-10"/>
<feGaussianBlur stdDeviation="15"/>
<feColorMatrix type="matrix" values="0 0 0 0 0.603922 0 0 0 0 0.807843 0 0 0 0 0.831373 0 0 0 0.4 0"/>
<feBlend mode="normal" in2="BackgroundImageFix" result="effect1_dropShadow_1059_41"/>
<feColorMatrix in="SourceAlpha" type="matrix" values="0 0 0 0 0 0 0 0 0 0 0 0 0 0 0 0 0 0 127 0" result="hardAlpha"/>
<feOffset dx="10" dy="10"/>
<feGaussianBlur stdDeviation="15"/>
<feColorMatrix type="matrix" values="0 0 0 0 0.603922 0 0 0 0 0.807843 0 0 0 0 0.831373 0 0 0 0.4 0"/>
<feBlend mode="normal" in2="effect1_dropShadow_1059_41" result="effect2_dropShadow_1059_41"/>
<feBlend mode="normal" in="SourceGraphic" in2="effect2_dropShadow_1059_41" result="shape"/>
</filter>
<filter id="filter1_di_1059_41" x="187.457" y="49.5713" width="106.818" height="96.8486" filterUnits="userSpaceOnUse" color-interpolation-filters="sRGB">
<feFlood flood-opacity="0" result="BackgroundImageFix"/>
<feColorMatrix in="SourceAlpha" type="matrix" values="0 0 0 0 0 0 0 0 0 0 0 0 0 0 0 0 0 0 127 0" result="hardAlpha"/>
<feOffset dx="10" dy="10"/>
<feGaussianBlur stdDeviation="15"/>
<feColorMatrix type="matrix" values="0 0 0 0 1 0 0 0 0 1 0 0 0 0 1 0 0 0 0.1 0"/>
<feBlend mode="normal" in2="BackgroundImageFix" result="effect1_dropShadow_1059_41"/>
<feBlend mode="normal" in="SourceGraphic" in2="effect1_dropShadow_1059_41" result="shape"/>
<feColorMatrix in="SourceAlpha" type="matrix" values="0 0 0 0 0 0 0 0 0 0 0 0 0 0 0 0 0 0 127 0" result="hardAlpha"/>
<feOffset dy="-16"/>
<feGaussianBlur stdDeviation="2"/>
<feComposite in2="hardAlpha" operator="arithmetic" k2="-1" k3="1"/>
<feColorMatrix type="matrix" values="0 0 0 0 0 0 0 0 0 0 0 0 0 0 0 0 0 0 0.05 0"/>
<feBlend mode="normal" in2="shape" result="effect2_innerShadow_1059_41"/>
</filter>
</defs>
</svg>
