<svg width="340" height="340" viewBox="0 0 340 340" fill="none" xmlns="http://www.w3.org/2000/svg">
<g filter="url(#filter0_dd_1059_46)">
<circle cx="169.659" cy="170.203" r="129.5" fill="#B2E68D"/>
</g>
<path d="M114.132 162.745C114.132 164.046 113.833 165.241 113.236 166.329C112.639 167.395 111.721 168.259 110.484 168.921C109.247 169.582 107.711 169.913 105.876 169.913H102.484V177.977H97.0121V155.513H105.876C107.668 155.513 109.183 155.822 110.42 156.441C111.657 157.059 112.585 157.913 113.204 159.001C113.823 160.089 114.132 161.337 114.132 162.745ZM105.46 165.561C106.505 165.561 107.284 165.315 107.796 164.825C108.308 164.334 108.564 163.641 108.564 162.745C108.564 161.849 108.308 161.155 107.796 160.665C107.284 160.174 106.505 159.929 105.46 159.929H102.484V165.561H105.46ZM122.453 154.297V177.977H116.981V154.297H122.453ZM125.33 169.017C125.33 167.182 125.672 165.571 126.354 164.185C127.058 162.798 128.008 161.731 129.202 160.985C130.397 160.238 131.73 159.865 133.202 159.865C134.461 159.865 135.56 160.121 136.498 160.633C137.458 161.145 138.194 161.817 138.706 162.649V160.121H144.178V177.977H138.706V175.449C138.173 176.281 137.426 176.953 136.466 177.465C135.528 177.977 134.429 178.233 133.17 178.233C131.72 178.233 130.397 177.859 129.202 177.113C128.008 176.345 127.058 175.267 126.354 173.881C125.672 172.473 125.33 170.851 125.33 169.017ZM138.706 169.049C138.706 167.683 138.322 166.606 137.554 165.817C136.808 165.027 135.89 164.633 134.802 164.633C133.714 164.633 132.786 165.027 132.018 165.817C131.272 166.585 130.898 167.651 130.898 169.017C130.898 170.382 131.272 171.47 132.018 172.281C132.786 173.07 133.714 173.465 134.802 173.465C135.89 173.465 136.808 173.07 137.554 172.281C138.322 171.491 138.706 170.414 138.706 169.049ZM166.377 160.121L155.177 186.457H149.289L153.385 177.369L146.121 160.121H152.233L156.361 171.289L160.457 160.121H166.377ZM195.233 177.977H189.761L180.609 164.121V177.977H175.137V155.513H180.609L189.761 169.433V155.513H195.233V177.977ZM207.328 178.233C205.578 178.233 204 177.859 202.592 177.113C201.205 176.366 200.106 175.299 199.296 173.913C198.506 172.526 198.112 170.905 198.112 169.049C198.112 167.214 198.517 165.603 199.328 164.217C200.138 162.809 201.248 161.731 202.656 160.985C204.064 160.238 205.642 159.865 207.392 159.865C209.141 159.865 210.72 160.238 212.128 160.985C213.536 161.731 214.645 162.809 215.456 164.217C216.266 165.603 216.672 167.214 216.672 169.049C216.672 170.883 216.256 172.505 215.424 173.913C214.613 175.299 213.493 176.366 212.064 177.113C210.656 177.859 209.077 178.233 207.328 178.233ZM207.328 173.497C208.373 173.497 209.258 173.113 209.984 172.345C210.73 171.577 211.104 170.478 211.104 169.049C211.104 167.619 210.741 166.521 210.016 165.753C209.312 164.985 208.437 164.601 207.392 164.601C206.325 164.601 205.44 164.985 204.736 165.753C204.032 166.499 203.68 167.598 203.68 169.049C203.68 170.478 204.021 171.577 204.704 172.345C205.408 173.113 206.282 173.497 207.328 173.497ZM245.207 160.121L240.375 177.977H234.327L231.511 166.393L228.599 177.977H222.583L217.719 160.121H223.191L225.719 172.889L228.727 160.121H234.519L237.559 172.825L240.055 160.121H245.207Z" fill="white"/>
<g filter="url(#filter1_di_1059_46)">
<path d="M209.002 74.1364C211.898 69.5586 217.957 68.1955 222.535 71.0918L249.727 88.2956C254.311 91.196 255.676 97.2634 252.776 101.848V101.848C249.822 106.516 243.601 107.831 239.011 104.758L224.751 95.2111L212.286 87.8159C207.533 84.9957 206.047 78.807 209.002 74.1364V74.1364Z" fill="white" fill-opacity="0.7"/>
</g>
<defs>
<filter id="filter0_dd_1059_46" x="0.15918" y="0.703125" width="339" height="339" filterUnits="userSpaceOnUse" color-interpolation-filters="sRGB">
<feFlood flood-opacity="0" result="BackgroundImageFix"/>
<feColorMatrix in="SourceAlpha" type="matrix" values="0 0 0 0 0 0 0 0 0 0 0 0 0 0 0 0 0 0 127 0" result="hardAlpha"/>
<feOffset dx="-10" dy="-10"/>
<feGaussianBlur stdDeviation="15"/>
<feColorMatrix type="matrix" values="0 0 0 0 0.698039 0 0 0 0 0.901961 0 0 0 0 0.552941 0 0 0 0.4 0"/>
<feBlend mode="normal" in2="BackgroundImageFix" result="effect1_dropShadow_1059_46"/>
<feColorMatrix in="SourceAlpha" type="matrix" values="0 0 0 0 0 0 0 0 0 0 0 0 0 0 0 0 0 0 127 0" result="hardAlpha"/>
<feOffset dx="10" dy="10"/>
<feGaussianBlur stdDeviation="15"/>
<feColorMatrix type="matrix" values="0 0 0 0 0.698039 0 0 0 0 0.901961 0 0 0 0 0.552941 0 0 0 0.4 0"/>
<feBlend mode="normal" in2="effect1_dropShadow_1059_46" result="effect2_dropShadow_1059_46"/>
<feBlend mode="normal" in="SourceGraphic" in2="effect2_dropShadow_1059_46" result="shape"/>
</filter>
<filter id="filter1_di_1059_46" x="187.481" y="49.5713" width="106.818" height="96.8486" filterUnits="userSpaceOnUse" color-interpolation-filters="sRGB">
<feFlood flood-opacity="0" result="BackgroundImageFix"/>
<feColorMatrix in="SourceAlpha" type="matrix" values="0 0 0 0 0 0 0 0 0 0 0 0 0 0 0 0 0 0 127 0" result="hardAlpha"/>
<feOffset dx="10" dy="10"/>
<feGaussianBlur stdDeviation="15"/>
<feColorMatrix type="matrix" values="0 0 0 0 1 0 0 0 0 1 0 0 0 0 1 0 0 0 0.1 0"/>
<feBlend mode="normal" in2="BackgroundImageFix" result="effect1_dropShadow_1059_46"/>
<feBlend mode="normal" in="SourceGraphic" in2="effect1_dropShadow_1059_46" result="shape"/>
<feColorMatrix in="SourceAlpha" type="matrix" values="0 0 0 0 0 0 0 0 0 0 0 0 0 0 0 0 0 0 127 0" result="hardAlpha"/>
<feOffset dy="-16"/>
<feGaussianBlur stdDeviation="2"/>
<feComposite in2="hardAlpha" operator="arithmetic" k2="-1" k3="1"/>
<feColorMatrix type="matrix" values="0 0 0 0 0 0 0 0 0 0 0 0 0 0 0 0 0 0 0.05 0"/>
<feBlend mode="normal" in2="shape" result="effect2_innerShadow_1059_46"/>
</filter>
</defs>
</svg>
