<svg width="340" height="340" viewBox="0 0 340 340" fill="none" xmlns="http://www.w3.org/2000/svg">
<g filter="url(#filter0_dd_1059_36)">
<circle cx="169.635" cy="169.572" r="129.5" fill="#F6E72A"/>
</g>
<path d="M114.108 162.114C114.108 163.415 113.809 164.61 113.212 165.698C112.614 166.764 111.697 167.628 110.46 168.29C109.222 168.951 107.686 169.282 105.852 169.282H102.46V177.346H96.9877V154.882H105.852C107.644 154.882 109.158 155.191 110.396 155.81C111.633 156.428 112.561 157.282 113.18 158.37C113.798 159.458 114.108 160.706 114.108 162.114ZM105.436 164.93C106.481 164.93 107.26 164.684 107.772 164.194C108.284 163.703 108.54 163.01 108.54 162.114C108.54 161.218 108.284 160.524 107.772 160.034C107.26 159.543 106.481 159.298 105.436 159.298H102.46V164.93H105.436ZM122.428 153.666V177.346H116.956V153.666H122.428ZM125.306 168.386C125.306 166.551 125.647 164.94 126.33 163.554C127.034 162.167 127.983 161.1 129.178 160.354C130.373 159.607 131.706 159.234 133.178 159.234C134.437 159.234 135.535 159.49 136.474 160.002C137.434 160.514 138.17 161.186 138.682 162.018V159.49H144.154V177.346H138.682V174.818C138.149 175.65 137.402 176.322 136.442 176.834C135.503 177.346 134.405 177.602 133.146 177.602C131.695 177.602 130.373 177.228 129.178 176.482C127.983 175.714 127.034 174.636 126.33 173.25C125.647 171.842 125.306 170.22 125.306 168.386ZM138.682 168.418C138.682 167.052 138.298 165.975 137.53 165.186C136.783 164.396 135.866 164.002 134.778 164.002C133.69 164.002 132.762 164.396 131.994 165.186C131.247 165.954 130.874 167.02 130.874 168.386C130.874 169.751 131.247 170.839 131.994 171.65C132.762 172.439 133.69 172.834 134.778 172.834C135.866 172.834 136.783 172.439 137.53 171.65C138.298 170.86 138.682 169.783 138.682 168.418ZM166.353 159.49L155.153 185.826H149.265L153.361 176.738L146.097 159.49H152.209L156.337 170.658L160.433 159.49H166.353ZM195.209 177.346H189.737L180.585 163.49V177.346H175.113V154.882H180.585L189.737 168.802V154.882H195.209V177.346ZM207.303 177.602C205.554 177.602 203.975 177.228 202.567 176.482C201.181 175.735 200.082 174.668 199.271 173.282C198.482 171.895 198.087 170.274 198.087 168.418C198.087 166.583 198.493 164.972 199.303 163.586C200.114 162.178 201.223 161.1 202.631 160.354C204.039 159.607 205.618 159.234 207.367 159.234C209.117 159.234 210.695 159.607 212.103 160.354C213.511 161.1 214.621 162.178 215.431 163.586C216.242 164.972 216.647 166.583 216.647 168.418C216.647 170.252 216.231 171.874 215.399 173.282C214.589 174.668 213.469 175.735 212.039 176.482C210.631 177.228 209.053 177.602 207.303 177.602ZM207.303 172.866C208.349 172.866 209.234 172.482 209.959 171.714C210.706 170.946 211.079 169.847 211.079 168.418C211.079 166.988 210.717 165.89 209.991 165.122C209.287 164.354 208.413 163.97 207.367 163.97C206.301 163.97 205.415 164.354 204.711 165.122C204.007 165.868 203.655 166.967 203.655 168.418C203.655 169.847 203.997 170.946 204.679 171.714C205.383 172.482 206.258 172.866 207.303 172.866ZM245.182 159.49L240.35 177.346H234.302L231.486 165.762L228.574 177.346H222.558L217.694 159.49H223.166L225.694 172.258L228.702 159.49H234.494L237.534 172.194L240.03 159.49H245.182Z" fill="white"/>
<g filter="url(#filter1_di_1059_36)">
<path d="M208.978 73.5055C211.874 68.9278 217.933 67.5647 222.51 70.4609L249.702 87.6648C254.286 90.5651 255.652 96.6326 252.751 101.217V101.217C249.798 105.885 243.577 107.2 238.986 104.127L224.726 94.5802L212.262 87.185C207.508 84.3649 206.023 78.1762 208.978 73.5055V73.5055Z" fill="white" fill-opacity="0.7"/>
</g>
<defs>
<filter id="filter0_dd_1059_36" x="0.134766" y="0.0722656" width="339" height="339" filterUnits="userSpaceOnUse" color-interpolation-filters="sRGB">
<feFlood flood-opacity="0" result="BackgroundImageFix"/>
<feColorMatrix in="SourceAlpha" type="matrix" values="0 0 0 0 0 0 0 0 0 0 0 0 0 0 0 0 0 0 127 0" result="hardAlpha"/>
<feOffset dx="-10" dy="-10"/>
<feGaussianBlur stdDeviation="15"/>
<feColorMatrix type="matrix" values="0 0 0 0 0.964706 0 0 0 0 0.905882 0 0 0 0 0.164706 0 0 0 0.4 0"/>
<feBlend mode="normal" in2="BackgroundImageFix" result="effect1_dropShadow_1059_36"/>
<feColorMatrix in="SourceAlpha" type="matrix" values="0 0 0 0 0 0 0 0 0 0 0 0 0 0 0 0 0 0 127 0" result="hardAlpha"/>
<feOffset dx="10" dy="10"/>
<feGaussianBlur stdDeviation="15"/>
<feColorMatrix type="matrix" values="0 0 0 0 0.964706 0 0 0 0 0.905882 0 0 0 0 0.164706 0 0 0 0.4 0"/>
<feBlend mode="normal" in2="effect1_dropShadow_1059_36" result="effect2_dropShadow_1059_36"/>
<feBlend mode="normal" in="SourceGraphic" in2="effect2_dropShadow_1059_36" result="shape"/>
</filter>
<filter id="filter1_di_1059_36" x="187.457" y="48.9404" width="106.818" height="96.8486" filterUnits="userSpaceOnUse" color-interpolation-filters="sRGB">
<feFlood flood-opacity="0" result="BackgroundImageFix"/>
<feColorMatrix in="SourceAlpha" type="matrix" values="0 0 0 0 0 0 0 0 0 0 0 0 0 0 0 0 0 0 127 0" result="hardAlpha"/>
<feOffset dx="10" dy="10"/>
<feGaussianBlur stdDeviation="15"/>
<feColorMatrix type="matrix" values="0 0 0 0 1 0 0 0 0 1 0 0 0 0 1 0 0 0 0.1 0"/>
<feBlend mode="normal" in2="BackgroundImageFix" result="effect1_dropShadow_1059_36"/>
<feBlend mode="normal" in="SourceGraphic" in2="effect1_dropShadow_1059_36" result="shape"/>
<feColorMatrix in="SourceAlpha" type="matrix" values="0 0 0 0 0 0 0 0 0 0 0 0 0 0 0 0 0 0 127 0" result="hardAlpha"/>
<feOffset dy="-16"/>
<feGaussianBlur stdDeviation="2"/>
<feComposite in2="hardAlpha" operator="arithmetic" k2="-1" k3="1"/>
<feColorMatrix type="matrix" values="0 0 0 0 0 0 0 0 0 0 0 0 0 0 0 0 0 0 0.05 0"/>
<feBlend mode="normal" in2="shape" result="effect2_innerShadow_1059_36"/>
</filter>
</defs>
</svg>
