<svg width="340" height="340" viewBox="0 0 340 340" fill="none" xmlns="http://www.w3.org/2000/svg">
<g filter="url(#filter0_dd_1059_31)">
<circle cx="169.659" cy="169.572" r="129.5" fill="#FFB9D6"/>
</g>
<path d="M114.132 162.114C114.132 163.415 113.833 164.61 113.236 165.698C112.639 166.764 111.721 167.628 110.484 168.29C109.247 168.951 107.711 169.282 105.876 169.282H102.484V177.346H97.0121V154.882H105.876C107.668 154.882 109.183 155.191 110.42 155.81C111.657 156.428 112.585 157.282 113.204 158.37C113.823 159.458 114.132 160.706 114.132 162.114ZM105.46 164.93C106.505 164.93 107.284 164.684 107.796 164.194C108.308 163.703 108.564 163.01 108.564 162.114C108.564 161.218 108.308 160.524 107.796 160.034C107.284 159.543 106.505 159.298 105.46 159.298H102.484V164.93H105.46ZM122.453 153.666V177.346H116.981V153.666H122.453ZM125.33 168.386C125.33 166.551 125.672 164.94 126.354 163.554C127.058 162.167 128.008 161.1 129.202 160.354C130.397 159.607 131.73 159.234 133.202 159.234C134.461 159.234 135.56 159.49 136.498 160.002C137.458 160.514 138.194 161.186 138.706 162.018V159.49H144.178V177.346H138.706V174.818C138.173 175.65 137.426 176.322 136.466 176.834C135.528 177.346 134.429 177.602 133.17 177.602C131.72 177.602 130.397 177.228 129.202 176.482C128.008 175.714 127.058 174.636 126.354 173.25C125.672 171.842 125.33 170.22 125.33 168.386ZM138.706 168.418C138.706 167.052 138.322 165.975 137.554 165.186C136.808 164.396 135.89 164.002 134.802 164.002C133.714 164.002 132.786 164.396 132.018 165.186C131.272 165.954 130.898 167.02 130.898 168.386C130.898 169.751 131.272 170.839 132.018 171.65C132.786 172.439 133.714 172.834 134.802 172.834C135.89 172.834 136.808 172.439 137.554 171.65C138.322 170.86 138.706 169.783 138.706 168.418ZM166.377 159.49L155.177 185.826H149.289L153.385 176.738L146.121 159.49H152.233L156.361 170.658L160.457 159.49H166.377ZM195.233 177.346H189.761L180.609 163.49V177.346H175.137V154.882H180.609L189.761 168.802V154.882H195.233V177.346ZM207.328 177.602C205.578 177.602 204 177.228 202.592 176.482C201.205 175.735 200.106 174.668 199.296 173.282C198.506 171.895 198.112 170.274 198.112 168.418C198.112 166.583 198.517 164.972 199.328 163.586C200.138 162.178 201.248 161.1 202.656 160.354C204.064 159.607 205.642 159.234 207.392 159.234C209.141 159.234 210.72 159.607 212.128 160.354C213.536 161.1 214.645 162.178 215.456 163.586C216.266 164.972 216.672 166.583 216.672 168.418C216.672 170.252 216.256 171.874 215.424 173.282C214.613 174.668 213.493 175.735 212.064 176.482C210.656 177.228 209.077 177.602 207.328 177.602ZM207.328 172.866C208.373 172.866 209.258 172.482 209.984 171.714C210.73 170.946 211.104 169.847 211.104 168.418C211.104 166.988 210.741 165.89 210.016 165.122C209.312 164.354 208.437 163.97 207.392 163.97C206.325 163.97 205.44 164.354 204.736 165.122C204.032 165.868 203.68 166.967 203.68 168.418C203.68 169.847 204.021 170.946 204.704 171.714C205.408 172.482 206.282 172.866 207.328 172.866ZM245.207 159.49L240.375 177.346H234.327L231.511 165.762L228.599 177.346H222.583L217.719 159.49H223.191L225.719 172.258L228.727 159.49H234.519L237.559 172.194L240.055 159.49H245.207Z" fill="white"/>
<g filter="url(#filter1_di_1059_31)">
<path d="M209.002 73.5055C211.898 68.9278 217.957 67.5647 222.535 70.4609L249.727 87.6648C254.311 90.5651 255.676 96.6326 252.776 101.217V101.217C249.822 105.885 243.601 107.2 239.011 104.127L224.751 94.5802L212.286 87.185C207.533 84.3649 206.047 78.1762 209.002 73.5055V73.5055Z" fill="white" fill-opacity="0.7"/>
</g>
<defs>
<filter id="filter0_dd_1059_31" x="0.15918" y="0.0722656" width="339" height="339" filterUnits="userSpaceOnUse" color-interpolation-filters="sRGB">
<feFlood flood-opacity="0" result="BackgroundImageFix"/>
<feColorMatrix in="SourceAlpha" type="matrix" values="0 0 0 0 0 0 0 0 0 0 0 0 0 0 0 0 0 0 127 0" result="hardAlpha"/>
<feOffset dx="-10" dy="-10"/>
<feGaussianBlur stdDeviation="15"/>
<feColorMatrix type="matrix" values="0 0 0 0 1 0 0 0 0 0.72549 0 0 0 0 0.839216 0 0 0 0.4 0"/>
<feBlend mode="normal" in2="BackgroundImageFix" result="effect1_dropShadow_1059_31"/>
<feColorMatrix in="SourceAlpha" type="matrix" values="0 0 0 0 0 0 0 0 0 0 0 0 0 0 0 0 0 0 127 0" result="hardAlpha"/>
<feOffset dx="10" dy="10"/>
<feGaussianBlur stdDeviation="15"/>
<feColorMatrix type="matrix" values="0 0 0 0 1 0 0 0 0 0.72549 0 0 0 0 0.839216 0 0 0 0.4 0"/>
<feBlend mode="normal" in2="effect1_dropShadow_1059_31" result="effect2_dropShadow_1059_31"/>
<feBlend mode="normal" in="SourceGraphic" in2="effect2_dropShadow_1059_31" result="shape"/>
</filter>
<filter id="filter1_di_1059_31" x="187.481" y="48.9404" width="106.818" height="96.8486" filterUnits="userSpaceOnUse" color-interpolation-filters="sRGB">
<feFlood flood-opacity="0" result="BackgroundImageFix"/>
<feColorMatrix in="SourceAlpha" type="matrix" values="0 0 0 0 0 0 0 0 0 0 0 0 0 0 0 0 0 0 127 0" result="hardAlpha"/>
<feOffset dx="10" dy="10"/>
<feGaussianBlur stdDeviation="15"/>
<feColorMatrix type="matrix" values="0 0 0 0 1 0 0 0 0 1 0 0 0 0 1 0 0 0 0.1 0"/>
<feBlend mode="normal" in2="BackgroundImageFix" result="effect1_dropShadow_1059_31"/>
<feBlend mode="normal" in="SourceGraphic" in2="effect1_dropShadow_1059_31" result="shape"/>
<feColorMatrix in="SourceAlpha" type="matrix" values="0 0 0 0 0 0 0 0 0 0 0 0 0 0 0 0 0 0 127 0" result="hardAlpha"/>
<feOffset dy="-16"/>
<feGaussianBlur stdDeviation="2"/>
<feComposite in2="hardAlpha" operator="arithmetic" k2="-1" k3="1"/>
<feColorMatrix type="matrix" values="0 0 0 0 0 0 0 0 0 0 0 0 0 0 0 0 0 0 0.05 0"/>
<feBlend mode="normal" in2="shape" result="effect2_innerShadow_1059_31"/>
</filter>
</defs>
</svg>
