<svg width="340" height="340" viewBox="0 0 340 340" fill="none" xmlns="http://www.w3.org/2000/svg">
<g filter="url(#filter0_dd_1059_51)">
<circle cx="170.072" cy="169.947" r="129.5" fill="#C399ED"/>
</g>
<path d="M114.545 162.489C114.545 163.79 114.246 164.985 113.649 166.073C113.051 167.139 112.134 168.003 110.897 168.665C109.659 169.326 108.123 169.657 106.289 169.657H102.897V177.721H97.4247V155.257H106.289C108.081 155.257 109.595 155.566 110.833 156.185C112.07 156.803 112.998 157.657 113.617 158.745C114.235 159.833 114.545 161.081 114.545 162.489ZM105.873 165.305C106.918 165.305 107.697 165.059 108.209 164.569C108.721 164.078 108.977 163.385 108.977 162.489C108.977 161.593 108.721 160.899 108.209 160.409C107.697 159.918 106.918 159.673 105.873 159.673H102.897V165.305H105.873ZM122.865 154.041V177.721H117.393V154.041H122.865ZM125.743 168.761C125.743 166.926 126.084 165.315 126.767 163.929C127.471 162.542 128.42 161.475 129.615 160.729C130.81 159.982 132.143 159.609 133.615 159.609C134.874 159.609 135.972 159.865 136.911 160.377C137.871 160.889 138.607 161.561 139.119 162.393V159.865H144.591V177.721H139.119V175.193C138.586 176.025 137.839 176.697 136.879 177.209C135.94 177.721 134.842 177.977 133.583 177.977C132.132 177.977 130.81 177.603 129.615 176.857C128.42 176.089 127.471 175.011 126.767 173.625C126.084 172.217 125.743 170.595 125.743 168.761ZM139.119 168.793C139.119 167.427 138.735 166.35 137.967 165.561C137.22 164.771 136.303 164.377 135.215 164.377C134.127 164.377 133.199 164.771 132.431 165.561C131.684 166.329 131.311 167.395 131.311 168.761C131.311 170.126 131.684 171.214 132.431 172.025C133.199 172.814 134.127 173.209 135.215 173.209C136.303 173.209 137.22 172.814 137.967 172.025C138.735 171.235 139.119 170.158 139.119 168.793ZM166.79 159.865L155.59 186.201H149.702L153.798 177.113L146.534 159.865H152.646L156.774 171.033L160.87 159.865H166.79ZM195.646 177.721H190.174L181.022 163.865V177.721H175.55V155.257H181.022L190.174 169.177V155.257H195.646V177.721ZM207.74 177.977C205.991 177.977 204.412 177.603 203.004 176.857C201.618 176.11 200.519 175.043 199.708 173.657C198.919 172.27 198.524 170.649 198.524 168.793C198.524 166.958 198.93 165.347 199.74 163.961C200.551 162.553 201.66 161.475 203.068 160.729C204.476 159.982 206.055 159.609 207.804 159.609C209.554 159.609 211.132 159.982 212.54 160.729C213.948 161.475 215.058 162.553 215.868 163.961C216.679 165.347 217.084 166.958 217.084 168.793C217.084 170.627 216.668 172.249 215.836 173.657C215.026 175.043 213.906 176.11 212.476 176.857C211.068 177.603 209.49 177.977 207.74 177.977ZM207.74 173.241C208.786 173.241 209.671 172.857 210.396 172.089C211.143 171.321 211.516 170.222 211.516 168.793C211.516 167.363 211.154 166.265 210.428 165.497C209.724 164.729 208.85 164.345 207.804 164.345C206.738 164.345 205.852 164.729 205.148 165.497C204.444 166.243 204.092 167.342 204.092 168.793C204.092 170.222 204.434 171.321 205.116 172.089C205.82 172.857 206.695 173.241 207.74 173.241ZM245.619 159.865L240.787 177.721H234.739L231.923 166.137L229.011 177.721H222.995L218.131 159.865H223.603L226.131 172.633L229.139 159.865H234.931L237.971 172.569L240.467 159.865H245.619Z" fill="white"/>
<g filter="url(#filter1_di_1059_51)">
<path d="M209.415 73.8805C212.311 69.3028 218.37 67.9397 222.947 70.8359L250.139 88.0398C254.723 90.9401 256.089 97.0076 253.188 101.592V101.592C250.235 106.26 244.014 107.575 239.423 104.502L225.163 94.9552L212.699 87.56C207.945 84.7399 206.46 78.5512 209.415 73.8805V73.8805Z" fill="white" fill-opacity="0.7"/>
</g>
<defs>
<filter id="filter0_dd_1059_51" x="0.571777" y="0.447266" width="339" height="339" filterUnits="userSpaceOnUse" color-interpolation-filters="sRGB">
<feFlood flood-opacity="0" result="BackgroundImageFix"/>
<feColorMatrix in="SourceAlpha" type="matrix" values="0 0 0 0 0 0 0 0 0 0 0 0 0 0 0 0 0 0 127 0" result="hardAlpha"/>
<feOffset dx="-10" dy="-10"/>
<feGaussianBlur stdDeviation="15"/>
<feColorMatrix type="matrix" values="0 0 0 0 0.764706 0 0 0 0 0.6 0 0 0 0 0.929412 0 0 0 0.4 0"/>
<feBlend mode="normal" in2="BackgroundImageFix" result="effect1_dropShadow_1059_51"/>
<feColorMatrix in="SourceAlpha" type="matrix" values="0 0 0 0 0 0 0 0 0 0 0 0 0 0 0 0 0 0 127 0" result="hardAlpha"/>
<feOffset dx="10" dy="10"/>
<feGaussianBlur stdDeviation="15"/>
<feColorMatrix type="matrix" values="0 0 0 0 0.764706 0 0 0 0 0.6 0 0 0 0 0.929412 0 0 0 0.4 0"/>
<feBlend mode="normal" in2="effect1_dropShadow_1059_51" result="effect2_dropShadow_1059_51"/>
<feBlend mode="normal" in="SourceGraphic" in2="effect2_dropShadow_1059_51" result="shape"/>
</filter>
<filter id="filter1_di_1059_51" x="187.894" y="49.3154" width="106.818" height="96.8486" filterUnits="userSpaceOnUse" color-interpolation-filters="sRGB">
<feFlood flood-opacity="0" result="BackgroundImageFix"/>
<feColorMatrix in="SourceAlpha" type="matrix" values="0 0 0 0 0 0 0 0 0 0 0 0 0 0 0 0 0 0 127 0" result="hardAlpha"/>
<feOffset dx="10" dy="10"/>
<feGaussianBlur stdDeviation="15"/>
<feColorMatrix type="matrix" values="0 0 0 0 1 0 0 0 0 1 0 0 0 0 1 0 0 0 0.1 0"/>
<feBlend mode="normal" in2="BackgroundImageFix" result="effect1_dropShadow_1059_51"/>
<feBlend mode="normal" in="SourceGraphic" in2="effect1_dropShadow_1059_51" result="shape"/>
<feColorMatrix in="SourceAlpha" type="matrix" values="0 0 0 0 0 0 0 0 0 0 0 0 0 0 0 0 0 0 127 0" result="hardAlpha"/>
<feOffset dy="-16"/>
<feGaussianBlur stdDeviation="2"/>
<feComposite in2="hardAlpha" operator="arithmetic" k2="-1" k3="1"/>
<feColorMatrix type="matrix" values="0 0 0 0 0 0 0 0 0 0 0 0 0 0 0 0 0 0 0.05 0"/>
<feBlend mode="normal" in2="shape" result="effect2_innerShadow_1059_51"/>
</filter>
</defs>
</svg>
