<svg width="52" height="58" viewBox="0 0 52 58" fill="none" xmlns="http://www.w3.org/2000/svg">
<path d="M46.4069 15.9106C45.7174 15.061 44.4724 14.9232 43.6135 15.6016C42.7547 16.2799 42.6011 17.5222 43.269 18.3889C46.3497 22.2604 48.0184 27.0654 47.9999 32.0117C48.0025 43.8179 38.6737 53.5183 26.869 53.9845C15.0642 54.4507 4.99853 45.5162 4.06888 33.7466C3.13923 21.977 11.6776 11.575 23.4093 10.1845L20.7004 12.5059C19.8948 13.2316 19.8147 14.4666 20.5199 15.2901C21.2251 16.1135 22.4585 16.2252 23.3003 15.5419L30.3002 9.54596C30.7438 9.16625 30.9992 8.6117 30.9992 8.02799C30.9992 7.44427 30.7438 6.88973 30.3002 6.51002L23.3003 0.514091C22.7605 0.02783 21.9992 -0.127499 21.3118 0.108378C20.6244 0.344254 20.1192 0.934206 19.9921 1.64931C19.8651 2.36442 20.1363 3.09211 20.7004 3.55003L23.7193 6.13527C9.71006 7.36826 -0.778743 19.51 0.0454142 33.5401C0.869571 47.5701 12.7079 58.4021 26.7653 57.9885C40.8227 57.575 52.0029 46.0659 51.9998 32.0117C52.0212 26.1654 50.0485 20.4863 46.4069 15.9106Z" fill="white"/>
<path d="M15.08 29V26.504H20.072V44H17.312V29H15.08ZM23.8306 35.024C23.8306 32.256 24.2946 30.096 25.2226 28.544C26.1666 26.976 27.7826 26.192 30.0706 26.192C32.3586 26.192 33.9666 26.976 34.8946 28.544C35.8386 30.096 36.3106 32.256 36.3106 35.024C36.3106 37.824 35.8386 40.016 34.8946 41.6C33.9666 43.168 32.3586 43.952 30.0706 43.952C27.7826 43.952 26.1666 43.168 25.2226 41.6C24.2946 40.016 23.8306 37.824 23.8306 35.024ZM33.6226 35.024C33.6226 33.728 33.5346 32.632 33.3586 31.736C33.1986 30.84 32.8626 30.112 32.3506 29.552C31.8386 28.976 31.0786 28.688 30.0706 28.688C29.0626 28.688 28.3026 28.976 27.7906 29.552C27.2786 30.112 26.9346 30.84 26.7586 31.736C26.5986 32.632 26.5186 33.728 26.5186 35.024C26.5186 36.368 26.5986 37.496 26.7586 38.408C26.9186 39.32 27.2546 40.056 27.7666 40.616C28.2946 41.176 29.0626 41.456 30.0706 41.456C31.0786 41.456 31.8386 41.176 32.3506 40.616C32.8786 40.056 33.2226 39.32 33.3826 38.408C33.5426 37.496 33.6226 36.368 33.6226 35.024Z" fill="white"/>
</svg>
