<svg xmlns="http://www.w3.org/2000/svg" width="34" height="38" viewBox="0 0 34 38">
  <g id="next_1_" data-name="next (1)" transform="translate(34 38) rotate(180)" opacity="0.747">
    <g id="Grupo_939" data-name="Grupo 939" transform="translate(0 0)">
      <g id="Grupo_938" data-name="Grupo 938">
        <path id="Trazado_4902" data-name="Trazado 4902" d="M25.658,17.831,2.334.293A1.447,1.447,0,0,0,.81.156,1.462,1.462,0,0,0,0,1.462V36.539a1.457,1.457,0,0,0,2.332,1.169L25.658,20.17a1.464,1.464,0,0,0,0-2.338Z" transform="translate(-0.002 0)" fill="#d2d2d2"/>
      </g>
    </g>
    <g id="Grupo_941" data-name="Grupo 941" transform="translate(28.12 0)">
      <g id="Grupo_940" data-name="Grupo 940">
        <path id="Trazado_4903" data-name="Trazado 4903" d="M356.412,0h-2.94A1.466,1.466,0,0,0,352,1.466V36.542A1.466,1.466,0,0,0,353.472,38h2.94a1.466,1.466,0,0,0,1.47-1.462V1.466A1.466,1.466,0,0,0,356.412,0Z" transform="translate(-352.002 -0.004)" fill="#d2d2d2"/>
      </g>
    </g>
  </g>
</svg>
