<?xml version="1.0" encoding="utf-8"?>
<svg width="52px" height="44px" viewBox="0 0 52 44" fill="none" xmlns="http://www.w3.org/2000/svg">
  <path d="M 21.784 3.2 C 21.248 3.2 20.784 3.396 20.392 3.788 L 10.088 14.092 L 1.981 14.092 C 1.444 14.092 0.98 14.289 0.588 14.68 C 0.196 15.072 0 15.536 0 16.073 L 0 27.954 C 0 28.491 0.196 28.955 0.588 29.347 C 0.98 29.739 1.444 29.935 1.981 29.935 L 10.087 29.935 L 20.391 40.24 C 20.783 40.631 21.248 40.827 21.784 40.827 C 22.321 40.827 22.785 40.631 23.177 40.24 C 23.569 39.848 23.765 39.383 23.765 38.847 L 23.765 5.181 C 23.765 4.644 23.569 4.18 23.177 3.788 C 22.785 3.396 22.321 3.2 21.784 3.2 Z" fill="white"/>
  <path d="M 34.331 26.392 C 35.209 25.04 35.647 23.581 35.647 22.014 C 35.647 20.446 35.209 18.98 34.331 17.618 C 33.454 16.257 32.295 15.298 30.85 14.741 C 30.644 14.638 30.386 14.586 30.076 14.586 C 29.541 14.586 29.076 14.777 28.684 15.158 C 28.293 15.54 28.096 16.009 28.096 16.566 C 28.096 16.999 28.22 17.366 28.468 17.665 C 28.715 17.964 29.014 18.222 29.365 18.439 C 29.716 18.655 30.066 18.892 30.418 19.15 C 30.769 19.408 31.067 19.774 31.315 20.249 C 31.561 20.723 31.686 21.311 31.686 22.013 C 31.686 22.714 31.562 23.302 31.315 23.777 C 31.067 24.252 30.769 24.617 30.418 24.876 C 30.066 25.134 29.716 25.371 29.365 25.588 C 29.014 25.803 28.715 26.062 28.468 26.361 C 28.221 26.66 28.096 27.026 28.096 27.459 C 28.096 28.017 28.293 28.486 28.684 28.867 C 29.076 29.249 29.54 29.44 30.076 29.44 C 30.386 29.44 30.644 29.389 30.85 29.286 C 32.295 28.707 33.455 27.743 34.331 26.392 Z" fill="white"/>
</svg>