<svg width="52" height="44" viewBox="0 0 52 44" fill="none" xmlns="http://www.w3.org/2000/svg">
<path d="M21.7842 3.1864C21.2482 3.1864 20.784 3.38279 20.3919 3.77447L10.0878 14.0787H1.98075C1.44405 14.0787 0.979969 14.2751 0.588068 14.6665C0.196059 15.0584 0 15.5228 0 16.0591V27.9408C0 28.4771 0.196059 28.9414 0.588068 29.3332C0.980295 29.7252 1.44448 29.9214 1.98075 29.9214H10.0873L20.3914 40.2259C20.7834 40.6172 21.2476 40.8138 21.7838 40.8138C22.3205 40.8138 22.7846 40.6173 23.1765 40.2259C23.5685 39.8342 23.7645 39.3696 23.7645 38.8336V5.16715C23.7645 4.63089 23.5685 4.16637 23.1769 3.77447C22.7847 3.38279 22.3209 3.1864 21.7842 3.1864Z" fill="white"/>
<path d="M34.3313 26.3778C35.2085 25.0267 35.6465 23.5676 35.6465 21.9998C35.6465 20.4321 35.2085 18.9661 34.3313 17.6044C33.4541 16.2429 32.2948 15.284 30.8501 14.7268C30.6439 14.6239 30.3858 14.5721 30.0764 14.5721C29.5405 14.5721 29.0758 14.7631 28.684 15.1446C28.2928 15.5262 28.0958 15.9956 28.0958 16.5525C28.0958 16.9857 28.2197 17.3519 28.4678 17.6511C28.7152 17.9504 29.0141 18.2084 29.3654 18.4248C29.7155 18.6414 30.0664 18.8787 30.4175 19.1366C30.7685 19.3945 31.0674 19.7606 31.3147 20.235C31.5614 20.7097 31.686 21.2975 31.686 21.9991C31.686 22.7004 31.5621 23.2884 31.3147 23.7631C31.0674 24.2379 30.7685 24.6036 30.4175 24.862C30.0664 25.1199 29.7155 25.3572 29.3654 25.5738C29.0141 25.7897 28.7152 26.0481 28.4678 26.3467C28.2205 26.6464 28.0958 27.0125 28.0958 27.4457C28.0958 28.0032 28.2926 28.4721 28.684 28.8536C29.0757 29.2352 29.5404 29.4267 30.0764 29.4267C30.3857 29.4267 30.6438 29.3748 30.8501 29.2723C32.2948 28.6937 33.4546 27.729 34.3313 26.3778Z" fill="white"/>
<path d="M40.938 30.7411C42.6916 28.0699 43.5687 25.1562 43.5687 21.9998C43.5687 18.8434 42.6915 15.93 40.938 13.2573C39.1848 10.5862 36.863 8.64212 33.9756 7.4248C33.7078 7.32184 33.4394 7.27014 33.1719 7.27014C32.6356 7.27014 32.1709 7.4662 31.7788 7.85821C31.3872 8.25011 31.1909 8.71419 31.1909 9.25056C31.1909 10.0552 31.5933 10.6637 32.3982 11.0767C33.5532 11.6747 34.3369 12.1285 34.7492 12.4378C36.2762 13.5519 37.4671 14.9493 38.3232 16.6306C39.1792 18.312 39.6073 20.1015 39.6073 21.9994C39.6073 23.8973 39.1793 25.6868 38.3232 27.3681C37.4672 29.0497 36.2754 30.4468 34.7492 31.5606C34.3367 31.8703 33.5532 32.324 32.3982 32.9222C31.5933 33.335 31.1909 33.9436 31.1909 34.7481C31.1909 35.2843 31.3872 35.7491 31.7788 36.1404C32.1708 36.5329 32.6448 36.7292 33.2019 36.7292C33.4497 36.7292 33.7078 36.6768 33.9756 36.5744C36.863 35.3569 39.1848 33.4126 40.938 30.7411Z" fill="white"/>
<path d="M47.5597 8.92702C44.94 4.9562 41.4532 2.03169 37.1005 0.154441C36.8327 0.0514807 36.5642 0 36.2967 0C35.7605 0 35.2958 0.196276 34.9044 0.587852C34.512 0.979645 34.3157 1.44427 34.3157 1.98053C34.3157 2.72304 34.7182 3.33192 35.523 3.8063C35.6677 3.88823 35.8988 3.9965 36.2188 4.131C36.5385 4.26453 36.7704 4.3728 36.9154 4.45538C37.8641 4.97073 38.7101 5.49702 39.4534 6.03339C41.9903 7.91031 43.9709 10.2517 45.3944 13.0574C46.8178 15.8628 47.5291 18.8435 47.5291 22C47.5291 25.157 46.8178 28.1371 45.3944 30.9426C43.9712 33.7485 41.9903 36.0902 39.4534 37.9666C38.7101 38.5029 37.8641 39.0288 36.9154 39.5448C36.7704 39.6268 36.5385 39.7347 36.2188 39.8689C35.8988 40.0024 35.6677 40.1107 35.523 40.1938C34.7182 40.6679 34.3157 41.2768 34.3157 42.0194C34.3157 42.5557 34.512 43.02 34.9044 43.4118C35.2956 43.8038 35.7604 44 36.2967 44C36.5642 44 36.8327 43.9484 37.1005 43.8449C41.4532 41.9683 44.94 39.0437 47.5597 35.0727C50.1796 31.1018 51.4893 26.7438 51.4893 21.9993C51.4893 17.2549 50.18 12.8974 47.5597 8.92702Z" fill="white"/>
</svg>
