<?xml version="1.0" encoding="utf-8"?>
<svg width="52px" height="44px" viewBox="0 0 52 44" fill="none" xmlns="http://www.w3.org/2000/svg">
  <path d="M 28.01 4.55 C 28.01 4.039 27.73 3.556 27.297 3.341 C 26.838 3.099 26.329 3.179 25.947 3.502 L 14.666 12.988 L 28.01 27.07 L 28.01 4.55 Z" fill="white"/>
  <path d="M 35.278 38.535 L 2.173 3.599 C 1.676 3.075 0.869 3.075 0.372 3.599 C -0.124 4.123 -0.124 4.975 0.372 5.499 L 8.384 13.956 L 7.638 13.956 C 6.848 13.956 6.161 14.332 5.702 14.923 C 5.32 15.38 5.091 15.998 5.091 16.643 L 5.091 27.393 C 5.091 28.871 6.237 30.08 7.638 30.08 L 13.546 30.08 L 25.947 40.534 C 26.176 40.722 26.456 40.83 26.737 40.83 C 26.915 40.83 27.119 40.776 27.297 40.696 C 27.73 40.481 28.01 39.997 28.01 39.486 L 28.01 34.668 L 33.475 40.435 C 33.724 40.698 34.05 40.83 34.376 40.83 C 34.702 40.83 35.028 40.698 35.278 40.438 C 35.774 39.911 35.774 39.062 35.278 38.535 Z" fill="white"/>
</svg>