<svg width="40" height="38" viewBox="0 0 40 38" fill="none" xmlns="http://www.w3.org/2000/svg">
<path fill-rule="evenodd" clip-rule="evenodd" d="M1.21915 13.0044C0.54618 13.0044 0 12.4582 0 11.7852V4.47032C0 2.00434 2.00434 0 4.47032 0H11.7852C12.4582 0 13.0044 0.54618 13.0044 1.21915C13.0044 1.89212 12.4582 2.4383 11.7852 2.4383H4.47032C3.35029 2.4383 2.4383 3.35028 2.4383 4.47032V11.7852C2.4383 12.4582 1.89212 13.0044 1.21915 13.0044Z" fill="white"/>
<path fill-rule="evenodd" clip-rule="evenodd" d="M34.5421 37.0088H27.2271C26.5542 37.0088 26.0081 36.4625 26.0081 35.7896C26.0081 35.1166 26.5542 34.5704 27.2271 34.5704H34.5421C35.6621 34.5704 36.5741 33.6584 36.5741 32.5385V25.2235C36.5741 24.5505 37.1202 24.0044 37.7932 24.0044C38.4662 24.0044 39.0124 24.5505 39.0124 25.2235V32.5385C39.0124 35.0044 37.008 37.0088 34.5421 37.0088Z" fill="white"/>
<path fill-rule="evenodd" clip-rule="evenodd" d="M11.7852 37.0088H4.47032C2.00434 37.0088 0 35.0044 0 32.5385V25.2235C0 24.5505 0.54618 24.0044 1.21915 24.0044C1.89212 24.0044 2.4383 24.5505 2.4383 25.2235V32.5385C2.4383 33.6584 3.35028 34.5704 4.47032 34.5704H11.7852C12.4582 34.5704 13.0044 35.1166 13.0044 35.7896C13.0044 36.4625 12.4582 37.0088 11.7852 37.0088Z" fill="white"/>
<path fill-rule="evenodd" clip-rule="evenodd" d="M37.7932 13.0044C37.1202 13.0044 36.5741 12.4582 36.5741 11.7852V4.47032C36.5741 3.35029 35.6621 2.4383 34.5421 2.4383H27.2271C26.5542 2.4383 26.0081 1.89212 26.0081 1.21915C26.0081 0.54618 26.5542 0 27.2271 0H34.5421C37.008 0 39.0124 2.00434 39.0124 4.47032V11.7852C39.0124 12.4582 38.4662 13.0044 37.7932 13.0044Z" fill="white"/>
</svg>
