<svg width="52" height="58" viewBox="0 0 52 58" fill="none" xmlns="http://www.w3.org/2000/svg">
<path d="M28.2827 6.07553L31.2996 3.4873C32.1052 2.76083 32.1853 1.52434 31.4801 0.69995C30.7749 -0.124436 29.5415 -0.236266 28.6997 0.447857L21.6998 6.45071C21.2562 6.83086 21.0008 7.38604 21.0008 7.97043C21.0008 8.55482 21.2562 9.11001 21.6998 9.49016L28.6997 15.493C29.2395 15.9798 30.0008 16.1353 30.6882 15.8992C31.3756 15.663 31.8808 15.0724 32.0079 14.3565C32.1349 13.6405 31.8637 12.912 31.2996 12.4536L28.5887 10.1295C40.3209 11.5205 48.8602 21.9342 47.9312 33.7177C47.0022 45.5012 36.9366 54.4468 25.1315 53.9803C13.3265 53.5138 3.99735 43.8019 4.0001 31.9818C3.98161 27.0298 5.65028 22.2193 8.73102 18.3434C9.1849 17.7835 9.30267 17.0226 9.0393 16.3516C8.77594 15.6806 8.17216 15.2031 7.45877 15.1018C6.74538 15.0005 6.03267 15.291 5.59307 15.8622C1.9515 20.4431 -0.0212104 26.1288 0.000172012 31.9818C-0.00284266 46.052 11.177 57.5742 25.2341 57.9885C39.2912 58.4028 51.1297 47.559 51.9545 33.5131C52.7793 19.4672 42.2916 7.311 28.2827 6.07553Z" fill="white"/>
<path d="M15.08 29V26.504H20.072V44H17.312V29H15.08ZM23.8306 35.024C23.8306 32.256 24.2946 30.096 25.2226 28.544C26.1666 26.976 27.7826 26.192 30.0706 26.192C32.3586 26.192 33.9666 26.976 34.8946 28.544C35.8386 30.096 36.3106 32.256 36.3106 35.024C36.3106 37.824 35.8386 40.016 34.8946 41.6C33.9666 43.168 32.3586 43.952 30.0706 43.952C27.7826 43.952 26.1666 43.168 25.2226 41.6C24.2946 40.016 23.8306 37.824 23.8306 35.024ZM33.6226 35.024C33.6226 33.728 33.5346 32.632 33.3586 31.736C33.1986 30.84 32.8626 30.112 32.3506 29.552C31.8386 28.976 31.0786 28.688 30.0706 28.688C29.0626 28.688 28.3026 28.976 27.7906 29.552C27.2786 30.112 26.9346 30.84 26.7586 31.736C26.5986 32.632 26.5186 33.728 26.5186 35.024C26.5186 36.368 26.5986 37.496 26.7586 38.408C26.9186 39.32 27.2546 40.056 27.7666 40.616C28.2946 41.176 29.0626 41.456 30.0706 41.456C31.0786 41.456 31.8386 41.176 32.3506 40.616C32.8786 40.056 33.2226 39.32 33.3826 38.408C33.5426 37.496 33.6226 36.368 33.6226 35.024Z" fill="white"/>
</svg>
