<svg width="36" height="37" viewBox="0 0 36 37" fill="none" xmlns="http://www.w3.org/2000/svg">
<g clip-path="url(#clip0_1220_3856)">
<circle cx="18" cy="18.043" r="18" fill="#8CD2FF"/>
<path fill-rule="evenodd" clip-rule="evenodd" d="M8.82745 11.793H20.3193C21.7668 11.793 22.9402 12.9664 22.9402 14.4139V22.68C22.9402 23.1254 22.5791 23.4864 22.1338 23.4864H10.6419C9.19444 23.4864 8.021 22.313 8.021 20.8655V12.5994C8.021 12.154 8.38206 11.793 8.82745 11.793Z" fill="white"/>
<path fill-rule="evenodd" clip-rule="evenodd" d="M26.3287 15.1844L30.7641 12.2128C30.9491 12.0889 31.1996 12.1383 31.3236 12.3234C31.368 12.3897 31.3918 12.4679 31.3918 12.5478V23.0861C31.3918 23.3088 31.2112 23.4893 30.9885 23.4893C30.9018 23.4893 30.8174 23.4613 30.7478 23.4095L26.3124 20.1077C26.2101 20.0316 26.1499 19.9117 26.1499 19.7843V15.5194C26.1499 15.3849 26.217 15.2593 26.3287 15.1844L26.3287 15.1844Z" fill="white"/>
</g>
<defs>
<clipPath id="clip0_1220_3856">
<rect width="36" height="36" fill="white" transform="translate(0 0.0429688)"/>
</clipPath>
</defs>
</svg>
