<svg width="179" height="52" viewBox="0 0 179 52" fill="none" xmlns="http://www.w3.org/2000/svg">
<ellipse cx="90" cy="25.5" rx="79" ry="20.5" fill="#E0FFBB"/>
<path d="M73.2916 51.1088C53.7882 50.8499 14.3053 46.8967 2.38906 35.0764C-1.33592 30.9898 -0.26327 25.6139 2.60688 21.4305C5.62347 17.2054 11.2265 14.3127 16.9503 12.1158C54.8901 -1.73276 115.967 -3.5727 156.273 5.90421C164.585 8.1443 174.329 10.863 178.125 17.0641C180.294 21.4946 178.239 26.7123 174.183 30.2745C170.807 33.1475 166.173 35.0816 161.463 36.6417C131.249 46.184 83.7637 46.6378 51.1816 43.3123C39.7047 41.7352 22.3776 40.1424 14.2431 33.8302C12.0868 31.7287 11.9751 28.9106 12.9929 26.4861C17.062 16.8144 36.7888 12.7723 48.9594 10.0156C64.7398 6.87714 81.201 5.85844 97.5323 5.74075C101.406 5.78129 105.284 5.84667 109.147 6.07552C110.853 6.3109 113.183 6.07944 114.453 6.99614C114.66 8.52484 114.279 10.387 113.025 11.6555C111.414 10.8199 109.042 10.6289 106.998 10.3713C81.2138 7.78468 53.9822 9.77762 30.2156 17.6147C23.8822 19.9725 16.3755 22.6912 13.6207 27.6683C14.8306 35.3955 33.342 38.4398 42.1923 40.1699C59.2649 43.0887 76.9306 43.8301 94.4297 43.5516C117.77 42.9579 160.429 39.907 175.691 26.1657C180.743 21.7038 174.311 16.3632 169.033 13.7491C148.957 4.56774 122.838 2.85857 99.5037 2.41396C71.7339 2.20211 43.3162 5.44128 18.3012 14.3546C-9.08239 24.5167 0.126613 35.2124 24.6016 41.8084C35.5495 44.7455 47.1308 46.3069 58.6993 47.3492C90.4009 50.0836 121.949 45.2215 152.475 39.5108C155.571 38.9825 158.673 38.4712 161.776 37.9612C162.998 38.1325 161.481 41.3063 161.338 41.7561C161.175 42.0203 161.042 42.4008 160.623 42.4963C147.15 44.5821 133.607 46.4364 120.03 48.1442C104.603 50.0012 88.9585 51.386 73.2916 51.1088Z" fill="#8FDA5D"/>
</svg>
