<svg width="81" height="70" viewBox="0 0 81 70" fill="none" xmlns="http://www.w3.org/2000/svg">
<g filter="url(#filter0_d)">
<path d="M56.3934 60.9312L41.8673 24.7544C41.7376 24.4314 41.3919 24.2503 41.052 24.328C40.7681 24.3931 40.4783 24.3931 40.1944 24.328C39.8545 24.2503 39.5091 24.4314 39.3791 24.7544L24.8533 60.9312C24.3941 62.0749 24.8069 63.3939 25.835 64.0681C30.2526 66.965 36.9963 67.3977 40.6234 67.3977C44.2501 67.3977 50.9938 66.965 55.4114 64.0681C56.4395 63.3943 56.8526 62.0749 56.3934 60.9312Z" fill="#FFDB56"/>
<path d="M41.867 24.7544C41.7374 24.4314 41.3916 24.2503 41.0517 24.328C40.7678 24.3931 40.478 24.3931 40.1941 24.328C39.8543 24.2503 39.5089 24.4314 39.3789 24.7544L38.9609 25.7954L54.073 64.8388C54.5373 64.6035 54.9851 64.3476 55.4111 64.0681C56.4392 63.3943 56.852 62.0749 56.3928 60.9316L41.867 24.7544Z" fill="#F6C134"/>
<path d="M55.1701 57.8851L52.6194 51.5332C42.5385 56.1228 32.7499 58.6186 25.2384 59.973L24.8533 60.9318C24.3941 62.0755 24.8072 63.3945 25.835 64.0687C26.8432 64.7297 27.9729 65.2611 29.1582 65.6897C36.3188 64.4042 45.5671 62.0796 55.1701 57.8851Z" fill="#F2433B"/>
<path d="M30.0661 47.951L26.8857 55.8715C34.0566 54.2436 42.4838 51.6859 51.068 47.6704L48.3652 40.9385C42.0725 44.0047 35.8296 46.273 30.0661 47.951Z" fill="#F2433B"/>
<path d="M35.5229 34.3601L31.9658 43.2193C36.7454 41.5512 41.7367 39.4586 46.7177 36.8346L44.0496 30.1899C41.2043 31.7505 38.3483 33.1343 35.5229 34.3601Z" fill="#F2433B"/>
<path d="M51.9087 59.245C52.9902 58.8145 54.0779 58.3627 55.1712 57.8851L52.6205 51.5332C51.5618 52.0152 50.5068 52.4726 49.457 52.9096L51.9087 59.245Z" fill="#D83636"/>
<path d="M45.3643 42.34L47.9658 49.0608C48.9961 48.6175 50.0308 48.1543 51.0677 47.6689L48.3646 40.937C47.3626 41.4253 46.3622 41.8911 45.3643 42.34Z" fill="#D83636"/>
<path d="M41.2373 31.6727L43.8057 38.3085C44.776 37.8364 45.7474 37.3456 46.7187 36.8341L44.0506 30.1895C43.1134 30.7035 42.1752 31.1962 41.2373 31.6727Z" fill="#D83636"/>
<path d="M40.6242 19.1338C38.7882 19.1338 37.2939 20.6277 37.2939 22.4637C37.2939 24.3 38.7878 25.7939 40.6242 25.7939C42.4602 25.7939 43.9541 24.3 43.9541 22.4637C43.9541 20.6277 42.4602 19.1338 40.6242 19.1338Z" fill="#F2433B"/>
<path d="M40.6237 19.1338C40.0234 19.1338 39.4604 19.294 38.9736 19.5731C39.9763 20.1475 40.6542 21.2275 40.6542 22.4637C40.6542 23.6998 39.9763 24.7798 38.9736 25.3546C39.4604 25.6334 40.0234 25.7935 40.6237 25.7935C42.4596 25.7935 43.9535 24.3 43.9535 22.4637C43.9535 20.6277 42.4596 19.1338 40.6237 19.1338Z" fill="#D83636"/>
</g>
<path d="M23.7813 25.602C23.3502 26.1186 22.54 26.153 21.9718 25.6787C20.0487 24.0739 17.2973 24.1905 15.8384 25.9387C15.4073 26.4553 14.5971 26.4896 14.0289 26.0154C13.4607 25.5412 13.3495 24.7379 13.7806 24.2214C16.1004 21.4416 20.4753 21.2562 23.533 23.808C24.1012 24.2822 24.2124 25.0854 23.7813 25.602Z" fill="#ED3C6A"/>
<path d="M20.9782 44.1454C20.5027 44.7152 19.7066 44.8345 19.2001 44.4118C17.0694 42.6336 16.9634 39.2369 18.9638 36.8399C19.4393 36.2701 20.2355 36.1508 20.742 36.5735C21.2485 36.9962 21.2736 37.8008 20.798 38.3706C19.7472 39.6298 19.8029 41.4142 20.9222 42.3483C21.4286 42.771 21.4538 43.5756 20.9782 44.1454Z" fill="#FFC700"/>
<path d="M60.4021 41.0474C59.9794 41.5539 59.1748 41.579 58.605 41.1035C58.0351 40.6279 57.9159 39.8318 58.3386 39.3253C59.2726 38.206 59.0081 36.4404 57.749 35.3896C57.1792 34.9141 57.0599 34.118 57.4826 33.6115C57.9053 33.105 58.7099 33.0799 59.2797 33.5554C61.6767 35.5558 62.1803 38.9167 60.4021 41.0474Z" fill="#FF8800"/>
<path d="M65.2057 19.1726C64.7674 19.6978 63.9863 19.7682 63.4611 19.3299C61.7388 17.8926 59.1682 18.1244 57.7308 19.8467C57.2925 20.372 56.5114 20.4424 55.9862 20.0041C55.461 19.5658 55.3905 18.7847 55.8288 18.2594C58.1414 15.4883 62.2773 15.1153 65.0484 17.4279C65.5736 17.8662 65.644 18.6474 65.2057 19.1726Z" fill="#008EF7"/>
<path d="M38.5435 14.357C38.0858 14.9054 37.2703 14.9789 36.7219 14.5213C36.1735 14.0637 36.1 13.2481 36.5576 12.6997C37.0795 12.0743 36.9953 11.141 36.3699 10.6191C34.6496 9.18336 34.418 6.61565 35.8537 4.89528C36.3756 4.26981 36.2914 3.33642 35.6661 2.81454C35.1177 2.3569 35.0441 1.54132 35.5018 0.99295C35.9594 0.444583 36.775 0.371024 37.3233 0.828659C39.0437 2.26438 39.2753 4.83209 37.8396 6.55246C37.3177 7.17781 37.4019 8.11119 38.0272 8.63308C39.7476 10.0689 39.9792 12.6366 38.5435 14.357Z" fill="#FFA800"/>
<path d="M30.6175 31.6855C31.0587 32.2472 30.961 33.0603 30.3993 33.5015C29.8376 33.9426 29.0245 33.8449 28.5834 33.2832C28.0803 32.6426 27.1498 32.5308 26.5092 33.0339C24.747 34.418 22.1873 34.1103 20.8033 32.3481C20.3 31.7075 19.3696 31.5957 18.729 32.0988C18.1673 32.5399 17.3542 32.4422 16.9131 31.8805C16.4719 31.3188 16.5696 30.5058 17.1313 30.0646C18.8935 28.6806 21.4533 28.9882 22.8373 30.7504C23.3404 31.391 24.2709 31.5028 24.9114 30.9997C26.6738 29.6157 29.2335 29.9233 30.6175 31.6855Z" fill="#FFA800"/>
<path d="M51.2796 7.62089C50.5967 7.86067 50.2562 8.61201 50.5191 9.29899C50.8191 10.0825 50.4294 10.9423 49.6505 11.2158C47.5078 11.9681 46.4358 14.3337 47.2609 16.4889C47.5608 17.2724 47.1712 18.1322 46.3922 18.4057C45.7093 18.6455 45.3688 19.3968 45.6318 20.0838C45.8948 20.7708 46.6616 21.1333 47.3446 20.8936C49.4872 20.1413 50.5592 17.7757 49.7342 15.6205C49.4342 14.837 49.8239 13.9772 50.6028 13.7037C52.7455 12.9514 53.8175 10.5858 52.9924 8.43062C52.7294 7.74364 51.9626 7.3811 51.2796 7.62089Z" fill="#FF7799"/>
<path d="M22.0621 11.7781C21.6361 14.0462 23.114 16.1817 25.3567 16.5385C26.1719 16.6682 26.7092 17.4444 26.5543 18.2689C26.1282 20.5371 27.6061 22.6726 29.8488 23.0293C30.5636 23.1431 31.2532 22.6492 31.3891 21.9262C31.5249 21.2033 31.0554 20.525 30.3406 20.4112C29.5253 20.2815 28.9881 19.5053 29.143 18.6808C29.5691 16.4126 28.0912 14.2771 25.8485 13.9204C25.0332 13.7907 24.496 13.0144 24.6509 12.1899C24.7867 11.4669 24.3173 10.7887 23.6024 10.6749C22.8876 10.5611 22.198 11.0551 22.0621 11.7781Z" fill="#00B9FF"/>
<path d="M49.8993 30.0283C51.8345 31.2856 54.3718 30.7317 55.5553 28.7936C55.9856 28.089 56.9079 27.8877 57.6114 28.3448C59.5466 29.602 62.0839 29.0482 63.2674 27.1101C63.6446 26.4923 63.4504 25.6666 62.8336 25.2659C62.2167 24.8651 61.4108 25.041 61.0336 25.6588C60.6033 26.3633 59.681 26.5647 58.9775 26.1076C57.0423 24.8504 54.505 25.4042 53.3215 27.3423C52.8912 28.0469 51.9689 28.2482 51.2654 27.7911C50.6486 27.3904 49.8427 27.5663 49.4654 28.1841C49.0881 28.8017 49.2824 29.6275 49.8993 30.0283Z" fill="#00B9FF"/>
<defs>
<filter id="filter0_d" x="0.666992" y="3.13379" width="79.9127" height="96.2639" filterUnits="userSpaceOnUse" color-interpolation-filters="sRGB">
<feFlood flood-opacity="0" result="BackgroundImageFix"/>
<feColorMatrix in="SourceAlpha" type="matrix" values="0 0 0 0 0 0 0 0 0 0 0 0 0 0 0 0 0 0 127 0" result="hardAlpha"/>
<feOffset dy="8"/>
<feGaussianBlur stdDeviation="12"/>
<feComposite in2="hardAlpha" operator="out"/>
<feColorMatrix type="matrix" values="0 0 0 0 0 0 0 0 0 0 0 0 0 0 0 0 0 0 0.15 0"/>
<feBlend mode="normal" in2="BackgroundImageFix" result="effect1_dropShadow"/>
<feBlend mode="normal" in="SourceGraphic" in2="effect1_dropShadow" result="shape"/>
</filter>
</defs>
</svg>
