<svg width="116" height="116" viewBox="0 0 116 116" fill="none" xmlns="http://www.w3.org/2000/svg">
<g filter="url(#filter0_d)">
<circle cx="58" cy="50" r="32" fill="white" stroke="#F2BB80" stroke-width="4"/>
<path d="M59.2645 54.3788H57.999C57.999 50.8842 60.8319 48.0514 64.3264 48.0514H65.5919C65.5919 51.5459 62.759 54.3788 59.2645 54.3788Z" fill="#6A9923"/>
<path d="M59.2645 45.5205H57.999C57.999 42.026 60.8319 39.1931 64.3264 39.1931H65.5919C65.5919 42.6876 62.759 45.5205 59.2645 45.5205Z" fill="#6A9923"/>
<path d="M58 36.6622H59.2655C61.7116 36.6622 63.6946 34.6792 63.6946 32.233H62.4292C59.983 32.233 58 34.216 58 36.6622Z" fill="#6A9923"/>
<path d="M50.4455 56.1252L50.4069 56.1031L45.9695 51.1728C45.3111 50.4434 44.186 50.3859 43.4565 51.0443C43.4533 51.0473 43.4501 51.0503 43.4468 51.0532V41.8317C43.4695 40.7944 42.684 39.9173 41.6505 39.8259C40.6036 39.7697 39.7094 40.5727 39.6532 41.6195C39.6513 41.6543 39.6504 41.6892 39.6504 41.7241V53.7C39.6502 54.5602 39.8695 55.4063 40.2876 56.1581L45.9778 66.4009V68.9319H54.8361V63.6959C54.8359 60.5677 53.1606 57.6791 50.4455 56.1252Z" fill="#F2BB80"/>
<path d="M57.9999 60.7061C57.6505 60.7061 57.3672 60.4228 57.3672 60.0734V36.0293C57.3672 35.6799 57.6505 35.3966 57.9999 35.3966C58.3494 35.3966 58.6327 35.6799 58.6327 36.0293V60.0734C58.6327 60.4228 58.3494 60.7061 57.9999 60.7061Z" fill="#88B337"/>
<path d="M50.4072 48.0514H51.6727C55.1672 48.0514 58.0001 50.8842 58.0001 54.3788H56.7346C53.2401 54.3788 50.4072 51.5459 50.4072 48.0514Z" fill="#88B337"/>
<path d="M50.4072 39.1931H51.6727C55.1672 39.1931 58.0001 42.026 58.0001 45.5205H56.7346C53.2401 45.5205 50.4072 42.6876 50.4072 39.1931Z" fill="#88B337"/>
<path d="M58.0013 36.6622H56.7358C54.2896 36.6622 52.3066 34.6792 52.3066 32.233H53.5721C56.0183 32.233 58.0013 34.216 58.0013 36.6622Z" fill="#88B337"/>
<path d="M48.4623 59.8994C48.284 59.8995 48.114 59.8244 47.994 59.6925L42.81 53.9903C41.9412 53.0367 41.9761 51.5684 42.8891 50.657C43.1404 50.4142 43.541 50.4212 43.7838 50.6725C44.0207 50.9177 44.0207 51.3065 43.7838 51.5517C43.3492 51.9859 43.3327 52.6851 43.7465 53.1393L48.9298 58.8409C49.1651 59.0993 49.1462 59.4995 48.8877 59.7347C48.7713 59.8406 48.6196 59.8994 48.4623 59.8994Z" fill="#E8A16D"/>
<path d="M61.1631 63.6959V68.9319H70.0214V66.4009L75.7116 56.1581C76.1297 55.4063 76.349 54.5602 76.3488 53.7V41.8317C76.3715 40.7944 75.586 39.9173 74.5525 39.8259C73.5056 39.7697 72.6114 40.5727 72.5551 41.6195C72.5532 41.6543 72.5524 41.6892 72.5524 41.7241V51.0532C71.8279 50.3894 70.7024 50.4385 70.0385 51.1631C70.0355 51.1663 70.0326 51.1696 70.0296 51.1728L65.5923 56.1031L65.5537 56.1252C62.8386 57.6791 61.1633 60.5677 61.1631 63.6959Z" fill="#F2BB80"/>
<path d="M67.5376 59.8994C67.7159 59.8995 67.8859 59.8244 68.0059 59.6925L73.1899 53.9903C74.0587 53.0367 74.0238 51.5684 73.1108 50.657C72.8594 50.4142 72.4589 50.4212 72.2161 50.6725C71.9792 50.9177 71.9792 51.3065 72.2161 51.5517C72.6507 51.9859 72.6672 52.6851 72.2534 53.1393L67.07 58.8409C66.8348 59.0993 66.8537 59.4995 67.1122 59.7347C67.2286 59.8406 67.3802 59.8994 67.5376 59.8994Z" fill="#E8A16D"/>
</g>
<defs>
<filter id="filter0_d" x="0" y="0" width="116" height="116" filterUnits="userSpaceOnUse" color-interpolation-filters="sRGB">
<feFlood flood-opacity="0" result="BackgroundImageFix"/>
<feColorMatrix in="SourceAlpha" type="matrix" values="0 0 0 0 0 0 0 0 0 0 0 0 0 0 0 0 0 0 127 0"/>
<feOffset dy="8"/>
<feGaussianBlur stdDeviation="12"/>
<feColorMatrix type="matrix" values="0 0 0 0 0 0 0 0 0 0 0 0 0 0 0 0 0 0 0.15 0"/>
<feBlend mode="normal" in2="BackgroundImageFix" result="effect1_dropShadow"/>
<feBlend mode="normal" in="SourceGraphic" in2="effect1_dropShadow" result="shape"/>
</filter>
</defs>
</svg>
