<svg width="331" height="332" viewBox="0 0 331 332" fill="none" xmlns="http://www.w3.org/2000/svg">
<g filter="url(#filter0_d)">
<ellipse cx="165.5" cy="163" rx="159.5" ry="160" fill="#FFAB37"/>
</g>
<path d="M134.058 240.36V235.08H136.848C138.888 235.08 139.758 236.1 139.758 237.72C139.758 239.34 138.888 240.36 136.848 240.36H134.058ZM144.978 237.72C144.978 233.85 142.398 230.94 137.238 230.94H128.928V252H134.058V244.44H137.238C142.608 244.44 144.978 241.2 144.978 237.72ZM147.849 230.94V252H159.699V248.04H152.979V230.94H147.849ZM176.716 252H182.146L174.526 230.94H168.586L160.966 252H166.336L167.596 248.28H175.456L176.716 252ZM174.136 244.32H168.946L171.526 236.61L174.136 244.32ZM190.305 245.04V252H195.435V245.04L202.725 230.94H196.965L192.915 239.76L188.835 230.94H183.015L190.305 245.04Z" fill="white"/>
<g clip-path="url(#clip0)">
<g clip-path="url(#clip1)">
<g clip-path="url(#clip2)">
<path fill-rule="evenodd" clip-rule="evenodd" d="M243.119 131.304C242.507 130.702 241.587 129.499 240.668 128.295C240.361 127.995 240.361 127.995 240.055 127.694C239.136 126.791 238.216 126.189 236.991 125.588L191.637 100.017C191.637 100.017 191.33 100.017 191.33 99.7161L145.67 73.8443C141.686 71.4376 137.09 71.1368 132.799 72.0392C128.509 73.2426 124.832 75.9501 122.38 79.861C121.461 81.0642 121.154 82.5684 120.542 83.7717C120.235 84.6742 120.235 85.8776 119.929 87.0809C119.929 87.3817 119.929 87.9835 119.929 88.2843V140.329V192.072C119.929 196.585 121.767 200.796 124.832 203.805C127.896 206.813 132.187 208.618 136.783 208.618C138.315 208.618 140.154 208.317 141.686 207.716C143.219 207.114 144.751 206.512 145.976 205.61L191.024 180.039L191.637 179.738L236.991 154.167C237.297 154.167 237.297 153.866 237.603 153.866C241.281 151.46 244.039 147.85 244.958 143.939C246.184 139.727 245.571 135.214 243.119 131.304V131.304ZM229.943 140.631C229.943 140.931 229.637 141.232 229.33 141.232H229.024L183.977 167.104L183.67 167.405L138.623 192.976C138.316 192.976 138.316 193.277 138.01 193.277C138.01 193.277 137.703 193.277 137.703 193.578H137.397C137.091 193.578 136.784 193.277 136.478 193.277C136.171 192.976 136.171 192.675 136.171 192.374V140.33V88.5862V88.2854V87.9846C136.478 87.6837 136.784 87.3829 137.091 87.3829C137.397 87.3829 137.703 87.3829 138.01 87.3829L183.364 112.954L183.67 113.255L229.33 139.126L229.637 139.427L229.943 139.728C229.943 140.029 229.943 140.33 229.943 140.631Z" fill="white"/>
</g>
</g>
</g>
<defs>
<filter id="filter0_d" x="0" y="0" width="331" height="332" filterUnits="userSpaceOnUse" color-interpolation-filters="sRGB">
<feFlood flood-opacity="0" result="BackgroundImageFix"/>
<feColorMatrix in="SourceAlpha" type="matrix" values="0 0 0 0 0 0 0 0 0 0 0 0 0 0 0 0 0 0 127 0" result="hardAlpha"/>
<feOffset dy="3"/>
<feGaussianBlur stdDeviation="3"/>
<feColorMatrix type="matrix" values="0 0 0 0 0 0 0 0 0 0 0 0 0 0 0 0 0 0 0.160784 0"/>
<feBlend mode="normal" in2="BackgroundImageFix" result="effect1_dropShadow"/>
<feBlend mode="normal" in="SourceGraphic" in2="effect1_dropShadow" result="shape"/>
</filter>
<clipPath id="clip0">
<rect width="125.525" height="137.411" fill="white" transform="translate(119.929 71.5713)"/>
</clipPath>
<clipPath id="clip1">
<rect width="125.642" height="137.047" fill="white" transform="translate(119.929 71.5713)"/>
</clipPath>
<clipPath id="clip2">
<rect width="125.642" height="137.047" fill="white" transform="translate(119.929 71.5713)"/>
</clipPath>
</defs>
</svg>
