<svg width="32" height="29" viewBox="0 0 32 29" fill="none" xmlns="http://www.w3.org/2000/svg">
<path d="M27.3106 5.53184C26.957 4.39475 25.896 3.5049 24.4605 3.1423C23.0459 2.79617 21.5271 3.04342 20.4246 3.83438L18.0113 5.51536L17.5329 2.99403C17.304 1.84046 16.3679 0.86811 14.9741 0.406736C14.7037 0.324283 14.4332 0.258365 14.1628 0.225405C13.0186 0.0441298 11.8327 0.241885 10.8757 0.802246C9.60669 1.52735 8.96184 2.74684 9.16981 3.96628C9.39872 5.18577 10.4389 6.22398 11.9159 6.63597L14.1628 7.27868L16.9296 8.08618C16.9505 8.08618 16.9505 8.08618 16.9505 8.08618L21.7561 9.48689C22.2345 9.61878 22.7338 9.68475 23.2123 9.68475C24.2318 9.68475 25.2303 9.38801 26.0209 8.82776C27.1858 8.00378 27.6851 6.73479 27.3106 5.53184Z" fill="#FE9923"/>
<path d="M26.0207 8.82797C25.2302 9.38822 24.2316 9.68497 23.2121 9.68497C22.7337 9.68497 22.2344 9.61899 21.7559 9.4871L16.9503 8.08639C16.9503 8.08639 16.9503 8.08639 16.9295 8.08639L14.1626 7.2789V0.225586C14.433 0.2586 14.7035 0.324463 14.9739 0.406916C16.3677 0.868289 17.304 1.84064 17.5327 2.99421L18.0111 5.51553L20.4244 3.83456C21.527 3.04359 23.0457 2.79634 24.4603 3.14247C25.8958 3.50507 26.9568 4.39492 27.3105 5.53201C27.685 6.73501 27.1857 8.004 26.0207 8.82797Z" fill="#FE8821"/>
<path d="M31.2427 13.0196L29.828 16.1178C29.6615 16.4474 29.2662 16.6451 28.8502 16.6451C28.7253 16.6451 28.6005 16.6286 28.4966 16.5957L17.7409 13.4976L16.7632 10.9432L14.1628 11.4046L11.8744 11.8166L1.11879 8.71844C0.577894 8.5537 0.307514 8.07574 0.494678 7.66375L1.93014 4.5657C2.20059 3.93948 2.78316 3.44498 3.5321 3.16488C4.28104 2.88478 5.13392 2.85177 5.92447 3.08248L14.1628 5.45554L14.7246 5.62028C14.7246 5.62028 16.9713 8.85033 17.0338 8.85033C17.0755 8.85033 17.97 8.45482 18.8438 8.07574C19.7173 7.69671 20.5911 7.30125 20.5911 7.30125L29.3703 9.83905C30.1608 10.0698 30.7849 10.5312 31.1385 11.1245C31.4923 11.7177 31.5339 12.3934 31.2427 13.0196Z" fill="#FF3E75"/>
<path d="M31.2424 13.0191L29.8278 16.1173C29.6613 16.4469 29.266 16.6447 28.8499 16.6447C28.7251 16.6447 28.6003 16.6282 28.4963 16.5953L17.7408 13.4971L16.7631 10.9428L14.1626 11.4041V5.45508L14.7244 5.61982C14.7244 5.61982 16.9711 8.84987 17.0336 8.84987C17.0753 8.84987 17.9697 8.45436 18.8435 8.07528C19.7171 7.69625 20.5909 7.30079 20.5909 7.30079L29.37 9.83859C30.1606 10.0693 30.7847 10.5308 31.1383 11.1241C31.4921 11.7173 31.5336 12.393 31.2424 13.0191Z" fill="#FC1A40"/>
<path d="M26.9985 14.4202L23.6283 13.4478C23.5242 13.4149 23.3994 13.3984 23.2747 13.3984H1.68033C1.09775 13.3984 0.640137 13.7609 0.640137 14.2224V25.8131C0.640137 27.1808 2.03392 28.285 3.7607 28.285H24.5645C26.2913 28.285 27.6851 27.1808 27.6851 25.8131V15.1947C27.6851 14.8486 27.4145 14.5355 26.9985 14.4202Z" fill="#FC1A40"/>
<path d="M27.6851 15.1947V25.8131C27.6851 27.1808 26.2913 28.285 24.5645 28.285H14.1626V13.3984H23.2747C23.3995 13.3984 23.5243 13.4149 23.6283 13.4478L26.9985 14.4202C27.4145 14.5355 27.6851 14.8486 27.6851 15.1947Z" fill="#C60034"/>
<path d="M11.042 13.3984V28.285H17.2831V13.3984H11.042Z" fill="#FCBF29"/>
<path d="M14.7241 5.62012L14.1624 6.83961L11.874 11.8165L14.1624 12.4757L16.7628 13.2173L17.7406 13.4974L20.5908 7.30109L14.7241 5.62012Z" fill="#FCBF29"/>
<path d="M17.2837 13.3984H14.1631V28.285H17.2837V13.3984Z" fill="#FE9923"/>
<path d="M20.5909 7.30109L17.7408 13.4974L16.7631 13.2173L14.1626 12.4757V6.83961L14.7243 5.62012L20.5909 7.30109Z" fill="#FE9923"/>
</svg>
