<svg width="31" height="31" viewBox="0 0 31 31" fill="none" xmlns="http://www.w3.org/2000/svg">
<path d="M29.384 5.39297L25.5358 1.54844C25.2644 1.27579 24.9417 1.05947 24.5864 0.911887C24.2311 0.764308 23.8502 0.688384 23.4654 0.688477C22.6814 0.688477 21.9442 0.995606 21.3914 1.54844L17.2506 5.68926C16.9779 5.96071 16.7616 6.28336 16.614 6.63866C16.4665 6.99397 16.3905 7.37493 16.3906 7.75967C16.3906 8.54375 16.6978 9.28086 17.2506 9.83369L20.2785 12.8616C19.5697 14.4239 18.5843 15.8451 17.3698 17.0566C16.1584 18.2741 14.7373 19.2631 13.1748 19.9762L10.1469 16.9482C9.87543 16.6756 9.55278 16.4593 9.19747 16.3117C8.84217 16.1641 8.4612 16.0882 8.07647 16.0883C7.29239 16.0883 6.55528 16.3954 6.00244 16.9482L1.85801 21.0854C1.58503 21.3574 1.36852 21.6806 1.22093 22.0366C1.07335 22.3925 0.997599 22.7741 0.998049 23.1595C0.998049 23.9436 1.30518 24.6807 1.85801 25.2335L5.69893 29.0744C6.58057 29.9597 7.79824 30.4619 9.04844 30.4619C9.31221 30.4619 9.56514 30.4402 9.81446 30.3969C14.6852 29.5947 19.5161 27.004 23.4148 23.1089C27.31 19.2174 29.8971 14.39 30.7101 9.50488C30.9558 8.0126 30.4607 6.47695 29.384 5.39297Z" fill="#F89838"/>
</svg>
