<svg width="32" height="32" viewBox="0 0 32 32" fill="none" xmlns="http://www.w3.org/2000/svg">
<path d="M24.5338 2.46318H7.46631C7.77089 2.27068 8.08214 2.08839 8.40006 1.91631C10.6518 0.697735 13.1644 0.0409975 15.7244 0.00195312H16.2757C16.5819 0.00632808 16.8857 0.0207029 17.1876 0.0425777C19.7982 0.232456 22.3216 1.06392 24.5338 2.46318Z" fill="#DB1B1B"/>
<path d="M27.5469 4.92412H4.4519C4.4669 4.90787 4.48253 4.89224 4.49815 4.87599C4.78982 4.576 5.09086 4.28787 5.40128 4.01163C5.70003 3.74788 6.00857 3.49476 6.3269 3.25226C6.6944 2.97351 7.0769 2.70914 7.46565 2.46289H24.5332C25.6341 3.15764 26.6462 3.98416 27.5469 4.92412Z" fill="white"/>
<path d="M29.4857 7.38443H2.5144C2.74253 7.02881 2.9844 6.68131 3.2394 6.34569C3.61582 5.84858 4.02088 5.37382 4.45253 4.92383H27.5475C28.2719 5.67916 28.921 6.50325 29.4857 7.38443Z" fill="#DB1B1B"/>
<path d="M30.7733 9.84697H1.22583C1.30333 9.65947 1.38458 9.47572 1.47021 9.29197C1.74215 8.70365 2.04959 8.1324 2.39083 7.58137C2.43146 7.51887 2.47271 7.45137 2.51583 7.38574H29.4852C29.9853 8.16715 30.4163 8.99068 30.7733 9.84697Z" fill="white"/>
<path d="M31.5716 12.3057H0.429077C0.518244 11.9244 0.62241 11.5494 0.741577 11.1807C0.884494 10.7257 1.04699 10.2807 1.22908 9.8457H30.7741C31.1066 10.6426 31.3733 11.4653 31.5716 12.3057Z" fill="#DB1B1B"/>
<path d="M31.9531 14.7688H0.046875C0.109512 13.9397 0.237196 13.1168 0.42875 12.3076H31.5713C31.7628 13.1168 31.8905 13.9397 31.9531 14.7688Z" fill="white"/>
<path d="M32 15.9982C32 16.4119 31.9844 16.8221 31.9531 17.2288H0.046875C0.015625 16.8226 0 16.4124 0 15.9982V15.2013C6.23109e-05 15.2221 0.00590543 15.2424 0.016875 15.2601C0.016875 15.2169 0.020625 15.1738 0.023125 15.1313C0.029375 15.0095 0.0375 14.8888 0.046875 14.7676H31.9531C31.9844 15.1738 32 15.584 32 15.9982Z" fill="#DB1B1B"/>
<path d="M31.9531 17.2295C31.8905 18.0586 31.7629 18.8816 31.5713 19.6907H0.42875C0.237143 18.8816 0.109458 18.0586 0.046875 17.2295H31.9531Z" fill="white"/>
<path d="M31.5716 19.6904C31.3737 20.5311 31.107 21.3541 30.7741 22.151H1.22658C0.893664 21.3541 0.62693 20.5311 0.429077 19.6904H31.5716Z" fill="#DB1B1B"/>
<path d="M30.7733 22.1514C30.4167 23.0078 29.9857 23.8314 29.4852 24.6126H2.51396C2.01349 23.8314 1.58246 23.0078 1.22583 22.1514H30.7733Z" fill="white"/>
<path d="M29.485 24.6123C28.9208 25.4938 28.2719 26.3181 27.5475 27.0735H4.4519C3.72757 26.3181 3.07866 25.4938 2.5144 24.6123H29.485Z" fill="#DB1B1B"/>
<path d="M27.5469 27.0732C26.6457 28.0127 25.6337 28.8391 24.5332 29.5345H7.46565C6.3651 28.8391 5.3531 28.0127 4.4519 27.0732H27.5469Z" fill="white"/>
<path d="M24.5339 29.5352C22.071 31.0943 19.227 31.9466 16.3126 31.9989H15.6876C12.7726 31.948 9.92774 31.0968 7.46387 29.5383L24.5339 29.5352Z" fill="#DB1B1B"/>
<path d="M17.1875 0.0425777V17.2299H0.046875C0.015625 16.8233 0 16.4128 0 15.9987V15.2018C6.23109e-05 15.2226 0.00590543 15.2429 0.016875 15.2606C0.016875 15.2174 0.020625 15.1743 0.023125 15.1318C0.029375 15.0099 0.0375 14.8893 0.046875 14.7681C0.109512 13.9389 0.237196 13.116 0.42875 12.3068C0.517917 11.9256 0.622083 11.5506 0.74125 11.1818C0.884167 10.7269 1.04667 10.2819 1.22875 9.84686C1.30625 9.65936 1.3875 9.47561 1.47312 9.29187C1.74507 8.70354 2.05251 8.13229 2.39375 7.58126C2.43438 7.51876 2.47563 7.45126 2.51875 7.38563C2.74688 7.03001 2.98875 6.68252 3.24375 6.34689C3.61873 5.84969 4.02233 5.37472 4.4525 4.92441C4.4675 4.90816 4.48313 4.89253 4.49875 4.87628C4.79042 4.57629 5.09146 4.28816 5.40188 4.01192C5.70062 3.74817 6.00917 3.49505 6.3275 3.25255C6.695 2.9738 7.0775 2.70943 7.46625 2.46318C7.77083 2.27068 8.08208 2.08839 8.4 1.91631C10.6517 0.697735 13.1644 0.0409975 15.7244 0.00195312H16.2756C16.5819 0.00632808 16.8856 0.0207029 17.1875 0.0425777Z" fill="#3E436D"/>
<path d="M15.3376 1.02186L15.5564 1.69498C15.5638 1.71784 15.5782 1.73778 15.5976 1.75193C15.6171 1.76607 15.6405 1.77371 15.6645 1.77373H16.3751C16.3987 1.77465 16.4215 1.78291 16.4402 1.79735C16.4589 1.81179 16.4726 1.8317 16.4795 1.85431C16.4864 1.87692 16.486 1.90111 16.4785 1.92352C16.471 1.94593 16.4567 1.96544 16.4376 1.97935L15.8645 2.3956C15.8454 2.40946 15.8311 2.429 15.8237 2.45144C15.8163 2.47387 15.8161 2.49807 15.8233 2.5206L16.042 3.19434C16.0487 3.21704 16.0482 3.24126 16.0405 3.26365C16.0328 3.28603 16.0183 3.30545 15.9991 3.31921C15.9798 3.33297 15.9567 3.34037 15.9331 3.3404C15.9094 3.34042 15.8863 3.33306 15.867 3.31934L15.2945 2.90309C15.275 2.88906 15.2516 2.88151 15.2276 2.88151C15.2036 2.88151 15.1802 2.88906 15.1608 2.90309L14.5876 3.31934C14.5683 3.33306 14.5453 3.34042 14.5216 3.3404C14.4979 3.34037 14.4748 3.33297 14.4556 3.31921C14.4363 3.30545 14.4218 3.28603 14.4141 3.26365C14.4064 3.24126 14.4059 3.21704 14.4126 3.19434L14.632 2.5206C14.6388 2.49805 14.6385 2.47394 14.6312 2.45157C14.6238 2.4292 14.6097 2.40965 14.5908 2.3956L14.0176 1.97935C13.9983 1.96521 13.9839 1.94531 13.9765 1.92249C13.9691 1.89967 13.9691 1.8751 13.9765 1.8523C13.9839 1.82949 13.9984 1.80961 14.0178 1.7955C14.0372 1.78139 14.0605 1.77377 14.0845 1.77373H14.7926C14.8166 1.77361 14.84 1.76594 14.8594 1.75181C14.8788 1.73767 14.8933 1.71779 14.9008 1.69498L15.1195 1.02186C15.1265 0.998343 15.1409 0.977708 15.1605 0.963033C15.1802 0.948358 15.204 0.94043 15.2286 0.94043C15.2531 0.94043 15.277 0.948358 15.2966 0.963033C15.3163 0.977708 15.3307 0.998343 15.3376 1.02186Z" fill="white"/>
<path d="M7.73821 2.46218C7.73251 2.48263 7.73251 2.50424 7.73821 2.52468L7.95759 3.19718C7.96431 3.21987 7.96379 3.2441 7.95609 3.26648C7.94839 3.28886 7.9339 3.30829 7.91464 3.32205C7.89538 3.3358 7.8723 3.34321 7.84863 3.34323C7.82496 3.34326 7.80188 3.33589 7.78259 3.32217L7.20946 2.90655C7.19009 2.89257 7.1668 2.88505 7.1429 2.88505C7.119 2.88505 7.09572 2.89257 7.07634 2.90655L6.50321 3.32217C6.48768 3.33366 6.46947 3.34097 6.45031 3.34342C6.43115 3.34587 6.41168 3.34337 6.39376 3.33617C6.37584 3.32896 6.36006 3.31729 6.34793 3.30225C6.3358 3.28722 6.32772 3.26934 6.32446 3.2503C6.69196 2.97155 7.07446 2.70718 7.46321 2.46093C7.7678 2.26843 8.07905 2.08614 8.39696 1.91406C8.3898 1.93938 8.37413 1.96145 8.35259 1.97656L7.77946 2.39281C7.75783 2.41023 7.74318 2.43485 7.73821 2.46218Z" fill="white"/>
<path d="M15.337 6.2614L15.5557 6.93514C15.5631 6.95794 15.5776 6.97779 15.597 6.99184C15.6165 7.00588 15.6399 7.01338 15.6639 7.01326H16.3745C16.3985 7.01331 16.4218 7.02093 16.4412 7.03504C16.4606 7.04915 16.475 7.06903 16.4825 7.09183C16.4899 7.11464 16.4899 7.13921 16.4825 7.16203C16.4751 7.18485 16.4607 7.20475 16.4414 7.21889L15.8682 7.63513C15.8491 7.649 15.8348 7.66853 15.8274 7.69097C15.82 7.71341 15.8199 7.7376 15.827 7.76013L16.0432 8.43513C16.0499 8.45782 16.0494 8.48205 16.0417 8.50443C16.034 8.52681 16.0195 8.54624 16.0003 8.56C15.981 8.57375 15.9579 8.58116 15.9343 8.58118C15.9106 8.58121 15.8875 8.57385 15.8682 8.56012L15.2957 8.14388C15.2763 8.12984 15.2529 8.12229 15.2289 8.12229C15.2048 8.12229 15.1814 8.12984 15.162 8.14388L14.5889 8.56012C14.5696 8.57385 14.5465 8.58121 14.5228 8.58118C14.4991 8.58116 14.4761 8.57375 14.4568 8.56C14.4375 8.54624 14.423 8.52681 14.4154 8.50443C14.4077 8.48205 14.4071 8.45782 14.4139 8.43513L14.6332 7.76138C14.6401 7.73884 14.6398 7.71473 14.6324 7.69235C14.625 7.66998 14.6109 7.65043 14.592 7.63638L14.0189 7.22014C13.9995 7.206 13.9851 7.1861 13.9777 7.16328C13.9703 7.14046 13.9703 7.11589 13.9777 7.09308C13.9852 7.07028 13.9996 7.0504 14.019 7.03629C14.0384 7.02217 14.0617 7.01455 14.0857 7.01451H14.7939C14.8178 7.01453 14.8412 7.00699 14.8606 6.99297C14.88 6.97894 14.8945 6.95914 14.902 6.93639L15.1207 6.26265C15.128 6.2398 15.1424 6.21985 15.1617 6.20565C15.1811 6.19145 15.2044 6.18373 15.2284 6.1836C15.2524 6.18346 15.2758 6.19091 15.2953 6.20488C15.3148 6.21885 15.3294 6.23864 15.337 6.2614Z" fill="white"/>
<path d="M11.295 6.2606L11.5137 6.93434C11.5212 6.95714 11.5356 6.97699 11.5551 6.99104C11.5745 7.00508 11.5979 7.01258 11.6219 7.01247H12.33C12.354 7.01251 12.3773 7.02013 12.3967 7.03424C12.4161 7.04835 12.4305 7.06823 12.438 7.09103C12.4454 7.11384 12.4454 7.13841 12.438 7.16123C12.4306 7.18405 12.4162 7.20395 12.3969 7.21809L11.8237 7.63434C11.8047 7.64826 11.7905 7.6678 11.7831 7.69022C11.7757 7.71263 11.7755 7.7368 11.7825 7.75933L11.9994 8.43433C12.0063 8.45699 12.006 8.48128 11.9985 8.50376C11.9909 8.52624 11.9764 8.54577 11.9572 8.55958C11.9379 8.5734 11.9147 8.58081 11.891 8.58077C11.8673 8.58072 11.8442 8.57322 11.825 8.55933L11.2519 8.14308C11.2324 8.12904 11.209 8.12149 11.185 8.12149C11.161 8.12149 11.1376 8.12904 11.1181 8.14308L10.5469 8.55933C10.5276 8.57322 10.5045 8.58072 10.4808 8.58077C10.4571 8.58081 10.434 8.5734 10.4147 8.55958C10.3954 8.54577 10.381 8.52624 10.3734 8.50376C10.3658 8.48128 10.3655 8.45699 10.3725 8.43433L10.5912 7.76058C10.5983 7.73805 10.5981 7.71388 10.5907 7.69147C10.5833 7.66905 10.569 7.64951 10.55 7.63559L9.97686 7.21934C9.95749 7.2052 9.94308 7.1853 9.9357 7.16248C9.92832 7.13966 9.92834 7.11509 9.93575 7.09228C9.94317 7.06948 9.95761 7.0496 9.977 7.03549C9.99639 7.02138 10.0198 7.01376 10.0437 7.01372H10.7494C10.7733 7.01383 10.7967 7.00633 10.8162 6.99229C10.8356 6.97824 10.8501 6.95839 10.8575 6.93559L11.0762 6.26185C11.0829 6.23804 11.0971 6.21705 11.1168 6.20205C11.1364 6.18704 11.1604 6.17885 11.1851 6.17871C11.2099 6.17857 11.234 6.18649 11.2538 6.20126C11.2736 6.21604 11.2881 6.23687 11.295 6.2606Z" fill="white"/>
<path d="M4.31201 7.2182L4.08514 7.38257L3.73889 7.63257C3.7199 7.64656 3.70574 7.6661 3.69835 7.68849C3.69096 7.71089 3.69071 7.73502 3.69764 7.75757L3.91826 8.43381C3.92459 8.45644 3.92379 8.48047 3.91597 8.50263C3.90816 8.52479 3.89371 8.544 3.87459 8.55766C3.85547 8.57132 3.8326 8.57876 3.80911 8.57896C3.78561 8.57917 3.76262 8.57213 3.74326 8.55881L3.17076 8.14194C3.15129 8.1279 3.12789 8.12035 3.10389 8.12035C3.07988 8.12035 3.05649 8.1279 3.03701 8.14194L2.46389 8.55881C2.44453 8.57213 2.42154 8.57917 2.39805 8.57896C2.37455 8.57876 2.35168 8.57132 2.33256 8.55766C2.31344 8.544 2.29899 8.52479 2.29118 8.50263C2.28336 8.48047 2.28256 8.45644 2.28889 8.43381L2.50826 7.76069C2.51492 7.73813 2.51453 7.71408 2.50716 7.69175C2.49979 7.66941 2.48579 7.64986 2.46701 7.63569L2.39076 7.58007C2.43139 7.51757 2.47264 7.45007 2.51576 7.38444C2.74389 7.02882 2.98576 6.68132 3.24076 6.3457L3.43076 6.93382C3.43816 6.95669 3.4526 6.97662 3.47203 6.99077C3.49145 7.00492 3.51486 7.01255 3.53889 7.01257H4.24951C4.27294 7.01385 4.29541 7.0223 4.31387 7.03678C4.33233 7.05126 4.34589 7.07107 4.35271 7.09351C4.35954 7.11596 4.35929 7.13996 4.35201 7.16227C4.34473 7.18457 4.33077 7.2041 4.31201 7.2182Z" fill="white"/>
<path d="M15.3368 11.5982L15.5555 12.272C15.563 12.2947 15.5775 12.3145 15.597 12.3286C15.6164 12.3426 15.6397 12.3501 15.6637 12.3501H16.3743C16.3983 12.3501 16.4216 12.3578 16.441 12.3719C16.4604 12.386 16.4749 12.4059 16.4823 12.4287C16.4897 12.4515 16.4897 12.4761 16.4823 12.4989C16.4749 12.5217 16.4605 12.5416 16.4412 12.5557L15.868 12.972C15.8489 12.9858 15.8346 13.0054 15.8272 13.0278C15.8198 13.0503 15.8197 13.0744 15.8268 13.097L16.0455 13.7707C16.0523 13.7934 16.0517 13.8176 16.044 13.84C16.0363 13.8624 16.0219 13.8818 16.0026 13.8956C15.9833 13.9093 15.9603 13.9168 15.9366 13.9168C15.9129 13.9168 15.8898 13.9094 15.8705 13.8957L15.298 13.4795C15.2786 13.4654 15.2552 13.4579 15.2312 13.4579C15.2072 13.4579 15.1838 13.4654 15.1643 13.4795L14.5912 13.8957C14.5719 13.9094 14.5488 13.9168 14.5251 13.9168C14.5015 13.9168 14.4784 13.9093 14.4591 13.8956C14.4399 13.8818 14.4254 13.8624 14.4177 13.84C14.41 13.8176 14.4094 13.7934 14.4162 13.7707L14.6355 13.097C14.6424 13.0744 14.6421 13.0503 14.6347 13.0279C14.6273 13.0056 14.6132 12.986 14.5943 12.972L14.0212 12.5557C14.0018 12.5416 13.9874 12.5217 13.98 12.4989C13.9726 12.4761 13.9726 12.4515 13.9801 12.4287C13.9875 12.4059 14.0019 12.386 14.0213 12.3719C14.0407 12.3578 14.0641 12.3501 14.088 12.3501H14.7962C14.8201 12.35 14.8434 12.3425 14.8628 12.3284C14.8822 12.3144 14.8967 12.2947 14.9043 12.272L15.123 11.5982C15.131 11.5763 15.1456 11.5574 15.1647 11.544C15.1838 11.5306 15.2066 11.5234 15.2299 11.5234C15.2533 11.5234 15.276 11.5306 15.2951 11.544C15.3143 11.5574 15.3288 11.5763 15.3368 11.5982Z" fill="white"/>
<path d="M11.2956 11.5982L11.5144 12.2719C11.5219 12.2947 11.5364 12.3145 11.5558 12.3285C11.5752 12.3425 11.5986 12.3501 11.6225 12.3501H12.3306C12.3546 12.3501 12.378 12.3577 12.3974 12.3718C12.4168 12.3859 12.4312 12.4058 12.4386 12.4286C12.446 12.4514 12.4461 12.476 12.4387 12.4988C12.4313 12.5216 12.4169 12.5415 12.3975 12.5557L11.8244 12.9719C11.8053 12.9858 11.7911 13.0054 11.7837 13.0278C11.7763 13.0502 11.7761 13.0744 11.7831 13.0969L12 13.7725C12.007 13.7952 12.0067 13.8195 11.9991 13.842C11.9915 13.8644 11.9771 13.884 11.9578 13.8978C11.9385 13.9116 11.9154 13.919 11.8917 13.919C11.868 13.9189 11.8449 13.9114 11.8256 13.8975L11.2525 13.4813C11.233 13.4673 11.2096 13.4597 11.1856 13.4597C11.1616 13.4597 11.1382 13.4673 11.1188 13.4813L10.5456 13.8975C10.5264 13.9114 10.5033 13.9189 10.4796 13.919C10.4559 13.919 10.4327 13.9116 10.4135 13.8978C10.3942 13.884 10.3797 13.8644 10.3722 13.842C10.3646 13.8195 10.3643 13.7952 10.3713 13.7725L10.59 13.0988C10.597 13.0763 10.5968 13.0521 10.5894 13.0297C10.582 13.0073 10.5678 12.9877 10.5488 12.9738L9.97564 12.5576C9.95627 12.5434 9.94186 12.5235 9.93448 12.5007C9.9271 12.4779 9.92711 12.4533 9.93453 12.4305C9.94195 12.4077 9.95639 12.3878 9.97578 12.3737C9.99517 12.3596 10.0185 12.352 10.0425 12.3519H10.75C10.774 12.3519 10.7973 12.3444 10.8167 12.3304C10.8361 12.3164 10.8506 12.2966 10.8581 12.2738L11.0769 11.6001C11.0835 11.5762 11.0976 11.5552 11.1172 11.5401C11.1369 11.5251 11.1608 11.5168 11.1856 11.5166C11.2103 11.5164 11.2344 11.5242 11.2543 11.539C11.2741 11.5537 11.2886 11.5745 11.2956 11.5982Z" fill="white"/>
<path d="M7.25355 11.5972L7.4723 12.2709C7.47989 12.2936 7.4944 12.3133 7.5138 12.3274C7.5332 12.3414 7.5565 12.3489 7.58043 12.349H8.28855C8.31254 12.3491 8.33589 12.3567 8.35529 12.3708C8.37468 12.3849 8.38912 12.4048 8.39654 12.4276C8.40395 12.4504 8.40397 12.475 8.39659 12.4978C8.38921 12.5206 8.3748 12.5405 8.35543 12.5546L7.7823 12.9709C7.76339 12.9849 7.74928 13.0045 7.7419 13.0269C7.73451 13.0492 7.73422 13.0733 7.74105 13.0959L7.96043 13.7696C7.96715 13.7923 7.96663 13.8166 7.95893 13.8389C7.95123 13.8613 7.93674 13.8807 7.91748 13.8945C7.89822 13.9083 7.87515 13.9157 7.85148 13.9157C7.82781 13.9157 7.80472 13.9084 7.78543 13.8946L7.2123 13.4784C7.19293 13.4644 7.16964 13.4569 7.14574 13.4569C7.12185 13.4569 7.09856 13.4644 7.07918 13.4784L6.50605 13.8946C6.48677 13.9084 6.46368 13.9157 6.44001 13.9157C6.41634 13.9157 6.39327 13.9083 6.374 13.8945C6.35474 13.8807 6.34025 13.8613 6.33255 13.8389C6.32486 13.8166 6.32433 13.7923 6.33105 13.7696L6.5498 13.0959C6.55693 13.0734 6.55677 13.0492 6.54937 13.0267C6.54197 13.0043 6.52769 12.9848 6.50855 12.9709L5.9373 12.5546C5.9182 12.5407 5.9039 12.5212 5.89639 12.4988C5.88889 12.4764 5.88855 12.4522 5.89542 12.4296C5.90229 12.407 5.91604 12.3871 5.93474 12.3726C5.95345 12.3582 5.97619 12.3499 5.9998 12.349H6.70793C6.73188 12.349 6.75523 12.3415 6.77465 12.3275C6.79406 12.3134 6.80855 12.2936 6.81605 12.2709L7.0348 11.5972C7.04159 11.5734 7.05594 11.5525 7.07568 11.5376C7.09541 11.5227 7.11946 11.5146 7.14418 11.5146C7.1689 11.5146 7.19295 11.5227 7.21268 11.5376C7.23242 11.5525 7.24676 11.5734 7.25355 11.5972Z" fill="white"/>
<path d="M3.21275 11.598L3.4315 12.2717C3.439 12.2944 3.4535 12.3142 3.47291 12.3283C3.49233 12.3423 3.51567 12.3498 3.53963 12.3498H4.25025C4.27387 12.3507 4.29661 12.359 4.31531 12.3734C4.33402 12.3879 4.34776 12.4078 4.35464 12.4304C4.36151 12.453 4.36117 12.4772 4.35366 12.4996C4.34616 12.522 4.33186 12.5415 4.31275 12.5554L3.73963 12.9717C3.7205 12.9856 3.70622 13.0051 3.69881 13.0275C3.69141 13.05 3.69126 13.0742 3.69838 13.0967L3.91713 13.7704C3.92385 13.7931 3.92333 13.8174 3.91563 13.8397C3.90793 13.8621 3.89344 13.8815 3.87418 13.8953C3.85492 13.9091 3.83184 13.9165 3.80817 13.9165C3.7845 13.9165 3.76142 13.9092 3.74213 13.8954L3.16963 13.4792C3.15015 13.4651 3.12676 13.4576 3.10275 13.4576C3.07875 13.4576 3.05535 13.4651 3.03588 13.4792L2.46275 13.8954C2.44346 13.9092 2.42038 13.9165 2.39671 13.9165C2.37304 13.9165 2.34996 13.9091 2.3307 13.8953C2.31144 13.8815 2.29695 13.8621 2.28925 13.8397C2.28155 13.8174 2.28103 13.7931 2.28775 13.7704L2.50713 13.0967C2.51396 13.0741 2.51367 13.05 2.50629 13.0277C2.4989 13.0053 2.48479 12.9857 2.46588 12.9717L1.89275 12.5554C1.87338 12.5413 1.85897 12.5214 1.85159 12.4986C1.84421 12.4758 1.84423 12.4512 1.85165 12.4284C1.85906 12.4056 1.8735 12.3857 1.89289 12.3716C1.91229 12.3575 1.93564 12.3499 1.95963 12.3498H2.66963C2.69356 12.3497 2.71686 12.3422 2.73626 12.3282C2.75566 12.3141 2.77017 12.2944 2.77775 12.2717L2.9965 11.598C3.00395 11.5751 3.01842 11.5553 3.03784 11.5412C3.05726 11.5271 3.08064 11.5195 3.10463 11.5195C3.12862 11.5195 3.15199 11.5271 3.17141 11.5412C3.19083 11.5553 3.2053 11.5751 3.21275 11.598Z" fill="white"/>
<path d="M13.3161 3.49071L13.5348 4.16445C13.5423 4.1872 13.5568 4.207 13.5762 4.22103C13.5956 4.23506 13.619 4.2426 13.6429 4.24258H14.3511C14.375 4.24262 14.3984 4.25024 14.4178 4.26435C14.4372 4.27846 14.4516 4.29834 14.459 4.32114C14.4665 4.34395 14.4665 4.36852 14.4591 4.39134C14.4517 4.41416 14.4373 4.43406 14.4179 4.4482L13.8448 4.86445C13.8259 4.87849 13.8118 4.89804 13.8044 4.92042C13.797 4.94279 13.7967 4.9669 13.8036 4.98944L14.0229 5.66319C14.0297 5.68588 14.0291 5.71011 14.0214 5.73249C14.0137 5.75488 13.9992 5.7743 13.98 5.78806C13.9607 5.80182 13.9376 5.80922 13.914 5.80925C13.8903 5.80927 13.8672 5.80191 13.8479 5.78819L13.2748 5.37194C13.2554 5.35796 13.2321 5.35043 13.2082 5.35043C13.1843 5.35043 13.1611 5.35796 13.1417 5.37194L12.5686 5.78819C12.5493 5.80191 12.5262 5.80927 12.5025 5.80925C12.4788 5.80922 12.4558 5.80182 12.4365 5.78806C12.4172 5.7743 12.4028 5.75488 12.3951 5.73249C12.3874 5.71011 12.3868 5.68588 12.3936 5.66319L12.6123 4.98944C12.6194 4.96692 12.6193 4.94272 12.6119 4.92028C12.6045 4.89785 12.5902 4.87831 12.5711 4.86445L11.9998 4.4482C11.9807 4.43429 11.9664 4.41478 11.9589 4.39237C11.9514 4.36996 11.951 4.34577 11.9579 4.32316C11.9648 4.30055 11.9785 4.28064 11.9972 4.2662C12.016 4.25176 12.0387 4.2435 12.0623 4.24258H12.7704C12.7944 4.24269 12.8178 4.23519 12.8372 4.22115C12.8567 4.20711 12.8711 4.18725 12.8786 4.16445L13.0973 3.49071C13.1041 3.46694 13.1184 3.44603 13.1382 3.43114C13.1579 3.41626 13.182 3.4082 13.2067 3.4082C13.2314 3.4082 13.2554 3.41626 13.2752 3.43114C13.2949 3.44603 13.3093 3.46694 13.3161 3.49071Z" fill="white"/>
<path d="M5.72035 4.9228C5.71316 4.94558 5.71316 4.97002 5.72035 4.9928L5.93723 5.66592C5.9438 5.68852 5.94319 5.71261 5.9355 5.73485C5.92781 5.7571 5.9134 5.77641 5.89427 5.79012C5.87514 5.80384 5.85223 5.81128 5.82869 5.81142C5.80515 5.81156 5.78215 5.8044 5.76285 5.79092L5.18973 5.37405C5.17025 5.36001 5.14686 5.35246 5.12285 5.35246C5.09885 5.35246 5.07545 5.36001 5.05598 5.37405L4.48285 5.79092C4.46356 5.8044 4.44055 5.81156 4.41702 5.81142C4.39348 5.81128 4.37056 5.80384 4.35143 5.79012C4.3323 5.77641 4.3179 5.7571 4.3102 5.73485C4.30251 5.71261 4.30191 5.68852 4.30848 5.66592L4.52723 4.9928C4.53442 4.97002 4.53442 4.94558 4.52723 4.9228C4.52306 4.90366 4.51352 4.8861 4.49973 4.87218C4.79139 4.57218 5.09244 4.28406 5.40285 4.00781L5.45285 4.16219C5.45987 4.18572 5.47431 4.20635 5.49403 4.221C5.51374 4.23564 5.53767 4.24351 5.56223 4.24344H6.27035C6.2943 4.24369 6.31757 4.25147 6.33687 4.26566C6.35617 4.27985 6.37052 4.29974 6.37791 4.32253C6.3853 4.34531 6.38535 4.36984 6.37805 4.39266C6.37075 4.41547 6.35647 4.43542 6.33723 4.44968L5.7641 4.8653C5.74359 4.87914 5.72822 4.89935 5.72035 4.9228Z" fill="white"/>
<path d="M2.51339 9.8439C2.5118 9.8595 2.50685 9.87456 2.49886 9.88805C2.49087 9.90154 2.48005 9.91313 2.46714 9.92203L1.89401 10.3389C1.8751 10.3529 1.86099 10.3725 1.8536 10.3949C1.84622 10.4172 1.84593 10.4413 1.85276 10.4639L2.07151 11.1376C2.0785 11.1603 2.07818 11.1846 2.07061 11.2071C2.06304 11.2295 2.04859 11.2491 2.02931 11.2629C2.01004 11.2767 1.9869 11.2841 1.96318 11.2841C1.93947 11.284 1.91636 11.2765 1.89714 11.2626L1.32401 10.847C1.30478 10.8324 1.28129 10.8245 1.25714 10.8245C1.23299 10.8245 1.2095 10.8324 1.19026 10.847L0.739014 11.1751C0.88193 10.7201 1.04443 10.2751 1.22651 9.84015C1.30401 9.65265 1.38526 9.4689 1.47089 9.28516L1.58401 9.63453C1.59138 9.65746 1.6058 9.67748 1.62522 9.69173C1.64463 9.70598 1.66805 9.71374 1.69214 9.7139H2.40026C2.41662 9.71382 2.4328 9.71727 2.4477 9.72402C2.46261 9.73076 2.47588 9.74064 2.48662 9.75298C2.49735 9.76532 2.5053 9.77983 2.50992 9.79552C2.51454 9.81121 2.51573 9.82771 2.51339 9.8439Z" fill="white"/>
<path d="M13.3159 8.96532L13.5347 9.63906C13.5423 9.66176 13.5568 9.68151 13.5762 9.69552C13.5956 9.70954 13.6189 9.71711 13.6428 9.71719H14.3509C14.3749 9.71723 14.3983 9.72485 14.4177 9.73896C14.4371 9.75307 14.4515 9.77295 14.4589 9.79576C14.4663 9.81856 14.4664 9.84313 14.459 9.86595C14.4516 9.88877 14.4372 9.90867 14.4178 9.92281L13.8447 10.3391C13.8258 10.3531 13.8117 10.3727 13.8043 10.395C13.7969 10.4174 13.7966 10.4415 13.8034 10.4641L14.0228 11.1378C14.0295 11.1605 14.029 11.1847 14.0213 11.2071C14.0136 11.2295 13.9991 11.2489 13.9799 11.2627C13.9606 11.2764 13.9375 11.2838 13.9139 11.2839C13.8902 11.2839 13.8671 11.2765 13.8478 11.2628L13.2747 10.8466C13.2553 10.8326 13.232 10.825 13.2081 10.825C13.1842 10.825 13.1609 10.8326 13.1416 10.8466L12.5684 11.2628C12.5491 11.2765 12.5261 11.2839 12.5024 11.2839C12.4787 11.2838 12.4556 11.2764 12.4364 11.2627C12.4171 11.2489 12.4026 11.2295 12.3949 11.2071C12.3872 11.1847 12.3867 11.1605 12.3934 11.1378L12.6122 10.4641C12.6193 10.4415 12.6192 10.4173 12.6117 10.3949C12.6043 10.3725 12.5901 10.3529 12.5709 10.3391L11.9997 9.92281C11.9803 9.90867 11.9659 9.88877 11.9585 9.86595C11.9511 9.84313 11.9512 9.81856 11.9586 9.79576C11.966 9.77295 11.9804 9.75307 11.9998 9.73896C12.0192 9.72485 12.0426 9.71723 12.0666 9.71719H12.7747C12.7986 9.71721 12.822 9.70967 12.8414 9.69564C12.8608 9.68161 12.8753 9.66181 12.8828 9.63906L13.1016 8.96532C13.1094 8.94318 13.124 8.92402 13.1431 8.91047C13.1623 8.89692 13.1853 8.88965 13.2087 8.88965C13.2322 8.88965 13.2552 8.89692 13.2744 8.91047C13.2935 8.92402 13.3081 8.94318 13.3159 8.96532Z" fill="white"/>
<path d="M9.27442 8.96641L9.49317 9.64015C9.50067 9.6629 9.51516 9.6827 9.53458 9.69672C9.55399 9.71075 9.57734 9.71829 9.60129 9.71827H10.3119C10.3359 9.71831 10.3593 9.72593 10.3787 9.74004C10.398 9.75415 10.4125 9.77403 10.4199 9.79684C10.4273 9.81965 10.4273 9.84422 10.42 9.86704C10.4126 9.88985 10.3982 9.90976 10.3788 9.9239L9.80567 10.3401C9.78654 10.354 9.77226 10.3735 9.76485 10.396C9.75745 10.4184 9.7573 10.4426 9.76442 10.4651L9.98317 11.1389C9.98989 11.1616 9.98937 11.1858 9.98167 11.2082C9.97397 11.2306 9.95948 11.25 9.94022 11.2638C9.92096 11.2775 9.89788 11.2849 9.87421 11.2849C9.85054 11.285 9.82746 11.2776 9.80817 11.2639L9.23567 10.8476C9.21619 10.8336 9.1928 10.826 9.16879 10.826C9.14479 10.826 9.12139 10.8336 9.10192 10.8476L8.52879 11.2639C8.5095 11.2776 8.48642 11.285 8.46275 11.2849C8.43908 11.2849 8.416 11.2775 8.39674 11.2638C8.37748 11.25 8.36299 11.2306 8.35529 11.2082C8.34759 11.1858 8.34707 11.1616 8.35379 11.1389L8.57317 10.4651C8.58 10.4426 8.57971 10.4185 8.57233 10.3961C8.56494 10.3737 8.55083 10.3542 8.53192 10.3401L7.95879 9.9239C7.93942 9.90976 7.92501 9.88985 7.91763 9.86704C7.91025 9.84422 7.91027 9.81965 7.91769 9.79684C7.9251 9.77403 7.93954 9.75415 7.95893 9.74004C7.97833 9.72593 8.00168 9.71831 8.02567 9.71827H8.73379C8.75772 9.7182 8.78103 9.71062 8.80042 9.69661C8.81982 9.68259 8.83433 9.66285 8.84192 9.64015L9.06067 8.96641C9.06866 8.94448 9.0832 8.92554 9.10232 8.91216C9.12143 8.89878 9.14421 8.8916 9.16754 8.8916C9.19088 8.8916 9.21365 8.89878 9.23277 8.91216C9.25189 8.92554 9.26643 8.94448 9.27442 8.96641Z" fill="white"/>
<path d="M1.89348 15.7067C1.87442 15.7206 1.8602 15.7402 1.8528 15.7626C1.8454 15.785 1.8452 15.8092 1.85223 15.8317L2.07098 16.5061C2.07796 16.5287 2.07765 16.553 2.07007 16.5755C2.0625 16.598 2.04805 16.6175 2.02878 16.6313C2.0095 16.6451 1.98637 16.6525 1.96265 16.6525C1.93893 16.6525 1.91583 16.645 1.8966 16.6311L1.32348 16.2154C1.30412 16.2011 1.28068 16.1934 1.2566 16.1934C1.23253 16.1934 1.20909 16.2011 1.18973 16.2154L0.617227 16.6336C0.598016 16.6477 0.574825 16.6554 0.550968 16.6556C0.527112 16.6558 0.503812 16.6484 0.484398 16.6345C0.464985 16.6206 0.450453 16.601 0.442878 16.5784C0.435304 16.5558 0.435076 16.5313 0.442227 16.5086L0.660977 15.8342C0.668196 15.8117 0.668092 15.7874 0.660681 15.765C0.653269 15.7425 0.638932 15.723 0.619727 15.7092L0.0466016 15.2898C0.0345894 15.2813 0.024392 15.2705 0.0166016 15.2579C0.0166016 15.2148 0.0203516 15.1717 0.0228516 15.1292C0.0332478 15.115 0.0469228 15.1036 0.0627058 15.0959C0.0784888 15.0881 0.0959095 15.0843 0.113477 15.0848H0.821602C0.845686 15.0847 0.869106 15.0769 0.888521 15.0626C0.907936 15.0484 0.922357 15.0284 0.929727 15.0054L1.00785 14.7654L1.14848 14.3323C1.15593 14.3095 1.1704 14.2897 1.18982 14.2756C1.20924 14.2615 1.23261 14.2539 1.2566 14.2539C1.28059 14.2539 1.30397 14.2615 1.32339 14.2756C1.34281 14.2897 1.35728 14.3095 1.36473 14.3323L1.50535 14.7654L1.58348 15.0054C1.59085 15.0284 1.60527 15.0484 1.62468 15.0626C1.6441 15.0769 1.66752 15.0847 1.6916 15.0848H2.39973C2.42374 15.0846 2.4472 15.0921 2.46669 15.1061C2.48618 15.1202 2.5007 15.14 2.50815 15.1629C2.5156 15.1857 2.51559 15.2103 2.50812 15.2331C2.50065 15.256 2.48611 15.2758 2.4666 15.2898L1.89348 15.7067Z" fill="white"/>
<path d="M13.3159 14.3325L13.5347 15.0063C13.5422 15.029 13.5567 15.0488 13.5761 15.0628C13.5955 15.0769 13.6189 15.0844 13.6428 15.0844H14.3509C14.3749 15.0844 14.3983 15.092 14.4177 15.1061C14.4371 15.1203 14.4515 15.1401 14.4589 15.1629C14.4663 15.1858 14.4664 15.2103 14.459 15.2331C14.4516 15.256 14.4372 15.2759 14.4178 15.29L13.8447 15.7062C13.8259 15.7204 13.8119 15.74 13.8045 15.7623C13.7972 15.7846 13.7968 15.8087 13.8034 15.8312L14.0228 16.5044C14.0295 16.5271 14.029 16.5513 14.0213 16.5737C14.0136 16.5961 13.9991 16.6155 13.9799 16.6292C13.9606 16.643 13.9375 16.6504 13.9139 16.6504C13.8902 16.6504 13.8671 16.6431 13.8478 16.6294L13.2747 16.2131C13.2553 16.1991 13.232 16.1916 13.2081 16.1916C13.1842 16.1916 13.1609 16.1991 13.1416 16.2131L12.5684 16.6294C12.5491 16.6431 12.5261 16.6504 12.5024 16.6504C12.4787 16.6504 12.4556 16.643 12.4364 16.6292C12.4171 16.6155 12.4026 16.5961 12.3949 16.5737C12.3872 16.5513 12.3867 16.5271 12.3934 16.5044L12.6122 15.8312C12.6191 15.8087 12.6189 15.7846 12.6115 15.7622C12.6041 15.7398 12.5899 15.7202 12.5709 15.7062L11.9997 15.29C11.9803 15.2759 11.9659 15.256 11.9585 15.2331C11.9511 15.2103 11.9512 15.1858 11.9586 15.1629C11.966 15.1401 11.9804 15.1203 11.9998 15.1061C12.0192 15.092 12.0426 15.0844 12.0666 15.0844H12.7747C12.7987 15.0845 12.8221 15.077 12.8415 15.0629C12.8609 15.0489 12.8754 15.0291 12.8828 15.0063L13.1016 14.3325C13.1094 14.3104 13.124 14.2912 13.1431 14.2777C13.1623 14.2641 13.1853 14.2568 13.2087 14.2568C13.2322 14.2568 13.2552 14.2641 13.2744 14.2777C13.2935 14.2912 13.3081 14.3104 13.3159 14.3325Z" fill="white"/>
<path d="M9.27525 14.3324L9.494 15.0062C9.50142 15.029 9.51589 15.0488 9.53532 15.0628C9.55476 15.0769 9.57815 15.0844 9.60213 15.0843H10.3128C10.3364 15.0852 10.3591 15.0935 10.3778 15.1079C10.3965 15.1223 10.4103 15.1422 10.4171 15.1649C10.424 15.1875 10.4237 15.2117 10.4162 15.2341C10.4087 15.2565 10.3944 15.276 10.3753 15.2899L9.80213 15.7061C9.78314 15.7201 9.76897 15.7397 9.76158 15.7621C9.75419 15.7845 9.75395 15.8086 9.76088 15.8311L9.97963 16.5043C9.98635 16.527 9.98583 16.5512 9.97813 16.5736C9.97043 16.596 9.95594 16.6154 9.93668 16.6291C9.91742 16.6429 9.89434 16.6503 9.87067 16.6503C9.847 16.6503 9.82391 16.643 9.80463 16.6293L9.23213 16.213C9.21265 16.199 9.18926 16.1914 9.16525 16.1914C9.14125 16.1914 9.11785 16.199 9.09838 16.213L8.52525 16.6293C8.50596 16.643 8.48288 16.6503 8.45921 16.6503C8.43554 16.6503 8.41246 16.6429 8.3932 16.6291C8.37394 16.6154 8.35945 16.596 8.35175 16.5736C8.34405 16.5512 8.34353 16.527 8.35025 16.5043L8.56963 15.8311C8.57628 15.8086 8.5759 15.7845 8.56853 15.7622C8.56116 15.7399 8.54715 15.7203 8.52838 15.7061L7.95525 15.2899C7.93588 15.2758 7.92147 15.2559 7.91409 15.233C7.90671 15.2102 7.90673 15.1857 7.91415 15.1628C7.92156 15.14 7.936 15.1202 7.95539 15.106C7.97479 15.0919 7.99814 15.0843 8.02213 15.0843H8.73025C8.7542 15.0843 8.77755 15.0768 8.79697 15.0627C8.81638 15.0487 8.83088 15.0289 8.83838 15.0062L9.05713 14.3324C9.0641 14.3089 9.07848 14.2883 9.09813 14.2736C9.11779 14.2589 9.14166 14.251 9.16619 14.251C9.19072 14.251 9.21459 14.2589 9.23424 14.2736C9.2539 14.2883 9.26828 14.3089 9.27525 14.3324Z" fill="white"/>
<path d="M5.23314 14.3323L5.45189 15.006C5.45943 15.0292 5.47428 15.0494 5.49422 15.0634C5.51416 15.0775 5.53811 15.0848 5.56251 15.0841H6.27064C6.29462 15.0842 6.31798 15.0918 6.33737 15.1059C6.35676 15.12 6.3712 15.1399 6.37862 15.1627C6.38604 15.1855 6.38605 15.2101 6.37867 15.2329C6.37129 15.2557 6.35688 15.2756 6.33751 15.2897L5.76439 15.706C5.74548 15.72 5.73136 15.7396 5.72398 15.762C5.7166 15.7843 5.7163 15.8084 5.72314 15.831L5.93751 16.5066C5.9445 16.5293 5.94418 16.5536 5.93661 16.576C5.92904 16.5985 5.91459 16.6181 5.89531 16.6319C5.87604 16.6457 5.8529 16.6531 5.82918 16.6531C5.80547 16.653 5.78236 16.6455 5.76314 16.6316L5.19001 16.2154C5.17054 16.2013 5.14714 16.1938 5.12314 16.1938C5.09913 16.1938 5.07574 16.2013 5.05626 16.2154L4.48314 16.6316C4.46391 16.6455 4.44081 16.653 4.41709 16.6531C4.39337 16.6531 4.37024 16.6457 4.35096 16.6319C4.33168 16.6181 4.31724 16.5985 4.30967 16.576C4.30209 16.5536 4.30178 16.5293 4.30876 16.5066L4.52751 15.8335C4.53435 15.8109 4.53406 15.7868 4.52667 15.7645C4.51929 15.7421 4.50518 15.7225 4.48626 15.7085L3.91314 15.2923C3.89377 15.2781 3.87936 15.2582 3.87198 15.2354C3.8646 15.2126 3.86461 15.188 3.87203 15.1652C3.87945 15.1424 3.89389 15.1225 3.91328 15.1084C3.93267 15.0943 3.95603 15.0867 3.98001 15.0866H4.68751C4.71149 15.0867 4.73488 15.0792 4.75432 15.0652C4.77375 15.0512 4.78822 15.0313 4.79564 15.0085L5.01439 14.3348C5.0209 14.3109 5.03501 14.2898 5.05457 14.2747C5.07414 14.2596 5.0981 14.2513 5.12282 14.251C5.14754 14.2507 5.17168 14.2585 5.19159 14.2731C5.2115 14.2878 5.22608 14.3086 5.23314 14.3323Z" fill="white"/>
<path d="M17.9376 0.115077C17.6876 0.144452 17.4376 0.181326 17.1876 0.222576C15.5257 0.502512 13.9191 1.04557 12.4282 1.83131C12.3744 1.85881 12.3213 1.88819 12.2682 1.91631C11.9499 2.08839 11.6386 2.27068 11.3344 2.46318H7.46631C7.77089 2.27068 8.08214 2.08839 8.40006 1.91631C10.6518 0.697735 13.1644 0.0409975 15.7244 0.00195312H16.2757C16.5819 0.00632808 16.8857 0.0207029 17.1876 0.0425777C17.4376 0.0609109 17.6876 0.0850773 17.9376 0.115077Z" fill="#DB1B1B"/>
<path d="M11.3338 2.46246C11.0163 2.66163 10.7069 2.87246 10.4057 3.09495C10.335 3.1462 10.265 3.1987 10.195 3.25183C9.9244 3.45808 9.66128 3.6712 9.40503 3.8937C9.3594 3.93182 9.3144 3.9712 9.2694 4.0112C8.98315 4.26432 8.7069 4.52869 8.4394 4.80119L8.5294 4.86369C8.54898 4.87792 8.56345 4.89808 8.57065 4.92119H4.4519C4.4669 4.90494 4.48253 4.88931 4.49815 4.87306C4.78982 4.57307 5.09086 4.28494 5.40128 4.0087C5.70003 3.74495 6.00857 3.49183 6.3269 3.24933C6.6944 2.97058 7.0769 2.70621 7.46565 2.45996L11.3338 2.46246Z" fill="white"/>
<path d="M8.32066 4.92383C7.92971 5.33144 7.56045 5.75932 7.2144 6.20569L7.10753 6.34569C7.04941 6.42256 6.9919 6.49944 6.93503 6.57756L6.81878 6.93568C6.81139 6.95855 6.79694 6.97848 6.77752 6.99263C6.75809 7.00678 6.73469 7.01441 6.71065 7.01443H6.62503C6.54128 7.13943 6.46003 7.26068 6.38003 7.38506H2.5144C2.74253 7.02943 2.9844 6.68194 3.2394 6.34631C3.6158 5.84899 4.02086 5.37402 4.45253 4.92383H8.32066Z" fill="#DB1B1B"/>
<path d="M6.38208 7.38344L6.31333 7.49281L6.25896 7.57906C5.91772 8.13009 5.61027 8.70135 5.33833 9.28967C5.2527 9.47279 5.17146 9.65654 5.09396 9.84404H1.22583C1.30333 9.65654 1.38458 9.47279 1.47021 9.28904C1.74215 8.70072 2.04959 8.12947 2.39083 7.57844C2.43145 7.51594 2.4727 7.44844 2.51583 7.38281L6.38208 7.38344Z" fill="white"/>
<path d="M5.0947 9.84695C4.91262 10.2819 4.75012 10.7265 4.6072 11.1807C4.49054 11.5503 4.38637 11.9253 4.2947 12.3057H0.429077C0.518244 11.9244 0.62241 11.5494 0.741577 11.1807C0.884494 10.7257 1.04699 10.2807 1.22908 9.8457L5.0947 9.84695Z" fill="#DB1B1B"/>
<path d="M4.3125 12.5579L4.22437 12.6204C4.07132 13.3282 3.96691 14.0457 3.91188 14.7679H0.046875C0.109512 13.9387 0.237196 13.1158 0.42875 12.3066H4.29688C4.29313 12.3235 4.28875 12.341 4.285 12.3573C4.30476 12.3642 4.32223 12.3764 4.33548 12.3926C4.34873 12.4089 4.35724 12.4284 4.36009 12.4492C4.36293 12.4699 4.35999 12.491 4.3516 12.5102C4.3432 12.5294 4.32967 12.5459 4.3125 12.5579Z" fill="white"/>
<path d="M3.86812 15.9982C3.86812 16.4119 3.88375 16.8221 3.915 17.2288H0.046875C0.015625 16.8226 0 16.4124 0 15.9982V15.2013C6.23109e-05 15.2221 0.00590543 15.2424 0.016875 15.2601C0.016875 15.2169 0.020625 15.1738 0.023125 15.1313C0.029375 15.0095 0.0375 14.8888 0.046875 14.7676H3.915C3.90562 14.8888 3.8975 15.0095 3.89125 15.1313C3.89125 15.1738 3.88687 15.2169 3.885 15.2601C3.87932 15.2514 3.8751 15.2419 3.8725 15.2319C3.8725 15.2263 3.8725 15.2213 3.86937 15.2163C3.86904 15.2113 3.86904 15.2063 3.86937 15.2013L3.86812 15.9982Z" fill="#DB1B1B"/>
<path d="M4.29688 19.6907H0.42875C0.237143 18.8816 0.109458 18.0586 0.046875 17.2295H3.915C3.97758 18.0586 4.10527 18.8816 4.29688 19.6907Z" fill="#DBDBDB"/>
<path d="M5.0947 22.151H1.22658C0.893664 21.3541 0.62693 20.5311 0.429077 19.6904H4.2972C4.49505 20.5311 4.76179 21.3541 5.0947 22.151Z" fill="#C11A1A"/>
<path d="M6.38208 24.6126H2.51395C2.01349 23.8314 1.58246 23.0078 1.22583 22.1514H5.09396C5.45059 23.0078 5.88161 23.8314 6.38208 24.6126Z" fill="#DBDBDB"/>
<path d="M8.32003 27.0735H4.4519C3.72757 26.3181 3.07866 25.4938 2.5144 24.6123H6.38253C6.94678 25.4938 7.59569 26.3181 8.32003 27.0735Z" fill="#C11A1A"/>
<path d="M11.3338 29.5345H7.46565C6.3651 28.8391 5.3531 28.0127 4.4519 27.0732H8.32003C9.22123 28.0127 10.2332 28.8391 11.3338 29.5345Z" fill="#DBDBDB"/>
<path d="M17.9376 31.8824C17.3983 31.9491 16.8559 31.9879 16.3126 31.9987H15.6876C12.7726 31.9478 9.92774 31.0966 7.46387 29.5381H11.332C13.3318 30.8017 15.5886 31.6026 17.9376 31.8824Z" fill="#C11A1A"/>
<path d="M17.1875 0.0425777V0.222576C15.5256 0.502512 13.919 1.04557 12.4281 1.83131C12.3744 1.85881 12.3212 1.88819 12.2681 1.91631C11.9498 2.08839 11.6385 2.27068 11.3344 2.46318C11.0169 2.66234 10.7075 2.87318 10.4062 3.09567C10.3356 3.14692 10.2656 3.19942 10.1956 3.25255C9.925 3.4588 9.66188 3.67192 9.40563 3.89442C9.36 3.93254 9.315 3.97192 9.27 4.01191C8.98375 4.26504 8.7075 4.52941 8.44 4.80191L8.53 4.86441C8.54958 4.87864 8.56404 4.8988 8.57125 4.92191H8.32125C7.9303 5.32952 7.56104 5.7574 7.215 6.20377L7.10813 6.34377C7.05 6.42064 6.9925 6.49752 6.93563 6.57564L6.81875 6.93626C6.81136 6.95913 6.79691 6.97906 6.77749 6.99321C6.75806 7.00736 6.73466 7.01499 6.71063 7.01501H6.625C6.54125 7.14001 6.46 7.26126 6.38 7.38563L6.31125 7.49501L6.25688 7.58126C5.91564 8.13229 5.60819 8.70354 5.33625 9.29186C5.25062 9.47499 5.16937 9.65874 5.09188 9.84623C4.91146 10.2812 4.74979 10.7258 4.60687 11.18C4.49021 11.5496 4.38604 11.9245 4.29437 12.305C4.29063 12.3218 4.28625 12.3393 4.2825 12.3556C4.3021 12.3624 4.31945 12.3745 4.33267 12.3905C4.34589 12.4065 4.35448 12.4258 4.35751 12.4464C4.36053 12.4669 4.35788 12.4879 4.34984 12.507C4.34179 12.5262 4.32866 12.5427 4.31187 12.555L4.22375 12.6175C4.0707 13.3253 3.96629 14.0428 3.91125 14.7649C3.90188 14.8862 3.89375 15.0068 3.8875 15.1287C3.8875 15.1712 3.88312 15.2143 3.88125 15.2574C3.87557 15.2488 3.87135 15.2393 3.86875 15.2293C3.86875 15.2237 3.86875 15.2187 3.86562 15.2137C3.86529 15.2087 3.86529 15.2037 3.86562 15.1987V15.9987C3.86562 16.4124 3.88125 16.8226 3.9125 17.2293H0.046875C0.015625 16.823 0 16.4128 0 15.9987V15.2018C6.23109e-05 15.2226 0.00590543 15.2429 0.016875 15.2606C0.016875 15.2174 0.020625 15.1743 0.023125 15.1318C0.029375 15.0099 0.0375 14.8893 0.046875 14.7681C0.109512 13.9389 0.237196 13.116 0.42875 12.3068C0.517917 11.9256 0.622083 11.5506 0.74125 11.1818C0.884167 10.7269 1.04667 10.2819 1.22875 9.84686C1.30625 9.65936 1.3875 9.47561 1.47312 9.29186C1.74507 8.70354 2.05251 8.13229 2.39375 7.58126C2.43438 7.51876 2.47563 7.45126 2.51875 7.38563C2.74688 7.03001 2.98875 6.68251 3.24375 6.34689C3.61873 5.84969 4.02233 5.37472 4.4525 4.92441C4.4675 4.90816 4.48313 4.89253 4.49875 4.87628C4.79042 4.57628 5.09146 4.28816 5.40188 4.01191C5.70062 3.74817 6.00917 3.49504 6.3275 3.25255C6.695 2.9738 7.0775 2.70943 7.46625 2.46318C7.77083 2.27068 8.08208 2.08839 8.4 1.91631C10.6517 0.697735 13.1644 0.0409975 15.7244 0.00195312H16.2756C16.5819 0.00632808 16.8856 0.0207029 17.1875 0.0425777Z" fill="#32314B"/>
<path d="M7.73821 2.46218C7.73251 2.48263 7.73251 2.50424 7.73821 2.52468L7.95759 3.19718C7.96431 3.21987 7.96379 3.2441 7.95609 3.26648C7.94839 3.28886 7.9339 3.30829 7.91464 3.32205C7.89538 3.3358 7.8723 3.34321 7.84863 3.34323C7.82496 3.34326 7.80188 3.33589 7.78259 3.32217L7.20946 2.90655C7.19009 2.89257 7.1668 2.88505 7.1429 2.88505C7.119 2.88505 7.09572 2.89257 7.07634 2.90655L6.50321 3.32217C6.48768 3.33366 6.46947 3.34097 6.45031 3.34342C6.43115 3.34587 6.41168 3.34337 6.39376 3.33617C6.37584 3.32896 6.36006 3.31729 6.34793 3.30225C6.3358 3.28722 6.32772 3.26934 6.32446 3.2503C6.69196 2.97155 7.07446 2.70718 7.46321 2.46093C7.7678 2.26843 8.07905 2.08614 8.39696 1.91406C8.3898 1.93938 8.37413 1.96145 8.35259 1.97656L7.77946 2.39281C7.75783 2.41023 7.74318 2.43485 7.73821 2.46218Z" fill="#DBDBDB"/>
<path d="M7.21443 6.20595L7.10756 6.34595C7.04943 6.42282 6.99193 6.4997 6.93506 6.57782L7.03756 6.26533C7.04271 6.24775 7.05204 6.23168 7.06474 6.21847C7.07744 6.20527 7.09314 6.19534 7.11051 6.18951C7.12788 6.18368 7.14639 6.18213 7.16449 6.18499C7.18258 6.18785 7.19972 6.19504 7.21443 6.20595Z" fill="#DBDBDB"/>
<path d="M4.31214 7.2221L4.08526 7.38647L3.73901 7.63647C3.72003 7.65046 3.70586 7.67001 3.69847 7.6924C3.69108 7.71479 3.69083 7.73893 3.69776 7.76147L3.91839 8.43771C3.92471 8.46035 3.92391 8.48438 3.9161 8.50654C3.90828 8.5287 3.89383 8.54791 3.87471 8.56157C3.85559 8.57523 3.83273 8.58266 3.80923 8.58287C3.78573 8.58307 3.76274 8.57604 3.74339 8.56271L3.17089 8.14584C3.15141 8.13181 3.12802 8.12425 3.10401 8.12425C3.08001 8.12425 3.05661 8.13181 3.03714 8.14584L2.46401 8.56271C2.44465 8.57604 2.42166 8.58307 2.39817 8.58287C2.37467 8.58266 2.35181 8.57523 2.33269 8.56157C2.31356 8.54791 2.29911 8.5287 2.2913 8.50654C2.28349 8.48438 2.28269 8.46035 2.28901 8.43771L2.50839 7.7646C2.51504 7.74204 2.51465 7.71799 2.50728 7.69565C2.49991 7.67332 2.48591 7.65377 2.46714 7.6396L2.39089 7.58397C2.43151 7.52147 2.47276 7.45397 2.51589 7.38835C2.74401 7.03273 2.98589 6.68523 3.24089 6.34961L3.43089 6.93773C3.43828 6.96059 3.45272 6.98053 3.47215 6.99468C3.49157 7.00882 3.51498 7.01646 3.53901 7.01648H4.24964C4.27306 7.01776 4.29553 7.02621 4.31399 7.04069C4.33245 7.05517 4.34601 7.07497 4.35284 7.09742C4.35966 7.11987 4.35941 7.14387 4.35213 7.16617C4.34485 7.18848 4.33089 7.208 4.31214 7.2221Z" fill="#DBDBDB"/>
<path d="M4.31275 12.5567L4.22463 12.6192L3.73963 12.9723C3.72035 12.9861 3.70595 13.0056 3.69853 13.0281C3.69111 13.0505 3.69106 13.0748 3.69838 13.0973L3.91713 13.7704C3.92385 13.7931 3.92333 13.8174 3.91563 13.8397C3.90793 13.8621 3.89344 13.8815 3.87418 13.8953C3.85492 13.9091 3.83184 13.9165 3.80817 13.9165C3.7845 13.9165 3.76142 13.9092 3.74213 13.8954L3.16963 13.4792C3.15015 13.4651 3.12676 13.4576 3.10275 13.4576C3.07875 13.4576 3.05535 13.4651 3.03588 13.4792L2.46275 13.8954C2.44346 13.9092 2.42038 13.9165 2.39671 13.9165C2.37304 13.9165 2.34996 13.9091 2.3307 13.8953C2.31144 13.8815 2.29695 13.8621 2.28925 13.8397C2.28155 13.8174 2.28103 13.7931 2.28775 13.7704L2.50713 13.0973C2.51415 13.0748 2.51395 13.0506 2.50655 13.0282C2.49916 13.0058 2.48493 12.9862 2.46588 12.9723L1.89275 12.5554C1.87338 12.5413 1.85897 12.5214 1.85159 12.4986C1.84421 12.4758 1.84423 12.4512 1.85165 12.4284C1.85906 12.4056 1.8735 12.3857 1.89289 12.3716C1.91229 12.3575 1.93564 12.3499 1.95963 12.3498H2.66963C2.68702 12.3498 2.70418 12.3458 2.71978 12.3381C2.73539 12.3304 2.74902 12.3192 2.75963 12.3054C2.76737 12.295 2.77348 12.2834 2.77775 12.2711L2.9965 11.598C3.00395 11.5751 3.01842 11.5553 3.03784 11.5412C3.05726 11.5271 3.08064 11.5195 3.10463 11.5195C3.12862 11.5195 3.15199 11.5271 3.17141 11.5412C3.19083 11.5553 3.2053 11.5751 3.21275 11.598L3.4315 12.2711C3.43577 12.2834 3.44188 12.295 3.44963 12.3054C3.46024 12.3192 3.47387 12.3304 3.48947 12.3381C3.50507 12.3458 3.52223 12.3498 3.53963 12.3498H4.25025C4.26301 12.3499 4.27567 12.352 4.28775 12.3561C4.30735 12.3633 4.32458 12.3757 4.33757 12.3921C4.35056 12.4084 4.35879 12.428 4.36137 12.4488C4.36396 12.4695 4.36078 12.4905 4.35221 12.5096C4.34363 12.5286 4.32998 12.5449 4.31275 12.5567Z" fill="#DBDBDB"/>
<path d="M5.72047 4.92378C5.71328 4.94656 5.71328 4.971 5.72047 4.99378L5.93735 5.6669C5.94392 5.6895 5.94332 5.71359 5.93562 5.73583C5.92793 5.75808 5.91352 5.77739 5.89439 5.7911C5.87526 5.80481 5.85235 5.81226 5.82881 5.8124C5.80527 5.81254 5.78227 5.80538 5.76297 5.7919L5.18985 5.37503C5.17038 5.36099 5.14698 5.35344 5.12297 5.35344C5.09897 5.35344 5.07557 5.36099 5.0561 5.37503L4.48297 5.7919C4.46368 5.80538 4.44068 5.81254 4.41714 5.8124C4.3936 5.81226 4.37069 5.80481 4.35155 5.7911C4.33242 5.77739 4.31802 5.75808 4.31032 5.73583C4.30263 5.71359 4.30203 5.6895 4.3086 5.6669L4.52735 4.99378C4.53454 4.971 4.53454 4.94656 4.52735 4.92378C4.52318 4.90464 4.51364 4.88708 4.49985 4.87316C4.79152 4.57316 5.09256 4.28504 5.40297 4.00879L5.45297 4.16316C5.45999 4.1867 5.47444 4.20733 5.49415 4.22197C5.51387 4.23662 5.53779 4.24449 5.56235 4.24441H6.27047C6.29443 4.24467 6.31769 4.25244 6.33699 4.26663C6.35629 4.28083 6.37065 4.30072 6.37803 4.3235C6.38542 4.34629 6.38547 4.37082 6.37817 4.39363C6.37087 4.41645 6.35659 4.43639 6.33735 4.45066L5.76422 4.86628C5.74372 4.88012 5.72834 4.90032 5.72047 4.92378Z" fill="#DBDBDB"/>
<path d="M2.51351 9.84585C2.51193 9.86145 2.50697 9.87652 2.49898 9.89001C2.491 9.9035 2.48017 9.91509 2.46726 9.92398L1.89414 10.3408C1.87522 10.3549 1.86111 10.3744 1.85373 10.3968C1.84634 10.4192 1.84605 10.4433 1.85289 10.4658L2.07164 11.1396C2.07862 11.1623 2.07831 11.1865 2.07073 11.209C2.06316 11.2315 2.04871 11.251 2.02944 11.2648C2.01016 11.2787 1.98703 11.2861 1.96331 11.286C1.93959 11.286 1.91648 11.2785 1.89726 11.2646L1.32414 10.849C1.3049 10.8344 1.28141 10.8265 1.25726 10.8265C1.23311 10.8265 1.20962 10.8344 1.19039 10.849L0.739136 11.1771C0.882052 10.7221 1.04455 10.2771 1.22664 9.8421C1.30414 9.65461 1.38539 9.47086 1.47101 9.28711L1.58414 9.63648C1.59151 9.65941 1.60593 9.67943 1.62534 9.69368C1.64476 9.70793 1.66818 9.71569 1.69226 9.71586H2.40039C2.41674 9.71578 2.43292 9.71923 2.44783 9.72597C2.46273 9.73272 2.476 9.74259 2.48674 9.75493C2.49747 9.76727 2.50542 9.78178 2.51005 9.79747C2.51467 9.81316 2.51585 9.82967 2.51351 9.84585Z" fill="#DBDBDB"/>
<path d="M1.89372 15.7086C1.87466 15.7226 1.86044 15.7421 1.85304 15.7645C1.84565 15.7869 1.84545 15.8111 1.85247 15.8336L2.07122 16.508C2.07821 16.5307 2.07789 16.555 2.07032 16.5774C2.06275 16.5999 2.0483 16.6194 2.02902 16.6333C2.00974 16.6471 1.98661 16.6545 1.96289 16.6544C1.93917 16.6544 1.91607 16.6469 1.89685 16.633L1.32372 16.2174C1.30436 16.2031 1.28092 16.1954 1.25685 16.1954C1.23277 16.1954 1.20933 16.2031 1.18997 16.2174L0.617471 16.6355C0.59826 16.6497 0.575069 16.6574 0.551212 16.6575C0.527356 16.6577 0.504056 16.6503 0.484642 16.6365C0.465229 16.6226 0.450697 16.603 0.443123 16.5803C0.435548 16.5577 0.43532 16.5333 0.442471 16.5105L0.661221 15.8361C0.66844 15.8136 0.668336 15.7894 0.660925 15.7669C0.653514 15.7445 0.639176 15.7249 0.619971 15.7111L0.0468457 15.2918C0.0348335 15.2832 0.0246362 15.2724 0.0168457 15.2599C0.0168457 15.2168 0.0205957 15.1736 0.0230957 15.1311C0.033492 15.117 0.047167 15.1055 0.0629499 15.0978C0.0787329 15.0901 0.0961537 15.0863 0.113721 15.0868H0.821846C0.845931 15.0866 0.86935 15.0789 0.888765 15.0646C0.908181 15.0503 0.922601 15.0303 0.929971 15.0074L1.0081 14.7674L1.14872 14.3343C1.15617 14.3115 1.17064 14.2916 1.19006 14.2775C1.20948 14.2634 1.23286 14.2559 1.25685 14.2559C1.28084 14.2559 1.30421 14.2634 1.32363 14.2775C1.34305 14.2916 1.35752 14.3115 1.36497 14.3343L1.5056 14.7674L1.58372 15.0074C1.59109 15.0303 1.60551 15.0503 1.62493 15.0646C1.64434 15.0789 1.66776 15.0866 1.69185 15.0868H2.39997C2.42399 15.0866 2.44744 15.094 2.46693 15.1081C2.48643 15.1221 2.50095 15.142 2.5084 15.1648C2.51584 15.1876 2.51583 15.2123 2.50836 15.2351C2.50089 15.2579 2.48635 15.2778 2.46685 15.2918L1.89372 15.7086Z" fill="#DBDBDB"/>
<path d="M3.8678 15.2009C3.86788 15.1757 3.87598 15.1511 3.89092 15.1309C3.89092 15.1734 3.88655 15.2165 3.88467 15.2596C3.879 15.251 3.87477 15.2415 3.87217 15.2315C3.87217 15.2259 3.87217 15.2209 3.86905 15.2159C3.86829 15.2109 3.86788 15.2059 3.8678 15.2009Z" fill="white"/>
<path d="M5.23326 8.96733L5.45201 9.64107C5.45964 9.66423 5.47451 9.68432 5.49443 9.69839C5.51435 9.71245 5.53826 9.71975 5.56263 9.71919H6.27076C6.29474 9.71923 6.3181 9.72685 6.33749 9.74096C6.35689 9.75508 6.37132 9.77495 6.37874 9.79776C6.38616 9.82057 6.38618 9.84514 6.37879 9.86796C6.37141 9.89077 6.35701 9.91068 6.33764 9.92482L5.76451 10.3411C5.74545 10.355 5.73123 10.3745 5.72383 10.3969C5.71644 10.4194 5.71624 10.4435 5.72326 10.4661L5.93763 11.1417C5.94462 11.1643 5.9443 11.1886 5.93673 11.2111C5.92916 11.2336 5.91471 11.2531 5.89544 11.2669C5.87616 11.2808 5.85302 11.2882 5.82931 11.2881C5.80559 11.2881 5.78248 11.2806 5.76326 11.2667L5.19014 10.8504C5.17066 10.8364 5.14726 10.8288 5.12326 10.8288C5.09926 10.8288 5.07586 10.8364 5.05639 10.8504L4.48326 11.2667C4.46404 11.2806 4.44093 11.2881 4.41721 11.2881C4.3935 11.2882 4.37036 11.2808 4.35108 11.2669C4.33181 11.2531 4.31736 11.2336 4.30979 11.2111C4.30222 11.1886 4.3019 11.1643 4.30889 11.1417L4.52764 10.4679C4.53466 10.4454 4.53446 10.4212 4.52706 10.3988C4.51967 10.3764 4.50544 10.3569 4.48638 10.3429L3.91326 9.92669C3.89389 9.91255 3.87948 9.89265 3.8721 9.86983C3.86472 9.84701 3.86474 9.82244 3.87215 9.79964C3.87957 9.77683 3.89401 9.75695 3.9134 9.74284C3.93279 9.72873 3.95615 9.72111 3.98014 9.72107H4.68764C4.71159 9.72109 4.73494 9.71355 4.75435 9.69952C4.77377 9.68549 4.78826 9.66569 4.79576 9.64294L5.01451 8.9692C5.02109 8.94537 5.03526 8.92434 5.05487 8.90928C5.07448 8.89422 5.09846 8.88596 5.12318 8.88575C5.1479 8.88553 5.17202 8.89338 5.19188 8.9081C5.21174 8.92282 5.22627 8.94361 5.23326 8.96733Z" fill="white"/>
<path d="M5.33836 9.29064C5.25273 9.47377 5.17148 9.65752 5.09398 9.84501C4.9119 10.2804 4.7494 10.7252 4.60648 11.1794L4.48461 11.2669C4.46538 11.2808 4.44228 11.2883 4.41856 11.2883C4.39484 11.2884 4.37171 11.281 4.35243 11.2671C4.33315 11.2533 4.31871 11.2338 4.31113 11.2113C4.30356 11.1888 4.30325 11.1645 4.31023 11.1419L4.52898 10.4681C4.53601 10.4456 4.5358 10.4214 4.52841 10.399C4.52101 10.3766 4.50679 10.3571 4.48773 10.3431L3.91461 9.92626C3.90169 9.91737 3.89087 9.90578 3.88288 9.89229C3.8749 9.8788 3.86994 9.86374 3.86836 9.84814C3.86678 9.83234 3.86854 9.81638 3.87351 9.8013C3.87848 9.78621 3.88655 9.77234 3.89721 9.76056C3.90786 9.74879 3.92087 9.73937 3.93538 9.73293C3.9499 9.72648 3.9656 9.72315 3.98148 9.72314H4.68711C4.71119 9.72298 4.73461 9.71522 4.75402 9.70097C4.77344 9.68671 4.78786 9.6667 4.79523 9.64377L5.01398 8.97002C5.02143 8.94722 5.0359 8.92736 5.05532 8.91327C5.07474 8.89919 5.09812 8.8916 5.12211 8.8916C5.1461 8.8916 5.16947 8.89919 5.18889 8.91327C5.20831 8.92736 5.22278 8.94722 5.23023 8.97002L5.33836 9.29064Z" fill="#DBDBDB"/>
<path d="M7.25368 6.26202L7.47243 6.93576C7.47993 6.95851 7.49442 6.97831 7.51384 6.99233C7.53325 7.00636 7.5566 7.0139 7.58055 7.01388H8.28868C8.31266 7.01392 8.33602 7.02154 8.35541 7.03565C8.3748 7.04977 8.38924 7.06964 8.39666 7.09245C8.40407 7.11526 8.40409 7.13983 8.39671 7.16265C8.38933 7.18546 8.37492 7.20537 8.35555 7.21951L7.78243 7.63575C7.76351 7.6498 7.7494 7.66935 7.74202 7.69172C7.73463 7.7141 7.73434 7.7382 7.74118 7.76075L7.96055 8.43575C7.96728 8.45844 7.96675 8.48267 7.95905 8.50505C7.95135 8.52743 7.93686 8.54686 7.9176 8.56062C7.89834 8.57437 7.87527 8.58178 7.8516 8.5818C7.82793 8.58183 7.80484 8.57446 7.78555 8.56074L7.21243 8.1445C7.19305 8.13051 7.16976 8.12299 7.14586 8.12299C7.12197 8.12299 7.09868 8.13051 7.0793 8.1445L6.50618 8.56074C6.48689 8.57446 6.4638 8.58183 6.44013 8.5818C6.41646 8.58178 6.39339 8.57437 6.37413 8.56062C6.35487 8.54686 6.34038 8.52743 6.33268 8.50505C6.32498 8.48267 6.32445 8.45844 6.33118 8.43575L6.54993 7.762C6.55705 7.73947 6.5569 7.71528 6.54949 7.69284C6.54209 7.6704 6.52781 7.65087 6.50868 7.637L5.93743 7.21951C5.91832 7.2056 5.90402 7.18608 5.89652 7.16367C5.88901 7.14127 5.88867 7.11708 5.89554 7.09447C5.90241 7.07185 5.91616 7.05195 5.93487 7.0375C5.95357 7.02306 5.97631 7.01481 5.99993 7.01388H6.70805C6.73245 7.01454 6.75641 7.00728 6.77635 6.9932C6.79628 6.97912 6.81113 6.95897 6.81868 6.93576L7.03743 6.26202C7.04488 6.23921 7.05935 6.21935 7.07877 6.20526C7.09819 6.19118 7.12156 6.18359 7.14555 6.18359C7.16954 6.18359 7.19292 6.19118 7.21234 6.20526C7.23176 6.21935 7.24623 6.23921 7.25368 6.26202Z" fill="white"/>
<path d="M5.99955 7.01562H6.62455C6.5408 7.14062 6.45955 7.26187 6.37955 7.38625L6.3108 7.49562L6.15955 7.38625L5.93705 7.22187C5.91806 7.20785 5.90387 7.18828 5.89644 7.16587C5.88901 7.14346 5.88869 7.1193 5.89554 7.0967C5.90239 7.0741 5.91606 7.05418 5.93469 7.03966C5.95331 7.02515 5.97597 7.01675 5.99955 7.01562Z" fill="#DBDBDB"/>
<path d="M9.27537 3.49354L9.49412 4.16728C9.50154 4.19008 9.51601 4.20994 9.53545 4.22398C9.55488 4.23802 9.57827 4.24553 9.60225 4.24541H10.3129C10.3365 4.24633 10.3592 4.25459 10.3779 4.26903C10.3966 4.28347 10.4104 4.30338 10.4173 4.32599C10.4241 4.3486 10.4238 4.37279 10.4163 4.3952C10.4088 4.41761 10.3945 4.43712 10.3754 4.45103L9.80225 4.86728C9.78312 4.88114 9.76884 4.90068 9.76143 4.92312C9.75403 4.94555 9.75388 4.96975 9.761 4.99228L9.97975 5.66602C9.98647 5.68872 9.98595 5.71294 9.97825 5.73533C9.97055 5.75771 9.95606 5.77713 9.9368 5.79089C9.91754 5.80465 9.89447 5.81206 9.8708 5.81208C9.84713 5.8121 9.82404 5.80474 9.80475 5.79102L9.23225 5.37477C9.21278 5.36074 9.18938 5.35319 9.16537 5.35319C9.14137 5.35319 9.11797 5.36074 9.0985 5.37477L8.52537 5.79102C8.50609 5.80474 8.483 5.8121 8.45933 5.81208C8.43566 5.81206 8.41258 5.80465 8.39332 5.79089C8.37406 5.77713 8.35957 5.75771 8.35187 5.73533C8.34418 5.71294 8.34365 5.68872 8.35037 5.66602L8.56975 4.99228C8.57659 4.96973 8.57629 4.94562 8.56891 4.92325C8.56152 4.90088 8.54741 4.88133 8.5285 4.86728L7.95537 4.45103C7.936 4.43689 7.9216 4.41699 7.91421 4.39417C7.90683 4.37135 7.90685 4.34678 7.91427 4.32398C7.92169 4.30117 7.93612 4.28129 7.95552 4.26718C7.97491 4.25307 7.99827 4.24545 8.02225 4.24541H8.73037C8.75433 4.24543 8.77768 4.23789 8.79709 4.22386C8.81651 4.20983 8.831 4.19003 8.8385 4.16728L9.05725 3.49354C9.06422 3.47002 9.0786 3.44939 9.09826 3.43471C9.11791 3.42004 9.14178 3.41211 9.16631 3.41211C9.19084 3.41211 9.21471 3.42004 9.23437 3.43471C9.25402 3.44939 9.2684 3.47002 9.27537 3.49354Z" fill="white"/>
<path d="M9.40621 3.89506C9.36059 3.93318 9.31559 3.97256 9.27059 4.01256C8.98434 4.26568 8.70809 4.53005 8.44059 4.80255L7.95746 4.45193C7.93782 4.43787 7.92317 4.41794 7.91562 4.395C7.90807 4.37206 7.90801 4.34731 7.91546 4.32434C7.92291 4.30137 7.93747 4.28137 7.95705 4.26722C7.97662 4.25308 8.00019 4.24554 8.02434 4.24568H8.73246C8.75647 4.24556 8.77983 4.23789 8.79924 4.22376C8.81864 4.20963 8.83311 4.18974 8.84059 4.16693L9.05934 3.49444C9.06679 3.47163 9.08126 3.45177 9.10068 3.43769C9.1201 3.4236 9.14347 3.41602 9.16746 3.41602C9.19145 3.41602 9.21483 3.4236 9.23425 3.43769C9.25367 3.45177 9.26814 3.47163 9.27559 3.49444L9.40621 3.89506Z" fill="#DBDBDB"/>
<path d="M11.2959 1.02397L11.5146 1.69708C11.5222 1.72036 11.537 1.74059 11.5569 1.75478C11.5768 1.76896 11.6008 1.77635 11.6253 1.77583H12.3334C12.3574 1.77587 12.3807 1.78349 12.4001 1.7976C12.4195 1.81172 12.4339 1.83159 12.4414 1.8544C12.4488 1.87721 12.4488 1.90178 12.4414 1.9246C12.434 1.94741 12.4196 1.96732 12.4003 1.98146L11.8271 2.3977C11.8081 2.41163 11.7939 2.43117 11.7865 2.45359C11.7791 2.476 11.7789 2.50017 11.7859 2.5227L12.0003 3.19832C12.0072 3.22099 12.0069 3.24528 11.9994 3.26775C11.9918 3.29023 11.9773 3.30976 11.9581 3.32358C11.9388 3.3374 11.9156 3.34481 11.8919 3.34476C11.8682 3.34471 11.8451 3.33721 11.8259 3.32332L11.2528 2.90707C11.2333 2.89304 11.2099 2.88549 11.1859 2.88549C11.1619 2.88549 11.1385 2.89304 11.119 2.90707L10.5459 3.32332C10.5267 3.33721 10.5036 3.34471 10.4798 3.34476C10.4561 3.34481 10.433 3.3374 10.4137 3.32358C10.3944 3.30976 10.38 3.29023 10.3724 3.26775C10.3648 3.24528 10.3645 3.22099 10.3715 3.19832L10.5903 2.52458C10.5973 2.50204 10.5971 2.47787 10.5897 2.45546C10.5823 2.43305 10.5681 2.41351 10.549 2.39958L9.97588 1.98333C9.95651 1.96919 9.9421 1.94929 9.93472 1.92647C9.92734 1.90365 9.92736 1.87908 9.93478 1.85628C9.94219 1.83347 9.95663 1.81359 9.97602 1.79948C9.99542 1.78537 10.0188 1.77775 10.0428 1.77771H10.7503C10.7743 1.77769 10.7977 1.77005 10.8171 1.75591C10.8365 1.74176 10.851 1.72182 10.8584 1.69896L11.0771 1.02584C11.0837 1.00201 11.0979 0.980975 11.1175 0.965917C11.1371 0.950859 11.1611 0.942599 11.1858 0.942387C11.2105 0.942175 11.2346 0.950023 11.2545 0.964743C11.2744 0.979463 11.2889 1.00025 11.2959 1.02397Z" fill="white"/>
<path d="M12.4287 1.8315C12.3749 1.859 12.3218 1.88837 12.2687 1.9165C11.9503 2.08858 11.6391 2.27087 11.3349 2.46337C11.0174 2.66253 10.7081 2.87336 10.4068 3.09586L10.5943 2.52524C10.6 2.5048 10.6 2.48319 10.5943 2.46274C10.5881 2.43612 10.5726 2.41261 10.5506 2.39649L9.97743 1.98025C9.95792 1.96624 9.94338 1.94638 9.93591 1.92356C9.92844 1.90073 9.92843 1.87612 9.93588 1.85329C9.94332 1.83045 9.95785 1.81059 9.97734 1.79656C9.99683 1.78253 10.0203 1.77506 10.0443 1.77525H10.7506C10.7745 1.77537 10.7979 1.76786 10.8174 1.75382C10.8368 1.73978 10.8513 1.71993 10.8587 1.69713L11.0774 1.02276C11.0849 0.999954 11.0993 0.98009 11.1188 0.966005C11.1382 0.951921 11.1616 0.944336 11.1856 0.944336C11.2095 0.944336 11.2329 0.951921 11.2523 0.966005C11.2718 0.98009 11.2862 0.999954 11.2937 1.02276L11.5124 1.69713C11.52 1.72088 11.5352 1.74148 11.5556 1.75572C11.5761 1.76996 11.6007 1.77705 11.6256 1.77588H12.3337C12.353 1.77605 12.3719 1.78127 12.3886 1.79103C12.4053 1.80079 12.4191 1.81474 12.4287 1.8315Z" fill="#DBDBDB"/>
<path d="M30.0823 17.0106C30.6443 17.0106 31.0998 16.555 31.0998 15.9931C31.0998 15.4311 30.6443 14.9756 30.0823 14.9756C29.5204 14.9756 29.0648 15.4311 29.0648 15.9931C29.0648 16.555 29.5204 17.0106 30.0823 17.0106Z" fill="#E54141"/>
<path d="M27.9623 16.7127C28.3603 16.7127 28.6829 16.3901 28.6829 15.9921C28.6829 15.5941 28.3603 15.2715 27.9623 15.2715C27.5643 15.2715 27.2417 15.5941 27.2417 15.9921C27.2417 16.3901 27.5643 16.7127 27.9623 16.7127Z" fill="#E54141"/>
</svg>
