<svg width="253" height="253" viewBox="0 0 253 253" fill="none" xmlns="http://www.w3.org/2000/svg">
<g filter="url(#filter0_d)">
<circle cx="126.5" cy="126.5" r="120.5" fill="#C2DAA5"/>
</g>
<g filter="url(#filter1_d)">
<circle cx="126.5" cy="126.5" r="108.5" fill="#B2E68D"/>
</g>
<ellipse cx="126.5" cy="126.5" rx="97.5" ry="95.5" fill="white"/>
<g clip-path="url(#clip0)">
<path d="M136.835 75.9733C136.835 75.9733 139.729 72.2505 144.778 68.5276C149.828 64.8049 157.032 61.082 165.654 61.082C174.275 61.082 177.27 72.1104 176.822 85.6585C176.374 99.2059 172.483 115.273 167.333 125.35L164.142 110.626L160.951 95.9031C160.951 95.9031 162.155 92.0682 162.882 87.0156C163.61 81.9634 163.862 75.6935 161.959 70.8228C161.959 70.8228 159.753 71.6573 157.112 73.7597C154.471 75.8619 151.395 79.2322 149.653 84.304L143.244 80.1387L136.835 75.9733Z" fill="#3988E5"/>
<path d="M175.11 69.5944C174.257 66.9895 173.072 64.8613 171.511 63.3843C169.95 61.9075 168.012 61.082 165.654 61.082C157.032 61.082 149.828 64.8049 144.778 68.5276C139.729 72.2505 136.835 75.9733 136.835 75.9733L143.244 80.1385L149.653 84.304C149.653 84.304 150.936 79.8298 154.76 75.7537C158.583 71.6782 164.947 68.0007 175.11 69.5944V69.5944Z" fill="#71B2FF"/>
<path d="M112.892 75.9733C112.892 75.9733 109.998 72.2505 104.949 68.5276C99.8997 64.8049 92.6949 61.082 84.0738 61.082C75.4523 61.082 72.4572 72.1104 72.9052 85.6585C73.3532 99.2059 77.2437 115.273 82.3941 125.35L85.5854 110.626L88.7761 95.9031C88.7761 95.9031 87.5724 92.0682 86.8444 87.0156C86.117 81.9634 85.8649 75.6935 87.7683 70.8228C87.7683 70.8228 89.9745 71.6573 92.6153 73.7597C95.2564 75.8619 98.3329 79.2322 100.074 84.304L106.483 80.1387L112.892 75.9733Z" fill="#3988E5"/>
<path d="M74.6169 69.5944C75.47 66.9895 76.6548 64.8613 78.2159 63.3843C79.777 61.9075 81.7146 61.082 84.0736 61.082C92.6947 61.082 99.8995 64.8049 104.949 68.5276C109.998 72.2505 112.892 75.9733 112.892 75.9733L106.483 80.1385L100.073 84.304C100.073 84.304 98.7907 79.8298 94.9675 75.7537C91.1442 71.6782 84.7801 68.0007 74.617 69.5944L74.6169 69.5944Z" fill="#71B2FF"/>
<path d="M135.535 83.5849H133.631H131.728V77.639V71.693H133.631H135.535V77.639V83.5849Z" fill="#71B2FF"/>
<path d="M117.621 83.5849H115.717H113.814V77.639V71.693H115.717H117.621V77.639V83.5849Z" fill="#71B2FF"/>
<path d="M118.628 69.2554V66.7175V64.18H124.674H130.72V66.7175V69.2554H124.674H118.628Z" fill="#71B2FF"/>
<path d="M113.814 71.6933L116.221 67.9366L118.628 64.18L119.524 65.2125L120.42 66.2448L119.524 67.7501L118.628 69.2554L118.125 70.4743L117.621 71.6933L116.669 72.8379L115.717 73.9821L114.766 72.8379L113.814 71.6933Z" fill="#71B2FF"/>
<path d="M130.72 64.18L133.127 67.9366L135.534 71.6933L134.685 72.7755L133.836 73.8578L132.782 72.7755L131.727 71.6933L131.224 70.4743L130.72 69.2554L129.899 67.9864L129.078 66.7175L129.899 65.4488L130.72 64.18Z" fill="#71B2FF"/>
<path d="M87.1762 97.6795L86.1454 99.7932L85.1146 101.906C84.864 102.42 84.4284 102.784 83.9272 102.956C83.4259 103.129 82.8588 103.11 82.3448 102.859L82.0934 102.737L81.8416 102.614C81.3274 102.363 80.9636 101.928 80.7914 101.427C80.6186 100.925 80.6374 100.358 80.8882 99.8443L81.919 97.7309L82.9497 95.6178C83.2005 95.1041 83.6358 94.74 84.1371 94.5671C84.6385 94.3948 85.2054 94.4136 85.7196 94.6642L85.9711 94.7868L86.2227 94.9101C86.7367 95.1605 87.1003 95.5963 87.2731 96.0971C87.4456 96.5987 87.4269 97.1654 87.1762 97.6795L87.1762 97.6795Z" fill="#C6C6C6"/>
<path d="M100.229 191.633H95.9934H91.7574L90.6378 190.064L89.5181 188.497H95.9934H102.469L101.349 190.064L100.229 191.633Z" fill="#524A60"/>
<path d="M157.592 191.633H153.357H149.12L148.001 190.064L146.881 188.497H153.357H159.832L158.712 190.064L157.592 191.633Z" fill="#524A60"/>
<path d="M77.4392 181.406H80.0824H82.7257V162.838V144.271H80.0824H77.4392C75.8072 144.271 74.3297 144.932 73.2602 146.002C72.1907 147.072 71.5291 148.549 71.5291 150.181V162.838V175.495C71.5291 177.128 72.1907 178.605 73.2602 179.674C74.3297 180.745 75.8072 181.406 77.4392 181.406Z" fill="#71B2FF"/>
<path d="M171.984 181.406H169.341H166.698V162.838V144.271H169.341H171.984C173.616 144.271 175.094 144.932 176.163 146.002C177.232 147.072 177.894 148.549 177.894 150.181V162.838V175.495C177.894 177.128 177.232 178.605 176.163 179.674C175.094 180.745 173.616 181.406 171.984 181.406Z" fill="#71B2FF"/>
<g clip-path="url(#clip1)">
<g clip-path="url(#clip2)">
<path d="M169.908 178.868C169.908 181.682 168.768 184.229 166.924 186.073C165.08 187.917 162.533 189.057 159.72 189.057H142.197H124.675H107.152H89.63C86.8165 189.057 84.2691 187.917 82.4254 186.073C80.5816 184.229 79.4412 181.682 79.4412 178.868V166.252V153.636V135.926V118.215C79.4412 111.97 80.707 106.02 82.9958 100.608C85.2849 95.1969 88.5968 90.3235 92.6899 86.2307C96.7827 82.1377 101.656 78.8256 107.068 76.5365C112.479 74.2478 118.429 72.982 124.675 72.982C130.92 72.982 136.87 74.2478 142.282 76.5365C147.693 78.8256 152.567 82.1377 156.66 86.2307C160.752 90.3235 164.065 95.1969 166.353 100.608C168.643 106.02 169.908 111.97 169.908 118.215V135.926V153.636V166.252L169.908 178.868Z" fill="#5299FF"/>
</g>
</g>
<path d="M133.518 86.0801L131.202 85.6753L128.886 85.2706C128.323 85.1719 127.853 84.8544 127.548 84.4206C127.244 83.9868 127.104 83.437 127.202 82.8734L127.251 82.5977L127.299 82.3218C127.398 81.7587 127.715 81.2885 128.149 80.9835C128.583 80.6791 129.133 80.5398 129.696 80.6383L132.012 81.043L134.328 81.4484C134.891 81.5466 135.362 81.8641 135.666 82.2979C135.971 82.7315 136.111 83.2819 136.012 83.845L135.964 84.1209L135.916 84.3966C135.817 84.9602 135.5 85.4304 135.066 85.7349C134.632 86.0398 134.082 86.1789 133.518 86.0802V86.0801Z" fill="#C6C6C6"/>
<path d="M142.086 90.1875L140.01 89.0839L137.934 87.9801C137.429 87.7114 137.081 87.2636 136.926 86.7568C136.771 86.2498 136.809 85.6837 137.077 85.1789L137.209 84.9317L137.34 84.6846C137.609 84.1793 138.057 83.831 138.563 83.6761C139.071 83.5209 139.636 83.5593 140.142 83.8281L142.218 84.9317L144.293 86.0355C144.799 86.3039 145.147 86.7519 145.302 87.2587C145.457 87.7657 145.419 88.3316 145.151 88.8364L145.019 89.0839L144.888 89.3311C144.619 89.836 144.171 90.1843 143.665 90.3393C143.158 90.4947 142.591 90.4559 142.086 90.1875V90.1875Z" fill="#C6C6C6"/>
<path d="M158.936 189.057H157.593H156.249V153.139V117.221C156.249 108.517 152.708 100.623 146.991 94.9056C141.273 89.1881 133.38 85.6472 124.675 85.6472C115.97 85.6472 108.077 89.1881 102.359 94.9056C96.642 100.623 93.1009 108.517 93.1009 117.221V153.139V189.057H91.7574H90.4141V153.139V117.221C90.4141 107.775 94.2564 99.2101 100.46 93.0061C106.664 86.8023 115.229 82.96 124.675 82.96C134.121 82.96 142.686 86.8023 148.89 93.0061C155.094 99.2101 158.936 107.775 158.936 117.221V153.139L158.936 189.057Z" fill="#524A60"/>
<path d="M157.592 189.057H124.674H91.7571V153.139V117.222C91.7571 108.131 95.4416 99.9022 101.399 93.9453C107.355 87.9885 115.585 84.304 124.674 84.304C133.764 84.304 141.994 87.9885 147.951 93.9453C153.908 99.9022 157.592 108.131 157.592 117.222V153.139V189.057Z" fill="#71B2FF"/>
<path fill-rule="evenodd" clip-rule="evenodd" d="M136.498 88.2365C136.386 87.1544 136.194 85.9382 135.964 84.7879C135.734 83.6379 135.466 82.5539 135.2 81.7355C135.087 81.3885 134.9 81.1016 134.669 80.8999C134.438 80.6986 134.162 80.5823 133.872 80.5757C133.849 80.5754 133.827 80.575 133.804 80.575C133.782 80.575 133.759 80.5756 133.736 80.5761C133.441 80.5837 133.163 80.7045 132.93 80.9128C132.697 81.121 132.51 81.416 132.398 81.7702C132.143 82.5698 131.892 83.6391 131.676 84.785C131.46 85.931 131.278 87.1536 131.163 88.2603C131.074 89.1092 131.272 89.9188 131.656 90.5317C132.04 91.1447 132.611 91.5609 133.269 91.6226C133.455 91.6402 133.644 91.6486 133.832 91.6479C134.02 91.647 134.209 91.6373 134.394 91.6183C135.055 91.5507 135.625 91.1312 136.008 90.5161C136.391 89.9007 136.587 89.0895 136.498 88.2365ZM133.831 90.1406C133.47 90.1406 133.144 89.9942 132.907 89.758C132.671 89.5216 132.524 89.1953 132.524 88.8342C132.524 88.4735 132.671 88.1473 132.907 87.911C133.144 87.6746 133.47 87.5282 133.831 87.5282C134.191 87.5282 134.518 87.6746 134.754 87.911C134.991 88.1473 135.137 88.4735 135.137 88.8342C135.137 89.1953 134.991 89.5216 134.754 89.758C134.518 89.9942 134.191 90.1406 133.831 90.1406Z" fill="#E2E2E2"/>
<path fill-rule="evenodd" clip-rule="evenodd" d="M143.068 90.4685C142.955 89.3861 142.763 88.1701 142.533 87.02C142.303 85.8698 142.035 84.7858 141.769 83.9674C141.656 83.6203 141.469 83.3335 141.238 83.1319C141.007 82.9307 140.731 82.8144 140.441 82.8077C140.418 82.8073 140.396 82.807 140.373 82.807C140.35 82.807 140.327 82.8073 140.305 82.8077C140.01 82.8153 139.731 82.9369 139.499 83.1449C139.266 83.3529 139.079 83.6476 138.966 84.0022C138.712 84.8018 138.461 85.8709 138.245 87.0169C138.029 88.1629 137.847 89.3858 137.732 90.4921C137.643 91.341 137.841 92.1505 138.225 92.7636C138.609 93.3765 139.18 93.793 139.838 93.8548C140.024 93.8725 140.212 93.8806 140.401 93.8797C140.589 93.8792 140.778 93.8691 140.963 93.8503C141.624 93.7825 142.194 93.3633 142.577 92.7482C142.96 92.133 143.156 91.3213 143.068 90.4685ZM140.4 92.3725C140.039 92.3725 139.712 92.2264 139.476 91.99C139.24 91.7539 139.093 91.4268 139.093 91.0664C139.093 90.7057 139.24 90.3792 139.476 90.1427C139.712 89.9062 140.039 89.7603 140.4 89.7603C140.76 89.7603 141.087 89.9061 141.323 90.1427C141.56 90.3792 141.706 90.7057 141.706 91.0664C141.706 91.4268 141.56 91.7539 141.323 91.99C141.087 92.2264 140.76 92.3725 140.4 92.3725Z" fill="#E2E2E2"/>
<path d="M146.517 128.877V126.525V124.174C146.517 123.602 146.749 123.084 147.124 122.709C147.499 122.335 148.017 122.103 148.589 122.103H148.869H149.149C149.72 122.103 150.238 122.335 150.613 122.709C150.988 123.084 151.22 123.602 151.22 124.174V126.525V128.877C151.22 129.449 150.988 129.966 150.613 130.341C150.238 130.716 149.72 130.948 149.149 130.948H148.869H148.589C148.017 130.948 147.499 130.716 147.124 130.341C146.749 129.966 146.517 129.449 146.517 128.877Z" fill="#C6C6C6"/>
<path fill-rule="evenodd" clip-rule="evenodd" d="M153.628 134.962C153.515 133.88 153.324 132.664 153.093 131.514C152.863 130.364 152.595 129.28 152.329 128.461C152.216 128.114 152.029 127.828 151.798 127.626C151.567 127.425 151.292 127.308 151.001 127.302C150.978 127.301 150.956 127.301 150.933 127.301C150.911 127.301 150.888 127.302 150.865 127.302C150.57 127.31 150.292 127.431 150.059 127.639C149.826 127.847 149.639 128.141 149.527 128.496C149.272 129.296 149.022 130.365 148.805 131.511C148.589 132.657 148.407 133.88 148.292 134.986C148.203 135.835 148.401 136.645 148.785 137.258C149.17 137.871 149.74 138.287 150.398 138.349C150.584 138.367 150.772 138.375 150.961 138.374C151.149 138.373 151.338 138.363 151.523 138.344C152.184 138.277 152.754 137.858 153.137 137.242C153.52 136.627 153.716 135.815 153.628 134.962H153.628ZM150.96 136.867C150.599 136.867 150.273 136.721 150.036 136.484C149.8 136.248 149.654 135.921 149.654 135.561C149.654 135.2 149.8 134.873 150.036 134.637C150.273 134.401 150.599 134.254 150.96 134.254C151.321 134.254 151.647 134.401 151.884 134.637C152.12 134.873 152.266 135.2 152.266 135.561C152.266 135.921 152.12 136.248 151.884 136.484C151.647 136.721 151.321 136.867 150.96 136.867Z" fill="#E2E2E2"/>
<path d="M145.716 180.062H124.674H103.633C102.185 180.062 100.874 179.475 99.9251 178.526C98.9762 177.577 98.3892 176.266 98.3892 174.818V168.516V162.215C98.3892 159.014 99.6865 156.117 101.784 154.02C103.88 151.923 106.777 150.626 109.978 150.626H124.674H139.371C142.571 150.626 145.468 151.923 147.565 154.02C149.662 156.117 150.96 159.014 150.96 162.215V168.516V174.818C150.96 176.266 150.373 177.577 149.424 178.526C148.475 179.475 147.164 180.062 145.716 180.062H145.716Z" fill="#5299FF"/>
<path d="M147.963 130.948H124.675H101.386V127.645V124.342C101.386 118.251 103.855 112.737 107.846 108.745C111.838 104.754 117.352 102.285 123.443 102.285H124.675H125.906C131.997 102.285 137.511 104.754 141.503 108.745C145.494 112.737 147.963 118.251 147.963 124.342V127.645L147.963 130.948Z" fill="#5299FF"/>
<path d="M148.635 130.948H147.963H147.291V127.645V124.342C147.291 118.446 144.893 113.099 141.021 109.228C137.148 105.355 131.802 102.956 125.906 102.956H124.674H123.443C117.547 102.956 112.201 105.355 108.328 109.228C104.456 113.099 102.058 118.446 102.058 124.342V127.645V130.948H101.386H100.714V127.645V124.342C100.714 118.075 103.263 112.394 107.379 108.278C111.494 104.162 117.177 101.613 123.443 101.613H124.674H125.906C132.172 101.613 137.855 104.162 141.97 108.278C146.086 112.394 148.635 118.075 148.635 124.342V127.645L148.635 130.948Z" fill="#524A60"/>
<path fill-rule="evenodd" clip-rule="evenodd" d="M84.0103 105.808C83.8979 104.725 83.7062 103.509 83.4761 102.359C83.2461 101.209 82.9778 100.125 82.712 99.3068C82.5992 98.9593 82.4123 98.6728 82.1808 98.4709C81.9498 98.2699 81.6742 98.1534 81.3842 98.1468C81.3615 98.146 81.3388 98.146 81.3161 98.146C81.2934 98.146 81.2704 98.146 81.2481 98.147C80.953 98.1545 80.6745 98.2758 80.4418 98.4838C80.2091 98.6918 80.0223 98.9868 79.9095 99.3415C79.6551 100.141 79.4041 101.21 79.1878 102.356C78.972 103.502 78.7904 104.725 78.6751 105.831C78.5863 106.68 78.7839 107.49 79.1679 108.103C79.5522 108.716 80.1231 109.132 80.7809 109.194C80.9665 109.211 81.1552 109.22 81.3437 109.219C81.5323 109.218 81.7209 109.208 81.9062 109.189C82.5665 109.121 83.1371 108.702 83.5201 108.087C83.9031 107.472 84.0989 106.66 84.0103 105.808V105.808ZM81.3427 107.712C80.9822 107.712 80.6555 107.565 80.419 107.329C80.1828 107.093 80.0364 106.766 80.0364 106.406C80.0364 106.045 80.1828 105.719 80.419 105.482C80.6555 105.245 80.9822 105.099 81.3427 105.099C81.7034 105.099 82.03 105.245 82.2665 105.482C82.5027 105.719 82.6489 106.045 82.6489 106.406C82.6489 106.766 82.5027 107.093 82.2665 107.329C82.03 107.565 81.7034 107.712 81.3427 107.712Z" fill="#E2E2E2"/>
<path d="M98.3892 162.215V163.387V164.559H124.674H150.959V163.387V162.215C150.959 162.082 150.956 161.95 150.951 161.818C150.946 161.686 150.939 161.555 150.93 161.424H124.674H98.4191C98.4105 161.555 98.403 161.686 98.3977 161.818C98.3925 161.95 98.3892 162.082 98.3892 162.215H98.3892Z" fill="#524A60"/>
<path d="M99.1064 165.342H101.458H103.809C104.381 165.342 104.899 165.11 105.274 164.736C105.649 164.361 105.88 163.843 105.88 163.271V162.991V162.711C105.88 162.139 105.649 161.621 105.274 161.247C104.899 160.872 104.381 160.64 103.809 160.64H101.458H99.1064C98.5345 160.64 98.0167 160.872 97.6418 161.247C97.2671 161.621 97.0352 162.139 97.0352 162.711V162.991V163.271C97.0352 163.843 97.2671 164.361 97.6418 164.736C98.0167 165.11 98.5345 165.342 99.1064 165.342Z" fill="#C6C6C6"/>
<path fill-rule="evenodd" clip-rule="evenodd" d="M99.1605 172.754C99.3457 172.773 99.5342 172.782 99.7226 172.783C99.9114 172.785 100.1 172.776 100.286 172.759C100.943 172.696 101.514 172.28 101.898 171.667C102.282 171.055 102.48 170.245 102.391 169.395C102.276 168.29 102.095 167.066 101.879 165.921C101.662 164.774 101.411 163.705 101.157 162.906C101.044 162.551 100.857 162.256 100.625 162.049C100.392 161.841 100.114 161.719 99.8184 161.712C99.7959 161.711 99.7733 161.711 99.7504 161.711C99.7276 161.711 99.7049 161.711 99.6825 161.712C99.3923 161.718 99.1169 161.834 98.8854 162.036C98.6542 162.237 98.4674 162.524 98.3547 162.871C98.0886 163.689 97.8205 164.774 97.5903 165.923C97.3604 167.073 97.1685 168.29 97.0563 169.372C96.9676 170.226 97.1636 171.036 97.5466 171.652C97.9297 172.267 98.4999 172.686 99.1605 172.754ZM98.4174 169.97C98.4174 169.609 98.5639 169.283 98.8001 169.046C99.0366 168.81 99.3633 168.664 99.7237 168.664C100.084 168.664 100.411 168.81 100.648 169.046C100.884 169.283 101.03 169.609 101.03 169.97C101.03 170.33 100.884 170.657 100.648 170.894C100.411 171.13 100.084 171.276 99.7237 171.276C99.3633 171.276 99.0366 171.13 98.8001 170.894C98.5639 170.657 98.4174 170.33 98.4174 169.97Z" fill="#E2E2E2"/>
</g>
<defs>
<filter id="filter0_d" x="0" y="0" width="253" height="253" filterUnits="userSpaceOnUse" color-interpolation-filters="sRGB">
<feFlood flood-opacity="0" result="BackgroundImageFix"/>
<feColorMatrix in="SourceAlpha" type="matrix" values="0 0 0 0 0 0 0 0 0 0 0 0 0 0 0 0 0 0 127 0"/>
<feOffset/>
<feGaussianBlur stdDeviation="3"/>
<feColorMatrix type="matrix" values="0 0 0 0 0 0 0 0 0 0 0 0 0 0 0 0 0 0 0.184314 0"/>
<feBlend mode="normal" in2="BackgroundImageFix" result="effect1_dropShadow"/>
<feBlend mode="normal" in="SourceGraphic" in2="effect1_dropShadow" result="shape"/>
</filter>
<filter id="filter1_d" x="12" y="12" width="229" height="229" filterUnits="userSpaceOnUse" color-interpolation-filters="sRGB">
<feFlood flood-opacity="0" result="BackgroundImageFix"/>
<feColorMatrix in="SourceAlpha" type="matrix" values="0 0 0 0 0 0 0 0 0 0 0 0 0 0 0 0 0 0 127 0"/>
<feOffset/>
<feGaussianBlur stdDeviation="3"/>
<feColorMatrix type="matrix" values="0 0 0 0 0 0 0 0 0 0 0 0 0 0 0 0 0 0 0.184314 0"/>
<feBlend mode="normal" in2="BackgroundImageFix" result="effect1_dropShadow"/>
<feBlend mode="normal" in="SourceGraphic" in2="effect1_dropShadow" result="shape"/>
</filter>
<clipPath id="clip0">
<rect width="106.365" height="130.551" fill="white" transform="translate(71.5291 61.082)"/>
</clipPath>
<clipPath id="clip1">
<rect width="90.4673" height="116.075" fill="white" transform="translate(79.4412 72.982)"/>
</clipPath>
<clipPath id="clip2">
<rect width="90.4673" height="116.075" fill="white" transform="translate(79.4412 72.982)"/>
</clipPath>
</defs>
</svg>
