<svg width="253" height="253" viewBox="0 0 253 253" fill="none" xmlns="http://www.w3.org/2000/svg">
<g filter="url(#filter0_d)">
<circle cx="126.5" cy="126.5" r="120.5" fill="#C2DAA5"/>
</g>
<g filter="url(#filter1_d)">
<circle cx="126.5" cy="126.5" r="108.5" fill="#B2E68D"/>
</g>
<ellipse cx="126.5" cy="126.5" rx="97.5" ry="95.5" fill="white"/>
<g clip-path="url(#clip0)">
<g clip-path="url(#clip1)">
<path d="M80.2229 120.42H73.8605C72.7657 120.422 71.8256 121.199 71.6176 122.274L61.5934 173.722C61.3333 175.066 61.6884 176.456 62.5613 177.511C63.4341 178.565 64.7331 179.174 66.102 179.169H115.468C115.468 181.687 120.594 183.746 126.911 183.746C133.228 183.746 138.354 181.687 138.354 179.169H187.72C189.089 179.174 190.388 178.565 191.261 177.511C192.133 176.456 192.488 175.066 192.228 173.722L182.204 122.274C181.996 121.199 181.056 120.422 179.961 120.42H80.2229Z" fill="#E64C3C"/>
<path d="M126.911 127.08V170.015C123.563 168.561 120.073 167.456 116.498 166.719C102.907 163.765 88.7747 164.483 75.5541 168.802C74.7942 169.034 73.9684 168.858 73.3685 168.337C72.7686 167.816 72.4789 167.024 72.6018 166.239L80.2229 120.42L80.8637 116.552C81.0277 115.571 81.8027 114.805 82.7861 114.653C84.3424 114.424 85.9445 114.195 87.5465 114.012C90.3431 119.448 95.9429 122.867 102.056 122.869C102.468 122.869 102.857 122.846 103.246 122.823C104.77 122.704 106.272 122.381 107.709 121.862C107.714 121.911 107.73 121.958 107.755 121.999C109.468 126.796 114.014 129.995 119.107 129.987C121.974 129.996 124.748 128.963 126.911 127.08L126.911 127.08Z" fill="#F5EFCA"/>
<path d="M178.268 168.801C165.047 164.483 150.915 163.764 137.324 166.719C133.749 167.456 130.259 168.56 126.911 170.014V127.08C127.392 126.686 127.837 126.25 128.238 125.775C130.525 126.685 132.964 127.151 135.425 127.148H135.562C135.681 128.785 136.305 130.344 137.347 131.611C139.569 133.807 142.345 135.358 145.38 136.097C147.582 136.8 149.547 138.099 151.056 139.85C152.401 141.517 154.681 142.103 156.663 141.292C158.408 140.538 159.541 138.822 159.547 136.921C159.549 136.424 159.472 135.929 159.318 135.456C159.089 134.747 158.837 134.037 158.54 133.351C157.966 131.933 157.212 130.594 156.297 129.368C160.836 126.914 164.024 122.54 164.971 117.468C165.04 117.376 165.131 117.284 165.2 117.193C165.983 116.272 166.623 115.238 167.099 114.126C168.427 114.286 169.731 114.447 171.036 114.652C172.019 114.805 172.794 115.57 172.958 116.552L173.599 120.42L181.22 166.238C181.343 167.023 181.053 167.816 180.453 168.337C179.853 168.858 179.028 169.033 178.268 168.801L178.268 168.801Z" fill="#F9EAB0"/>
<path d="M138.354 179.169C138.354 181.687 133.228 183.746 126.911 183.746C120.595 183.746 115.468 181.687 115.468 179.169L116.498 166.719C120.073 167.456 123.563 168.56 126.911 170.015C130.259 168.56 133.749 167.456 137.324 166.719L138.354 179.169Z" fill="#C03A2B"/>
<path d="M168.106 109.344C168.104 110.99 167.761 112.619 167.099 114.127C166.623 115.239 165.982 116.272 165.199 117.194C165.131 117.285 165.039 117.377 164.97 117.468C164.023 122.541 160.835 126.914 156.296 129.369C157.212 130.595 157.965 131.933 158.539 133.351C158.837 134.038 159.089 134.747 159.317 135.457C159.471 135.93 159.549 136.424 159.546 136.922C159.54 138.823 158.408 140.539 156.663 141.293C154.68 142.104 152.401 141.518 151.055 139.851C149.546 138.1 147.582 136.801 145.38 136.098C142.345 135.359 139.568 133.808 137.347 131.612C136.304 130.345 135.68 128.786 135.561 127.149H135.424C132.963 127.152 130.524 126.686 128.238 125.776C127.836 126.25 127.392 126.687 126.91 127.081C124.748 128.964 121.974 129.997 119.106 129.987C114.013 129.995 109.467 126.796 107.755 122C107.729 121.958 107.714 121.911 107.709 121.862C106.271 122.381 104.77 122.705 103.246 122.824C102.857 122.847 102.468 122.869 102.056 122.869C95.8704 122.865 90.2167 119.371 87.4465 113.84C84.6764 108.31 85.264 101.69 88.965 96.7333C88.6897 95.986 88.5502 95.1954 88.553 94.3989C88.5392 91.0167 90.9149 88.095 94.2288 87.4186C94.2411 87.4062 94.2572 87.3982 94.2746 87.3957C94.2517 87.1211 94.2288 86.8465 94.2288 86.5489C94.2257 85.2796 94.4909 84.024 95.0069 82.8643C96.4672 79.487 99.7955 77.3012 103.475 77.3029C104.863 77.2963 106.233 77.6095 107.48 78.2183C109.916 74.1162 114.335 71.6025 119.106 71.6042C122.38 71.5923 125.542 72.7905 127.986 74.9685C129.389 72.7055 131.941 71.4185 134.595 71.6356C137.248 71.8527 139.557 73.5374 140.574 75.9984C141.227 75.9254 141.884 75.8872 142.542 75.8839C151.409 75.8986 158.789 82.7011 159.523 91.5381H159.592C161.478 91.5381 163.286 92.2888 164.617 93.6242C165.948 94.9597 166.693 96.7702 166.687 98.6558C166.682 99.8888 166.368 101.101 165.771 102.18C167.29 104.26 168.108 106.769 168.106 109.344L168.106 109.344Z" fill="#FB7B76"/>
<path d="M126.911 57.872C125.647 57.872 124.622 56.8473 124.622 55.5834V53.2947C124.622 52.0308 125.647 51.0061 126.911 51.0061C128.175 51.0061 129.199 52.0308 129.199 53.2947V55.5834C129.199 56.8473 128.175 57.872 126.911 57.872Z" fill="#F0C419"/>
<path d="M163.797 73.6242C162.872 73.624 162.037 73.0664 161.683 72.2113C161.329 71.3562 161.525 70.372 162.179 69.7175L164.468 67.4289C165.042 66.8339 165.893 66.5953 166.694 66.8048C167.494 67.0142 168.119 67.6391 168.328 68.4393C168.537 69.2394 168.299 70.0904 167.704 70.665L165.415 72.9536C164.986 73.3828 164.404 73.624 163.797 73.6242Z" fill="#F0C419"/>
<path d="M90.0255 73.6242C89.4186 73.624 88.8365 73.3828 88.4074 72.9536L86.1188 70.665C85.5239 70.0904 85.2852 69.2394 85.4947 68.4393C85.7041 67.6391 86.329 67.0142 87.1292 66.8047C87.9294 66.5953 88.7803 66.8339 89.3549 67.4288L91.6435 69.7175C92.2979 70.372 92.4936 71.3562 92.1394 72.2113C91.7853 73.0664 90.951 73.624 90.0255 73.6242Z" fill="#F0C419"/>
<path d="M107.643 63.9938C106.717 63.994 105.883 63.4367 105.528 62.5817L102.901 56.2376C102.567 55.4785 102.67 54.5981 103.169 53.9363C103.669 53.2746 104.488 52.935 105.31 53.0488C106.131 53.1625 106.827 53.7118 107.128 54.4845L109.758 60.8286C109.991 61.3897 109.992 62.0206 109.759 62.5821C109.527 63.1436 109.081 63.5898 108.519 63.8221C108.241 63.9355 107.943 63.9938 107.643 63.9938H107.643Z" fill="#F0C419"/>
<path d="M146.179 63.9938C145.879 63.9931 145.581 63.934 145.303 63.8198C144.742 63.5875 144.296 63.1417 144.064 62.5807C143.832 62.0197 143.832 61.3894 144.065 60.8286L146.694 54.4845C146.995 53.7118 147.691 53.1625 148.513 53.0488C149.334 52.935 150.153 53.2746 150.653 53.9363C151.153 54.5981 151.255 55.4785 150.921 56.2376L148.294 62.5817C147.94 63.4367 147.105 63.994 146.179 63.9938L146.179 63.9938Z" fill="#F0C419"/>
<path d="M173.427 91.2451C172.332 91.2484 171.389 90.4765 171.175 89.4031C170.962 88.3297 171.538 87.2553 172.55 86.8395L178.894 84.2122C179.65 83.8994 180.515 84.0135 181.163 84.5114C181.812 85.0093 182.146 85.8154 182.039 86.6261C181.932 87.4367 181.401 88.1288 180.645 88.4415L174.303 91.0689C174.026 91.1847 173.728 91.2446 173.427 91.2451L173.427 91.2451Z" fill="#F0C419"/>
<path d="M80.3948 91.2451C80.0938 91.2446 79.796 91.1847 79.5182 91.0689L73.1764 88.4415C72.4209 88.1288 71.8897 87.4367 71.7827 86.6261C71.6758 85.8154 72.0095 85.0093 72.6581 84.5114C73.3067 84.0135 74.1717 83.8994 74.9272 84.2122L81.2713 86.8395C82.2837 87.2553 82.8599 88.3297 82.6464 89.4031C82.4328 90.4765 81.4892 91.2484 80.3948 91.2451Z" fill="#F0C419"/>
<path d="M165.199 117.193C165.13 117.285 165.039 117.376 164.97 117.468C164.567 119.672 163.727 121.773 162.499 123.647C161.3 123.987 160.06 124.157 158.814 124.15C156.546 124.144 154.311 123.603 152.291 122.571C151.335 122.06 150.437 121.446 149.614 120.74C148.701 121.094 147.732 121.28 146.753 121.29C143.73 121.305 140.961 119.601 139.612 116.896C139.244 116.164 139.295 115.291 139.745 114.607C140.194 113.922 140.975 113.53 141.793 113.577C142.611 113.624 143.341 114.104 143.709 114.836C144.161 115.703 144.962 116.337 145.91 116.578C146.859 116.818 147.864 116.642 148.675 116.094C149.591 115.47 150.139 114.433 150.14 113.325C150.143 112.795 150.026 112.27 149.797 111.792C149.336 110.685 149.807 109.411 150.877 108.87C151.947 108.329 153.252 108.705 153.87 109.732C154.427 110.848 154.717 112.078 154.717 113.325C154.699 114.924 154.196 116.48 153.275 117.788C153.642 118.04 154.008 118.292 154.374 118.498C155.747 119.204 157.269 119.573 158.814 119.573C161.162 119.586 163.433 118.74 165.199 117.193Z" fill="#FF5364"/>
<path d="M137.21 108.208C140.175 106.165 142.213 103.035 142.883 99.497C143.054 98.6871 142.774 97.8484 142.151 97.3034C141.528 96.7584 140.659 96.5922 139.879 96.8686C139.099 97.1449 138.529 97.8209 138.388 98.6365C137.94 100.997 136.578 103.085 134.598 104.447C130.791 107.012 125.684 106.43 122.551 103.074C121.699 102.139 120.249 102.072 119.314 102.924C118.378 103.777 118.311 105.226 119.164 106.161C121.105 108.305 123.671 109.784 126.499 110.391C125.217 112.193 123.14 113.261 120.928 113.256C119.664 113.256 118.64 114.281 118.64 115.545C118.64 116.809 119.664 117.833 120.928 117.833C125.666 117.852 129.917 114.926 131.591 110.494C133.61 110.158 135.53 109.377 137.21 108.208Z" fill="#FF5364"/>
<path d="M158.539 133.35C156.857 134.209 155.05 134.796 153.184 135.09C153.063 135.109 152.94 135.116 152.818 135.113C151.612 135.124 150.605 134.198 150.514 132.996C150.424 131.794 151.281 130.728 152.474 130.558C153.801 130.357 155.09 129.956 156.296 129.368C157.212 130.594 157.965 131.932 158.539 133.35H158.539Z" fill="#FF5364"/>
<path d="M107.549 117.376C107.434 118.018 107.372 118.669 107.366 119.322C107.361 120.18 107.477 121.035 107.709 121.862C106.272 122.381 104.77 122.704 103.246 122.823C102.954 121.702 102.8 120.549 102.789 119.39C98.7575 118.951 95.7016 115.55 95.694 111.495C95.6864 110.22 96.7081 109.178 97.9826 109.16C98.5868 109.156 99.1676 109.393 99.5969 109.818C100.026 110.243 100.269 110.822 100.271 111.426V111.495C100.305 113.303 101.737 114.775 103.544 114.859C103.86 113.827 104.298 112.835 104.849 111.907C105.156 111.382 105.662 111.003 106.252 110.857C106.843 110.71 107.467 110.808 107.984 111.128C109.06 111.794 109.406 113.198 108.762 114.287C108.181 115.238 107.77 116.284 107.549 117.376H107.549Z" fill="#FF5364"/>
<path d="M141.581 130.764C140.206 131.204 138.786 131.488 137.347 131.611C136.305 130.344 135.681 128.785 135.562 127.148C135.784 127.152 136.005 127.145 136.226 127.125C137.585 127.039 138.929 126.793 140.231 126.393C141.02 126.122 141.894 126.303 142.512 126.864C143.13 127.425 143.393 128.277 143.199 129.089C143.006 129.901 142.386 130.543 141.581 130.764H141.581Z" fill="#FF5364"/>
<path d="M121.875 89.9127C121.875 88.6488 120.851 87.6241 119.587 87.6241C113.775 87.6304 109.065 92.3401 109.059 98.1518C109.059 99.4158 110.084 100.44 111.348 100.44C112.612 100.44 113.636 99.4158 113.636 98.1518C113.636 96.5736 114.263 95.0601 115.379 93.9442C116.495 92.8283 118.009 92.2014 119.587 92.2014C120.851 92.2014 121.875 91.1767 121.875 89.9127Z" fill="#FF5364"/>
<path d="M92.0046 102.781C91.5889 102.782 91.1811 102.668 90.8259 102.452C88.9387 101.313 87.5108 99.5482 86.7911 97.4648C86.4429 96.4743 86.2657 95.4319 86.267 94.382C86.267 89.1953 90.4636 84.9863 95.6504 84.9712C98.6224 84.9598 101.42 86.3712 103.178 88.768C103.665 89.4246 103.766 90.2915 103.441 91.0421C103.116 91.7928 102.416 92.3132 101.603 92.4073C100.791 92.5014 99.9898 92.1549 99.5021 91.4983C98.6051 90.2744 97.177 89.5531 95.6595 89.5576C93.4933 89.5697 91.5994 91.021 91.0243 93.1095C90.4492 95.198 91.3332 97.4142 93.1878 98.5336C94.0696 99.0638 94.4892 100.117 94.2132 101.109C93.9372 102.1 93.0336 102.785 92.0046 102.784L92.0046 102.781Z" fill="#FF5364"/>
<path d="M141.116 81.0121C139.852 81.0121 138.827 79.9875 138.827 78.7235C138.827 76.0647 136.672 73.9094 134.013 73.9094C131.355 73.9094 129.199 76.0647 129.199 78.7235C129.199 79.9875 128.175 81.0121 126.911 81.0121C125.647 81.0121 124.622 79.9875 124.622 78.7235C124.622 73.5368 128.827 69.3321 134.013 69.3321C139.2 69.3321 143.405 73.5368 143.405 78.7235C143.405 79.3305 143.164 79.9126 142.734 80.3418C142.305 80.771 141.723 81.0121 141.116 81.0121L141.116 81.0121Z" fill="#FF5364"/>
<path d="M162.584 107.4C161.521 107.39 160.606 106.649 160.373 105.612C160.141 104.576 160.653 103.515 161.609 103.052C162.521 102.623 163.278 101.923 163.776 101.047C164.941 99.0629 164.536 96.5319 162.81 95.0102C161.085 93.4885 158.523 93.4029 156.7 94.806C155.689 95.5644 154.254 95.3594 153.496 94.3482C152.737 93.3371 152.942 91.9025 153.954 91.1442C155.555 89.9316 157.506 89.27 159.515 89.2583C163.937 89.2283 167.782 92.2814 168.756 96.5945C169.73 100.908 167.569 105.317 163.564 107.19C163.257 107.332 162.922 107.404 162.584 107.4H162.584Z" fill="#FF5364"/>
</g>
</g>
<defs>
<filter id="filter0_d" x="0" y="0" width="253" height="253" filterUnits="userSpaceOnUse" color-interpolation-filters="sRGB">
<feFlood flood-opacity="0" result="BackgroundImageFix"/>
<feColorMatrix in="SourceAlpha" type="matrix" values="0 0 0 0 0 0 0 0 0 0 0 0 0 0 0 0 0 0 127 0"/>
<feOffset/>
<feGaussianBlur stdDeviation="3"/>
<feColorMatrix type="matrix" values="0 0 0 0 0 0 0 0 0 0 0 0 0 0 0 0 0 0 0.184314 0"/>
<feBlend mode="normal" in2="BackgroundImageFix" result="effect1_dropShadow"/>
<feBlend mode="normal" in="SourceGraphic" in2="effect1_dropShadow" result="shape"/>
</filter>
<filter id="filter1_d" x="12" y="12" width="229" height="229" filterUnits="userSpaceOnUse" color-interpolation-filters="sRGB">
<feFlood flood-opacity="0" result="BackgroundImageFix"/>
<feColorMatrix in="SourceAlpha" type="matrix" values="0 0 0 0 0 0 0 0 0 0 0 0 0 0 0 0 0 0 127 0"/>
<feOffset/>
<feGaussianBlur stdDeviation="3"/>
<feColorMatrix type="matrix" values="0 0 0 0 0 0 0 0 0 0 0 0 0 0 0 0 0 0 0.184314 0"/>
<feBlend mode="normal" in2="BackgroundImageFix" result="effect1_dropShadow"/>
<feBlend mode="normal" in="SourceGraphic" in2="effect1_dropShadow" result="shape"/>
</filter>
<clipPath id="clip0">
<rect width="130.802" height="132.74" fill="white" transform="translate(61.51 51.0061)"/>
</clipPath>
<clipPath id="clip1">
<rect width="130.802" height="132.74" fill="white" transform="translate(61.51 51.0061)"/>
</clipPath>
</defs>
</svg>
