<svg width="118" height="173" viewBox="0 0 118 173" fill="none" xmlns="http://www.w3.org/2000/svg">
<g clip-path="url(#clip0)">
<g clip-path="url(#clip1)">
<path d="M61.784 108.525L45.1023 171.177C44.5345 173.303 41.9607 173.672 41.1621 171.741C39.0121 166.541 36.862 161.341 34.7117 156.142C34.1843 154.867 32.7386 154.488 31.6543 155.34C27.3243 158.745 22.9941 162.151 18.6641 165.556C17.0127 166.855 14.9419 165.245 15.5128 163.106L32.7685 99.556L61.784 108.525Z" fill="#BDE3F7"/>
<path d="M82.8314 95.104L106.602 160.891C107.351 162.959 105.454 164.743 103.696 163.621C98.9635 160.6 94.231 157.578 89.4985 154.557C88.3379 153.816 86.9368 154.338 86.5359 155.661C84.9349 160.943 83.3339 166.225 81.7328 171.508C81.1223 173.522 78.5057 173.396 77.7513 171.315L54.073 105.71L82.8314 95.104Z" fill="#BDE3F7"/>
<path d="M61.7842 108.524L58.9402 119.202L58.6864 120.165L47.9711 124.222C46.7855 124.67 45.5443 124.896 44.2788 124.896C41.1359 124.896 38.1911 123.502 36.2024 121.065L29.2419 112.547L32.7674 99.558L54.2466 106.195L61.7842 108.524Z" fill="#BDE3F7"/>
<path d="M89.0211 112.241L81.8104 121.065C79.8217 123.502 76.8769 124.896 73.7339 124.896C72.4684 124.896 71.2272 124.67 70.0416 124.222L59.2846 120.147L58.9404 119.201L54.2468 106.195L54.073 105.712L82.8291 95.104L89.0211 112.241Z" fill="#BDE3F7"/>
</g>
<path d="M69.991 124.202C70.6019 124.433 71.2305 124.62 71.874 124.733C75.6894 125.4 79.4332 123.977 81.8105 121.064L89.0213 112.24L82.8292 95.103L61.319 103.038L61.3186 103.037L54.0731 105.71L54.247 106.194L39.1823 101.539V101.538L32.7677 99.5567L15.5127 163.104C14.9425 165.243 17.0112 166.852 18.6626 165.556C19.9942 164.509 21.3223 163.462 22.6539 162.419L33.7388 121.589C34.0405 120.477 35.4737 120.172 36.2027 121.064C38.1914 123.501 41.1362 124.895 44.2792 124.895C45.5447 124.895 46.7859 124.669 47.9715 124.221L58.6868 120.164L58.9406 119.201L59.2827 120.146L77.7497 171.313C78.5041 173.396 81.1221 173.521 81.734 171.508C82.3877 169.352 83.0413 167.197 83.6949 165.041L69.2275 124.953C69.0572 124.479 69.5203 124.023 69.991 124.201L69.991 124.202Z" fill="#79B9E2"/>
<path d="M116.181 76.8489L106.023 85.1732C105.368 85.7097 104.932 86.4666 104.795 87.3017L102.676 100.275C102.436 101.749 101.281 102.904 99.8073 103.145L86.8627 105.266C86.0262 105.403 85.2687 105.841 84.7325 106.498L76.4263 116.665C75.4806 117.823 73.9008 118.247 72.5024 117.717L60.2369 113.073C59.4435 112.773 58.5677 112.773 57.7746 113.073L45.5091 117.717C44.1111 118.247 42.5312 117.823 41.5852 116.665L33.279 106.497C32.7428 105.841 31.9853 105.403 31.1488 105.266L18.2042 103.145C16.7308 102.904 15.5758 101.748 15.3352 100.274L13.2165 87.3013C13.0802 86.4659 12.6435 85.7093 11.9888 85.1729L1.83123 76.8485C0.67765 75.9032 0.25557 74.3272 0.7823 72.9316L5.42479 60.632C5.72344 59.8407 5.72344 58.9677 5.42479 58.1764L0.7823 45.8767C0.25557 44.4812 0.67766 42.9055 1.83123 41.9599L11.9888 33.6355C12.6435 33.0991 13.0798 32.3422 13.2165 31.5071L15.3352 18.534C15.5758 17.0602 16.7308 15.9049 18.2042 15.6636L31.1488 13.5424C31.9853 13.4055 32.7429 12.9674 33.279 12.311L41.5852 2.14327C42.5309 0.985517 44.1107 0.562047 45.5091 1.09156L57.7746 5.73578C58.568 6.03617 59.4438 6.03617 60.2369 5.73578L72.5031 1.09225C73.9011 0.562737 75.4809 0.986557 76.4269 2.14396L84.7332 12.3117C85.2693 12.9681 86.0269 13.4061 86.8634 13.5431L99.808 15.6643C101.281 15.9056 102.436 17.0612 102.677 18.5347L104.796 31.5078C104.932 32.3432 105.369 33.0998 106.023 33.6362L116.181 41.9606C117.335 42.9059 117.757 44.4819 117.23 45.8774L112.587 58.1771C112.289 58.9684 112.289 59.8414 112.587 60.6327L117.23 72.9324C117.756 74.3276 117.334 75.9036 116.181 76.8489L116.181 76.8489Z" fill="#3693CE"/>
<ellipse cx="59.0066" cy="59.4049" rx="40.8516" ry="41.0042" fill="#BDE3F7"/>
<path d="M88.698 87.5625C81.2578 95.4721 70.7059 100.409 59.0066 100.409C36.4461 100.409 18.155 82.0519 18.155 59.4045C18.155 45.2089 25.3449 32.6962 36.2688 25.3359C29.3501 32.6788 25.1085 42.5875 25.1085 53.494C25.1085 76.1414 43.3996 94.4986 65.9601 94.4986C74.3773 94.4986 82.1999 91.9429 88.6979 87.5625H88.698Z" fill="#79B9E2"/>
<path fill-rule="evenodd" clip-rule="evenodd" d="M59.0063 103.017C35.0429 103.017 15.5471 83.4529 15.5471 59.4054C15.5471 35.3579 35.0429 15.7939 59.0063 15.7939C82.9697 15.7939 102.465 35.3579 102.465 59.4054C102.465 83.4529 82.9697 103.017 59.0063 103.017ZM59.0063 21.0087C37.9185 21.0087 20.7622 38.2331 20.7622 59.405C20.7622 80.577 37.9185 97.8014 59.0063 97.8014C80.0941 97.8014 97.2504 80.577 97.2504 59.4051C97.2504 38.2331 80.0941 21.0087 59.0063 21.0087V21.0087Z" fill="#FEC572"/>
<path d="M65.8036 78.9589C65.8036 81.839 63.4686 84.174 60.5885 84.174C57.7084 84.174 55.3734 81.839 55.3734 78.9589V45.5312H50.4712C47.5911 45.5312 45.2561 43.1962 45.2561 40.3161C45.2561 37.4359 47.5911 35.101 50.4712 35.101H60.5885C63.4686 35.101 65.8036 37.4359 65.8036 40.3161V78.9589Z" fill="#F5737F"/>
</g>
<defs>
<clipPath id="clip0">
<rect width="116.896" height="172.134" fill="white" transform="translate(0.558105 0.865967)"/>
</clipPath>
<clipPath id="clip1">
<rect width="91.3538" height="77.8963" fill="white" transform="translate(15.416 95.104)"/>
</clipPath>
</defs>
</svg>
