<svg width="136" height="161" viewBox="0 0 136 161" fill="none" xmlns="http://www.w3.org/2000/svg">
<g clip-path="url(#clip0)">
<g clip-path="url(#clip1)">
<path d="M31.4197 79.0406C30.2968 79.0406 29.189 78.8329 28.1746 78.3994C23.5774 76.4352 23.3047 71.3804 23.4007 69.2982C23.4611 67.9858 24.5705 66.9721 25.8864 67.0319C27.1985 67.0925 28.2131 68.2051 28.1527 69.5175C28.0761 71.1727 28.3423 73.2984 30.0441 74.0252C31.4826 74.6399 33.6263 74.12 34.8221 72.8658C35.7576 71.884 35.8993 70.7004 35.2428 69.3474C32.9542 64.6323 28.2009 62.7018 22.6973 60.467C12.8798 56.481 0.663086 51.5197 0.663086 27.7171V17.7739C0.663086 15.8569 1.41063 14.0556 2.76776 12.7019C4.12522 11.3482 5.92431 10.6016 7.84508 10.6101C13.1714 10.6235 18.1561 13.2493 21.18 17.6341L23.0295 20.3165C24.0729 21.8294 25.7935 22.733 27.6313 22.733H38.7703C40.0839 22.733 41.1486 23.7977 41.1486 25.1113C41.1486 26.4247 40.0839 27.4897 38.7703 27.4897H27.6313C24.2293 27.4897 21.0449 25.8176 19.1135 23.0167L17.264 20.3343C15.1256 17.2334 11.6 15.3761 7.8335 15.3668C7.83131 15.3668 7.82912 15.3668 7.82724 15.3668C7.18542 15.3668 6.58208 15.6164 6.12731 16.0699C5.67127 16.5247 5.42011 17.1302 5.42011 17.7742V27.7174C5.42011 37.025 7.38278 43.7375 11.4201 48.239C14.9686 52.1953 19.8072 54.1602 24.4867 56.0603C30.3609 58.4458 36.4357 60.9124 39.5216 67.2708C41.0435 70.4067 40.5737 73.7253 38.2651 76.1478C36.4879 78.0116 33.9172 79.0406 31.4197 79.0406V79.0406Z" fill="#FFB125"/>
<path d="M104.685 79.0409C102.188 79.0409 99.6171 78.0118 97.8402 76.1477C95.5316 73.7252 95.0618 70.407 96.5838 67.2711C99.6697 60.9126 105.744 58.4458 111.619 56.0602C116.298 54.1598 121.137 52.1949 124.685 48.2389C128.723 43.7374 130.685 37.0249 130.685 27.7173V17.7742C130.685 17.1301 130.434 16.5249 129.978 16.0698C129.522 15.6147 128.908 15.362 128.272 15.3667C124.505 15.3761 120.98 17.2331 118.842 20.3345L116.992 23.0163C115.061 25.8175 111.877 27.4896 108.474 27.4896H97.3353C96.0217 27.4896 94.957 26.4249 94.957 25.1113C94.957 23.7976 96.0217 22.7329 97.3353 22.7329H108.474C110.312 22.7329 112.033 21.8293 113.077 20.3161L114.925 17.6343C117.949 13.2492 122.934 10.6234 128.261 10.61C128.267 10.61 128.273 10.61 128.279 10.61C130.189 10.61 131.985 11.3525 133.338 12.7018C134.695 14.0555 135.442 15.8568 135.442 17.7738V27.717C135.442 51.5196 123.225 56.4809 113.408 60.4669C107.905 62.702 103.152 64.6322 100.863 69.3476C100.206 70.7004 100.348 71.8839 101.284 72.8657C102.479 74.12 104.623 74.6398 106.062 74.0252C107.763 73.2983 108.029 71.1727 107.953 69.5174C107.893 68.2053 108.907 67.0928 110.219 67.0318C111.535 66.9739 112.644 67.9861 112.705 69.2982C112.801 71.3803 112.528 76.4351 107.931 78.3994C106.916 78.8332 105.808 79.0409 104.685 79.0409V79.0409Z" fill="#FFB125"/>
</g>
<g clip-path="url(#clip2)">
<rect x="62.8044" y="91.9697" width="10.4946" height="47.6609" fill="#FED130"/>
<path d="M29.467 6.125V37.0802C29.467 59.0318 39.9 79.677 57.5735 92.6972L68.0527 100.417L78.532 92.697C96.2055 79.6767 106.638 59.0315 106.638 37.0799V6.125L29.467 6.125Z" fill="#FED130"/>
</g>
<path d="M92.0476 6.12402V37.0792C92.0476 59.0309 81.6146 79.676 63.9412 92.6963L60.7571 95.0421L68.052 100.417L78.5312 92.6963C96.2047 79.676 106.638 59.0309 106.638 37.0792V6.12402L92.0476 6.12402Z" fill="#F7BC14"/>
<path d="M109.474 11.4258H26.6308C25.4241 11.4258 24.446 10.4478 24.446 9.24108V3.00775C24.446 1.80106 25.4241 0.822998 26.6308 0.822998H109.474C110.681 0.822998 111.659 1.80105 111.659 3.00775V9.24108C111.659 10.4478 110.681 11.4258 109.474 11.4258H109.474Z" fill="#FFB125"/>
<path d="M109.474 0.823008H97.1492V11.4258H109.474C110.681 11.4258 111.659 10.4478 111.659 9.24108V3.00775C111.659 1.80106 110.68 0.822998 109.474 0.822998V0.823008Z" fill="#FF901D"/>
<path d="M68.4857 29.6261L73.9686 40.7356C74.039 40.8779 74.1748 40.9767 74.3321 40.9996L86.5923 42.7812C86.9883 42.8387 87.1462 43.3254 86.8597 43.6044L77.9881 52.252C77.8743 52.3631 77.8223 52.5226 77.8493 52.6793L79.9436 64.8898C80.0112 65.2842 79.5974 65.5848 79.2433 65.3987L68.2777 59.6336C68.1369 59.5597 67.9689 59.5597 67.8285 59.6336L56.8629 65.3987C56.5088 65.5848 56.095 65.2842 56.1626 64.8898L58.2569 52.6793C58.2838 52.5226 58.2319 52.3631 58.1181 52.252L49.2465 43.6044C48.9599 43.3251 49.1179 42.8387 49.5139 42.7812L61.7741 40.9996C61.9314 40.9767 62.0672 40.8779 62.1376 40.7356L67.6205 29.6261C67.7969 29.2673 68.3086 29.2673 68.4857 29.6261Z" fill="white"/>
<path d="M74.0059 104.115H62.0992C59.8669 104.115 58.0571 102.306 58.0571 100.073V98.327C58.0571 96.0947 59.8669 94.285 62.0992 94.285H74.0059C76.2382 94.285 78.048 96.0947 78.048 98.327V100.073C78.048 102.306 76.2382 104.115 74.0059 104.115Z" fill="#FFB125"/>
<path d="M88.5268 146.703H47.5781V137.992C47.5781 134.99 50.0118 132.556 53.0139 132.556H83.0914C86.0935 132.556 88.5272 134.99 88.5272 137.992V146.703H88.5268Z" fill="#FFB125"/>
<path d="M83.0908 132.557H74.0681V146.704H88.5266V137.992C88.5266 134.991 86.0932 132.557 83.0908 132.557L83.0908 132.557Z" fill="#FF901D"/>
<path d="M99.953 160.965H36.1516C34.2439 160.965 32.8105 159.224 33.1764 157.352L35.4616 145.657C35.7397 144.234 36.9867 143.207 38.4367 143.207H97.6673C99.1173 143.207 100.364 144.234 100.642 145.657L102.928 157.352C103.294 159.224 101.86 160.965 99.953 160.965Z" fill="#FF901D"/>
<path d="M102.929 157.352L100.643 145.657C100.365 144.234 99.1183 143.207 97.6683 143.207H85.4941L88.9638 160.965H99.9532C101.861 160.965 103.294 159.224 102.929 157.352V157.352Z" fill="#FF6D3A"/>
</g>
<defs>
<clipPath id="clip0">
<rect width="134.779" height="160.142" fill="white" transform="translate(0.663086 0.822998)"/>
</clipPath>
<clipPath id="clip1">
<rect width="134.779" height="68.4309" fill="white" transform="translate(0.663086 10.61)"/>
</clipPath>
<clipPath id="clip2">
<rect width="77.1714" height="133.506" fill="white" transform="translate(29.467 6.125)"/>
</clipPath>
</defs>
</svg>
