<svg width="142" height="114" viewBox="0 0 142 114" fill="none" xmlns="http://www.w3.org/2000/svg">
<g clip-path="url(#clip0)">
<path d="M4.34387 98.1166H137.822C139.911 98.1166 141.604 96.423 141.604 94.3338V4.23684C141.604 2.14763 139.911 0.45401 137.822 0.45401H4.34387C2.25466 0.45401 0.561035 2.14763 0.561035 4.23684V94.3335C0.561035 96.423 2.25467 98.1166 4.34387 98.1166Z" fill="#E0E0D1"/>
<path d="M4.34387 0.45402H13.2318V88.9375C13.2318 91.0267 14.9254 92.7204 17.0146 92.7204H141.604V94.3338C141.604 96.423 139.911 98.1166 137.822 98.1166H4.34387C2.25466 98.1166 0.561035 96.423 0.561035 94.3338V4.23684C0.561035 2.14764 2.25467 0.45401 4.34387 0.45401V0.45402Z" fill="#CECEC0"/>
<path d="M11.2805 77.3C11.2788 77.3 11.2772 77.3 11.2753 77.3C10.999 77.3003 10.7731 77.0807 10.7731 76.8044V21.7661C10.7731 21.4898 10.999 21.2702 11.2753 21.2705C11.2769 21.2705 11.2786 21.2705 11.2805 21.2705C16.7487 21.2705 21.21 16.961 21.4535 11.5528C21.4654 11.2911 21.6855 11.087 21.9475 11.087H120.726C120.987 11.087 121.208 11.2911 121.219 11.5528C121.456 16.8064 125.673 21.0234 130.927 21.2601C131.188 21.2719 131.392 21.492 131.392 21.754V76.8163C131.392 77.0782 131.188 77.2983 130.927 77.3102C125.673 77.5468 121.456 81.7638 121.219 87.0174C121.208 87.2791 120.987 87.4832 120.726 87.4832H21.9475C21.6855 87.4832 21.4654 87.2791 21.4535 87.0174C21.21 81.6095 16.7484 77.3 11.2805 77.3V77.3Z" fill="white"/>
<path d="M11.2753 21.2705C11.2769 21.2705 11.2786 21.2705 11.2805 21.2705C16.7484 21.2705 21.21 16.961 21.4535 11.5528C21.4654 11.2911 21.6855 11.087 21.9475 11.087H34.7279C34.4659 11.087 34.2458 11.2911 34.2339 11.5528C33.9904 16.9607 29.5291 21.2705 24.0609 21.2705C24.0592 21.2705 24.0574 21.2705 24.0556 21.2705C23.7794 21.2702 23.5535 21.4898 23.5535 21.7661V76.8041C23.5535 77.0804 23.7794 77.3 24.0556 77.2997C24.0574 77.2997 24.059 77.2997 24.0609 77.2997C29.5288 77.2997 33.9904 81.6092 34.2339 87.0174C34.2458 87.2791 34.4659 87.4832 34.7279 87.4832H21.9475C21.6855 87.4832 21.4654 87.2791 21.4535 87.0174C21.21 81.6095 16.7487 77.2997 11.2805 77.2997C11.2789 77.2997 11.2769 77.2997 11.2753 77.2997C10.999 77.2997 10.7731 77.0804 10.7731 76.8041V21.7661C10.7733 21.4898 10.999 21.2705 11.2753 21.2705Z" fill="#F2F2F2"/>
<path d="M37.8929 113.808L41.7848 107.42C41.8694 107.281 42.0297 107.207 42.19 107.233L49.2304 108.365C49.5488 108.416 49.794 108.089 49.6552 107.797L39.1422 85.768L26.667 91.7216L37.1902 113.773C37.3271 114.059 37.7276 114.08 37.8929 113.808H37.8929Z" fill="#61AFF6"/>
<path d="M21.219 113.808L17.3271 107.42C17.2425 107.281 17.0824 107.207 16.9218 107.233L9.88152 108.365C9.56304 108.416 9.31786 108.089 9.45672 107.797L19.9697 85.768L32.4449 91.7216L21.9217 113.773C21.7851 114.059 21.3843 114.08 21.219 113.808H21.219Z" fill="#49A0E8"/>
<path d="M26.3948 60.1953C25.3273 60.9542 24.0227 61.3038 22.7189 61.1804C20.4065 60.9616 18.2091 62.2302 17.2424 64.3423C16.6972 65.5332 15.7422 66.4882 14.5513 67.0334C12.4393 68 11.1707 70.1975 11.3894 72.5099C11.5128 73.8137 11.1632 75.1183 10.4043 76.1858C9.0586 78.0789 9.0586 80.6163 10.4043 82.5096C11.163 83.5771 11.5128 84.8817 11.3894 86.1855C11.1707 88.4979 12.4393 90.6954 14.5513 91.662C15.7422 92.2072 16.6973 93.1622 17.2424 94.3531C18.2091 96.4652 20.4065 97.7337 22.7189 97.515C24.0227 97.3916 25.3273 97.7412 26.3948 98.5001C28.2879 99.8458 30.8253 99.8458 32.7186 98.5001C33.7861 97.7412 35.0908 97.3916 36.3946 97.515C38.7069 97.7337 40.9044 96.4652 41.871 94.3531C42.4162 93.1622 43.3712 92.2071 44.5621 91.662C46.6742 90.6954 47.9428 88.4979 47.7241 86.1855C47.6007 84.8817 47.9502 83.5771 48.7091 82.5096C50.0549 80.6165 50.0549 78.0792 48.7091 76.1858C47.9505 75.1183 47.6007 73.8137 47.7241 72.5099C47.9428 70.1975 46.6742 68 44.5621 67.0334C43.3712 66.4882 42.4162 65.5332 41.871 64.3423C40.9044 62.2302 38.7069 60.9616 36.3946 61.1804C35.0908 61.3038 33.7861 60.9542 32.7186 60.1953C30.8253 58.8496 28.2879 58.8496 26.3948 60.1953Z" fill="#FF4C4C"/>
<path d="M36.5971 97.5257C36.5297 97.5218 36.4625 97.521 36.3947 97.5146C36.2454 97.5006 36.096 97.4943 35.947 97.4923C36.165 97.4899 36.3817 97.5025 36.5971 97.5257H36.5971Z" fill="#EA2828"/>
<path d="M35.947 61.2023C36.0961 61.2004 36.2454 61.1943 36.3947 61.18C36.4625 61.1736 36.5297 61.1729 36.5971 61.169C36.3817 61.1921 36.165 61.2048 35.947 61.2023H35.947Z" fill="#EA2828"/>
<path d="M10.4043 76.1858C11.1632 75.1184 11.5128 73.8137 11.3894 72.5099C11.1706 70.1975 12.4392 68 14.5513 67.0334C15.7422 66.4882 16.6972 65.5332 17.2424 64.3423C18.209 62.2302 20.4065 60.9616 22.7189 61.1804C24.0227 61.3038 25.3276 60.9542 26.3948 60.1953C28.2879 58.8496 30.8253 58.8496 32.7186 60.1953C33.485 60.7399 34.3742 61.0696 35.2968 61.1691C33.0596 61.0407 30.9611 62.2919 30.0228 64.342C29.4779 65.5329 28.5225 66.488 27.3317 67.0332C25.2196 67.9998 23.951 70.1973 24.1698 72.5096C24.2932 73.8134 23.9436 75.118 23.1847 76.1855C21.839 78.0786 21.839 80.616 23.1847 82.5093C23.9436 83.5768 24.2932 84.8814 24.1698 86.1855C23.951 88.4979 25.2196 90.6954 27.3317 91.662C28.5225 92.2072 29.4776 93.1623 30.0228 94.3531C30.9611 96.4032 33.0596 97.6544 35.2968 97.5261C34.3742 97.6255 33.4847 97.9553 32.7186 98.4999C30.8255 99.8456 28.2881 99.8456 26.3948 98.4999C25.3273 97.7409 24.0227 97.3913 22.7189 97.5148C20.4065 97.7335 18.209 96.4649 17.2424 94.3528C16.6975 93.162 15.7422 92.2069 14.5513 91.6617C12.4392 90.6951 11.1706 88.4976 11.3894 86.1853C11.5128 84.8815 11.1632 83.5765 10.4043 82.5091C9.0586 80.6163 9.0586 78.0789 10.4043 76.1858V76.1858Z" fill="#EA2828"/>
<ellipse cx="29.7118" cy="79.3477" rx="11.1044" ry="11.1044" fill="#FFB125"/>
<path d="M29.7115 68.243C32.3408 68.243 34.7551 69.1589 36.6573 70.6865C34.1229 72.7217 32.499 75.8442 32.499 79.3474C32.499 82.8509 34.1229 85.9731 36.6573 88.0084C34.7551 89.5359 32.3408 90.4518 29.7115 90.4518C23.5786 90.4518 18.6071 85.48 18.6071 79.3474C18.6071 73.2145 23.5788 68.243 29.7115 68.243Z" fill="#FF901D"/>
<path d="M29.712 35.045H112.454C113.63 35.045 114.584 35.9987 114.584 37.175C114.584 38.3512 113.63 39.3049 112.454 39.3049H29.712C28.5355 39.3049 27.582 38.3512 27.582 37.175C27.582 35.9987 28.5354 35.045 29.712 35.045Z" fill="#61AFF6"/>
<path d="M29.712 23.495H112.454C113.63 23.495 114.584 24.4487 114.584 25.625C114.584 26.8013 113.63 27.7549 112.454 27.7549H29.712C28.5355 27.7549 27.582 26.8013 27.582 25.625C27.5818 24.4487 28.5354 23.495 29.712 23.495Z" fill="#61AFF6"/>
<path d="M29.712 46.689H112.454C113.63 46.689 114.584 47.6427 114.584 48.819C114.584 49.9952 113.63 50.9489 112.454 50.9489H29.712C28.5355 50.9489 27.582 49.9952 27.582 48.819C27.5818 47.6427 28.5354 46.689 29.712 46.689Z" fill="#61AFF6"/>
<path d="M56.8383 61.742H85.3274C86.5039 61.742 87.4574 62.6957 87.4574 63.872C87.4574 65.0482 86.5039 66.0019 85.3274 66.0019H56.838C55.6614 66.0019 54.708 65.0482 54.708 63.872C54.708 62.6957 55.6617 61.742 56.8383 61.742H56.8383Z" fill="#61AFF6"/>
</g>
<defs>
<clipPath id="clip0">
<rect width="141.043" height="113.546" fill="white" transform="translate(0.561035 0.45401)"/>
</clipPath>
</defs>
</svg>
