<svg width="253" height="253" viewBox="0 0 253 253" fill="none" xmlns="http://www.w3.org/2000/svg">
<g filter="url(#filter0_d)">
<circle cx="126.5" cy="126.5" r="120.5" fill="#C2DAA5"/>
</g>
<g filter="url(#filter1_d)">
<circle cx="126.5" cy="126.5" r="108.5" fill="#B2E68D"/>
</g>
<ellipse cx="126.5" cy="126.5" rx="97.5" ry="95.5" fill="white"/>
<g clip-path="url(#clip0)">
<path d="M62.289 168.805H189.985C191.984 168.805 193.604 167.185 193.604 165.186V78.992C193.604 76.9933 191.984 75.373 189.985 75.373H62.289C60.2903 75.373 58.67 76.9933 58.67 78.992V165.186C58.67 167.185 60.2903 168.805 62.289 168.805Z" fill="#E0E0D1"/>
<path d="M62.289 75.373H70.792V160.024C70.792 162.023 72.4122 163.643 74.4109 163.643H193.604V165.186C193.604 167.185 191.984 168.805 189.985 168.805H62.289C60.2903 168.805 58.67 167.185 58.67 165.186V78.992C58.67 76.9933 60.2903 75.373 62.289 75.373Z" fill="#CECEC0"/>
<path d="M68.9255 148.891C68.9239 148.891 68.9224 148.891 68.9205 148.891C68.6562 148.891 68.4401 148.681 68.4401 148.417V95.7626C68.4401 95.4982 68.6562 95.2882 68.9205 95.2885C68.9221 95.2885 68.9237 95.2885 68.9255 95.2885C74.1568 95.2885 78.4249 91.1656 78.6579 85.9917C78.6692 85.7413 78.8798 85.546 79.1304 85.546H173.63C173.88 85.546 174.091 85.7413 174.102 85.9917C174.329 91.0177 178.363 95.0521 183.389 95.2784C183.639 95.2898 183.835 95.5003 183.835 95.751V148.428C183.835 148.679 183.639 148.889 183.389 148.901C178.363 149.127 174.329 153.161 174.102 158.187C174.091 158.438 173.88 158.633 173.63 158.633H79.1304C78.8798 158.633 78.6692 158.438 78.6579 158.187C78.4249 153.014 74.1566 148.891 68.9255 148.891Z" fill="white"/>
<path d="M68.9205 95.2885C68.9221 95.2885 68.9237 95.2885 68.9255 95.2885C74.1566 95.2885 78.4249 91.1656 78.6579 85.9917C78.6692 85.7413 78.8798 85.546 79.1304 85.546H91.3572C91.1066 85.546 90.896 85.7413 90.8847 85.9917C90.6517 91.1653 86.3836 95.2885 81.1523 95.2885C81.1507 95.2885 81.1489 95.2885 81.1473 95.2885C80.883 95.2882 80.6669 95.4982 80.6669 95.7626V148.417C80.6669 148.681 80.883 148.891 81.1473 148.891C81.1489 148.891 81.1505 148.891 81.1523 148.891C86.3834 148.891 90.6517 153.014 90.8847 158.187C90.896 158.438 91.1066 158.633 91.3572 158.633H79.1304C78.8798 158.633 78.6692 158.438 78.6579 158.187C78.4249 153.014 74.1568 148.891 68.9255 148.891C68.9239 148.891 68.9221 148.891 68.9205 148.891C68.6562 148.891 68.4401 148.681 68.4401 148.417V95.7626C68.4403 95.4982 68.6562 95.2885 68.9205 95.2885Z" fill="#F2F2F2"/>
<path d="M94.3847 183.817L98.108 177.705C98.1889 177.572 98.3423 177.502 98.4957 177.526L105.231 178.609C105.536 178.658 105.77 178.345 105.637 178.066L95.5798 156.991L83.645 162.687L93.7123 183.783C93.8433 184.057 94.2265 184.076 94.3847 183.817L94.3847 183.817Z" fill="#61AFF6"/>
<path d="M78.4338 183.817L74.7105 177.705C74.6296 177.572 74.4765 177.502 74.3228 177.526L67.5875 178.609C67.2828 178.658 67.0482 178.345 67.1811 178.066L77.2387 156.991L89.1735 162.687L79.1061 183.783C78.9754 184.057 78.592 184.076 78.4338 183.817V183.817Z" fill="#49A0E8"/>
<path d="M83.3845 132.527C82.3633 133.253 81.1152 133.587 79.8678 133.469C77.6556 133.26 75.5534 134.473 74.6286 136.494C74.107 137.633 73.1933 138.547 72.054 139.069C70.0335 139.993 68.8198 142.096 69.0291 144.308C69.1471 145.555 68.8127 146.803 68.0866 147.824C66.7992 149.636 66.7992 152.063 68.0866 153.874C68.8125 154.896 69.1471 156.144 69.0291 157.391C68.8198 159.603 70.0335 161.706 72.054 162.63C73.1933 163.152 74.107 164.066 74.6286 165.205C75.5534 167.225 77.6556 168.439 79.8678 168.23C81.1152 168.112 82.3633 168.446 83.3845 169.172C85.1956 170.46 87.6231 170.46 89.4344 169.172C90.4557 168.446 91.7038 168.112 92.9511 168.23C95.1633 168.439 97.2656 167.225 98.1904 165.205C98.7119 164.066 99.6256 163.152 100.765 162.63C102.786 161.706 103.999 159.603 103.79 157.391C103.672 156.144 104.006 154.896 104.732 153.874C106.02 152.063 106.02 149.636 104.732 147.824C104.007 146.803 103.672 145.555 103.79 144.308C103.999 142.096 102.786 139.993 100.765 139.069C99.6256 138.547 98.7119 137.633 98.1904 136.494C97.2656 134.473 95.1633 133.26 92.9511 133.469C91.7038 133.587 90.4557 133.253 89.4344 132.527C87.6231 131.239 85.1956 131.239 83.3845 132.527Z" fill="#FF4C4C"/>
<path d="M93.1451 168.24C93.0805 168.237 93.0162 168.236 92.9514 168.23C92.8085 168.216 92.6656 168.21 92.5231 168.208C92.7316 168.206 92.9389 168.218 93.1451 168.24Z" fill="#EA2828"/>
<path d="M92.5231 133.49C92.6657 133.488 92.8085 133.482 92.9514 133.469C93.0162 133.462 93.0805 133.462 93.1451 133.458C92.9389 133.48 92.7316 133.492 92.5231 133.49Z" fill="#EA2828"/>
<path d="M68.0866 147.825C68.8127 146.803 69.1471 145.555 69.029 144.308C68.8198 142.096 70.0334 139.993 72.054 139.069C73.1933 138.547 74.107 137.633 74.6285 136.494C75.5533 134.473 77.6556 133.26 79.8678 133.469C81.1151 133.587 82.3636 133.253 83.3845 132.527C85.1956 131.239 87.6231 131.239 89.4344 132.527C90.1676 133.048 91.0183 133.363 91.9009 133.458C89.7607 133.335 87.753 134.532 86.8554 136.494C86.3341 137.633 85.4201 138.547 84.2808 139.068C82.2602 139.993 81.0466 142.095 81.2559 144.308C81.3739 145.555 81.0395 146.803 80.3134 147.824C79.026 149.635 79.026 152.063 80.3134 153.874C81.0395 154.895 81.374 156.143 81.2559 157.391C81.0466 159.603 82.2602 161.706 84.2808 162.63C85.4201 163.152 86.3338 164.066 86.8554 165.205C87.753 167.166 89.7607 168.363 91.9009 168.24C91.0183 168.335 90.1673 168.651 89.4344 169.172C87.6233 170.459 85.1958 170.459 83.3845 169.172C82.3633 168.446 81.1151 168.111 79.8678 168.23C77.6556 168.439 75.5533 167.225 74.6285 165.205C74.1072 164.065 73.1933 163.152 72.054 162.63C70.0334 161.705 68.8198 159.603 69.029 157.391C69.1471 156.144 68.8127 154.895 68.0866 153.874C66.7992 152.063 66.7992 149.636 68.0866 147.825V147.825Z" fill="#EA2828"/>
<ellipse cx="86.5582" cy="150.849" rx="10.6234" ry="10.6234" fill="#FFB125"/>
<path d="M86.5585 140.226C89.074 140.226 91.3837 141.102 93.2034 142.564C90.7788 144.511 89.2252 147.498 89.2252 150.849C89.2252 154.201 90.7788 157.188 93.2034 159.135C91.3837 160.597 89.074 161.473 86.5585 161.473C80.6912 161.473 75.9351 156.716 75.9351 150.849C75.9351 144.982 80.6914 140.226 86.5585 140.226V140.226Z" fill="#FF901D"/>
<path d="M86.5577 108.466H165.716C166.841 108.466 167.753 109.378 167.753 110.504C167.753 111.629 166.841 112.541 165.716 112.541H86.5577C85.4321 112.541 84.52 111.629 84.52 110.504C84.52 109.378 85.4321 108.466 86.5577 108.466Z" fill="#61AFF6"/>
<path d="M86.5577 97.416H165.716C166.841 97.416 167.753 98.3284 167.753 99.4538C167.753 100.579 166.841 101.491 165.716 101.491H86.5577C85.4321 101.491 84.52 100.579 84.52 99.4538C84.5197 98.3284 85.4321 97.416 86.5577 97.416Z" fill="#61AFF6"/>
<path d="M86.5577 119.606H165.716C166.841 119.606 167.753 120.518 167.753 121.644C167.753 122.769 166.841 123.681 165.716 123.681H86.5577C85.4321 123.681 84.52 122.769 84.52 121.644C84.5197 120.518 85.4321 119.606 86.5577 119.606Z" fill="#61AFF6"/>
<path d="M112.509 134.006H139.764C140.89 134.006 141.802 134.918 141.802 136.044C141.802 137.169 140.89 138.081 139.764 138.081H112.509C111.383 138.081 110.471 137.169 110.471 136.044C110.471 134.918 111.383 134.006 112.509 134.006Z" fill="#61AFF6"/>
</g>
<defs>
<filter id="filter0_d" x="0" y="0" width="253" height="253" filterUnits="userSpaceOnUse" color-interpolation-filters="sRGB">
<feFlood flood-opacity="0" result="BackgroundImageFix"/>
<feColorMatrix in="SourceAlpha" type="matrix" values="0 0 0 0 0 0 0 0 0 0 0 0 0 0 0 0 0 0 127 0"/>
<feOffset/>
<feGaussianBlur stdDeviation="3"/>
<feColorMatrix type="matrix" values="0 0 0 0 0 0 0 0 0 0 0 0 0 0 0 0 0 0 0.184314 0"/>
<feBlend mode="normal" in2="BackgroundImageFix" result="effect1_dropShadow"/>
<feBlend mode="normal" in="SourceGraphic" in2="effect1_dropShadow" result="shape"/>
</filter>
<filter id="filter1_d" x="12" y="12" width="229" height="229" filterUnits="userSpaceOnUse" color-interpolation-filters="sRGB">
<feFlood flood-opacity="0" result="BackgroundImageFix"/>
<feColorMatrix in="SourceAlpha" type="matrix" values="0 0 0 0 0 0 0 0 0 0 0 0 0 0 0 0 0 0 127 0"/>
<feOffset/>
<feGaussianBlur stdDeviation="3"/>
<feColorMatrix type="matrix" values="0 0 0 0 0 0 0 0 0 0 0 0 0 0 0 0 0 0 0.184314 0"/>
<feBlend mode="normal" in2="BackgroundImageFix" result="effect1_dropShadow"/>
<feBlend mode="normal" in="SourceGraphic" in2="effect1_dropShadow" result="shape"/>
</filter>
<clipPath id="clip0">
<rect width="134.934" height="108.627" fill="white" transform="translate(58.67 75.373)"/>
</clipPath>
</defs>
</svg>
